# This file uses centimeters as units for non-parametric coordinates.

mtllib Cabinet.mtl
g default
v 22.474520 -0.398852 -8.539538
v 13.234079 -0.398852 -8.539538
v 22.474520 4.908363 -8.539538
v 13.234079 4.908363 -8.539538
v 22.474520 10.215576 -8.539538
v 13.234079 10.215576 -8.539538
v 22.474520 15.522789 -8.539538
v 13.234079 15.522789 -8.539538
v 22.474520 20.830004 -8.539538
v 13.234079 20.830004 -8.539538
v 22.474520 20.830004 -3.232323
v 13.234079 20.830004 -3.232323
v 22.474520 20.830004 2.074891
v 13.234079 20.830004 2.074891
v 22.474520 20.830004 7.382104
v 13.234079 20.830004 7.382104
v 22.474520 20.830004 12.689319
v 13.234079 20.830004 12.689319
v 22.474520 15.522789 12.689319
v 13.234079 15.522789 12.689319
v 22.474520 10.215576 12.689319
v 13.234079 10.215576 12.689319
v 22.474520 4.908363 12.689319
v 13.234079 4.908363 12.689319
v 22.474520 -0.398852 12.689319
v 13.234079 -0.398852 12.689319
v 22.474520 -0.398852 7.382104
v 13.234079 -0.398852 7.382104
v 22.474520 -0.398852 2.074891
v 13.234079 -0.398852 2.074891
v 22.474520 -0.398852 -3.232323
v 13.234079 -0.398852 -3.232323
v 13.234079 4.908363 7.382104
v 13.234079 4.908363 2.074891
v 13.234079 4.908363 -3.232323
v 13.234079 10.215576 7.382104
v 13.234079 10.215576 2.074891
v 13.234079 10.215576 -3.232323
v 13.234079 15.522789 7.382104
v 13.234079 15.522789 2.074891
v 13.234079 15.522789 -3.232323
v 22.474520 4.908363 7.382104
v 22.474520 4.908363 2.074891
v 22.474520 4.908363 -3.232323
v 22.474520 10.215576 7.382104
v 22.474520 10.215576 2.074891
v 22.474520 10.215576 -3.232323
v 22.474520 15.522789 7.382104
v 22.474520 15.522789 2.074891
v 22.474520 15.522789 -3.232323
v 13.234079 -0.107669 12.398136
v 13.234079 -0.107669 7.673287
v 13.234079 4.617177 12.398136
v 13.234079 4.617177 7.673287
v 13.234079 -0.107669 7.090920
v 13.234079 -0.107669 2.366074
v 13.234079 4.617177 7.090920
v 13.234079 4.617177 2.366074
v 13.234079 -0.107669 1.783707
v 13.234079 -0.107669 -2.941139
v 13.234079 4.617177 1.783707
v 13.234079 4.617177 -2.941139
v 13.234079 -0.107669 -3.523506
v 13.234079 -0.107669 -8.248353
v 13.234079 4.617177 -3.523506
v 13.234079 4.617177 -8.248353
v 13.234079 5.199546 12.398136
v 13.234079 5.199546 7.673287
v 13.234079 9.924393 12.398136
v 13.234079 9.924393 7.673287
v 13.234079 5.199546 7.090920
v 13.234079 5.199546 2.366074
v 13.234079 9.924393 7.090920
v 13.234079 9.924393 2.366074
v 13.234079 5.199546 1.783707
v 13.234079 5.199546 -2.941139
v 13.234079 9.924393 1.783707
v 13.234079 9.924393 -2.941139
v 13.234079 5.199546 -3.523506
v 13.234079 5.199546 -8.248353
v 13.234079 9.924393 -3.523506
v 13.234079 9.924393 -8.248353
v 13.234079 10.506760 12.398136
v 13.234079 10.506760 7.673287
v 13.234079 15.231606 12.398136
v 13.234079 15.231606 7.673287
v 13.234079 10.506760 7.090920
v 13.234079 10.506760 2.366074
v 13.234079 15.231606 7.090920
v 13.234079 15.231606 2.366074
v 13.234079 10.506760 1.783707
v 13.234079 10.506760 -2.941139
v 13.234079 15.231606 1.783707
v 13.234079 15.231606 -2.941139
v 13.234079 10.506760 -3.523506
v 13.234079 10.506760 -8.248353
v 13.234079 15.231606 -3.523506
v 13.234079 15.231606 -8.248353
v 13.234079 15.813973 12.398136
v 13.234079 15.813973 7.673287
v 13.234079 20.538820 12.398136
v 13.234079 20.538820 7.673287
v 13.234079 15.813973 7.090920
v 13.234079 15.813973 2.366074
v 13.234079 20.538820 7.090920
v 13.234079 20.538820 2.366074
v 13.234079 15.813973 1.783707
v 13.234079 15.813973 -2.941139
v 13.234079 20.538820 1.783707
v 13.234079 20.538820 -2.941139
v 13.234079 15.813973 -3.523506
v 13.234079 15.813973 -8.248353
v 13.234079 20.538820 -3.523506
v 13.234079 20.538820 -8.248353
v 13.309852 -0.107669 12.398136
v 13.309852 -0.107669 7.673287
v 13.309852 4.617177 12.398136
v 13.309852 4.617177 7.673287
v 13.309852 -0.107669 7.090920
v 13.309852 -0.107669 2.366074
v 13.309852 4.617177 7.090920
v 13.309852 4.617177 2.366074
v 13.309852 -0.107669 1.783707
v 13.309852 -0.107669 -2.941139
v 13.309852 4.617177 1.783707
v 13.309852 4.617177 -2.941139
v 13.309852 -0.107669 -3.523506
v 13.309852 -0.107669 -8.248353
v 13.309852 4.617177 -3.523506
v 13.309852 4.617177 -8.248353
v 13.309852 5.199546 12.398136
v 13.309852 5.199546 7.673287
v 13.309852 9.924393 12.398136
v 13.309852 9.924393 7.673287
v 13.309852 5.199546 7.090920
v 13.309852 5.199546 2.366074
v 13.309852 9.924393 7.090920
v 13.309852 9.924393 2.366074
v 13.309852 5.199546 1.783707
v 13.309852 5.199546 -2.941139
v 13.309852 9.924393 1.783707
v 13.309852 9.924393 -2.941139
v 13.309852 5.199546 -3.523506
v 13.309852 5.199546 -8.248353
v 13.309852 9.924393 -3.523506
v 13.309852 9.924393 -8.248353
v 13.309852 10.506760 12.398136
v 13.309852 10.506760 7.673287
v 13.309852 15.231606 12.398136
v 13.309852 15.231606 7.673287
v 13.309852 10.506760 7.090920
v 13.309852 10.506760 2.366074
v 13.309852 15.231606 7.090920
v 13.309852 15.231606 2.366074
v 13.309852 10.506760 1.783707
v 13.309852 10.506760 -2.941139
v 13.309852 15.231606 1.783707
v 13.309852 15.231606 -2.941139
v 13.309852 10.506760 -3.523506
v 13.309852 10.506760 -8.248353
v 13.309852 15.231606 -3.523506
v 13.309852 15.231606 -8.248353
v 13.309852 15.813973 12.398136
v 13.309852 15.813973 7.673287
v 13.309852 20.538820 12.398136
v 13.309852 20.538820 7.673287
v 13.309852 15.813973 7.090920
v 13.309852 15.813973 2.366074
v 13.309852 20.538820 7.090920
v 13.309852 20.538820 2.366074
v 13.309852 15.813973 1.783707
v 13.309852 15.813973 -2.941139
v 13.309852 20.538820 1.783707
v 13.309852 20.538820 -2.941139
v 13.309852 15.813973 -3.523506
v 13.309852 15.813973 -8.248353
v 13.309852 20.538820 -3.523506
v 13.309852 20.538820 -8.248353
v 13.309852 3.763278 11.737388
v 13.309852 3.763278 8.334032
v 13.309852 4.134027 11.737388
v 13.309852 4.134027 8.334032
v 13.309852 3.763278 6.430174
v 13.309852 3.763278 3.026816
v 13.309852 4.134027 6.430174
v 13.309852 4.134027 3.026816
v 13.309852 3.763278 1.122960
v 13.309852 3.763278 -2.280397
v 13.309852 4.134027 1.122960
v 13.309852 4.134027 -2.280397
v 13.309852 3.763278 -4.184256
v 13.309852 3.763278 -7.587611
v 13.309852 4.134027 -4.184256
v 13.309852 4.134027 -7.587611
v 13.309851 9.070492 11.737388
v 13.309851 9.070492 8.334032
v 13.309851 9.441242 11.737388
v 13.309851 9.441242 8.334032
v 13.309852 9.070492 6.430174
v 13.309852 9.070492 3.026816
v 13.309852 9.441242 6.430174
v 13.309852 9.441242 3.026816
v 13.309852 9.070492 1.122960
v 13.309852 9.070492 -2.280397
v 13.309852 9.441242 1.122960
v 13.309852 9.441242 -2.280397
v 13.309851 9.070492 -4.184252
v 13.309851 9.070492 -7.587611
v 13.309851 9.441242 -4.184252
v 13.309851 9.441242 -7.587611
v 13.309852 14.377705 11.737388
v 13.309852 14.377705 8.334032
v 13.309852 14.748455 11.737388
v 13.309852 14.748455 8.334032
v 13.309851 14.377705 6.430174
v 13.309851 14.377705 3.026816
v 13.309851 14.748455 6.430174
v 13.309851 14.748455 3.026816
v 13.309851 14.377705 1.122960
v 13.309851 14.377705 -2.280397
v 13.309851 14.748455 1.122960
v 13.309851 14.748455 -2.280397
v 13.309852 14.377705 -4.184252
v 13.309852 14.377705 -7.587611
v 13.309852 14.748455 -4.184252
v 13.309852 14.748455 -7.587611
v 13.309852 19.684922 11.737388
v 13.309852 19.684922 8.334032
v 13.309852 20.055670 11.737388
v 13.309852 20.055670 8.334032
v 13.309852 19.684918 6.430174
v 13.309852 19.684918 3.026816
v 13.309852 20.055668 6.430174
v 13.309852 20.055668 3.026816
v 13.309852 19.684922 1.122960
v 13.309852 19.684922 -2.280397
v 13.309852 20.055670 1.122960
v 13.309852 20.055670 -2.280397
v 13.309852 19.684922 -4.184252
v 13.309852 19.684922 -7.587611
v 13.309852 20.055670 -4.184252
v 13.309852 20.055670 -7.587611
v 13.203689 3.763278 11.737388
v 13.203689 3.763278 8.334032
v 13.203689 4.134027 11.737388
v 13.203689 4.134027 8.334032
v 13.203689 3.763278 6.430174
v 13.203689 3.763278 3.026816
v 13.203689 4.134027 6.430174
v 13.203689 4.134027 3.026816
v 13.203689 3.763278 1.122960
v 13.203689 3.763278 -2.280397
v 13.203689 4.134027 1.122960
v 13.203689 4.134027 -2.280397
v 13.203689 3.763278 -4.184256
v 13.203689 3.763278 -7.587611
v 13.203689 4.134027 -4.184256
v 13.203689 4.134027 -7.587611
v 13.203688 9.070492 11.737388
v 13.203688 9.070492 8.334032
v 13.203688 9.441242 11.737388
v 13.203688 9.441242 8.334032
v 13.203689 9.070492 6.430174
v 13.203689 9.070492 3.026816
v 13.203689 9.441242 6.430174
v 13.203689 9.441242 3.026816
v 13.203689 9.070492 1.122960
v 13.203689 9.070492 -2.280397
v 13.203689 9.441242 1.122960
v 13.203689 9.441242 -2.280397
v 13.203688 9.070492 -4.184252
v 13.203688 9.070492 -7.587611
v 13.203688 9.441242 -4.184252
v 13.203688 9.441242 -7.587611
v 13.203689 14.377705 11.737388
v 13.203689 14.377705 8.334032
v 13.203689 14.748455 11.737388
v 13.203689 14.748455 8.334032
v 13.203688 14.377705 6.430174
v 13.203688 14.377705 3.026816
v 13.203688 14.748455 6.430174
v 13.203688 14.748455 3.026816
v 13.203688 14.377705 1.122960
v 13.203688 14.377705 -2.280397
v 13.203688 14.748455 1.122960
v 13.203688 14.748455 -2.280397
v 13.203689 14.377705 -4.184252
v 13.203689 14.377705 -7.587611
v 13.203689 14.748455 -4.184252
v 13.203689 14.748455 -7.587611
v 13.203689 19.684922 11.737388
v 13.203689 19.684922 8.334032
v 13.203689 20.055670 11.737388
v 13.203689 20.055670 8.334032
v 13.203689 19.684918 6.430174
v 13.203689 19.684918 3.026816
v 13.203689 20.055668 6.430174
v 13.203689 20.055668 3.026816
v 13.203689 19.684922 1.122960
v 13.203689 19.684922 -2.280397
v 13.203689 20.055670 1.122960
v 13.203689 20.055670 -2.280397
v 13.203689 19.684922 -4.184252
v 13.203689 19.684922 -7.587611
v 13.203689 20.055670 -4.184252
v 13.203689 20.055670 -7.587611
vt 0.256698 0.010469
vt 0.363883 0.015019
vt 0.254085 0.072030
vt 0.361270 0.076580
vt 0.251471 0.133592
vt 0.358656 0.138141
vt 0.248858 0.195153
vt 0.356043 0.199703
vt 0.246245 0.256714
vt 0.353430 0.261264
vt 0.243632 0.318276
vt 0.350817 0.322825
vt 0.241019 0.379837
vt 0.348204 0.384387
vt 0.238406 0.441398
vt 0.345591 0.445948
vt 0.235793 0.502960
vt 0.342978 0.507509
vt 0.233180 0.564521
vt 0.340365 0.569071
vt 0.230567 0.626082
vt 0.337752 0.630632
vt 0.227954 0.687644
vt 0.335139 0.692193
vt 0.225341 0.749205
vt 0.332526 0.753755
vt 0.222727 0.810766
vt 0.329912 0.815316
vt 0.220114 0.872328
vt 0.327299 0.876877
vt 0.217501 0.933889
vt 0.324686 0.938439
vt 0.214888 0.995450
vt 0.322073 1.000000
vt 0.610128 0.025471
vt 0.548567 0.022858
vt 0.487005 0.020245
vt 0.425444 0.017632
vt 0.607515 0.087032
vt 0.545954 0.084419
vt 0.484392 0.081806
vt 0.422831 0.079193
vt 0.604902 0.148594
vt 0.543341 0.145981
vt 0.481779 0.143368
vt 0.420218 0.140754
vt 0.602289 0.210155
vt 0.540727 0.207542
vt 0.479166 0.204929
vt 0.417605 0.202316
vt 0.599676 0.271716
vt 0.538114 0.269103
vt 0.476553 0.266490
vt 0.414992 0.263877
vt 0.010452 0.000017
vt 0.072014 0.002630
vt 0.133575 0.005243
vt 0.195136 0.007856
vt 0.007839 0.061578
vt 0.069401 0.064191
vt 0.130962 0.066804
vt 0.192523 0.069417
vt 0.005226 0.123139
vt 0.066788 0.125752
vt 0.128349 0.128366
vt 0.189910 0.130979
vt 0.002613 0.184700
vt 0.064174 0.187314
vt 0.125736 0.189927
vt 0.187297 0.192540
vt 0.000000 0.246262
vt 0.061561 0.248875
vt 0.123123 0.251488
vt 0.184684 0.254101
vt 0.551801 0.026379
vt 0.606607 0.028705
vt 0.604281 0.083511
vt 0.549475 0.081185
vt 0.490240 0.023766
vt 0.545046 0.026092
vt 0.542719 0.080898
vt 0.487913 0.078572
vt 0.428678 0.021153
vt 0.483484 0.023479
vt 0.481158 0.078285
vt 0.426352 0.075959
vt 0.367117 0.018540
vt 0.421923 0.020866
vt 0.419597 0.075672
vt 0.364791 0.073346
vt 0.549188 0.087940
vt 0.603994 0.090267
vt 0.601668 0.145073
vt 0.546861 0.142746
vt 0.487626 0.085327
vt 0.542433 0.087654
vt 0.540106 0.142460
vt 0.485300 0.140133
vt 0.426065 0.082714
vt 0.480871 0.085040
vt 0.478545 0.139847
vt 0.423739 0.137520
vt 0.364504 0.080101
vt 0.419310 0.082427
vt 0.416984 0.137233
vt 0.362178 0.134907
vt 0.546575 0.149502
vt 0.601381 0.151828
vt 0.599055 0.206634
vt 0.544248 0.204308
vt 0.485013 0.146888
vt 0.539819 0.149215
vt 0.537493 0.204021
vt 0.482687 0.201695
vt 0.423452 0.144275
vt 0.478258 0.146602
vt 0.475932 0.201408
vt 0.421126 0.199081
vt 0.361891 0.141662
vt 0.416697 0.143989
vt 0.414371 0.198795
vt 0.359564 0.196468
vt 0.543962 0.211063
vt 0.598768 0.213389
vt 0.596441 0.268195
vt 0.541635 0.265869
vt 0.482400 0.208450
vt 0.537206 0.210776
vt 0.534880 0.265582
vt 0.480074 0.263256
vt 0.420839 0.205837
vt 0.475645 0.208163
vt 0.473319 0.262969
vt 0.418513 0.260643
vt 0.811148 0.849038
vt 0.895454 0.858427
vt 0.885366 0.942202
vt 0.802302 0.932637
vt 0.734718 0.688174
vt 0.816742 0.675345
vt 0.828775 0.757058
vt 0.747866 0.769383
vt 0.551711 0.688174
vt 0.564859 0.769383
vt 0.643215 0.688174
vt 0.656362 0.769383
vt 0.460208 0.688174
vt 0.473355 0.769383
vt 0.776222 0.939724
vt 0.694555 0.934427
vt 0.489989 0.852747
vt 0.856003 0.852519
vt 0.403585 0.937020
vt 0.844229 0.843515
vt 0.763049 0.853890
vt 0.585761 0.891693
vt 0.499976 0.936938
vt 0.838847 0.768931
vt 0.458508 0.756787
vt 0.377881 0.770839
vt 0.397035 0.853572
vt 0.671545 0.852874
vt 0.803259 0.931804
vt 0.756829 0.752588
vt 0.815075 0.743658
vt 0.815880 0.750264
vt 0.757891 0.759122
vt 0.573822 0.752589
vt 0.632068 0.743658
vt 0.632873 0.750264
vt 0.574884 0.759122
vt 0.665326 0.752589
vt 0.723572 0.743658
vt 0.724377 0.750264
vt 0.666387 0.759122
vt 0.482319 0.752589
vt 0.540565 0.743658
vt 0.541370 0.750264
vt 0.483380 0.759122
vt 0.706906 0.919941
vt 0.765713 0.923700
vt 0.765083 0.930325
vt 0.706545 0.926551
vt 0.499060 0.836005
vt 0.557360 0.827457
vt 0.558122 0.834068
vt 0.500080 0.842548
vt 0.865074 0.835777
vt 0.923374 0.827229
vt 0.924136 0.833840
vt 0.866094 0.842320
vt 0.414989 0.921779
vt 0.473915 0.921784
vt 0.473709 0.928436
vt 0.415048 0.928398
vt 0.772411 0.837315
vt 0.830855 0.829789
vt 0.831501 0.836412
vt 0.773316 0.843873
vt 0.595124 0.875118
vt 0.653567 0.867592
vt 0.654213 0.874215
vt 0.596028 0.881676
vt 0.509339 0.920364
vt 0.567783 0.912837
vt 0.568429 0.919461
vt 0.510244 0.926921
vt 0.847917 0.752189
vt 0.906217 0.743641
vt 0.906979 0.750252
vt 0.848937 0.758732
vt 0.386483 0.753857
vt 0.444524 0.743683
vt 0.445471 0.750270
vt 0.387684 0.760366
vt 0.406398 0.836997
vt 0.464842 0.829471
vt 0.465487 0.836094
vt 0.407303 0.843555
vt 0.680908 0.836300
vt 0.739352 0.828773
vt 0.739998 0.835397
vt 0.681813 0.842857
vt 0.834440 0.392588
vt 0.884508 0.416981
vt 0.879866 0.423187
vt 0.829798 0.398794
vt 0.900045 0.440209
vt 0.953951 0.443121
vt 0.953634 0.448994
vt 0.899728 0.446082
vt 0.921045 0.412175
vt 0.920728 0.418047
vt 0.900045 0.430664
vt 0.899728 0.436536
vt 0.396058 0.394285
vt 0.395741 0.400157
vt 0.705020 0.414059
vt 0.652928 0.399892
vt 0.568980 0.400123
vt 0.815430 0.431780
vt 0.647434 0.424649
vt 0.747019 0.414059
vt 0.694927 0.399892
vt 0.891334 0.420041
vt 0.731432 0.428214
vt 0.453483 0.400123
vt 0.953634 0.458539
vt 0.899728 0.455628
vt 0.511231 0.400123
vt 0.763127 0.399665
vt 0.831334 0.399486
vt 0.974950 0.415087
vt 0.974633 0.420959
vt 0.953951 0.433575
vt 0.953634 0.439448
vt 0.449963 0.397196
vt 0.449646 0.403069
vt 0.654471 0.394217
vt 0.706563 0.408385
vt 0.569584 0.394273
vt 0.623282 0.399816
vt 0.622679 0.405666
vt 0.818795 0.426957
vt 0.863064 0.457853
vt 0.859699 0.462675
vt 0.650799 0.419826
vt 0.695069 0.450722
vt 0.691703 0.455544
vt 0.696470 0.394217
vt 0.748562 0.408385
vt 0.889105 0.414599
vt 0.939061 0.394137
vt 0.941290 0.399579
vt 0.734797 0.423392
vt 0.779066 0.454287
vt 0.775701 0.459110
vt 0.454087 0.394273
vt 0.507786 0.399816
vt 0.507182 0.405666
vt 0.900045 0.449755
vt 0.953951 0.452667
vt 0.511835 0.394273
vt 0.565534 0.399816
vt 0.564930 0.405666
vt 0.765191 0.394158
vt 0.815739 0.413111
vt 0.813674 0.418618
vt 0.833748 0.394123
vt 0.882972 0.416289
vt 0.880557 0.421651
vt 0.733675 0.687460
vt 0.817471 0.674309
vt 0.829816 0.757780
vt 0.747162 0.770438
vt 0.550668 0.687460
vt 0.634464 0.674309
vt 0.633735 0.675345
vt 0.646809 0.757780
vt 0.645768 0.757058
vt 0.564155 0.770438
vt 0.642171 0.687460
vt 0.725968 0.674309
vt 0.725238 0.675345
vt 0.738312 0.757780
vt 0.737272 0.757058
vt 0.655659 0.770438
vt 0.459164 0.687460
vt 0.542961 0.674309
vt 0.542231 0.675345
vt 0.555305 0.757780
vt 0.554265 0.757058
vt 0.472652 0.770438
vt 0.698244 0.851365
vt 0.782917 0.856477
vt 0.781982 0.857332
vt 0.699111 0.852286
vt 0.777084 0.940652
vt 0.693642 0.935307
vt 0.476321 0.770736
vt 0.560206 0.758125
vt 0.559469 0.759157
vt 0.477360 0.771456
vt 0.572008 0.841674
vt 0.570972 0.840946
vt 0.489279 0.853799
vt 0.842335 0.770508
vt 0.926220 0.757897
vt 0.925483 0.758929
vt 0.843374 0.771229
vt 0.938022 0.841446
vt 0.936986 0.840718
vt 0.855293 0.853571
vt 0.401974 0.853895
vt 0.486801 0.853599
vt 0.485923 0.854512
vt 0.402898 0.854759
vt 0.486342 0.937978
vt 0.485423 0.937107
vt 0.402729 0.937957
vt 0.750832 0.771648
vt 0.834922 0.760518
vt 0.834168 0.761536
vt 0.751858 0.772386
vt 0.845253 0.844260
vt 0.762320 0.854928
vt 0.573543 0.809451
vt 0.657634 0.798321
vt 0.656880 0.799340
vt 0.574570 0.810189
vt 0.667964 0.882063
vt 0.666941 0.881318
vt 0.585032 0.892731
vt 0.487759 0.854697
vt 0.571850 0.843567
vt 0.571096 0.844585
vt 0.488785 0.855435
vt 0.582180 0.927309
vt 0.581156 0.926563
vt 0.499247 0.937976
vt 0.825178 0.686920
vt 0.909063 0.674309
vt 0.908326 0.675341
vt 0.826217 0.687641
vt 0.920865 0.757858
vt 0.919829 0.757130
vt 0.838136 0.769983
vt 0.361942 0.689238
vt 0.445438 0.674298
vt 0.444731 0.675350
vt 0.363000 0.689929
vt 0.459565 0.757485
vt 0.377200 0.771909
vt 0.384818 0.771330
vt 0.468908 0.760200
vt 0.468154 0.761219
vt 0.385844 0.772068
vt 0.479239 0.843942
vt 0.478215 0.843197
vt 0.396306 0.854610
vt 0.659328 0.770632
vt 0.743419 0.759502
vt 0.742664 0.760521
vt 0.660354 0.771371
vt 0.753749 0.843245
vt 0.752725 0.842499
vt 0.670816 0.853912
vt 0.894477 0.859234
vt 0.811967 0.850002
vt 0.884552 0.941232
vt 0.900136 0.438528
vt 0.955632 0.443212
vt 0.953543 0.450675
vt 0.898047 0.445991
vt 0.921136 0.410493
vt 0.976632 0.415177
vt 0.974542 0.422640
vt 0.919046 0.417956
vt 0.900136 0.428982
vt 0.955632 0.433666
vt 0.953543 0.441129
vt 0.898047 0.436445
vt 0.396149 0.392603
vt 0.451645 0.397287
vt 0.449555 0.404750
vt 0.394059 0.400066
vt 0.654913 0.392592
vt 0.708188 0.408827
vt 0.704578 0.415684
vt 0.651303 0.399450
vt 0.569757 0.392598
vt 0.624958 0.399989
vt 0.622506 0.407341
vt 0.567305 0.399950
vt 0.819759 0.425576
vt 0.864445 0.458816
vt 0.858735 0.464056
vt 0.814049 0.430816
vt 0.651763 0.418445
vt 0.696450 0.451686
vt 0.690739 0.456925
vt 0.646053 0.423685
vt 0.696912 0.392592
vt 0.750187 0.408827
vt 0.746577 0.415684
vt 0.693302 0.399450
vt 0.888467 0.413041
vt 0.940619 0.393499
vt 0.941928 0.401138
vt 0.889776 0.420680
vt 0.735761 0.422011
vt 0.780447 0.455251
vt 0.774737 0.460491
vt 0.730051 0.427251
vt 0.454260 0.392598
vt 0.509460 0.399989
vt 0.507009 0.407341
vt 0.451808 0.399950
vt 0.900136 0.448074
vt 0.955632 0.452758
vt 0.953543 0.460221
vt 0.898047 0.455537
vt 0.512008 0.392598
vt 0.567209 0.399989
vt 0.564757 0.407341
vt 0.509556 0.399950
vt 0.765783 0.392582
vt 0.817316 0.413703
vt 0.813083 0.420195
vt 0.761550 0.399074
vt 0.359278 0.203224
vt 0.356951 0.258030
vt 0.411757 0.260356
vt 0.414084 0.205550
vt 0.816328 0.917964
vt 0.815632 0.924547
vt 0.873905 0.931280
vt 0.874869 0.924695
vt 0.830642 0.401021
vt 0.882093 0.422343
vt 0.832213 0.393432
vt 0.883663 0.414754
vt 0.762535 0.401242
vt 0.815251 0.419209
vt 0.763615 0.393567
vt 0.816330 0.411535
vt 0.511059 0.401798
vt 0.566605 0.405839
vt 0.510160 0.394100
vt 0.565707 0.398141
vt 0.899637 0.457309
vt 0.955315 0.458630
vt 0.898364 0.449665
vt 0.954042 0.450985
vt 0.453310 0.401798
vt 0.508857 0.405839
vt 0.452412 0.394100
vt 0.507958 0.398141
vt 0.730468 0.429595
vt 0.777082 0.460074
vt 0.733416 0.422428
vt 0.780030 0.452906
vt 0.891973 0.421600
vt 0.942848 0.398941
vt 0.887547 0.415238
vt 0.938423 0.392579
vt 0.694485 0.401517
vt 0.748643 0.414501
vt 0.694845 0.393775
vt 0.749004 0.406760
vt 0.652486 0.401517
vt 0.706645 0.414501
vt 0.652846 0.393775
vt 0.707005 0.406760
vt 0.646470 0.426030
vt 0.693084 0.456508
vt 0.649418 0.418863
vt 0.696032 0.449341
vt 0.814466 0.433161
vt 0.861080 0.463639
vt 0.817414 0.425994
vt 0.864028 0.456472
vt 0.568807 0.401798
vt 0.624354 0.405839
vt 0.567909 0.394100
vt 0.623455 0.398141
vt 0.395650 0.401838
vt 0.451328 0.403159
vt 0.394376 0.394194
vt 0.450054 0.395515
vt 0.899637 0.438218
vt 0.955315 0.439539
vt 0.898364 0.430573
vt 0.954042 0.431894
vt 0.920637 0.419729
vt 0.976315 0.421050
vt 0.919363 0.412084
vt 0.975041 0.413405
vt 0.899637 0.447763
vt 0.955315 0.449084
vt 0.898364 0.440119
vt 0.954042 0.441440
vn 0.000000 0.000000 -1.000000
vn 0.000000 0.000000 -1.000000
vn 0.000000 0.000000 -1.000000
vn 0.000000 0.000000 -1.000000
vn 0.000000 0.000000 -1.000000
vn 0.000000 0.000000 -1.000000
vn 0.000000 0.000000 -1.000000
vn 0.000000 0.000000 -1.000000
vn 0.000000 0.000000 -1.000000
vn 0.000000 0.000000 -1.000000
vn 0.000000 1.000000 -0.000000
vn 0.000000 1.000000 -0.000000
vn 0.000000 1.000000 -0.000000
vn 0.000000 1.000000 -0.000000
vn 0.000000 1.000000 -0.000000
vn 0.000000 1.000000 -0.000000
vn 0.000000 1.000000 -0.000000
vn 0.000000 1.000000 -0.000000
vn 0.000000 1.000000 -0.000000
vn 0.000000 1.000000 -0.000000
vn -0.000000 0.000000 1.000000
vn -0.000000 0.000000 1.000000
vn -0.000000 0.000000 1.000000
vn -0.000000 0.000000 1.000000
vn -0.000000 0.000000 1.000000
vn -0.000000 0.000000 1.000000
vn -0.000000 0.000000 1.000000
vn -0.000000 0.000000 1.000000
vn -0.000000 0.000000 1.000000
vn -0.000000 0.000000 1.000000
vn 0.000000 -1.000000 0.000000
vn 0.000000 -1.000000 0.000000
vn 0.000000 -1.000000 0.000000
vn 0.000000 -1.000000 0.000000
vn 0.000000 -1.000000 0.000000
vn 0.000000 -1.000000 0.000000
vn 0.000000 -1.000000 0.000000
vn 0.000000 -1.000000 0.000000
vn 0.000000 -1.000000 0.000000
vn 0.000000 -1.000000 0.000000
vn -1.000000 0.000000 -0.000000
vn -1.000000 0.000000 -0.000000
vn -1.000000 0.000000 -0.000000
vn -1.000000 0.000000 -0.000000
vn -1.000000 0.000000 -0.000000
vn -1.000000 0.000000 -0.000000
vn -1.000000 0.000000 -0.000000
vn -1.000000 0.000000 -0.000000
vn -1.000000 0.000000 -0.000000
vn -1.000000 0.000000 -0.000000
vn -1.000000 0.000000 -0.000000
vn -1.000000 0.000000 -0.000000
vn -1.000000 0.000000 -0.000000
vn -1.000000 0.000000 -0.000000
vn -1.000000 0.000000 -0.000000
vn -1.000000 0.000000 -0.000000
vn -1.000000 0.000000 -0.000000
vn -1.000000 0.000000 -0.000000
vn -1.000000 0.000000 -0.000000
vn -1.000000 0.000000 -0.000000
vn -1.000000 0.000000 -0.000000
vn -1.000000 0.000000 -0.000000
vn -1.000000 0.000000 -0.000000
vn -1.000000 0.000000 -0.000000
vn -1.000000 0.000000 -0.000000
vn -1.000000 0.000000 -0.000000
vn -1.000000 0.000000 -0.000000
vn -1.000000 0.000000 -0.000000
vn -1.000000 0.000000 -0.000000
vn -1.000000 0.000000 -0.000000
vn -1.000000 0.000000 -0.000000
vn -1.000000 0.000000 -0.000000
vn -1.000000 0.000000 -0.000000
vn -1.000000 0.000000 -0.000000
vn -1.000000 0.000000 -0.000000
vn -1.000000 0.000000 -0.000000
vn -1.000000 0.000000 -0.000000
vn -1.000000 0.000000 -0.000000
vn -1.000000 0.000000 -0.000000
vn -1.000000 0.000000 -0.000000
vn -1.000000 0.000000 -0.000000
vn -1.000000 0.000000 -0.000000
vn -1.000000 0.000000 -0.000000
vn -1.000000 0.000000 -0.000000
vn -1.000000 0.000000 -0.000000
vn -1.000000 0.000000 -0.000000
vn -1.000000 0.000000 -0.000000
vn -1.000000 0.000000 -0.000000
vn -1.000000 0.000000 -0.000000
vn -1.000000 0.000000 -0.000000
vn -1.000000 0.000000 -0.000000
vn -1.000000 0.000000 -0.000000
vn -1.000000 0.000000 -0.000000
vn -1.000000 0.000000 -0.000000
vn -1.000000 0.000000 -0.000000
vn -1.000000 0.000000 -0.000000
vn -1.000000 0.000000 -0.000000
vn -1.000000 0.000000 -0.000000
vn -1.000000 0.000000 -0.000000
vn -1.000000 0.000000 -0.000000
vn -1.000000 0.000000 -0.000000
vn -1.000000 0.000000 -0.000000
vn -1.000000 0.000000 -0.000000
vn -1.000000 0.000000 -0.000000
vn 1.000000 0.000000 0.000000
vn 1.000000 0.000000 0.000000
vn 1.000000 0.000000 0.000000
vn 1.000000 0.000000 0.000000
vn 1.000000 0.000000 0.000000
vn 1.000000 0.000000 0.000000
vn 1.000000 0.000000 0.000000
vn 1.000000 0.000000 0.000000
vn 1.000000 0.000000 0.000000
vn 1.000000 0.000000 0.000000
vn 1.000000 0.000000 0.000000
vn 1.000000 0.000000 0.000000
vn 1.000000 0.000000 0.000000
vn 1.000000 0.000000 0.000000
vn 1.000000 0.000000 0.000000
vn 1.000000 0.000000 0.000000
vn 1.000000 0.000000 0.000000
vn 1.000000 0.000000 0.000000
vn 1.000000 0.000000 0.000000
vn 1.000000 0.000000 0.000000
vn 1.000000 0.000000 0.000000
vn 1.000000 0.000000 0.000000
vn 1.000000 0.000000 0.000000
vn 1.000000 0.000000 0.000000
vn 1.000000 0.000000 0.000000
vn -1.000000 0.000000 -0.000000
vn -1.000000 0.000000 -0.000000
vn -1.000000 0.000000 -0.000000
vn -1.000000 0.000000 -0.000000
vn -1.000000 -0.000000 -0.000000
vn -1.000000 -0.000000 -0.000000
vn -1.000000 -0.000000 -0.000000
vn -1.000000 -0.000000 -0.000000
vn -1.000000 0.000000 -0.000000
vn -1.000000 0.000000 -0.000000
vn -1.000000 0.000000 -0.000000
vn -1.000000 -0.000000 -0.000000
vn -1.000000 -0.000000 -0.000000
vn -1.000000 -0.000000 -0.000000
vn -1.000000 0.000000 -0.000000
vn -1.000000 0.000000 -0.000000
vn -1.000000 0.000000 -0.000000
vn -1.000000 -0.000000 -0.000000
vn -1.000000 -0.000000 -0.000000
vn -1.000000 -0.000000 -0.000000
vn -1.000000 0.000000 -0.000000
vn -1.000000 0.000000 -0.000000
vn -1.000000 0.000000 -0.000000
vn -1.000000 -0.000000 -0.000000
vn -1.000000 -0.000000 -0.000000
vn -1.000000 -0.000000 -0.000000
vn -1.000000 0.000000 -0.000000
vn -1.000000 0.000000 -0.000000
vn -1.000000 0.000000 -0.000000
vn -1.000000 -0.000000 -0.000000
vn -1.000000 0.000000 -0.000000
vn -1.000000 -0.000000 -0.000000
vn -1.000000 0.000000 -0.000000
vn -1.000000 0.000000 -0.000000
vn -1.000000 -0.000000 -0.000000
vn -1.000000 0.000000 -0.000000
vn -1.000000 -0.000000 -0.000000
vn -1.000000 0.000000 -0.000000
vn -1.000000 0.000000 -0.000000
vn -1.000000 -0.000000 -0.000000
vn -1.000000 0.000000 -0.000000
vn -1.000000 -0.000000 -0.000000
vn -1.000000 0.000000 -0.000000
vn -1.000000 0.000000 -0.000000
vn -1.000000 -0.000000 -0.000000
vn -1.000000 0.000000 -0.000000
vn -1.000000 -0.000000 -0.000000
vn -1.000000 0.000000 -0.000000
vn -1.000000 0.000000 -0.000000
vn -1.000000 0.000000 -0.000000
vn -1.000000 -0.000000 -0.000000
vn -1.000000 0.000000 -0.000000
vn -1.000000 -0.000000 -0.000000
vn -1.000000 0.000000 -0.000000
vn -1.000000 0.000000 -0.000000
vn -1.000000 -0.000000 -0.000000
vn -1.000000 0.000000 -0.000000
vn -1.000000 -0.000000 -0.000000
vn -1.000000 0.000000 -0.000000
vn -1.000000 0.000000 -0.000000
vn -1.000000 -0.000000 -0.000000
vn -1.000000 0.000000 -0.000000
vn -1.000000 -0.000000 -0.000000
vn -1.000000 0.000000 -0.000000
vn -1.000000 0.000000 -0.000000
vn -1.000000 -0.000000 -0.000000
vn -1.000000 0.000000 -0.000000
vn -1.000000 -0.000000 -0.000000
vn -1.000000 0.000000 -0.000000
vn -1.000000 0.000000 -0.000000
vn -1.000000 -0.000000 -0.000000
vn -1.000000 -0.000000 -0.000000
vn -1.000000 -0.000000 -0.000000
vn -1.000000 -0.000000 -0.000000
vn -1.000000 0.000000 -0.000000
vn -1.000000 0.000000 -0.000000
vn -1.000000 -0.000000 -0.000000
vn -1.000000 -0.000000 -0.000000
vn -1.000000 -0.000000 -0.000000
vn -1.000000 0.000000 -0.000000
vn -1.000000 0.000000 -0.000000
vn -1.000000 -0.000000 -0.000000
vn -1.000000 -0.000000 -0.000000
vn -1.000000 -0.000000 -0.000000
vn -1.000000 0.000000 -0.000000
vn -1.000000 0.000000 -0.000000
vn -1.000000 -0.000000 -0.000000
vn -1.000000 -0.000000 -0.000000
vn -1.000000 -0.000000 -0.000000
vn 0.000000 1.000000 -0.000000
vn 0.000000 1.000000 -0.000000
vn 0.000000 1.000000 -0.000000
vn 0.000000 1.000000 -0.000000
vn 0.000000 0.000000 -1.000000
vn 0.000000 0.000000 -1.000000
vn 0.000000 0.000000 -1.000000
vn 0.000000 0.000000 -1.000000
vn 0.000000 -1.000000 0.000000
vn 0.000000 -1.000000 0.000000
vn 0.000000 -1.000000 0.000000
vn 0.000000 -1.000000 0.000000
vn -0.000000 0.000000 1.000000
vn -0.000000 0.000000 1.000000
vn -0.000000 0.000000 1.000000
vn -0.000000 0.000000 1.000000
vn 0.000000 1.000000 -0.000000
vn 0.000000 1.000000 -0.000000
vn 0.000000 1.000000 -0.000000
vn 0.000000 1.000000 -0.000000
vn 0.000000 0.000000 -1.000000
vn 0.000000 0.000000 -1.000000
vn 0.000000 0.000000 -1.000000
vn 0.000000 0.000000 -1.000000
vn 0.000000 -1.000000 0.000000
vn 0.000000 -1.000000 0.000000
vn 0.000000 -1.000000 0.000000
vn 0.000000 -1.000000 0.000000
vn -0.000000 0.000000 1.000000
vn -0.000000 0.000000 1.000000
vn -0.000000 0.000000 1.000000
vn -0.000000 0.000000 1.000000
vn 0.000000 1.000000 -0.000000
vn 0.000000 1.000000 -0.000000
vn 0.000000 1.000000 -0.000000
vn 0.000000 1.000000 -0.000000
vn 0.000000 0.000000 -1.000000
vn 0.000000 0.000000 -1.000000
vn 0.000000 0.000000 -1.000000
vn 0.000000 0.000000 -1.000000
vn 0.000000 -1.000000 0.000000
vn 0.000000 -1.000000 0.000000
vn 0.000000 -1.000000 0.000000
vn 0.000000 -1.000000 0.000000
vn -0.000000 0.000000 1.000000
vn -0.000000 0.000000 1.000000
vn -0.000000 0.000000 1.000000
vn -0.000000 0.000000 1.000000
vn 0.000000 1.000000 -0.000000
vn 0.000000 1.000000 -0.000000
vn 0.000000 1.000000 -0.000000
vn 0.000000 1.000000 -0.000000
vn 0.000000 0.000000 -1.000000
vn 0.000000 0.000000 -1.000000
vn 0.000000 0.000000 -1.000000
vn 0.000000 0.000000 -1.000000
vn 0.000000 -1.000000 0.000000
vn 0.000000 -1.000000 0.000000
vn 0.000000 -1.000000 0.000000
vn 0.000000 -1.000000 0.000000
vn -0.000000 0.000000 1.000000
vn -0.000000 0.000000 1.000000
vn -0.000000 0.000000 1.000000
vn -0.000000 0.000000 1.000000
vn 0.000000 1.000000 -0.000000
vn 0.000000 1.000000 -0.000000
vn 0.000000 1.000000 -0.000000
vn 0.000000 1.000000 -0.000000
vn 0.000000 0.000000 -1.000000
vn 0.000000 0.000000 -1.000000
vn 0.000000 0.000000 -1.000000
vn 0.000000 0.000000 -1.000000
vn 0.000000 -1.000000 0.000000
vn 0.000000 -1.000000 0.000000
vn 0.000000 -1.000000 0.000000
vn 0.000000 -1.000000 0.000000
vn -0.000000 0.000000 1.000000
vn -0.000000 0.000000 1.000000
vn -0.000000 0.000000 1.000000
vn -0.000000 0.000000 1.000000
vn 0.000000 1.000000 -0.000000
vn 0.000000 1.000000 -0.000000
vn 0.000000 1.000000 -0.000000
vn 0.000000 1.000000 -0.000000
vn 0.000000 0.000000 -1.000000
vn 0.000000 0.000000 -1.000000
vn 0.000000 0.000000 -1.000000
vn 0.000000 0.000000 -1.000000
vn 0.000000 -1.000000 0.000000
vn 0.000000 -1.000000 0.000000
vn 0.000000 -1.000000 0.000000
vn 0.000000 -1.000000 0.000000
vn -0.000000 0.000000 1.000000
vn -0.000000 0.000000 1.000000
vn -0.000000 0.000000 1.000000
vn -0.000000 0.000000 1.000000
vn 0.000000 1.000000 -0.000000
vn 0.000000 1.000000 -0.000000
vn 0.000000 1.000000 -0.000000
vn 0.000000 1.000000 -0.000000
vn 0.000000 0.000000 -1.000000
vn 0.000000 0.000000 -1.000000
vn 0.000000 0.000000 -1.000000
vn 0.000000 0.000000 -1.000000
vn 0.000000 -1.000000 0.000000
vn 0.000000 -1.000000 0.000000
vn 0.000000 -1.000000 0.000000
vn 0.000000 -1.000000 0.000000
vn -0.000000 0.000000 1.000000
vn -0.000000 0.000000 1.000000
vn -0.000000 0.000000 1.000000
vn -0.000000 0.000000 1.000000
vn 0.000000 1.000000 -0.000000
vn 0.000000 1.000000 -0.000000
vn 0.000000 1.000000 -0.000000
vn 0.000000 1.000000 -0.000000
vn 0.000000 0.000000 -1.000000
vn 0.000000 0.000000 -1.000000
vn 0.000000 0.000000 -1.000000
vn 0.000000 0.000000 -1.000000
vn 0.000000 -1.000000 0.000000
vn 0.000000 -1.000000 0.000000
vn 0.000000 -1.000000 0.000000
vn 0.000000 -1.000000 0.000000
vn -0.000000 0.000000 1.000000
vn -0.000000 0.000000 1.000000
vn -0.000000 0.000000 1.000000
vn -0.000000 0.000000 1.000000
vn 0.000000 1.000000 -0.000000
vn 0.000000 1.000000 -0.000000
vn 0.000000 1.000000 -0.000000
vn 0.000000 1.000000 -0.000000
vn 0.000000 0.000000 -1.000000
vn 0.000000 0.000000 -1.000000
vn 0.000000 0.000000 -1.000000
vn 0.000000 0.000000 -1.000000
vn 0.000000 -1.000000 0.000000
vn 0.000000 -1.000000 0.000000
vn 0.000000 -1.000000 0.000000
vn 0.000000 -1.000000 0.000000
vn -0.000000 0.000000 1.000000
vn -0.000000 0.000000 1.000000
vn -0.000000 0.000000 1.000000
vn -0.000000 0.000000 1.000000
vn 0.000000 1.000000 -0.000000
vn 0.000000 1.000000 -0.000000
vn 0.000000 1.000000 -0.000000
vn 0.000000 1.000000 -0.000000
vn 0.000000 0.000000 -1.000000
vn 0.000000 0.000000 -1.000000
vn 0.000000 0.000000 -1.000000
vn 0.000000 0.000000 -1.000000
vn 0.000000 -1.000000 0.000000
vn 0.000000 -1.000000 0.000000
vn 0.000000 -1.000000 0.000000
vn 0.000000 -1.000000 0.000000
vn -0.000000 0.000000 1.000000
vn -0.000000 0.000000 1.000000
vn -0.000000 0.000000 1.000000
vn -0.000000 0.000000 1.000000
vn 0.000000 1.000000 -0.000000
vn 0.000000 1.000000 -0.000000
vn 0.000000 1.000000 -0.000000
vn 0.000000 1.000000 -0.000000
vn 0.000000 0.000000 -1.000000
vn 0.000000 0.000000 -1.000000
vn 0.000000 0.000000 -1.000000
vn 0.000000 0.000000 -1.000000
vn 0.000000 -1.000000 0.000000
vn 0.000000 -1.000000 0.000000
vn 0.000000 -1.000000 0.000000
vn 0.000000 -1.000000 0.000000
vn -0.000000 0.000000 1.000000
vn -0.000000 0.000000 1.000000
vn -0.000000 0.000000 1.000000
vn -0.000000 0.000000 1.000000
vn 0.000000 1.000000 -0.000000
vn 0.000000 1.000000 -0.000000
vn 0.000000 1.000000 -0.000000
vn 0.000000 1.000000 -0.000000
vn 0.000000 0.000000 -1.000000
vn 0.000000 0.000000 -1.000000
vn 0.000000 0.000000 -1.000000
vn 0.000000 0.000000 -1.000000
vn 0.000000 -1.000000 0.000000
vn 0.000000 -1.000000 0.000000
vn 0.000000 -1.000000 0.000000
vn 0.000000 -1.000000 0.000000
vn -0.000000 0.000000 1.000000
vn -0.000000 0.000000 1.000000
vn -0.000000 0.000000 1.000000
vn -0.000000 0.000000 1.000000
vn 0.000000 1.000000 -0.000000
vn 0.000000 1.000000 -0.000000
vn 0.000000 1.000000 -0.000000
vn 0.000000 1.000000 -0.000000
vn 0.000000 0.000000 -1.000000
vn 0.000000 0.000000 -1.000000
vn 0.000000 0.000000 -1.000000
vn 0.000000 0.000000 -1.000000
vn 0.000000 -1.000000 0.000000
vn 0.000000 -1.000000 0.000000
vn 0.000000 -1.000000 0.000000
vn 0.000000 -1.000000 0.000000
vn -0.000000 0.000000 1.000000
vn -0.000000 0.000000 1.000000
vn -0.000000 0.000000 1.000000
vn -0.000000 0.000000 1.000000
vn 0.000000 1.000000 -0.000000
vn 0.000000 1.000000 -0.000000
vn 0.000000 1.000000 -0.000000
vn 0.000000 1.000000 -0.000000
vn 0.000000 0.000000 -1.000000
vn 0.000000 0.000000 -1.000000
vn 0.000000 0.000000 -1.000000
vn 0.000000 0.000000 -1.000000
vn 0.000000 -1.000000 0.000000
vn 0.000000 -1.000000 0.000000
vn 0.000000 -1.000000 0.000000
vn 0.000000 -1.000000 0.000000
vn -0.000000 0.000000 1.000000
vn -0.000000 0.000000 1.000000
vn -0.000000 0.000000 1.000000
vn -0.000000 0.000000 1.000000
vn 0.000000 1.000000 -0.000000
vn 0.000000 1.000000 -0.000000
vn 0.000000 1.000000 -0.000000
vn 0.000000 1.000000 -0.000000
vn 0.000000 0.000000 -1.000000
vn 0.000000 0.000000 -1.000000
vn 0.000000 0.000000 -1.000000
vn 0.000000 0.000000 -1.000000
vn 0.000000 -1.000000 0.000000
vn 0.000000 -1.000000 0.000000
vn 0.000000 -1.000000 0.000000
vn 0.000000 -1.000000 0.000000
vn -0.000000 0.000000 1.000000
vn -0.000000 0.000000 1.000000
vn -0.000000 0.000000 1.000000
vn -0.000000 0.000000 1.000000
vn 0.000000 1.000000 -0.000000
vn 0.000000 1.000000 -0.000000
vn 0.000000 1.000000 -0.000000
vn 0.000000 1.000000 -0.000000
vn 0.000000 0.000000 -1.000000
vn 0.000000 0.000000 -1.000000
vn 0.000000 0.000000 -1.000000
vn 0.000000 0.000000 -1.000000
vn 0.000000 -1.000000 0.000000
vn 0.000000 -1.000000 0.000000
vn 0.000000 -1.000000 0.000000
vn 0.000000 -1.000000 0.000000
vn -0.000000 0.000000 1.000000
vn -0.000000 0.000000 1.000000
vn -0.000000 0.000000 1.000000
vn -0.000000 0.000000 1.000000
vn -1.000000 0.000000 -0.000000
vn -1.000000 0.000000 -0.000000
vn -1.000000 0.000000 -0.000000
vn -1.000000 0.000000 -0.000000
vn -1.000000 -0.000000 -0.000000
vn -1.000000 -0.000000 -0.000000
vn -1.000000 -0.000000 -0.000000
vn -1.000000 -0.000000 -0.000000
vn -1.000000 0.000000 -0.000000
vn -1.000000 0.000000 -0.000000
vn -1.000000 0.000000 -0.000000
vn -1.000000 0.000000 -0.000000
vn -1.000000 0.000000 -0.000000
vn -1.000000 0.000000 -0.000000
vn -1.000000 0.000000 -0.000000
vn -1.000000 0.000000 -0.000000
vn -1.000000 0.000000 -0.000000
vn -1.000000 0.000000 -0.000000
vn -1.000000 0.000000 -0.000000
vn -1.000000 0.000000 -0.000000
vn -1.000000 0.000000 -0.000000
vn -1.000000 0.000000 -0.000000
vn -1.000000 0.000000 -0.000000
vn -1.000000 0.000000 -0.000000
vn -1.000000 0.000000 -0.000000
vn -1.000000 0.000000 -0.000000
vn -1.000000 0.000000 -0.000000
vn -1.000000 0.000000 -0.000000
vn -1.000000 0.000000 -0.000000
vn -1.000000 0.000000 -0.000000
vn -1.000000 0.000000 -0.000000
vn -1.000000 0.000000 -0.000000
vn -1.000000 -0.000000 -0.000000
vn -1.000000 -0.000000 0.000000
vn -1.000000 -0.000000 0.000000
vn -1.000000 -0.000000 -0.000000
vn -1.000000 0.000001 0.000001
vn -1.000000 0.000002 0.000001
vn -1.000000 0.000001 -0.000001
vn -1.000000 0.000002 -0.000001
vn -1.000000 0.000000 -0.000000
vn -1.000000 0.000000 -0.000000
vn -1.000000 0.000000 -0.000000
vn -1.000000 0.000000 -0.000000
vn -1.000000 0.000000 -0.000000
vn -1.000000 0.000000 -0.000000
vn -1.000000 0.000000 -0.000000
vn -1.000000 0.000000 -0.000000
vn -1.000000 0.000000 -0.000000
vn -1.000000 0.000000 -0.000000
vn -1.000000 0.000000 -0.000000
vn -1.000000 0.000000 -0.000000
vn -1.000000 0.000000 -0.000000
vn -1.000000 0.000000 -0.000000
vn -1.000000 0.000000 -0.000000
vn -1.000000 0.000000 -0.000000
vn -1.000000 -0.000000 -0.000000
vn -1.000000 -0.000000 0.000000
vn -1.000000 -0.000000 0.000000
vn -1.000000 -0.000000 -0.000000
vn -1.000000 0.000001 0.000001
vn -1.000000 0.000001 0.000001
vn -1.000000 0.000001 -0.000001
vn -1.000000 0.000001 -0.000001
vn -1.000000 0.000000 -0.000000
vn -1.000000 0.000000 -0.000000
vn -1.000000 0.000000 -0.000000
vn -1.000000 0.000000 -0.000000
vn -1.000000 -0.000000 -0.000000
vn -1.000000 -0.000000 -0.000000
vn -1.000000 -0.000000 -0.000000
vn -1.000000 -0.000000 -0.000000
vn -1.000000 -0.000000 -0.000000
vn -1.000000 -0.000000 0.000000
vn -1.000000 -0.000000 0.000000
vn -1.000000 -0.000000 -0.000000
vn -1.000000 0.000001 0.000001
vn -1.000000 0.000002 0.000001
vn -1.000000 0.000001 -0.000001
vn -1.000000 0.000002 -0.000001
vn -1.000000 -0.000000 -0.000000
vn -1.000000 -0.000000 0.000000
vn -1.000000 -0.000000 0.000000
vn -1.000000 -0.000000 -0.000000
vn -1.000000 0.000001 0.000001
vn -1.000000 0.000002 0.000001
vn -1.000000 0.000001 -0.000001
vn -1.000000 0.000002 -0.000001
vn -1.000000 0.000000 -0.000000
vn -1.000000 0.000000 -0.000000
vn -1.000000 0.000000 -0.000000
vn -1.000000 0.000000 -0.000000
vn -1.000000 0.000000 -0.000000
vn -1.000000 0.000000 -0.000000
vn -1.000000 0.000000 -0.000000
vn -1.000000 0.000000 -0.000000
vn -1.000000 0.000000 -0.000000
vn -1.000000 0.000000 -0.000000
vn -1.000000 0.000000 -0.000000
vn -1.000000 0.000000 -0.000000
vn -1.000000 -0.000000 -0.000000
vn -1.000000 -0.000000 -0.000000
vn -1.000000 -0.000000 -0.000000
vn -1.000000 -0.000000 -0.000000
vn -1.000000 0.000000 -0.000000
vn -1.000000 0.000000 -0.000000
vn -1.000000 0.000000 -0.000000
vn -1.000000 0.000000 -0.000000
vn -1.000000 0.000000 -0.000000
vn -1.000000 0.000000 -0.000000
vn -1.000000 0.000000 -0.000000
vn -1.000000 0.000000 -0.000000
vn -1.000000 0.000000 -0.000000
vn -1.000000 0.000000 -0.000000
vn -1.000000 0.000000 -0.000000
vn -1.000000 0.000000 -0.000000
vn -1.000000 0.000000 -0.000000
vn -1.000000 0.000000 -0.000000
vn -1.000000 0.000000 -0.000000
vn -1.000000 0.000000 -0.000000
vn -1.000000 0.000000 -0.000000
vn -1.000000 0.000000 -0.000000
vn -1.000000 0.000000 -0.000000
vn -1.000000 0.000000 -0.000000
vn -1.000000 0.000000 -0.000000
vn -1.000000 0.000000 -0.000000
vn -1.000000 0.000000 -0.000000
vn -1.000000 0.000000 -0.000000
vn 0.000000 -1.000000 0.000000
vn 0.000000 -1.000000 0.000000
vn 0.000000 -1.000000 0.000000
vn 0.000000 -1.000000 0.000000
vn -0.000000 0.000000 1.000000
vn -0.000000 0.000000 1.000000
vn -0.000000 0.000000 1.000000
vn -0.000000 0.000000 1.000000
vn 0.000000 1.000000 -0.000000
vn 0.000000 1.000000 -0.000000
vn 0.000000 1.000000 -0.000000
vn 0.000000 1.000000 -0.000000
vn 0.000000 0.000000 -1.000000
vn 0.000000 0.000000 -1.000000
vn 0.000000 0.000000 -1.000000
vn 0.000000 0.000000 -1.000000
vn 0.000000 -1.000000 0.000000
vn 0.000000 -1.000000 0.000000
vn 0.000000 -1.000000 0.000000
vn 0.000000 -1.000000 0.000000
vn -0.000000 0.000000 1.000000
vn -0.000000 0.000000 1.000000
vn -0.000000 0.000000 1.000000
vn -0.000000 0.000000 1.000000
vn 0.000000 1.000000 -0.000000
vn 0.000000 1.000000 -0.000000
vn 0.000000 1.000000 -0.000000
vn 0.000000 1.000000 -0.000000
vn 0.000000 0.000000 -1.000000
vn 0.000000 0.000000 -1.000000
vn 0.000000 0.000000 -1.000000
vn 0.000000 0.000000 -1.000000
vn 0.000000 -1.000000 0.000000
vn 0.000000 -1.000000 0.000000
vn 0.000000 -1.000000 0.000000
vn 0.000000 -1.000000 0.000000
vn -0.000000 0.000000 1.000000
vn -0.000000 0.000000 1.000000
vn -0.000000 0.000000 1.000000
vn -0.000000 0.000000 1.000000
vn 0.000000 1.000000 -0.000000
vn 0.000000 1.000000 -0.000000
vn 0.000000 1.000000 -0.000000
vn 0.000000 1.000000 -0.000000
vn 0.000000 0.000000 -1.000000
vn 0.000000 0.000000 -1.000000
vn 0.000000 0.000000 -1.000000
vn 0.000000 0.000000 -1.000000
vn 0.000000 -1.000000 0.000000
vn 0.000000 -1.000000 0.000000
vn 0.000000 -1.000000 0.000000
vn 0.000000 -1.000000 0.000000
vn -0.000000 0.000000 1.000000
vn -0.000000 0.000000 1.000000
vn -0.000000 0.000000 1.000000
vn -0.000000 0.000000 1.000000
vn 0.000000 1.000000 -0.000000
vn 0.000000 1.000000 -0.000000
vn 0.000000 1.000000 -0.000000
vn 0.000000 1.000000 -0.000000
vn 0.000000 0.000000 -1.000000
vn 0.000000 0.000000 -1.000000
vn 0.000000 0.000000 -1.000000
vn 0.000000 0.000000 -1.000000
vn 0.000000 -1.000000 0.000000
vn 0.000000 -1.000000 0.000000
vn 0.000000 -1.000000 0.000000
vn 0.000000 -1.000000 0.000000
vn -0.000000 0.000000 1.000000
vn -0.000000 0.000000 1.000000
vn -0.000000 0.000000 1.000000
vn -0.000000 0.000000 1.000000
vn 0.000000 1.000000 -0.000000
vn 0.000000 1.000000 -0.000000
vn 0.000000 1.000000 -0.000000
vn 0.000000 1.000000 -0.000000
vn 0.000000 0.000000 -1.000000
vn 0.000000 0.000000 -1.000000
vn 0.000000 0.000000 -1.000000
vn 0.000000 0.000000 -1.000000
vn 0.000000 -1.000000 0.000000
vn 0.000000 -1.000000 0.000000
vn 0.000000 -1.000000 0.000000
vn 0.000000 -1.000000 0.000000
vn -0.000000 0.000000 1.000000
vn -0.000000 0.000000 1.000000
vn -0.000000 0.000000 1.000000
vn -0.000000 0.000000 1.000000
vn 0.000000 1.000000 -0.000000
vn 0.000000 1.000000 -0.000000
vn 0.000000 1.000000 -0.000000
vn 0.000000 1.000000 -0.000000
vn 0.000000 0.000000 -1.000000
vn 0.000000 0.000000 -1.000000
vn 0.000000 0.000000 -1.000000
vn 0.000000 0.000000 -1.000000
vn 0.000000 -1.000000 0.000000
vn 0.000000 -1.000000 0.000000
vn 0.000000 -1.000000 0.000000
vn 0.000000 -1.000000 0.000000
vn -0.000000 0.000000 1.000000
vn -0.000000 0.000000 1.000000
vn -0.000000 0.000000 1.000000
vn -0.000000 0.000000 1.000000
vn 0.000000 1.000000 -0.000000
vn 0.000000 1.000000 -0.000000
vn 0.000000 1.000000 -0.000000
vn 0.000000 1.000000 -0.000000
vn 0.000000 0.000000 -1.000000
vn 0.000000 0.000000 -1.000000
vn 0.000000 0.000000 -1.000000
vn 0.000000 0.000000 -1.000000
vn 0.000000 -1.000000 0.000000
vn 0.000000 -1.000000 0.000000
vn 0.000000 -1.000000 0.000000
vn 0.000000 -1.000000 0.000000
vn -0.000000 0.000000 1.000000
vn -0.000000 0.000000 1.000000
vn -0.000000 0.000000 1.000000
vn -0.000000 0.000000 1.000000
vn 0.000000 1.000000 -0.000000
vn 0.000000 1.000000 -0.000000
vn 0.000000 1.000000 -0.000000
vn 0.000000 1.000000 -0.000000
vn 0.000000 0.000000 -1.000000
vn 0.000000 0.000000 -1.000000
vn 0.000000 0.000000 -1.000000
vn 0.000000 0.000000 -1.000000
vn 0.000000 -1.000000 0.000000
vn 0.000000 -1.000000 0.000000
vn 0.000000 -1.000000 0.000000
vn 0.000000 -1.000000 0.000000
vn -0.000000 0.000000 1.000000
vn -0.000000 0.000000 1.000000
vn -0.000000 0.000000 1.000000
vn -0.000000 0.000000 1.000000
vn 0.000000 1.000000 -0.000000
vn 0.000000 1.000000 -0.000000
vn 0.000000 1.000000 -0.000000
vn 0.000000 1.000000 -0.000000
vn 0.000000 0.000000 -1.000000
vn 0.000000 0.000000 -1.000000
vn 0.000000 0.000000 -1.000000
vn 0.000000 0.000000 -1.000000
vn 0.000000 -1.000000 0.000000
vn 0.000000 -1.000000 0.000000
vn 0.000000 -1.000000 0.000000
vn 0.000000 -1.000000 0.000000
vn -0.000000 0.000000 1.000000
vn -0.000000 0.000000 1.000000
vn -0.000000 0.000000 1.000000
vn -0.000000 0.000000 1.000000
vn 0.000000 1.000000 -0.000000
vn 0.000000 1.000000 -0.000000
vn 0.000000 1.000000 -0.000000
vn 0.000000 1.000000 -0.000000
vn 0.000000 0.000000 -1.000000
vn 0.000000 0.000000 -1.000000
vn 0.000000 0.000000 -1.000000
vn 0.000000 0.000000 -1.000000
vn 0.000000 -1.000000 0.000000
vn 0.000000 -1.000000 0.000000
vn 0.000000 -1.000000 0.000000
vn 0.000000 -1.000000 0.000000
vn -0.000000 0.000000 1.000000
vn -0.000000 0.000000 1.000000
vn -0.000000 0.000000 1.000000
vn -0.000000 0.000000 1.000000
vn 0.000000 1.000000 -0.000000
vn 0.000000 1.000000 -0.000000
vn 0.000000 1.000000 -0.000000
vn 0.000000 1.000000 -0.000000
vn 0.000000 0.000000 -1.000000
vn 0.000000 0.000000 -1.000000
vn 0.000000 0.000000 -1.000000
vn 0.000000 0.000000 -1.000000
vn 0.000000 -1.000000 0.000000
vn 0.000000 -1.000000 0.000000
vn 0.000000 -1.000000 0.000000
vn 0.000000 -1.000000 0.000000
vn -0.000000 0.000000 1.000000
vn -0.000000 0.000000 1.000000
vn -0.000000 0.000000 1.000000
vn -0.000000 0.000000 1.000000
vn 0.000000 1.000000 -0.000000
vn 0.000000 1.000000 -0.000000
vn 0.000000 1.000000 -0.000000
vn 0.000000 1.000000 -0.000000
vn 0.000000 0.000000 -1.000000
vn 0.000000 0.000000 -1.000000
vn 0.000000 0.000000 -1.000000
vn 0.000000 0.000000 -1.000000
vn 0.000000 -1.000000 0.000000
vn 0.000000 -1.000000 0.000000
vn 0.000000 -1.000000 0.000000
vn 0.000000 -1.000000 0.000000
vn -0.000000 0.000000 1.000000
vn -0.000000 0.000000 1.000000
vn -0.000000 0.000000 1.000000
vn -0.000000 0.000000 1.000000
vn 0.000000 1.000000 -0.000000
vn 0.000000 1.000000 -0.000000
vn 0.000000 1.000000 -0.000000
vn 0.000000 1.000000 -0.000000
vn 0.000000 0.000000 -1.000000
vn 0.000000 0.000000 -1.000000
vn 0.000000 0.000000 -1.000000
vn 0.000000 0.000000 -1.000000
vn 0.000000 -1.000000 0.000000
vn 0.000000 -1.000000 0.000000
vn 0.000000 -1.000000 0.000000
vn 0.000000 -1.000000 0.000000
vn -0.000000 0.000000 1.000000
vn -0.000000 0.000000 1.000000
vn -0.000000 0.000000 1.000000
vn -0.000000 0.000000 1.000000
vn 0.000000 1.000000 -0.000000
vn 0.000000 1.000000 -0.000000
vn 0.000000 1.000000 -0.000000
vn 0.000000 1.000000 -0.000000
vn 0.000000 0.000000 -1.000000
vn 0.000000 0.000000 -1.000000
vn 0.000000 0.000000 -1.000000
vn 0.000000 0.000000 -1.000000
vn 0.000000 -1.000000 0.000000
vn 0.000000 -1.000000 0.000000
vn 0.000000 -1.000000 0.000000
vn 0.000000 -1.000000 0.000000
vn -0.000000 0.000000 1.000000
vn -0.000000 0.000000 1.000000
vn -0.000000 0.000000 1.000000
vn -0.000000 0.000000 1.000000
vn 0.000000 1.000000 -0.000000
vn 0.000000 1.000000 -0.000000
vn 0.000000 1.000000 -0.000000
vn 0.000000 1.000000 -0.000000
vn 0.000000 0.000000 -1.000000
vn 0.000000 0.000000 -1.000000
vn 0.000000 0.000000 -1.000000
vn 0.000000 0.000000 -1.000000
vn 0.000000 -1.000000 0.000000
vn 0.000000 -1.000000 0.000000
vn 0.000000 -1.000000 0.000000
vn 0.000000 -1.000000 0.000000
vn -0.000000 0.000000 1.000000
vn -0.000000 0.000000 1.000000
vn -0.000000 0.000000 1.000000
vn -0.000000 0.000000 1.000000
vn 0.000000 1.000000 -0.000000
vn 0.000000 1.000000 -0.000000
vn 0.000000 1.000000 -0.000000
vn 0.000000 1.000000 -0.000000
vn 0.000000 0.000000 -1.000000
vn 0.000000 0.000000 -1.000000
vn 0.000000 0.000000 -1.000000
vn 0.000000 0.000000 -1.000000
s 1
g pCube6
usemtl initialShadingGroup
f 1/1/1 2/2/2 4/4/3 3/3/4
f 3/3/4 4/4/3 6/6/5 5/5/6
f 5/5/6 6/6/5 8/8/7 7/7/8
f 7/7/8 8/8/7 10/10/9 9/9/10
s 2
f 9/9/11 10/10/12 12/12/13 11/11/14
f 11/11/14 12/12/13 14/14/15 13/13/16
f 13/13/16 14/14/15 16/16/17 15/15/18
f 15/15/18 16/16/17 18/18/19 17/17/20
s 3
f 17/17/21 18/18/22 20/20/23 19/19/24
f 19/19/24 20/20/23 22/22/25 21/21/26
f 21/21/26 22/22/25 24/24/27 23/23/28
f 23/23/28 24/24/27 26/26/29 25/25/30
s 4
f 25/25/31 26/26/32 28/28/33 27/27/34
f 27/27/34 28/28/33 30/30/35 29/29/36
f 29/29/36 30/30/35 32/32/37 31/31/38
f 31/31/38 32/32/37 2/34/39 1/33/40
s off
f 244/228/41 243/229/42 245/230/43 246/231/44
f 248/232/45 247/253/46 249/254/47 250/233/48
f 252/234/49 251/255/50 253/256/51 254/235/52
f 256/236/53 255/257/54 257/258/55 258/237/56
f 260/259/57 259/260/58 261/238/59 262/239/60
f 264/261/61 263/262/62 265/263/63 266/240/64
f 268/264/65 267/265/66 269/266/67 270/241/68
f 272/267/69 271/268/70 273/269/71 274/242/72
f 276/270/73 275/271/74 277/243/75 278/244/76
f 280/272/77 279/273/78 281/274/79 282/245/80
f 284/275/81 283/276/82 285/277/83 286/246/84
f 288/278/85 287/279/86 289/280/87 290/247/88
f 292/281/89 291/282/90 293/248/91 294/249/92
f 296/283/93 295/284/94 297/285/95 298/250/96
f 300/286/97 299/287/98 301/288/99 302/251/100
f 304/289/101 303/290/102 305/291/103 306/252/104
s 5
f 25/55/105 27/56/106 42/60/107 23/59/108
f 27/56/106 29/57/109 43/61/110 42/60/107
f 29/57/109 31/58/111 44/62/112 43/61/110
f 31/58/111 1/1/113 3/3/114 44/62/112
f 23/59/108 42/60/107 45/64/115 21/63/116
f 42/60/107 43/61/110 46/65/117 45/64/115
f 43/61/110 44/62/112 47/66/118 46/65/117
f 44/62/112 3/3/114 5/5/119 47/66/118
f 21/63/116 45/64/115 48/68/120 19/67/121
f 45/64/115 46/65/117 49/69/122 48/68/120
f 46/65/117 47/66/118 50/70/123 49/69/122
f 47/66/118 5/5/119 7/7/124 50/70/123
f 19/67/121 48/68/120 15/72/125 17/71/126
f 48/68/120 49/69/122 13/73/127 15/72/125
f 49/69/122 50/70/123 11/74/128 13/73/127
f 50/70/123 7/7/124 9/9/129 11/74/128
s 6
f 28/36/130 26/35/131 51/76/132 52/75/133
f 26/35/131 24/39/134 53/77/135 51/76/132
f 24/39/134 33/40/136 54/78/137 53/77/135
f 33/40/136 28/36/130 52/75/133 54/78/137
f 30/37/138 28/36/130 55/80/139 56/79/140
f 28/36/130 33/40/136 57/81/141 55/80/139
f 33/40/136 34/41/142 58/82/143 57/81/141
f 34/41/142 30/37/138 56/79/140 58/82/143
f 32/38/144 30/37/138 59/84/145 60/83/146
f 30/37/138 34/41/142 61/85/147 59/84/145
f 34/41/142 35/42/148 62/86/149 61/85/147
f 35/42/148 32/38/144 60/83/146 62/86/149
f 2/2/150 32/38/144 63/88/151 64/87/152
f 32/38/144 35/42/148 65/89/153 63/88/151
f 35/42/148 4/4/154 66/90/155 65/89/153
f 4/4/154 2/2/150 64/87/152 66/90/155
f 33/40/136 24/39/134 67/92/156 68/91/157
f 24/39/134 22/43/158 69/93/159 67/92/156
f 22/43/158 36/44/160 70/94/161 69/93/159
f 36/44/160 33/40/136 68/91/157 70/94/161
f 34/41/142 33/40/136 71/96/162 72/95/163
f 33/40/136 36/44/160 73/97/164 71/96/162
f 36/44/160 37/45/165 74/98/166 73/97/164
f 37/45/165 34/41/142 72/95/163 74/98/166
f 35/42/148 34/41/142 75/100/167 76/99/168
f 34/41/142 37/45/165 77/101/169 75/100/167
f 37/45/165 38/46/170 78/102/171 77/101/169
f 38/46/170 35/42/148 76/99/168 78/102/171
f 4/4/154 35/42/148 79/104/172 80/103/173
f 35/42/148 38/46/170 81/105/174 79/104/172
f 38/46/170 6/6/175 82/106/176 81/105/174
f 6/6/175 4/4/154 80/103/173 82/106/176
f 36/44/160 22/43/158 83/108/177 84/107/178
f 22/43/158 20/47/179 85/109/180 83/108/177
f 20/47/179 39/48/181 86/110/182 85/109/180
f 39/48/181 36/44/160 84/107/178 86/110/182
f 37/45/165 36/44/160 87/112/183 88/111/184
f 36/44/160 39/48/181 89/113/185 87/112/183
f 39/48/181 40/49/186 90/114/187 89/113/185
f 40/49/186 37/45/165 88/111/184 90/114/187
f 38/46/170 37/45/165 91/116/188 92/115/189
f 37/45/165 40/49/186 93/117/190 91/116/188
f 40/49/186 41/50/191 94/118/192 93/117/190
f 41/50/191 38/46/170 92/115/189 94/118/192
f 6/6/175 38/46/170 95/120/193 96/119/194
f 38/46/170 41/50/191 97/121/195 95/120/193
f 41/50/191 8/8/196 98/122/197 97/121/195
f 8/8/196 6/6/175 96/119/194 98/122/197
f 39/48/181 20/47/179 99/124/198 100/123/199
f 20/47/179 18/51/200 101/125/201 99/124/198
f 18/51/200 16/52/202 102/126/203 101/125/201
f 16/52/202 39/48/181 100/123/199 102/126/203
f 40/49/186 39/48/181 103/128/204 104/127/205
f 39/48/181 16/52/202 105/129/206 103/128/204
f 16/52/202 14/53/207 106/130/208 105/129/206
f 14/53/207 40/49/186 104/127/205 106/130/208
f 41/50/191 40/49/186 107/132/209 108/131/210
f 40/49/186 14/53/207 109/133/211 107/132/209
f 14/53/207 12/54/212 110/134/213 109/133/211
f 12/54/212 41/50/191 108/131/210 110/134/213
f 8/8/196 41/50/191 111/454/214 112/451/215
f 41/50/191 12/54/212 113/453/216 111/454/214
f 12/54/212 10/10/217 114/452/218 113/453/216
f 10/10/217 8/8/196 112/451/215 114/452/218
s off
f 52/292/219 51/293/220 115/140/221 116/139/222
f 51/293/223 53/294/224 117/141/225 115/140/226
f 53/294/227 54/295/228 118/142/229 117/141/230
f 54/295/231 52/292/232 116/139/233 118/142/234
f 56/296/235 55/297/236 119/298/237 120/143/238
f 55/297/239 57/299/240 121/300/241 119/298/242
f 57/299/243 58/301/244 122/144/245 121/300/246
f 58/301/247 56/296/248 120/143/249 122/144/250
f 60/302/251 59/303/252 123/304/253 124/145/254
f 59/303/255 61/305/256 125/306/257 123/304/258
f 61/305/259 62/307/260 126/146/261 125/306/262
f 62/307/263 60/302/264 124/145/265 126/146/266
f 64/308/267 63/309/268 127/310/269 128/147/270
f 63/309/271 65/311/272 129/312/273 127/310/274
f 65/311/275 66/313/276 130/148/277 129/312/278
f 66/313/279 64/308/280 128/147/281 130/148/282
f 68/314/283 67/315/284 131/316/285 132/317/286
f 67/315/287 69/318/288 133/149/289 131/316/290
f 69/318/291 70/319/292 134/150/293 133/149/294
f 70/319/295 68/314/296 132/317/297 134/150/298
f 72/320/299 71/321/300 135/322/301 136/323/302
f 71/321/303 73/324/304 137/325/305 135/322/306
f 73/324/307 74/326/308 138/151/309 137/325/310
f 74/326/311 72/320/312 136/323/313 138/151/314
f 76/327/315 75/328/316 139/329/317 140/330/318
f 75/328/319 77/331/320 141/332/321 139/329/322
f 77/331/323 78/333/324 142/152/325 141/332/326
f 78/333/327 76/327/328 140/330/329 142/152/330
f 80/334/331 79/335/332 143/336/333 144/337/334
f 79/335/335 81/338/336 145/339/337 143/336/338
f 81/338/339 82/340/340 146/153/341 145/339/342
f 82/340/343 80/334/344 144/337/345 146/153/346
f 84/341/347 83/342/348 147/343/349 148/344/350
f 83/342/351 85/345/352 149/154/353 147/343/354
f 85/345/355 86/346/356 150/155/357 149/154/358
f 86/346/359 84/341/360 148/344/361 150/155/362
f 88/347/363 87/348/364 151/349/365 152/350/366
f 87/348/367 89/351/368 153/352/369 151/349/370
f 89/351/371 90/353/372 154/156/373 153/352/374
f 90/353/375 88/347/376 152/350/377 154/156/378
f 92/354/379 91/355/380 155/356/381 156/357/382
f 91/355/383 93/358/384 157/359/385 155/356/386
f 93/358/387 94/360/388 158/157/389 157/359/390
f 94/360/391 92/354/392 156/357/393 158/157/394
f 96/361/395 95/362/396 159/363/397 160/364/398
f 95/362/399 97/365/400 161/366/401 159/363/402
f 97/365/403 98/367/404 162/158/405 161/366/406
f 98/367/407 96/361/408 160/364/409 162/158/410
f 100/368/411 99/369/412 163/370/413 164/371/414
f 99/369/415 101/372/416 165/159/417 163/370/418
f 101/372/419 102/373/420 166/160/421 165/159/422
f 102/373/423 100/368/424 164/371/425 166/160/426
f 104/374/427 103/375/428 167/376/429 168/377/430
f 103/375/431 105/378/432 169/379/433 167/376/434
f 105/378/435 106/380/436 170/161/437 169/379/438
f 106/380/439 104/374/440 168/377/441 170/161/442
f 108/381/443 107/382/444 171/383/445 172/384/446
f 107/382/447 109/385/448 173/386/449 171/383/450
f 109/385/451 110/387/452 174/162/453 173/386/454
f 110/387/455 108/381/456 172/384/457 174/162/458
f 112/135/459 111/136/460 175/388/461 176/389/462
f 111/136/463 113/137/464 177/390/465 175/388/466
f 113/137/467 114/138/468 178/163/469 177/390/470
f 114/138/471 112/135/472 176/389/473 178/163/474
s 7
f 116/139/475 115/140/476 179/165/477 180/164/478
f 115/140/476 117/141/479 181/166/480 179/165/477
f 117/141/479 118/142/481 182/167/482 181/166/480
f 118/142/481 116/139/475 180/164/478 182/167/482
s 8
f 120/143/483 119/298/484 183/169/485 184/168/486
f 119/298/484 121/300/487 185/170/488 183/169/485
f 121/300/487 122/144/489 186/171/490 185/170/488
f 122/144/489 120/143/483 184/168/486 186/171/490
s 9
f 124/145/491 123/304/492 187/173/493 188/172/494
f 123/304/492 125/306/495 189/174/496 187/173/493
f 125/306/495 126/146/497 190/175/498 189/174/496
f 126/146/497 124/145/491 188/172/494 190/175/498
s 10
f 128/147/499 127/310/500 191/177/501 192/176/502
f 127/310/500 129/312/503 193/178/504 191/177/501
f 129/312/503 130/148/505 194/179/506 193/178/504
f 130/148/505 128/147/499 192/176/502 194/179/506
s 11
f 132/317/507 131/316/508 195/181/509 196/180/510
f 131/316/508 133/149/511 197/182/512 195/181/509
f 133/149/511 134/150/513 198/183/514 197/182/512
f 134/150/513 132/317/507 196/180/510 198/183/514
s 12
f 136/323/515 135/322/516 199/185/517 200/184/518
f 135/322/516 137/325/519 201/186/520 199/185/517
f 137/325/519 138/151/521 202/187/522 201/186/520
f 138/151/521 136/323/515 200/184/518 202/187/522
s 13
f 140/330/523 139/329/524 203/189/525 204/188/526
f 139/329/524 141/332/527 205/190/528 203/189/525
f 141/332/527 142/152/529 206/191/530 205/190/528
f 142/152/529 140/330/523 204/188/526 206/191/530
s 14
f 144/337/531 143/336/532 207/193/533 208/192/534
f 143/336/532 145/339/535 209/194/536 207/193/533
f 145/339/535 146/153/537 210/195/538 209/194/536
f 146/153/537 144/337/531 208/192/534 210/195/538
s 15
f 148/344/539 147/343/540 211/197/541 212/196/542
f 147/343/540 149/154/543 213/198/544 211/197/541
f 149/154/543 150/155/545 214/199/546 213/198/544
f 150/155/545 148/344/539 212/196/542 214/199/546
s 16
f 152/350/547 151/349/548 215/201/549 216/200/550
f 151/349/548 153/352/551 217/202/552 215/201/549
f 153/352/551 154/156/553 218/203/554 217/202/552
f 154/156/553 152/350/547 216/200/550 218/203/554
s 17
f 156/357/555 155/356/556 219/205/557 220/204/558
f 155/356/556 157/359/559 221/206/560 219/205/557
f 157/359/559 158/157/561 222/207/562 221/206/560
f 158/157/561 156/357/555 220/204/558 222/207/562
s 18
f 160/364/563 159/363/564 223/209/565 224/208/566
f 159/363/564 161/366/567 225/210/568 223/209/565
f 161/366/567 162/158/569 226/211/570 225/210/568
f 162/158/569 160/364/563 224/208/566 226/211/570
s 19
f 164/371/571 163/370/572 227/213/573 228/212/574
f 163/370/572 165/159/575 229/214/576 227/213/573
f 165/159/575 166/160/577 230/215/578 229/214/576
f 166/160/577 164/371/571 228/212/574 230/215/578
s 20
f 168/377/579 167/376/580 231/217/581 232/216/582
f 167/376/580 169/379/583 233/218/584 231/217/581
f 169/379/583 170/161/585 234/219/586 233/218/584
f 170/161/585 168/377/579 232/216/582 234/219/586
s 21
f 172/384/587 171/383/588 235/221/589 236/220/590
f 171/383/588 173/386/591 237/222/592 235/221/589
f 173/386/591 174/162/593 238/223/594 237/222/592
f 174/162/593 172/384/587 236/220/590 238/223/594
s 22
f 176/389/595 175/388/596 239/458/597 240/455/598
f 175/388/596 177/390/599 241/457/600 239/458/597
f 177/390/599 178/163/601 242/456/602 241/457/600
f 178/163/601 176/389/595 240/455/598 242/456/602
s off
f 180/391/603 179/522/604 243/229/605 244/228/606
f 179/392/607 181/520/608 245/230/609 243/229/610
f 181/393/611 182/519/612 246/231/613 245/230/614
f 182/394/615 180/521/616 244/228/617 246/231/618
f 184/395/619 183/518/620 247/253/621 248/232/622
f 183/396/623 185/516/624 249/254/625 247/253/626
f 185/397/627 186/515/628 250/233/629 249/254/630
f 186/398/631 184/517/632 248/232/633 250/233/634
f 188/399/635 187/514/636 251/255/637 252/234/638
f 187/400/639 189/512/640 253/256/641 251/255/642
f 189/401/643 190/511/644 254/235/645 253/256/646
f 190/402/647 188/513/648 252/234/649 254/235/650
f 192/403/651 191/510/652 255/257/653 256/236/654
f 191/404/655 193/508/656 257/258/657 255/257/658
f 193/405/659 194/507/660 258/237/661 257/258/662
f 194/406/663 192/509/664 256/236/665 258/237/666
f 196/407/667 195/494/668 259/260/669 260/259/670
f 195/408/671 197/492/672 261/238/673 259/260/674
f 197/409/675 198/491/676 262/239/677 261/238/678
f 198/410/679 196/493/680 260/259/681 262/239/682
f 200/411/683 199/506/684 263/262/685 264/261/686
f 199/412/687 201/504/688 265/263/689 263/262/690
f 201/413/691 202/503/692 266/240/693 265/263/694
f 202/414/695 200/505/696 264/261/697 266/240/698
f 204/415/699 203/502/700 267/265/701 268/264/702
f 203/416/703 205/500/704 269/266/705 267/265/706
f 205/417/707 206/499/708 270/241/709 269/266/710
f 206/418/711 204/501/712 268/264/713 270/241/714
f 208/419/715 207/498/716 271/268/717 272/267/718
f 207/420/719 209/496/720 273/269/721 271/268/722
f 209/421/723 210/495/724 274/242/725 273/269/726
f 210/422/727 208/497/728 272/267/729 274/242/730
f 212/423/731 211/490/732 275/271/733 276/270/734
f 211/424/735 213/488/736 277/243/737 275/271/738
f 213/425/739 214/487/740 278/244/741 277/243/742
f 214/426/743 212/489/744 276/270/745 278/244/746
f 216/427/747 215/486/748 279/273/749 280/272/750
f 215/428/751 217/484/752 281/274/753 279/273/754
f 217/429/755 218/483/756 282/245/757 281/274/758
f 218/430/759 216/485/760 280/272/761 282/245/762
f 220/431/763 219/482/764 283/276/765 284/275/766
f 219/432/767 221/480/768 285/277/769 283/276/770
f 221/433/771 222/479/772 286/246/773 285/277/774
f 222/434/775 220/481/776 284/275/777 286/246/778
f 224/435/779 223/478/780 287/279/781 288/278/782
f 223/436/783 225/476/784 289/280/785 287/279/786
f 225/437/787 226/475/788 290/247/789 289/280/790
f 226/438/791 224/477/792 288/278/793 290/247/794
f 228/439/795 227/474/796 291/282/797 292/281/798
f 227/440/799 229/472/800 293/248/801 291/282/802
f 229/441/803 230/471/804 294/249/805 293/248/806
f 230/442/807 228/473/808 292/281/809 294/249/810
f 232/443/811 231/470/812 295/284/813 296/283/814
f 231/444/815 233/468/816 297/285/817 295/284/818
f 233/445/819 234/467/820 298/250/821 297/285/822
f 234/446/823 232/469/824 296/283/825 298/250/826
f 236/447/827 235/466/828 299/287/829 300/286/830
f 235/448/831 237/464/832 301/288/833 299/287/834
f 237/449/835 238/463/836 302/251/837 301/288/838
f 238/450/839 236/465/840 300/286/841 302/251/842
f 240/224/843 239/462/844 303/290/845 304/289/846
f 239/225/847 241/460/848 305/291/849 303/290/850
f 241/226/851 242/459/852 306/252/853 305/291/854
f 242/227/855 240/461/856 304/289/857 306/252/858
