# This file uses centimeters as units for non-parametric coordinates.

mtllib Chair.mtl
g default
v -2.000561 2.475452 -0.087265
v -2.000561 2.546041 -0.087265
v -2.050475 2.546041 -0.137179
v -2.050475 2.475452 -0.137179
v -1.230285 2.461758 -0.136253
v -1.182222 2.510747 -0.135328
v -1.196164 2.559001 -0.087265
v -1.268254 2.548715 -0.087265
v -1.278540 2.476626 -0.087265
v -0.374801 2.510747 -0.137179
v -0.374801 2.560661 -0.087265
v -0.445390 2.560661 -0.087265
v -0.445390 2.510747 -0.137179
v 0.445390 2.510747 -0.137179
v 0.445390 2.560661 -0.087265
v 0.374800 2.560661 -0.087265
v 0.374800 2.510747 -0.137179
v 1.278540 2.476626 -0.087265
v 1.268254 2.548715 -0.087265
v 1.194664 2.561123 -0.087265
v 1.181297 2.510747 -0.136253
v 1.230285 2.461758 -0.136253
v 2.050475 2.475452 -0.137179
v 2.050475 2.546041 -0.137179
v 2.000561 2.546041 -0.087265
v 2.000561 2.475452 -0.087265
v -2.050475 2.881860 -0.132521
v -2.050475 2.811288 -0.137238
v -2.000561 2.811239 -0.087265
v -2.000513 2.881681 -0.082198
v -1.265580 2.881556 -0.082217
v -1.265671 2.811239 -0.087265
v -1.194991 2.811330 -0.087265
v -1.194991 2.881556 -0.082217
v -0.445390 2.881556 -0.082217
v -0.445481 2.811239 -0.087265
v -0.374801 2.811330 -0.087265
v -0.374801 2.881556 -0.082217
v 0.374800 2.881556 -0.082217
v 0.374709 2.811239 -0.087265
v 0.445390 2.811330 -0.087265
v 0.445390 2.881556 -0.082217
v 1.194991 2.881556 -0.082217
v 1.194900 2.811239 -0.087265
v 1.265580 2.811330 -0.087265
v 1.265580 2.881556 -0.082217
v 2.000513 2.881681 -0.082198
v 2.000561 2.811239 -0.087265
v 2.050475 2.811288 -0.137238
v 2.050475 2.881860 -0.132521
v -2.003124 2.893489 -0.900682
v -2.004026 2.846625 -0.953904
v -2.050475 2.798370 -0.941576
v -2.050475 2.808687 -0.869518
v -2.050475 2.880792 -0.853696
v -1.194991 2.892832 -0.900777
v -1.194991 2.846625 -0.954142
v -1.265580 2.846625 -0.954142
v -1.265580 2.892832 -0.900777
v -0.374801 2.892832 -0.900777
v -0.374801 2.846625 -0.954142
v -0.445390 2.846625 -0.954142
v -0.445390 2.892832 -0.900777
v 0.445390 2.892832 -0.900777
v 0.445390 2.846625 -0.954142
v 0.374800 2.846625 -0.954142
v 0.374800 2.892832 -0.900777
v 1.265580 2.892832 -0.900777
v 1.265580 2.846625 -0.954142
v 1.194991 2.846625 -0.954142
v 1.194991 2.892832 -0.900777
v 2.050475 2.880792 -0.853696
v 2.050475 2.808672 -0.869502
v 2.050475 2.796248 -0.943077
v 2.003101 2.846625 -0.954830
v 2.003124 2.893489 -0.900682
v -2.050475 2.796710 -1.692351
v -2.000561 2.846625 -1.692351
v -2.000561 2.846625 -1.762940
v -2.050475 2.796710 -1.762940
v -1.265580 2.846625 -1.762940
v -1.265580 2.846625 -1.692351
v -1.194991 2.846625 -1.692351
v -1.194991 2.846625 -1.762940
v -0.445390 2.846625 -1.762940
v -0.445390 2.846625 -1.692351
v -0.374801 2.846625 -1.692351
v -0.374801 2.846625 -1.762940
v 0.374800 2.846625 -1.762940
v 0.374800 2.846625 -1.692351
v 0.445390 2.846625 -1.692351
v 0.445390 2.846625 -1.762940
v 1.194991 2.846625 -1.762940
v 1.194991 2.846625 -1.692351
v 1.265580 2.846625 -1.692351
v 1.265580 2.846625 -1.762940
v 2.050475 2.796710 -1.762940
v 2.000561 2.846625 -1.762940
v 2.000561 2.846625 -1.692351
v 2.050475 2.796710 -1.692351
v -2.050475 2.796711 -2.512541
v -2.000561 2.846625 -2.512541
v -2.000561 2.846625 -2.583130
v -2.050475 2.796710 -2.583130
v -1.265580 2.846625 -2.583130
v -1.265580 2.846625 -2.512541
v -1.194991 2.846625 -2.512541
v -1.194991 2.846625 -2.583130
v -0.445390 2.846625 -2.583130
v -0.445390 2.846625 -2.512541
v -0.374801 2.846625 -2.512541
v -0.374801 2.846625 -2.583130
v 0.374800 2.846625 -2.583130
v 0.374800 2.846625 -2.512541
v 0.445390 2.846625 -2.512541
v 0.445390 2.846625 -2.583130
v 1.194991 2.846625 -2.583130
v 1.194991 2.846625 -2.512541
v 1.265580 2.846625 -2.512541
v 1.265580 2.846625 -2.583130
v 2.050475 2.796710 -2.583130
v 2.000561 2.846625 -2.583130
v 2.000561 2.846625 -2.512541
v 2.050475 2.796710 -2.512541
v -2.050475 2.796710 -3.332731
v -2.000561 2.846625 -3.332731
v -2.000561 2.846625 -3.403320
v -2.050475 2.796710 -3.403320
v -1.265580 2.846625 -3.403320
v -1.265580 2.846625 -3.332731
v -1.194991 2.846625 -3.332731
v -1.194991 2.846625 -3.403320
v -0.445390 2.846625 -3.403320
v -0.445390 2.846625 -3.332731
v -0.374801 2.846625 -3.332731
v -0.374801 2.846625 -3.403320
v 0.374800 2.846625 -3.403320
v 0.374800 2.846625 -3.332731
v 0.445390 2.846625 -3.332731
v 0.445390 2.846625 -3.403320
v 1.194991 2.846625 -3.403320
v 1.194991 2.846625 -3.332731
v 1.265580 2.846625 -3.332731
v 1.265580 2.846625 -3.403320
v 2.050475 2.796710 -3.403320
v 2.000561 2.846625 -3.403320
v 2.000561 2.846625 -3.332731
v 2.050475 2.796710 -3.332731
v -2.050475 2.796710 -4.138302
v -2.000561 2.846625 -4.138302
v -2.000561 2.796711 -4.188216
v -1.265580 2.796711 -4.188216
v -1.265580 2.846625 -4.138302
v -1.194991 2.846625 -4.138302
v -1.194991 2.796711 -4.188216
v -0.445390 2.796711 -4.188216
v -0.445390 2.846625 -4.138302
v -0.374801 2.846625 -4.138302
v -0.374801 2.796710 -4.188216
v 0.374800 2.796711 -4.188216
v 0.374800 2.846625 -4.138302
v 0.445390 2.846625 -4.138302
v 0.445390 2.796710 -4.188216
v 1.194991 2.796710 -4.188216
v 1.194991 2.846625 -4.138302
v 1.265580 2.846625 -4.138302
v 1.265580 2.796710 -4.188216
v 2.000561 2.796710 -4.188216
v 2.000561 2.846625 -4.138302
v 2.050475 2.796710 -4.138302
v -2.050475 2.475452 -4.138302
v -2.050475 2.546041 -4.138302
v -2.000561 2.546041 -4.188216
v -2.000561 2.475452 -4.188216
v -1.278540 2.476626 -4.188216
v -1.268254 2.548715 -4.188216
v -1.194664 2.561123 -4.188216
v -1.181297 2.510747 -4.139227
v -1.230285 2.461758 -4.139227
v -0.445390 2.510747 -4.138302
v -0.445390 2.560661 -4.188216
v -0.374801 2.560661 -4.188216
v -0.374801 2.510747 -4.138302
v 0.374800 2.510747 -4.138302
v 0.374800 2.560661 -4.188216
v 0.445390 2.560661 -4.188216
v 0.445390 2.510747 -4.138302
v 1.230285 2.461758 -4.139227
v 1.182222 2.510747 -4.140153
v 1.196164 2.559001 -4.188216
v 1.268254 2.548715 -4.188216
v 1.278540 2.476626 -4.188216
v 2.000561 2.475452 -4.188216
v 2.000561 2.546041 -4.188216
v 2.050475 2.546041 -4.138302
v 2.050475 2.475452 -4.138302
v -2.001487 2.461758 -3.368026
v -2.002413 2.510747 -3.319963
v -2.050475 2.559001 -3.333905
v -2.050475 2.548715 -3.405994
v -2.050475 2.476626 -3.416280
v -1.230285 2.462684 -3.416088
v -1.182031 2.510747 -3.402147
v -1.192317 2.510747 -3.330057
v -1.265907 2.510747 -3.317649
v -1.278348 2.462684 -3.368026
v -0.445390 2.510747 -3.332731
v -0.445390 2.510747 -3.403320
v -0.374801 2.510747 -3.403320
v -0.374801 2.510747 -3.332731
v 0.374800 2.510747 -3.332731
v 0.374800 2.510747 -3.403320
v 0.445390 2.510747 -3.403320
v 0.445390 2.510747 -3.332731
v 1.278348 2.462684 -3.368026
v 1.264406 2.510747 -3.319771
v 1.192317 2.510747 -3.330057
v 1.179909 2.510747 -3.403647
v 1.230285 2.462684 -3.416088
v 2.050475 2.476626 -3.416280
v 2.050475 2.548715 -3.405994
v 2.050475 2.561123 -3.332404
v 2.001487 2.510747 -3.319037
v 2.001487 2.461758 -3.368026
v -2.050475 2.560661 -2.583130
v -2.000561 2.510747 -2.583130
v -2.000561 2.510747 -2.512541
v -2.050475 2.560661 -2.512541
v -1.265580 2.510747 -2.512541
v -1.265580 2.510747 -2.583130
v -1.194991 2.510747 -2.583130
v -1.194991 2.510747 -2.512541
v -0.445390 2.510747 -2.512541
v -0.445390 2.510747 -2.583130
v -0.374801 2.510747 -2.583130
v -0.374801 2.510747 -2.512541
v 0.374800 2.510747 -2.512541
v 0.374800 2.510747 -2.583130
v 0.445390 2.510747 -2.583130
v 0.445390 2.510747 -2.512541
v 1.194991 2.510747 -2.512541
v 1.194991 2.510747 -2.583130
v 1.265580 2.510747 -2.583130
v 1.265580 2.510747 -2.512541
v 2.050475 2.560661 -2.512541
v 2.000561 2.510747 -2.512541
v 2.000561 2.510747 -2.583130
v 2.050475 2.560661 -2.583130
v -2.050475 2.560661 -1.762940
v -2.000561 2.510747 -1.762940
v -2.000561 2.510747 -1.692351
v -2.050475 2.560661 -1.692351
v -1.265580 2.510747 -1.692351
v -1.265580 2.510747 -1.762940
v -1.194991 2.510747 -1.762940
v -1.194991 2.510747 -1.692351
v -0.445390 2.510747 -1.692351
v -0.445390 2.510747 -1.762940
v -0.374801 2.510747 -1.762940
v -0.374801 2.510747 -1.692351
v 0.374800 2.510747 -1.692351
v 0.374800 2.510747 -1.762940
v 0.445390 2.510747 -1.762940
v 0.445390 2.510747 -1.692351
v 1.194991 2.510747 -1.692351
v 1.194991 2.510747 -1.762940
v 1.265580 2.510747 -1.762940
v 1.265580 2.510747 -1.692351
v 2.050475 2.560661 -1.692351
v 2.000561 2.510747 -1.692351
v 2.000561 2.510747 -1.762940
v 2.050475 2.560661 -1.762940
v -2.050475 2.476626 -0.859200
v -2.050475 2.548715 -0.869486
v -2.050475 2.561123 -0.943077
v -2.001487 2.510747 -0.956443
v -2.001487 2.461758 -0.907455
v -1.278348 2.462684 -0.907455
v -1.264406 2.510747 -0.955710
v -1.192317 2.510747 -0.945424
v -1.179909 2.510747 -0.871833
v -1.230285 2.462684 -0.859392
v -0.445390 2.510747 -0.872160
v -0.445390 2.510747 -0.942750
v -0.374801 2.510747 -0.942750
v -0.374801 2.510747 -0.872160
v 0.374800 2.510747 -0.872160
v 0.374800 2.510747 -0.942750
v 0.445390 2.510747 -0.942750
v 0.445390 2.510747 -0.872160
v 1.230285 2.462684 -0.859392
v 1.182031 2.510747 -0.873334
v 1.192317 2.510747 -0.945424
v 1.265907 2.510747 -0.957832
v 1.278348 2.462684 -0.907455
v 2.001487 2.461758 -0.907455
v 2.002413 2.510747 -0.955518
v 2.050475 2.559001 -0.941576
v 2.050475 2.548715 -0.869486
v 2.050475 2.476626 -0.859200
v -2.050475 -0.418668 -4.138302
v -2.000561 -0.418668 -4.188216
v -2.000561 -0.468582 -4.138302
v -1.280199 -0.468582 -4.138302
v -1.280199 -0.418668 -4.188216
v -1.230285 -0.418668 -4.138302
v -1.280199 -0.468582 -3.417940
v -1.230285 -0.418668 -3.417940
v -1.280199 -0.418668 -3.368026
v -2.000561 -0.468582 -3.417940
v -2.000561 -0.418668 -3.368026
v -2.050475 -0.418668 -3.417940
v 1.230285 -0.418668 -4.138302
v 1.280199 -0.418668 -4.188216
v 1.280199 -0.468582 -4.138302
v 2.000561 -0.468582 -4.138302
v 2.000561 -0.418668 -4.188216
v 2.050475 -0.418668 -4.138302
v 2.000561 -0.468582 -3.417940
v 2.050475 -0.418668 -3.417940
v 2.000561 -0.418668 -3.368026
v 1.280199 -0.468582 -3.417940
v 1.280199 -0.418668 -3.368026
v 1.230285 -0.418668 -3.417940
v -2.050475 -0.418668 -0.857541
v -2.000561 -0.418668 -0.907455
v -2.000561 -0.468582 -0.857541
v -1.280199 -0.468582 -0.857541
v -1.280199 -0.418668 -0.907455
v -1.230285 -0.418668 -0.857541
v -1.280199 -0.468582 -0.137179
v -1.230285 -0.418668 -0.137179
v -1.280199 -0.418668 -0.087265
v -2.000561 -0.468582 -0.137179
v -2.000561 -0.418668 -0.087265
v -2.050475 -0.418668 -0.137179
v 1.230285 -0.418668 -0.857541
v 1.280199 -0.418668 -0.907455
v 1.280199 -0.468582 -0.857541
v 2.000561 -0.468582 -0.857541
v 2.000561 -0.418668 -0.907455
v 2.050475 -0.418668 -0.857541
v 2.000561 -0.468582 -0.137179
v 2.050475 -0.418668 -0.137179
v 2.000561 -0.418668 -0.087265
v 1.280199 -0.468582 -0.137179
v 1.280199 -0.418668 -0.087265
v 1.230285 -0.418668 -0.137179
v -2.050475 7.343483 0.512195
v -2.000561 7.343996 0.562702
v -2.000561 7.393397 0.519927
v -1.194991 7.393397 0.515922
v -1.265580 7.393397 0.515922
v -1.265580 7.340032 0.562129
v -1.194991 7.340032 0.562129
v -1.194991 7.347190 -0.257027
v -1.265580 7.347190 -0.257027
v -1.265580 7.393397 -0.203662
v -1.194991 7.393397 -0.203662
v -2.000561 7.393397 -0.200435
v -2.003789 7.347190 -0.257027
v -2.050475 7.343483 -0.207130
v -0.374801 7.393397 0.515922
v -0.445390 7.393397 0.515922
v -0.445390 7.340032 0.562129
v -0.374801 7.340032 0.562129
v -0.374801 7.347190 -0.257027
v -0.445390 7.347190 -0.257027
v -0.445390 7.393397 -0.203662
v -0.374801 7.393397 -0.203662
v 0.445390 7.393397 0.515922
v 0.374800 7.393397 0.515922
v 0.374800 7.340032 0.562129
v 0.445390 7.340032 0.562129
v 0.445390 7.347190 -0.257027
v 0.374800 7.347190 -0.257027
v 0.374800 7.393397 -0.203662
v 0.445390 7.393397 -0.203662
v 1.265580 7.393397 0.515922
v 1.194991 7.393397 0.515922
v 1.194991 7.340032 0.562129
v 1.265580 7.340032 0.562129
v 1.265580 7.347190 -0.257027
v 1.194991 7.347190 -0.257027
v 1.194991 7.393397 -0.203662
v 1.265580 7.393397 -0.203662
v 2.000561 7.393397 0.519927
v 1.996556 7.340032 0.562129
v 2.050475 7.343483 0.512195
v 2.003789 7.393397 -0.203662
v 2.050475 7.343483 -0.207130
v 2.003789 7.347190 -0.257027
vt 0.881350 0.521842
vt 0.507472 0.964701
vt 0.841603 0.242203
vt 0.840617 0.236480
vt 0.513325 0.965122
vt 0.909001 0.482468
vt 0.522284 0.921249
vt 0.509973 0.968107
vt 0.525411 0.975734
vt 0.520642 0.979776
vt 0.466373 0.975922
vt 0.972079 0.392253
vt 0.910816 0.478145
vt 0.750858 0.371948
vt 0.795078 0.209139
vt 0.517068 0.914748
vt 0.938488 0.438691
vt 0.465826 0.912318
vt 0.522069 0.916376
vt 0.519502 0.865204
vt 0.524322 0.865429
vt 0.539176 0.918890
vt 0.538828 0.924211
vt 0.519626 0.860464
vt 0.468509 0.864107
vt 0.468709 0.859422
vt 0.524429 0.860622
vt 0.520077 0.809343
vt 0.524912 0.809296
vt 0.541424 0.861346
vt 0.541263 0.866379
vt 0.520047 0.804568
vt 0.469765 0.809423
vt 0.469748 0.804739
vt 0.524871 0.804474
vt 0.519007 0.755448
vt 0.524179 0.753969
vt 0.541926 0.804027
vt 0.541885 0.809031
vt 0.810439 0.735688
vt 0.517119 0.751469
vt 0.767692 0.456388
vt 0.766646 0.450675
vt 0.524284 0.749056
vt 0.837532 0.695927
vt 0.517653 0.703500
vt 0.540980 0.746314
vt 0.541096 0.751672
vt 0.468511 0.755559
vt 0.898977 0.604533
vt 0.840187 0.692044
vt 0.678324 0.587085
vt 0.720819 0.423819
vt 0.514361 0.700483
vt 0.867410 0.652370
vt 0.469143 0.692825
vt 0.525234 0.688139
vt 0.529836 0.692576
vt 0.645899 0.034575
vt 0.529293 0.978126
vt 0.460740 0.276695
vt 0.463069 0.272707
vt 0.612459 0.000000
vt 0.469077 0.993471
vt 0.651761 0.512053
vt 0.543864 0.919528
vt 0.425764 0.316485
vt 0.428866 0.313044
vt 0.615308 0.553466
vt 0.546146 0.861490
vt 0.389155 0.355852
vt 0.392291 0.352450
vt 0.578338 0.594356
vt 0.546646 0.803842
vt 0.352455 0.395064
vt 0.355598 0.391681
vt 0.541001 0.634778
vt 0.545544 0.745327
vt 0.315914 0.434355
vt 0.319055 0.430976
vt 0.503995 0.674011
vt 0.527948 0.684410
vt 0.279256 0.472222
vt 0.283290 0.469496
vt 0.472119 0.676207
vt 0.002155 0.614908
vt 0.212483 0.030361
vt 0.428791 0.238196
vt 0.424585 0.240314
vt 0.004753 0.953050
vt 0.176814 0.064792
vt 0.006723 0.903110
vt 0.463348 0.992474
vt 0.054499 0.955481
vt 0.410228 0.991686
vt 0.461252 0.975951
vt 0.173403 0.068117
vt 0.388999 0.274577
vt 0.385656 0.277896
vt 0.006924 0.898287
vt 0.137492 0.103827
vt 0.009178 0.846726
vt 0.056399 0.901038
vt 0.056223 0.905842
vt 0.134116 0.107211
vt 0.350689 0.313548
vt 0.347415 0.316919
vt 0.009437 0.841841
vt 0.098555 0.143400
vt 0.012542 0.789910
vt 0.058746 0.844874
vt 0.058509 0.849726
vt 0.095213 0.146821
vt 0.312922 0.353043
vt 0.309682 0.356461
vt 0.012891 0.785023
vt 0.060012 0.183261
vt 0.016982 0.733364
vt 0.062150 0.788445
vt 0.061812 0.793302
vt 0.056701 0.186694
vt 0.275574 0.393236
vt 0.272398 0.396762
vt 0.017401 0.728539
vt 0.022618 0.222234
vt 0.465668 0.672222
vt 0.066797 0.732268
vt 0.066363 0.737076
vt 0.240885 0.435700
vt 0.243018 0.439847
vt 0.466221 0.676897
vt 0.464108 0.693194
vt 0.413697 0.676295
vt 0.413773 0.671554
vt 0.405179 0.991541
vt 0.405286 0.975551
vt 0.410154 0.975592
vt 0.059296 0.955755
vt 0.060961 0.906130
vt 0.110412 0.958937
vt 0.352445 0.989917
vt 0.061138 0.901322
vt 0.111458 0.904448
vt 0.111339 0.909252
vt 0.063212 0.850026
vt 0.063457 0.845179
vt 0.113333 0.848418
vt 0.113127 0.853252
vt 0.066498 0.793626
vt 0.066848 0.788781
vt 0.116549 0.792268
vt 0.116213 0.797114
vt 0.071063 0.737409
vt 0.071508 0.732611
vt 0.121476 0.736156
vt 0.120985 0.740986
vt 0.408621 0.671532
vt 0.408703 0.676270
vt 0.413511 0.692273
vt 0.408726 0.692309
vt 0.356838 0.676985
vt 0.356560 0.672243
vt 0.347365 0.989648
vt 0.348652 0.973771
vt 0.353529 0.973964
vt 0.115296 0.959216
vt 0.116084 0.909548
vt 0.167262 0.962268
vt 0.294101 0.985933
vt 0.116203 0.904730
vt 0.166534 0.907441
vt 0.166511 0.912258
vt 0.117815 0.853555
vt 0.118033 0.848724
vt 0.167865 0.851780
vt 0.167702 0.856556
vt 0.120868 0.797459
vt 0.121218 0.792629
vt 0.170666 0.796430
vt 0.170360 0.801222
vt 0.125639 0.741345
vt 0.126153 0.736541
vt 0.175571 0.740686
vt 0.174997 0.745562
vt 0.351362 0.672397
vt 0.351850 0.677108
vt 0.357969 0.692933
vt 0.353199 0.693145
vt 0.299809 0.680337
vt 0.298860 0.675670
vt 0.288650 0.985427
vt 0.292031 0.969842
vt 0.297012 0.969942
vt 0.172260 0.962494
vt 0.171232 0.912460
vt 0.223941 0.964804
vt 0.234752 0.969777
vt 0.171270 0.907611
vt 0.220313 0.908218
vt 0.220340 0.913037
vt 0.172401 0.856802
vt 0.172589 0.852036
vt 0.221927 0.854360
vt 0.221800 0.858953
vt 0.175016 0.801610
vt 0.175337 0.796838
vt 0.224062 0.801089
vt 0.223861 0.805663
vt 0.179555 0.746079
vt 0.180147 0.741253
vt 0.227166 0.747157
vt 0.226702 0.752026
vt 0.292713 0.676494
vt 0.294355 0.680864
vt 0.303585 0.696001
vt 0.298846 0.696259
vt 0.243313 0.698474
vt 0.238582 0.697287
vt 0.228990 0.965019
vt 0.242240 0.955418
vt 0.245004 0.959075
vt 0.224899 0.912798
vt 0.225065 0.908029
vt 0.241089 0.907318
vt 0.240381 0.912220
vt 0.226591 0.859104
vt 0.226743 0.854522
vt 0.242871 0.855053
vt 0.242750 0.859542
vt 0.228625 0.806026
vt 0.228844 0.801467
vt 0.244867 0.802718
vt 0.244682 0.807139
vt 0.231295 0.752980
vt 0.231570 0.748355
vt 0.246913 0.751279
vt 0.247229 0.755792
vt 0.240925 0.701098
vt 0.254718 0.707165
vt 0.252319 0.710200
vt 0.692845 0.252430
vt 0.245768 0.953732
vt 0.811524 0.100334
vt 0.815160 0.103318
vt 0.729995 0.283020
vt 0.651962 0.218981
vt 0.248124 0.909938
vt 0.770785 0.066905
vt 0.845652 0.059654
vt 0.246399 0.906140
vt 0.247600 0.859690
vt 0.297072 0.909107
vt 0.611764 0.184775
vt 0.247724 0.855194
vt 0.298224 0.856893
vt 0.298095 0.861422
vt 0.249497 0.807433
vt 0.249703 0.803034
vt 0.299994 0.803972
vt 0.299838 0.808503
vt 0.252188 0.757533
vt 0.601741 0.711916
vt 0.251416 0.750858
vt 0.605466 0.903887
vt 0.600763 0.903863
vt 0.553544 0.711613
vt 0.301661 0.757116
vt 0.654447 0.711280
vt 0.257268 0.709559
vt 0.658165 0.904160
vt 0.604626 0.956979
vt 0.707266 0.711478
vt 0.571072 0.151260
vt 0.852407 0.133949
vt 0.858190 0.133409
vt 0.298845 0.965082
vt 0.608264 0.181900
vt 0.303121 0.915713
vt 0.349027 0.968994
vt 0.730052 0.033462
vt 0.888972 0.090122
vt 0.302071 0.910559
vt 0.302928 0.861632
vt 0.351836 0.913757
vt 0.351647 0.918570
vt 0.303044 0.857048
vt 0.353709 0.858583
vt 0.353569 0.863311
vt 0.304645 0.808563
vt 0.304797 0.803993
vt 0.355101 0.803793
vt 0.354995 0.808517
vt 0.306719 0.755689
vt 0.760031 0.712697
vt 0.552539 0.903572
vt 0.548391 0.907637
vt 0.307776 0.750726
vt 0.711843 0.712494
vt 0.305469 0.701040
vt 0.355669 0.748378
vt 0.355669 0.753229
vt 0.710867 0.904436
vt 0.551791 0.960645
vt 0.353543 0.697965
vt 0.353821 0.969170
vt 0.356342 0.918816
vt 0.405354 0.970725
vt 0.356528 0.913969
vt 0.406430 0.914984
vt 0.406254 0.919836
vt 0.358299 0.863424
vt 0.358433 0.858672
vt 0.408537 0.859242
vt 0.408380 0.864015
vt 0.359714 0.808529
vt 0.359797 0.803779
vt 0.409692 0.803880
vt 0.409644 0.808665
vt 0.360279 0.753119
vt 0.360236 0.748284
vt 0.409399 0.747893
vt 0.409450 0.752779
vt 0.358254 0.697750
vt 0.408754 0.697134
vt 0.410164 0.970746
vt 0.410904 0.919863
vt 0.459707 0.970664
vt 0.411097 0.914977
vt 0.460691 0.913710
vt 0.459405 0.918789
vt 0.413110 0.864044
vt 0.413265 0.859268
vt 0.463879 0.859384
vt 0.463679 0.864073
vt 0.414375 0.808709
vt 0.414412 0.803923
vt 0.464896 0.804643
vt 0.464918 0.809358
vt 0.414085 0.752850
vt 0.414027 0.747979
vt 0.462129 0.749098
vt 0.463501 0.754328
vt 0.413456 0.697107
vt 0.462446 0.698311
vt 0.463728 0.968792
vt 0.811253 0.285564
vt 0.813946 0.281709
vt 0.941083 0.434979
vt 0.781065 0.328761
vt 0.768054 0.254688
vt 0.466478 0.748084
vt 0.737803 0.500069
vt 0.740456 0.496185
vt 0.869178 0.648027
vt 0.708070 0.543580
vt 0.694279 0.469652
vt 0.818447 0.100054
vt 0.855007 0.130060
vt 0.848835 0.063004
vt 0.885636 0.093322
vt 0.600269 0.908469
vt 0.552973 0.908230
vt 0.600043 0.956386
vt 0.552363 0.956057
vt 0.810438 0.278684
vt 0.837524 0.239912
vt 0.771147 0.251255
vt 0.798527 0.212218
vt 0.736916 0.493198
vt 0.763590 0.454140
vt 0.697336 0.466186
vt 0.724300 0.426861
vt 0.458569 0.274689
vt 0.427058 0.242987
vt 0.425513 0.309912
vt 0.422402 0.313321
vt 0.388834 0.349279
vt 0.388913 0.281085
vt 0.392236 0.277750
vt 0.354075 0.316764
vt 0.385692 0.352662
vt 0.352067 0.388507
vt 0.350804 0.320135
vt 0.316380 0.356227
vt 0.348922 0.391891
vt 0.315482 0.427815
vt 0.313135 0.359632
vt 0.279118 0.396244
vt 0.312383 0.431230
vt 0.280769 0.467355
vt 0.275960 0.399635
vt 0.245459 0.437364
vt 0.466175 0.700338
vt 0.469682 0.697496
vt 0.896422 0.608273
vt 0.469593 0.751285
vt 0.463537 0.919875
vt 0.466529 0.916563
vt 0.968641 0.395442
vt 0.467012 0.971453
vt 0.298804 0.701001
vt 0.301728 0.703160
vt 0.303580 0.749759
vt 0.300557 0.752882
vt 0.295670 0.913193
vt 0.298649 0.916435
vt 0.294971 0.962958
vt 0.291774 0.965173
vt 0.659151 0.711305
vt 0.255522 0.712115
vt 0.606329 0.710949
vt 0.254280 0.754173
vt 0.649048 0.215307
vt 0.244920 0.913097
vt 0.689208 0.249446
vt 0.247777 0.956485
vt 0.512090 0.703656
vt 0.514721 0.705777
vt 0.807035 0.738910
vt 0.519534 0.748539
vt 0.515164 0.918705
vt 0.517659 0.921823
vt 0.878653 0.525696
vt 0.510346 0.962658
vt 0.474683 0.671771
vt 0.017198 0.678301
vt 0.012681 0.728143
vt 0.012261 0.732991
vt 0.008168 0.784674
vt 0.007818 0.789597
vt 0.004709 0.841556
vt 0.004450 0.846472
vt 0.002192 0.898053
vt 0.001991 0.902892
vt 0.467326 1.000000
vt 0.471673 0.997819
vt 0.501039 0.677709
vt 0.533834 0.690205
vt 0.537760 0.638230
vt 0.545836 0.751177
vt 0.575130 0.597846
vt 0.546633 0.808998
vt 0.612135 0.556992
vt 0.546007 0.866685
vt 0.648640 0.515622
vt 0.543459 0.925340
vt 0.684114 0.474917
vt 0.523391 0.983526
vt 0.188506 0.690904
vt 0.183634 0.690654
vt 0.287404 0.990034
vt 0.293379 0.990631
vt 0.132183 0.686649
vt 0.127339 0.686386
vt 0.346945 0.994381
vt 0.352194 0.994649
vt 0.076356 0.682870
vt 0.071570 0.682558
vt 0.405092 0.996290
vt 0.410290 0.996436
vt 0.021988 0.678715
vt 0.470332 0.669428
vt 0.462722 0.997000
vt 0.000000 0.952778
vt 0.232307 0.973546
vt 0.000000 0.610888
vt 0.215504 0.027003
vt 0.034465 0.650807
vt 0.687477 0.471609
vt 0.800785 0.208093
vt 0.723336 0.411275
vt 0.767010 0.249017
vt 0.753554 0.368094
vt 0.808180 0.282808
vt 0.783760 0.324906
vt 0.720639 0.415129
vt 0.999574 0.352757
vt 0.726515 0.422713
vt 0.651231 0.626709
vt 0.693175 0.463993
vt 0.680979 0.583202
vt 0.734701 0.497345
vt 0.710724 0.539697
vt 0.648575 0.630592
vt 0.926107 0.564695
vt 0.889573 0.095893
vt 0.692965 0.002988
vt 0.851386 0.059052
vt 0.733687 0.036447
vt 0.814510 0.097483
vt 0.774420 0.069889
vt 0.689331 0.000002
vt 0.566903 0.149116
vt 0.547686 0.956544
vt 0.758867 0.904699
vt 0.600555 0.961062
vt 0.706163 0.904410
vt 0.604946 0.907982
vt 0.653462 0.904136
vt 0.763571 0.904725
vt 0.764560 0.712723
vn -0.707107 0.000000 0.707107
vn -0.707107 0.000000 0.707107
vn -0.707107 0.000000 0.707107
vn -0.707107 0.000000 0.707107
vn 0.000000 0.000000 1.000000
vn 0.000000 0.000000 1.000000
vn 0.000000 0.000000 1.000000
vn 0.000000 0.000000 1.000000
vn -0.707271 0.000062 0.706942
vn -0.707271 0.000062 0.706942
vn -0.707557 -0.010121 0.706584
vn -0.707559 -0.010253 0.706580
vn -1.000000 0.000000 0.000000
vn -1.000000 0.000000 0.000000
vn -1.000000 0.000000 0.000000
vn -1.000000 0.000000 0.000000
vn 0.709710 -0.000317 0.704494
vn 0.709710 -0.000317 0.704494
vn 0.709710 -0.000317 0.704494
vn 0.709710 -0.000317 0.704494
vn 0.702107 -0.712071 0.000661
vn 0.702107 -0.712071 0.000661
vn 0.669811 -0.740491 -0.055004
vn 0.669441 -0.740781 -0.055610
vn 0.022118 -0.694843 0.718821
vn 0.093263 -0.651301 0.753066
vn 0.001522 -0.706366 0.707845
vn 0.001520 -0.706367 0.707844
vn 0.000000 0.000000 1.000000
vn 0.000000 -0.015685 0.999877
vn 0.000002 -0.015147 0.999885
vn 0.000000 -1.000000 0.000000
vn 0.000000 -1.000000 -0.000000
vn 0.000000 -1.000000 -0.000000
vn 0.000000 -1.000000 0.000000
vn 0.000000 -0.707105 0.707109
vn 0.000000 -0.707105 0.707109
vn 0.000000 -0.707105 0.707109
vn 0.000000 -0.707105 0.707109
vn 0.000000 0.000000 1.000000
vn 0.000000 0.000000 1.000000
vn 0.000000 -0.015772 0.999876
vn -0.000000 -0.015643 0.999878
vn 0.000000 -1.000000 0.000000
vn 0.000000 -1.000000 0.000000
vn 0.000000 -1.000000 0.000000
vn 0.000000 -1.000000 -0.000000
vn -0.000206 -0.702576 0.711608
vn -0.000206 -0.702578 0.711606
vn -0.093505 -0.647201 0.756563
vn -0.018886 -0.691925 0.721723
vn 0.000000 0.000000 1.000000
vn 0.000000 0.000000 1.000000
vn 0.000000 -0.015785 0.999875
vn -0.000000 -0.015688 0.999877
vn -0.709710 -0.000317 0.704494
vn -0.709710 -0.000317 0.704494
vn -0.709710 -0.000317 0.704494
vn -0.709710 -0.000317 0.704494
vn 0.000000 0.000000 1.000000
vn 0.000000 0.000000 1.000000
vn 0.000000 0.000000 1.000000
vn 0.000000 0.000000 1.000000
vn 0.000000 0.000000 1.000000
vn -0.000001 -0.015203 0.999884
vn -0.000000 -0.015655 0.999877
vn -0.706351 -0.707862 -0.000804
vn -0.706351 -0.707862 -0.000804
vn -0.673093 -0.737348 -0.057134
vn -0.673742 -0.736835 -0.056091
vn 0.707107 0.000000 0.707107
vn 0.707107 0.000000 0.707107
vn 0.707107 0.000000 0.707107
vn 0.707107 0.000000 0.707107
vn 1.000000 0.000000 0.000000
vn 1.000000 0.000000 0.000000
vn 1.000000 0.000000 0.000000
vn 1.000000 0.000000 0.000000
vn 0.707271 0.000062 0.706942
vn 0.707271 0.000062 0.706942
vn 0.707559 -0.010253 0.706580
vn 0.707557 -0.010121 0.706584
vn -0.706671 -0.100420 0.700380
vn -0.706673 -0.100370 0.700385
vn -0.706639 -0.101205 0.700299
vn -0.706639 -0.101205 0.700299
vn -1.000000 0.000000 0.000000
vn -1.000000 0.000000 0.000000
vn -1.000000 0.000000 0.000000
vn -1.000000 0.000000 0.000000
vn 0.000000 -0.141944 0.989875
vn 0.000001 -0.015150 0.999885
vn 0.000000 -0.141938 0.989875
vn 0.000000 -0.141942 0.989875
vn 0.000000 -0.143035 0.989718
vn 0.000000 -0.143035 0.989718
vn 0.000000 -0.141942 0.989875
vn 0.000000 -0.141942 0.989875
vn 0.000000 -0.143035 0.989718
vn 0.000000 -0.143035 0.989718
vn 0.000000 -0.141942 0.989875
vn -0.000000 -0.141942 0.989875
vn 0.000000 -0.143035 0.989718
vn 0.000000 -0.143035 0.989718
vn 0.000000 -0.141942 0.989875
vn -0.000000 -0.141936 0.989876
vn -0.000000 -0.143035 0.989718
vn 0.000000 -0.143035 0.989718
vn -0.000002 -0.015127 0.999886
vn -0.000000 -0.141942 0.989875
vn 0.692869 -0.102020 0.713810
vn 0.692854 -0.102071 0.713817
vn 0.692614 -0.102865 0.713936
vn 0.692614 -0.102865 0.713936
vn 1.000000 0.000000 0.000000
vn 1.000000 0.000000 0.000000
vn 1.000000 0.000000 0.000000
vn 1.000000 0.000000 0.000000
vn -0.723169 0.100460 -0.683326
vn -0.747132 0.147248 -0.648160
vn -0.722367 0.098979 -0.684390
vn -0.722367 0.098979 -0.684390
vn 0.000187 0.753248 -0.657737
vn 0.000187 0.753248 -0.657737
vn 0.000171 0.753486 -0.657465
vn 0.000171 0.753487 -0.657463
vn -0.723661 0.689811 -0.021792
vn -0.755016 0.649539 -0.089724
vn -0.713199 0.700958 -0.002225
vn -0.713190 0.700967 -0.002221
vn -1.000000 0.000000 0.000000
vn -1.000000 0.000000 0.000000
vn 0.000000 0.143035 -0.989718
vn 0.000000 0.143035 -0.989718
vn 0.000000 0.143035 -0.989718
vn 0.000000 0.143035 -0.989718
vn 0.000000 0.755986 -0.654588
vn 0.000000 0.755986 -0.654588
vn 0.000000 0.755986 -0.654588
vn 0.000000 0.755986 -0.654588
vn 0.000000 1.000000 0.000000
vn 0.000000 1.000000 0.000000
vn 0.000000 1.000000 0.000000
vn 0.000000 1.000000 0.000000
vn 0.000000 0.143035 -0.989718
vn 0.000000 0.143035 -0.989718
vn 0.000000 0.143035 -0.989718
vn 0.000000 0.143035 -0.989718
vn 0.000000 0.755986 -0.654588
vn 0.000000 0.755986 -0.654588
vn 0.000000 0.755986 -0.654588
vn 0.000000 0.755986 -0.654588
vn 0.000000 1.000000 0.000000
vn 0.000000 1.000000 0.000000
vn 0.000000 1.000000 0.000000
vn 0.000000 1.000000 0.000000
vn 0.000000 0.143035 -0.989718
vn 0.000000 0.143035 -0.989718
vn 0.000000 0.143035 -0.989718
vn 0.000000 0.143035 -0.989718
vn 0.000000 0.755986 -0.654588
vn 0.000000 0.755986 -0.654588
vn 0.000000 0.755986 -0.654588
vn 0.000000 0.755986 -0.654588
vn 0.000000 1.000000 0.000000
vn 0.000000 1.000000 0.000000
vn 0.000000 1.000000 0.000000
vn 0.000000 1.000000 0.000000
vn 0.000000 0.143035 -0.989718
vn 0.000000 0.143035 -0.989718
vn 0.000000 0.143035 -0.989718
vn 0.000000 0.143035 -0.989718
vn -0.000548 0.756052 -0.654512
vn -0.000548 0.756052 -0.654512
vn -0.000600 0.756058 -0.654504
vn -0.000600 0.756058 -0.654504
vn 0.000000 1.000000 0.000000
vn 0.000000 1.000000 0.000000
vn 0.000000 1.000000 0.000000
vn 0.000000 1.000000 0.000000
vn 0.747475 0.148128 -0.647564
vn 0.723187 0.100500 -0.683301
vn 0.722367 0.098979 -0.684390
vn 0.722367 0.098979 -0.684390
vn 1.000000 0.000000 0.000000
vn 1.000000 0.000000 0.000000
vn 0.758449 0.645495 -0.089954
vn 0.726597 0.686809 -0.018696
vn 0.716898 0.697178 -0.000922
vn 0.716893 0.697182 -0.000921
vn -1.000000 0.000000 0.000000
vn -1.000000 0.000000 0.000000
vn -1.000000 0.000000 0.000000
vn -1.000000 0.000000 0.000000
vn 0.000000 1.000000 0.000000
vn 0.000000 1.000000 0.000000
vn 0.000000 1.000000 0.000000
vn -0.707108 0.707106 0.000000
vn -0.707108 0.707106 0.000000
vn -0.707108 0.707106 0.000000
vn -0.707108 0.707106 -0.000000
vn 0.000000 1.000000 0.000000
vn 0.000000 1.000000 0.000000
vn 0.000000 1.000000 -0.000000
vn 0.000000 1.000000 0.000000
vn 0.000000 1.000000 0.000000
vn 0.000000 1.000000 0.000000
vn 0.000000 1.000000 0.000000
vn -0.000000 1.000000 0.000000
vn -0.000000 1.000000 0.000000
vn -0.000000 1.000000 0.000000
vn -0.000000 1.000000 0.000000
vn 0.000000 1.000000 0.000000
vn 0.000000 1.000000 0.000000
vn 0.000000 1.000000 0.000000
vn 0.000000 1.000000 0.000000
vn 0.000000 1.000000 0.000000
vn 0.000000 1.000000 0.000000
vn 1.000000 0.000000 0.000000
vn 1.000000 0.000000 0.000000
vn 1.000000 0.000000 0.000000
vn 1.000000 0.000000 0.000000
vn 0.707108 0.707106 0.000000
vn 0.707108 0.707106 0.000000
vn 0.707108 0.707106 0.000000
vn 0.707108 0.707106 0.000000
vn -1.000000 0.000000 0.000000
vn -1.000000 0.000000 0.000000
vn -1.000000 0.000000 0.000000
vn -1.000000 0.000000 0.000000
vn 0.000000 1.000000 -0.000000
vn 0.000000 1.000000 -0.000000
vn 0.000000 1.000000 -0.000000
vn -0.707108 0.707106 -0.000000
vn -0.707108 0.707106 -0.000000
vn -0.707108 0.707106 0.000000
vn -0.707108 0.707106 0.000000
vn 0.000000 1.000000 -0.000000
vn 0.000000 1.000000 0.000000
vn 0.000000 1.000000 0.000000
vn 0.000000 1.000000 -0.000000
vn 0.000000 1.000000 -0.000000
vn 0.000000 1.000000 0.000000
vn 0.000000 1.000000 0.000000
vn -0.000000 1.000000 -0.000000
vn -0.000000 1.000000 -0.000000
vn -0.000000 1.000000 -0.000000
vn -0.000000 1.000000 -0.000000
vn 0.000000 1.000000 -0.000000
vn -0.000000 1.000000 0.000000
vn -0.000000 1.000000 0.000000
vn 0.000000 1.000000 -0.000000
vn 0.000000 1.000000 0.000000
vn -0.000000 1.000000 0.000000
vn 1.000000 0.000000 0.000000
vn 1.000000 0.000000 0.000000
vn 1.000000 0.000000 0.000000
vn 1.000000 0.000000 0.000000
vn 0.707109 0.707105 0.000000
vn 0.707109 0.707105 0.000000
vn 0.707109 0.707104 0.000000
vn 0.707109 0.707104 0.000000
vn -1.000000 0.000000 0.000000
vn -1.000000 0.000000 0.000000
vn -1.000000 0.000000 0.000000
vn -1.000000 0.000000 0.000000
vn 0.000000 1.000000 0.000000
vn 0.000000 1.000000 0.000000
vn 0.000000 1.000000 0.000000
vn -0.707107 0.707106 0.000000
vn -0.707107 0.707106 0.000000
vn -0.707107 0.707106 0.000000
vn -0.707107 0.707106 0.000000
vn 0.000000 1.000000 0.000000
vn 0.000000 1.000000 0.000000
vn 0.000000 1.000000 0.000000
vn 0.000000 1.000000 0.000000
vn -0.000000 1.000000 0.000000
vn -0.000000 1.000000 0.000000
vn 0.000000 1.000000 0.000000
vn 0.000000 1.000000 0.000000
vn 0.000000 1.000000 0.000000
vn 0.000000 1.000000 0.000000
vn 0.000000 1.000000 0.000000
vn 0.000000 1.000000 0.000000
vn -0.000000 1.000000 -0.000000
vn -0.000000 1.000000 -0.000000
vn 0.000000 1.000000 0.000000
vn -0.000000 1.000000 0.000000
vn -0.000000 1.000000 -0.000000
vn 1.000000 0.000000 0.000000
vn 1.000000 0.000000 0.000000
vn 1.000000 0.000000 0.000000
vn 1.000000 0.000000 0.000000
vn 0.707108 0.707105 -0.000000
vn 0.707108 0.707105 -0.000000
vn 0.707108 0.707105 -0.000000
vn 0.707108 0.707105 -0.000000
vn -0.707104 0.000000 -0.707109
vn -0.707104 0.000000 -0.707109
vn -0.707104 0.000000 -0.707109
vn -0.707104 0.000000 -0.707109
vn 0.000000 0.707106 -0.707108
vn 0.000000 0.707106 -0.707108
vn 0.000000 0.707106 -0.707108
vn 0.000000 0.707106 -0.707108
vn 0.000000 0.000000 -1.000000
vn 0.000000 0.000000 -1.000000
vn 0.000000 0.000000 -1.000000
vn 0.000000 0.000000 -1.000000
vn 0.000000 0.707106 -0.707108
vn 0.000000 0.707106 -0.707108
vn 0.000000 0.707106 -0.707108
vn 0.000000 0.707106 -0.707108
vn 0.000000 0.000000 -1.000000
vn 0.000000 0.000000 -1.000000
vn 0.000000 0.000000 -1.000000
vn 0.000000 0.000000 -1.000000
vn -0.000000 0.707104 -0.707110
vn -0.000000 0.707104 -0.707110
vn -0.000000 0.707103 -0.707110
vn 0.000000 0.707103 -0.707110
vn 0.000000 0.000000 -1.000000
vn 0.000000 0.000000 -1.000000
vn 0.000000 0.000000 -1.000000
vn 0.000000 0.000000 -1.000000
vn 0.000000 0.707104 -0.707110
vn 0.000000 0.707103 -0.707110
vn 0.000000 0.707103 -0.707110
vn 0.000000 0.707103 -0.707110
vn 0.000000 0.000000 -1.000000
vn 0.000000 0.000000 -1.000000
vn 0.000000 0.000000 -1.000000
vn 0.000000 0.000000 -1.000000
vn 0.000000 0.707103 -0.707110
vn 0.000000 0.707103 -0.707110
vn 0.000000 0.707103 -0.707110
vn 0.000000 0.707103 -0.707110
vn 0.707105 0.000000 -0.707109
vn 0.707105 0.000000 -0.707109
vn 0.707105 0.000000 -0.707109
vn 0.707105 0.000000 -0.707109
vn -0.707104 0.000000 -0.707110
vn -0.707104 0.000000 -0.707110
vn -0.707104 0.000000 -0.707110
vn -0.707104 0.000000 -0.707110
vn -1.000000 0.000000 0.000000
vn -1.000000 0.000000 0.000000
vn -1.000000 0.000000 0.000000
vn 0.000000 0.000000 -1.000000
vn 0.000000 0.000000 -1.000000
vn 0.000000 0.000000 -1.000000
vn 0.709708 -0.000317 -0.704495
vn 0.709708 -0.000317 -0.704495
vn 0.709708 -0.000317 -0.704495
vn 0.709708 -0.000317 -0.704495
vn 0.093505 -0.647200 -0.756564
vn 0.018885 -0.691923 -0.721724
vn 0.000206 -0.702575 -0.711610
vn 0.000206 -0.702577 -0.711608
vn 0.706351 -0.707862 0.000804
vn 0.706351 -0.707862 0.000804
vn 0.673093 -0.737348 0.057134
vn 0.673742 -0.736835 0.056091
vn 0.000000 -1.000000 -0.000000
vn 0.000000 -1.000000 0.000000
vn 0.000000 -1.000000 0.000000
vn 0.000000 -1.000000 0.000000
vn 0.000000 -0.707102 -0.707111
vn 0.000000 -0.707102 -0.707111
vn 0.000000 -0.707102 -0.707111
vn 0.000000 -0.707102 -0.707111
vn 0.000000 -1.000000 0.000000
vn 0.000000 -1.000000 0.000000
vn 0.000000 -1.000000 0.000000
vn 0.000000 -1.000000 0.000000
vn -0.001522 -0.706365 -0.707846
vn -0.001520 -0.706366 -0.707845
vn -0.022117 -0.694842 -0.718822
vn -0.093263 -0.651300 -0.753067
vn -0.709708 -0.000317 -0.704495
vn -0.709708 -0.000317 -0.704495
vn -0.709708 -0.000317 -0.704495
vn -0.709708 -0.000317 -0.704496
vn -0.702107 -0.712072 -0.000661
vn -0.702107 -0.712072 -0.000661
vn -0.669811 -0.740491 0.055004
vn -0.669441 -0.740781 0.055610
vn 0.000000 0.000000 -1.000000
vn 0.000000 0.000000 -1.000000
vn 0.000000 0.000000 -1.000000
vn 0.707104 0.000000 -0.707110
vn 0.707104 0.000000 -0.707110
vn 0.707104 0.000000 -0.707110
vn 0.707104 0.000000 -0.707110
vn 1.000000 0.000000 0.000000
vn 1.000000 0.000000 0.000000
vn 1.000000 0.000000 0.000000
vn -0.704491 -0.000317 0.709712
vn -0.704491 -0.000317 0.709712
vn -0.704491 -0.000317 0.709713
vn -0.704491 -0.000317 0.709713
vn -0.000662 -0.712073 0.702105
vn -0.000662 -0.712073 0.702105
vn 0.055004 -0.740493 0.669810
vn 0.055610 -0.740783 0.669439
vn -0.718821 -0.694843 0.022117
vn -0.753066 -0.651302 0.093263
vn -0.707845 -0.706367 0.001522
vn -0.707843 -0.706368 0.001520
vn 0.707105 -0.000454 0.707109
vn 0.707105 -0.000454 0.707109
vn 0.707105 -0.000454 0.707109
vn 0.707105 -0.000454 0.707109
vn 0.000000 -1.000000 0.000000
vn 0.000000 -1.000000 0.000000
vn 0.000000 -1.000000 0.000000
vn 0.000000 -1.000000 0.000000
vn 0.000000 -1.000000 -0.000000
vn 0.000000 -1.000000 0.000000
vn 0.000000 -1.000000 0.000000
vn 0.000000 -1.000000 0.000000
vn 0.000000 -1.000000 -0.000000
vn 0.000000 -1.000000 0.000000
vn 0.000000 -1.000000 0.000000
vn 0.000000 -1.000000 0.000000
vn 0.000000 -1.000000 0.000000
vn 0.000000 -1.000000 0.000000
vn 0.000000 -1.000000 0.000000
vn -0.707105 -0.000454 0.707109
vn -0.707105 -0.000454 0.707109
vn -0.707105 -0.000454 0.707109
vn -0.707105 -0.000454 0.707109
vn -0.057134 -0.737348 0.673092
vn -0.056091 -0.736836 0.673741
vn -0.000804 -0.707862 0.706350
vn -0.000804 -0.707862 0.706350
vn 0.000000 -1.000000 -0.000000
vn 0.000000 -1.000000 -0.000000
vn 0.000000 -1.000000 0.000000
vn 0.704491 -0.000317 0.709712
vn 0.704491 -0.000317 0.709712
vn 0.704491 -0.000317 0.709713
vn 0.704491 -0.000317 0.709713
vn 0.756562 -0.647202 0.093505
vn 0.721722 -0.691925 0.018886
vn 0.711608 -0.702577 0.000206
vn 0.711606 -0.702579 0.000206
vn 0.000000 -1.000000 0.000000
vn 0.000000 -1.000000 0.000000
vn 0.000000 -1.000000 0.000000
vn -0.707109 -0.707105 0.000000
vn -0.707109 -0.707105 0.000000
vn -0.707109 -0.707105 0.000000
vn -0.707109 -0.707105 0.000000
vn 0.000000 -1.000000 0.000000
vn 0.000000 -1.000000 0.000000
vn 0.000000 -1.000000 0.000000
vn 0.000000 -1.000000 0.000000
vn 0.000000 -1.000000 0.000000
vn 0.000000 -1.000000 0.000000
vn 0.000000 -1.000000 0.000000
vn 0.000000 -1.000000 0.000000
vn 0.000000 -1.000000 0.000000
vn 0.000000 -1.000000 0.000000
vn 0.000000 -1.000000 0.000000
vn 0.000000 -1.000000 0.000000
vn 0.000000 -1.000000 0.000000
vn 0.000000 -1.000000 0.000000
vn 0.000000 -1.000000 0.000000
vn 0.000000 -1.000000 -0.000000
vn 0.000000 -1.000000 0.000000
vn 0.707109 -0.707105 0.000000
vn 0.707109 -0.707105 0.000000
vn 0.707109 -0.707105 0.000000
vn 0.707109 -0.707105 0.000000
vn 0.000000 -1.000000 0.000000
vn 0.000000 -1.000000 0.000000
vn 0.000000 -1.000000 0.000000
vn -0.711608 -0.702577 -0.000206
vn -0.711606 -0.702579 -0.000206
vn -0.756562 -0.647202 -0.093505
vn -0.721722 -0.691925 -0.018886
vn 0.000000 -1.000000 0.000000
vn 0.000000 -1.000000 -0.000000
vn 0.000000 -1.000000 0.000000
vn 0.000000 -1.000000 0.000000
vn 0.000000 -1.000000 0.000000
vn 0.000000 -1.000000 0.000000
vn 0.000000 -1.000000 -0.000000
vn 0.000000 -1.000000 0.000000
vn 0.000000 -1.000000 0.000000
vn 0.000000 -1.000000 -0.000000
vn 0.000000 -1.000000 0.000000
vn 0.000000 -1.000000 -0.000000
vn 0.000000 -1.000000 -0.000000
vn 0.000000 -1.000000 -0.000000
vn 0.000000 -1.000000 -0.000000
vn 0.000000 -1.000000 0.000000
vn 0.000000 -1.000000 0.000000
vn 0.707845 -0.706367 -0.001522
vn 0.707843 -0.706368 -0.001520
vn 0.718821 -0.694843 -0.022118
vn 0.753066 -0.651302 -0.093263
vn -0.704494 -0.000317 -0.709710
vn -0.704494 -0.000317 -0.709710
vn -0.704494 -0.000317 -0.709710
vn -0.704494 -0.000317 -0.709710
vn 0.000804 -0.707862 -0.706350
vn 0.000804 -0.707862 -0.706350
vn 0.057134 -0.737348 -0.673092
vn 0.056091 -0.736835 -0.673741
vn 0.707107 -0.000454 -0.707106
vn 0.707107 -0.000454 -0.707106
vn 0.707107 -0.000454 -0.707106
vn 0.707107 -0.000454 -0.707106
vn 0.000000 -1.000000 -0.000000
vn 0.000000 -1.000000 -0.000000
vn -0.707107 -0.000454 -0.707106
vn -0.707107 -0.000454 -0.707106
vn -0.707107 -0.000454 -0.707106
vn -0.707107 -0.000454 -0.707106
vn -0.055004 -0.740491 -0.669811
vn -0.055610 -0.740781 -0.669441
vn 0.000662 -0.712071 -0.702107
vn 0.000662 -0.712071 -0.702107
vn 0.704494 -0.000317 -0.709710
vn 0.704494 -0.000317 -0.709710
vn 0.704494 -0.000317 -0.709710
vn 0.704494 -0.000317 -0.709710
vn -0.707103 -0.707111 0.000000
vn -0.707103 -0.707111 0.000000
vn -0.707103 -0.707111 0.000000
vn -0.707103 -0.707111 0.000000
vn 0.000000 -0.707109 -0.707105
vn 0.000000 -0.707109 -0.707105
vn 0.000000 -0.707109 -0.707105
vn 0.000000 -0.707109 -0.707105
vn 0.707103 -0.707111 0.000000
vn 0.707103 -0.707111 0.000000
vn 0.707103 -0.707111 0.000000
vn 0.707103 -0.707111 0.000000
vn 0.000000 -0.707109 0.707105
vn 0.000000 -0.707109 0.707105
vn 0.000000 -0.707109 0.707105
vn 0.000000 -0.707109 0.707105
vn -0.707103 -0.707111 0.000000
vn -0.707103 -0.707111 0.000000
vn -0.707103 -0.707111 0.000000
vn -0.707103 -0.707111 0.000000
vn 0.000000 -0.707109 -0.707105
vn 0.000000 -0.707109 -0.707105
vn 0.000000 -0.707109 -0.707105
vn 0.000000 -0.707109 -0.707105
vn 0.707103 -0.707111 0.000000
vn 0.707103 -0.707111 0.000000
vn 0.707103 -0.707111 0.000000
vn 0.707103 -0.707111 0.000000
vn 0.000000 -0.707109 0.707105
vn 0.000000 -0.707109 0.707105
vn 0.000000 -0.707109 0.707105
vn 0.000000 -0.707109 0.707105
vn -0.707103 -0.707111 0.000000
vn -0.707103 -0.707111 0.000000
vn -0.707103 -0.707111 0.000000
vn -0.707103 -0.707111 0.000000
vn 0.000000 -0.707111 -0.707102
vn 0.000000 -0.707111 -0.707102
vn 0.000000 -0.707111 -0.707102
vn 0.000000 -0.707111 -0.707102
vn 0.707103 -0.707110 0.000000
vn 0.707103 -0.707110 0.000000
vn 0.707103 -0.707110 0.000000
vn 0.707103 -0.707110 0.000000
vn 0.000000 -0.707111 0.707102
vn 0.000000 -0.707111 0.707102
vn 0.000000 -0.707111 0.707102
vn 0.000000 -0.707111 0.707102
vn -0.707103 -0.707110 0.000000
vn -0.707103 -0.707110 0.000000
vn -0.707103 -0.707110 0.000000
vn -0.707103 -0.707110 0.000000
vn 0.000000 -0.707111 -0.707102
vn 0.000000 -0.707111 -0.707102
vn 0.000000 -0.707111 -0.707102
vn 0.000000 -0.707111 -0.707102
vn 0.707103 -0.707111 0.000000
vn 0.707103 -0.707111 0.000000
vn 0.707103 -0.707111 0.000000
vn 0.707103 -0.707111 0.000000
vn 0.000000 -0.707111 0.707102
vn 0.000000 -0.707111 0.707102
vn 0.000000 -0.707111 0.707102
vn 0.000000 -0.707111 0.707102
vn -0.707104 0.707109 0.000000
vn -0.707104 0.707109 0.000000
vn -0.706999 0.707213 -0.001557
vn -0.706215 0.707888 -0.012436
vn 0.004119 0.654581 0.755980
vn 0.004119 0.654581 0.755980
vn 0.003731 0.654582 0.755982
vn 0.003746 0.654582 0.755982
vn 0.000000 0.654589 0.755985
vn 0.000000 0.654589 0.755985
vn 0.000000 0.654589 0.755985
vn 0.000000 0.654589 0.755985
vn 0.000000 1.000000 0.000000
vn 0.000000 1.000000 0.000000
vn 0.000000 1.000000 0.000000
vn 0.000000 1.000000 0.000000
vn 0.000000 0.755990 -0.654583
vn 0.000000 0.755990 -0.654583
vn 0.000000 0.755990 -0.654583
vn 0.000000 0.755990 -0.654583
vn -0.001288 0.764739 -0.644339
vn -0.001288 0.764739 -0.644339
vn -0.001409 0.765556 -0.643368
vn -0.001409 0.765556 -0.643368
vn 0.000000 0.654589 0.755985
vn 0.000000 0.654589 0.755985
vn 0.000000 0.654589 0.755985
vn 0.000000 0.654589 0.755985
vn 0.000000 1.000000 0.000000
vn 0.000000 1.000000 0.000000
vn 0.000000 1.000000 0.000000
vn 0.000000 1.000000 0.000000
vn 0.000000 0.755990 -0.654583
vn 0.000000 0.755990 -0.654583
vn 0.000000 0.755990 -0.654583
vn 0.000000 0.755990 -0.654583
vn 0.000000 0.654586 0.755987
vn 0.000000 0.654586 0.755987
vn 0.000000 0.654587 0.755987
vn 0.000000 0.654587 0.755987
vn 0.000000 1.000000 0.000000
vn 0.000000 1.000000 0.000000
vn 0.000000 1.000000 0.000000
vn 0.000000 1.000000 0.000000
vn 0.000000 0.755990 -0.654583
vn 0.000000 0.755990 -0.654583
vn 0.000000 0.755990 -0.654583
vn 0.000000 0.755990 -0.654583
vn -0.001916 0.639459 0.768823
vn -0.001916 0.639458 0.768823
vn -0.002104 0.637960 0.770066
vn -0.002104 0.637960 0.770066
vn 0.000000 1.000000 0.000000
vn 0.000000 1.000000 0.000000
vn 0.000000 1.000000 0.000000
vn 0.000000 1.000000 0.000000
vn 0.000000 0.755990 -0.654583
vn 0.000000 0.755990 -0.654583
vn 0.000000 0.755990 -0.654583
vn 0.000000 0.755990 -0.654583
vn 0.718716 0.695302 0.001608
vn 0.718716 0.695302 0.001608
vn 0.718716 0.695302 0.001608
vn 0.718716 0.695302 0.001608
vn 0.000000 1.000000 0.000000
vn 0.000000 1.000000 0.000000
vn 0.000000 1.000000 0.000000
vn 0.000000 1.000000 0.000000
vn 0.000000 1.000000 0.000000
vn 0.000000 1.000000 0.000000
vn 0.000000 1.000000 0.000000
vn -0.000000 1.000000 -0.000000
vn 0.000000 0.000000 -1.000000
vn 0.000000 0.000000 -1.000000
vn 0.000000 -1.000000 0.000000
vn 0.000000 -1.000000 0.000000
vn 0.000000 -1.000000 0.000000
vn 0.000000 -1.000000 0.000000
vn 0.000000 -1.000000 -0.000000
vn 0.000000 -1.000000 0.000000
vn 0.000000 -1.000000 0.000000
vn 0.000000 -1.000000 0.000000
vn 0.000000 -1.000000 0.000000
vn 0.000000 -1.000000 0.000000
vn 0.000000 -1.000000 0.000000
vn 0.000000 -1.000000 -0.000000
vn 0.000000 -1.000000 0.000000
vn 0.000000 -1.000000 0.000000
vn 0.000000 -1.000000 0.000000
vn 0.000000 -1.000000 0.000000
vn 0.000000 -1.000000 0.000000
vn 0.000000 -1.000000 0.000000
vn 0.000000 -1.000000 -0.000000
vn 0.000000 -1.000000 0.000000
vn 0.000000 -1.000000 0.000000
vn 0.000000 -1.000000 0.000000
vn 0.000000 -1.000000 0.000000
vn 0.000000 -1.000000 0.000000
vn 1.000000 0.000000 0.000000
vn -1.000000 0.000000 0.000000
vn 0.000000 0.000000 -1.000000
vn 0.000000 0.000000 -1.000000
vn 1.000000 0.000000 0.000000
vn 1.000000 0.000000 0.000000
vn 1.000000 0.000000 0.000000
vn 1.000000 0.000000 0.000000
vn 0.000000 0.000000 1.000000
vn 0.000000 0.000000 1.000000
vn 0.000000 0.000000 1.000000
vn 0.000000 0.000000 1.000000
vn -1.000000 0.000000 0.000000
vn -1.000000 0.000000 0.000000
vn 0.000000 0.000000 -1.000000
vn 0.000000 0.000000 -1.000000
vn 1.000000 0.000000 0.000000
vn 1.000000 0.000000 0.000000
vn 0.000000 0.000000 1.000000
vn 0.000000 0.000000 1.000000
vn 0.000000 0.000000 1.000000
vn 0.000000 0.000000 1.000000
vn -1.000000 -0.000000 0.000000
vn -1.000000 -0.000000 0.000000
vn -1.000000 -0.000000 0.000000
vn -1.000000 -0.000000 0.000000
vn 0.000000 0.000000 -1.000000
vn 0.000000 0.000000 -1.000000
vn 0.000000 0.000000 -1.000000
vn 0.000000 0.000000 -1.000000
vn 1.000000 -0.000000 0.000000
vn 1.000000 -0.000000 0.000000
vn 1.000000 -0.000000 0.000000
vn 1.000000 -0.000000 0.000000
vn 0.000000 0.000000 1.000000
vn 0.000000 0.000000 1.000000
vn -1.000000 0.000000 0.000000
vn -1.000000 0.000000 0.000000
vn 0.000000 0.000000 -1.000000
vn 0.000000 0.000000 -1.000000
vn 0.000000 0.000000 -1.000000
vn 0.000000 0.000000 -1.000000
vn 1.000000 0.000000 0.000000
vn 1.000000 0.000000 0.000000
vn 0.000000 0.000000 1.000000
vn 0.000000 0.000000 1.000000
vn -1.000000 -0.000000 0.000000
vn -1.000000 -0.000000 0.000000
vn -1.000000 -0.000000 0.000000
vn -1.000000 -0.000000 0.000000
vn 0.000000 -0.143035 0.989718
vn 0.000000 0.143035 -0.989718
vn 0.000000 0.143035 -0.989718
vn -1.000000 0.000000 0.000000
vn -1.000000 0.000000 0.000000
vn -0.000000 -0.143035 0.989718
vn 1.000000 0.000000 0.000000
vn 1.000000 0.000000 0.000000
vn 0.000000 0.143035 -0.989718
vn 0.000000 0.143035 -0.989718
vn 0.395503 -0.396318 0.828558
vn 0.395503 -0.396318 0.828558
vn 0.395503 -0.396318 0.828558
vn -0.397411 -0.395561 0.828008
vn -0.397411 -0.395561 0.828008
vn -0.397411 -0.395561 0.828008
vn -0.826247 0.416951 -0.378771
vn 0.825796 0.415921 -0.380881
vn -0.577351 0.577349 -0.577351
vn -0.577351 0.577349 -0.577351
vn -0.577351 0.577349 -0.577351
vn 0.577349 0.577348 -0.577354
vn 0.577349 0.577348 -0.577354
vn 0.577349 0.577348 -0.577354
vn 0.397411 -0.395561 -0.828008
vn 0.397411 -0.395561 -0.828008
vn 0.397411 -0.395561 -0.828008
vn -0.395503 -0.396319 -0.828558
vn -0.395503 -0.396319 -0.828558
vn -0.395503 -0.396319 -0.828558
vn -0.828558 -0.396320 0.395504
vn -0.828558 -0.396320 0.395504
vn -0.828558 -0.396320 0.395504
vn 0.393969 -0.831282 0.392120
vn -0.392121 -0.831282 0.393968
vn 0.828008 -0.395560 0.397411
vn 0.828008 -0.395560 0.397411
vn 0.828008 -0.395560 0.397411
vn -0.828008 -0.395560 -0.397411
vn -0.828008 -0.395560 -0.397411
vn -0.828008 -0.395560 -0.397411
vn 0.392121 -0.831282 -0.393968
vn -0.393969 -0.831282 -0.392120
vn 0.828558 -0.396319 -0.395503
vn 0.828558 -0.396319 -0.395503
vn 0.828558 -0.396319 -0.395503
vn -0.577344 -0.577353 -0.577354
vn -0.577344 -0.577353 -0.577354
vn -0.577344 -0.577353 -0.577354
vn 0.577344 -0.577353 -0.577354
vn 0.577344 -0.577353 -0.577354
vn 0.577344 -0.577353 -0.577354
vn 0.577346 -0.577352 0.577353
vn 0.577346 -0.577352 0.577353
vn 0.577346 -0.577352 0.577353
vn -0.577346 -0.577352 0.577353
vn -0.577346 -0.577352 0.577353
vn -0.577346 -0.577352 0.577353
vn -0.577344 -0.577353 -0.577354
vn -0.577344 -0.577353 -0.577354
vn -0.577344 -0.577353 -0.577354
vn 0.577344 -0.577353 -0.577354
vn 0.577344 -0.577353 -0.577354
vn 0.577344 -0.577353 -0.577354
vn 0.577346 -0.577352 0.577353
vn 0.577346 -0.577352 0.577353
vn 0.577346 -0.577352 0.577353
vn -0.577346 -0.577352 0.577353
vn -0.577346 -0.577352 0.577353
vn -0.577346 -0.577352 0.577353
vn -0.577349 -0.577351 -0.577351
vn -0.577349 -0.577351 -0.577351
vn -0.577349 -0.577351 -0.577351
vn 0.577348 -0.577353 -0.577350
vn 0.577348 -0.577353 -0.577350
vn 0.577348 -0.577353 -0.577350
vn 0.577346 -0.577354 0.577351
vn 0.577346 -0.577354 0.577351
vn 0.577346 -0.577354 0.577351
vn -0.577347 -0.577352 0.577352
vn -0.577347 -0.577352 0.577352
vn -0.577347 -0.577352 0.577352
vn -0.577348 -0.577353 -0.577350
vn -0.577348 -0.577353 -0.577350
vn -0.577348 -0.577353 -0.577350
vn 0.577349 -0.577351 -0.577351
vn 0.577349 -0.577351 -0.577351
vn 0.577349 -0.577351 -0.577351
vn 0.577347 -0.577352 0.577352
vn 0.577347 -0.577352 0.577352
vn 0.577347 -0.577352 0.577352
vn -0.577346 -0.577354 0.577351
vn -0.577346 -0.577354 0.577351
vn -0.577346 -0.577354 0.577351
vn -0.610936 0.518222 0.598501
vn -0.610936 0.518222 0.598501
vn -0.610936 0.518222 0.598501
vn -0.580334 0.646721 -0.494939
vn 0.580162 0.477999 0.659492
vn 0.580162 0.477999 0.659492
vn 0.580162 0.477999 0.659492
vn 0.604895 0.601997 -0.521249
vn 0.604895 0.601997 -0.521249
vn 0.604895 0.601997 -0.521249
s 1
g pCube4
usemtl initialShadingGroup
f 1/1/1 4/423/2 336/476/3 335/471/4
s 2
f 2/5/5 1/424/6 9/422/7 8/7/8
s 1
f 3/8/9 2/5/10 29/9/11 28/10/12
s 3
f 4/2/13 3/8/14 274/11/15 273/400/16
s off
f 5/13/17 9/6/18 333/14/19 332/473/20
s 4
f 6/16/21 5/421/22 282/398/23 281/18/24
s 5
f 7/19/25 6/16/26 13/20/27 12/21/28
s 2
f 8/7/8 7/19/29 33/22/30 32/23/31
s 7
f 10/24/32 13/20/33 283/25/34 286/26/35
s 5
f 11/27/36 10/24/37 17/28/38 16/29/39
s 2
f 12/21/40 11/27/41 37/30/42 36/31/43
s 7
f 14/32/44 17/28/45 287/33/46 290/34/47
s 5
f 15/35/48 14/32/49 21/36/50 20/37/51
s 2
f 16/29/52 15/35/53 41/38/54 40/39/55
s off
f 18/40/56 22/419/57 348/484/58 347/479/59
s 2
f 19/44/60 18/420/61 26/418/62 25/46/63
f 20/37/64 19/44/60 45/47/65 44/48/66
s 11
f 22/41/67 21/36/68 292/49/69 291/396/70
s 12
f 23/51/71 26/45/72 345/52/73 344/481/74
s 13
f 24/54/75 23/417/76 300/394/77 299/56/78
s 12
f 25/46/79 24/54/80 49/57/81 48/58/82
s 1
f 27/469/83 30/447/84 350/61/85 349/62/86
s 3
f 28/10/87 27/448/88 55/436/89 54/64/90
s 2
f 30/60/91 29/9/92 32/23/31 31/446/93
f 31/65/93 34/445/94 355/67/95 354/68/96
f 34/66/94 33/22/30 36/31/43 35/444/97
f 35/69/97 38/443/98 366/71/99 365/72/100
f 38/70/98 37/30/42 40/39/55 39/442/101
f 39/73/101 42/441/102 374/75/103 373/76/104
f 42/74/102 41/38/54 44/48/66 43/440/105
f 43/77/105 46/439/106 382/79/107 381/80/108
f 46/78/106 45/47/65 48/58/109 47/438/110
s 12
f 47/81/111 50/437/112 389/83/113 388/84/114
s 13
f 50/82/115 49/57/116 73/85/117 72/425/118
s 15
f 51/87/119 55/467/120 362/88/121 361/89/122
s 16
f 52/90/123 51/464/124 59/434/125 58/92/126
s 15
f 53/93/127 52/463/128 78/460/129 77/95/130
s 3
f 54/64/90 53/93/131 275/96/132 274/11/15
s 18
f 56/97/133 59/91/134 357/98/135 356/99/136
s 16
f 57/100/137 56/433/138 63/432/139 62/102/140
s 19
f 58/92/141 57/100/142 83/103/143 82/104/144
s 18
f 60/105/145 63/101/146 368/106/147 367/107/148
s 16
f 61/108/149 60/431/150 67/430/151 66/110/152
s 19
f 62/102/153 61/108/154 87/111/155 86/112/156
s 18
f 64/113/157 67/109/158 376/114/159 375/115/160
s 16
f 65/116/161 64/429/162 71/428/163 70/118/164
s 19
f 66/110/165 65/116/166 91/119/167 90/120/168
s 18
f 68/121/169 71/117/170 384/122/171 383/123/172
s 16
f 69/124/173 68/427/174 76/426/175 75/461/176
s 19
f 70/118/177 69/124/178 95/127/179 94/128/180
s 23
f 72/86/181 76/466/182 392/129/183 391/130/184
s 13
f 74/131/185 73/85/117 299/56/78 298/132/186
s 23
f 75/126/187 74/131/188 100/133/189 99/134/190
s 3
f 77/95/191 80/135/192 249/136/193 252/137/194
s 19
f 79/138/195 78/94/196 82/104/144 81/139/197
s 15
f 80/135/198 79/459/199 102/456/200 101/141/201
s 19
f 81/139/197 84/142/202 107/143/203 106/144/204
f 84/142/202 83/103/143 86/112/156 85/145/205
f 85/145/205 88/146/206 111/147/207 110/148/208
f 88/146/206 87/111/155 90/120/168 89/149/209
f 89/149/209 92/150/210 115/151/211 114/152/212
f 92/150/210 91/119/167 94/128/180 93/153/213
f 93/153/213 96/154/214 119/155/215 118/156/216
f 96/154/214 95/127/179 99/458/217 98/457/218
s 13
f 97/158/219 100/133/220 269/159/221 272/160/222
s 23
f 98/157/223 97/158/224 124/161/225 123/162/226
s 3
f 101/141/227 104/163/228 225/164/229 228/165/230
s 19
f 103/166/231 102/140/232 106/144/204 105/167/233
s 15
f 104/163/234 103/455/235 126/452/236 125/169/237
s 19
f 105/167/233 108/170/238 131/171/239 130/172/240
f 108/170/238 107/143/203 110/148/208 109/173/241
f 109/173/241 112/174/242 135/175/243 134/176/244
f 112/174/242 111/147/207 114/152/212 113/177/245
f 113/177/245 116/178/246 139/179/247 138/180/248
f 116/178/246 115/151/211 118/156/216 117/181/249
f 117/181/249 120/182/250 143/183/251 142/184/252
f 120/182/250 119/155/215 123/454/253 122/453/254
s 13
f 121/186/255 124/161/256 245/187/257 248/188/258
s 23
f 122/185/259 121/186/260 148/189/261 147/190/262
s 3
f 125/169/263 128/191/264 200/192/265 199/193/266
s 19
f 127/194/267 126/168/268 130/172/240 129/195/269
s 15
f 128/191/270 127/451/271 150/465/272 149/197/273
s 19
f 129/195/269 132/198/274 154/199/275 153/200/276
f 132/198/274 131/171/239 134/176/244 133/201/277
f 133/201/277 136/202/278 158/203/279 157/204/280
f 136/202/278 135/175/243 138/180/248 137/205/281
f 137/205/281 140/206/282 162/207/283 161/208/284
f 140/206/282 139/179/247 142/184/252 141/209/285
f 141/209/285 144/210/286 166/211/287 165/212/288
f 144/210/286 143/183/251 147/450/289 146/449/290
s 13
f 145/214/291 148/189/292 222/215/293 221/216/294
s 23
f 146/213/295 145/214/296 170/217/297 169/218/298
s 27
f 149/197/299 151/219/300 173/220/301 172/221/302
s 28
f 151/219/303 150/196/304 153/200/305 152/222/306
s 29
f 152/222/307 155/223/308 177/224/309 176/225/310
s 28
f 155/223/311 154/199/312 157/204/313 156/226/314
s 29
f 156/226/315 159/227/316 182/228/317 181/229/318
s 28
f 159/227/319 158/203/320 161/208/321 160/230/322
s 29
f 160/230/323 163/231/324 186/232/325 185/233/326
s 28
f 163/231/327 162/207/328 165/212/329 164/234/330
s 29
f 164/234/331 167/235/332 191/236/333 190/237/334
s 28
f 167/235/335 166/211/336 169/218/337 168/238/338
s 33
f 168/238/339 170/217/340 195/239/341 194/240/342
s 27
f 171/241/343 174/415/344 302/243/345 301/244/346
s 3
f 172/221/347 171/416/348 201/408/349 200/192/265
s 29
f 174/242/350 173/220/351 176/225/310 175/414/352
s off
f 175/246/353 179/413/354 306/248/355 305/491/356
s 35
f 178/250/357 177/224/358 181/229/359 180/251/360
s 36
f 179/247/361 178/250/362 203/252/363 202/405/364
s 7
f 180/251/365 183/254/366 209/255/367 208/256/368
s 35
f 183/254/369 182/228/370 185/233/371 184/257/372
s 7
f 184/257/373 187/258/374 213/259/375 212/260/376
s 35
f 187/258/377 186/232/378 190/237/379 189/261/380
s off
f 188/262/381 192/411/382 314/264/383 313/265/384
s 39
f 189/261/385 188/412/386 219/404/387 218/267/388
s 29
f 192/263/389 191/236/333 194/240/390 193/410/391
s 33
f 193/268/392 196/409/393 318/270/394 317/499/395
s 13
f 196/269/396 195/239/397 221/216/294 220/401/398
s off
f 197/273/399 201/493/400 312/492/401 311/487/402
s 36
f 198/276/403 197/407/404 206/406/405 205/278/406
s 40
f 199/193/407 198/276/408 226/279/409 225/164/410
s off
f 202/253/411 206/277/412 309/280/413 308/489/414
s 7
f 204/282/415 203/252/416 208/256/368 207/283/417
f 205/278/418 204/282/415 231/284/419 230/285/420
f 207/283/417 210/286/421 235/287/422 234/288/423
f 210/286/421 209/255/367 212/260/376 211/289/424
f 211/289/424 214/290/425 239/291/426 238/292/427
f 214/290/425 213/259/375 218/267/428 217/293/429
s off
f 215/294/430 219/501/431 324/500/432 323/495/433
s 39
f 216/297/434 215/403/435 224/402/436 223/299/437
s 7
f 217/293/429 216/297/438 243/300/439 242/301/440
s off
f 220/272/441 224/298/442 321/302/443 320/497/444
s 42
f 223/299/445 222/215/446 248/188/447 247/304/448
s 7
f 227/305/449 226/279/450 230/285/420 229/306/451
s 40
f 228/165/452 227/305/453 250/307/454 249/136/455
s 7
f 229/306/451 232/308/456 255/309/457 254/310/458
f 232/308/456 231/284/419 234/288/423 233/311/459
f 233/311/459 236/312/460 259/313/461 258/314/462
f 236/312/460 235/287/422 238/292/427 237/315/463
f 237/315/463 240/316/464 263/317/465 262/318/466
f 240/316/464 239/291/426 242/301/440 241/319/467
f 241/319/467 244/320/468 267/321/469 266/322/470
f 244/320/468 243/300/439 247/304/471 246/323/472
s 42
f 246/323/473 245/187/474 272/160/475 271/324/476
s 7
f 251/325/477 250/307/478 254/310/458 253/326/479
s 40
f 252/137/480 251/325/481 276/327/482 275/96/483
s 7
f 253/326/479 256/328/484 280/329/485 279/330/486
f 256/328/484 255/309/457 258/314/462 257/331/487
f 257/331/487 260/332/488 285/333/489 284/334/490
f 260/332/488 259/313/461 262/318/466 261/335/491
f 261/335/491 264/336/492 289/337/493 288/338/494
f 264/336/492 263/317/465 266/322/470 265/339/495
f 265/339/495 268/340/496 294/341/497 293/342/498
f 268/340/496 267/321/469 271/324/499 270/343/500
s 42
f 270/343/501 269/159/502 298/132/503 297/344/504
s off
f 273/12/505 277/399/506 326/346/507 325/347/508
s 4
f 277/345/509 276/327/510 279/330/511 278/397/512
s off
f 278/348/513 282/17/514 330/349/515 329/475/516
s 7
f 281/18/517 280/329/485 284/334/490 283/25/34
f 286/26/35 285/333/489 288/338/494 287/33/46
f 290/34/47 289/337/493 293/342/498 292/49/518
s off
f 291/50/519 295/395/520 338/352/521 337/353/522
s 11
f 295/351/523 294/341/524 297/344/525 296/393/526
s off
f 296/354/527 300/55/528 342/355/529 341/483/530
f 301/244/531 303/357/532 310/358/533 312/274/534
f 303/357/535 302/490/536 305/249/537 304/359/538
f 304/359/539 306/488/540 308/281/541 307/360/542
f 307/360/543 309/486/544 311/275/545 310/358/546
f 313/265/547 315/361/548 322/362/549 324/295/550
f 315/361/551 314/498/552 317/271/553 316/363/554
f 316/363/555 318/496/556 320/303/557 319/364/558
f 319/364/559 321/494/560 323/296/561 322/362/562
f 325/347/563 327/365/564 334/366/565 336/3/566
f 327/365/567 326/474/568 329/350/569 328/367/570
f 328/367/571 330/472/572 332/15/573 331/368/574
f 331/368/575 333/470/576 335/4/577 334/366/578
f 337/353/579 339/369/580 346/370/581 348/42/582
f 339/369/583 338/482/584 341/356/585 340/371/586
f 340/371/587 342/480/588 344/53/589 343/372/590
f 343/372/591 345/478/592 347/43/593 346/370/594
s 43
f 349/62/595 351/373/596 360/374/597 362/88/598
s 44
f 351/373/599 350/61/600 354/68/601 353/375/602
f 352/376/603 355/67/604 365/72/605 364/377/606
s 45
f 353/375/607 352/376/608 359/378/609 358/379/610
s 46
f 356/99/611 359/378/612 369/380/613 368/106/614
f 358/379/615 357/98/616 361/89/617 360/374/618
s 44
f 363/381/619 366/71/620 373/76/621 372/382/622
s 45
f 364/377/623 363/381/624 370/383/625 369/380/626
s 46
f 367/107/627 370/383/628 377/384/629 376/114/630
s 44
f 371/385/631 374/75/632 381/80/633 380/386/634
s 45
f 372/382/635 371/385/636 378/387/637 377/384/638
s 46
f 375/115/639 378/387/640 385/388/641 384/122/642
s 44
f 379/389/643 382/79/644 388/84/645 387/390/646
s 45
f 380/386/647 379/389/648 386/391/649 385/388/650
s 46
f 383/123/651 386/391/652 390/392/653 392/129/654
s off
f 387/390/655 389/83/656 391/130/657 390/392/658
s 2
f 2/5/5 8/7/8 32/23/31 29/9/92
f 7/19/29 12/21/40 36/31/43 33/22/30
f 11/27/41 16/29/52 40/39/55 37/30/42
f 15/35/53 20/37/64 44/48/66 41/38/54
f 19/44/60 25/46/63 48/58/109 45/47/65
s 45
f 351/373/659 353/375/607 358/379/610 360/374/660
f 352/376/608 364/377/623 369/380/626 359/378/609
f 363/381/624 372/382/635 377/384/638 370/383/625
f 371/385/636 380/386/647 385/388/650 378/387/637
f 379/389/648 387/390/661 390/392/662 386/391/649
s 19
f 52/90/663 58/92/141 82/104/144 78/94/196
f 57/100/142 62/102/153 86/112/156 83/103/143
f 61/108/154 66/110/165 90/120/168 87/111/155
f 65/116/166 70/118/177 94/128/180 91/119/167
f 69/124/178 75/461/664 99/458/217 95/127/179
f 79/138/195 81/139/197 106/144/204 102/140/232
f 84/142/202 85/145/205 110/148/208 107/143/203
f 88/146/206 89/149/209 114/152/212 111/147/207
f 92/150/210 93/153/213 118/156/216 115/151/211
f 96/154/214 98/457/218 123/454/253 119/155/215
f 103/166/231 105/167/233 130/172/240 126/168/268
f 108/170/238 109/173/241 134/176/244 131/171/239
f 112/174/242 113/177/245 138/180/248 135/175/243
f 116/178/246 117/181/249 142/184/252 139/179/247
f 120/182/250 122/453/254 147/450/289 143/183/251
f 127/194/267 129/195/269 153/200/276 150/196/665
f 132/198/274 133/201/277 157/204/280 154/199/275
f 136/202/278 137/205/281 161/208/284 158/203/279
f 140/206/282 141/209/285 165/212/288 162/207/283
f 144/210/286 146/449/290 169/218/666 166/211/287
s 29
f 151/219/667 152/222/307 176/225/310 173/220/351
f 155/223/308 156/226/315 181/229/318 177/224/309
f 159/227/316 160/230/323 185/233/326 182/228/317
f 163/231/324 164/234/331 190/237/334 186/232/325
f 167/235/332 168/238/668 194/240/390 191/236/333
s off
f 303/357/669 304/359/670 307/360/671 310/358/672
s 7
f 178/250/673 180/251/365 208/256/368 203/252/416
f 183/254/366 184/257/373 212/260/376 209/255/367
f 187/258/374 189/261/674 218/267/428 213/259/375
s off
f 315/361/675 316/363/676 319/364/677 322/362/678
s 7
f 198/276/679 205/278/418 230/285/420 226/279/450
f 204/282/415 207/283/417 234/288/423 231/284/419
f 210/286/421 211/289/424 238/292/427 235/287/422
f 214/290/425 217/293/429 242/301/440 239/291/426
f 216/297/438 223/299/680 247/304/471 243/300/439
f 227/305/449 229/306/451 254/310/458 250/307/478
f 232/308/456 233/311/459 258/314/462 255/309/457
f 236/312/460 237/315/463 262/318/466 259/313/461
f 240/316/464 241/319/467 266/322/470 263/317/465
f 244/320/468 246/323/472 271/324/499 267/321/469
f 251/325/477 253/326/479 279/330/486 276/327/681
f 256/328/484 257/331/487 284/334/490 280/329/485
f 260/332/488 261/335/491 288/338/494 285/333/489
f 264/336/492 265/339/495 293/342/498 289/337/493
f 268/340/496 270/343/500 297/344/682 294/341/497
s off
f 327/365/683 328/367/684 331/368/685 334/366/686
s 7
f 281/18/517 283/25/34 13/20/33 6/16/687
f 286/26/35 287/33/46 17/28/45 10/24/32
f 290/34/47 292/49/518 21/36/688 14/32/44
s off
f 339/369/689 340/371/690 343/372/691 346/370/692
s 13
f 221/216/294 195/239/397 170/217/693 145/214/291
f 248/188/258 222/215/293 148/189/292 121/186/255
f 272/160/222 245/187/257 124/161/256 97/158/219
f 298/132/186 269/159/221 100/133/220 74/131/185
f 24/54/75 299/56/78 73/85/117 49/57/116
s 3
f 172/221/347 200/192/265 128/191/264 149/197/694
f 199/193/266 225/164/229 104/163/228 125/169/263
f 228/165/230 249/136/193 80/135/192 101/141/227
f 252/137/194 275/96/132 53/93/131 77/95/191
f 274/11/15 3/8/14 28/10/87 54/64/90
s 29
f 174/415/350 175/246/352 305/491/695 302/243/696
s off
f 179/413/697 202/253/698 308/489/699 306/248/700
f 206/277/701 197/273/702 311/487/703 309/280/704
s 3
f 201/245/349 171/241/348 301/244/705 312/274/706
s 29
f 192/411/389 193/268/391 317/499/707 314/264/708
s 13
f 196/409/396 220/272/398 320/497/709 318/270/710
s off
f 224/298/711 215/294/712 323/495/713 321/302/714
f 219/266/715 188/262/716 313/265/717 324/295/718
f 277/399/719 278/348/720 329/475/721 326/346/722
f 282/17/723 5/13/724 332/473/725 330/349/726
s 2
f 9/6/7 1/1/6 335/471/727 333/14/728
s 3
f 4/477/13 273/12/16 325/347/729 336/3/730
s off
f 295/395/731 296/354/732 341/483/733 338/352/734
s 13
f 300/55/77 23/51/76 344/481/735 342/355/736
s 2
f 26/45/62 18/40/61 347/479/737 345/52/738
s off
f 22/485/739 291/50/740 337/353/741 348/42/742
s 2
f 30/447/91 31/65/93 354/68/96 350/61/743
s 18
f 59/91/134 51/87/744 361/89/745 357/98/135
s 3
f 55/63/89 27/59/88 349/62/746 362/88/747
s 2
f 34/445/94 35/69/97 365/72/100 355/67/95
s 18
f 63/101/146 56/97/133 356/99/136 368/106/147
s 2
f 38/443/98 39/73/101 373/76/104 366/71/99
s 18
f 67/109/158 60/105/145 367/107/148 376/114/159
s 2
f 42/441/102 43/77/105 381/80/108 374/75/103
s 18
f 71/117/170 64/113/157 375/115/160 384/122/171
s 2
f 46/439/106 47/81/110 388/84/748 382/79/107
s 13
f 50/468/115 72/86/118 391/130/749 389/83/750
s 18
f 76/125/751 68/121/169 383/123/172 392/129/752
s 1
f 1/424/1 2/5/10 3/8/9 4/2/2
s 5
f 5/421/753 6/16/26 7/19/25 8/7/754 9/422/755
f 10/24/37 11/27/36 12/21/28 13/20/27
f 14/32/49 15/35/48 16/29/39 17/28/38
f 18/420/756 19/44/757 20/37/51 21/36/50 22/41/758
s 12
f 23/417/71 24/54/80 25/46/79 26/418/72
s 1
f 27/448/83 28/10/12 29/9/11 30/60/84
s 2
f 31/446/93 32/23/31 33/22/30 34/66/94
f 35/444/97 36/31/43 37/30/42 38/70/98
f 39/442/101 40/39/55 41/38/54 42/74/102
f 43/440/105 44/48/66 45/47/65 46/78/106
s 12
f 47/438/111 48/58/82 49/57/81 50/82/112
s 15
f 51/435/119 52/463/128 53/93/127 54/64/759 55/436/120
s 16
f 56/433/138 57/100/137 58/92/126 59/434/125
f 60/431/150 61/108/149 62/102/140 63/432/139
f 64/429/162 65/116/161 66/110/152 67/430/151
f 68/427/174 69/124/173 70/118/164 71/428/163
s 23
f 72/425/181 73/85/760 74/131/188 75/126/187 76/462/182
s 15
f 77/95/130 78/460/129 79/459/199 80/135/198
s 19
f 81/139/197 82/104/144 83/103/143 84/142/202
f 85/145/205 86/112/156 87/111/155 88/146/206
f 89/149/209 90/120/168 91/119/167 92/150/210
f 93/153/213 94/128/180 95/127/179 96/154/214
s 23
f 97/158/224 98/157/223 99/134/190 100/133/189
s 15
f 101/141/201 102/456/200 103/455/235 104/163/234
s 19
f 105/167/233 106/144/204 107/143/203 108/170/238
f 109/173/241 110/148/208 111/147/207 112/174/242
f 113/177/245 114/152/212 115/151/211 116/178/246
f 117/181/249 118/156/216 119/155/215 120/182/250
s 23
f 121/186/260 122/185/259 123/162/226 124/161/225
s 15
f 125/169/237 126/452/236 127/451/271 128/191/270
s 19
f 129/195/269 130/172/240 131/171/239 132/198/274
f 133/201/277 134/176/244 135/175/243 136/202/278
f 137/205/281 138/180/248 139/179/247 140/206/282
f 141/209/285 142/184/252 143/183/251 144/210/286
s 23
f 145/214/296 146/213/295 147/190/262 148/189/261
s off
f 149/197/761 150/465/762 151/219/763
s 28
f 152/222/306 153/200/305 154/199/312 155/223/311
f 156/226/314 157/204/313 158/203/320 159/227/319
f 160/230/322 161/208/321 162/207/328 163/231/327
f 164/234/330 165/212/329 166/211/336 167/235/335
s off
f 168/238/764 169/218/765 170/217/766
s 27
f 171/416/343 172/221/302 173/220/301 174/242/344
s 35
f 175/414/767 176/225/768 177/224/358 178/250/357 179/247/769
f 180/251/360 181/229/359 182/228/370 183/254/369
f 184/257/372 185/233/371 186/232/378 187/258/377
f 188/412/770 189/261/380 190/237/379 191/236/771 192/263/772
s 33
f 193/410/392 194/240/342 195/239/341 196/269/393
s 40
f 197/407/773 198/276/408 199/193/407 200/192/774 201/408/775
s 36
f 202/405/364 203/252/363 204/282/776 205/278/406 206/406/405
s 7
f 207/283/417 208/256/368 209/255/367 210/286/421
f 211/289/424 212/260/376 213/259/375 214/290/425
s 39
f 215/403/435 216/297/434 217/293/777 218/267/388 219/404/387
s 42
f 220/401/778 221/216/779 222/215/446 223/299/445 224/402/780
s 40
f 225/164/410 226/279/409 227/305/453 228/165/452
s 7
f 229/306/451 230/285/420 231/284/419 232/308/456
f 233/311/459 234/288/423 235/287/422 236/312/460
f 237/315/463 238/292/427 239/291/426 240/316/464
f 241/319/467 242/301/440 243/300/439 244/320/468
s 42
f 245/187/474 246/323/473 247/304/448 248/188/447
s 40
f 249/136/455 250/307/454 251/325/481 252/137/480
s 7
f 253/326/479 254/310/458 255/309/457 256/328/484
f 257/331/487 258/314/462 259/313/461 260/332/488
f 261/335/491 262/318/466 263/317/465 264/336/492
f 265/339/495 266/322/470 267/321/469 268/340/496
s 42
f 269/159/502 270/343/501 271/324/476 272/160/475
s 40
f 273/400/781 274/11/782 275/96/483 276/327/482 277/345/783
s 4
f 278/397/512 279/330/511 280/329/784 281/18/24 282/398/23
s 7
f 283/25/34 284/334/490 285/333/489 286/26/35
f 287/33/46 288/338/494 289/337/493 290/34/47
s 11
f 291/396/70 292/49/69 293/342/785 294/341/524 295/351/523
s 42
f 296/393/786 297/344/504 298/132/503 299/56/787 300/394/788
s off
f 301/244/789 302/490/790 303/357/791
f 304/359/792 305/249/793 306/488/794
f 307/360/795 308/281/796 309/486/797
f 310/358/798 311/275/799 312/274/800
f 313/265/801 314/498/802 315/361/803
f 316/363/804 317/271/805 318/496/806
f 319/364/807 320/303/808 321/494/809
f 322/362/810 323/296/811 324/295/812
f 325/347/813 326/474/814 327/365/815
f 328/367/816 329/350/817 330/472/818
f 331/368/819 332/15/820 333/470/821
f 334/366/822 335/4/823 336/3/824
f 337/353/825 338/482/826 339/369/827
f 340/371/828 341/356/829 342/480/830
f 343/372/831 344/53/832 345/478/833
f 346/370/834 347/43/835 348/42/836
f 349/62/837 350/61/838 351/373/839
s 44
f 352/376/603 353/375/602 354/68/601 355/67/604
s 46
f 356/99/611 357/98/616 358/379/615 359/378/612
s 43
f 360/374/597 361/89/840 362/88/598
s 44
f 363/381/619 364/377/606 365/72/605 366/71/620
s 46
f 367/107/627 368/106/614 369/380/613 370/383/628
s 44
f 371/385/631 372/382/622 373/76/621 374/75/632
s 46
f 375/115/639 376/114/630 377/384/629 378/387/640
s 44
f 379/389/643 380/386/634 381/80/633 382/79/644
s 46
f 383/123/651 384/122/642 385/388/641 386/391/652
s off
f 387/390/841 388/84/842 389/83/843
f 390/392/844 391/130/845 392/129/846
