# This file uses centimeters as units for non-parametric coordinates.

mtllib HospitalRoof.mtl
g default
v 11.357352 9.526370 6.242208
v 11.357352 9.350639 6.242208
v 25.253093 9.526370 6.242208
v 25.253093 9.350639 6.242208
v 25.253093 9.526370 -14.795772
v 25.253093 9.350639 -14.795772
v 11.357352 9.526370 -14.795772
v 11.357352 9.350639 -14.795772
vt 0.309076 0.022314
vt 0.311535 0.022501
vt 0.294338 0.216726
vt 0.296796 0.216913
vt 0.272023 0.511064
vt 0.274482 0.511250
vt 0.257285 0.705476
vt 0.259743 0.705662
vt 0.234970 0.999814
vt 0.237429 1.000000
vt 0.605872 0.044815
vt 0.591134 0.239227
vt 0.014739 -0.000000
vt 0.000000 0.194412
vn 0.000000 0.000000 1.000000
vn 0.000000 0.000000 1.000000
vn 0.000000 0.000000 1.000000
vn 0.000000 0.000000 1.000000
vn 1.000000 0.000000 0.000000
vn 1.000000 0.000000 0.000000
vn 1.000000 0.000000 0.000000
vn 1.000000 0.000000 0.000000
vn 0.000000 0.000000 -1.000000
vn 0.000000 0.000000 -1.000000
vn 0.000000 0.000000 -1.000000
vn 0.000000 0.000000 -1.000000
vn -1.000000 -0.000000 0.000000
vn -1.000000 -0.000000 0.000000
vn -1.000000 -0.000000 0.000000
vn -1.000000 -0.000000 0.000000
vn 0.000000 -1.000000 0.000000
vn 0.000000 -1.000000 0.000000
vn 0.000000 -1.000000 0.000000
vn 0.000000 -1.000000 0.000000
vn 0.000000 1.000000 0.000000
vn 0.000000 1.000000 0.000000
vn 0.000000 1.000000 0.000000
vn 0.000000 1.000000 0.000000
s off
g pCube294
usemtl initialShadingGroup
f 1/1/1 2/2/2 4/4/3 3/3/4
f 3/3/5 4/4/6 6/6/7 5/5/8
f 5/5/9 6/6/10 8/8/11 7/7/12
f 7/7/13 8/8/14 2/10/15 1/9/16
f 2/2/17 8/11/18 6/12/19 4/4/20
f 7/13/21 1/1/22 3/3/23 5/14/24
