# This file uses centimeters as units for non-parametric coordinates.

mtllib Lamp.mtl
g default
v 3.568468 5.100272 -9.311062
v 4.809825 5.100272 -9.311062
v 3.568468 5.190051 -9.311062
v 4.809825 5.190051 -9.311062
v 3.568468 5.190051 -11.716362
v 4.809825 5.190051 -11.716362
v 3.568468 5.100272 -11.716362
v 4.809825 5.100272 -11.716362
v 4.054666 5.190051 -10.909747
v 4.323627 5.190051 -10.909747
v 4.323627 5.190051 -11.204573
v 4.054666 5.190051 -11.204573
v 4.054666 8.608203 -11.001664
v 4.323627 8.608203 -11.001664
v 4.323627 8.515063 -11.281391
v 4.054666 8.515063 -11.281391
v 4.054666 8.337663 -10.911583
v 4.054666 8.244523 -11.191310
v 4.323627 8.244523 -11.191310
v 4.323627 8.337663 -10.911583
v 4.646339 8.337663 -10.911583
v 3.731955 8.337663 -10.911583
v 4.646339 8.608203 -11.001664
v 3.731955 8.608203 -11.001664
v 4.646340 9.011541 -8.887727
v 3.731954 9.011541 -8.887727
v 4.646340 9.282082 -8.977808
v 3.731954 9.282082 -8.977808
v 4.516118 8.384033 -10.772320
v 3.862176 8.384033 -10.772320
v 4.516118 8.965171 -9.026990
v 3.862176 8.965171 -9.026990
v 4.516118 8.339989 -10.757655
v 3.862176 8.339989 -10.757655
v 4.516118 8.921128 -9.012326
v 3.862176 8.921128 -9.012326
vt 0.610853 0.124703
vt 0.444895 0.012003
vt 0.000000 0.667138
vt 0.165958 0.779839
vt 0.393420 0.848285
vt 0.392157 0.891732
vt 0.499734 0.694223
vt 0.536228 0.708232
vt 0.384330 0.458272
vt 0.218372 0.345572
vt 0.226523 0.333569
vt 0.392481 0.446269
vt 0.700047 0.187164
vt 0.661188 0.167472
vt 0.741913 0.209079
vt 0.618139 0.146532
vt 0.346089 0.890386
vt 0.347372 0.846938
vt 0.511157 0.650187
vt 0.553672 0.664902
vt 0.004320 0.784727
vt 0.000000 0.932432
vt 0.735202 0.953940
vt 0.739520 0.806235
vt 0.344550 0.942514
vt 0.348906 0.794807
vt 0.390644 0.943859
vt 0.394937 0.796160
vt 0.304469 0.007505
vt 0.309217 0.113077
vt 0.012242 0.126433
vt 0.007494 0.020861
vt 0.309554 0.120572
vt 0.311963 0.007168
vt 0.004748 0.126770
vt 0.007157 0.013367
vt 0.246099 0.521968
vt 0.272866 0.482553
vt 0.236908 0.458134
vt 0.210141 0.497550
vt 0.481032 0.737247
vt 0.575660 0.731499
vt 0.324576 0.815150
vt 0.027416 0.806456
vt 0.024325 0.912090
vt 0.321461 0.920786
vt 0.214520 0.325418
vt 0.404484 0.454420
vt 0.432893 0.003852
vt 0.453046 0.000000
vt 0.619004 0.112700
vt 0.622856 0.132854
vt 0.462899 0.644251
vt 0.427287 0.618111
vt 0.518897 0.753604
vt 0.453489 0.687426
vt 0.464963 0.639995
vt 0.595775 0.691230
vt 0.779751 0.229589
vt 0.394883 0.582473
vt 0.740867 0.760175
vt 0.785581 0.807582
vt 0.781263 0.955287
vt 0.396286 0.750099
vt 0.389298 0.989919
vt 0.733855 1.000000
vt 0.000000 0.021198
vt 0.012579 0.133928
vt 0.304132 0.000011
vt 0.316711 0.112740
vn 0.000000 0.000000 1.000000
vn 0.000000 0.000000 1.000000
vn 0.000000 0.000000 1.000000
vn 0.000000 0.000000 1.000000
vn 0.000000 0.948787 -0.315917
vn 0.000000 0.948787 -0.315917
vn 0.000000 0.948787 -0.315917
vn 0.000000 0.948787 -0.315917
vn 0.000000 0.000000 -1.000000
vn 0.000000 0.000000 -1.000000
vn 0.000000 0.000000 -1.000000
vn 0.000000 0.000000 -1.000000
vn 0.000000 -1.000000 0.000000
vn 0.000000 -1.000000 0.000000
vn 0.000000 -1.000000 0.000000
vn 0.000000 -1.000000 0.000000
vn 1.000000 0.000000 0.000000
vn 1.000000 0.000000 0.000000
vn 1.000000 0.000000 0.000000
vn 1.000000 0.000000 0.000000
vn -1.000000 0.000000 0.000000
vn -1.000000 0.000000 0.000000
vn -1.000000 0.000000 0.000000
vn -1.000000 0.000000 0.000000
vn 0.000000 1.000000 0.000000
vn 0.000000 1.000000 0.000000
vn 0.000000 1.000000 0.000000
vn 0.000000 1.000000 0.000000
vn 0.000000 1.000000 0.000000
vn 0.000000 1.000000 0.000000
vn 0.000000 1.000000 0.000000
vn 0.000000 1.000000 0.000000
vn 0.000000 0.000583 1.000000
vn 0.000000 0.000583 1.000000
vn 0.000000 0.000583 1.000000
vn 0.000000 0.000583 1.000000
vn 1.000000 0.000000 0.000000
vn 1.000000 0.000000 0.000000
vn 1.000000 0.000000 0.000000
vn 1.000000 0.000000 0.000000
vn 0.000000 0.004342 -0.999991
vn 0.000000 0.004342 -0.999991
vn 0.000000 -0.023097 -0.999733
vn 0.000000 -0.023097 -0.999733
vn -1.000000 -0.000000 0.000000
vn -1.000000 -0.000000 0.000000
vn -1.000000 0.000000 0.000000
vn -1.000000 -0.000000 0.000000
vn -1.000000 0.000000 0.000000
vn -1.000000 0.000000 0.000000
vn 0.000000 -0.315915 -0.948788
vn 0.000000 -0.315915 -0.948788
vn 1.000000 0.000000 0.000000
vn 1.000000 0.000000 0.000000
vn 0.000000 0.315915 0.948788
vn 0.000000 0.315915 0.948788
vn 0.000000 0.315915 0.948788
vn 0.000000 0.315915 0.948788
vn 0.000000 0.000000 0.000000
vn 0.000000 0.000000 0.000000
vn 0.000000 -0.315915 -0.948788
vn 0.000000 -0.315915 -0.948788
vn 0.000000 -0.315915 -0.948788
vn 0.000000 -0.315915 -0.948788
vn 0.000000 0.000000 1.000000
vn 0.000000 0.000000 1.000000
vn 0.000000 0.000000 0.000000
vn 0.000000 0.000000 1.000000
vn 0.000000 -0.315915 -0.948788
vn 0.000000 -0.315915 -0.948788
vn 0.000000 -0.315915 -0.948788
vn 0.000000 -0.315915 -0.948788
vn 0.000000 -0.948787 0.315916
vn 0.000000 -0.948787 0.315916
vn 0.000000 -0.948787 0.315916
vn 0.000000 -0.948787 0.315916
vn 1.000000 -0.000000 -0.000000
vn 1.000000 -0.000000 -0.000000
vn 1.000000 -0.000000 -0.000000
vn 1.000000 -0.000000 -0.000000
vn 0.000000 0.948787 -0.315915
vn 0.000000 0.948787 -0.315915
vn 0.000000 0.948787 -0.315915
vn 0.000000 0.948787 -0.315915
vn -1.000000 -0.000000 -0.000001
vn -1.000000 -0.000000 -0.000001
vn -1.000000 -0.000000 -0.000001
vn -1.000000 -0.000000 -0.000001
vn -0.000001 -0.948789 0.315911
vn 0.000001 -0.948789 0.315911
vn 0.000003 -0.948788 0.315914
vn -0.000003 -0.948788 0.315914
vn 0.000001 -0.948787 0.315915
vn 0.000003 -0.948787 0.315915
vn -0.000001 -0.948787 0.315915
vn -0.000003 -0.948787 0.315916
vn 0.000000 -0.315915 -0.948787
vn 0.000000 -0.315915 -0.948787
vn 0.000000 -0.315915 -0.948787
vn 0.000000 -0.315915 -0.948787
vn 1.000000 0.000000 0.000000
vn 1.000000 0.000000 0.000000
vn 1.000000 0.000000 0.000000
vn 1.000000 0.000000 0.000000
vn 0.000000 0.315896 0.948794
vn 0.000000 0.315896 0.948794
vn 0.000000 0.315896 0.948794
vn 0.000000 0.315896 0.948794
vn -1.000000 -0.000000 0.000000
vn -1.000000 -0.000000 0.000000
vn -1.000000 -0.000000 0.000000
vn -1.000000 -0.000000 0.000000
s off
g lamp
usemtl initialShadingGroup
f 1/1/1 2/2/2 4/50/3 3/51/4
f 13/55/5 14/41/6 15/7/7 16/8/8
f 5/9/9 6/10/10 8/11/11 7/12/12
f 7/12/13 8/11/14 2/2/15 1/1/16
f 2/2/17 8/11/18 6/47/19 4/49/20
f 7/12/21 1/1/22 3/52/23 5/48/24
s 1
f 3/4/25 4/3/26 10/40/27 9/37/28
f 4/3/26 6/10/29 11/39/30 10/40/27
f 6/10/29 5/9/31 12/38/32 11/39/30
f 5/9/31 3/4/25 9/37/28 12/38/32
s 2
f 9/14/33 10/13/34 20/57/35 17/54/36
s 3
f 10/13/37 11/15/38 19/19/39 20/57/40
s 4
f 11/15/41 12/59/42 18/20/43 19/19/44
s 5
f 12/16/45 9/14/46 17/54/47 18/60/48
f 18/20/48 17/58/47 13/42/49 16/8/50
s 4
f 19/19/44 18/20/43 16/8/51 15/7/52
s 3
f 20/53/40 19/19/39 15/7/53 14/56/54
s off
f 26/62/55 25/63/56 27/23/57 28/24/58
s 2
f 17/18/36 20/17/35 21/25/59 22/26/60
s off
f 20/17/61 14/6/62 23/27/63 21/25/64
f 14/6/65 13/5/66 24/28/67 23/27/68
f 13/5/69 17/18/70 22/26/71 24/28/72
f 34/29/73 33/30/74 35/31/75 36/32/76
f 21/65/77 23/27/78 27/23/79 25/66/80
f 23/27/81 24/28/82 28/24/83 27/23/84
f 24/28/85 22/64/86 26/61/87 28/24/88
s 6
f 22/26/89 21/25/90 29/46/91 30/43/92
f 21/25/90 25/22/93 31/45/94 29/46/91
f 25/22/93 26/21/95 32/44/96 31/45/94
f 26/21/95 22/26/89 30/43/92 32/44/96
s off
f 30/34/97 29/70/98 33/30/99 34/29/100
f 29/33/101 31/68/102 35/31/103 33/30/104
f 31/35/105 32/67/106 36/32/107 35/31/108
f 32/36/109 30/69/110 34/29/111 36/32/112
