# This file uses centimeters as units for non-parametric coordinates.

mtllib photo.mtl
g default
v -0.553801 -0.035890 99.389735
v -0.538879 -0.042072 99.389799
v -0.538807 -0.035890 99.404722
v -0.538879 -0.020969 99.410902
v -0.553800 -0.020969 99.404721
v -0.559981 -0.020969 99.389799
v 0.553801 -0.035890 99.389704
v 0.559981 -0.020969 99.389799
v 0.553800 -0.020969 99.404721
v 0.538879 -0.020969 99.410902
v 0.538857 -0.035891 99.404721
v 0.538879 -0.042072 99.389799
v -0.530951 0.033943 99.376435
v -0.534768 0.032495 99.352779
v -0.552440 0.031454 99.378473
v -0.559981 0.016479 99.390349
v -0.553997 0.017241 99.404892
v -0.539516 0.017999 99.410902
v -0.534144 0.032399 99.403241
v -0.521616 0.034952 99.386225
v 0.530951 0.033943 99.376435
v 0.521616 0.034952 99.386225
v 0.533808 0.032227 99.403209
v 0.539064 0.017468 99.410902
v 0.553856 0.017144 99.404966
v 0.559981 0.016827 99.390628
v 0.552443 0.031565 99.378682
v 0.534768 0.032495 99.352779
v -0.530951 0.033943 97.970937
v -0.521616 0.034952 97.961147
v -0.533808 0.032227 97.944163
v -0.539064 0.017468 97.936470
v -0.553856 0.017144 97.942406
v -0.559981 0.016827 97.956744
v -0.552443 0.031565 97.968690
v -0.534768 0.032495 97.994593
v 0.530951 0.033943 97.970937
v 0.534768 0.032495 97.994593
v 0.552440 0.031454 97.968899
v 0.559981 0.016479 97.957023
v 0.553997 0.017241 97.942480
v 0.539516 0.017999 97.936470
v 0.534132 0.032404 97.944123
v 0.521616 0.034952 97.961147
v -0.553801 -0.035890 97.957668
v -0.559981 -0.020969 97.957573
v -0.553800 -0.020969 97.942651
v -0.538879 -0.020969 97.936470
v -0.538857 -0.035891 97.942651
v -0.538879 -0.042072 97.957573
v 0.553801 -0.035890 97.957637
v 0.538879 -0.042072 97.957573
v 0.538807 -0.035890 97.942650
v 0.538879 -0.020969 97.936470
v 0.553800 -0.020969 97.942651
v 0.559981 -0.020969 97.957573
v -0.480348 0.012901 99.289768
v -0.491890 0.016208 99.297202
v -0.485461 0.015648 99.311424
v -0.469924 0.015067 99.317305
v -0.463818 0.012214 99.303828
v -0.462536 0.010821 99.287417
v 0.480348 0.012901 99.289768
v 0.462536 0.010821 99.287417
v 0.463914 0.012167 99.303642
v 0.470049 0.014999 99.317068
v 0.485499 0.015615 99.311254
v 0.491890 0.016208 99.297202
v 0.463972 0.012176 98.043667
v 0.462637 0.010821 98.059854
v 0.480410 0.012911 98.057533
v 0.491890 0.016208 98.050170
v 0.485499 0.015615 98.036116
v 0.470049 0.014999 98.030304
v -0.480347 0.012901 98.057605
v -0.462536 0.010821 98.059955
v -0.463915 0.012167 98.043729
v -0.470049 0.014999 98.030304
v -0.485499 0.015615 98.036116
v -0.491890 0.016208 98.050170
v -0.551029 -0.033150 99.401954
v 0.551050 -0.033149 99.401942
v -0.546829 0.031975 99.396163
v 0.546726 0.031938 99.396209
v -0.546726 0.031938 97.951164
v 0.546824 0.031977 97.951203
v -0.551050 -0.033149 97.945430
v 0.551029 -0.033150 97.945418
v -0.478096 0.013240 99.302428
v 0.478136 0.013212 99.302280
v 0.478180 0.013222 98.045038
v -0.478135 0.013212 98.045091
vt 0.362999 0.774228
vt 0.358913 0.774263
vt 0.359455 0.409927
vt 0.363522 0.410242
vt 0.354781 0.001544
vt 0.355417 0.005573
vt 0.004170 0.092179
vt 0.003050 0.088250
vt 0.363587 0.004059
vt 0.363151 -0.000000
vt 0.637152 0.000697
vt 0.636695 0.004743
vt 0.362908 0.778306
vt 0.637418 0.771469
vt 0.637555 0.775551
vt 0.359464 0.004814
vt 0.360840 0.014051
vt 0.357582 0.014803
vt 0.364069 0.013847
vt 0.644860 0.006264
vt 0.645518 0.002234
vt 0.996961 0.090135
vt 0.995820 0.094052
vt 0.641500 0.771471
vt 0.635377 0.411286
vt 0.639447 0.410944
vt 0.640814 0.005501
vt 0.639386 0.014727
vt 0.636102 0.014441
vt 0.642596 0.015550
vt 0.364292 0.030832
vt 0.365524 0.024736
vt 0.377466 0.041798
vt 0.375825 0.045363
vt 0.368149 0.022287
vt 0.381450 0.040328
vt 0.356013 0.019554
vt 0.010232 0.104834
vt 0.006388 0.101471
vt 0.359838 0.024057
vt 0.363893 0.375321
vt 0.359419 0.382071
vt 0.365201 0.017950
vt 0.634987 0.018631
vt 0.632100 0.022959
vt 0.634715 0.025418
vt 0.622736 0.042500
vt 0.618780 0.041034
vt 0.635921 0.031526
vt 0.624359 0.046028
vt 0.640403 0.024708
vt 0.639549 0.382787
vt 0.635102 0.376076
vt 0.644181 0.020254
vt 0.993521 0.103244
vt 0.989651 0.106651
vt 0.367728 0.383937
vt 0.365130 0.381434
vt 0.377061 0.364424
vt 0.381019 0.365904
vt 0.375427 0.360890
vt 0.363470 0.392439
vt 0.364788 0.388256
vt 0.634231 0.389124
vt 0.635566 0.393253
vt 0.631234 0.384765
vt 0.002726 0.102737
vt 0.000198 0.093126
vt 0.359452 0.392107
vt 0.363531 0.402122
vt 0.359533 0.402489
vt 0.633841 0.382233
vt 0.621954 0.365135
vt 0.623598 0.361596
vt 0.617991 0.366614
vt 0.639522 0.393018
vt 0.639382 0.403482
vt 0.635384 0.403118
vt 0.997190 0.104621
vt 0.999785 0.095008
vt 0.363606 0.406184
vt 0.635289 0.407201
vt 0.378845 0.047288
vt 0.378449 0.358990
vt 0.383361 0.047925
vt 0.382960 0.358389
vt 0.383018 0.043790
vt 0.617194 0.044476
vt 0.616812 0.048565
vt 0.621331 0.047943
vt 0.620598 0.359699
vt 0.616099 0.359081
vt 0.616442 0.363171
vt 0.382593 0.362469
vt 0.680963 0.170022
vt 0.914268 0.185867
vt 0.893268 0.495462
vt 0.659939 0.479591
vt 0.359035 0.001548
vt 0.359583 0.777593
vt 0.640865 0.774809
vt 0.641255 0.002238
vt 0.361491 0.018932
vt 0.638738 0.019619
vt 0.361236 0.386972
vt 0.005722 0.106579
vt 0.637738 0.387821
vt 0.994183 0.108431
vt 0.360356 0.406174
vt 0.000000 0.089768
vt 1.000000 0.091654
vt 0.638545 0.407188
vt 0.379397 0.044110
vt 0.620799 0.044800
vt 0.620042 0.362846
vt 0.378991 0.362134
vn -0.005603 -0.999975 0.004217
vn -0.382154 -0.924085 0.005053
vn -0.382165 -0.924080 -0.005035
vn -0.005602 -0.999975 -0.004219
vn -0.923909 -0.382612 0.000495
vn -0.993183 -0.116500 0.003869
vn -0.993186 -0.116477 -0.003910
vn -0.923909 -0.382612 -0.000494
vn -0.005112 -0.114117 0.993454
vn -0.000809 -0.382587 0.923919
vn 0.000809 -0.382586 0.923920
vn 0.005061 -0.114149 0.993451
vn -0.006629 -0.924154 0.381963
vn -0.005603 -0.999975 0.004217
vn 0.005602 -0.999975 0.004219
vn 0.006648 -0.924162 0.381944
vn -0.993183 -0.116500 0.003869
vn -0.924297 -0.088301 0.371320
vn -0.924250 -0.006038 0.381740
vn -0.990473 0.137618 0.004975
vn -0.372339 -0.086889 0.924021
vn -0.005112 -0.114117 0.993454
vn -0.004869 0.143259 0.989673
vn -0.382844 -0.006184 0.923792
vn 0.993186 -0.116477 0.003910
vn 0.923909 -0.382612 0.000494
vn 0.923909 -0.382612 -0.000495
vn 0.993183 -0.116500 -0.003869
vn 0.382165 -0.924080 0.005035
vn 0.005602 -0.999975 0.004219
vn 0.005603 -0.999975 -0.004217
vn 0.382154 -0.924085 -0.005053
vn 0.005061 -0.114149 0.993451
vn 0.368513 -0.085235 0.925707
vn 0.377552 -0.004152 0.925979
vn 0.005312 0.140924 0.990006
vn 0.922539 -0.088419 0.375637
vn 0.993186 -0.116477 0.003910
vn 0.990238 0.139313 0.004599
vn 0.921755 -0.006164 0.387724
vn 0.192903 0.981216 -0.002026
vn 0.075260 0.988917 -0.127978
vn 0.160929 0.974491 -0.156428
vn 0.339960 0.940438 -0.001786
vn 0.075260 0.988917 -0.127978
vn 0.000639 0.985754 -0.168190
vn 0.001208 0.963549 -0.267530
vn 0.160929 0.974491 -0.156428
vn -0.990473 0.137618 0.004975
vn -0.890646 0.454678 0.004230
vn -0.890639 0.454693 -0.004022
vn -0.990238 0.139313 -0.004599
vn -0.057842 0.998326 -0.000704
vn 0.192903 0.981216 -0.002026
vn 0.191970 0.981399 0.002017
vn -0.057802 0.998328 0.000736
vn 0.000639 0.985754 -0.168190
vn -0.002815 0.988638 0.150287
vn 0.002741 0.988575 0.150708
vn -0.000606 0.985559 -0.169329
vn -0.003938 0.467507 0.883981
vn -0.004869 0.143259 0.989673
vn 0.005312 0.140924 0.990006
vn 0.004583 0.467565 0.883947
vn -0.000606 0.985559 -0.169329
vn -0.076722 0.989033 -0.126206
vn -0.160892 0.974466 -0.156620
vn -0.001195 0.963551 -0.267522
vn -0.076722 0.989033 -0.126206
vn -0.191970 0.981399 -0.002017
vn -0.340044 0.940408 -0.001790
vn -0.160892 0.974466 -0.156620
vn -0.191970 0.981399 -0.002017
vn 0.057802 0.998328 -0.000736
vn 0.057841 0.998326 0.000705
vn -0.192916 0.981213 0.002008
vn 0.890639 0.454693 0.004022
vn 0.990238 0.139313 0.004599
vn 0.990473 0.137618 -0.004975
vn 0.890644 0.454681 -0.004235
vn 0.000604 0.985531 0.169496
vn 0.076721 0.989033 0.126205
vn 0.160896 0.974466 0.156618
vn 0.001195 0.963542 0.267554
vn 0.076721 0.989033 0.126205
vn 0.191970 0.981399 0.002017
vn 0.339966 0.940436 0.001789
vn 0.160896 0.974466 0.156618
vn -0.005313 0.140850 -0.990017
vn -0.004587 0.467330 -0.884071
vn 0.003929 0.467268 -0.884107
vn 0.004869 0.143181 -0.989685
vn -0.002743 0.988598 -0.150554
vn 0.000604 0.985531 0.169496
vn -0.000642 0.985716 0.168413
vn 0.002814 0.988663 -0.150128
vn -0.990238 0.139313 -0.004599
vn -0.921755 -0.006164 -0.387724
vn -0.922540 -0.088418 -0.375637
vn -0.993186 -0.116477 -0.003910
vn -0.377552 -0.004152 -0.925979
vn -0.005313 0.140850 -0.990017
vn -0.005061 -0.114149 -0.993451
vn -0.368513 -0.085235 -0.925707
vn -0.192916 0.981213 0.002008
vn -0.075785 0.988925 0.127610
vn -0.160916 0.974450 0.156696
vn -0.340039 0.940410 0.001789
vn -0.075785 0.988925 0.127610
vn -0.000642 0.985716 0.168413
vn -0.001193 0.963543 0.267551
vn -0.160916 0.974450 0.156696
vn 0.004869 0.143181 -0.989685
vn 0.382844 -0.006184 -0.923792
vn 0.372339 -0.086889 -0.924021
vn 0.005112 -0.114117 -0.993454
vn 0.924250 -0.006039 -0.381740
vn 0.990473 0.137618 -0.004975
vn 0.993183 -0.116500 -0.003869
vn 0.924297 -0.088302 -0.371320
vn -0.005602 -0.999975 -0.004219
vn -0.006648 -0.924162 -0.381944
vn 0.006629 -0.924154 -0.381963
vn 0.005603 -0.999975 -0.004217
vn -0.000809 -0.382586 -0.923920
vn -0.005061 -0.114149 -0.993451
vn 0.005112 -0.114117 -0.993454
vn 0.000809 -0.382587 -0.923919
vn 0.339960 0.940438 -0.001786
vn 0.184618 0.982810 -0.000672
vn 0.184645 0.982805 0.000641
vn 0.339966 0.940436 0.001789
vn 0.184618 0.982810 -0.000672
vn 0.002263 0.999997 -0.001125
vn 0.002262 0.999997 0.001114
vn 0.184645 0.982805 0.000641
vn 0.002263 0.999997 -0.001125
vn 0.001371 0.989642 -0.143554
vn -0.001337 0.989630 -0.143632
vn -0.002268 0.999997 -0.001129
vn 0.001371 0.989642 -0.143554
vn 0.001208 0.963549 -0.267530
vn -0.001195 0.963551 -0.267522
vn -0.001337 0.989630 -0.143632
vn -0.002268 0.999997 -0.001129
vn -0.184930 0.982752 -0.000645
vn -0.184912 0.982755 0.000642
vn -0.002267 0.999997 0.001112
vn -0.184930 0.982752 -0.000645
vn -0.340044 0.940408 -0.001790
vn -0.340039 0.940410 0.001789
vn -0.184912 0.982755 0.000642
vn -0.002267 0.999997 0.001112
vn -0.001359 0.989680 0.143290
vn 0.001362 0.989674 0.143331
vn 0.002262 0.999997 0.001114
vn -0.001359 0.989680 0.143290
vn -0.001193 0.963543 0.267551
vn 0.001195 0.963542 0.267554
vn 0.001362 0.989674 0.143331
vn -0.005112 -0.114117 0.993454
vn 0.005061 -0.114149 0.993451
vn 0.005312 0.140924 0.990006
vn -0.004869 0.143259 0.989673
vn 0.002263 0.999997 -0.001125
vn -0.002268 0.999997 -0.001129
vn -0.002267 0.999997 0.001112
vn 0.002262 0.999997 0.001114
vn -0.005313 0.140850 -0.990017
vn 0.004869 0.143181 -0.989685
vn 0.005112 -0.114117 -0.993454
vn -0.005061 -0.114149 -0.993451
vn -0.005602 -0.999975 -0.004219
vn 0.005603 -0.999975 -0.004217
vn 0.005602 -0.999975 0.004219
vn -0.005603 -0.999975 0.004217
vn 0.993186 -0.116477 0.003910
vn 0.993183 -0.116500 -0.003869
vn 0.990473 0.137618 -0.004975
vn 0.990238 0.139313 0.004599
vn -0.993186 -0.116477 -0.003910
vn -0.993183 -0.116500 0.003869
vn -0.990473 0.137618 0.004975
vn -0.990238 0.139313 -0.004599
vn 0.000639 0.985754 -0.168190
vn -0.000606 0.985559 -0.169329
vn -0.001195 0.963551 -0.267522
vn 0.001208 0.963549 -0.267530
vn -0.191970 0.981399 -0.002017
vn -0.192916 0.981213 0.002008
vn -0.340039 0.940410 0.001789
vn -0.340044 0.940408 -0.001790
vn -0.000642 0.985716 0.168413
vn 0.000604 0.985531 0.169496
vn 0.001195 0.963542 0.267554
vn -0.001193 0.963543 0.267551
vn 0.191970 0.981399 0.002017
vn 0.192903 0.981216 -0.002026
vn 0.339960 0.940438 -0.001786
vn 0.339966 0.940436 0.001789
vn -0.924297 -0.088301 0.371320
vn -0.993183 -0.116500 0.003869
vn -0.923909 -0.382612 0.000495
vn -0.887135 -0.327031 0.325641
vn -0.382154 -0.924085 0.005053
vn -0.005603 -0.999975 0.004217
vn -0.006629 -0.924154 0.381963
vn -0.325709 -0.887536 0.325873
vn -0.000809 -0.382587 0.923919
vn -0.005112 -0.114117 0.993454
vn -0.372339 -0.086889 0.924021
vn -0.325501 -0.327044 0.887182
vn 0.006648 -0.924162 0.381944
vn 0.005602 -0.999975 0.004219
vn 0.382165 -0.924080 0.005035
vn 0.326547 -0.887595 0.324874
vn 0.923909 -0.382612 0.000494
vn 0.993186 -0.116477 0.003910
vn 0.922539 -0.088419 0.375637
vn 0.887473 -0.326905 0.324846
vn 0.368513 -0.085235 0.925707
vn 0.005061 -0.114149 0.993451
vn 0.000809 -0.382586 0.923920
vn 0.326171 -0.326628 0.887089
vn -0.002815 0.988638 0.150287
vn 0.000639 0.985754 -0.168190
vn 0.075260 0.988917 -0.127978
vn -0.111811 0.993729 -0.000984
vn 0.075260 0.988917 -0.127978
vn 0.192903 0.981216 -0.002026
vn -0.057842 0.998326 -0.000704
vn -0.111811 0.993729 -0.000984
vn -0.890646 0.454678 0.004230
vn -0.990473 0.137618 0.004975
vn -0.782180 0.566750 0.258824
vn -0.782180 0.566750 0.258824
vn -0.376096 0.571971 0.728972
vn -0.004869 0.143259 0.989673
vn -0.003938 0.467507 0.883981
vn -0.376096 0.571971 0.728972
vn 0.057802 0.998328 -0.000736
vn -0.191970 0.981399 -0.002017
vn -0.076722 0.989033 -0.126206
vn 0.107405 0.994202 0.005208
vn -0.076722 0.989033 -0.126206
vn -0.000606 0.985559 -0.169329
vn 0.002741 0.988575 0.150708
vn 0.107405 0.994202 0.005208
vn 0.004583 0.467565 0.883947
vn 0.005312 0.140924 0.990006
vn 0.359445 0.564343 0.743180
vn 0.359445 0.564343 0.743180
vn 0.770903 0.574991 0.274034
vn 0.990238 0.139313 0.004599
vn 0.890639 0.454693 0.004022
vn 0.770903 0.574990 0.274034
vn -0.057802 0.998328 0.000736
vn 0.191970 0.981399 0.002017
vn 0.076721 0.989033 0.126205
vn -0.107405 0.994202 -0.005208
vn 0.076721 0.989033 0.126205
vn 0.000604 0.985531 0.169496
vn -0.002743 0.988598 -0.150554
vn -0.107405 0.994202 -0.005208
vn -0.004587 0.467330 -0.884071
vn -0.005313 0.140850 -0.990017
vn -0.359448 0.564345 -0.743177
vn -0.359448 0.564345 -0.743177
vn -0.770904 0.574989 -0.274034
vn -0.990238 0.139313 -0.004599
vn -0.890639 0.454693 -0.004022
vn -0.770904 0.574989 -0.274034
vn 0.002814 0.988663 -0.150128
vn -0.000642 0.985716 0.168413
vn -0.075785 0.988925 0.127610
vn 0.111812 0.993729 0.001065
vn -0.075785 0.988925 0.127610
vn -0.192916 0.981213 0.002008
vn 0.057841 0.998326 0.000705
vn 0.111812 0.993729 0.001065
vn 0.890644 0.454681 -0.004235
vn 0.990473 0.137618 -0.004975
vn 0.782130 0.566803 -0.258856
vn 0.782130 0.566803 -0.258856
vn 0.376152 0.571819 -0.729063
vn 0.004869 0.143181 -0.989685
vn 0.003929 0.467268 -0.884107
vn 0.376152 0.571819 -0.729063
vn -0.006648 -0.924162 -0.381944
vn -0.005602 -0.999975 -0.004219
vn -0.382165 -0.924080 -0.005035
vn -0.326547 -0.887595 -0.324874
vn -0.923909 -0.382612 -0.000494
vn -0.993186 -0.116477 -0.003910
vn -0.922540 -0.088418 -0.375637
vn -0.887473 -0.326905 -0.324846
vn -0.368513 -0.085235 -0.925707
vn -0.005061 -0.114149 -0.993451
vn -0.000809 -0.382586 -0.923920
vn -0.326171 -0.326628 -0.887089
vn 0.924297 -0.088302 -0.371320
vn 0.993183 -0.116500 -0.003869
vn 0.923909 -0.382612 -0.000495
vn 0.887135 -0.327031 -0.325641
vn 0.382154 -0.924085 -0.005053
vn 0.005603 -0.999975 -0.004217
vn 0.006629 -0.924154 -0.381963
vn 0.325709 -0.887536 -0.325873
vn 0.000809 -0.382587 -0.923919
vn 0.005112 -0.114117 -0.993454
vn 0.372339 -0.086889 -0.924021
vn 0.325501 -0.327044 -0.887182
vn 0.001371 0.989642 -0.143554
vn 0.002263 0.999997 -0.001125
vn 0.184618 0.982810 -0.000672
vn 0.136901 0.984506 -0.109573
vn 0.184618 0.982810 -0.000672
vn 0.339960 0.940438 -0.001786
vn 0.160929 0.974491 -0.156428
vn 0.136901 0.984506 -0.109573
vn 0.160929 0.974491 -0.156428
vn 0.001208 0.963549 -0.267530
vn 0.001371 0.989642 -0.143554
vn 0.136901 0.984506 -0.109573
vn -0.160892 0.974466 -0.156620
vn -0.340044 0.940408 -0.001790
vn -0.184930 0.982752 -0.000645
vn -0.137472 0.984595 -0.108044
vn -0.184930 0.982752 -0.000645
vn -0.002268 0.999997 -0.001129
vn -0.001337 0.989630 -0.143632
vn -0.137472 0.984595 -0.108044
vn -0.001337 0.989630 -0.143632
vn -0.001195 0.963551 -0.267522
vn -0.160892 0.974466 -0.156620
vn -0.137472 0.984595 -0.108044
vn -0.160916 0.974450 0.156696
vn -0.001193 0.963543 0.267551
vn -0.001359 0.989680 0.143290
vn -0.137802 0.984504 0.108457
vn -0.001359 0.989680 0.143290
vn -0.002267 0.999997 0.001112
vn -0.184912 0.982755 0.000642
vn -0.137802 0.984504 0.108457
vn -0.184912 0.982755 0.000642
vn -0.340039 0.940410 0.001789
vn -0.160916 0.974450 0.156696
vn -0.137802 0.984504 0.108457
vn 0.160896 0.974466 0.156618
vn 0.339966 0.940436 0.001789
vn 0.184645 0.982805 0.000641
vn 0.137484 0.984593 0.108047
vn 0.184645 0.982805 0.000641
vn 0.002262 0.999997 0.001114
vn 0.001362 0.989674 0.143331
vn 0.137484 0.984593 0.108047
vn 0.001362 0.989674 0.143331
vn 0.001195 0.963542 0.267554
vn 0.160896 0.974466 0.156618
vn 0.137484 0.984593 0.108047
s off
g TEMPORARY_IMPORT_NAMESPACE_Па__pCube1Sh
usemtl initialShadingGroup
f 2/1/1 1/2/2 45/3/3 50/4/4
f 1/5/5 6/6/6 46/7/7 45/8/8
f 4/9/9 3/10/10 11/11/11 10/12/12
f 3/13/13 2/1/14 12/14/15 11/15/16
f 6/6/17 5/16/18 17/17/19 16/18/20
f 5/16/21 4/9/22 18/19/23 17/17/24
f 8/20/25 7/21/26 51/22/27 56/23/28
f 7/24/29 12/14/30 52/25/31 51/26/32
f 10/12/33 9/27/34 25/28/35 24/29/36
f 9/27/37 8/20/38 26/30/39 25/28/40
f 14/31/41 13/32/42 59/33/43 58/34/44
f 13/32/45 20/35/46 60/36/47 59/33/48
f 16/18/49 15/37/50 35/38/51 34/39/52
f 15/40/53 14/31/54 36/41/55 35/42/56
f 20/35/57 19/43/58 23/44/59 22/45/60
f 19/43/61 18/19/62 24/29/63 23/44/64
f 22/45/65 21/46/66 67/47/67 66/48/68
f 21/46/69 28/49/70 68/50/71 67/47/72
f 28/49/73 27/51/74 39/52/75 38/53/76
f 27/54/77 26/30/78 40/55/79 39/56/80
f 30/57/81 29/58/82 79/59/83 78/60/84
f 29/58/85 36/41/86 80/61/87 79/59/88
f 32/62/89 31/63/90 43/64/91 42/65/92
f 31/63/93 30/57/94 44/66/95 43/64/96
f 34/39/97 33/67/98 47/68/99 46/7/100
f 33/69/101 32/62/102 48/70/103 47/71/104
f 38/53/105 37/72/106 73/73/107 72/74/108
f 37/72/109 44/66/110 74/75/111 73/73/112
f 42/65/113 41/76/114 55/77/115 54/78/116
f 41/79/117 40/55/118 56/23/119 55/80/120
f 50/4/121 49/81/122 53/82/123 52/25/124
f 49/81/125 48/70/126 54/78/127 53/82/128
f 58/34/129 57/83/130 75/84/131 80/61/132
f 57/83/133 62/85/134 76/86/135 75/84/136
f 62/85/137 61/87/138 65/88/139 64/89/140
f 61/87/141 60/36/142 66/48/143 65/88/144
f 64/89/145 63/90/146 71/91/147 70/92/148
f 63/90/149 68/50/150 72/74/151 71/91/152
f 70/92/153 69/93/154 77/94/155 76/86/156
f 69/93/157 74/75/158 78/60/159 77/94/160
f 4/9/161 10/12/162 24/29/163 18/19/164
f 62/95/165 64/96/166 70/97/167 76/98/168
f 32/62/169 42/65/170 54/78/171 48/70/172
f 50/4/173 52/25/174 12/14/175 2/1/176
f 8/20/177 56/23/178 40/55/179 26/30/180
f 46/7/181 6/6/182 16/18/183 34/39/184
f 20/35/185 22/45/186 66/48/187 60/36/188
f 28/49/189 38/53/190 72/74/191 68/50/192
f 44/66/193 30/57/194 78/60/195 74/75/196
f 36/41/197 14/31/198 58/34/199 80/61/200
f 5/16/201 6/6/202 1/5/203 81/99/204
f 1/2/205 2/1/206 3/13/207 81/100/208
f 3/10/209 4/9/210 5/16/211 81/99/212
f 11/15/213 12/14/214 7/24/215 82/101/216
f 7/21/217 8/20/218 9/27/219 82/102/220
f 9/27/221 10/12/222 11/11/223 82/102/224
f 19/43/225 20/35/226 13/32/227 83/103/228
f 13/32/229 14/31/230 15/40/231 83/103/232
f 15/37/233 16/18/234 17/17/235 83/103/236
f 17/17/237 18/19/238 19/43/239 83/103/240
f 27/51/241 28/49/242 21/46/243 84/104/244
f 21/46/245 22/45/246 23/44/247 84/104/248
f 23/44/249 24/29/250 25/28/251 84/104/252
f 25/28/253 26/30/254 27/54/255 84/104/256
f 35/42/257 36/41/258 29/58/259 85/105/260
f 29/58/261 30/57/262 31/63/263 85/105/264
f 31/63/265 32/62/266 33/69/267 85/105/268
f 33/67/269 34/39/270 35/38/271 85/106/272
f 43/64/273 44/66/274 37/72/275 86/107/276
f 37/72/277 38/53/278 39/52/279 86/107/280
f 39/56/281 40/55/282 41/79/283 86/108/284
f 41/76/285 42/65/286 43/64/287 86/107/288
f 49/81/289 50/4/290 45/3/291 87/109/292
f 45/8/293 46/7/294 47/68/295 87/110/296
f 47/71/297 48/70/298 49/81/299 87/109/300
f 55/80/301 56/23/302 51/22/303 88/111/304
f 51/26/305 52/25/306 53/82/307 88/112/308
f 53/82/309 54/78/310 55/77/311 88/112/312
f 61/87/313 62/85/314 57/83/315 89/113/316
f 57/83/317 58/34/318 59/33/319 89/113/320
f 59/33/321 60/36/322 61/87/323 89/113/324
f 67/47/325 68/50/326 63/90/327 90/114/328
f 63/90/329 64/89/330 65/88/331 90/114/332
f 65/88/333 66/48/334 67/47/335 90/114/336
f 73/73/337 74/75/338 69/93/339 91/115/340
f 69/93/341 70/92/342 71/91/343 91/115/344
f 71/91/345 72/74/346 73/73/347 91/115/348
f 79/59/349 80/61/350 75/84/351 92/116/352
f 75/84/353 76/86/354 77/94/355 92/116/356
f 77/94/357 78/60/358 79/59/359 92/116/360
