# This file uses centimeters as units for non-parametric coordinates.

mtllib Square.mtl
g default
v -26.042348 -1.010851 29.522794
v 26.042348 -1.010851 29.522794
v -26.042348 -0.008683 29.522794
v 26.042348 -0.008683 29.522794
v -26.042348 -0.008683 -22.561901
v 26.042348 -0.008683 -22.561901
v -26.042348 -1.010851 -22.561901
v 26.042348 -1.010851 -22.561901
v -24.740228 -0.008691 28.220675
v 24.740228 -0.008691 28.220675
v 24.740228 -0.008691 -21.259785
v -24.740228 -0.008691 -21.259785
v -26.042348 27.725771 29.522794
v 26.042348 27.725771 29.522794
v 24.740228 27.725771 28.220675
v -24.740228 27.725771 28.220675
v 26.042348 27.725771 -22.561901
v 24.740228 27.725771 -21.259785
v -26.042348 27.725771 -22.561901
v -24.740228 27.725771 -21.259785
v -26.042348 29.177603 29.522794
v 26.042348 29.177603 29.522794
v 24.740228 29.177603 28.220675
v -24.740228 29.177603 28.220675
v 26.042348 29.177603 -22.561901
v 24.740228 29.177603 -21.259785
v -26.042348 29.177603 -22.561901
v -24.740228 29.177603 -21.259785
v -4.948048 27.725771 8.428492
v 4.948048 27.725771 8.428492
v -4.948048 27.725771 -1.467603
v 4.948048 27.725771 -1.467603
v -4.948048 27.419653 8.428492
v 4.948048 27.419653 8.428492
v -4.948048 27.419653 -1.467603
v 4.948048 27.419653 -1.467603
vt 0.442969 0.223600
vt 0.433331 0.000000
vt 0.456362 0.695905
vt 0.442819 0.227891
vt 0.670510 0.841309
vt 0.674325 0.210328
vt 0.673054 0.420655
vt 0.671782 0.630982
vt 0.222941 0.232965
vt 0.000153 0.235215
vt 0.237016 0.708914
vt 0.222715 0.228735
vt 0.447158 0.352324
vt 0.451988 0.572490
vt 0.446146 0.567172
vt 0.441537 0.357949
vt 0.003250 0.357892
vt 0.234099 0.574730
vt 0.222732 0.357834
vt 0.228611 0.363268
vt 0.450576 0.578456
vt 0.446387 0.346218
vt 0.788401 0.842022
vt 0.998728 0.843294
vt 0.003260 0.351738
vt 1.000000 0.632967
vt 0.223358 0.351672
vt 0.789673 0.631695
vt 0.048849 0.743838
vt 0.216446 0.741748
vt 0.218536 0.909345
vt 0.050939 0.911435
vt 0.221630 0.741684
vt 0.048784 0.738654
vt 0.218600 0.914530
vt 0.045755 0.911500
vt 0.790945 0.421368
vt 0.792216 0.211041
vt 0.461455 0.629710
vt 0.460183 0.840038
vt 0.675597 0.000001
vt 0.793488 0.000714
vt 0.915361 0.716589
vt 0.051004 0.916619
vt 0.873295 0.716335
vt 0.223720 0.909281
vt 0.915106 0.758654
vt 0.043665 0.743903
vt 0.873041 0.758400
vt 0.216381 0.736564
vt 0.229285 0.580482
vt 0.228712 0.580427
vt 0.670542 0.336553
vt 0.230739 0.586507
vt 0.669991 0.330407
vt 0.236737 0.704661
vt 0.661048 0.213950
vt 0.000000 0.230958
vt 0.214663 0.009721
vt 0.660798 0.209702
vt 0.456520 0.700164
vn 0.000000 0.000000 1.000000
vn 0.000000 0.000000 1.000000
vn 0.000000 0.000000 1.000000
vn 0.000000 0.000000 1.000000
vn 0.000000 1.000000 0.000000
vn 0.000000 1.000000 0.000000
vn 0.000000 1.000000 0.000000
vn 0.000000 1.000000 0.000000
vn 0.000000 0.000000 -1.000000
vn 0.000000 0.000000 -1.000000
vn 0.000000 0.000000 -1.000000
vn 0.000000 0.000000 -1.000000
vn 0.000000 -1.000000 0.000000
vn 0.000000 -1.000000 0.000000
vn 0.000000 -1.000000 0.000000
vn 0.000000 -1.000000 0.000000
vn 1.000000 0.000000 0.000000
vn 1.000000 0.000000 0.000000
vn 1.000000 0.000000 0.000000
vn 1.000000 0.000000 0.000000
vn -1.000000 0.000000 0.000000
vn -1.000000 0.000000 0.000000
vn -1.000000 0.000000 0.000000
vn -1.000000 0.000000 0.000000
vn 0.000000 1.000000 0.000000
vn 0.000000 1.000000 0.000000
vn 0.000000 1.000000 0.000000
vn 0.000000 1.000000 0.000000
vn 0.000000 1.000000 0.000000
vn 0.000000 1.000000 0.000000
vn 0.000000 1.000000 0.000000
vn 0.000000 1.000000 0.000000
vn 0.000000 0.000000 1.000000
vn 0.000000 0.000000 1.000000
vn 0.000000 0.000000 -1.000000
vn 0.000000 0.000000 -1.000000
vn 0.000000 0.000000 -1.000000
vn 0.000000 0.000000 -1.000000
vn 1.000000 0.000000 0.000000
vn 1.000000 0.000000 0.000000
vn -1.000000 0.000000 0.000000
vn -1.000000 0.000000 0.000000
vn -1.000000 0.000000 0.000000
vn -1.000000 0.000000 0.000000
vn 0.000000 0.000000 -1.000000
vn 0.000000 0.000000 -1.000000
vn 0.000000 0.000000 1.000000
vn 0.000000 0.000000 1.000000
vn 0.000000 0.000000 1.000000
vn 0.000000 0.000000 1.000000
vn -1.000000 0.000000 0.000000
vn -1.000000 0.000000 0.000000
vn 1.000000 0.000000 0.000000
vn 1.000000 0.000000 0.000000
vn 1.000000 0.000000 0.000000
vn 1.000000 0.000000 0.000000
vn 0.000000 0.000000 1.000000
vn 0.000000 0.000000 1.000000
vn 1.000000 0.000000 0.000000
vn 1.000000 0.000000 0.000000
vn 0.000000 0.000000 -1.000000
vn 0.000000 0.000000 -1.000000
vn -1.000000 0.000000 0.000000
vn -1.000000 0.000000 0.000000
vn 0.000000 -1.000000 0.000000
vn 0.000000 -1.000000 0.000000
vn 0.000000 -1.000000 0.000000
vn 0.000000 -1.000000 0.000000
vn 0.000000 1.000000 0.000000
vn 0.000000 1.000000 0.000000
vn 0.000000 1.000000 0.000000
vn 0.000000 1.000000 0.000000
vn 0.000000 -1.000000 -0.000000
vn 0.000000 -1.000000 -0.000000
vn 0.000000 -1.000000 -0.000000
vn 0.000000 -1.000000 -0.000000
vn 0.000000 -1.000000 0.000000
vn 0.000000 -1.000000 0.000000
vn 0.000000 -1.000000 0.000000
vn 0.000000 -1.000000 0.000000
vn 0.000000 0.000000 1.000000
vn 0.000000 0.000000 1.000000
vn 0.000000 0.000000 1.000000
vn 0.000000 0.000000 1.000000
vn -1.000000 0.000000 0.000000
vn -1.000000 0.000000 0.000000
vn -1.000000 0.000000 0.000000
vn -1.000000 0.000000 0.000000
vn 0.000000 0.000000 -1.000000
vn 0.000000 0.000000 -1.000000
vn 0.000000 0.000000 -1.000000
vn 0.000000 0.000000 -1.000000
vn 1.000000 0.000000 0.000000
vn 1.000000 0.000000 0.000000
vn 1.000000 0.000000 0.000000
vn 1.000000 0.000000 0.000000
s 1
g pCube9
usemtl initialShadingGroup
f 1/1/1 2/60/2 4/57/3 3/4/4
s off
f 9/5/5 10/40/6 11/39/7 12/8/8
s 2
f 5/9/9 6/10/10 8/58/11 7/12/12
s off
f 7/12/13 8/59/14 2/2/15 1/1/16
s 3
f 2/61/17 8/11/18 6/56/19 4/3/20
s 4
f 7/12/21 1/1/22 3/4/23 5/9/24
s 5
f 21/13/25 22/14/26 23/15/27 24/16/28
f 22/14/26 25/51/29 26/18/30 23/15/27
f 25/52/29 27/19/31 28/20/32 26/18/30
f 27/19/31 21/13/25 24/16/28 28/20/32
s 1
f 3/4/4 4/57/3 14/55/33 13/22/34
s off
f 10/6/35 9/41/36 16/42/37 15/38/38
s 3
f 4/3/20 6/56/19 17/54/39 14/21/40
s off
f 11/7/41 10/6/42 15/38/43 18/37/44
s 2
f 6/10/10 5/9/9 19/27/45 17/25/46
s off
f 12/8/47 11/7/48 18/37/49 20/28/50
s 4
f 5/9/24 3/4/23 13/22/51 19/27/52
s off
f 9/5/53 12/8/54 20/28/55 16/23/56
s 1
f 13/22/34 14/55/33 22/53/57 21/13/58
s 3
f 14/21/40 17/54/39 25/51/59 22/14/60
s 2
f 17/25/46 19/27/45 27/19/61 25/17/62
s 4
f 19/27/52 13/22/51 21/13/63 27/19/64
s off
f 34/29/65 33/30/66 35/31/67 36/32/68
f 23/15/69 26/18/70 28/20/71 24/16/72
s 6
f 15/24/73 16/23/74 29/49/75 30/47/76
f 16/23/74 20/28/77 31/45/78 29/49/75
f 20/28/77 18/26/79 32/43/80 31/45/78
f 18/26/79 15/24/73 30/47/76 32/43/80
s off
f 30/34/81 29/50/82 33/30/83 34/29/84
f 29/33/85 31/46/86 35/31/87 33/30/88
f 31/35/89 32/44/90 36/32/91 35/31/92
f 32/36/93 30/48/94 34/29/95 36/32/96
