# This file uses centimeters as units for non-parametric coordinates.

mtllib Square.mtl
g default
v -17.996191 -0.105572 13.816980
v 17.996191 -0.105572 13.816980
v -17.996191 0.105572 13.816980
v 17.996191 0.105572 13.816980
v -17.996191 0.105572 -13.816980
v 17.996191 0.105572 -13.816980
v -17.996191 -0.105572 -13.816980
v 17.996191 -0.105572 -13.816980
v -17.396320 0.105572 13.356418
v 17.396320 0.105572 13.356418
v 17.396320 0.105572 -13.356418
v -17.396320 0.105572 -13.356418
v -17.996191 14.172287 13.816980
v 17.996191 14.172287 13.816980
v 17.396320 14.172287 13.356418
v -17.396320 14.172287 13.356418
v 17.996191 14.172287 -13.816980
v 17.396320 14.172287 -13.356418
v -17.996191 14.172287 -13.816980
v -17.396320 14.172287 -13.356418
v -17.996191 14.529079 13.816980
v 17.996191 14.529079 13.816980
v 17.396320 14.529079 13.356418
v -17.396320 14.529079 13.356418
v 17.996191 14.529079 -13.816980
v 17.396320 14.529079 -13.356418
v -17.996191 14.529079 -13.816980
v -17.396320 14.529079 -13.356418
vt 0.492393 0.879967
vt 0.778820 0.881987
vt 0.778808 0.883667
vt 0.492381 0.881647
vt 0.212584 0.322478
vt 0.489467 0.323638
vt 0.702051 0.324528
vt 0.978935 0.325688
vt 0.272470 0.880096
vt 0.780382 0.660396
vt 0.998730 0.883538
vt 0.493944 0.660056
vt 0.496316 0.323683
vt 0.777998 0.998449
vt 0.777943 0.329335
vt 0.501064 0.327382
vt 0.781192 0.545614
vt 0.776444 0.541915
vt 0.271661 0.994878
vt 0.499565 0.539962
vt 0.778018 0.995610
vt 0.491591 0.993590
vt 0.213053 0.210533
vt 0.703410 0.000000
vt 0.781172 0.548453
vt 0.702520 0.212584
vt 0.271681 0.992039
vt 0.979403 0.213744
vt 0.980294 0.001160
vt 0.489936 0.211693
vt 0.211693 0.535061
vt 0.000000 0.321587
vt 0.000469 0.209643
vt 0.488577 0.536221
vt 0.491571 0.996429
vt 0.494765 0.543594
vt 0.494745 0.546433
vt 0.782743 0.325704
vt 0.997909 1.000000
vt 0.997929 0.997161
vt 0.493956 0.658376
vt 0.998718 0.885218
vt 0.780370 0.662076
vt 0.272482 0.878416
vn 0.000000 0.000000 1.000000
vn 0.000000 0.000000 1.000000
vn 0.000000 0.000000 1.000000
vn 0.000000 0.000000 1.000000
vn 0.000000 1.000000 0.000000
vn 0.000000 1.000000 0.000000
vn 0.000000 1.000000 0.000000
vn 0.000000 1.000000 0.000000
vn 0.000000 0.000000 -1.000000
vn 0.000000 0.000000 -1.000000
vn 0.000000 0.000000 -1.000000
vn 0.000000 0.000000 -1.000000
vn 0.000000 -1.000000 0.000000
vn 0.000000 -1.000000 0.000000
vn 0.000000 -1.000000 0.000000
vn 0.000000 -1.000000 0.000000
vn 1.000000 0.000000 0.000000
vn 1.000000 0.000000 0.000000
vn 1.000000 0.000000 0.000000
vn 1.000000 0.000000 0.000000
vn -1.000000 0.000000 0.000000
vn -1.000000 0.000000 0.000000
vn -1.000000 0.000000 0.000000
vn -1.000000 0.000000 0.000000
vn 0.000000 1.000000 0.000000
vn 0.000000 1.000000 0.000000
vn 0.000000 1.000000 0.000000
vn 0.000000 1.000000 0.000000
vn 0.000000 1.000000 -0.000000
vn 0.000000 1.000000 -0.000000
vn 0.000000 1.000000 -0.000000
vn 0.000000 1.000000 -0.000000
vn 0.000000 0.000000 1.000000
vn 0.000000 0.000000 1.000000
vn 0.000000 0.000000 -1.000000
vn 0.000000 0.000000 -1.000000
vn 0.000000 0.000000 -1.000000
vn 0.000000 0.000000 -1.000000
vn 1.000000 0.000000 0.000000
vn 1.000000 0.000000 0.000000
vn -1.000000 0.000000 0.000000
vn -1.000000 0.000000 0.000000
vn -1.000000 0.000000 0.000000
vn -1.000000 0.000000 0.000000
vn 0.000000 0.000000 -1.000000
vn 0.000000 0.000000 -1.000000
vn 0.000000 0.000000 1.000000
vn 0.000000 0.000000 1.000000
vn 0.000000 0.000000 1.000000
vn 0.000000 0.000000 1.000000
vn -1.000000 0.000000 0.000000
vn -1.000000 0.000000 0.000000
vn 1.000000 0.000000 0.000000
vn 1.000000 0.000000 0.000000
vn 1.000000 0.000000 0.000000
vn 1.000000 0.000000 0.000000
vn 0.000000 0.000000 1.000000
vn 0.000000 0.000000 1.000000
vn 1.000000 0.000000 0.000000
vn 1.000000 0.000000 0.000000
vn 0.000000 0.000000 -1.000000
vn 0.000000 0.000000 -1.000000
vn -1.000000 0.000000 0.000000
vn -1.000000 0.000000 0.000000
vn 0.000000 -1.000000 0.000000
vn 0.000000 -1.000000 0.000000
vn 0.000000 -1.000000 0.000000
vn 0.000000 -1.000000 0.000000
vn 0.000000 1.000000 0.000000
vn 0.000000 1.000000 0.000000
vn 0.000000 1.000000 0.000000
vn 0.000000 1.000000 0.000000
s 1
g pCube2
usemtl initialShadingGroup
f 1/1/1 2/2/2 4/3/3 3/4/4
s off
f 9/5/5 10/6/6 11/34/7 12/31/8
s 2
f 5/41/9 6/10/10 8/43/11 7/12/12
s off
f 7/12/13 8/43/14 2/2/15 1/1/16
s 3
f 2/2/17 8/11/18 6/42/19 4/3/20
s 4
f 7/44/21 1/1/22 3/4/23 5/9/24
s 5
f 21/13/25 22/38/26 23/15/27 24/16/28
f 22/38/26 25/17/29 26/18/30 23/15/27
f 25/17/29 27/36/31 28/20/32 26/18/30
f 27/36/31 21/13/25 24/16/28 28/20/32
s 1
f 3/4/4 4/3/3 14/21/33 13/22/34
s off
f 10/6/35 9/5/36 16/23/37 15/30/38
s 3
f 4/3/20 6/42/19 17/40/39 14/21/40
s off
f 11/7/41 10/6/42 15/30/43 18/26/44
s 2
f 6/10/10 5/41/9 19/37/45 17/25/46
s off
f 12/8/47 11/7/48 18/26/49 20/28/50
s 4
f 5/9/24 3/4/23 13/22/51 19/27/52
s off
f 9/5/53 12/32/54 20/33/55 16/23/56
s 1
f 13/22/34 14/21/33 22/14/57 21/35/58
s 3
f 14/21/40 17/40/39 25/39/59 22/14/60
s 2
f 17/25/46 19/37/45 27/36/61 25/17/62
s 4
f 19/27/52 13/22/51 21/35/63 27/19/64
s off
f 15/24/65 16/29/66 20/28/67 18/26/68
f 23/15/69 26/18/70 28/20/71 24/16/72
