# This file uses centimeters as units for non-parametric coordinates.

mtllib Table.mtl
g default
v 8.730136 -0.138985 -0.835417
v 8.749819 -0.118627 -0.841767
v 8.758713 -0.118647 -0.814399
v 8.739060 -0.138985 -0.807952
v 8.348424 -0.138985 -1.574619
v 8.365181 -0.118627 -1.586740
v 8.382098 -0.118647 -1.563460
v 8.365398 -0.138985 -1.551256
v 7.756968 -0.138985 -2.159686
v 7.769160 -0.118627 -2.176392
v 7.792442 -0.118647 -2.159479
v 7.780331 -0.138985 -2.142712
v 7.013665 -0.138985 -2.533348
v 7.020097 -0.118627 -2.553003
v 7.047466 -0.118647 -2.544113
v 7.041129 -0.138985 -2.524424
v 6.191273 -0.138985 -2.659027
v 6.191317 -0.118627 -2.679709
v 6.220093 -0.118647 -2.679711
v 6.220151 -0.138985 -2.659027
v 5.370295 -0.138985 -2.524424
v 5.363946 -0.118627 -2.544106
v 5.391313 -0.118647 -2.553001
v 5.397760 -0.138985 -2.533348
v 4.631094 -0.138985 -2.142711
v 4.618973 -0.118627 -2.159468
v 4.642252 -0.118647 -2.176385
v 4.654457 -0.138985 -2.159685
v 4.046027 -0.138985 -1.551255
v 4.029321 -0.118627 -1.563447
v 4.046234 -0.118647 -1.586729
v 4.063001 -0.138985 -1.574618
v 3.672365 -0.138985 -0.807952
v 3.652710 -0.118627 -0.814384
v 3.661600 -0.118647 -0.841753
v 3.681289 -0.138985 -0.835417
v 3.546685 -0.138985 0.014439
v 3.526004 -0.118627 0.014396
v 3.526002 -0.118647 -0.014381
v 3.546685 -0.138985 -0.014439
v 3.681289 -0.138985 0.835417
v 3.661607 -0.118627 0.841766
v 3.652712 -0.118647 0.814399
v 3.672365 -0.138985 0.807952
v 4.063001 -0.138985 1.574618
v 4.046244 -0.118627 1.586739
v 4.029328 -0.118647 1.563460
v 4.046027 -0.138985 1.551255
v 4.654457 -0.138985 2.159685
v 4.642266 -0.118627 2.176391
v 4.618983 -0.118647 2.159478
v 4.631094 -0.138985 2.142711
v 5.397760 -0.138985 2.533347
v 5.391328 -0.118627 2.553002
v 5.363959 -0.118647 2.544112
v 5.370295 -0.138985 2.524423
v 6.220151 -0.138985 2.659027
v 6.220108 -0.118627 2.679708
v 6.191331 -0.118647 2.679710
v 6.191273 -0.138985 2.659027
v 7.041129 -0.138985 2.524423
v 7.047479 -0.118627 2.544105
v 7.020111 -0.118647 2.553000
v 7.013664 -0.138985 2.533346
v 7.780330 -0.138985 2.142711
v 7.792451 -0.118627 2.159468
v 7.769172 -0.118647 2.176384
v 7.756967 -0.138985 2.159685
v 8.365397 -0.138985 1.551255
v 8.382103 -0.118627 1.563446
v 8.365190 -0.118647 1.586729
v 8.348423 -0.138985 1.574618
v 8.739058 -0.138985 0.807952
v 8.758714 -0.118627 0.814384
v 8.749824 -0.118647 0.841753
v 8.730135 -0.138985 0.835417
v 8.864739 -0.138985 -0.014439
v 8.885420 -0.118627 -0.014396
v 8.885422 -0.118647 0.014381
v 8.864739 -0.138985 0.014439
v 8.739060 0.138985 -0.807952
v 8.758716 0.118627 -0.814385
v 8.749826 0.118647 -0.841754
v 8.730136 0.138985 -0.835417
v 8.365398 0.138985 -1.551256
v 8.382104 0.118627 -1.563447
v 8.365192 0.118647 -1.586729
v 8.348424 0.138985 -1.574619
v 7.780331 0.138985 -2.142712
v 7.792452 0.118627 -2.159469
v 7.769173 0.118647 -2.176385
v 7.756968 0.138985 -2.159686
v 7.041129 0.138985 -2.524424
v 7.047479 0.118627 -2.544106
v 7.020111 0.118647 -2.553001
v 7.013665 0.138985 -2.533348
v 6.220151 0.138985 -2.659027
v 6.220108 0.118627 -2.679709
v 6.191331 0.118647 -2.679711
v 6.191273 0.138985 -2.659027
v 5.397760 0.138985 -2.533348
v 5.391328 0.118627 -2.553003
v 5.363959 0.118647 -2.544113
v 5.370295 0.138985 -2.524424
v 4.654457 0.138985 -2.159685
v 4.642265 0.118627 -2.176391
v 4.618983 0.118647 -2.159479
v 4.631094 0.138985 -2.142711
v 4.063001 0.138985 -1.574618
v 4.046244 0.118627 -1.586739
v 4.029328 0.118647 -1.563460
v 4.046027 0.138985 -1.551255
v 3.681289 0.138985 -0.835417
v 3.661607 0.118627 -0.841766
v 3.652712 0.118647 -0.814399
v 3.672365 0.138985 -0.807952
v 3.546685 0.138985 -0.014439
v 3.526004 0.118627 -0.014396
v 3.526002 0.118647 0.014381
v 3.546685 0.138985 0.014439
v 3.672365 0.138985 0.807952
v 3.652710 0.118627 0.814384
v 3.661600 0.118647 0.841753
v 3.681289 0.138985 0.835417
v 4.046027 0.138985 1.551255
v 4.029321 0.118627 1.563447
v 4.046234 0.118647 1.586729
v 4.063001 0.138985 1.574618
v 4.631094 0.138985 2.142711
v 4.618973 0.118627 2.159468
v 4.642253 0.118647 2.176384
v 4.654457 0.138985 2.159685
v 5.370295 0.138985 2.524423
v 5.363946 0.118627 2.544106
v 5.391313 0.118647 2.553000
v 5.397760 0.138985 2.533347
v 6.191273 0.138985 2.659027
v 6.191317 0.118627 2.679708
v 6.220093 0.118647 2.679710
v 6.220151 0.138985 2.659027
v 7.013664 0.138985 2.533346
v 7.020096 0.118627 2.553002
v 7.047465 0.118647 2.544112
v 7.041129 0.138985 2.524423
v 7.756967 0.138985 2.159685
v 7.769159 0.118627 2.176391
v 7.792441 0.118647 2.159478
v 7.780330 0.138985 2.142711
v 8.348423 0.138985 1.574618
v 8.365180 0.118627 1.586739
v 8.382096 0.118647 1.563460
v 8.365397 0.138985 1.551255
v 8.730135 0.138985 0.835417
v 8.749817 0.118627 0.841766
v 8.758712 0.118647 0.814399
v 8.739058 0.138985 0.807952
v 8.864739 0.138985 0.014439
v 8.885420 0.118627 0.014396
v 8.885422 0.118647 -0.014381
v 8.864739 0.138985 -0.014439
v 6.296694 -0.138985 0.014410
v 6.287788 -0.138985 0.041820
v 6.270848 -0.138985 0.065136
v 6.247532 -0.138985 0.082076
v 6.220122 -0.138985 0.090982
v 6.191302 -0.138985 0.090982
v 6.163892 -0.138985 0.082076
v 6.140576 -0.138985 0.065136
v 6.123636 -0.138985 0.041820
v 6.114730 -0.138985 0.014410
v 6.114730 -0.138985 -0.014410
v 6.123636 -0.138985 -0.041820
v 6.140576 -0.138985 -0.065136
v 6.163892 -0.138985 -0.082076
v 6.191302 -0.138985 -0.090982
v 6.220122 -0.138985 -0.090982
v 6.247532 -0.138985 -0.082076
v 6.270848 -0.138985 -0.065136
v 6.287788 -0.138985 -0.041820
v 6.296694 -0.138985 -0.014410
v 6.385421 0.159364 -0.043239
v 6.405044 0.138985 -0.049615
v 6.396138 0.138985 -0.077025
v 6.376515 0.159364 -0.070649
v 6.363264 0.159364 -0.096656
v 6.379956 0.138985 -0.108784
v 6.363016 0.138985 -0.132100
v 6.346324 0.159364 -0.119972
v 6.325685 0.159364 -0.140611
v 6.337812 0.138985 -0.157304
v 6.314496 0.138985 -0.174244
v 6.302369 0.159364 -0.157551
v 6.276361 0.159364 -0.170803
v 6.282737 0.138985 -0.190426
v 6.255328 0.138985 -0.199332
v 6.248952 0.159364 -0.179709
v 6.220122 0.159364 -0.184275
v 6.220122 0.138985 -0.204908
v 6.191302 0.138985 -0.204908
v 6.191302 0.159364 -0.184275
v 6.162473 0.159364 -0.179709
v 6.156097 0.138985 -0.199332
v 6.128687 0.138985 -0.190426
v 6.135063 0.159364 -0.170803
v 6.109056 0.159364 -0.157552
v 6.096928 0.138985 -0.174244
v 6.073612 0.138985 -0.157304
v 6.085740 0.159364 -0.140612
v 6.065101 0.159364 -0.119972
v 6.048408 0.138985 -0.132100
v 6.031468 0.138985 -0.108784
v 6.048161 0.159364 -0.096656
v 6.034909 0.159364 -0.070649
v 6.015286 0.138985 -0.077025
v 6.006380 0.138985 -0.049615
v 6.026003 0.159364 -0.043239
v 6.021437 0.159364 -0.014410
v 6.000804 0.138985 -0.014410
v 6.000804 0.138985 0.014410
v 6.021437 0.159364 0.014410
v 6.026003 0.159364 0.043239
v 6.006380 0.138985 0.049615
v 6.015286 0.138985 0.077025
v 6.034909 0.159364 0.070649
v 6.048161 0.159364 0.096656
v 6.031468 0.138985 0.108784
v 6.048408 0.138985 0.132100
v 6.065101 0.159364 0.119972
v 6.085740 0.159364 0.140611
v 6.073612 0.138985 0.157304
v 6.096928 0.138985 0.174244
v 6.109056 0.159364 0.157551
v 6.135063 0.159364 0.170803
v 6.128687 0.138985 0.190426
v 6.156097 0.138985 0.199332
v 6.162473 0.159364 0.179709
v 6.191302 0.159364 0.184275
v 6.191302 0.138985 0.204908
v 6.220122 0.138985 0.204908
v 6.220122 0.159364 0.184275
v 6.248951 0.159364 0.179709
v 6.255327 0.138985 0.199332
v 6.282737 0.138985 0.190426
v 6.276361 0.159364 0.170803
v 6.302368 0.159364 0.157552
v 6.314496 0.138985 0.174244
v 6.337812 0.138985 0.157304
v 6.325684 0.159364 0.140612
v 6.346324 0.159364 0.119972
v 6.363016 0.138985 0.132100
v 6.379957 0.138985 0.108784
v 6.363264 0.159364 0.096656
v 6.376515 0.159364 0.070649
v 6.396139 0.138985 0.077025
v 6.405045 0.138985 0.049615
v 6.385421 0.159364 0.043239
v 6.389988 0.159364 0.014410
v 6.410621 0.138985 0.014410
v 6.410621 0.138985 -0.014410
v 6.389988 0.159364 -0.014410
v 6.405044 5.207620 -0.049615
v 6.385421 5.187240 -0.043239
v 6.376515 5.187240 -0.070649
v 6.396138 5.207620 -0.077025
v 6.379956 5.207620 -0.108784
v 6.363264 5.187240 -0.096656
v 6.346323 5.187240 -0.119972
v 6.363016 5.207620 -0.132100
v 6.337812 5.207620 -0.157304
v 6.325684 5.187240 -0.140611
v 6.302368 5.187240 -0.157551
v 6.314496 5.207620 -0.174244
v 6.282737 5.207620 -0.190426
v 6.276361 5.187240 -0.170803
v 6.248951 5.187240 -0.179709
v 6.255327 5.207620 -0.199332
v 6.220122 5.207620 -0.204907
v 6.220122 5.187240 -0.184274
v 6.191302 5.187240 -0.184274
v 6.191302 5.207620 -0.204907
v 6.156096 5.207620 -0.199331
v 6.162472 5.187240 -0.179708
v 6.135062 5.187240 -0.170802
v 6.128686 5.207620 -0.190425
v 6.096926 5.207620 -0.174243
v 6.109054 5.187240 -0.157550
v 6.085738 5.187240 -0.140610
v 6.073610 5.207620 -0.157302
v 6.048409 5.207620 -0.132101
v 6.065101 5.187240 -0.119973
v 6.048161 5.187240 -0.096657
v 6.031469 5.207620 -0.108785
v 6.015287 5.207620 -0.077028
v 6.034910 5.187240 -0.070651
v 6.026005 5.187240 -0.043242
v 6.006381 5.207620 -0.049618
v 6.000805 5.207620 -0.014410
v 6.021438 5.187240 -0.014410
v 6.021438 5.187240 0.014410
v 6.000805 5.207620 0.014410
v 6.006381 5.207620 0.049618
v 6.026005 5.187240 0.043242
v 6.034910 5.187240 0.070651
v 6.015287 5.207620 0.077027
v 6.031469 5.207620 0.108787
v 6.048162 5.187240 0.096659
v 6.065102 5.187240 0.119975
v 6.048410 5.207620 0.132103
v 6.073612 5.207620 0.157304
v 6.085739 5.187240 0.140612
v 6.109056 5.187240 0.157552
v 6.096928 5.207620 0.174244
v 6.128686 5.207620 0.190425
v 6.135062 5.187240 0.170802
v 6.162471 5.187240 0.179708
v 6.156095 5.207620 0.199332
v 6.191301 5.207621 0.204908
v 6.191301 5.187241 0.184275
v 6.220122 5.187241 0.184275
v 6.220122 5.207621 0.204908
v 6.255327 5.207620 0.199332
v 6.248951 5.187240 0.179709
v 6.276361 5.187240 0.170803
v 6.282737 5.207620 0.190426
v 6.314496 5.207620 0.174245
v 6.302368 5.187240 0.157552
v 6.325684 5.187240 0.140612
v 6.337812 5.207620 0.157305
v 6.363016 5.207620 0.132100
v 6.346324 5.187240 0.119973
v 6.363264 5.187240 0.096656
v 6.379957 5.207620 0.108784
v 6.396139 5.207620 0.077025
v 6.376515 5.187240 0.070649
v 6.385421 5.187240 0.043239
v 6.405045 5.207620 0.049615
v 6.410621 5.207620 0.014410
v 6.389988 5.187240 0.014410
v 6.389988 5.187240 -0.014410
v 6.410621 5.207620 -0.014410
v 10.001773 5.227957 -1.218305
v 9.982137 5.207620 -1.211880
v 9.973196 5.207620 -1.239323
v 9.992885 5.227958 -1.245660
v 9.439509 5.227965 -2.331734
v 9.422820 5.207626 -2.319555
v 9.405835 5.207626 -2.342892
v 9.422603 5.227965 -2.355003
v 8.560693 5.227965 -3.216893
v 8.548584 5.207626 -3.200152
v 8.525219 5.207626 -3.217099
v 8.537423 5.227965 -3.233799
v 7.451361 5.227958 -3.787195
v 7.445017 5.207620 -3.767532
v 7.417559 5.207620 -3.776429
v 7.424006 5.227958 -3.796083
v 6.220105 5.227972 -3.986735
v 6.220148 5.207635 -3.966074
v 6.191285 5.207636 -3.966051
v 6.191343 5.227973 -3.986734
v 4.987397 5.227979 -3.796044
v 4.993823 5.207641 -3.776408
v 4.966379 5.207641 -3.767468
v 4.960043 5.227979 -3.787156
v 3.873938 5.227973 -3.233766
v 3.886117 5.207636 -3.217077
v 3.862779 5.207636 -3.200093
v 3.850668 5.227973 -3.216860
v 2.988815 5.227965 -2.355040
v 3.005555 5.207626 -2.342931
v 2.988609 5.207626 -2.319566
v 2.971909 5.227965 -2.331771
v 2.418577 5.227958 -1.245728
v 2.438239 5.207620 -1.239385
v 2.429342 5.207620 -1.211926
v 2.409689 5.227958 -1.218373
v 2.218999 5.227958 -0.014388
v 2.239659 5.207620 -0.014431
v 2.239682 5.207620 0.014432
v 2.218999 5.227958 0.014374
v 2.409692 5.227972 1.218338
v 2.429328 5.207635 1.211912
v 2.438268 5.207635 1.239356
v 2.418579 5.227972 1.245693
v 2.971935 5.227958 2.331812
v 2.988624 5.207620 2.319632
v 3.005608 5.207620 2.342970
v 2.988841 5.227957 2.355081
v 3.850705 5.227935 3.216896
v 3.862814 5.207597 3.200155
v 3.886179 5.207597 3.217102
v 3.873974 5.227935 3.233801
v 4.960018 5.227949 3.787147
v 4.966362 5.207612 3.767484
v 4.993820 5.207612 3.776382
v 4.987373 5.227950 3.796035
v 6.191317 5.227972 3.986742
v 6.191273 5.207635 3.966082
v 6.220137 5.207635 3.966059
v 6.220079 5.227972 3.986742
v 7.424015 5.227936 3.796060
v 7.417589 5.207597 3.776423
v 7.445033 5.207597 3.767483
v 7.451370 5.227935 3.787172
v 8.537424 5.227935 3.233807
v 8.525245 5.207597 3.217117
v 8.548583 5.207597 3.200133
v 8.560694 5.227935 3.216901
v 9.422612 5.227927 2.354989
v 9.405871 5.207588 2.342879
v 9.422818 5.207588 2.319515
v 9.439518 5.227927 2.331719
v 9.992894 5.227935 1.245641
v 9.973231 5.207597 1.239297
v 9.982129 5.207597 1.211839
v 10.001782 5.227935 1.218286
v 10.192476 5.227949 0.014369
v 10.171815 5.207612 0.014412
v 10.171792 5.207612 -0.014452
v 10.192476 5.227950 -0.014393
v 10.001776 5.393612 -1.218290
v 9.992886 5.393632 -1.245659
v 9.973223 5.413971 -1.239315
v 9.982138 5.413971 -1.211878
v 9.405863 5.413976 -2.342894
v 9.422810 5.413976 -2.319529
v 9.439516 5.393618 -2.331720
v 9.422592 5.393618 -2.355013
v 6.296695 5.413971 -0.014409
v 6.287788 5.413971 -0.041819
v 6.270849 5.413971 -0.065136
v 6.247532 5.413971 -0.082075
v 6.220123 5.413971 -0.090982
v 6.191303 5.413971 -0.090978
v 6.163893 5.413971 -0.082072
v 6.140571 5.413971 -0.065140
v 6.123634 5.413971 -0.041822
v 6.114736 5.413971 -0.014409
v 6.114735 5.413971 0.014411
v 6.123640 5.413971 0.041821
v 6.140572 5.413970 0.065143
v 6.163891 5.413970 0.082079
v 6.191302 5.413971 0.090980
v 6.220122 5.413971 0.090981
v 6.247533 5.413970 0.082078
v 6.270848 5.413970 0.065137
v 6.287788 5.413970 0.041821
v 6.296694 5.413970 0.014411
v 8.525244 5.413976 -3.217110
v 8.548581 5.413976 -3.200125
v 8.560702 5.393618 -3.216883
v 8.537410 5.393618 -3.233806
v 7.417581 5.413971 -3.776446
v 7.445025 5.413971 -3.767505
v 7.451374 5.393612 -3.787188
v 7.423992 5.393612 -3.796085
v 6.191301 5.413985 -3.966073
v 6.220165 5.413985 -3.966051
v 6.220121 5.393627 -3.986732
v 6.191330 5.393627 -3.986731
v 4.966386 5.413992 -3.767493
v 4.993844 5.413992 -3.776390
v 4.987412 5.393633 -3.796046
v 4.960030 5.393633 -3.787149
v 3.862777 5.413985 -3.200119
v 3.886142 5.413985 -3.217065
v 3.873950 5.393627 -3.233771
v 3.850658 5.393627 -3.216848
v 2.988598 5.413976 -2.319590
v 3.005582 5.413976 -2.342928
v 2.988825 5.393618 -2.355049
v 2.971902 5.393618 -2.331757
v 2.429325 5.413971 -1.211947
v 2.438265 5.413971 -1.239391
v 2.418583 5.393612 -1.245741
v 2.409687 5.393612 -1.218359
v 2.239659 5.413971 0.014416
v 2.239682 5.413971 -0.014447
v 2.219001 5.393612 -0.014404
v 2.219001 5.393612 0.014388
v 2.438242 5.413985 1.239349
v 2.429345 5.413985 1.211891
v 2.409690 5.393627 1.218324
v 2.418586 5.393627 1.245706
v 3.005583 5.413970 2.342974
v 2.988636 5.413971 2.319609
v 2.971930 5.393612 2.331801
v 2.988853 5.393612 2.355093
v 3.886154 5.413947 3.217113
v 3.862815 5.413947 3.200130
v 3.850694 5.393589 3.216887
v 3.873987 5.393589 3.233809
v 4.993796 5.413962 3.776399
v 4.966352 5.413961 3.767458
v 4.960003 5.393603 3.787140
v 4.987385 5.393603 3.796037
v 6.220124 5.413985 3.966081
v 6.191260 5.413985 3.966058
v 6.191304 5.393627 3.986739
v 6.220095 5.393626 3.986740
v 7.445030 5.413947 3.767509
v 7.417571 5.413947 3.776406
v 7.424003 5.393589 3.796062
v 7.451386 5.393589 3.787165
v 8.548586 5.413947 3.200161
v 8.525221 5.413947 3.217108
v 8.537412 5.393589 3.233814
v 8.560705 5.393589 3.216891
v 9.422830 5.413939 2.319541
v 9.405845 5.413939 2.342879
v 9.422602 5.393580 2.354999
v 9.439526 5.393580 2.331707
v 9.982147 5.413947 1.211862
v 9.973206 5.413947 1.239306
v 9.992888 5.393589 1.245656
v 10.001785 5.393589 1.218273
v 10.171815 5.413961 -0.014435
v 10.171793 5.413961 0.014429
v 10.192474 5.393603 0.014385
v 10.192474 5.393603 -0.014406
vt 0.253060 0.488168
vt 0.088153 0.307842
vt 0.088470 0.309219
vt 0.090755 0.320691
vt 0.864786 0.053735
vt 0.865373 0.055024
vt 0.827473 0.065844
vt 0.234425 0.452079
vt 0.235253 0.453220
vt 0.133823 0.526912
vt 0.127083 0.295039
vt 0.127366 0.296429
vt 0.205549 0.423516
vt 0.206690 0.424345
vt 0.132996 0.525773
vt 0.165986 0.282282
vt 0.166268 0.283672
vt 0.169261 0.405273
vt 0.170602 0.405709
vt 0.131857 0.524946
vt 0.204893 0.269530
vt 0.205175 0.270920
vt 0.129111 0.399138
vt 0.130521 0.399138
vt 0.130519 0.524512
vt 0.243803 0.256785
vt 0.244085 0.258175
vt 0.089030 0.405709
vt 0.090371 0.405273
vt 0.129112 0.524512
vt 0.282716 0.244040
vt 0.282996 0.245432
vt 0.052942 0.424344
vt 0.054082 0.423516
vt 0.127774 0.524946
vt 0.321489 0.231301
vt 0.321841 0.232667
vt 0.024378 0.453220
vt 0.025207 0.452079
vt 0.126636 0.525773
vt 0.360451 0.218424
vt 0.360734 0.219813
vt 0.006136 0.489508
vt 0.006572 0.488168
vt 0.125809 0.526912
vt 0.399354 0.205672
vt 0.399636 0.207061
vt 0.000000 0.529658
vt 0.000000 0.528248
vt 0.125374 0.528250
vt 0.438262 0.192921
vt 0.438544 0.194311
vt 0.006571 0.569739
vt 0.006136 0.568398
vt 0.125374 0.529657
vt 0.477172 0.180178
vt 0.477454 0.181568
vt 0.025207 0.605827
vt 0.024378 0.604687
vt 0.125809 0.530995
vt 0.516085 0.167443
vt 0.516367 0.168833
vt 0.054082 0.634391
vt 0.052942 0.633562
vt 0.126636 0.532133
vt 0.555000 0.154715
vt 0.555282 0.156105
vt 0.090371 0.652633
vt 0.089030 0.652198
vt 0.127774 0.532960
vt 0.593918 0.141995
vt 0.594200 0.143385
vt 0.130521 0.658769
vt 0.129111 0.658769
vt 0.129112 0.533395
vt 0.632839 0.129283
vt 0.633120 0.130673
vt 0.170601 0.652198
vt 0.169261 0.652633
vt 0.130519 0.533395
vt 0.671762 0.116578
vt 0.672042 0.117968
vt 0.206690 0.633562
vt 0.205549 0.634391
vt 0.131857 0.532960
vt 0.710687 0.103881
vt 0.710968 0.105272
vt 0.235253 0.604687
vt 0.234425 0.605827
vt 0.132996 0.532133
vt 0.749615 0.091192
vt 0.749895 0.092583
vt 0.253496 0.568398
vt 0.253060 0.569739
vt 0.133823 0.530995
vt 0.788546 0.078511
vt 0.788826 0.079901
vt 0.259631 0.529658
vt 0.134258 0.529657
vt 0.134258 0.528250
vt 0.827756 0.067233
vt 0.815735 0.663693
vt 0.869234 0.067432
vt 0.831933 0.079556
vt 0.831346 0.078267
vt 0.092080 0.320224
vt 0.129638 0.307880
vt 0.129955 0.309258
vt 0.131570 0.308758
vt 0.130974 0.307472
vt 0.168543 0.295115
vt 0.168864 0.296491
vt 0.170474 0.295995
vt 0.169878 0.294709
vt 0.207448 0.282363
vt 0.207768 0.283739
vt 0.209378 0.283243
vt 0.208783 0.281957
vt 0.246355 0.269618
vt 0.246675 0.270994
vt 0.248285 0.270499
vt 0.247690 0.269213
vt 0.285265 0.256885
vt 0.285585 0.258261
vt 0.287203 0.257766
vt 0.286601 0.256482
vt 0.324171 0.244071
vt 0.324527 0.245435
vt 0.326018 0.244943
vt 0.325488 0.243640
vt 0.363003 0.231273
vt 0.363319 0.232652
vt 0.364936 0.232149
vt 0.364341 0.230863
vt 0.401910 0.218505
vt 0.402231 0.219881
vt 0.403841 0.219384
vt 0.403246 0.218099
vt 0.440816 0.205754
vt 0.441136 0.207130
vt 0.442746 0.206634
vt 0.442151 0.205349
vt 0.479724 0.193012
vt 0.480043 0.194388
vt 0.481654 0.193892
vt 0.481059 0.192606
vt 0.518634 0.180277
vt 0.518954 0.181653
vt 0.520564 0.181158
vt 0.519970 0.179872
vt 0.557547 0.167550
vt 0.557866 0.168926
vt 0.559477 0.168431
vt 0.558882 0.167145
vt 0.596462 0.154830
vt 0.596781 0.156206
vt 0.598392 0.155712
vt 0.597798 0.154426
vt 0.635380 0.142118
vt 0.635699 0.143495
vt 0.637310 0.143000
vt 0.636716 0.141714
vt 0.674301 0.129414
vt 0.674619 0.130791
vt 0.676230 0.130297
vt 0.675637 0.129010
vt 0.713224 0.116718
vt 0.713542 0.118094
vt 0.715153 0.117601
vt 0.714560 0.116314
vt 0.752149 0.104030
vt 0.752467 0.105406
vt 0.754078 0.104913
vt 0.753485 0.103626
vt 0.791077 0.091349
vt 0.791395 0.092725
vt 0.793006 0.092232
vt 0.792413 0.090945
vt 0.830009 0.078672
vt 0.830326 0.080049
vt 0.829721 0.627049
vt 0.969031 0.704728
vt 0.712481 0.602360
vt 0.711159 0.605205
vt 0.967148 0.707346
vt 0.709023 0.607503
vt 0.964654 0.708692
vt 0.706281 0.609029
vt 0.962160 0.710037
vt 0.703201 0.609632
vt 0.959666 0.711383
vt 0.700087 0.609254
vt 0.957172 0.712728
vt 0.697241 0.607933
vt 0.954678 0.714074
vt 0.694943 0.605796
vt 0.952178 0.715423
vt 0.693418 0.603054
vt 0.949643 0.716783
vt 0.692815 0.599975
vt 0.997190 0.690970
vt 0.693192 0.596860
vt 0.994619 0.692507
vt 0.694514 0.594015
vt 0.992095 0.693885
vt 0.696650 0.591717
vt 0.989595 0.695236
vt 0.699392 0.590192
vt 0.987100 0.696582
vt 0.702471 0.589588
vt 0.984606 0.697928
vt 0.705586 0.589966
vt 0.982112 0.699273
vt 0.708432 0.591288
vt 0.979618 0.700619
vt 0.710730 0.593424
vt 0.977124 0.701964
vt 0.712255 0.596166
vt 0.974630 0.703310
vt 0.712858 0.599245
vt 0.972136 0.704655
vt 0.970287 0.704053
vt 0.426491 0.420707
vt 0.853738 0.487996
vt 0.851244 0.489342
vt 0.849988 0.490017
vt 0.848750 0.490687
vt 0.847494 0.491362
vt 0.846256 0.492033
vt 0.845000 0.492708
vt 0.843762 0.493378
vt 0.842506 0.494053
vt 0.841268 0.494724
vt 0.840012 0.495399
vt 0.838774 0.496069
vt 0.837518 0.496745
vt 0.836281 0.497416
vt 0.835026 0.498093
vt 0.833791 0.498768
vt 0.832541 0.499454
vt 0.831315 0.500146
vt 0.879960 0.473957
vt 0.878699 0.474580
vt 0.877431 0.475233
vt 0.876188 0.475893
vt 0.874929 0.476563
vt 0.873691 0.477232
vt 0.872434 0.477907
vt 0.871196 0.478577
vt 0.869940 0.479252
vt 0.868702 0.479923
vt 0.867446 0.480598
vt 0.866208 0.481268
vt 0.864953 0.481944
vt 0.863714 0.482614
vt 0.862458 0.483289
vt 0.861220 0.483960
vt 0.859964 0.484635
vt 0.858726 0.485305
vt 0.857470 0.485980
vt 0.856232 0.486651
vt 0.854976 0.487326
vt 0.425395 0.419356
vt 0.029396 0.406075
vt 0.266460 0.511321
vt 0.304801 0.558225
vt 0.009425 0.463222
vt 0.355758 0.590986
vt 0.944082 0.088311
vt 0.414344 0.606396
vt 0.889661 0.061964
vt 0.474826 0.602948
vt 0.833044 0.040755
vt 0.531282 0.580977
vt 0.774707 0.024865
vt 0.578188 0.542636
vt 0.715152 0.014432
vt 0.610949 0.491677
vt 0.654894 0.009544
vt 0.626359 0.433095
vt 0.594440 0.010243
vt 0.622909 0.372617
vt 0.534303 0.016523
vt 0.600939 0.316157
vt 0.475004 0.028330
vt 0.562597 0.269251
vt 0.417050 0.045564
vt 0.511640 0.236486
vt 0.360942 0.068076
vt 0.453056 0.221080
vt 0.307149 0.095674
vt 0.392576 0.224528
vt 0.256133 0.128124
vt 0.336118 0.246496
vt 0.208334 0.165149
vt 0.289214 0.284838
vt 0.164159 0.206427
vt 0.256453 0.335795
vt 0.123985 0.251611
vt 0.241043 0.394383
vt 0.088156 0.300313
vt 0.244491 0.454865
vt 0.056978 0.352114
vt 0.055099 0.352650
vt 0.047916 0.348904
vt 0.021400 0.404213
vt 0.897459 0.464867
vt 0.944078 0.428071
vt 1.000000 0.110377
vt 0.839808 0.484876
vt 0.895516 0.464289
vt 0.808161 0.296474
vt 0.979070 0.378620
vt 0.806920 0.297133
vt 0.839530 0.483484
vt 0.805533 0.297374
vt 0.804141 0.297181
vt 0.802878 0.296560
vt 0.801866 0.295580
vt 0.801208 0.294339
vt 0.800967 0.292952
vt 0.801165 0.291560
vt 0.801781 0.290297
vt 0.802760 0.289285
vt 0.804002 0.288627
vt 0.805389 0.288381
vt 0.806780 0.288579
vt 0.808049 0.289200
vt 0.809055 0.290179
vt 0.809714 0.291421
vt 0.809960 0.292808
vt 0.947305 0.079251
vt 0.778795 0.486097
vt 0.778961 0.484683
vt 0.892037 0.052649
vt 0.720400 0.468400
vt 0.720989 0.467110
vt 0.834549 0.031260
vt 0.670324 0.433520
vt 0.671282 0.432476
vt 0.775328 0.015272
vt 0.633474 0.384873
vt 0.634711 0.384177
vt 0.714884 0.004822
vt 0.613465 0.327232
vt 0.614857 0.326949
vt 0.653740 0.000000
vt 0.612250 0.266220
vt 0.613658 0.266386
vt 0.592409 0.000847
vt 0.629946 0.207814
vt 0.631237 0.208408
vt 0.531413 0.007354
vt 0.664826 0.157737
vt 0.665870 0.158701
vt 0.471280 0.019467
vt 0.713468 0.120888
vt 0.714164 0.122124
vt 0.412523 0.037083
vt 0.771114 0.100884
vt 0.771392 0.102270
vt 0.355651 0.060050
vt 0.832121 0.099663
vt 0.831961 0.101076
vt 0.301140 0.088171
vt 0.890527 0.117360
vt 0.889938 0.118650
vt 0.249456 0.121207
vt 0.940604 0.152240
vt 0.939640 0.153284
vt 0.201046 0.158878
vt 0.977448 0.200882
vt 0.976211 0.201578
vt 0.156324 0.200857
vt 0.997457 0.258533
vt 0.996071 0.258811
vt 0.115669 0.246789
vt 0.998678 0.319546
vt 0.997270 0.319380
vt 0.079430 0.296278
vt 0.980981 0.377946
vt 0.979691 0.377357
vt 0.126038 0.296890
vt 0.164938 0.284135
vt 0.203845 0.271382
vt 0.242755 0.258637
vt 0.281666 0.245896
vt 0.320521 0.233103
vt 0.359406 0.220273
vt 0.398306 0.207524
vt 0.437214 0.194773
vt 0.476124 0.182030
vt 0.515036 0.169295
vt 0.553951 0.156567
vt 0.592869 0.143847
vt 0.631789 0.131134
vt 0.670712 0.118429
vt 0.709637 0.105732
vt 0.748564 0.093043
vt 0.787494 0.080361
vt 0.826426 0.067690
vt 0.868952 0.066043
vt 0.253496 0.489509
vt 0.259631 0.528248
vt 0.896763 0.463630
vt 0.838143 0.483731
vt 0.777564 0.484485
vt 0.719720 0.466489
vt 0.670270 0.431497
vt 0.634052 0.382935
vt 0.614610 0.325562
vt 0.613856 0.264988
vt 0.631852 0.207139
vt 0.666850 0.157689
vt 0.715411 0.121466
vt 0.772784 0.102029
vt 0.833352 0.101275
vt 0.891201 0.119271
vt 0.940652 0.154263
vt 0.976875 0.202825
vt 0.996312 0.260198
vt 0.997072 0.320777
vt 0.809762 0.294199
vt 0.945057 0.427059
vt 0.809141 0.295463
vt 0.815032 0.664915
vt 0.790406 0.695444
vt 0.789360 0.696389
vt 0.756506 0.717814
vt 0.755219 0.718390
vt 0.717352 0.728614
vt 0.715950 0.728764
vt 0.676777 0.726785
vt 0.675398 0.726495
vt 0.638754 0.712508
vt 0.637531 0.711806
vt 0.607002 0.687180
vt 0.606057 0.686134
vt 0.584632 0.653280
vt 0.584056 0.651993
vt 0.573833 0.614126
vt 0.573683 0.612724
vt 0.575661 0.573551
vt 0.575952 0.572172
vt 0.589938 0.535527
vt 0.590641 0.534305
vt 0.615266 0.503776
vt 0.616312 0.502831
vt 0.649167 0.481406
vt 0.650454 0.480830
vt 0.688321 0.470607
vt 0.689722 0.470456
vt 0.728895 0.472435
vt 0.730275 0.472725
vt 0.766919 0.486712
vt 0.768142 0.487414
vt 0.798670 0.512040
vt 0.799616 0.513086
vt 0.821040 0.545940
vt 0.821616 0.547227
vt 0.831840 0.585094
vt 0.831990 0.586496
vt 0.830012 0.625669
vt 0.969642 0.706001
vt 0.967793 0.705399
vt 0.966537 0.706074
vt 0.965299 0.706744
vt 0.964043 0.707419
vt 0.962805 0.708090
vt 0.961549 0.708765
vt 0.960311 0.709435
vt 0.959055 0.710110
vt 0.957817 0.710781
vt 0.956561 0.711456
vt 0.955323 0.712126
vt 0.954067 0.712801
vt 0.952829 0.713471
vt 0.951572 0.714145
vt 0.950331 0.714811
vt 0.949070 0.715476
vt 0.947820 0.716123
vt 0.996419 0.689847
vt 0.995204 0.690556
vt 0.993960 0.691254
vt 0.992728 0.691935
vt 0.991475 0.692615
vt 0.990238 0.693288
vt 0.988983 0.693964
vt 0.987745 0.694634
vt 0.986489 0.695309
vt 0.985251 0.695980
vt 0.983995 0.696655
vt 0.982757 0.697325
vt 0.981501 0.698000
vt 0.980263 0.698671
vt 0.979007 0.699346
vt 0.977769 0.700016
vt 0.976513 0.700691
vt 0.975275 0.701362
vt 0.974019 0.702037
vt 0.972781 0.702707
vt 0.971525 0.703382
vt 0.852482 0.488671
vt 0.850633 0.488069
vt 0.428997 0.422596
vt 0.848139 0.489414
vt 0.431965 0.423616
vt 0.845645 0.490760
vt 0.435102 0.423668
vt 0.843151 0.492105
vt 0.438101 0.422750
vt 0.840657 0.493451
vt 0.440671 0.420948
vt 0.838163 0.494796
vt 0.442557 0.418440
vt 0.835666 0.496144
vt 0.443577 0.415474
vt 0.833158 0.497503
vt 0.443631 0.412337
vt 0.830610 0.498924
vt 0.442711 0.409336
vt 0.878185 0.473244
vt 0.440911 0.406768
vt 0.875591 0.474605
vt 0.438404 0.404880
vt 0.873081 0.475958
vt 0.435437 0.403860
vt 0.870585 0.477305
vt 0.432300 0.403808
vt 0.868091 0.478650
vt 0.429299 0.404726
vt 0.865597 0.479996
vt 0.426730 0.406528
vt 0.863103 0.481341
vt 0.424843 0.409035
vt 0.860609 0.482687
vt 0.423823 0.412002
vt 0.858115 0.484032
vt 0.423771 0.415139
vt 0.855621 0.485378
vt 0.424689 0.418140
vt 0.030717 0.406574
vt 0.028894 0.407281
vt 0.008059 0.462859
vt 0.995815 0.117321
vt 0.944702 0.087044
vt 0.943549 0.086430
vt 0.890162 0.060644
vt 0.888957 0.060142
vt 0.833421 0.039394
vt 0.832175 0.039005
vt 0.774957 0.023475
vt 0.773680 0.023203
vt 0.715272 0.013025
vt 0.713976 0.012872
vt 0.654884 0.008132
vt 0.653579 0.008099
vt 0.594299 0.008838
vt 0.592997 0.008926
vt 0.534033 0.015137
vt 0.532744 0.015345
vt 0.474607 0.026975
vt 0.473343 0.027301
vt 0.416530 0.044252
vt 0.415301 0.044693
vt 0.360303 0.066817
vt 0.359120 0.067370
vt 0.306397 0.094480
vt 0.305271 0.095139
vt 0.255273 0.127004
vt 0.254213 0.127765
vt 0.207374 0.164113
vt 0.206389 0.164969
vt 0.163108 0.205485
vt 0.162205 0.206428
vt 0.122851 0.250770
vt 0.122040 0.251792
vt 0.086949 0.299579
vt 0.086236 0.300672
vt 0.055709 0.351496
vt 0.946101 0.428023
vt 0.087130 0.309621
vt 0.086776 0.308230
vt 0.126824 0.295086
vt 0.125475 0.295596
vt 0.165729 0.282330
vt 0.164380 0.282840
vt 0.204637 0.269578
vt 0.203287 0.270087
vt 0.243546 0.256833
vt 0.242196 0.257341
vt 0.282458 0.244091
vt 0.281108 0.244601
vt 0.319995 0.231798
vt 0.360188 0.218469
vt 0.358839 0.218981
vt 0.399097 0.205720
vt 0.397747 0.206229
vt 0.438005 0.192969
vt 0.436655 0.193478
vt 0.476916 0.180226
vt 0.475565 0.180735
vt 0.515829 0.167490
vt 0.514478 0.167999
vt 0.554744 0.154763
vt 0.553394 0.155271
vt 0.593662 0.142043
vt 0.592311 0.142551
vt 0.632582 0.129330
vt 0.631232 0.129838
vt 0.671505 0.116626
vt 0.670155 0.117133
vt 0.710431 0.103929
vt 0.709080 0.104436
vt 0.749359 0.091240
vt 0.748008 0.091747
vt 0.788289 0.078558
vt 0.786938 0.079065
vt 0.827220 0.065889
vt 0.825870 0.066394
vt 0.091295 0.322031
vt 0.092643 0.321518
vt 0.131330 0.308866
vt 0.170237 0.296100
vt 0.209142 0.283348
vt 0.248049 0.270604
vt 0.286959 0.257872
vt 0.364694 0.232261
vt 0.403605 0.219489
vt 0.442510 0.206739
vt 0.481418 0.193997
vt 0.520328 0.181263
vt 0.559240 0.168536
vt 0.598156 0.155817
vt 0.637073 0.143105
vt 0.675994 0.130401
vt 0.714916 0.117705
vt 0.753842 0.105017
vt 0.792769 0.092336
vt 0.831701 0.079660
vt 0.854239 0.486120
vt 0.853127 0.486723
vt 0.424064 0.416516
vt 0.856733 0.484775
vt 0.423677 0.413401
vt 0.859227 0.483429
vt 0.424272 0.410320
vt 0.861721 0.482083
vt 0.425790 0.407574
vt 0.864215 0.480738
vt 0.428081 0.405431
vt 0.866709 0.479392
vt 0.430923 0.404103
vt 0.869203 0.478047
vt 0.434038 0.403716
vt 0.871697 0.476701
vt 0.437117 0.404309
vt 0.874196 0.475353
vt 0.439863 0.405826
vt 0.876729 0.473994
vt 0.442008 0.408119
vt 0.879439 0.472672
vt 0.443337 0.410962
vt 0.831754 0.498272
vt 0.443723 0.414075
vt 0.834279 0.496891
vt 0.443128 0.417156
vt 0.836780 0.495539
vt 0.441611 0.419902
vt 0.839275 0.494193
vt 0.439320 0.422044
vt 0.841769 0.492848
vt 0.436477 0.423373
vt 0.844263 0.491502
vt 0.433364 0.423760
vt 0.846757 0.490157
vt 0.430283 0.423167
vt 0.849251 0.488811
vt 0.427537 0.421650
vt 0.851745 0.487466
vt 0.998469 0.321012
vt 0.048649 0.347571
vt 0.997714 0.259989
vt 0.080282 0.295019
vt 0.978144 0.202193
vt 0.116634 0.245614
vt 0.941669 0.153268
vt 0.157393 0.199776
vt 0.891860 0.118013
vt 0.202211 0.157901
vt 0.833588 0.099872
vt 0.250706 0.120342
vt 0.772575 0.100627
vt 0.302465 0.087424
vt 0.714780 0.120197
vt 0.357039 0.059429
vt 0.665854 0.156672
vt 0.413962 0.036593
vt 0.630594 0.206486
vt 0.472758 0.019112
vt 0.612453 0.264753
vt 0.532918 0.007137
vt 0.613208 0.325771
vt 0.593928 0.000770
vt 0.632778 0.383567
vt 0.655259 0.000064
vt 0.669258 0.432487
vt 0.716391 0.005025
vt 0.719067 0.467747
vt 0.776810 0.015614
vt 0.777329 0.485888
vt 0.835992 0.031737
vt 0.838352 0.485133
vt 0.893430 0.053257
vt 0.896148 0.465563
vt 0.948637 0.079983
vt 0.945073 0.429082
vt 0.000451 0.460161
vt 0.980333 0.379279
vt 0.022005 0.402819
vt 0.087377 0.301506
vt 0.265752 0.510102
vt 0.123099 0.252728
vt 0.244196 0.453486
vt 0.163173 0.207458
vt 0.241187 0.392980
vt 0.207257 0.166083
vt 0.257025 0.334506
vt 0.254975 0.128955
vt 0.290154 0.283789
vt 0.305920 0.096395
vt 0.337337 0.245791
vt 0.359651 0.068680
vt 0.393955 0.224233
vt 0.415708 0.046046
vt 0.454459 0.221224
vt 0.473624 0.028686
vt 0.512929 0.237058
vt 0.532896 0.016751
vt 0.563648 0.270191
vt 0.593017 0.010340
vt 0.601646 0.317376
vt 0.653469 0.009509
vt 0.623206 0.373994
vt 0.713736 0.014265
vt 0.626215 0.434498
vt 0.773313 0.024568
vt 0.610378 0.492966
vt 0.831683 0.040330
vt 0.577246 0.543687
vt 0.888345 0.061416
vt 0.530063 0.581685
vt 0.942821 0.087642
vt 0.473449 0.603243
vt 0.009012 0.464585
vt 0.412943 0.606252
vt 0.030169 0.407890
vt 0.354469 0.590414
vt 0.056312 0.353375
vt 0.303752 0.557283
vt 0.830083 0.500864
vt 0.829189 0.499822
vt 0.973518 0.703913
vt 0.712770 0.600983
vt 0.976012 0.702567
vt 0.712708 0.597846
vt 0.978506 0.701222
vt 0.711680 0.594882
vt 0.981000 0.699876
vt 0.709786 0.592380
vt 0.983494 0.698531
vt 0.707212 0.590586
vt 0.985988 0.697186
vt 0.704209 0.589676
vt 0.988482 0.695840
vt 0.701072 0.589738
vt 0.990979 0.694492
vt 0.698108 0.590766
vt 0.993489 0.693131
vt 0.695606 0.592660
vt 0.996039 0.691701
vt 0.693813 0.595235
vt 0.946542 0.716753
vt 0.692902 0.598237
vt 0.946921 0.718097
vt 0.948472 0.717393
vt 0.951056 0.716031
vt 0.692964 0.601374
vt 0.953565 0.714678
vt 0.693993 0.604339
vt 0.956060 0.713332
vt 0.695887 0.606840
vt 0.958554 0.711986
vt 0.698461 0.608634
vt 0.961048 0.710641
vt 0.701464 0.609544
vt 0.963542 0.709295
vt 0.704601 0.609482
vt 0.966036 0.707950
vt 0.707565 0.608454
vt 0.968530 0.706604
vt 0.710066 0.606560
vt 0.971024 0.705258
vt 0.711860 0.603986
vt 0.007636 0.464193
vt 0.994949 0.118445
vt 0.000000 0.461497
vn 0.000000 -1.000000 -0.000000
vn 0.000000 -1.000000 0.000000
vn 0.000000 -1.000000 0.000000
vn 0.000000 -1.000000 -0.000000
vn 0.630373 -0.708651 -0.316929
vn 0.630370 -0.708650 -0.316937
vn 0.626927 -0.708652 -0.323690
vn 0.626890 -0.708657 -0.323751
vn 0.986842 0.000001 -0.161690
vn 0.893451 0.000000 -0.449161
vn 0.893412 0.000000 -0.449239
vn 0.986827 0.000001 -0.161777
vn 0.696269 -0.708652 -0.114115
vn 0.696252 -0.708657 -0.114184
vn 0.697457 -0.708651 -0.106620
vn 0.697456 -0.708650 -0.106629
vn 0.000000 -1.000000 0.000000
vn 0.000000 -1.000000 -0.000000
vn 0.000000 -1.000000 0.000000
vn 0.501584 -0.708650 -0.496214
vn 0.501579 -0.708650 -0.496220
vn 0.496217 -0.708651 -0.501579
vn 0.496163 -0.708657 -0.501625
vn 0.888576 0.000000 -0.458729
vn 0.710924 0.000000 -0.703269
vn 0.710862 0.000000 -0.703331
vn 0.888536 0.000000 -0.458807
vn 0.000000 -1.000000 0.000000
vn 0.000000 -1.000000 0.000000
vn 0.000000 -1.000000 -0.000000
vn 0.323696 -0.708651 -0.626925
vn 0.323689 -0.708650 -0.626929
vn 0.316935 -0.708652 -0.630369
vn 0.316869 -0.708657 -0.630396
vn 0.703331 0.000000 -0.710863
vn 0.458807 -0.000000 -0.888536
vn 0.458729 -0.000000 -0.888576
vn 0.703268 0.000000 -0.710925
vn 0.000000 -1.000000 -0.000000
vn 0.000000 -1.000000 -0.000000
vn 0.000000 -1.000000 -0.000000
vn 0.114123 -0.708649 -0.696270
vn 0.114115 -0.708649 -0.696272
vn 0.106628 -0.708650 -0.697456
vn 0.106556 -0.708656 -0.697462
vn 0.449239 -0.000000 -0.893412
vn 0.161778 -0.000001 -0.986827
vn 0.161692 -0.000001 -0.986841
vn 0.449161 -0.000000 -0.893451
vn 0.000000 -1.000000 0.000000
vn 0.000000 -1.000000 -0.000000
vn 0.000000 -1.000000 -0.000000
vn -0.106621 -0.708651 -0.697456
vn -0.106629 -0.708651 -0.697455
vn -0.114116 -0.708652 -0.696268
vn -0.114185 -0.708658 -0.696251
vn 0.151172 -0.000001 -0.988507
vn -0.151085 0.000001 -0.988521
vn -0.151172 0.000001 -0.988507
vn 0.151085 -0.000001 -0.988521
vn 0.000000 -1.000000 -0.000000
vn 0.000000 -1.000000 -0.000000
vn 0.000000 -1.000000 -0.000000
vn -0.316929 -0.708653 -0.630371
vn -0.316936 -0.708652 -0.630368
vn -0.323689 -0.708653 -0.626925
vn -0.323750 -0.708659 -0.626888
vn -0.161692 0.000001 -0.986841
vn -0.449161 0.000000 -0.893451
vn -0.449240 0.000000 -0.893411
vn -0.161778 0.000001 -0.986827
vn 0.000000 -1.000000 0.000000
vn 0.000000 -1.000000 0.000000
vn 0.000000 -1.000000 0.000000
vn -0.496214 -0.708651 -0.501584
vn -0.496220 -0.708650 -0.501578
vn -0.501579 -0.708652 -0.496217
vn -0.501625 -0.708657 -0.496163
vn -0.458729 0.000000 -0.888576
vn -0.703269 -0.000000 -0.710924
vn -0.703331 -0.000000 -0.710862
vn -0.458807 0.000000 -0.888536
vn 0.000000 -1.000000 -0.000000
vn 0.000000 -1.000000 0.000000
vn 0.000000 -1.000000 -0.000000
vn -0.626925 -0.708651 -0.323696
vn -0.626929 -0.708650 -0.323689
vn -0.630369 -0.708652 -0.316935
vn -0.630396 -0.708657 -0.316868
vn -0.710863 -0.000000 -0.703331
vn -0.888536 0.000000 -0.458807
vn -0.888576 0.000000 -0.458729
vn -0.710925 -0.000000 -0.703268
vn 0.000000 -1.000000 0.000000
vn 0.000000 -1.000000 -0.000000
vn 0.000000 -1.000000 0.000000
vn -0.696269 -0.708651 -0.114123
vn -0.696271 -0.708650 -0.114115
vn -0.697455 -0.708652 -0.106628
vn -0.697460 -0.708657 -0.106557
vn -0.893412 0.000000 -0.449239
vn -0.986827 -0.000001 -0.161778
vn -0.986841 -0.000001 -0.161692
vn -0.893451 0.000000 -0.449161
vn 0.000000 -1.000000 -0.000000
vn 0.000000 -1.000000 0.000000
vn 0.000000 -1.000000 -0.000000
vn -0.697452 -0.708655 0.106621
vn -0.697452 -0.708655 0.106629
vn -0.696264 -0.708656 0.114115
vn -0.696247 -0.708662 0.114185
vn -0.988507 -0.000001 -0.151172
vn -0.988521 0.000001 0.151086
vn -0.988507 0.000001 0.151172
vn -0.988521 -0.000001 -0.151086
vn 0.000000 -1.000000 0.000000
vn 0.000000 -1.000000 -0.000000
vn 0.000000 -1.000000 0.000000
vn -0.630375 -0.708649 0.316930
vn -0.630372 -0.708648 0.316938
vn -0.626929 -0.708649 0.323691
vn -0.626891 -0.708655 0.323752
vn -0.986841 0.000001 0.161692
vn -0.893451 0.000000 0.449161
vn -0.893412 0.000000 0.449239
vn -0.986827 0.000001 0.161778
vn 0.000000 -1.000000 -0.000000
vn 0.000000 -1.000000 0.000000
vn 0.000000 -1.000000 -0.000000
vn -0.501586 -0.708648 0.496215
vn -0.501580 -0.708648 0.496221
vn -0.496219 -0.708649 0.501580
vn -0.496164 -0.708655 0.501627
vn -0.888576 0.000000 0.458729
vn -0.710924 0.000000 0.703269
vn -0.710862 0.000000 0.703331
vn -0.888536 0.000000 0.458807
vn 0.000000 -1.000000 0.000000
vn 0.000000 -1.000000 -0.000000
vn 0.000000 -1.000000 0.000000
vn -0.323697 -0.708650 0.626925
vn -0.323690 -0.708650 0.626930
vn -0.316935 -0.708651 0.630369
vn -0.316869 -0.708657 0.630396
vn -0.703331 0.000000 0.710863
vn -0.458807 0.000000 0.888536
vn -0.458729 0.000000 0.888576
vn -0.703269 0.000000 0.710924
vn 0.000000 -1.000000 0.000000
vn 0.000000 -1.000000 0.000000
vn 0.000000 -1.000000 0.000000
vn -0.114123 -0.708648 0.696271
vn -0.114115 -0.708647 0.696273
vn -0.106628 -0.708649 0.697458
vn -0.106557 -0.708655 0.697463
vn -0.449239 0.000000 0.893411
vn -0.161778 -0.000001 0.986827
vn -0.161692 -0.000001 0.986841
vn -0.449161 0.000000 0.893451
vn 0.000000 -1.000000 0.000000
vn 0.000000 -1.000000 0.000000
vn 0.000000 -1.000000 0.000000
vn 0.106621 -0.708652 0.697456
vn 0.106630 -0.708651 0.697455
vn 0.114116 -0.708653 0.696268
vn 0.114185 -0.708658 0.696251
vn -0.151172 -0.000001 0.988508
vn 0.151086 0.000001 0.988521
vn 0.151172 0.000001 0.988507
vn -0.151085 -0.000001 0.988521
vn 0.000000 -1.000000 0.000000
vn 0.000000 -1.000000 0.000000
vn 0.000000 -1.000000 0.000000
vn 0.316930 -0.708650 0.630374
vn 0.316937 -0.708649 0.630370
vn 0.323690 -0.708651 0.626928
vn 0.323751 -0.708656 0.626890
vn 0.161692 0.000001 0.986841
vn 0.449161 0.000000 0.893451
vn 0.449239 0.000000 0.893411
vn 0.161779 0.000001 0.986827
vn 0.000000 -1.000000 -0.000000
vn 0.000000 -1.000000 0.000000
vn 0.000000 -1.000000 -0.000000
vn 0.496213 -0.708651 0.501584
vn 0.496220 -0.708650 0.501578
vn 0.501579 -0.708652 0.496217
vn 0.501625 -0.708657 0.496163
vn 0.458729 0.000000 0.888576
vn 0.703269 0.000000 0.710924
vn 0.703331 0.000000 0.710862
vn 0.458807 0.000000 0.888536
vn 0.000000 -1.000000 0.000000
vn 0.000000 -1.000000 -0.000000
vn 0.000000 -1.000000 0.000000
vn 0.626925 -0.708651 0.323696
vn 0.626929 -0.708650 0.323689
vn 0.630369 -0.708652 0.316934
vn 0.630396 -0.708657 0.316868
vn 0.710862 0.000000 0.703331
vn 0.888536 0.000000 0.458807
vn 0.888576 0.000000 0.458729
vn 0.710924 0.000000 0.703269
vn 0.000000 -1.000000 -0.000000
vn 0.000000 -1.000000 0.000000
vn 0.000000 -1.000000 -0.000000
vn 0.696268 -0.708651 0.114123
vn 0.696270 -0.708650 0.114115
vn 0.697455 -0.708652 0.106628
vn 0.697460 -0.708657 0.106557
vn 0.893412 0.000000 0.449239
vn 0.986827 0.000000 0.161779
vn 0.986841 0.000000 0.161692
vn 0.893451 0.000000 0.449161
vn 0.000000 -1.000000 0.000000
vn 0.000000 -1.000000 -0.000000
vn 0.988507 0.000000 0.151172
vn 0.988521 0.000001 -0.151084
vn 0.988508 0.000001 -0.151171
vn 0.988521 0.000000 0.151086
vn 0.000000 1.000000 0.000000
vn 0.000000 1.000000 0.000000
vn 0.000000 1.000000 0.000000
vn 0.000000 1.000000 0.000000
vn 0.696273 0.708646 -0.114122
vn 0.696275 0.708646 -0.114114
vn 0.697460 0.708647 -0.106627
vn 0.697465 0.708653 -0.106556
vn 0.630369 0.708651 -0.316935
vn 0.630396 0.708657 -0.316868
vn 0.626925 0.708651 -0.323696
vn 0.626930 0.708650 -0.323689
vn 0.000000 1.000000 0.000000
vn 0.000000 1.000000 0.000000
vn 0.000000 1.000000 0.000000
vn 0.000000 1.000000 0.000000
vn 0.501579 0.708651 -0.496218
vn 0.501625 0.708657 -0.496163
vn 0.496213 0.708651 -0.501584
vn 0.496220 0.708650 -0.501579
vn 0.000000 1.000000 0.000000
vn 0.000000 1.000000 -0.000000
vn 0.000000 1.000000 -0.000000
vn 0.000000 1.000000 0.000000
vn 0.323690 0.708652 -0.626927
vn 0.323750 0.708658 -0.626889
vn 0.316929 0.708651 -0.630372
vn 0.316936 0.708651 -0.630369
vn 0.000000 1.000000 -0.000000
vn 0.000000 1.000000 -0.000000
vn 0.000000 1.000000 -0.000000
vn 0.000000 1.000000 -0.000000
vn 0.114116 0.708653 -0.696268
vn 0.114185 0.708658 -0.696251
vn 0.106621 0.708652 -0.697456
vn 0.106630 0.708651 -0.697455
vn 0.000000 1.000000 -0.000000
vn -0.000000 1.000000 -0.000000
vn -0.000000 1.000000 -0.000000
vn 0.000000 1.000000 -0.000000
vn -0.106628 0.708650 -0.697456
vn -0.106556 0.708656 -0.697462
vn -0.114123 0.708649 -0.696270
vn -0.114115 0.708649 -0.696272
vn -0.000000 1.000000 -0.000000
vn -0.000000 1.000000 0.000000
vn -0.000000 1.000000 0.000000
vn -0.000000 1.000000 -0.000000
vn -0.316935 0.708652 -0.630368
vn -0.316869 0.708658 -0.630395
vn -0.323696 0.708651 -0.626924
vn -0.323689 0.708651 -0.626928
vn -0.000000 1.000000 0.000000
vn 0.000000 1.000000 0.000000
vn 0.000000 1.000000 0.000000
vn -0.000000 1.000000 0.000000
vn -0.496216 0.708654 -0.501577
vn -0.496162 0.708659 -0.501623
vn -0.501582 0.708653 -0.496212
vn -0.501577 0.708652 -0.496218
vn 0.000000 1.000000 0.000000
vn 0.000000 1.000000 0.000000
vn 0.000000 1.000000 0.000000
vn 0.000000 1.000000 0.000000
vn -0.626927 0.708652 -0.323690
vn -0.626890 0.708657 -0.323751
vn -0.630373 0.708651 -0.316929
vn -0.630370 0.708650 -0.316937
vn 0.000000 1.000000 0.000000
vn -0.000000 1.000000 -0.000000
vn -0.000000 1.000000 -0.000000
vn 0.000000 1.000000 0.000000
vn -0.696264 0.708656 -0.114115
vn -0.696247 0.708662 -0.114185
vn -0.697452 0.708655 -0.106621
vn -0.697452 0.708655 -0.106629
vn -0.000000 1.000000 -0.000000
vn -0.000000 1.000000 0.000000
vn -0.000000 1.000000 0.000000
vn -0.000000 1.000000 -0.000000
vn -0.697455 0.708652 0.106628
vn -0.697460 0.708657 0.106557
vn -0.696269 0.708651 0.114123
vn -0.696271 0.708650 0.114115
vn -0.000000 1.000000 -0.000000
vn 0.000000 1.000000 -0.000000
vn 0.000000 1.000000 -0.000000
vn -0.000000 1.000000 0.000000
vn -0.630371 0.708649 0.316936
vn -0.630398 0.708655 0.316869
vn -0.626927 0.708649 0.323697
vn -0.626931 0.708648 0.323690
vn 0.000000 1.000000 0.000000
vn 0.000000 1.000000 -0.000000
vn 0.000000 1.000000 -0.000000
vn 0.000000 1.000000 0.000000
vn -0.501580 0.708650 0.496219
vn -0.501626 0.708655 0.496164
vn -0.496215 0.708649 0.501586
vn -0.496221 0.708648 0.501580
vn 0.000000 1.000000 -0.000000
vn 0.000000 1.000000 0.000000
vn 0.000000 1.000000 0.000000
vn 0.000000 1.000000 -0.000000
vn -0.323690 0.708651 0.626928
vn -0.323751 0.708656 0.626890
vn -0.316930 0.708650 0.630374
vn -0.316937 0.708649 0.630371
vn 0.000000 1.000000 0.000000
vn 0.000000 1.000000 0.000000
vn 0.000000 1.000000 0.000000
vn 0.000000 1.000000 0.000000
vn -0.114116 0.708652 0.696268
vn -0.114185 0.708658 0.696251
vn -0.106621 0.708651 0.697456
vn -0.106630 0.708651 0.697455
vn 0.000000 1.000000 0.000000
vn 0.000000 1.000000 0.000000
vn 0.000000 1.000000 0.000000
vn 0.000000 1.000000 0.000000
vn 0.106628 0.708649 0.697457
vn 0.106557 0.708655 0.697463
vn 0.114124 0.708648 0.696271
vn 0.114116 0.708648 0.696273
vn 0.000000 1.000000 0.000000
vn 0.000000 1.000000 0.000000
vn 0.000000 1.000000 0.000000
vn 0.000000 1.000000 0.000000
vn 0.316935 0.708650 0.630370
vn 0.316869 0.708656 0.630398
vn 0.323697 0.708649 0.626926
vn 0.323690 0.708649 0.626931
vn 0.000000 1.000000 0.000000
vn 0.000000 1.000000 0.000000
vn 0.000000 1.000000 0.000000
vn 0.000000 1.000000 0.000000
vn 0.496217 0.708652 0.501579
vn 0.496163 0.708657 0.501625
vn 0.501584 0.708651 0.496213
vn 0.501578 0.708650 0.496220
vn 0.000000 1.000000 -0.000000
vn 0.000000 1.000000 -0.000000
vn 0.000000 1.000000 -0.000000
vn 0.000000 1.000000 -0.000000
vn 0.626927 0.708652 0.323689
vn 0.626889 0.708657 0.323750
vn 0.630373 0.708651 0.316929
vn 0.630370 0.708650 0.316936
vn 0.000000 1.000000 0.000000
vn 0.000000 1.000000 0.000000
vn 0.000000 1.000000 0.000000
vn 0.000000 1.000000 0.000000
vn 0.696268 0.708652 0.114116
vn 0.696252 0.708658 0.114186
vn 0.697457 0.708651 0.106622
vn 0.697456 0.708650 0.106630
vn 0.000000 1.000000 0.000000
vn 0.000000 1.000000 0.000000
vn 0.000000 1.000000 0.000000
vn 0.000000 1.000000 0.000000
vn 0.972485 0.000000 -0.232966
vn 0.923688 0.000000 -0.383146
vn 0.923688 0.000000 -0.383146
vn 0.972485 0.000000 -0.232967
vn 0.685206 0.710261 -0.161311
vn 0.685284 0.710249 -0.161034
vn 0.701505 0.710250 -0.058622
vn 0.701516 0.710262 -0.058334
vn 0.649058 0.710250 -0.272525
vn 0.649158 0.710262 -0.272254
vn 0.601825 0.710262 -0.365150
vn 0.601984 0.710250 -0.364911
vn 0.852901 0.000000 -0.522072
vn 0.760079 0.000000 -0.649830
vn 0.760079 0.000000 -0.649830
vn 0.852901 0.000000 -0.522072
vn 0.533074 0.710250 -0.459757
vn 0.533253 0.710262 -0.459531
vn 0.459530 0.710261 -0.533256
vn 0.459756 0.710249 -0.533077
vn 0.649826 0.000000 -0.760083
vn 0.522076 0.000000 -0.852899
vn 0.522076 0.000000 -0.852899
vn 0.649826 0.000000 -0.760083
vn 0.364915 0.710249 -0.601982
vn 0.365155 0.710261 -0.601823
vn 0.272259 0.710262 -0.649156
vn 0.272529 0.710250 -0.649056
vn 0.383148 0.000000 -0.923687
vn 0.232956 0.000000 -0.972487
vn 0.232956 0.000000 -0.972487
vn 0.383148 0.000000 -0.923687
vn 0.161029 0.710250 -0.685285
vn 0.161306 0.710262 -0.685207
vn 0.058327 0.710261 -0.701517
vn 0.058615 0.710250 -0.701505
vn 0.078950 0.000000 -0.996879
vn -0.078962 0.000000 -0.996878
vn -0.078962 0.000000 -0.996878
vn 0.078950 0.000000 -0.996879
vn -0.058618 0.710250 -0.701505
vn -0.058330 0.710262 -0.701517
vn -0.161307 0.710261 -0.685207
vn -0.161029 0.710249 -0.685285
vn -0.232960 0.000000 -0.972486
vn -0.383145 0.000000 -0.923688
vn -0.383145 0.000000 -0.923688
vn -0.232960 0.000000 -0.972486
vn -0.272523 0.710249 -0.649058
vn -0.272254 0.710261 -0.649158
vn -0.365151 0.710262 -0.601825
vn -0.364911 0.710250 -0.601985
vn -0.522071 0.000000 -0.852902
vn -0.649825 -0.000000 -0.760084
vn -0.649824 -0.000000 -0.760084
vn -0.522070 0.000000 -0.852902
vn -0.459757 0.710250 -0.533074
vn -0.459531 0.710262 -0.533253
vn -0.533255 0.710262 -0.459529
vn -0.533076 0.710250 -0.459755
vn -0.760082 -0.000000 -0.649827
vn -0.852902 -0.000000 -0.522072
vn -0.852902 -0.000000 -0.522072
vn -0.760082 -0.000000 -0.649827
vn -0.601984 0.710250 -0.364912
vn -0.601824 0.710262 -0.365152
vn -0.649157 0.710261 -0.272256
vn -0.649057 0.710249 -0.272526
vn -0.923689 0.000000 -0.383143
vn -0.972486 0.000000 -0.232959
vn -0.972486 0.000000 -0.232959
vn -0.923689 0.000000 -0.383143
vn -0.685285 0.710249 -0.161031
vn -0.685207 0.710261 -0.161309
vn -0.701517 0.710262 -0.058331
vn -0.701505 0.710250 -0.058619
vn -0.996878 0.000000 -0.078960
vn -0.996878 0.000000 0.078960
vn -0.996878 0.000000 0.078960
vn -0.996878 0.000000 -0.078960
vn -0.701505 0.710250 0.058619
vn -0.701517 0.710262 0.058331
vn -0.685207 0.710261 0.161309
vn -0.685284 0.710249 0.161031
vn -0.972487 0.000000 0.232959
vn -0.923690 -0.000000 0.383141
vn -0.923690 -0.000000 0.383141
vn -0.972487 0.000000 0.232958
vn -0.649058 0.710249 0.272525
vn -0.649158 0.710261 0.272255
vn -0.601824 0.710262 0.365152
vn -0.601984 0.710250 0.364912
vn -0.852902 -0.000000 0.522070
vn -0.760078 -0.000000 0.649832
vn -0.760078 -0.000000 0.649831
vn -0.852903 -0.000000 0.522070
vn -0.533074 0.710250 0.459757
vn -0.533253 0.710262 0.459531
vn -0.459529 0.710262 0.533255
vn -0.459755 0.710250 0.533076
vn -0.649819 -0.000000 0.760089
vn -0.522070 -0.000000 0.852903
vn -0.522070 -0.000000 0.852903
vn -0.649819 -0.000000 0.760089
vn -0.364913 0.710250 0.601983
vn -0.365153 0.710262 0.601823
vn -0.272257 0.710262 0.649156
vn -0.272527 0.710250 0.649056
vn -0.383144 -0.000000 0.923689
vn -0.232965 -0.000000 0.972485
vn -0.232956 -0.000000 0.972487
vn -0.383144 -0.000000 0.923689
vn -0.161030 0.710250 0.685284
vn -0.161308 0.710262 0.685206
vn -0.058330 0.710262 0.701517
vn -0.058618 0.710250 0.701505
vn -0.078963 -0.000000 0.996877
vn 0.078955 -0.000000 0.996878
vn 0.078946 -0.000000 0.996879
vn -0.078954 -0.000000 0.996878
vn 0.058617 0.710250 0.701505
vn 0.058328 0.710262 0.701517
vn 0.161307 0.710262 0.685207
vn 0.161029 0.710249 0.685285
vn 0.232957 -0.000000 0.972487
vn 0.383144 -0.000000 0.923689
vn 0.383144 -0.000000 0.923689
vn 0.232949 -0.000000 0.972489
vn 0.272525 0.710250 0.649057
vn 0.272255 0.710262 0.649158
vn 0.365152 0.710262 0.601824
vn 0.364912 0.710250 0.601984
vn 0.522071 -0.000000 0.852902
vn 0.649826 -0.000000 0.760083
vn 0.649826 -0.000000 0.760083
vn 0.522071 -0.000000 0.852902
vn 0.459756 0.710250 0.533076
vn 0.459530 0.710262 0.533255
vn 0.533253 0.710262 0.459532
vn 0.533074 0.710250 0.459758
vn 0.760080 -0.000000 0.649829
vn 0.852901 -0.000000 0.522072
vn 0.852901 -0.000000 0.522072
vn 0.760080 -0.000000 0.649829
vn 0.601983 0.710250 0.364913
vn 0.601823 0.710262 0.365153
vn 0.649158 0.710262 0.272256
vn 0.649057 0.710250 0.272526
vn 0.923688 -0.000000 0.383146
vn 0.972486 -0.000000 0.232961
vn 0.972486 -0.000000 0.232961
vn 0.923688 -0.000000 0.383146
vn 0.685285 0.710249 0.161031
vn 0.685207 0.710261 0.161308
vn 0.701517 0.710262 0.058329
vn 0.701505 0.710250 0.058618
vn 0.996878 0.000000 0.078957
vn 0.996877 0.000000 -0.078964
vn 0.996877 0.000000 -0.078964
vn 0.996878 0.000000 0.078957
vn -0.000002 -1.000000 -0.000007
vn -0.000001 -1.000000 -0.000005
vn -0.000001 -1.000000 -0.000005
vn -0.000002 -1.000000 -0.000007
vn 0.685297 -0.710235 -0.161037
vn 0.685220 -0.710248 -0.161315
vn 0.701530 -0.710249 -0.058328
vn 0.701518 -0.710237 -0.058616
vn 0.649169 -0.710245 -0.272271
vn 0.649068 -0.710234 -0.272541
vn 0.601995 -0.710236 -0.364920
vn 0.601835 -0.710248 -0.365160
vn -0.000001 -1.000000 -0.000005
vn 0.000001 -1.000000 -0.000001
vn 0.000001 -1.000000 -0.000001
vn -0.000001 -1.000000 -0.000005
vn 0.533264 -0.710248 -0.459540
vn 0.533085 -0.710236 -0.459766
vn 0.459761 -0.710232 -0.533095
vn 0.459535 -0.710244 -0.533274
vn 0.000001 -1.000000 -0.000001
vn 0.000004 -1.000000 0.000001
vn 0.000004 -1.000000 0.000001
vn 0.000001 -1.000000 -0.000001
vn 0.365158 -0.710241 -0.601844
vn 0.364919 -0.710229 -0.602004
vn 0.272530 -0.710232 -0.649075
vn 0.272260 -0.710244 -0.649175
vn 0.000004 -1.000000 0.000001
vn -0.000011 -1.000000 -0.000004
vn -0.000011 -1.000000 -0.000003
vn 0.000004 -1.000000 0.000001
vn 0.161305 -0.710247 -0.685222
vn 0.161027 -0.710235 -0.685300
vn 0.058611 -0.710233 -0.701522
vn 0.058323 -0.710245 -0.701534
vn -0.000011 -1.000000 -0.000004
vn -0.000006 -1.000000 -0.000004
vn -0.000006 -1.000000 -0.000004
vn -0.000011 -1.000000 -0.000004
vn -0.058334 -0.710244 -0.701534
vn -0.058622 -0.710232 -0.701523
vn -0.161033 -0.710233 -0.685301
vn -0.161311 -0.710245 -0.685223
vn -0.000005 -1.000000 -0.000004
vn 0.000002 -1.000000 -0.000007
vn 0.000002 -1.000000 -0.000007
vn -0.000005 -1.000000 -0.000004
vn -0.272261 -0.710244 -0.649174
vn -0.272531 -0.710232 -0.649074
vn -0.364917 -0.710230 -0.602004
vn -0.365157 -0.710242 -0.601844
vn 0.000002 -1.000000 -0.000007
vn 0.000003 -1.000000 -0.000007
vn 0.000003 -1.000000 -0.000007
vn 0.000002 -1.000000 -0.000007
vn -0.459535 -0.710246 -0.533272
vn -0.459761 -0.710234 -0.533093
vn -0.533087 -0.710237 -0.459763
vn -0.533266 -0.710249 -0.459537
vn 0.000003 -1.000000 -0.000006
vn 0.000001 -1.000000 -0.000005
vn 0.000001 -1.000000 -0.000005
vn 0.000003 -1.000000 -0.000006
vn -0.601837 -0.710248 -0.365158
vn -0.601997 -0.710236 -0.364918
vn -0.649073 -0.710236 -0.272524
vn -0.649173 -0.710248 -0.272254
vn 0.000001 -1.000000 -0.000005
vn 0.000000 -1.000000 0.000001
vn 0.000000 -1.000000 0.000001
vn 0.000001 -1.000000 -0.000005
vn -0.685222 -0.710248 -0.161305
vn -0.685300 -0.710236 -0.161028
vn -0.701519 -0.710236 -0.058621
vn -0.701531 -0.710248 -0.058333
vn 0.000000 -1.000000 0.000000
vn -0.000000 -1.000000 0.000011
vn -0.000000 -1.000000 0.000011
vn 0.000000 -1.000000 -0.000000
vn -0.701531 -0.710248 0.058328
vn -0.701519 -0.710236 0.058616
vn -0.685300 -0.710235 0.161028
vn -0.685222 -0.710247 0.161306
vn -0.000000 -1.000000 0.000011
vn -0.000007 -1.000000 -0.000010
vn -0.000007 -1.000000 -0.000010
vn -0.000000 -1.000000 0.000011
vn -0.649173 -0.710247 0.272257
vn -0.649073 -0.710235 0.272527
vn -0.601998 -0.710237 0.364913
vn -0.601839 -0.710249 0.365153
vn -0.000007 -1.000000 -0.000009
vn -0.000010 -1.000000 -0.000015
vn -0.000010 -1.000000 -0.000015
vn -0.000007 -1.000000 -0.000009
vn -0.533263 -0.710251 0.459536
vn -0.533084 -0.710240 0.459763
vn -0.459758 -0.710240 0.533088
vn -0.459532 -0.710252 0.533267
vn -0.000010 -1.000000 -0.000016
vn 0.000012 -1.000000 0.000001
vn 0.000012 -1.000000 0.000001
vn -0.000010 -1.000000 -0.000015
vn -0.365155 -0.710249 0.601837
vn -0.364915 -0.710237 0.601997
vn -0.272528 -0.710235 0.649073
vn -0.272258 -0.710247 0.649173
vn 0.000012 -1.000000 0.000002
vn 0.000018 -1.000000 0.000004
vn 0.000018 -1.000000 0.000003
vn 0.000012 -1.000000 0.000002
vn -0.161304 -0.710248 0.685222
vn -0.161037 -0.710236 0.685297
vn -0.058626 -0.710241 0.701513
vn -0.058327 -0.710254 0.701525
vn 0.000018 -1.000000 0.000004
vn -0.000029 -1.000000 0.000004
vn -0.000029 -1.000000 0.000004
vn 0.000018 -1.000000 0.000004
vn 0.058316 -0.710253 0.701527
vn 0.058616 -0.710241 0.701514
vn 0.161029 -0.710237 0.685298
vn 0.161296 -0.710248 0.685223
vn -0.000029 -1.000000 0.000003
vn -0.000003 -1.000000 -0.000005
vn -0.000003 -1.000000 -0.000005
vn -0.000029 -1.000000 0.000003
vn 0.272256 -0.710247 0.649173
vn 0.272527 -0.710235 0.649072
vn 0.364917 -0.710236 0.601997
vn 0.365157 -0.710248 0.601837
vn -0.000003 -1.000000 -0.000005
vn -0.000010 -1.000000 -0.000001
vn -0.000010 -1.000000 -0.000001
vn -0.000003 -1.000000 -0.000005
vn 0.459536 -0.710247 0.533268
vn 0.459763 -0.710236 0.533089
vn 0.533083 -0.710236 0.459769
vn 0.533262 -0.710248 0.459543
vn -0.000010 -1.000000 -0.000000
vn -0.000003 -1.000000 -0.000009
vn -0.000003 -1.000000 -0.000009
vn -0.000010 -1.000000 -0.000000
vn 0.601836 -0.710250 0.365154
vn 0.601996 -0.710238 0.364914
vn 0.649070 -0.710237 0.272527
vn 0.649170 -0.710249 0.272257
vn -0.000003 -1.000000 -0.000009
vn -0.000003 -1.000000 -0.000012
vn -0.000003 -1.000000 -0.000012
vn -0.000003 -1.000000 -0.000009
vn 0.685220 -0.710249 0.161309
vn 0.685297 -0.710237 0.161032
vn 0.701518 -0.710237 0.058619
vn 0.701530 -0.710249 0.058331
vn -0.000002 -1.000000 -0.000011
vn -0.000002 -1.000000 -0.000007
vn -0.000002 -1.000000 -0.000007
vn -0.000002 -1.000000 -0.000011
vn 0.987115 -0.000000 -0.160012
vn 0.892642 0.000001 -0.450767
vn 0.892628 0.000001 -0.450793
vn 0.987110 -0.000000 -0.160043
vn 0.696556 -0.708562 -0.112918
vn 0.696549 -0.708564 -0.112945
vn 0.697354 -0.708562 -0.107869
vn 0.697353 -0.708561 -0.107895
vn 0.629912 -0.708549 -0.318071
vn 0.629902 -0.708547 -0.318096
vn 0.627592 -0.708548 -0.322627
vn 0.627578 -0.708550 -0.322650
vn 0.889365 0.000001 -0.457198
vn 0.709646 0.000003 -0.704559
vn 0.709646 0.000003 -0.704559
vn 0.889365 0.000001 -0.457198
vn 0.500789 -0.708540 -0.497174
vn 0.500772 -0.708537 -0.497195
vn 0.497174 -0.708538 -0.500790
vn 0.497154 -0.708540 -0.500808
vn 0.704542 0.000003 -0.709662
vn 0.457216 -0.000000 -0.889356
vn 0.457216 -0.000000 -0.889356
vn 0.704542 0.000003 -0.709662
vn 0.322665 -0.708554 -0.627565
vn 0.322642 -0.708552 -0.627580
vn 0.318109 -0.708554 -0.629888
vn 0.318084 -0.708556 -0.629898
vn 0.450784 -0.000000 -0.892633
vn 0.159977 0.000001 -0.987121
vn 0.159975 0.000001 -0.987121
vn 0.450784 -0.000000 -0.892633
vn 0.112900 -0.708560 -0.696560
vn 0.112875 -0.708558 -0.696566
vn 0.107851 -0.708559 -0.697361
vn 0.107822 -0.708561 -0.697364
vn 0.152849 0.000001 -0.988250
vn -0.152870 0.000006 -0.988246
vn -0.152872 0.000006 -0.988246
vn 0.152847 0.000001 -0.988250
vn -0.107859 -0.708560 -0.697359
vn -0.107884 -0.708558 -0.697357
vn -0.112908 -0.708559 -0.696560
vn -0.112934 -0.708561 -0.696553
vn -0.160000 0.000006 -0.987117
vn -0.450766 0.000007 -0.892642
vn -0.450766 0.000007 -0.892642
vn -0.160001 0.000006 -0.987117
vn -0.318066 -0.708552 -0.629911
vn -0.318091 -0.708550 -0.629900
vn -0.322623 -0.708552 -0.627590
vn -0.322645 -0.708554 -0.627576
vn -0.457197 0.000007 -0.889365
vn -0.704537 0.000004 -0.709667
vn -0.704537 0.000004 -0.709667
vn -0.457197 0.000007 -0.889366
vn -0.497146 -0.708547 -0.500807
vn -0.497167 -0.708544 -0.500789
vn -0.500764 -0.708545 -0.497191
vn -0.500781 -0.708547 -0.497171
vn -0.709642 0.000003 -0.704562
vn -0.889374 0.000000 -0.457180
vn -0.889374 0.000000 -0.457181
vn -0.709642 0.000003 -0.704563
vn -0.627585 -0.708550 -0.322636
vn -0.627599 -0.708548 -0.322613
vn -0.629907 -0.708550 -0.318080
vn -0.629917 -0.708552 -0.318055
vn -0.892651 0.000000 -0.450748
vn -0.987118 -0.000001 -0.159996
vn -0.987118 -0.000001 -0.159996
vn -0.892651 0.000000 -0.450749
vn -0.696556 -0.708561 -0.112923
vn -0.696562 -0.708559 -0.112897
vn -0.697357 -0.708560 -0.107873
vn -0.697359 -0.708562 -0.107846
vn -0.988247 -0.000001 -0.152867
vn -0.988246 0.000001 0.152872
vn -0.988246 0.000001 0.152874
vn -0.988247 -0.000001 -0.152866
vn -0.697358 -0.708561 0.107861
vn -0.697356 -0.708559 0.107888
vn -0.696559 -0.708560 0.112911
vn -0.696552 -0.708562 0.112938
vn -0.987117 0.000001 0.160000
vn -0.892654 0.000003 0.450742
vn -0.892655 0.000003 0.450741
vn -0.987117 0.000001 0.160001
vn -0.629912 -0.708565 0.318036
vn -0.629901 -0.708562 0.318062
vn -0.627591 -0.708564 0.322594
vn -0.627578 -0.708566 0.322615
vn -0.889377 0.000003 0.457174
vn -0.709635 -0.000004 0.704570
vn -0.709637 -0.000004 0.704568
vn -0.889378 0.000003 0.457172
vn -0.500777 -0.708555 0.497165
vn -0.500758 -0.708552 0.497187
vn -0.497160 -0.708553 0.500783
vn -0.497140 -0.708555 0.500800
vn -0.704530 -0.000004 0.709674
vn -0.457191 -0.000005 0.889369
vn -0.457190 -0.000005 0.889369
vn -0.704531 -0.000004 0.709673
vn -0.322626 -0.708559 0.627580
vn -0.322603 -0.708557 0.627594
vn -0.318071 -0.708557 0.629903
vn -0.318044 -0.708560 0.629914
vn -0.450761 -0.000005 0.892645
vn -0.160017 0.000004 0.987114
vn -0.160014 0.000004 0.987115
vn -0.450759 -0.000005 0.892646
vn -0.112921 -0.708553 0.696564
vn -0.112897 -0.708551 0.696570
vn -0.107874 -0.708552 0.697364
vn -0.107846 -0.708555 0.697366
vn -0.152887 0.000004 0.988244
vn 0.152868 0.000000 0.988247
vn 0.152865 0.000000 0.988247
vn -0.152886 0.000004 0.988244
vn 0.107827 -0.708554 0.697370
vn 0.107856 -0.708552 0.697368
vn 0.112879 -0.708552 0.696572
vn 0.112903 -0.708554 0.696566
vn 0.159998 0.000000 0.987117
vn 0.450767 -0.000005 0.892641
vn 0.450767 -0.000005 0.892642
vn 0.159995 0.000000 0.987118
vn 0.318065 -0.708559 0.629903
vn 0.318090 -0.708557 0.629893
vn 0.322622 -0.708559 0.627582
vn 0.322645 -0.708561 0.627568
vn 0.457198 -0.000005 0.889365
vn 0.704549 -0.000006 0.709656
vn 0.704548 -0.000006 0.709656
vn 0.457198 -0.000005 0.889365
vn 0.497145 -0.708546 0.500809
vn 0.497166 -0.708544 0.500791
vn 0.500762 -0.708545 0.497194
vn 0.500779 -0.708547 0.497174
vn 0.709653 -0.000006 0.704552
vn 0.889365 -0.000008 0.457198
vn 0.889365 -0.000008 0.457197
vn 0.709652 -0.000006 0.704552
vn 0.627578 -0.708552 0.322645
vn 0.627592 -0.708550 0.322622
vn 0.629900 -0.708551 0.318090
vn 0.629911 -0.708553 0.318064
vn 0.892642 -0.000008 0.450766
vn 0.987116 -0.000004 0.160007
vn 0.987116 -0.000004 0.160006
vn 0.892642 -0.000008 0.450766
vn 0.696554 -0.708562 0.112927
vn 0.696561 -0.708560 0.112901
vn 0.697356 -0.708560 0.107877
vn 0.697358 -0.708563 0.107848
vn 0.988245 -0.000004 0.152880
vn 0.988244 -0.000000 -0.152884
vn 0.988244 -0.000000 -0.152886
vn 0.988245 -0.000004 0.152877
vn 0.697088 0.708025 -0.112994
vn 0.697090 0.708025 -0.112989
vn 0.697885 0.708027 -0.107961
vn 0.697887 0.708029 -0.107934
vn 0.630074 0.708353 -0.318187
vn 0.630092 0.708357 -0.318143
vn 0.627749 0.708354 -0.322746
vn 0.627764 0.708352 -0.322723
vn 0.000002 1.000000 0.000008
vn 0.000001 1.000000 0.000005
vn 0.000001 1.000000 0.000007
vn 0.000002 1.000000 0.000009
vn 0.501019 0.708191 -0.497439
vn 0.501036 0.708193 -0.497418
vn 0.497398 0.708192 -0.501058
vn 0.497419 0.708190 -0.501040
vn 0.000001 1.000000 0.000005
vn -0.000001 1.000000 0.000001
vn -0.000001 1.000000 0.000001
vn 0.000003 1.000000 0.000012
vn 0.000002 1.000000 0.000012
vn 0.000002 1.000000 0.000008
vn -0.000003 1.000000 -0.000002
vn -0.000001 1.000000 -0.000000
vn -0.000004 1.000000 -0.000002
vn 0.000007 1.000000 0.000003
vn -0.000004 1.000000 -0.000001
vn 0.000011 1.000000 0.000004
vn 0.000004 1.000000 0.000004
vn 0.000011 1.000000 0.000004
vn 0.000006 1.000000 0.000003
vn -0.000001 1.000000 0.000007
vn 0.000006 1.000000 0.000004
vn -0.000003 1.000000 0.000006
vn -0.000001 1.000000 0.000006
vn -0.000003 1.000000 0.000007
vn -0.000003 1.000000 0.000007
vn -0.000001 1.000000 0.000001
vn -0.000003 1.000000 0.000006
vn -0.000001 1.000000 0.000005
vn 0.000000 1.000000 -0.000002
vn -0.000001 1.000000 0.000004
vn 0.000000 1.000000 -0.000001
vn 0.000001 1.000000 -0.000006
vn 0.000000 1.000000 0.000000
vn -0.000000 1.000000 -0.000012
vn 0.000007 1.000000 0.000012
vn 0.000000 1.000000 -0.000011
vn 0.000007 1.000000 0.000010
vn 0.000008 1.000000 0.000014
vn 0.000007 1.000000 0.000011
vn 0.000011 1.000000 0.000016
vn -0.000011 1.000000 -0.000002
vn 0.000011 1.000000 0.000015
vn -0.000012 1.000000 -0.000001
vn -0.000015 1.000000 -0.000003
vn -0.000013 1.000000 -0.000001
vn -0.000019 1.000000 -0.000004
vn 0.000021 1.000000 -0.000003
vn -0.000018 1.000000 -0.000003
vn 0.000030 1.000000 -0.000003
vn 0.000004 1.000000 0.000005
vn 0.000030 1.000000 -0.000003
vn 0.000003 1.000000 0.000005
vn 0.000008 1.000000 0.000004
vn 0.000003 1.000000 0.000006
vn 0.000009 1.000000 0.000001
vn 0.000004 1.000000 0.000010
vn 0.000010 1.000000 0.000001
vn 0.000004 1.000000 0.000009
vn 0.000003 1.000000 0.000009
vn 0.000002 1.000000 0.000012
vn 0.322795 0.708186 -0.627914
vn 0.322817 0.708188 -0.627900
vn 0.318234 0.708188 -0.630236
vn 0.318259 0.708186 -0.630226
vn 0.112950 0.708195 -0.696923
vn 0.112977 0.708198 -0.696916
vn 0.107895 0.708196 -0.697723
vn 0.107921 0.708194 -0.697721
vn -0.107928 0.708197 -0.697716
vn -0.107901 0.708200 -0.697718
vn -0.112983 0.708198 -0.696915
vn -0.112957 0.708196 -0.696921
vn -0.318250 0.708195 -0.630220
vn -0.318226 0.708197 -0.630230
vn -0.322810 0.708196 -0.627895
vn -0.322787 0.708194 -0.627909
vn -0.497412 0.708197 -0.501037
vn -0.497392 0.708200 -0.501054
vn -0.501032 0.708198 -0.497416
vn -0.501014 0.708196 -0.497437
vn -0.627910 0.708196 -0.322782
vn -0.627896 0.708198 -0.322804
vn -0.630233 0.708197 -0.318219
vn -0.630222 0.708195 -0.318245
vn -0.696927 0.708190 -0.112960
vn -0.696921 0.708192 -0.112986
vn -0.697726 0.708191 -0.107907
vn -0.697724 0.708189 -0.107933
vn -0.697704 0.708210 0.107923
vn -0.697706 0.708212 0.107895
vn -0.696903 0.708211 0.112978
vn -0.696909 0.708209 0.112952
vn -0.630215 0.708209 0.318227
vn -0.630225 0.708211 0.318203
vn -0.627889 0.708211 0.322788
vn -0.627905 0.708209 0.322764
vn -0.501001 0.708199 0.497445
vn -0.501017 0.708201 0.497427
vn -0.497379 0.708200 0.501066
vn -0.497401 0.708198 0.501048
vn -0.322786 0.708201 0.627901
vn -0.322809 0.708203 0.627887
vn -0.318226 0.708202 0.630224
vn -0.318249 0.708200 0.630214
vn -0.112983 0.708195 0.696918
vn -0.113011 0.708198 0.696911
vn -0.107929 0.708197 0.697717
vn -0.107955 0.708194 0.697715
vn 0.107947 0.708192 0.697718
vn 0.107923 0.708194 0.697720
vn 0.113004 0.708194 0.696916
vn 0.112976 0.708191 0.696923
vn 0.318248 0.708197 0.630219
vn 0.318223 0.708199 0.630229
vn 0.322808 0.708198 0.627894
vn 0.322785 0.708196 0.627908
vn 0.497429 0.708186 0.501035
vn 0.497409 0.708189 0.501052
vn 0.501048 0.708187 0.497415
vn 0.501031 0.708185 0.497436
vn 0.627909 0.708188 0.322802
vn 0.627894 0.708190 0.322825
vn 0.630231 0.708189 0.318242
vn 0.630221 0.708187 0.318266
vn 0.696909 0.708206 0.112970
vn 0.696903 0.708208 0.112996
vn 0.697708 0.708207 0.107914
vn 0.697707 0.708205 0.107940
s 1
g pCylinder1
usemtl initialShadingGroup
f 1/1/1 4/403/2 180/100/3 179/10/4
s 2
f 2/3/5 1/2/6 8/585/7 7/383/8
s 3
f 3/582/9 2/3/10 83/106/11 82/4/12
s 2
f 4/5/13 3/6/14 78/101/15 77/7/16
s 1
f 5/8/17 8/9/18 179/10/4 178/15/19
s 2
f 6/12/20 5/11/21 12/587/22 11/384/23
s 3
f 7/383/24 6/12/25 87/110/26 86/107/27
s 1
f 9/13/28 12/14/29 178/15/19 177/20/30
s 2
f 10/17/31 9/16/32 16/589/33 15/385/34
s 3
f 11/384/35 10/17/36 91/114/37 90/111/38
s 1
f 13/18/39 16/19/40 177/20/30 176/25/41
s 2
f 14/22/42 13/21/43 20/591/44 19/386/45
s 3
f 15/385/46 14/22/47 95/118/48 94/115/49
s 1
f 17/23/50 20/24/51 176/25/41 175/30/52
s 2
f 18/27/53 17/26/54 24/593/55 23/387/56
s 3
f 19/386/57 18/27/58 99/122/59 98/119/60
s 1
f 21/28/61 24/29/62 175/30/52 174/35/63
s 2
f 22/32/64 21/31/65 28/594/66 27/388/67
s 3
f 23/387/68 22/32/69 103/126/70 102/123/71
s 1
f 25/33/72 28/34/73 174/35/63 173/40/74
s 2
f 26/37/75 25/36/76 32/596/77 31/389/78
s 3
f 27/388/79 26/37/80 107/130/81 106/127/82
s 1
f 29/38/83 32/39/84 173/40/74 172/45/85
s 2
f 30/42/86 29/41/87 36/598/88 35/390/89
s 3
f 31/389/90 30/42/91 111/134/92 110/131/93
s 1
f 33/43/94 36/44/95 172/45/85 171/50/96
s 2
f 34/47/97 33/46/98 40/600/99 39/391/100
s 3
f 35/390/101 34/47/102 115/138/103 114/135/104
s 1
f 37/48/105 40/49/106 171/50/96 170/55/107
s 2
f 38/52/108 37/51/109 44/602/110 43/392/111
s 3
f 39/391/112 38/52/113 119/142/114 118/139/115
s 1
f 41/53/116 44/54/117 170/55/107 169/60/118
s 2
f 42/57/119 41/56/120 48/604/121 47/393/122
s 3
f 43/392/123 42/57/124 123/146/125 122/143/126
s 1
f 45/58/127 48/59/128 169/60/118 168/65/129
s 2
f 46/62/130 45/61/131 52/606/132 51/394/133
s 3
f 47/393/134 46/62/135 127/150/136 126/147/137
s 1
f 49/63/138 52/64/139 168/65/129 167/70/140
s 2
f 50/67/141 49/66/142 56/608/143 55/395/144
s 3
f 51/394/145 50/67/146 131/154/147 130/151/148
s 1
f 53/68/149 56/69/150 167/70/140 166/75/151
s 2
f 54/72/152 53/71/153 60/610/154 59/396/155
s 3
f 55/395/156 54/72/157 135/158/158 134/155/159
s 1
f 57/73/160 60/74/161 166/75/151 165/80/162
s 2
f 58/77/163 57/76/164 64/612/165 63/397/166
s 3
f 59/396/167 58/77/168 139/162/169 138/159/170
s 1
f 61/78/171 64/79/172 165/80/162 164/85/173
s 2
f 62/82/174 61/81/175 68/614/176 67/398/177
s 3
f 63/397/178 62/82/179 143/166/180 142/163/181
s 1
f 65/83/182 68/84/183 164/85/173 163/90/184
s 2
f 66/87/185 65/86/186 72/616/187 71/399/188
s 3
f 67/398/189 66/87/190 147/170/191 146/167/192
s 1
f 69/88/193 72/89/194 163/90/184 162/95/195
s 2
f 70/92/196 69/91/197 76/618/198 75/400/199
s 3
f 71/399/200 70/92/201 151/174/202 150/171/203
s 1
f 73/93/204 76/94/205 162/95/195 161/99/206
s 2
f 74/97/207 73/96/208 80/620/209 79/401/210
s 3
f 75/400/211 74/97/212 155/178/213 154/175/214
s 1
f 77/404/215 80/98/216 161/99/206 180/100/3
s 3
f 79/401/217 78/101/218 159/105/219 158/179/220
s 22
f 81/102/221 84/426/222 183/184/223 182/804/224
s 23
f 82/402/225 81/103/226 160/104/227 159/105/228
f 84/622/229 83/106/230 86/107/231 85/108/232
s 22
f 85/427/233 88/428/234 187/186/235 186/802/236
s 23
f 88/109/237 87/110/238 90/111/239 89/112/240
s 22
f 89/429/241 92/430/242 191/188/243 190/800/244
s 23
f 92/113/245 91/114/246 94/115/247 93/116/248
s 22
f 93/431/249 96/432/250 195/190/251 194/798/252
s 23
f 96/117/253 95/118/254 98/119/255 97/120/256
s 22
f 97/433/257 100/434/258 199/192/259 198/796/260
s 23
f 100/121/261 99/122/262 102/123/263 101/124/264
s 22
f 101/435/265 104/436/266 203/194/267 202/794/268
s 23
f 104/125/269 103/126/270 106/127/271 105/128/272
s 22
f 105/437/273 108/438/274 207/196/275 206/792/276
s 23
f 108/129/277 107/130/278 110/131/279 109/132/280
s 22
f 109/439/281 112/440/282 211/198/283 210/790/284
s 23
f 112/133/285 111/134/286 114/135/287 113/136/288
s 22
f 113/441/289 116/442/290 215/200/291 214/788/292
s 23
f 116/137/293 115/138/294 118/139/295 117/140/296
s 22
f 117/443/297 120/444/298 219/202/299 218/784/300
s 23
f 120/141/301 119/142/302 122/143/303 121/144/304
s 22
f 121/445/305 124/446/306 223/204/307 222/782/308
s 23
f 124/145/309 123/146/310 126/147/311 125/148/312
s 22
f 125/447/313 128/448/314 227/206/315 226/780/316
s 23
f 128/149/317 127/150/318 130/151/319 129/152/320
s 22
f 129/449/321 132/450/322 231/208/323 230/778/324
s 23
f 132/153/325 131/154/326 134/155/327 133/156/328
s 22
f 133/451/329 136/452/330 235/210/331 234/776/332
s 23
f 136/157/333 135/158/334 138/159/335 137/160/336
s 22
f 137/453/337 140/454/338 239/212/339 238/774/340
s 23
f 140/161/341 139/162/342 142/163/343 141/164/344
s 22
f 141/455/345 144/456/346 243/214/347 242/772/348
s 23
f 144/165/349 143/166/350 146/167/351 145/168/352
s 22
f 145/457/353 148/458/354 247/216/355 246/770/356
s 23
f 148/169/357 147/170/358 150/171/359 149/172/360
s 22
f 149/459/361 152/460/362 251/218/363 250/768/364
s 23
f 152/173/365 151/174/366 154/175/367 153/176/368
s 22
f 153/461/369 156/462/370 255/220/371 254/766/372
s 23
f 156/177/373 155/178/374 158/179/375 157/180/376
s 22
f 157/463/377 160/181/378 259/183/379 258/764/380
s 42
f 181/182/381 184/465/382 263/225/383 262/503/384
s 43
f 182/464/385 181/182/386 260/222/387 259/803/388
f 184/465/389 183/801/390 186/185/391 185/466/392
s 42
f 185/466/393 188/467/394 267/227/395 266/226/396
s 43
f 188/467/397 187/799/398 190/187/399 189/468/400
s 42
f 189/468/401 192/469/402 271/229/403 270/228/404
s 43
f 192/469/405 191/797/406 194/189/407 193/470/408
s 42
f 193/470/409 196/471/410 275/231/411 274/230/412
s 43
f 196/471/413 195/795/414 198/191/415 197/472/416
s 42
f 197/472/417 200/473/418 279/233/419 278/232/420
s 43
f 200/473/421 199/793/422 202/193/423 201/474/424
s 42
f 201/474/425 204/475/426 283/235/427 282/234/428
s 43
f 204/475/429 203/791/430 206/195/431 205/476/432
s 42
f 205/476/433 208/477/434 287/237/435 286/236/436
s 43
f 208/477/437 207/789/438 210/197/439 209/478/440
s 42
f 209/478/441 212/479/442 291/239/443 290/238/444
s 43
f 212/479/445 211/787/446 214/199/447 213/480/448
s 42
f 213/480/449 216/481/450 295/241/451 294/240/452
s 43
f 216/481/453 215/786/454 218/785/455 217/783/456
s 42
f 217/482/457 220/483/458 299/243/459 298/242/460
s 43
f 220/483/461 219/781/462 222/203/463 221/484/464
s 42
f 221/484/465 224/485/466 303/245/467 302/244/468
s 43
f 224/485/469 223/779/470 226/205/471 225/486/472
s 42
f 225/486/473 228/487/474 307/247/475 306/246/476
s 43
f 228/487/477 227/777/478 230/207/479 229/488/480
s 42
f 229/488/481 232/489/482 311/249/483 310/248/484
s 43
f 232/489/485 231/775/486 234/209/487 233/490/488
s 42
f 233/490/489 236/491/490 315/251/491 314/250/492
s 43
f 236/491/493 235/773/494 238/211/495 237/492/496
s 42
f 237/492/497 240/493/498 319/253/499 318/252/500
s 43
f 240/493/501 239/771/502 242/213/503 241/494/504
s 42
f 241/494/505 244/495/506 323/255/507 322/254/508
s 43
f 244/495/509 243/769/510 246/215/511 245/496/512
s 42
f 245/496/513 248/497/514 327/257/515 326/256/516
s 43
f 248/497/517 247/767/518 250/217/519 249/498/520
s 42
f 249/498/521 252/499/522 331/259/523 330/258/524
s 43
f 252/499/525 251/765/526 254/219/527 253/500/528
s 42
f 253/500/529 256/501/530 335/261/531 334/260/532
s 43
f 256/501/533 255/763/534 258/221/535 257/502/536
s 42
f 257/502/537 260/222/538 339/224/539 338/262/540
s 62
f 261/223/541 264/679/542 343/266/543 342/760/544
s 63
f 262/503/545 261/680/546 340/642/547 339/224/548
f 264/504/549 263/225/550 266/226/551 265/678/552
s 62
f 265/505/553 268/677/554 347/268/555 346/758/556
s 63
f 268/506/557 267/227/558 270/228/559 269/676/560
s 62
f 269/507/561 272/675/562 351/270/563 350/756/564
s 63
f 272/508/565 271/229/566 274/230/567 273/674/568
s 62
f 273/509/569 276/673/570 355/272/571 354/754/572
s 63
f 276/510/573 275/231/574 278/232/575 277/672/576
s 62
f 277/511/577 280/671/578 359/274/579 358/752/580
s 63
f 280/512/581 279/233/582 282/234/583 281/670/584
s 62
f 281/513/585 284/669/586 363/276/587 362/750/588
s 63
f 284/514/589 283/235/590 286/236/591 285/668/592
s 62
f 285/515/593 288/667/594 367/278/595 366/748/596
s 63
f 288/516/597 287/237/598 290/238/599 289/666/600
s 62
f 289/517/601 292/665/602 371/280/603 370/746/604
s 63
f 292/518/605 291/239/606 294/240/607 293/664/608
s 62
f 293/519/609 296/663/610 375/282/611 374/744/612
s 63
f 296/520/613 295/241/614 298/761/615 297/762/616
s 62
f 297/521/617 300/661/618 379/284/619 378/742/620
s 63
f 300/522/621 299/243/622 302/244/623 301/660/624
s 62
f 301/523/625 304/659/626 383/286/627 382/740/628
s 63
f 304/524/629 303/245/630 306/246/631 305/658/632
s 62
f 305/525/633 308/657/634 387/288/635 386/738/636
s 63
f 308/526/637 307/247/638 310/248/639 309/656/640
s 62
f 309/527/641 312/655/642 391/290/643 390/736/644
s 63
f 312/528/645 311/249/646 314/250/647 313/654/648
s 62
f 313/529/649 316/653/650 395/292/651 394/734/652
s 63
f 316/530/653 315/251/654 318/252/655 317/652/656
s 62
f 317/531/657 320/651/658 399/294/659 398/732/660
s 63
f 320/532/661 319/253/662 322/254/663 321/650/664
s 62
f 321/533/665 324/649/666 403/296/667 402/730/668
s 63
f 324/534/669 323/255/670 326/256/671 325/648/672
s 62
f 325/535/673 328/647/674 407/298/675 406/728/676
s 63
f 328/536/677 327/257/678 330/258/679 329/646/680
s 62
f 329/537/681 332/645/682 411/300/683 410/726/684
s 63
f 332/538/685 331/259/686 334/260/687 333/644/688
s 62
f 333/539/689 336/643/690 415/302/691 414/724/692
s 63
f 336/540/693 335/261/694 338/262/695 337/641/696
s 62
f 337/541/697 340/263/698 419/265/699 418/722/700
s 82
f 341/264/701 344/543/702 422/306/703 421/720/704
s 83
f 342/542/705 341/264/706 420/304/707 419/759/708
f 344/543/709 343/757/710 346/267/711 345/544/712
s 82
f 345/544/713 348/805/714 428/807/715 427/718/716
s 83
f 348/545/717 347/806/718 350/269/719 349/546/720
s 82
f 349/546/721 352/547/722 452/332/723 451/716/724
s 83
f 352/547/725 351/753/726 354/271/727 353/548/728
s 82
f 353/548/729 356/549/730 456/335/731 455/714/732
s 83
f 356/549/733 355/751/734 358/273/735 357/550/736
s 82
f 357/550/737 360/551/738 460/338/739 459/712/740
s 83
f 360/551/741 359/749/742 362/275/743 361/552/744
s 82
f 361/552/745 364/553/746 464/341/747 463/710/748
s 83
f 364/553/749 363/747/750 366/277/751 365/554/752
s 82
f 365/554/753 368/555/754 468/344/755 467/708/756
s 83
f 368/555/757 367/745/758 370/279/759 369/556/760
s 82
f 369/556/761 372/557/762 472/347/763 471/706/764
s 83
f 372/557/765 371/743/766 374/281/767 373/558/768
s 82
f 373/558/769 376/559/770 476/350/771 475/704/772
s 83
f 376/559/773 375/741/774 378/283/775 377/560/776
s 82
f 377/560/777 380/561/778 480/353/779 479/702/780
s 83
f 380/561/781 379/739/782 382/285/783 381/562/784
s 82
f 381/562/785 384/563/786 484/356/787 483/700/788
s 83
f 384/563/789 383/737/790 386/287/791 385/564/792
s 82
f 385/564/793 388/565/794 488/359/795 487/698/796
s 83
f 388/565/797 387/735/798 390/289/799 389/566/800
s 82
f 389/566/801 392/567/802 492/362/803 491/696/804
s 83
f 392/567/805 391/733/806 394/291/807 393/568/808
s 82
f 393/568/809 396/569/810 496/365/811 495/694/812
s 83
f 396/569/813 395/731/814 398/293/815 397/570/816
s 82
f 397/570/817 400/571/818 500/368/819 499/692/820
s 83
f 400/571/821 399/729/822 402/295/823 401/572/824
s 82
f 401/572/825 404/573/826 504/371/827 503/690/828
s 83
f 404/573/829 403/727/830 406/297/831 405/574/832
s 82
f 405/574/833 408/575/834 508/374/835 507/688/836
s 83
f 408/575/837 407/725/838 410/299/839 409/576/840
s 82
f 409/576/841 412/577/842 512/377/843 511/686/844
s 83
f 412/577/845 411/723/846 414/301/847 413/578/848
s 82
f 413/578/849 416/579/850 516/380/851 515/684/852
s 83
f 416/579/853 415/721/854 418/303/855 417/580/856
s 82
f 417/580/857 420/304/858 520/305/859 519/682/860
s 102
f 421/581/861 424/424/862 517/313/863 520/719/864
f 423/308/865 422/717/866 427/307/867 426/405/868
s 103
f 424/424/869 423/308/870 430/312/871 429/425/872
s 102
f 425/311/873 428/715/874 451/310/875 450/315/876
s 103
f 426/405/877 425/311/878 431/314/879 430/312/871
f 429/425/872 448/423/880 518/382/881 517/313/882
f 432/316/883 431/314/879 450/315/884 449/406/885
f 433/317/886 432/316/883 454/334/887 453/407/888
f 434/318/889 433/317/886 458/337/890 457/408/891
f 435/319/892 434/318/889 462/340/893 461/409/894
f 436/320/895 435/319/892 466/343/896 465/410/897
f 437/321/898 436/320/895 470/346/899 469/411/900
f 438/322/901 437/321/898 474/349/902 473/412/903
f 439/323/904 438/322/901 478/352/905 477/413/906
f 440/324/907 439/323/904 482/355/908 481/414/909
f 441/325/910 440/324/907 486/358/911 485/415/912
f 442/326/913 441/325/910 490/361/914 489/416/915
f 443/327/916 442/326/913 494/364/917 493/417/918
f 444/328/919 443/327/916 498/367/920 497/418/921
f 445/329/922 444/328/919 502/370/923 501/419/924
f 446/330/925 445/329/922 506/373/926 505/420/927
f 447/331/928 446/330/925 510/376/929 509/421/930
f 448/423/880 447/331/928 514/379/931 513/422/932
s 102
f 449/406/933 452/713/934 455/333/935 454/334/936
f 453/407/937 456/711/938 459/336/939 458/337/940
f 457/408/941 460/709/942 463/339/943 462/340/944
f 461/409/945 464/707/946 467/342/947 466/343/948
f 465/410/949 468/705/950 471/345/951 470/346/952
f 469/411/953 472/703/954 475/348/955 474/349/956
f 473/412/957 476/701/958 479/351/959 478/352/960
f 477/413/961 480/699/962 483/354/963 482/355/964
f 481/414/965 484/697/966 487/357/967 486/358/968
f 485/415/969 488/695/970 491/360/971 490/361/972
f 489/416/973 492/693/974 495/363/975 494/364/976
f 493/417/977 496/691/978 499/366/979 498/367/980
f 497/418/981 500/689/982 503/369/983 502/370/984
f 501/419/985 504/687/986 507/372/987 506/373/988
f 505/420/989 508/685/990 511/375/991 510/376/992
f 509/421/993 512/683/994 515/378/995 514/379/996
f 513/422/997 516/681/998 519/381/999 518/382/1000
s 3
f 2/3/10 7/383/24 86/107/27 83/106/11
f 6/12/25 11/384/35 90/111/38 87/110/26
f 10/17/36 15/385/46 94/115/49 91/114/37
f 14/22/47 19/386/57 98/119/60 95/118/48
f 18/27/58 23/387/68 102/123/71 99/122/59
f 22/32/69 27/388/79 106/127/82 103/126/70
f 26/37/80 31/389/90 110/131/93 107/130/81
f 30/42/91 35/390/101 114/135/104 111/134/92
f 34/47/102 39/391/112 118/139/115 115/138/103
f 38/52/113 43/392/123 122/143/126 119/142/114
f 42/57/124 47/393/134 126/147/137 123/146/125
f 46/62/135 51/394/145 130/151/148 127/150/136
f 50/67/146 55/395/156 134/155/159 131/154/147
f 54/72/157 59/396/167 138/159/170 135/158/158
f 58/77/168 63/397/178 142/163/181 139/162/169
f 62/82/179 67/398/189 146/167/192 143/166/180
f 66/87/190 71/399/200 150/171/203 147/170/191
f 70/92/201 75/400/211 154/175/214 151/174/202
f 74/97/212 79/401/217 158/179/220 155/178/213
f 78/101/218 3/6/9 82/402/12 159/105/219
s 1
f 8/9/18 1/1/1 179/10/4
f 12/14/29 5/8/17 178/15/19
f 16/19/40 9/13/28 177/20/30
f 20/24/51 13/18/39 176/25/41
f 24/29/62 17/23/50 175/30/52
f 28/34/73 21/28/61 174/35/63
f 32/39/84 25/33/72 173/40/74
f 36/44/95 29/38/83 172/45/85
f 40/49/106 33/43/94 171/50/96
f 44/54/117 37/48/105 170/55/107
f 48/59/128 41/53/116 169/60/118
f 52/64/139 45/58/127 168/65/129
f 56/69/150 49/63/138 167/70/140
f 60/74/161 53/68/149 166/75/151
f 64/79/172 57/73/160 165/80/162
f 68/84/183 61/78/171 164/85/173
f 72/89/194 65/83/182 163/90/184
f 76/94/205 69/88/193 162/95/195
f 80/98/216 73/93/204 161/99/206
f 4/403/2 77/404/215 180/100/3
s 103
f 423/308/870 426/405/877 430/312/871
f 425/311/878 450/315/884 431/314/879
f 449/406/885 454/334/887 432/316/883
f 453/407/888 458/337/890 433/317/886
f 457/408/891 462/340/893 434/318/889
f 461/409/894 466/343/896 435/319/892
f 465/410/897 470/346/899 436/320/895
f 469/411/900 474/349/902 437/321/898
f 473/412/903 478/352/905 438/322/901
f 477/413/906 482/355/908 439/323/904
f 481/414/909 486/358/911 440/324/907
f 485/415/912 490/361/914 441/325/910
f 489/416/915 494/364/917 442/326/913
f 493/417/918 498/367/920 443/327/916
f 497/418/921 502/370/923 444/328/919
f 501/419/924 506/373/926 445/329/922
f 505/420/927 510/376/929 446/330/925
f 509/421/930 514/379/931 447/331/928
f 513/422/932 518/382/881 448/423/880
f 517/313/882 424/424/869 429/425/872
s 22
f 84/426/222 85/427/233 186/802/236 183/184/223
f 88/428/234 89/429/241 190/800/244 187/186/235
f 92/430/242 93/431/249 194/798/252 191/188/243
f 96/432/250 97/433/257 198/796/260 195/190/251
f 100/434/258 101/435/265 202/794/268 199/192/259
f 104/436/266 105/437/273 206/792/276 203/194/267
f 108/438/274 109/439/281 210/790/284 207/196/275
f 112/440/282 113/441/289 214/788/292 211/198/283
f 116/442/290 117/443/297 218/784/300 215/200/291
f 120/444/298 121/445/305 222/782/308 219/202/299
f 124/446/306 125/447/313 226/780/316 223/204/307
f 128/448/314 129/449/321 230/778/324 227/206/315
f 132/450/322 133/451/329 234/776/332 231/208/323
f 136/452/330 137/453/337 238/774/340 235/210/331
f 140/454/338 141/455/345 242/772/348 239/212/339
f 144/456/346 145/457/353 246/770/356 243/214/347
f 148/458/354 149/459/361 250/768/364 247/216/355
f 152/460/362 153/461/369 254/766/372 251/218/363
f 156/462/370 157/463/377 258/764/380 255/220/371
f 160/181/378 81/102/221 182/804/224 259/183/379
s 42
f 184/465/382 185/466/393 266/226/396 263/225/383
f 188/467/394 189/468/401 270/228/404 267/227/395
f 192/469/402 193/470/409 274/230/412 271/229/403
f 196/471/410 197/472/417 278/232/420 275/231/411
f 200/473/418 201/474/425 282/234/428 279/233/419
f 204/475/426 205/476/433 286/236/436 283/235/427
f 208/477/434 209/478/441 290/238/444 287/237/435
f 212/479/442 213/480/449 294/240/452 291/239/443
f 216/481/450 217/783/457 298/761/460 295/241/451
f 220/483/458 221/484/465 302/244/468 299/243/459
f 224/485/466 225/486/473 306/246/476 303/245/467
f 228/487/474 229/488/481 310/248/484 307/247/475
f 232/489/482 233/490/489 314/250/492 311/249/483
f 236/491/490 237/492/497 318/252/500 315/251/491
f 240/493/498 241/494/505 322/254/508 319/253/499
f 244/495/506 245/496/513 326/256/516 323/255/507
f 248/497/514 249/498/521 330/258/524 327/257/515
f 252/499/522 253/500/529 334/260/532 331/259/523
f 256/501/530 257/502/537 338/262/540 335/261/531
f 260/222/538 181/182/381 262/503/384 339/224/539
s 62
f 264/679/542 265/505/553 346/758/556 343/266/543
f 268/677/554 269/507/561 350/756/564 347/268/555
f 272/675/562 273/509/569 354/754/572 351/270/563
f 276/673/570 277/511/577 358/752/580 355/272/571
f 280/671/578 281/513/585 362/750/588 359/274/579
f 284/669/586 285/515/593 366/748/596 363/276/587
f 288/667/594 289/517/601 370/746/604 367/278/595
f 292/665/602 293/519/609 374/744/612 371/280/603
f 296/663/610 297/521/617 378/742/620 375/282/611
f 300/661/618 301/523/625 382/740/628 379/284/619
f 304/659/626 305/525/633 386/738/636 383/286/627
f 308/657/634 309/527/641 390/736/644 387/288/635
f 312/655/642 313/529/649 394/734/652 391/290/643
f 316/653/650 317/531/657 398/732/660 395/292/651
f 320/651/658 321/533/665 402/730/668 399/294/659
f 324/649/666 325/535/673 406/728/676 403/296/667
f 328/647/674 329/537/681 410/726/684 407/298/675
f 332/645/682 333/539/689 414/724/692 411/300/683
f 336/643/690 337/541/697 418/722/700 415/302/691
f 340/263/698 261/223/541 342/760/544 419/265/699
s 82
f 344/543/702 345/544/713 427/718/716 422/306/703
f 348/545/714 349/546/721 451/716/724 428/309/715
f 352/547/722 353/548/729 455/714/732 452/332/723
f 356/549/730 357/550/737 459/712/740 456/335/731
f 360/551/738 361/552/745 463/710/748 460/338/739
f 364/553/746 365/554/753 467/708/756 464/341/747
f 368/555/754 369/556/761 471/706/764 468/344/755
f 372/557/762 373/558/769 475/704/772 472/347/763
f 376/559/770 377/560/777 479/702/780 476/350/771
f 380/561/778 381/562/785 483/700/788 480/353/779
f 384/563/786 385/564/793 487/698/796 484/356/787
f 388/565/794 389/566/801 491/696/804 488/359/795
f 392/567/802 393/568/809 495/694/812 492/362/803
f 396/569/810 397/570/817 499/692/820 496/365/811
f 400/571/818 401/572/825 503/690/828 500/368/819
f 404/573/826 405/574/833 507/688/836 504/371/827
f 408/575/834 409/576/841 511/686/844 508/374/835
f 412/577/842 413/578/849 515/684/852 512/377/843
f 416/579/850 417/580/857 519/682/860 516/380/851
f 420/304/858 341/264/701 421/720/704 520/305/859
s 2
f 1/2/6 2/3/5 3/582/14 4/583/13
f 5/584/21 6/12/20 7/383/8 8/585/7
f 9/586/32 10/17/31 11/384/23 12/587/22
f 13/588/43 14/22/42 15/385/34 16/589/33
f 17/590/54 18/27/53 19/386/45 20/591/44
f 21/592/65 22/32/64 23/387/56 24/593/55
f 25/36/76 26/37/75 27/388/67 28/594/66
f 29/595/87 30/42/86 31/389/78 32/596/77
f 33/597/98 34/47/97 35/390/89 36/598/88
f 37/599/109 38/52/108 39/391/100 40/600/99
f 41/601/120 42/57/119 43/392/111 44/602/110
f 45/603/131 46/62/130 47/393/122 48/604/121
f 49/605/142 50/67/141 51/394/133 52/606/132
f 53/607/153 54/72/152 55/395/144 56/608/143
f 57/609/164 58/77/163 59/396/155 60/610/154
f 61/611/175 62/82/174 63/397/166 64/612/165
f 65/613/186 66/87/185 67/398/177 68/614/176
f 69/615/197 70/92/196 71/399/188 72/616/187
f 73/617/208 74/97/207 75/400/199 76/618/198
f 77/619/16 78/101/15 79/401/210 80/620/209
s 23
f 81/621/226 82/4/225 83/106/230 84/622/229
f 85/108/232 86/107/231 87/110/238 88/623/237
f 89/112/240 90/111/239 91/114/246 92/624/245
f 93/116/248 94/115/247 95/118/254 96/625/253
f 97/120/256 98/119/255 99/122/262 100/626/261
f 101/124/264 102/123/263 103/126/270 104/627/269
f 105/128/272 106/127/271 107/130/278 108/129/277
f 109/132/280 110/131/279 111/134/286 112/628/285
f 113/136/288 114/135/287 115/138/294 116/629/293
f 117/140/296 118/139/295 119/142/302 120/630/301
f 121/144/304 122/143/303 123/146/310 124/631/309
f 125/148/312 126/147/311 127/150/318 128/632/317
f 129/152/320 130/151/319 131/154/326 132/633/325
f 133/156/328 134/155/327 135/158/334 136/634/333
f 137/160/336 138/159/335 139/162/342 140/635/341
f 141/164/344 142/163/343 143/166/350 144/636/349
f 145/168/352 146/167/351 147/170/358 148/637/357
f 149/172/360 150/171/359 151/174/366 152/638/365
f 153/176/368 154/175/367 155/178/374 156/639/373
f 157/180/376 158/179/375 159/105/228 160/640/227
s 1
f 161/99/206 162/95/195 163/90/184 164/85/173 165/80/162 166/75/151 167/70/140 168/65/129 169/60/118 170/55/107 171/50/96 172/45/85 173/40/74 174/35/63 175/30/52 176/25/41 177/20/30 178/15/19 179/10/4 180/100/3
s 43
f 181/182/386 182/464/385 183/801/390 184/465/389
f 185/466/392 186/185/391 187/799/398 188/467/397
f 189/468/400 190/187/399 191/797/406 192/469/405
f 193/470/408 194/189/407 195/795/414 196/471/413
f 197/472/416 198/191/415 199/793/422 200/473/421
f 201/474/424 202/193/423 203/791/430 204/475/429
f 205/476/432 206/195/431 207/789/438 208/477/437
f 209/478/440 210/197/439 211/787/446 212/479/445
f 213/480/448 214/199/447 215/786/454 216/481/453
f 217/482/456 218/201/455 219/781/462 220/483/461
f 221/484/464 222/203/463 223/779/470 224/485/469
f 225/486/472 226/205/471 227/777/478 228/487/477
f 229/488/480 230/207/479 231/775/486 232/489/485
f 233/490/488 234/209/487 235/773/494 236/491/493
f 237/492/496 238/211/495 239/771/502 240/493/501
f 241/494/504 242/213/503 243/769/510 244/495/509
f 245/496/512 246/215/511 247/767/518 248/497/517
f 249/498/520 250/217/519 251/765/526 252/499/525
f 253/500/528 254/219/527 255/763/534 256/501/533
f 257/502/536 258/221/535 259/803/388 260/222/387
s 63
f 261/680/546 262/503/545 263/225/550 264/504/549
f 265/678/552 266/226/551 267/227/558 268/506/557
f 269/676/560 270/228/559 271/229/566 272/508/565
f 273/674/568 274/230/567 275/231/574 276/510/573
f 277/672/576 278/232/575 279/233/582 280/512/581
f 281/670/584 282/234/583 283/235/590 284/514/589
f 285/668/592 286/236/591 287/237/598 288/516/597
f 289/666/600 290/238/599 291/239/606 292/518/605
f 293/664/608 294/240/607 295/241/614 296/520/613
f 297/662/616 298/242/615 299/243/622 300/522/621
f 301/660/624 302/244/623 303/245/630 304/524/629
f 305/658/632 306/246/631 307/247/638 308/526/637
f 309/656/640 310/248/639 311/249/646 312/528/645
f 313/654/648 314/250/647 315/251/654 316/530/653
f 317/652/656 318/252/655 319/253/662 320/532/661
f 321/650/664 322/254/663 323/255/670 324/534/669
f 325/648/672 326/256/671 327/257/678 328/536/677
f 329/646/680 330/258/679 331/259/686 332/538/685
f 333/644/688 334/260/687 335/261/694 336/540/693
f 337/641/696 338/262/695 339/224/548 340/642/547
s 83
f 341/264/706 342/542/705 343/757/710 344/543/709
f 345/544/712 346/267/711 347/755/718 348/805/717
f 349/546/720 350/269/719 351/753/726 352/547/725
f 353/548/728 354/271/727 355/751/734 356/549/733
f 357/550/736 358/273/735 359/749/742 360/551/741
f 361/552/744 362/275/743 363/747/750 364/553/749
f 365/554/752 366/277/751 367/745/758 368/555/757
f 369/556/760 370/279/759 371/743/766 372/557/765
f 373/558/768 374/281/767 375/741/774 376/559/773
f 377/560/776 378/283/775 379/739/782 380/561/781
f 381/562/784 382/285/783 383/737/790 384/563/789
f 385/564/792 386/287/791 387/735/798 388/565/797
f 389/566/800 390/289/799 391/733/806 392/567/805
f 393/568/808 394/291/807 395/731/814 396/569/813
f 397/570/816 398/293/815 399/729/822 400/571/821
f 401/572/824 402/295/823 403/727/830 404/573/829
f 405/574/832 406/297/831 407/725/838 408/575/837
f 409/576/840 410/299/839 411/723/846 412/577/845
f 413/578/848 414/301/847 415/721/854 416/579/853
f 417/580/856 418/303/855 419/759/708 420/304/707
s 102
f 421/581/861 422/717/866 423/308/865 424/424/862
f 425/311/873 426/405/868 427/307/867 428/715/874
s 103
f 429/425/872 430/312/871 431/314/879 432/316/883 433/317/886 434/318/889 435/319/892 436/320/895 437/321/898 438/322/901 439/323/904 440/324/907 441/325/910 442/326/913 443/327/916 444/328/919 445/329/922 446/330/925 447/331/928 448/423/880
s 102
f 449/406/933 450/315/876 451/310/875 452/713/934
f 453/407/937 454/334/936 455/333/935 456/711/938
f 457/408/941 458/337/940 459/336/939 460/709/942
f 461/409/945 462/340/944 463/339/943 464/707/946
f 465/410/949 466/343/948 467/342/947 468/705/950
f 469/411/953 470/346/952 471/345/951 472/703/954
f 473/412/957 474/349/956 475/348/955 476/701/958
f 477/413/961 478/352/960 479/351/959 480/699/962
f 481/414/965 482/355/964 483/354/963 484/697/966
f 485/415/969 486/358/968 487/357/967 488/695/970
f 489/416/973 490/361/972 491/360/971 492/693/974
f 493/417/977 494/364/976 495/363/975 496/691/978
f 497/418/981 498/367/980 499/366/979 500/689/982
f 501/419/985 502/370/984 503/369/983 504/687/986
f 505/420/989 506/373/988 507/372/987 508/685/990
f 509/421/993 510/376/992 511/375/991 512/683/994
f 513/422/997 514/379/996 515/378/995 516/681/998
f 517/313/863 518/382/1000 519/381/999 520/719/864
