# This file uses centimeters as units for non-parametric coordinates.

mtllib 医院药袋.mtl
g default
v 4.619850 2.038907 0.021977
v 4.841346 2.038907 0.021977
v 4.631613 2.408142 0.021061
v 4.829583 2.408142 0.021061
v 4.631613 2.408142 0.019785
v 4.829583 2.408142 0.019785
v 4.619850 2.038907 0.018869
v 4.841346 2.038907 0.018869
v 4.631424 2.038907 0.021977
v 4.640467 2.408142 0.021061
v 4.640467 2.408142 0.019785
v 4.631424 2.038907 0.018869
v 4.827457 2.038907 0.021977
v 4.818625 2.408142 0.021061
v 4.818625 2.408142 0.019785
v 4.827457 2.038907 0.018869
v 4.619850 2.338053 0.042977
v 4.619850 2.338053 -0.002131
v 4.631424 2.338053 -0.002131
v 4.827457 2.338053 -0.002131
v 4.841346 2.338053 -0.002131
v 4.841346 2.338053 0.042977
v 4.827457 2.338053 0.042977
v 4.631424 2.338053 0.042977
v 4.619850 2.068235 0.045271
v 4.619850 2.068235 -0.004425
v 4.631424 2.068235 -0.004425
v 4.827457 2.068235 -0.004425
v 4.841346 2.068235 -0.004425
v 4.841346 2.068235 0.045271
v 4.827457 2.068235 0.045271
v 4.631424 2.068235 0.045271
v 4.693088 2.408142 0.020684
v 4.693088 2.408142 0.020162
v 4.766004 2.408142 0.020684
v 4.766004 2.408142 0.020162
v 4.715430 2.442263 0.020524
v 4.715430 2.442263 0.020322
v 4.743662 2.442263 0.020524
v 4.743662 2.442263 0.020322
v 4.700719 2.411713 0.020629
v 4.758373 2.411713 0.020629
v 4.740708 2.438692 0.020503
v 4.718385 2.438692 0.020503
v 4.700719 2.411713 0.020217
v 4.758373 2.411713 0.020217
v 4.718385 2.438692 0.020343
v 4.740708 2.438692 0.020343
v 4.689841 2.038907 0.019795
v 4.689841 2.038907 0.021051
v 4.769039 2.038907 0.019795
v 4.769039 2.038907 0.021051
v 4.718661 2.000905 0.017079
v 4.718661 2.000905 0.023767
v 4.740220 2.000905 0.017079
v 4.740220 2.000905 0.023767
v 4.718661 1.977373 0.017079
v 4.718661 1.977373 0.023767
v 4.740220 1.977373 0.017079
v 4.740220 1.977373 0.023767
vt 0.149156 0.468733
vt 0.148572 0.230562
vt 0.147339 0.035454
vt 0.149156 0.000000
vt 0.261359 0.190236
vt 0.260865 0.190730
vt 0.260563 0.191005
vt 0.261266 0.190292
vt 0.153001 0.147745
vt 0.153117 0.166139
vt 0.148480 0.236562
vt 0.149267 0.419871
vt 0.110904 0.223365
vt 0.111443 0.223016
vt 0.118623 0.220008
vt 0.102678 0.226137
vt 0.713928 0.307451
vt 0.110741 0.224397
vt 0.248021 0.213232
vt 0.248020 0.213232
vt 0.246365 0.215810
vt 0.246366 0.215811
vt 0.122002 0.218033
vt 0.112127 0.222145
vt 0.130289 0.228446
vt 0.130290 0.228530
vt 0.129667 0.228409
vt 0.129664 0.228325
vt 0.233455 0.238005
vt 0.233472 0.238345
vt 0.233569 0.238958
vt 0.233541 0.238877
vt 0.256685 0.185647
vt 0.273300 0.177190
vt 0.253247 0.188001
vt 0.225120 0.236625
vt 0.225588 0.240241
vt 0.230038 0.252845
vt 0.713928 0.910752
vt 0.278503 0.176229
vt 0.252712 0.204814
vt 0.252602 0.204877
vt 0.241530 0.224246
vt 0.241486 0.224154
vt 0.242563 0.222261
vt 0.251536 0.206765
vt 0.246394 0.215819
vt 0.247993 0.213218
vt 0.251530 0.206770
vt 0.242560 0.222254
vt 0.247994 0.213218
vt 0.246394 0.215819
vt 0.137497 0.231494
vt 0.137400 0.229483
vt 0.122766 0.226211
vt 0.122260 0.226477
vt 0.130912 0.228712
vt 0.130901 0.228618
vt 0.129067 0.228183
vt 0.129044 0.228169
vt 0.096927 0.227601
vt 0.275620 0.307451
vt 0.275620 0.910752
vt 0.232435 0.257114
vn 0.000000 -0.621953 0.783054
vn 0.000000 -0.621953 0.783055
vn 0.000000 -0.070029 0.997545
vn 0.000000 -0.070029 0.997545
vn 0.000000 1.000000 0.000000
vn 0.000000 1.000000 0.000000
vn 0.000000 1.000000 0.000000
vn 0.000000 1.000000 0.000000
vn 0.000000 -0.070028 -0.997545
vn 0.000000 -0.070029 -0.997545
vn 0.000000 -0.621953 -0.783055
vn 0.000000 -0.621953 -0.783054
vn 0.000000 -1.000000 0.000000
vn 0.000000 -1.000000 0.000000
vn 0.000000 -1.000000 0.000000
vn 0.000000 -1.000000 0.000000
vn 1.000000 0.000000 0.000000
vn 1.000000 0.000000 0.000000
vn 1.000000 -0.000000 0.000000
vn 1.000000 -0.000000 0.000000
vn -1.000000 0.000000 0.000000
vn -1.000000 0.000000 0.000000
vn -1.000000 -0.000000 0.000000
vn -1.000000 -0.000000 0.000000
vn 0.000000 -0.070029 0.997545
vn 0.000000 -0.621953 0.783055
vn 0.000000 1.000000 0.000000
vn 0.000000 1.000000 0.000000
vn 0.000000 1.000000 0.000000
vn 0.000000 1.000000 0.000000
vn 0.000000 -0.070029 -0.997545
vn 0.000000 -0.621953 -0.783055
vn 0.000000 -1.000000 0.000000
vn 0.000000 -1.000000 0.000000
vn 0.000000 -1.000000 0.000000
vn 0.000000 -1.000000 0.000000
vn 0.000000 -0.070029 0.997545
vn 0.000000 -0.621953 0.783055
vn 0.000000 1.000000 0.000000
vn 0.000000 1.000000 0.000000
vn 0.000000 1.000000 0.000000
vn 0.000000 1.000000 0.000000
vn 0.000000 -0.070029 -0.997545
vn 0.000000 -0.621953 -0.783055
vn 0.000000 -1.000000 0.000000
vn 0.000000 -1.000000 0.000000
vn 0.000000 -1.000000 0.000000
vn 0.000000 -1.000000 0.000000
vn -0.999961 0.008788 0.000000
vn -0.999961 0.008788 0.000000
vn -0.986209 0.165504 0.000000
vn -0.986209 0.165504 0.000000
vn 0.000000 0.298440 -0.954428
vn 0.000000 0.298440 -0.954428
vn 0.000000 0.065585 -0.997847
vn 0.000000 0.060947 -0.998141
vn 0.000000 0.065726 -0.997838
vn 0.000000 0.298440 -0.954428
vn 0.000000 0.061530 -0.998105
vn 0.000000 0.298440 -0.954428
vn 0.999961 0.008788 0.000000
vn 0.999961 0.008788 0.000000
vn 0.986207 0.165516 0.000000
vn 0.986207 0.165516 0.000000
vn 0.000000 0.298440 0.954428
vn 0.000000 0.065726 0.997838
vn 0.000000 0.061530 0.998105
vn 0.000000 0.298440 0.954428
vn 0.000000 0.298440 0.954428
vn 0.000000 0.065585 0.997847
vn 0.000000 0.060947 0.998141
vn 0.000000 0.298440 0.954428
vn 0.000000 1.000000 0.000000
vn 0.000000 1.000000 0.000000
vn 0.000000 1.000000 0.000000
vn 0.000000 1.000000 0.000000
vn 0.000000 1.000000 -0.000020
vn 0.000000 1.000000 -0.000020
vn 0.000000 1.000000 -0.000020
vn 0.000000 1.000000 -0.000020
vn 0.000000 1.000000 0.000000
vn 0.000000 1.000000 0.000000
vn 0.000000 1.000000 0.000000
vn 0.000000 1.000000 0.000000
vn 0.000000 1.000000 0.000020
vn 0.000000 1.000000 0.000020
vn 0.000000 1.000000 0.000020
vn 0.000000 1.000000 0.000020
vn -0.836611 0.547797 0.000000
vn -0.836611 0.547797 0.000000
vn -0.836611 0.547797 0.000000
vn -0.836611 0.547797 0.000000
vn 0.836611 0.547797 0.000000
vn 0.836611 0.547797 0.000000
vn 0.836611 0.547797 0.000000
vn 0.836611 0.547797 0.000000
vn 0.000000 0.015306 0.999883
vn 0.000000 0.015306 0.999883
vn 0.000000 0.015306 0.999883
vn 0.000000 0.015306 0.999883
vn -0.007162 -0.000001 0.999974
vn -0.007162 -0.000001 0.999974
vn -0.007162 -0.000001 0.999974
vn -0.007162 -0.000001 0.999974
vn 0.000000 -0.005923 0.999982
vn 0.000000 -0.005923 0.999982
vn 0.000000 -0.005923 0.999982
vn 0.000000 -0.005923 0.999982
vn 0.007162 -0.000001 0.999974
vn 0.007162 -0.000001 0.999974
vn 0.007162 -0.000001 0.999974
vn 0.007162 -0.000001 0.999974
vn 0.000000 0.015286 -0.999883
vn 0.000000 0.015286 -0.999883
vn 0.000000 0.015286 -0.999883
vn 0.000000 0.015286 -0.999883
vn 0.007155 0.000002 -0.999974
vn 0.007155 0.000002 -0.999974
vn 0.007155 0.000002 -0.999974
vn 0.007155 0.000002 -0.999974
vn 0.000000 -0.005923 -0.999982
vn 0.000000 -0.005923 -0.999982
vn 0.000000 -0.005923 -0.999982
vn 0.000000 -0.005923 -0.999982
vn -0.007155 0.000002 -0.999974
vn -0.007155 0.000002 -0.999974
vn -0.007155 0.000002 -0.999974
vn -0.007155 0.000002 -0.999974
vn -0.836608 -0.547802 0.000000
vn -0.836608 -0.547802 0.000000
vn -0.836608 -0.547802 0.000000
vn -0.836608 -0.547802 0.000000
vn 0.000000 -1.000000 0.000000
vn 0.000000 -1.000000 0.000000
vn 0.000000 -1.000000 0.000000
vn 0.000000 -1.000000 0.000000
vn 0.836608 -0.547802 0.000000
vn 0.836608 -0.547802 0.000000
vn 0.836608 -0.547802 0.000000
vn 0.836608 -0.547802 0.000000
vn 0.000000 1.000000 0.000000
vn 0.000000 1.000000 0.000000
vn 0.000000 1.000000 0.000000
vn 0.000000 1.000000 0.000000
vn 0.000000 -1.000000 0.000000
vn 0.000000 -1.000000 0.000000
vn 0.000000 -1.000000 0.000000
vn 0.000000 -1.000000 0.000000
vn 0.000000 -1.000000 0.000008
vn 0.000000 -1.000000 0.000008
vn 0.000000 -1.000000 0.000008
vn 0.000000 -1.000000 0.000008
vn 0.000000 -1.000000 0.000000
vn 0.000000 -1.000000 0.000000
vn 0.000000 -1.000000 0.000000
vn 0.000000 -1.000000 0.000000
vn 0.000000 -1.000000 -0.000023
vn 0.000000 -1.000000 -0.000023
vn 0.000000 -1.000000 -0.000023
vn 0.000000 -1.000000 -0.000023
vn -0.796798 -0.604245 0.000000
vn -0.796798 -0.604245 0.000000
vn -0.796798 -0.604245 0.000000
vn -0.796798 -0.604245 0.000000
vn 0.000000 0.071304 -0.997455
vn 0.000000 0.071304 -0.997455
vn 0.000000 0.060574 -0.998164
vn 0.000000 0.060574 -0.998164
vn 0.796803 -0.604240 0.000000
vn 0.796803 -0.604240 0.000000
vn 0.796803 -0.604240 0.000000
vn 0.796803 -0.604240 0.000000
vn 0.000000 0.071304 0.997455
vn 0.000000 0.071304 0.997455
vn 0.000000 0.060574 0.998164
vn 0.000000 0.060574 0.998164
vn -1.000000 0.000000 0.000000
vn -1.000000 0.000000 0.000000
vn -1.000000 0.000000 0.000000
vn -1.000000 0.000000 0.000000
vn 0.000000 0.000000 -1.000000
vn 0.000000 0.000000 -1.000000
vn 1.000000 0.000000 0.000000
vn 1.000000 0.000000 0.000000
vn 1.000000 0.000000 0.000000
vn 1.000000 0.000000 0.000000
vn 0.000000 0.000000 1.000000
vn 0.000000 0.000000 1.000000
s 1
g pCube9
usemtl initialShadingGroup
f 1/1/1 9/2/2 32/3/3 25/4/4
s off
f 3/5/5 10/6/6 11/7/7 5/8/8
s 2
f 26/9/9 27/10/10 12/11/11 7/12/12
s off
f 7/12/13 12/11/14 9/2/15 1/1/16
s 3
f 2/13/17 8/14/18 29/15/19 30/16/20
s 4
f 7/12/21 1/1/22 25/4/23 26/9/24
s 1
f 31/61/25 32/3/3 9/2/2 13/18/26
s off
f 38/19/27 37/20/28 39/21/29 40/22/30
s 2
f 12/11/11 27/10/10 28/23/31 16/24/32
s off
f 58/25/33 57/26/34 59/27/35 60/28/36
s 1
f 30/16/37 31/61/25 13/18/26 2/13/38
s off
f 15/29/39 14/30/40 4/31/41 6/32/42
s 2
f 16/24/32 28/23/31 29/15/43 8/14/44
s off
f 13/18/45 16/24/46 8/14/47 2/13/48
s 4
f 18/33/49 17/34/50 3/5/51 5/8/52
s 2
f 5/8/53 11/7/54 19/35/55 18/33/56
f 20/36/57 19/35/55 11/7/54 15/29/58
f 21/37/59 20/36/57 15/29/58 6/32/60
s 3
f 22/38/61 21/37/62 6/32/63 4/31/64
s 1
f 14/30/65 23/64/66 22/38/67 4/31/68
f 10/6/69 24/40/70 23/64/66 14/30/65
f 17/34/71 24/40/70 10/6/69 3/5/72
s 4
f 26/9/24 25/4/23 17/34/50 18/33/49
s 2
f 18/33/56 19/35/55 27/10/10 26/9/9
f 28/23/31 27/10/10 19/35/55 20/36/57
f 29/15/43 28/23/31 20/36/57 21/37/59
s 3
f 30/16/20 29/15/19 21/37/62 22/38/61
s 1
f 22/38/67 23/64/66 31/61/25 30/16/37
f 23/39/66 24/63/70 32/62/3 31/17/25
f 25/4/4 32/3/3 24/40/70 17/34/71
s off
f 11/7/73 10/6/74 33/41/75 34/42/76
f 10/6/77 14/30/78 35/43/79 33/41/80
f 14/30/81 15/29/82 36/44/83 35/43/84
f 15/29/85 11/7/86 34/42/87 36/44/88
f 34/42/89 33/41/90 37/20/91 38/19/92
f 35/43/93 36/44/94 40/22/95 39/21/96
f 33/41/97 35/43/98 42/45/99 41/46/100
f 35/43/101 39/21/102 43/47/103 42/45/104
f 39/21/105 37/20/106 44/48/107 43/47/108
f 37/20/109 33/41/110 41/46/111 44/48/112
f 36/44/113 34/42/114 45/49/115 46/50/116
f 34/42/117 38/19/118 47/51/119 45/49/120
f 38/19/121 40/22/122 48/52/123 47/51/124
f 40/22/125 36/44/126 46/50/127 48/52/128
f 42/45/129 43/47/130 48/52/131 46/50/132
f 43/47/133 44/48/134 47/51/135 48/52/136
f 44/48/137 41/46/138 45/49/139 47/51/140
f 41/46/141 42/45/142 46/50/143 45/49/144
f 9/2/145 12/11/146 49/53/147 50/54/148
f 12/11/149 16/24/150 51/55/151 49/53/152
f 16/24/153 13/18/154 52/56/155 51/55/156
f 13/18/157 9/2/158 50/54/159 52/56/160
f 50/54/161 49/53/162 53/57/163 54/58/164
s 7
f 49/53/165 51/55/166 55/59/167 53/57/168
s off
f 51/55/169 52/56/170 56/60/171 55/59/172
s 8
f 52/56/173 50/54/174 54/58/175 56/60/176
s off
f 54/58/177 53/57/178 57/26/179 58/25/180
s 7
f 53/57/168 55/59/167 59/27/181 57/26/182
s off
f 55/59/183 56/60/184 60/28/185 59/27/186
s 8
f 56/60/176 54/58/175 58/25/187 60/28/188
