# This file uses centimeters as units for non-parametric coordinates.

mtllib 墙.mtl
g default
v -10.997984 -1.875669 6.092177
v -10.966923 -1.895834 6.092177
v -10.966923 -1.875669 6.148595
v -10.966923 -1.826986 6.171963
v -10.997984 -1.826986 6.148595
v -11.010851 -1.826986 6.092177
v -10.847985 -1.875669 6.092177
v -10.835118 -1.826986 6.092177
v -10.847985 -1.826986 6.148595
v -10.879047 -1.826986 6.171963
v -10.879047 -1.875669 6.148595
v -10.879047 -1.895834 6.092177
v -10.997984 9.490905 6.092177
v -11.010851 9.442223 6.092177
v -10.997984 9.442223 6.148595
v -10.966923 9.442223 6.171963
v -10.966923 9.490905 6.148595
v -10.966923 9.511071 6.092177
v -10.847985 9.490905 6.092177
v -10.879047 9.511071 6.092177
v -10.879047 9.490905 6.148595
v -10.879047 9.442223 6.171963
v -10.847985 9.442223 6.148595
v -10.835118 9.442223 6.092177
v -10.997984 9.442223 -14.705542
v -11.010851 9.442223 -14.649125
v -10.997984 9.490905 -14.649125
v -10.966923 9.511071 -14.649125
v -10.966923 9.490905 -14.705542
v -10.966923 9.442223 -14.728911
v -10.847985 9.442223 -14.705542
v -10.879047 9.442223 -14.728911
v -10.879047 9.490905 -14.705542
v -10.879047 9.511071 -14.649125
v -10.847985 9.490905 -14.649125
v -10.835118 9.442223 -14.649125
v -10.997984 -1.875669 -14.649125
v -11.010851 -1.826986 -14.649125
v -10.997984 -1.826986 -14.705542
v -10.966923 -1.826986 -14.728911
v -10.966923 -1.875669 -14.705542
v -10.966923 -1.895834 -14.649125
v -10.847985 -1.875669 -14.649125
v -10.879047 -1.895834 -14.649125
v -10.879047 -1.875669 -14.705542
v -10.879047 -1.826986 -14.728911
v -10.847985 -1.826986 -14.705542
v -10.835118 -1.826986 -14.649125
v -10.992275 -1.866722 6.138226
v -10.853694 -1.866722 6.138226
v -10.992275 9.481958 6.138226
v -10.853694 9.481958 6.138226
v -10.992275 9.481958 -14.695175
v -10.853694 9.481958 -14.695175
v -10.992275 -1.866722 -14.695175
v -10.853694 -1.866722 -14.695175
vt 0.544964 0.345385
vt 0.545605 0.345464
vt 0.524370 0.572451
vt 0.523716 0.572409
vt 0.568674 0.389859
vt 0.555276 0.533112
vt 0.546288 0.344249
vt 0.544964 0.344618
vt 0.544610 0.343678
vt 0.546366 0.342541
vt 0.543249 0.345174
vt 0.546267 0.344896
vt 0.689183 0.358366
vt 0.658840 0.398356
vt 0.689274 0.357727
vt 0.301597 0.480856
vt 0.758729 0.367957
vt 0.521322 0.572248
vt 0.802202 0.588199
vt 0.521994 0.572301
vt 0.546414 0.341868
vt 0.621493 0.404759
vt 0.689515 0.356035
vt 0.061980 0.546147
vt 0.689745 0.359045
vt 0.668479 0.585958
vt 0.645418 0.541562
vt 0.690398 0.359087
vt 0.669128 0.586039
vt 0.689873 0.358378
vt 0.690986 0.357478
vt 0.692119 0.359197
vt 0.692790 0.359251
vt 0.676978 0.599182
vt 0.670840 0.586251
vt 0.160032 0.886693
vt 0.667799 0.586521
vt 0.524933 0.573130
vt 0.667769 0.587166
vt 0.524843 0.573769
vt 0.668480 0.586640
vt 0.669405 0.587732
vt 0.667690 0.588874
vt 0.667642 0.589547
vt 0.802348 0.567742
vt 0.524602 0.575462
vt 0.524244 0.573121
vt 0.523131 0.574022
vt 0.545636 0.344997
vt 0.756070 0.348974
vt 0.689605 0.358594
vt 0.691830 0.356785
vt 0.668257 0.586378
vt 0.670105 0.588571
vt 0.524511 0.572906
vt 0.522288 0.574717
vt 0.620914 0.404917
vt 0.689594 0.355365
vt 0.621202 0.405468
vt 0.737274 0.344618
vt 0.543941 0.342854
vt 0.542580 0.345102
vt 0.802540 0.566731
vt 0.524524 0.576132
vt 0.802782 0.567036
vt 0.677572 0.599192
vt 0.671509 0.586324
vt 0.677694 0.599593
vt 0.677548 0.620055
vt 0.379164 0.830692
vt 0.621772 0.426335
vt 0.758078 0.389194
vt 0.677548 0.620055
vt 0.676978 0.599182
vn -0.167055 -0.985947 0.000886
vn -0.544512 -0.838753 0.000028
vn -0.544512 -0.838753 -0.000028
vn -0.167055 -0.985947 -0.000886
vn -0.966833 -0.255409 0.000833
vn -0.999999 -0.001134 0.000616
vn -0.999999 -0.001134 -0.000616
vn -0.966833 -0.255409 -0.000833
vn -0.192601 -0.001879 0.981275
vn -0.133452 -0.419794 0.897755
vn 0.133451 -0.419795 0.897754
vn 0.192600 -0.001879 0.981276
vn -0.120525 -0.937512 0.326413
vn 0.167054 -0.985947 0.000886
vn 0.120524 -0.937511 0.326415
vn -0.975002 -0.001536 0.222191
vn -0.975002 0.001536 0.222191
vn -0.999999 0.001134 0.000616
vn -0.601172 -0.000083 0.799120
vn -0.192601 0.001879 0.981275
vn -0.601172 0.000083 0.799120
vn 0.999999 -0.001134 0.000616
vn 0.966836 -0.255396 0.000833
vn 0.966836 -0.255396 -0.000833
vn 0.999999 -0.001134 -0.000616
vn 0.544504 -0.838758 0.000028
vn 0.167054 -0.985947 -0.000886
vn 0.544504 -0.838758 -0.000028
vn 0.601164 -0.000083 0.799126
vn 0.601164 0.000083 0.799126
vn 0.192600 0.001879 0.981276
vn 0.975004 -0.001536 0.222180
vn 0.999999 0.001134 0.000616
vn 0.975004 0.001536 0.222180
vn -0.966832 0.255410 0.000833
vn -0.966832 0.255410 -0.000833
vn -0.999999 0.001134 -0.000616
vn -0.544518 0.838749 0.000028
vn -0.167057 0.985947 0.000886
vn -0.167057 0.985947 -0.000886
vn -0.544518 0.838749 -0.000028
vn -0.120525 0.937510 0.326418
vn 0.120525 0.937510 0.326417
vn 0.167056 0.985947 0.000886
vn -0.133452 0.419796 0.897754
vn 0.133451 0.419797 0.897753
vn 0.544510 0.838754 0.000028
vn 0.544510 0.838754 -0.000028
vn 0.167056 0.985947 -0.000886
vn 0.966836 0.255398 0.000833
vn 0.999999 0.001134 -0.000616
vn 0.966836 0.255398 -0.000833
vn -0.975001 0.001536 -0.222194
vn -0.975001 -0.001536 -0.222193
vn -0.601182 0.000083 -0.799112
vn -0.192606 0.001879 -0.981274
vn -0.192606 -0.001879 -0.981274
vn -0.601182 -0.000083 -0.799112
vn -0.133450 0.419802 -0.897751
vn 0.133451 0.419803 -0.897751
vn 0.192605 0.001879 -0.981275
vn -0.120526 0.937509 -0.326420
vn 0.120526 0.937509 -0.326419
vn 0.601174 0.000083 -0.799118
vn 0.601174 -0.000083 -0.799118
vn 0.192605 -0.001879 -0.981275
vn 0.975004 0.001536 -0.222183
vn 0.975004 -0.001536 -0.222183
vn -0.120525 -0.937511 -0.326416
vn 0.120525 -0.937510 -0.326417
vn -0.133451 -0.419800 -0.897752
vn 0.133453 -0.419801 -0.897751
vn -0.955498 -0.223343 0.192723
vn -0.480190 -0.836374 0.264378
vn -0.522280 -0.333232 0.784971
vn 0.480185 -0.836374 0.264386
vn 0.955498 -0.223341 0.192722
vn 0.522274 -0.333237 0.784973
vn -0.480193 0.836372 0.264379
vn -0.955499 0.223339 0.192719
vn -0.522278 0.333233 0.784972
vn 0.955499 0.223340 0.192721
vn 0.480189 0.836375 0.264377
vn 0.522272 0.333239 0.784973
vn -0.522275 0.333228 -0.784977
vn -0.955500 0.223338 -0.192720
vn -0.480193 0.836372 -0.264379
vn 0.955499 0.223337 -0.192720
vn 0.522275 0.333232 -0.784975
vn 0.480189 0.836375 -0.264377
vn -0.480189 -0.836374 -0.264380
vn -0.955499 -0.223339 -0.192722
vn -0.522279 -0.333228 -0.784974
vn 0.955498 -0.223340 -0.192723
vn 0.480185 -0.836375 -0.264386
vn 0.522280 -0.333232 -0.784971
s 1
g pCube10
usemtl initialShadingGroup
f 2/1/1 1/2/2 37/3/3 42/4/4
s 2
f 1/2/5 6/5/6 38/6/7 37/3/8
s 3
f 4/7/9 3/8/10 11/9/11 10/10/12
s 1
f 3/8/13 2/1/1 12/11/14 11/9/15
s 2
f 6/5/6 5/12/16 15/13/17 14/14/18
s 3
f 5/12/19 4/7/9 16/15/20 15/13/21
s 4
f 8/72/22 7/17/23 43/65/24 48/19/25
s 1
f 7/62/26 12/11/14 44/20/27 43/18/28
s 3
f 10/10/12 9/21/29 23/58/30 22/23/31
s 4
f 9/60/32 8/72/22 24/71/33 23/22/34
s 2
f 14/14/18 13/25/35 27/26/36 26/27/37
s 5
f 13/25/38 18/28/39 28/29/40 27/26/41
f 18/28/39 17/30/42 21/31/43 20/32/44
s 3
f 17/30/45 16/15/20 22/23/31 21/31/46
s 5
f 20/32/44 19/33/47 35/67/48 34/35/49
s 4
f 19/59/50 24/71/33 36/69/51 35/74/52
s 2
f 26/27/37 25/37/53 39/38/54 38/6/7
s 6
f 25/37/55 30/39/56 40/40/57 39/38/58
f 30/39/56 29/41/59 33/42/60 32/43/61
s 5
f 29/41/62 28/29/40 34/35/49 33/42/63
s 6
f 32/43/61 31/44/64 47/64/65 46/46/66
s 4
f 31/68/67 36/73/51 48/19/25 47/45/68
s 1
f 42/4/4 41/47/69 45/48/70 44/20/27
s 6
f 41/47/71 40/40/57 46/46/66 45/48/72
s 3
f 4/7/9 10/10/12 22/23/31 16/15/20
s 5
f 18/28/39 20/32/44 34/35/49 28/29/40
s 6
f 30/39/56 32/43/61 46/46/66 40/40/57
s 1
f 42/4/4 44/20/27 12/11/14 2/1/1
s 4
f 8/16/22 48/70/25 36/36/51 24/24/33
s 2
f 38/6/7 6/5/6 14/14/18 26/27/37
f 5/12/16 6/5/6 1/2/5 49/49/73
s 1
f 1/2/2 2/1/1 3/8/13 49/49/74
s 3
f 3/8/10 4/7/9 5/12/19 49/49/75
s 1
f 11/9/15 12/11/14 7/62/26 50/61/76
s 4
f 7/17/23 8/72/22 9/60/32 50/50/77
s 3
f 9/21/29 10/10/12 11/9/11 50/61/78
s 5
f 17/30/42 18/28/39 13/25/38 51/51/79
s 2
f 13/25/35 14/14/18 15/13/17 51/51/80
s 3
f 15/13/21 16/15/20 17/30/45 51/51/81
s 4
f 23/22/34 24/71/33 19/59/50 52/57/82
s 5
f 19/33/47 20/32/44 21/31/43 52/52/83
s 3
f 21/31/46 22/23/31 23/58/30 52/52/84
s 6
f 29/41/59 30/39/56 25/37/55 53/53/85
s 2
f 25/37/53 26/27/37 27/26/36 53/53/86
s 5
f 27/26/41 28/29/40 29/41/62 53/53/87
s 4
f 35/34/52 36/73/51 31/68/67 54/66/88
s 6
f 31/44/64 32/43/61 33/42/60 54/54/89
s 5
f 33/42/63 34/35/49 35/67/48 54/54/90
s 1
f 41/47/69 42/4/4 37/3/3 55/55/91
s 2
f 37/3/8 38/6/7 39/38/54 55/55/92
s 6
f 39/38/58 40/40/57 41/47/71 55/55/93
s 4
f 47/45/68 48/19/25 43/65/24 56/63/94
s 1
f 43/18/28 44/20/27 45/48/70 56/56/95
s 6
f 45/48/72 46/46/66 47/64/65 56/56/96
