# This file uses centimeters as units for non-parametric coordinates.

mtllib 时钟的链子.mtl
g default
v -0.108206 -0.023813 -7.060764
v -0.111136 -0.029036 -7.060764
v -0.105388 -0.030437 -7.063068
v -0.102993 -0.030961 -7.068632
v -0.100455 -0.025983 -7.068630
v -0.098875 -0.020624 -7.068630
v -0.101123 -0.020071 -7.063068
v -0.106537 -0.018690 -7.060764
v -0.122103 -0.045212 -7.060764
v -0.126873 -0.049271 -7.060764
v -0.121548 -0.052197 -7.063067
v -0.119297 -0.053330 -7.068632
v -0.115251 -0.049482 -7.068634
v -0.111887 -0.045022 -7.068638
v -0.113898 -0.043885 -7.063069
v -0.118729 -0.041097 -7.060764
v -0.143577 -0.062042 -7.060764
v -0.149297 -0.064547 -7.060764
v -0.145152 -0.068916 -7.063068
v -0.143372 -0.070668 -7.068634
v -0.138375 -0.068181 -7.068640
v -0.133784 -0.064999 -7.068645
v -0.135352 -0.063301 -7.063071
v -0.139109 -0.059175 -7.060764
v -0.170397 -0.072746 -7.060764
v -0.176274 -0.073717 -7.060764
v -0.174028 -0.079074 -7.063069
v -0.173056 -0.081275 -7.068636
v -0.167580 -0.080207 -7.068638
v -0.162289 -0.078432 -7.068639
v -0.163173 -0.076299 -7.063069
v -0.165278 -0.071138 -7.060764
v -0.199983 -0.076398 -7.060764
v -0.205564 -0.076041 -7.060764
v -0.205558 -0.081669 -7.063069
v -0.205552 -0.084000 -7.068639
v -0.199984 -0.084354 -7.068636
v -0.194418 -0.084000 -7.068633
v -0.194409 -0.081669 -7.063069
v -0.194401 -0.076041 -7.060764
v -0.229569 -0.072746 -7.060764
v -0.234687 -0.071138 -7.060764
v -0.236792 -0.076299 -7.063069
v -0.237676 -0.078432 -7.068639
v -0.232387 -0.080207 -7.068633
v -0.226916 -0.081274 -7.068627
v -0.225940 -0.079074 -7.063067
v -0.223691 -0.073717 -7.060764
v -0.256389 -0.062042 -7.060764
v -0.260856 -0.059175 -7.060764
v -0.264613 -0.063301 -7.063071
v -0.266181 -0.064999 -7.068645
v -0.261592 -0.068180 -7.068635
v -0.256600 -0.070665 -7.068624
v -0.254817 -0.068915 -7.063065
v -0.250668 -0.064547 -7.060764
v -0.277862 -0.045212 -7.060764
v -0.281236 -0.041097 -7.060764
v -0.286067 -0.043884 -7.063069
v -0.288078 -0.045022 -7.068638
v -0.284716 -0.049480 -7.068629
v -0.280675 -0.053325 -7.068621
v -0.278422 -0.052195 -7.063064
v -0.273092 -0.049271 -7.060764
v -0.291760 -0.023813 -7.060764
v -0.293428 -0.018690 -7.060764
v -0.298843 -0.020068 -7.063069
v -0.301091 -0.020619 -7.068637
v -0.299512 -0.025980 -7.068629
v -0.296977 -0.030954 -7.068620
v -0.294580 -0.030433 -7.063064
v -0.288829 -0.029036 -7.060764
v -0.296534 0.000000 -7.060764
v -0.295992 0.005588 -7.060764
v -0.301691 0.005577 -7.063069
v -0.304051 0.005565 -7.068634
v -0.304593 0.000002 -7.068627
v -0.304052 -0.005558 -7.068623
v -0.301692 -0.005573 -7.063065
v -0.295992 -0.005588 -7.060764
v -0.291760 0.023813 -7.060764
v -0.288829 0.029036 -7.060764
v -0.294577 0.030437 -7.063068
v -0.296972 0.030961 -7.068632
v -0.299510 0.025983 -7.068630
v -0.301090 0.020624 -7.068630
v -0.298842 0.020071 -7.063068
v -0.293428 0.018690 -7.060764
v -0.277862 0.045212 -7.060764
v -0.273092 0.049271 -7.060764
v -0.278418 0.052197 -7.063067
v -0.280668 0.053330 -7.068632
v -0.284715 0.049482 -7.068634
v -0.288078 0.045022 -7.068638
v -0.286067 0.043884 -7.063069
v -0.281236 0.041097 -7.060764
v -0.256388 0.062042 -7.060764
v -0.250668 0.064547 -7.060764
v -0.254813 0.068916 -7.063068
v -0.256593 0.070668 -7.068634
v -0.261590 0.068181 -7.068640
v -0.266181 0.064999 -7.068645
v -0.264613 0.063301 -7.063071
v -0.260856 0.059175 -7.060764
v -0.229569 0.072746 -7.060764
v -0.223691 0.073717 -7.060764
v -0.225937 0.079074 -7.063069
v -0.226910 0.081275 -7.068636
v -0.232386 0.080207 -7.068638
v -0.237676 0.078432 -7.068639
v -0.236792 0.076299 -7.063069
v -0.234687 0.071138 -7.060764
v -0.199983 0.076398 -7.060764
v -0.194401 0.076041 -7.060764
v -0.194407 0.081669 -7.063069
v -0.194414 0.084000 -7.068639
v -0.199982 0.084354 -7.068636
v -0.205547 0.084000 -7.068633
v -0.205556 0.081669 -7.063069
v -0.205564 0.076041 -7.060764
v -0.170397 0.072746 -7.060764
v -0.165278 0.071138 -7.060764
v -0.163173 0.076299 -7.063069
v -0.162289 0.078432 -7.068639
v -0.167578 0.080207 -7.068633
v -0.173050 0.081274 -7.068627
v -0.174025 0.079074 -7.063067
v -0.176274 0.073717 -7.060764
v -0.143577 0.062042 -7.060764
v -0.139109 0.059175 -7.060764
v -0.135352 0.063301 -7.063071
v -0.133784 0.064999 -7.068645
v -0.138373 0.068180 -7.068635
v -0.143365 0.070665 -7.068624
v -0.145148 0.068915 -7.063065
v -0.149297 0.064547 -7.060764
v -0.122103 0.045212 -7.060764
v -0.118729 0.041097 -7.060764
v -0.113898 0.043884 -7.063069
v -0.111887 0.045022 -7.068638
v -0.115249 0.049480 -7.068629
v -0.119290 0.053325 -7.068621
v -0.121544 0.052195 -7.063064
v -0.126873 0.049271 -7.060764
v -0.108206 0.023813 -7.060764
v -0.106537 0.018690 -7.060764
v -0.101123 0.020068 -7.063069
v -0.098874 0.020619 -7.068637
v -0.100453 0.025980 -7.068629
v -0.102989 0.030954 -7.068620
v -0.105385 0.030433 -7.063064
v -0.111136 0.029036 -7.060764
v -0.103432 -0.000000 -7.060764
v -0.103973 -0.005588 -7.060764
v -0.098275 -0.005577 -7.063069
v -0.095914 -0.005565 -7.068634
v -0.095372 -0.000002 -7.068627
v -0.095913 0.005558 -7.068623
v -0.098274 0.005573 -7.063065
v -0.103973 0.005588 -7.060764
v -0.108206 -0.023813 -25.366810
v -0.106537 -0.018690 -25.366810
v -0.101122 -0.020068 -25.364501
v -0.098874 -0.020619 -25.358937
v -0.100453 -0.025980 -25.358943
v -0.102989 -0.030954 -25.358954
v -0.105385 -0.030433 -25.364510
v -0.111136 -0.029036 -25.366810
v -0.122103 -0.045212 -25.366810
v -0.118729 -0.041097 -25.366810
v -0.113898 -0.043885 -25.364501
v -0.111887 -0.045022 -25.358937
v -0.115249 -0.049480 -25.358943
v -0.119290 -0.053325 -25.358952
v -0.121544 -0.052195 -25.364510
v -0.126873 -0.049271 -25.366810
v -0.143577 -0.062042 -25.366810
v -0.139109 -0.059175 -25.366810
v -0.135352 -0.063301 -25.364501
v -0.133784 -0.064999 -25.358928
v -0.138373 -0.068180 -25.358939
v -0.143365 -0.070665 -25.358950
v -0.145148 -0.068915 -25.364510
v -0.149297 -0.064547 -25.366810
v -0.170397 -0.072746 -25.366810
v -0.165278 -0.071138 -25.366810
v -0.163173 -0.076299 -25.364501
v -0.162289 -0.078432 -25.358934
v -0.167578 -0.080207 -25.358941
v -0.173050 -0.081274 -25.358943
v -0.174025 -0.079074 -25.364508
v -0.176274 -0.073717 -25.366810
v -0.199983 -0.076398 -25.366810
v -0.194401 -0.076041 -25.366810
v -0.194407 -0.081669 -25.364501
v -0.194414 -0.084000 -25.358934
v -0.199982 -0.084354 -25.358937
v -0.205547 -0.084000 -25.358941
v -0.205556 -0.081669 -25.364506
v -0.205564 -0.076041 -25.366810
v -0.229569 -0.072746 -25.366810
v -0.223691 -0.073717 -25.366810
v -0.225937 -0.079074 -25.364501
v -0.226910 -0.081275 -25.358937
v -0.232386 -0.080207 -25.358934
v -0.237676 -0.078432 -25.358934
v -0.236792 -0.076299 -25.364501
v -0.234687 -0.071138 -25.366810
v -0.256389 -0.062042 -25.366810
v -0.250668 -0.064547 -25.366810
v -0.254813 -0.068916 -25.364506
v -0.256593 -0.070668 -25.358939
v -0.261590 -0.068181 -25.358932
v -0.266181 -0.064999 -25.358928
v -0.264613 -0.063301 -25.364501
v -0.260856 -0.059175 -25.366810
v -0.277862 -0.045212 -25.366810
v -0.273092 -0.049271 -25.366810
v -0.278418 -0.052197 -25.364506
v -0.280668 -0.053330 -25.358941
v -0.284715 -0.049482 -25.358939
v -0.288078 -0.045022 -25.358937
v -0.286067 -0.043884 -25.364501
v -0.281236 -0.041097 -25.366810
v -0.291760 -0.023813 -25.366810
v -0.288829 -0.029036 -25.366810
v -0.294577 -0.030437 -25.364506
v -0.296972 -0.030961 -25.358941
v -0.299510 -0.025983 -25.358941
v -0.301090 -0.020624 -25.358943
v -0.298842 -0.020071 -25.364506
v -0.293428 -0.018690 -25.366810
v -0.296534 -0.000000 -25.366810
v -0.295992 -0.005588 -25.366810
v -0.301691 -0.005577 -25.364506
v -0.304051 -0.005565 -25.358941
v -0.304593 -0.000002 -25.358943
v -0.304052 0.005558 -25.358950
v -0.301692 0.005573 -25.364508
v -0.295992 0.005588 -25.366810
v -0.291760 0.023813 -25.366810
v -0.293428 0.018690 -25.366810
v -0.298843 0.020068 -25.364501
v -0.301091 0.020619 -25.358937
v -0.299512 0.025980 -25.358943
v -0.296977 0.030954 -25.358954
v -0.294580 0.030433 -25.364510
v -0.288829 0.029036 -25.366810
v -0.277862 0.045212 -25.366810
v -0.281236 0.041097 -25.366810
v -0.286067 0.043884 -25.364501
v -0.288078 0.045022 -25.358937
v -0.284716 0.049480 -25.358943
v -0.280675 0.053325 -25.358952
v -0.278422 0.052195 -25.364510
v -0.273092 0.049271 -25.366810
v -0.256388 0.062042 -25.366810
v -0.260856 0.059175 -25.366810
v -0.264613 0.063301 -25.364501
v -0.266181 0.064999 -25.358928
v -0.261592 0.068180 -25.358939
v -0.256600 0.070665 -25.358950
v -0.254817 0.068915 -25.364510
v -0.250668 0.064547 -25.366810
v -0.229569 0.072746 -25.366810
v -0.234687 0.071138 -25.366810
v -0.236792 0.076299 -25.364501
v -0.237676 0.078432 -25.358934
v -0.232387 0.080207 -25.358941
v -0.226916 0.081274 -25.358943
v -0.225940 0.079074 -25.364508
v -0.223691 0.073717 -25.366810
v -0.199983 0.076398 -25.366810
v -0.205564 0.076041 -25.366810
v -0.205558 0.081669 -25.364501
v -0.205552 0.084000 -25.358934
v -0.199984 0.084354 -25.358937
v -0.194418 0.084000 -25.358941
v -0.194409 0.081669 -25.364506
v -0.194401 0.076041 -25.366810
v -0.170397 0.072746 -25.366810
v -0.176274 0.073717 -25.366810
v -0.174028 0.079074 -25.364501
v -0.173056 0.081275 -25.358937
v -0.167580 0.080207 -25.358934
v -0.162289 0.078432 -25.358934
v -0.163173 0.076299 -25.364501
v -0.165278 0.071138 -25.366810
v -0.143577 0.062042 -25.366810
v -0.149297 0.064547 -25.366810
v -0.145152 0.068916 -25.364506
v -0.143372 0.070668 -25.358939
v -0.138375 0.068181 -25.358932
v -0.133784 0.064999 -25.358928
v -0.135352 0.063301 -25.364501
v -0.139109 0.059175 -25.366810
v -0.122103 0.045212 -25.366810
v -0.126873 0.049271 -25.366810
v -0.121548 0.052197 -25.364506
v -0.119297 0.053330 -25.358941
v -0.115251 0.049482 -25.358939
v -0.111887 0.045022 -25.358937
v -0.113898 0.043884 -25.364501
v -0.118729 0.041097 -25.366810
v -0.108206 0.023813 -25.366810
v -0.111136 0.029036 -25.366810
v -0.105388 0.030437 -25.364506
v -0.102993 0.030961 -25.358941
v -0.100455 0.025983 -25.358941
v -0.098875 0.020624 -25.358943
v -0.101123 0.020071 -25.364506
v -0.106537 0.018690 -25.366810
v -0.103432 -0.000000 -25.366810
v -0.103973 0.005588 -25.366810
v -0.098275 0.005577 -25.364506
v -0.095914 0.005565 -25.358941
v -0.095372 0.000002 -25.358943
v -0.095913 -0.005558 -25.358950
v -0.098274 -0.005573 -25.364508
v -0.103973 -0.005588 -25.366810
v -0.160982 -0.000000 -7.060764
v -0.156679 0.005573 -7.060764
v -0.162840 0.009753 -7.060764
v -0.162216 0.015645 -7.060764
v -0.171699 0.015710 -7.060764
v -0.171751 0.022980 -7.060764
v -0.180378 0.020363 -7.060764
v -0.183040 0.027105 -7.060764
v -0.190132 0.024588 -7.060764
v -0.194410 0.028714 -7.060764
v -0.199983 0.024951 -7.060764
v -0.205556 0.028714 -7.060764
v -0.209833 0.024588 -7.060764
v -0.216925 0.027105 -7.060764
v -0.219587 0.020363 -7.060764
v -0.228214 0.022980 -7.060764
v -0.228266 0.015710 -7.060764
v -0.237749 0.015645 -7.060764
v -0.237125 0.009753 -7.060764
v -0.243286 0.005573 -7.060764
v -0.238983 0.000000 -7.060764
v -0.243286 -0.005573 -7.060764
v -0.237125 -0.009753 -7.060764
v -0.237749 -0.015645 -7.060764
v -0.228266 -0.015710 -7.060764
v -0.228214 -0.022980 -7.060764
v -0.219587 -0.020363 -7.060764
v -0.216925 -0.027105 -7.060764
v -0.209833 -0.024588 -7.060764
v -0.205556 -0.028714 -7.060764
v -0.199983 -0.024951 -7.060764
v -0.194410 -0.028714 -7.060764
v -0.190132 -0.024588 -7.060764
v -0.183040 -0.027105 -7.060764
v -0.180378 -0.020363 -7.060764
v -0.171751 -0.022980 -7.060764
v -0.171699 -0.015710 -7.060764
v -0.162216 -0.015645 -7.060764
v -0.162840 -0.009753 -7.060764
v -0.156679 -0.005573 -7.060764
v -0.160982 -0.000000 -25.366810
v -0.156679 -0.005573 -25.366810
v -0.162840 -0.009753 -25.366810
v -0.162216 -0.015645 -25.366810
v -0.171699 -0.015710 -25.366810
v -0.171751 -0.022980 -25.366810
v -0.180378 -0.020363 -25.366810
v -0.183040 -0.027105 -25.366810
v -0.190132 -0.024588 -25.366810
v -0.194410 -0.028714 -25.366810
v -0.199983 -0.024951 -25.366810
v -0.205556 -0.028714 -25.366810
v -0.209833 -0.024588 -25.366810
v -0.216925 -0.027105 -25.366810
v -0.219587 -0.020363 -25.366810
v -0.228214 -0.022980 -25.366810
v -0.228266 -0.015710 -25.366810
v -0.237749 -0.015645 -25.366810
v -0.237125 -0.009753 -25.366810
v -0.243286 -0.005573 -25.366810
v -0.238983 -0.000000 -25.366810
v -0.243286 0.005573 -25.366810
v -0.237125 0.009753 -25.366810
v -0.237749 0.015645 -25.366810
v -0.228266 0.015710 -25.366810
v -0.228214 0.022980 -25.366810
v -0.219587 0.020363 -25.366810
v -0.216925 0.027105 -25.366810
v -0.209833 0.024588 -25.366810
v -0.205556 0.028714 -25.366810
v -0.199983 0.024951 -25.366810
v -0.194410 0.028714 -25.366810
v -0.190132 0.024588 -25.366810
v -0.183040 0.027105 -25.366810
v -0.180378 0.020363 -25.366810
v -0.171751 0.022980 -25.366810
v -0.171699 0.015710 -25.366810
v -0.162216 0.015645 -25.366810
v -0.162840 0.009753 -25.366810
v -0.156679 0.005573 -25.366810
v -0.102724 -0.025346 -7.063068
v -0.117261 -0.048237 -7.063069
v -0.139904 -0.066386 -7.063070
v -0.168396 -0.078018 -7.063069
v -0.199983 -0.082023 -7.063069
v -0.231570 -0.078018 -7.063069
v -0.260062 -0.066386 -7.063069
v -0.282705 -0.048236 -7.063068
v -0.297242 -0.025344 -7.063068
v -0.302233 0.000001 -7.063067
v -0.297241 0.025346 -7.063068
v -0.282704 0.048237 -7.063069
v -0.260061 0.066386 -7.063070
v -0.231569 0.078018 -7.063069
v -0.199982 0.082023 -7.063069
v -0.168396 0.078018 -7.063069
v -0.139904 0.066386 -7.063069
v -0.117261 0.048236 -7.063068
v -0.102723 0.025344 -7.063068
v -0.097732 -0.000001 -7.063067
v -0.102723 -0.025344 -25.364506
v -0.117260 -0.048237 -25.364506
v -0.139904 -0.066386 -25.364501
v -0.168396 -0.078018 -25.364501
v -0.199982 -0.082023 -25.364501
v -0.231569 -0.078018 -25.364501
v -0.260061 -0.066386 -25.364501
v -0.282704 -0.048237 -25.364501
v -0.297241 -0.025346 -25.364506
v -0.302233 -0.000001 -25.364506
v -0.297242 0.025344 -25.364506
v -0.282705 0.048236 -25.364506
v -0.260062 0.066386 -25.364501
v -0.231570 0.078018 -25.364501
v -0.199983 0.082023 -25.364501
v -0.168397 0.078018 -25.364501
v -0.139904 0.066386 -25.364501
v -0.117261 0.048237 -25.364501
v -0.102724 0.025346 -25.364506
v -0.097732 0.000001 -25.364506
v -0.199983 0.000000 -7.060764
v -0.199983 0.000000 -25.366810
vt 0.632008 0.102693
vt 0.377532 0.312661
vt 0.622348 0.312661
vt 0.620727 0.080445
vt 0.556113 0.127392
vt 0.608626 0.065369
vt 0.389860 0.312661
vt 0.590446 0.047100
vt 0.541947 0.113863
vt 0.575308 0.037191
vt 0.402218 0.312662
vt 0.551564 0.025034
vt 0.525173 0.106254
vt 0.535226 0.020277
vt 0.414642 0.312661
vt 0.508293 0.015990
vt 0.508280 0.103286
vt 0.491707 0.015990
vt 0.427142 0.312661
vt 0.464774 0.020277
vt 0.491720 0.103286
vt 0.448436 0.025034
vt 0.439716 0.312661
vt 0.424692 0.037191
vt 0.474827 0.106254
vt 0.409554 0.047100
vt 0.452356 0.312662
vt 0.391374 0.065369
vt 0.458053 0.113863
vt 0.379274 0.080445
vt 0.465025 0.312661
vt 0.367993 0.102693
vt 0.443887 0.127392
vt 0.361159 0.121777
vt 0.477654 0.312661
vt 0.357350 0.145942
vt 0.435660 0.145970
vt 0.357350 0.166558
vt 0.490157 0.312662
vt 0.361159 0.190723
vt 0.435660 0.166530
vt 0.367992 0.209807
vt 0.502532 0.312661
vt 0.379274 0.232055
vt 0.443887 0.185108
vt 0.391374 0.247131
vt 0.514860 0.312661
vt 0.409555 0.265400
vt 0.458053 0.198637
vt 0.424692 0.275309
vt 0.527218 0.312662
vt 0.448436 0.287466
vt 0.474827 0.206246
vt 0.464774 0.292223
vt 0.539642 0.312661
vt 0.491707 0.296510
vt 0.491720 0.209214
vt 0.508293 0.296510
vt 0.552142 0.312661
vt 0.535226 0.292223
vt 0.508280 0.209214
vt 0.551564 0.287466
vt 0.564716 0.312661
vt 0.575308 0.275309
vt 0.525173 0.206246
vt 0.590446 0.265400
vt 0.577356 0.312662
vt 0.608626 0.247131
vt 0.541947 0.198637
vt 0.620726 0.232055
vt 0.590025 0.312661
vt 0.632008 0.209807
vt 0.556113 0.185108
vt 0.638841 0.190723
vt 0.602654 0.312661
vt 0.564340 0.145970
vt 0.642650 0.166558
vt 0.564340 0.166530
vt 0.615157 0.312662
vt 0.615154 0.687339
vt 0.638841 0.878223
vt 0.377528 0.687339
vt 0.384975 0.687339
vt 0.556113 0.872608
vt 0.389856 0.687339
vt 0.397644 0.687339
vt 0.541947 0.886137
vt 0.402215 0.687339
vt 0.410284 0.687339
vt 0.525173 0.893746
vt 0.414640 0.687339
vt 0.422858 0.687339
vt 0.508280 0.896714
vt 0.427140 0.687339
vt 0.435357 0.687339
vt 0.491720 0.896714
vt 0.439716 0.687339
vt 0.447782 0.687339
vt 0.474827 0.893746
vt 0.452356 0.687339
vt 0.460140 0.687339
vt 0.458053 0.886137
vt 0.465025 0.687339
vt 0.472468 0.687339
vt 0.443887 0.872608
vt 0.477651 0.687339
vt 0.484842 0.687339
vt 0.435660 0.854030
vt 0.490154 0.687339
vt 0.497346 0.687339
vt 0.435660 0.833470
vt 0.502528 0.687339
vt 0.509975 0.687339
vt 0.443887 0.814892
vt 0.514856 0.687339
vt 0.522644 0.687339
vt 0.458053 0.801363
vt 0.527215 0.687339
vt 0.535284 0.687339
vt 0.474827 0.793754
vt 0.539640 0.687339
vt 0.547858 0.687339
vt 0.491720 0.790786
vt 0.552140 0.687339
vt 0.560357 0.687339
vt 0.508280 0.790786
vt 0.564716 0.687339
vt 0.572781 0.687339
vt 0.525173 0.793754
vt 0.577356 0.687339
vt 0.585140 0.687339
vt 0.541947 0.801363
vt 0.590025 0.687339
vt 0.597467 0.687339
vt 0.556113 0.814892
vt 0.602651 0.687339
vt 0.609842 0.687339
vt 0.564340 0.833470
vt 0.642650 0.854058
vt 0.564340 0.854030
vt 0.384975 0.312661
vt 0.397644 0.312662
vt 0.410284 0.312661
vt 0.422859 0.312661
vt 0.435360 0.312662
vt 0.447785 0.312661
vt 0.460143 0.312662
vt 0.472471 0.312661
vt 0.484846 0.312662
vt 0.497348 0.312661
vt 0.509975 0.312661
vt 0.522644 0.312662
vt 0.535284 0.312661
vt 0.547859 0.312661
vt 0.560360 0.312662
vt 0.572784 0.312661
vt 0.585143 0.312662
vt 0.597471 0.312661
vt 0.609846 0.312662
vt 0.622346 0.687339
vt 0.638841 0.121777
vt 0.642650 0.145942
vt 0.632007 0.897307
vt 0.620727 0.919555
vt 0.608626 0.934631
vt 0.590446 0.952900
vt 0.575308 0.962809
vt 0.551564 0.974966
vt 0.535226 0.979723
vt 0.508293 0.984010
vt 0.491707 0.984010
vt 0.464774 0.979723
vt 0.448436 0.974966
vt 0.424692 0.962809
vt 0.409554 0.952900
vt 0.391374 0.934631
vt 0.379274 0.919555
vt 0.367993 0.897307
vt 0.361159 0.878223
vt 0.357350 0.854058
vt 0.357350 0.833442
vt 0.361159 0.809277
vt 0.367992 0.790192
vt 0.379274 0.767945
vt 0.391374 0.752869
vt 0.409555 0.734600
vt 0.424692 0.724691
vt 0.448436 0.712534
vt 0.464774 0.707777
vt 0.491707 0.703490
vt 0.508293 0.703490
vt 0.535226 0.707777
vt 0.551564 0.712534
vt 0.575308 0.724691
vt 0.590446 0.734600
vt 0.608626 0.752869
vt 0.620727 0.767945
vt 0.632008 0.790193
vt 0.638841 0.809277
vt 0.642650 0.833442
vt 0.636860 0.112140
vt 0.377682 0.312500
vt 0.643840 0.098619
vt 0.625000 0.316694
vt 0.375000 0.316694
vt 0.650219 0.118168
vt 0.622359 0.312500
vt 0.616070 0.072563
vt 0.390049 0.312500
vt 0.619359 0.057358
vt 0.387464 0.312967
vt 0.630828 0.073082
vt 0.385011 0.312500
vt 0.584023 0.041482
vt 0.402391 0.312500
vt 0.583511 0.025596
vt 0.399970 0.312934
vt 0.598272 0.036272
vt 0.397675 0.312500
vt 0.544056 0.021732
vt 0.414758 0.312500
vt 0.539561 0.006266
vt 0.412484 0.312910
vt 0.555970 0.011564
vt 0.410294 0.312500
vt 0.500000 0.015002
vt 0.427184 0.312500
vt 0.491564 0.001336
vt 0.425000 0.312902
vt 0.508434 0.001336
vt 0.422817 0.312500
vt 0.455942 0.021727
vt 0.439705 0.312500
vt 0.444031 0.011563
vt 0.437516 0.312910
vt 0.460436 0.006266
vt 0.435243 0.312500
vt 0.415972 0.041474
vt 0.452325 0.312500
vt 0.401729 0.036271
vt 0.450031 0.312933
vt 0.416485 0.025598
vt 0.447610 0.312500
vt 0.383922 0.072557
vt 0.464989 0.312500
vt 0.369173 0.073080
vt 0.462537 0.312967
vt 0.380637 0.057362
vt 0.459952 0.312500
vt 0.363134 0.112137
vt 0.477642 0.312500
vt 0.349781 0.118170
vt 0.475026 0.313000
vt 0.356158 0.098623
vt 0.472319 0.312500
vt 0.355993 0.156250
vt 0.490221 0.312500
vt 0.345415 0.166760
vt 0.487501 0.313016
vt 0.345414 0.145745
vt 0.484780 0.312500
vt 0.363141 0.200360
vt 0.502682 0.312500
vt 0.356160 0.213881
vt 0.499975 0.313000
vt 0.349781 0.194332
vt 0.497359 0.312500
vt 0.383930 0.239937
vt 0.515049 0.312500
vt 0.380641 0.255142
vt 0.512464 0.312967
vt 0.369172 0.239418
vt 0.510011 0.312500
vt 0.415977 0.271018
vt 0.527391 0.312500
vt 0.416489 0.286904
vt 0.524970 0.312934
vt 0.401728 0.276228
vt 0.522674 0.312500
vt 0.455944 0.290768
vt 0.539758 0.312500
vt 0.460439 0.306234
vt 0.537484 0.312910
vt 0.444030 0.300936
vt 0.535294 0.312500
vt 0.500000 0.297498
vt 0.552184 0.312500
vt 0.508436 0.311164
vt 0.550000 0.312902
vt 0.491566 0.311164
vt 0.547816 0.312500
vt 0.544057 0.290773
vt 0.564705 0.312500
vt 0.555969 0.300937
vt 0.562516 0.312910
vt 0.539564 0.306234
vt 0.560242 0.312500
vt 0.584028 0.271026
vt 0.577325 0.312500
vt 0.598271 0.276229
vt 0.575031 0.312933
vt 0.583515 0.286902
vt 0.572610 0.312500
vt 0.616078 0.239943
vt 0.589988 0.312500
vt 0.630827 0.239420
vt 0.587536 0.312967
vt 0.619363 0.255138
vt 0.584952 0.312500
vt 0.636866 0.200363
vt 0.602641 0.312500
vt 0.650219 0.194330
vt 0.600026 0.313000
vt 0.643842 0.213877
vt 0.597319 0.312500
vt 0.644007 0.156250
vt 0.615221 0.312500
vt 0.654585 0.145740
vt 0.612501 0.313016
vt 0.654586 0.166755
vt 0.609780 0.312500
vt 0.636866 0.887863
vt 0.622358 0.687500
vt 0.650219 0.881830
vt 0.375000 0.683306
vt 0.625000 0.683306
vt 0.643842 0.901377
vt 0.377681 0.687500
vt 0.616078 0.927443
vt 0.385011 0.687500
vt 0.630827 0.926920
vt 0.387463 0.687033
vt 0.619363 0.942638
vt 0.390048 0.687500
vt 0.584028 0.958526
vt 0.397675 0.687500
vt 0.598271 0.963729
vt 0.399969 0.687067
vt 0.583515 0.974401
vt 0.402389 0.687500
vt 0.544057 0.978273
vt 0.410295 0.687500
vt 0.555969 0.988437
vt 0.412484 0.687090
vt 0.539564 0.993734
vt 0.414757 0.687500
vt 0.500000 0.984998
vt 0.422816 0.687500
vt 0.508436 0.998664
vt 0.425000 0.687097
vt 0.491566 0.998664
vt 0.427183 0.687500
vt 0.455944 0.978268
vt 0.435242 0.687500
vt 0.460439 0.993734
vt 0.437516 0.687089
vt 0.444030 0.988436
vt 0.439706 0.687500
vt 0.415977 0.958518
vt 0.447609 0.687500
vt 0.416489 0.974404
vt 0.450030 0.687066
vt 0.401728 0.963728
vt 0.452325 0.687500
vt 0.383930 0.927437
vt 0.459950 0.687500
vt 0.380641 0.942642
vt 0.462536 0.687033
vt 0.369172 0.926918
vt 0.464989 0.687500
vt 0.363141 0.887860
vt 0.472317 0.687500
vt 0.356160 0.901381
vt 0.475025 0.686999
vt 0.349781 0.881832
vt 0.477641 0.687500
vt 0.355993 0.843750
vt 0.484779 0.687500
vt 0.345415 0.854260
vt 0.487499 0.686984
vt 0.345414 0.833245
vt 0.490220 0.687500
vt 0.363134 0.799637
vt 0.497358 0.687500
vt 0.349781 0.805670
vt 0.499973 0.686999
vt 0.356158 0.786123
vt 0.502681 0.687500
vt 0.383922 0.760057
vt 0.510011 0.687500
vt 0.369173 0.760580
vt 0.512463 0.687033
vt 0.380637 0.744862
vt 0.515048 0.687500
vt 0.415972 0.728974
vt 0.522675 0.687500
vt 0.401729 0.723771
vt 0.524969 0.687067
vt 0.416485 0.713098
vt 0.527389 0.687500
vt 0.455942 0.709227
vt 0.535294 0.687500
vt 0.444031 0.699063
vt 0.537484 0.687090
vt 0.460436 0.693766
vt 0.539757 0.687500
vt 0.500000 0.702502
vt 0.547816 0.687500
vt 0.491564 0.688836
vt 0.549999 0.687097
vt 0.508434 0.688836
vt 0.552183 0.687500
vt 0.544056 0.709231
vt 0.560242 0.687500
vt 0.539561 0.693766
vt 0.562516 0.687089
vt 0.555970 0.699064
vt 0.564706 0.687500
vt 0.584023 0.728982
vt 0.572609 0.687500
vt 0.583511 0.713096
vt 0.575030 0.687066
vt 0.598272 0.723772
vt 0.577325 0.687500
vt 0.616070 0.760063
vt 0.584950 0.687500
vt 0.619359 0.744858
vt 0.587536 0.687033
vt 0.630828 0.760582
vt 0.589989 0.687500
vt 0.636859 0.799640
vt 0.597317 0.687500
vt 0.643840 0.786119
vt 0.600025 0.686999
vt 0.650219 0.805668
vt 0.602641 0.687500
vt 0.644007 0.843750
vt 0.609779 0.687500
vt 0.654585 0.833240
vt 0.612499 0.686984
vt 0.654586 0.854255
vt 0.615219 0.687500
vt 0.557939 0.156250
vt 0.555179 0.174237
vt 0.542011 0.185218
vt 0.529120 0.193797
vt 0.514634 0.201595
vt 0.500000 0.202267
vt 0.485366 0.201598
vt 0.470877 0.193803
vt 0.457985 0.185221
vt 0.444819 0.174238
vt 0.442061 0.156250
vt 0.444822 0.138263
vt 0.457989 0.127282
vt 0.470880 0.118703
vt 0.485366 0.110905
vt 0.500000 0.110233
vt 0.514634 0.110902
vt 0.529123 0.118697
vt 0.542015 0.127279
vt 0.555181 0.138262
vt 0.557939 0.843750
vt 0.555178 0.861737
vt 0.542011 0.872718
vt 0.529120 0.881297
vt 0.514634 0.889095
vt 0.500000 0.889767
vt 0.485366 0.889098
vt 0.470877 0.881303
vt 0.457985 0.872721
vt 0.444819 0.861738
vt 0.442061 0.843750
vt 0.444822 0.825763
vt 0.457989 0.814782
vt 0.470880 0.806203
vt 0.485366 0.798405
vt 0.500000 0.797733
vt 0.514634 0.798402
vt 0.529123 0.806197
vt 0.542015 0.814779
vt 0.555181 0.825762
vt 0.375000 0.312500
vt 0.625000 0.312500
vt 0.648603 0.107966
vt 0.387500 0.312500
vt 0.626409 0.064408
vt 0.400000 0.312500
vt 0.591842 0.029841
vt 0.412500 0.312500
vt 0.548284 0.007647
vt 0.425000 0.312500
vt 0.500000 -0.000000
vt 0.437500 0.312500
vt 0.451716 0.007647
vt 0.450000 0.312500
vt 0.408159 0.029841
vt 0.462500 0.312500
vt 0.373591 0.064409
vt 0.475000 0.312500
vt 0.351397 0.107966
vt 0.487500 0.312500
vt 0.343750 0.156250
vt 0.500000 0.312500
vt 0.351397 0.204534
vt 0.512500 0.312500
vt 0.373591 0.248091
vt 0.525000 0.312500
vt 0.408159 0.282659
vt 0.537500 0.312500
vt 0.451716 0.304853
vt 0.550000 0.312500
vt 0.500000 0.312500
vt 0.562500 0.312500
vt 0.548284 0.304853
vt 0.575000 0.312500
vt 0.591841 0.282659
vt 0.587500 0.312500
vt 0.626409 0.248091
vt 0.600000 0.312500
vt 0.648603 0.204534
vt 0.612500 0.312500
vt 0.656250 0.156250
vt 0.625000 0.687500
vt 0.375000 0.687500
vt 0.648603 0.892034
vt 0.387500 0.687500
vt 0.626409 0.935591
vt 0.400000 0.687500
vt 0.591841 0.970159
vt 0.412500 0.687500
vt 0.548284 0.992353
vt 0.425000 0.687500
vt 0.500000 1.000000
vt 0.437500 0.687500
vt 0.451716 0.992353
vt 0.450000 0.687500
vt 0.408159 0.970159
vt 0.462500 0.687500
vt 0.373591 0.935591
vt 0.475000 0.687500
vt 0.351397 0.892034
vt 0.487500 0.687500
vt 0.343750 0.843750
vt 0.500000 0.687500
vt 0.351397 0.795466
vt 0.512500 0.687500
vt 0.373591 0.751909
vt 0.525000 0.687500
vt 0.408159 0.717341
vt 0.537500 0.687500
vt 0.451716 0.695147
vt 0.550000 0.687500
vt 0.500000 0.687500
vt 0.562500 0.687500
vt 0.548284 0.695147
vt 0.575000 0.687500
vt 0.591842 0.717341
vt 0.587500 0.687500
vt 0.626409 0.751908
vt 0.600000 0.687500
vt 0.648603 0.795466
vt 0.612500 0.687500
vt 0.656250 0.843750
vt 0.500000 0.156250
vt 0.500000 0.843750
vn 0.055824 -0.033999 0.997862
vn 0.039177 -0.016785 0.999091
vn 0.000000 -0.000000 1.000000
vn 0.000000 -0.000000 1.000000
vn 0.063119 -0.014241 0.997904
vn 0.000000 -0.000000 1.000000
vn 0.857315 -0.514793 0.000115
vn 0.789582 -0.478679 0.383963
vn 0.770272 -0.509582 0.383415
vn 0.833920 -0.551886 0.000117
vn 0.325627 -0.196096 0.924940
vn 0.057377 -0.038373 0.997615
vn 0.315288 -0.213383 0.924695
vn 0.976160 -0.217054 0.000118
vn 0.929039 -0.369982 0.000122
vn 0.929040 -0.369980 -0.000122
vn 0.976160 -0.217053 -0.000118
vn 0.857316 -0.514791 -0.000115
vn 0.370284 -0.085862 0.924942
vn 0.374462 -0.061584 0.925195
vn 0.062785 -0.010714 0.997970
vn 0.901163 -0.199388 0.384902
vn 0.985879 -0.167458 0.000118
vn 0.909356 -0.156728 0.385368
vn 0.041850 -0.050800 0.997832
vn 0.031242 -0.029952 0.999063
vn 0.000000 -0.000000 1.000000
vn 0.000000 -0.000000 1.000000
vn 0.641972 -0.766728 0.000114
vn 0.589913 -0.711098 0.382547
vn 0.567544 -0.729216 0.382280
vn 0.614277 -0.789090 0.000116
vn 0.243184 -0.292933 0.924690
vn 0.044682 -0.057885 0.997323
vn 0.231357 -0.302615 0.924607
vn 0.746346 -0.665558 0.000122
vn 0.746346 -0.665558 -0.000122
vn 0.833920 -0.551886 -0.000117
vn 0.641973 -0.766727 -0.000113
vn 0.026545 -0.063041 0.997658
vn 0.021497 -0.039129 0.999003
vn 0.000000 -0.000000 1.000000
vn 0.000000 -0.000000 1.000000
vn 0.393973 -0.919122 0.000113
vn 0.360961 -0.850472 0.382628
vn 0.339016 -0.859460 0.382618
vn 0.366654 -0.930357 0.000116
vn 0.148875 -0.350559 0.924632
vn 0.026871 -0.068531 0.997287
vn 0.137604 -0.354955 0.924701
vn 0.508917 -0.860816 0.000122
vn 0.508918 -0.860815 -0.000122
vn 0.614277 -0.789091 -0.000116
vn 0.393974 -0.919122 -0.000113
vn 0.009992 -0.072715 0.997303
vn 0.010925 -0.044673 0.998942
vn 0.000000 -0.000000 1.000000
vn 0.000000 -0.000000 1.000000
vn 0.139942 -0.990160 0.000115
vn 0.127175 -0.914680 0.383651
vn 0.105973 -0.917342 0.383736
vn 0.113600 -0.993527 0.000116
vn 0.053003 -0.377341 0.924556
vn 0.008492 -0.073894 0.997230
vn 0.042206 -0.378484 0.924645
vn 0.255377 -0.966842 0.000121
vn 0.255377 -0.966842 -0.000121
vn 0.366654 -0.930357 -0.000116
vn 0.139943 -0.990160 -0.000115
vn -0.008478 -0.073888 0.997231
vn -0.000004 -0.045822 0.998950
vn 0.000000 -0.000000 1.000000
vn 0.000000 -0.000000 1.000000
vn -0.113601 -0.993526 0.000116
vn -0.105883 -0.917344 0.383757
vn -0.127074 -0.914650 0.383754
vn -0.139943 -0.990160 0.000115
vn -0.042144 -0.378466 0.924655
vn -0.009981 -0.072708 0.997303
vn -0.052963 -0.377252 0.924595
vn -0.000000 -1.000000 0.000121
vn 0.000000 -1.000000 -0.000121
vn 0.113601 -0.993526 -0.000116
vn -0.113601 -0.993526 -0.000116
vn -0.026852 -0.068526 0.997288
vn -0.010934 -0.044642 0.998943
vn 0.000000 -0.000000 1.000000
vn 0.000000 -0.000000 1.000000
vn -0.366655 -0.930357 0.000116
vn -0.338962 -0.859391 0.382821
vn -0.360879 -0.850400 0.382865
vn -0.393974 -0.919122 0.000113
vn -0.137503 -0.354903 0.924736
vn -0.026527 -0.063028 0.997659
vn -0.148768 -0.350398 0.924710
vn -0.255377 -0.966842 0.000121
vn -0.255376 -0.966842 -0.000121
vn -0.139942 -0.990160 -0.000115
vn -0.366655 -0.930357 -0.000116
vn -0.044658 -0.057879 0.997324
vn -0.021494 -0.039087 0.999005
vn 0.000000 -0.000000 1.000000
vn 0.000000 -0.000000 1.000000
vn -0.614278 -0.789090 0.000116
vn -0.567437 -0.729207 0.382457
vn -0.589746 -0.711118 0.382767
vn -0.641975 -0.766725 0.000113
vn -0.231227 -0.302564 0.924656
vn -0.041825 -0.050790 0.997833
vn -0.243004 -0.292789 0.924783
vn -0.508917 -0.860815 0.000122
vn -0.508917 -0.860816 -0.000122
vn -0.393973 -0.919122 -0.000113
vn -0.614278 -0.789090 -0.000116
vn -0.057337 -0.038373 0.997617
vn -0.031224 -0.029911 0.999065
vn 0.000000 -0.000000 1.000000
vn 0.000000 -0.000000 1.000000
vn -0.833920 -0.551886 0.000117
vn -0.770176 -0.509585 0.383603
vn -0.789464 -0.478685 0.384196
vn -0.857315 -0.514792 0.000115
vn -0.315073 -0.213367 0.924772
vn -0.055789 -0.033989 0.997864
vn -0.325379 -0.195943 0.925059
vn -0.746349 -0.665555 0.000122
vn -0.746349 -0.665555 -0.000122
vn -0.641974 -0.766727 -0.000114
vn -0.833920 -0.551886 -0.000117
vn -0.063102 -0.014252 0.997905
vn -0.039173 -0.016749 0.999092
vn 0.000000 -0.000000 1.000000
vn 0.000000 -0.000000 1.000000
vn -0.976159 -0.217055 0.000118
vn -0.901123 -0.199556 0.384908
vn -0.909288 -0.156877 0.385469
vn -0.985879 -0.167460 0.000118
vn -0.370235 -0.085918 0.924956
vn -0.062765 -0.010718 0.997971
vn -0.374290 -0.061563 0.925266
vn -0.929040 -0.369980 0.000122
vn -0.929039 -0.369982 -0.000122
vn -0.857314 -0.514794 -0.000115
vn -0.976159 -0.217056 -0.000118
vn -0.062785 0.010711 0.997970
vn -0.041385 0.000013 0.999143
vn 0.000000 -0.000000 1.000000
vn 0.000000 -0.000000 1.000000
vn -0.985879 0.167462 0.000118
vn -0.909357 0.156728 0.385365
vn -0.901164 0.199388 0.384900
vn -0.976159 0.217056 0.000118
vn -0.374462 0.061570 0.925196
vn -0.063119 0.014238 0.997904
vn -0.370284 0.085847 0.924943
vn -1.000000 0.000001 0.000123
vn -1.000000 -0.000001 -0.000123
vn -0.985879 -0.167462 -0.000118
vn -0.985879 0.167460 -0.000118
vn -0.055824 0.034000 0.997862
vn -0.039177 0.016785 0.999091
vn 0.000000 -0.000000 1.000000
vn 0.000000 -0.000000 1.000000
vn -0.857314 0.514794 0.000115
vn -0.789582 0.478679 0.383962
vn -0.770273 0.509583 0.383413
vn -0.833920 0.551886 0.000117
vn -0.325627 0.196097 0.924939
vn -0.057377 0.038373 0.997615
vn -0.315289 0.213384 0.924695
vn -0.929039 0.369982 0.000122
vn -0.929040 0.369980 -0.000122
vn -0.976159 0.217055 -0.000118
vn -0.857315 0.514792 -0.000115
vn -0.041850 0.050800 0.997832
vn -0.031242 0.029952 0.999063
vn 0.000000 -0.000000 1.000000
vn 0.000000 -0.000000 1.000000
vn -0.641972 0.766728 0.000114
vn -0.589914 0.711098 0.382545
vn -0.567544 0.729217 0.382277
vn -0.614276 0.789091 0.000116
vn -0.243184 0.292932 0.924690
vn -0.044682 0.057885 0.997323
vn -0.231356 0.302614 0.924608
vn -0.746349 0.665555 0.000122
vn -0.746349 0.665555 -0.000122
vn -0.833920 0.551886 -0.000117
vn -0.641973 0.766727 -0.000113
vn -0.026545 0.063042 0.997658
vn -0.021497 0.039129 0.999003
vn 0.000000 -0.000000 1.000000
vn 0.000000 -0.000000 1.000000
vn -0.393973 0.919122 0.000113
vn -0.360962 0.850473 0.382626
vn -0.339016 0.859461 0.382616
vn -0.366655 0.930357 0.000116
vn -0.148875 0.350559 0.924632
vn -0.026871 0.068532 0.997287
vn -0.137604 0.354955 0.924701
vn -0.508917 0.860815 0.000122
vn -0.508918 0.860815 -0.000122
vn -0.614277 0.789091 -0.000116
vn -0.393974 0.919122 -0.000113
vn -0.009992 0.072715 0.997303
vn -0.010926 0.044673 0.998942
vn 0.000000 -0.000000 1.000000
vn 0.000000 -0.000000 1.000000
vn -0.139942 0.990160 0.000115
vn -0.127175 0.914679 0.383651
vn -0.105973 0.917342 0.383736
vn -0.113601 0.993526 0.000116
vn -0.053003 0.377342 0.924556
vn -0.008492 0.073894 0.997230
vn -0.042206 0.378484 0.924645
vn -0.255377 0.966842 0.000121
vn -0.255377 0.966842 -0.000121
vn -0.366655 0.930357 -0.000116
vn -0.139943 0.990160 -0.000115
vn 0.008478 0.073888 0.997231
vn 0.000004 0.045822 0.998950
vn 0.000000 -0.000000 1.000000
vn 0.000000 -0.000000 1.000000
vn 0.113602 0.993526 0.000116
vn 0.105883 0.917344 0.383756
vn 0.127074 0.914650 0.383754
vn 0.139943 0.990160 0.000115
vn 0.042144 0.378467 0.924655
vn 0.009981 0.072708 0.997303
vn 0.052963 0.377253 0.924595
vn 0.000000 1.000000 0.000121
vn -0.000000 1.000000 -0.000121
vn -0.113601 0.993526 -0.000116
vn 0.113601 0.993526 -0.000116
vn 0.026852 0.068526 0.997288
vn 0.010934 0.044642 0.998943
vn 0.000000 -0.000000 1.000000
vn 0.000000 -0.000000 1.000000
vn 0.366654 0.930357 0.000116
vn 0.338962 0.859391 0.382820
vn 0.360878 0.850401 0.382865
vn 0.393974 0.919122 0.000113
vn 0.137503 0.354904 0.924736
vn 0.026527 0.063028 0.997659
vn 0.148769 0.350399 0.924710
vn 0.255377 0.966842 0.000121
vn 0.255377 0.966842 -0.000121
vn 0.139942 0.990160 -0.000115
vn 0.366654 0.930357 -0.000116
vn 0.044658 0.057879 0.997324
vn 0.021494 0.039087 0.999005
vn 0.000000 -0.000000 1.000000
vn 0.000000 -0.000000 1.000000
vn 0.614277 0.789090 0.000116
vn 0.567436 0.729207 0.382458
vn 0.589746 0.711118 0.382768
vn 0.641974 0.766726 0.000113
vn 0.231227 0.302564 0.924656
vn 0.041825 0.050790 0.997833
vn 0.243004 0.292789 0.924783
vn 0.508918 0.860815 0.000122
vn 0.508918 0.860815 -0.000122
vn 0.393973 0.919122 -0.000113
vn 0.614277 0.789090 -0.000116
vn 0.057337 0.038373 0.997617
vn 0.031224 0.029911 0.999065
vn 0.000000 -0.000000 1.000000
vn 0.000000 -0.000000 1.000000
vn 0.833920 0.551886 0.000117
vn 0.770166 0.509604 0.383599
vn 0.789468 0.478676 0.384200
vn 0.857315 0.514792 0.000115
vn 0.315073 0.213366 0.924772
vn 0.055788 0.033989 0.997864
vn 0.325379 0.195943 0.925059
vn 0.746348 0.665556 0.000122
vn 0.746347 0.665557 -0.000122
vn 0.641973 0.766727 -0.000114
vn 0.833920 0.551886 -0.000117
vn 0.063101 0.014251 0.997905
vn 0.039173 0.016749 0.999092
vn 0.000000 -0.000000 1.000000
vn 0.000000 -0.000000 1.000000
vn 0.976159 0.217055 0.000118
vn 0.901120 0.199568 0.384909
vn 0.909286 0.156876 0.385472
vn 0.985879 0.167458 0.000118
vn 0.370234 0.085918 0.924957
vn 0.062765 0.010718 0.997971
vn 0.374289 0.061563 0.925266
vn 0.929039 0.369981 0.000122
vn 0.929039 0.369983 -0.000122
vn 0.857314 0.514794 -0.000115
vn 0.976159 0.217056 -0.000118
vn 0.041384 -0.000013 0.999143
vn 0.000000 -0.000000 1.000000
vn 1.000000 -0.000000 0.000123
vn 1.000000 0.000002 -0.000123
vn 0.985879 0.167461 -0.000118
vn 0.985880 -0.167456 -0.000118
vn 0.063155 -0.014261 -0.997902
vn 0.039195 -0.016734 -0.999091
vn 0.000000 0.000000 -1.000000
vn 0.000000 0.000000 -1.000000
vn 0.055815 -0.034022 -0.997861
vn 0.000000 0.000000 -1.000000
vn 0.901096 -0.199558 -0.384970
vn 0.909278 -0.156848 -0.385503
vn 0.370507 -0.085938 -0.924845
vn 0.062810 -0.010733 -0.997968
vn 0.374512 -0.061627 -0.925172
vn 0.325498 -0.196103 -0.924983
vn 0.315282 -0.213478 -0.924675
vn 0.057379 -0.038401 -0.997614
vn 0.789428 -0.478685 -0.384270
vn 0.770119 -0.509599 -0.383699
vn 0.031247 -0.029906 -0.999064
vn 0.000000 0.000000 -1.000000
vn 0.041832 -0.050809 -0.997832
vn 0.000000 0.000000 -1.000000
vn 0.243037 -0.292876 -0.924747
vn 0.231254 -0.302736 -0.924593
vn 0.044666 -0.057914 -0.997322
vn 0.589779 -0.711106 -0.382739
vn 0.567456 -0.729185 -0.382469
vn 0.021518 -0.039099 -0.999004
vn 0.000000 -0.000025 -1.000000
vn 0.026536 -0.063061 -0.997657
vn 0.000000 -0.000031 -1.000000
vn 0.148836 -0.350531 -0.924649
vn 0.137505 -0.355155 -0.924639
vn 0.026853 -0.068599 -0.997283
vn 0.360867 -0.850388 -0.382904
vn 0.338930 -0.859376 -0.382884
vn 0.010966 -0.044694 -0.998941
vn 0.000000 -0.000050 -1.000000
vn 0.009986 -0.072730 -0.997302
vn 0.000000 -0.000007 -1.000000
vn 0.053014 -0.377351 -0.924551
vn 0.042104 -0.378636 -0.924587
vn 0.008469 -0.073923 -0.997228
vn 0.127057 -0.914678 -0.383693
vn 0.105863 -0.917364 -0.383713
vn 0.000024 -0.045854 -0.998948
vn 0.000000 -0.000029 -1.000000
vn -0.008499 -0.073917 -0.997228
vn 0.000000 0.000012 -1.000000
vn -0.042216 -0.378585 -0.924603
vn -0.053110 -0.377542 -0.924468
vn -0.010014 -0.072737 -0.997301
vn -0.105968 -0.917326 -0.383776
vn -0.127211 -0.914647 -0.383716
vn -0.010941 -0.044728 -0.998939
vn 0.000000 -0.000024 -1.000000
vn -0.026887 -0.068642 -0.997279
vn 0.000000 -0.000025 -1.000000
vn -0.137668 -0.355359 -0.924536
vn -0.148952 -0.350877 -0.924499
vn -0.026560 -0.063114 -0.997653
vn -0.339004 -0.859421 -0.382716
vn -0.360969 -0.850436 -0.382700
vn -0.021514 -0.039141 -0.999002
vn 0.000000 0.000017 -1.000000
vn -0.044708 -0.057902 -0.997321
vn 0.000000 0.000015 -1.000000
vn -0.231463 -0.302848 -0.924504
vn -0.243359 -0.293180 -0.924566
vn -0.041883 -0.050819 -0.997829
vn -0.567518 -0.729225 -0.382301
vn -0.589882 -0.711109 -0.382574
vn -0.031285 -0.029976 -0.999061
vn 0.000000 0.000024 -1.000000
vn -0.057428 -0.038421 -0.997610
vn 0.000000 0.000000 -1.000000
vn -0.315534 -0.213607 -0.924560
vn -0.325779 -0.196290 -0.924845
vn -0.055858 -0.034040 -0.997858
vn -0.770193 -0.509616 -0.383528
vn -0.789525 -0.478728 -0.384019
vn -0.039187 -0.016789 -0.999091
vn 0.000000 0.000000 -1.000000
vn -0.063122 -0.014239 -0.997904
vn 0.000000 0.000000 -1.000000
vn -0.370304 -0.085857 -0.924934
vn -0.374485 -0.061522 -0.925190
vn -0.062789 -0.010704 -0.997970
vn -0.901151 -0.199456 -0.384894
vn -0.909356 -0.156718 -0.385371
vn -0.041399 -0.000017 -0.999143
vn 0.000000 0.000000 -1.000000
vn -0.062809 0.010733 -0.997968
vn 0.000000 0.000000 -1.000000
vn -0.374511 0.061627 -0.925172
vn -0.370508 0.085938 -0.924845
vn -0.063155 0.014261 -0.997902
vn -0.909279 0.156849 -0.385499
vn -0.901098 0.199559 -0.384966
vn -0.039195 0.016734 -0.999092
vn 0.000000 0.000000 -1.000000
vn -0.055815 0.034022 -0.997861
vn 0.000000 0.000000 -1.000000
vn -0.325499 0.196104 -0.924983
vn -0.315283 0.213479 -0.924675
vn -0.057379 0.038401 -0.997614
vn -0.789428 0.478685 -0.384270
vn -0.770139 0.509563 -0.383708
vn -0.031247 0.029906 -0.999064
vn 0.000000 0.000000 -1.000000
vn -0.041832 0.050809 -0.997832
vn 0.000000 0.000000 -1.000000
vn -0.243036 0.292875 -0.924747
vn -0.231253 0.302735 -0.924594
vn -0.044666 0.057914 -0.997322
vn -0.589779 0.711107 -0.382737
vn -0.567456 0.729186 -0.382467
vn -0.021518 0.039099 -0.999004
vn 0.000000 0.000025 -1.000000
vn -0.026536 0.063061 -0.997657
vn 0.000000 0.000031 -1.000000
vn -0.148836 0.350531 -0.924649
vn -0.137505 0.355156 -0.924639
vn -0.026853 0.068599 -0.997283
vn -0.360867 0.850387 -0.382905
vn -0.338930 0.859376 -0.382884
vn -0.010966 0.044694 -0.998941
vn 0.000000 0.000050 -1.000000
vn -0.009986 0.072730 -0.997302
vn 0.000000 0.000007 -1.000000
vn -0.053014 0.377351 -0.924551
vn -0.042104 0.378636 -0.924587
vn -0.008469 0.073923 -0.997228
vn -0.127057 0.914679 -0.383692
vn -0.105864 0.917365 -0.383712
vn -0.000024 0.045854 -0.998948
vn 0.000000 0.000029 -1.000000
vn 0.008499 0.073917 -0.997228
vn 0.000000 -0.000012 -1.000000
vn 0.042216 0.378585 -0.924603
vn 0.053110 0.377543 -0.924468
vn 0.010014 0.072737 -0.997301
vn 0.105968 0.917326 -0.383776
vn 0.127210 0.914647 -0.383716
vn 0.010941 0.044728 -0.998939
vn 0.000000 0.000024 -1.000000
vn 0.026887 0.068642 -0.997279
vn 0.000000 0.000025 -1.000000
vn 0.137667 0.355360 -0.924536
vn 0.148952 0.350878 -0.924499
vn 0.026561 0.063114 -0.997653
vn 0.339004 0.859421 -0.382716
vn 0.360969 0.850437 -0.382699
vn 0.021513 0.039141 -0.999002
vn 0.000000 -0.000017 -1.000000
vn 0.044708 0.057902 -0.997321
vn 0.000000 -0.000015 -1.000000
vn 0.231463 0.302848 -0.924504
vn 0.243359 0.293181 -0.924566
vn 0.041883 0.050819 -0.997829
vn 0.567517 0.729225 -0.382301
vn 0.589882 0.711109 -0.382575
vn 0.031285 0.029981 -0.999061
vn 0.000000 -0.000024 -1.000000
vn 0.057428 0.038426 -0.997610
vn 0.000000 0.000000 -1.000000
vn 0.315531 0.213637 -0.924554
vn 0.325779 0.196290 -0.924845
vn 0.055858 0.034040 -0.997858
vn 0.770203 0.509598 -0.383533
vn 0.789525 0.478728 -0.384018
vn 0.039187 0.016788 -0.999091
vn 0.000000 0.000000 -1.000000
vn 0.063122 0.014238 -0.997904
vn 0.000000 0.000000 -1.000000
vn 0.370305 0.085849 -0.924935
vn 0.374486 0.061522 -0.925189
vn 0.062789 0.010704 -0.997970
vn 0.901148 0.199469 -0.384894
vn 0.909355 0.156718 -0.385373
vn 0.041399 0.000017 -0.999143
vn 0.000000 0.000000 -1.000000
vn 0.346431 -0.148657 0.926222
vn 0.854343 -0.345047 0.388640
vn 0.273831 -0.262916 0.925144
vn 0.684245 -0.618559 0.386256
vn 0.183125 -0.333745 0.924705
vn 0.465048 -0.797127 0.385122
vn 0.090245 -0.369232 0.924945
vn 0.232670 -0.892878 0.385530
vn -0.000031 -0.379236 0.925300
vn -0.000147 -0.922413 0.386206
vn -0.090336 -0.369033 0.925016
vn -0.232928 -0.892704 0.385778
vn -0.183141 -0.333453 0.924807
vn -0.465294 -0.796861 0.385376
vn -0.273740 -0.262616 0.925256
vn -0.684400 -0.618229 0.386510
vn -0.346426 -0.148337 0.926275
vn -0.854535 -0.344446 0.388750
vn -0.374698 0.000120 0.927147
vn -0.920556 0.000361 0.390611
vn -0.346431 0.148657 0.926222
vn -0.854341 0.345047 0.388643
vn -0.273831 0.262917 0.925144
vn -0.684246 0.618559 0.386254
vn -0.183125 0.333743 0.924706
vn -0.465048 0.797128 0.385119
vn -0.090245 0.369232 0.924945
vn -0.232669 0.892878 0.385530
vn 0.000031 0.379237 0.925300
vn 0.000147 0.922413 0.386205
vn 0.090336 0.369033 0.925016
vn 0.232928 0.892704 0.385777
vn 0.183141 0.333453 0.924807
vn 0.465293 0.796861 0.385376
vn 0.273739 0.262616 0.925257
vn 0.684377 0.618261 0.386498
vn 0.346425 0.148337 0.926275
vn 0.854534 0.344447 0.388751
vn 0.374699 -0.000120 0.927146
vn 0.920554 -0.000361 0.390615
vn 0.346606 -0.148201 -0.926229
vn 0.854529 -0.344466 -0.388745
vn 0.273927 -0.262554 -0.925219
vn 0.684366 -0.618285 -0.386481
vn 0.183334 -0.333530 -0.924741
vn 0.465283 -0.796844 -0.385424
vn 0.090586 -0.369228 -0.924914
vn 0.232893 -0.892681 -0.385850
vn 0.000199 -0.379463 -0.925207
vn 0.000224 -0.922381 -0.386282
vn -0.090357 -0.369614 -0.924782
vn -0.232670 -0.892809 -0.385690
vn -0.183253 -0.333827 -0.924650
vn -0.465073 -0.797100 -0.385149
vn -0.274165 -0.263084 -0.924998
vn -0.684194 -0.618533 -0.386387
vn -0.346502 -0.148691 -0.926190
vn -0.854347 -0.345115 -0.388569
vn -0.374813 -0.000159 -0.927101
vn -0.920580 -0.000295 -0.390554
vn -0.346607 0.148201 -0.926229
vn -0.854531 0.344466 -0.388742
vn -0.273928 0.262555 -0.925218
vn -0.684412 0.618219 -0.386505
vn -0.183334 0.333528 -0.924742
vn -0.465282 0.796844 -0.385424
vn -0.090586 0.369228 -0.924913
vn -0.232893 0.892682 -0.385850
vn -0.000199 0.379462 -0.925207
vn -0.000223 0.922381 -0.386282
vn 0.090357 0.369614 -0.924782
vn 0.232670 0.892809 -0.385690
vn 0.183253 0.333826 -0.924650
vn 0.465074 0.797100 -0.385147
vn 0.274161 0.263130 -0.924986
vn 0.684216 0.618499 -0.386404
vn 0.346501 0.148678 -0.926192
vn 0.854340 0.345139 -0.388564
vn 0.374814 0.000159 -0.927100
vn 0.920578 0.000295 -0.390559
vn 0.000000 -0.000000 1.000000
vn 0.000000 0.000000 -1.000000
s 1
g pCylinder4
usemtl initialShadingGroup
f 2/1/1 1/201/2 359/462/3 358/5/4
f 1/201/2 8/161/5 360/76/6 359/462/3
s 2
f 4/2/7 3/202/8 15/213/9 14/141/10
s 1
f 3/203/11 2/1/1 16/4/12 15/212/13
s 2
f 6/3/14 5/204/15 165/326/16 164/160/17
f 5/205/15 4/2/7 166/82/18 165/325/16
s 1
f 8/161/5 7/206/19 155/318/20 154/162/21
s 2
f 7/207/22 6/3/14 156/79/23 155/317/24
s 1
f 10/6/25 9/208/26 357/461/27 356/9/28
f 9/208/26 16/4/12 358/5/4 357/461/27
s 2
f 12/7/29 11/209/30 23/219/31 22/142/32
s 1
f 11/210/33 10/6/25 24/8/34 23/218/35
s 2
f 14/141/10 13/211/36 173/332/37 172/83/38
f 13/211/36 12/7/29 174/85/39 173/332/37
s 1
f 18/10/40 17/214/41 355/460/42 354/13/43
f 17/214/41 24/8/34 356/9/28 355/460/42
s 2
f 20/11/44 19/215/45 31/225/46 30/143/47
s 1
f 19/216/48 18/10/40 32/12/49 31/224/50
s 2
f 22/142/32 21/217/51 181/338/52 180/86/53
f 21/217/51 20/11/44 182/88/54 181/338/52
s 1
f 26/14/55 25/220/56 353/459/57 352/17/58
f 25/220/56 32/12/49 354/13/43 353/459/57
s 2
f 28/15/59 27/221/60 39/231/61 38/144/62
s 1
f 27/222/63 26/14/55 40/16/64 39/230/65
s 2
f 30/143/47 29/223/66 189/344/67 188/89/68
f 29/223/66 28/15/59 190/91/69 189/344/67
s 1
f 34/18/70 33/226/71 351/458/72 350/21/73
f 33/226/71 40/16/64 352/17/58 351/458/72
s 2
f 36/19/74 35/227/75 47/237/76 46/145/77
s 1
f 35/228/78 34/18/70 48/20/79 47/236/80
s 2
f 38/144/62 37/229/81 197/350/82 196/92/83
f 37/229/81 36/19/74 198/94/84 197/350/82
s 1
f 42/22/85 41/232/86 349/457/87 348/25/88
f 41/232/86 48/20/79 350/21/73 349/457/87
s 2
f 44/23/89 43/233/90 55/243/91 54/146/92
s 1
f 43/234/93 42/22/85 56/24/94 55/242/95
s 2
f 46/145/77 45/235/96 205/356/97 204/95/98
f 45/235/96 44/23/89 206/97/99 205/356/97
s 1
f 50/26/100 49/238/101 347/456/102 346/29/103
f 49/238/101 56/24/94 348/25/88 347/456/102
s 2
f 52/27/104 51/239/105 63/249/106 62/147/107
s 1
f 51/240/108 50/26/100 64/28/109 63/248/110
s 2
f 54/146/92 53/241/111 213/362/112 212/98/113
f 53/241/111 52/27/104 214/100/114 213/362/112
s 1
f 58/30/115 57/244/116 345/455/117 344/33/118
f 57/244/116 64/28/109 346/29/103 345/455/117
s 2
f 60/31/119 59/245/120 71/255/121 70/148/122
s 1
f 59/246/123 58/30/115 72/32/124 71/254/125
s 2
f 62/147/107 61/247/126 221/368/127 220/101/128
f 61/247/126 60/31/119 222/103/129 221/368/127
s 1
f 66/34/130 65/250/131 343/454/132 342/37/133
f 65/250/131 72/32/124 344/33/118 343/454/132
s 2
f 68/35/134 67/251/135 79/261/136 78/149/137
s 1
f 67/252/138 66/34/130 80/36/139 79/260/140
s 2
f 70/148/122 69/253/141 229/374/142 228/104/143
f 69/253/141 68/35/134 230/106/144 229/374/142
s 1
f 74/38/145 73/256/146 341/453/147 340/41/148
f 73/256/146 80/36/139 342/37/133 341/453/147
s 2
f 76/39/149 75/257/150 87/267/151 86/150/152
s 1
f 75/258/153 74/38/145 88/40/154 87/266/155
s 2
f 78/149/137 77/259/156 237/380/157 236/107/158
f 77/259/156 76/39/149 238/109/159 237/380/157
s 1
f 82/42/160 81/262/161 339/452/162 338/45/163
f 81/262/161 88/40/154 340/41/148 339/452/162
s 2
f 84/43/164 83/263/165 95/273/166 94/151/167
s 1
f 83/264/168 82/42/160 96/44/169 95/272/170
s 2
f 86/150/152 85/265/171 245/386/172 244/110/173
f 85/265/171 84/43/164 246/112/174 245/386/172
s 1
f 90/46/175 89/268/176 337/451/177 336/49/178
f 89/268/176 96/44/169 338/45/163 337/451/177
s 2
f 92/47/179 91/269/180 103/279/181 102/152/182
s 1
f 91/270/183 90/46/175 104/48/184 103/278/185
s 2
f 94/151/167 93/271/186 253/392/187 252/113/188
f 93/271/186 92/47/179 254/115/189 253/392/187
s 1
f 98/50/190 97/274/191 335/450/192 334/53/193
f 97/274/191 104/48/184 336/49/178 335/450/192
s 2
f 100/51/194 99/275/195 111/285/196 110/153/197
s 1
f 99/276/198 98/50/190 112/52/199 111/284/200
s 2
f 102/152/182 101/277/201 261/398/202 260/116/203
f 101/277/201 100/51/194 262/118/204 261/398/202
s 1
f 106/54/205 105/280/206 333/449/207 332/57/208
f 105/280/206 112/52/199 334/53/193 333/449/207
s 2
f 108/55/209 107/281/210 119/291/211 118/154/212
s 1
f 107/282/213 106/54/205 120/56/214 119/290/215
s 2
f 110/153/197 109/283/216 269/404/217 268/119/218
f 109/283/216 108/55/209 270/121/219 269/404/217
s 1
f 114/58/220 113/286/221 331/448/222 330/61/223
f 113/286/221 120/56/214 332/57/208 331/448/222
s 2
f 116/59/224 115/287/225 127/297/226 126/155/227
s 1
f 115/288/228 114/58/220 128/60/229 127/296/230
s 2
f 118/154/212 117/289/231 277/410/232 276/122/233
f 117/289/231 116/59/224 278/124/234 277/410/232
s 1
f 122/62/235 121/292/236 329/447/237 328/65/238
f 121/292/236 128/60/229 330/61/223 329/447/237
s 2
f 124/63/239 123/293/240 135/303/241 134/156/242
s 1
f 123/294/243 122/62/235 136/64/244 135/302/245
s 2
f 126/155/227 125/295/246 285/416/247 284/125/248
f 125/295/246 124/63/239 286/127/249 285/416/247
s 1
f 130/66/250 129/298/251 327/446/252 326/69/253
f 129/298/251 136/64/244 328/65/238 327/446/252
s 2
f 132/67/254 131/299/255 143/309/256 142/157/257
s 1
f 131/300/258 130/66/250 144/68/259 143/308/260
s 2
f 134/156/242 133/301/261 293/422/262 292/128/263
f 133/301/261 132/67/254 294/130/264 293/422/262
s 1
f 138/70/265 137/304/266 325/445/267 324/73/268
f 137/304/266 144/68/259 326/69/253 325/445/267
s 2
f 140/71/269 139/305/270 151/315/271 150/158/272
s 1
f 139/306/273 138/70/265 152/72/274 151/314/275
s 2
f 142/157/257 141/307/276 301/428/277 300/131/278
f 141/307/276 140/71/269 302/133/279 301/428/277
s 1
f 146/74/280 145/310/281 323/444/282 322/78/283
f 145/310/281 152/72/274 324/73/268 323/444/282
s 2
f 148/75/284 147/311/285 159/321/286 158/159/287
s 1
f 147/312/288 146/74/280 160/77/289 159/320/290
s 2
f 150/158/272 149/313/291 309/434/292 308/134/293
f 149/313/291 148/75/284 310/136/294 309/434/292
s 1
f 154/162/21 153/316/295 321/443/296 360/76/6
f 153/316/295 160/77/289 322/78/283 321/443/296
s 2
f 158/159/287 157/319/297 317/440/298 316/137/299
f 157/319/297 156/79/23 318/80/300 317/440/298
s 40
f 162/81/301 161/322/302 363/464/303 362/140/304
f 161/322/302 168/163/305 364/84/306 363/464/303
s 2
f 164/160/17 163/323/307 319/442/308 318/80/300
s 40
f 163/324/309 162/81/301 320/139/310 319/441/311
f 168/163/305 167/327/312 171/331/313 170/164/314
s 2
f 167/328/315 166/82/18 172/83/38 171/330/316
s 40
f 170/164/314 169/329/317 365/465/318 364/84/306
f 169/329/317 176/165/319 366/87/320 365/465/318
f 176/165/319 175/333/321 179/337/322 178/166/323
s 2
f 175/334/324 174/85/39 180/86/53 179/336/325
s 40
f 178/166/323 177/335/326 367/466/327 366/87/320
f 177/335/326 184/167/328 368/90/329 367/466/327
f 184/167/328 183/339/330 187/343/331 186/168/332
s 2
f 183/340/333 182/88/54 188/89/68 187/342/334
s 40
f 186/168/332 185/341/335 369/467/336 368/90/329
f 185/341/335 192/169/337 370/93/338 369/467/336
f 192/169/337 191/345/339 195/349/340 194/170/341
s 2
f 191/346/342 190/91/69 196/92/83 195/348/343
s 40
f 194/170/341 193/347/344 371/468/345 370/93/338
f 193/347/344 200/171/346 372/96/347 371/468/345
f 200/171/346 199/351/348 203/355/349 202/172/350
s 2
f 199/352/351 198/94/84 204/95/98 203/354/352
s 40
f 202/172/350 201/353/353 373/469/354 372/96/347
f 201/353/353 208/173/355 374/99/356 373/469/354
f 208/173/355 207/357/357 211/361/358 210/174/359
s 2
f 207/358/360 206/97/99 212/98/113 211/360/361
s 40
f 210/174/359 209/359/362 375/470/363 374/99/356
f 209/359/362 216/175/364 376/102/365 375/470/363
f 216/175/364 215/363/366 219/367/367 218/176/368
s 2
f 215/364/369 214/100/114 220/101/128 219/366/370
s 40
f 218/176/368 217/365/371 377/471/372 376/102/365
f 217/365/371 224/177/373 378/105/374 377/471/372
f 224/177/373 223/369/375 227/373/376 226/178/377
s 2
f 223/370/378 222/103/129 228/104/143 227/372/379
s 40
f 226/178/377 225/371/380 379/472/381 378/105/374
f 225/371/380 232/179/382 380/108/383 379/472/381
f 232/179/382 231/375/384 235/379/385 234/180/386
s 2
f 231/376/387 230/106/144 236/107/158 235/378/388
s 40
f 234/180/386 233/377/389 381/473/390 380/108/383
f 233/377/389 240/181/391 382/111/392 381/473/390
f 240/181/391 239/381/393 243/385/394 242/182/395
s 2
f 239/382/396 238/109/159 244/110/173 243/384/397
s 40
f 242/182/395 241/383/398 383/474/399 382/111/392
f 241/383/398 248/183/400 384/114/401 383/474/399
f 248/183/400 247/387/402 251/391/403 250/184/404
s 2
f 247/388/405 246/112/174 252/113/188 251/390/406
s 40
f 250/184/404 249/389/407 385/475/408 384/114/401
f 249/389/407 256/185/409 386/117/410 385/475/408
f 256/185/409 255/393/411 259/397/412 258/186/413
s 2
f 255/394/414 254/115/189 260/116/203 259/396/415
s 40
f 258/186/413 257/395/416 387/476/417 386/117/410
f 257/395/416 264/187/418 388/120/419 387/476/417
f 264/187/418 263/399/420 267/403/421 266/188/422
s 2
f 263/400/423 262/118/204 268/119/218 267/402/424
s 40
f 266/188/422 265/401/425 389/477/426 388/120/419
f 265/401/425 272/189/427 390/123/428 389/477/426
f 272/189/427 271/405/429 275/409/430 274/190/431
s 2
f 271/406/432 270/121/219 276/122/233 275/408/433
s 40
f 274/190/431 273/407/434 391/478/435 390/123/428
f 273/407/434 280/191/436 392/126/437 391/478/435
f 280/191/436 279/411/438 283/415/439 282/192/440
s 2
f 279/412/441 278/124/234 284/125/248 283/414/442
s 40
f 282/192/440 281/413/443 393/479/444 392/126/437
f 281/413/443 288/193/445 394/129/446 393/479/444
f 288/193/445 287/417/447 291/421/448 290/194/449
s 2
f 287/418/450 286/127/249 292/128/263 291/420/451
s 40
f 290/194/449 289/419/452 395/480/453 394/129/446
f 289/419/452 296/195/454 396/132/455 395/480/453
f 296/195/454 295/423/456 299/427/457 298/196/458
s 2
f 295/424/459 294/130/264 300/131/278 299/426/460
s 40
f 298/196/458 297/425/461 397/481/462 396/132/455
f 297/425/461 304/197/463 398/135/464 397/481/462
f 304/197/463 303/429/465 307/433/466 306/198/467
s 2
f 303/430/468 302/133/279 308/134/293 307/432/469
s 40
f 306/198/467 305/431/470 399/482/471 398/135/464
f 305/431/470 312/199/472 400/138/473 399/482/471
f 312/199/472 311/435/474 315/439/475 314/200/476
s 2
f 311/436/477 310/136/294 316/137/299 315/438/478
s 40
f 314/200/476 313/437/479 361/463/480 400/138/473
f 313/437/479 320/139/310 362/140/304 361/463/480
s 2
f 4/2/7 14/141/10 172/83/38 166/82/18
f 12/7/29 22/142/32 180/86/53 174/85/39
f 20/11/44 30/143/47 188/89/68 182/88/54
f 28/15/59 38/144/62 196/92/83 190/91/69
f 36/19/74 46/145/77 204/95/98 198/94/84
f 44/23/89 54/146/92 212/98/113 206/97/99
f 52/27/104 62/147/107 220/101/128 214/100/114
f 60/31/119 70/148/122 228/104/143 222/103/129
f 68/35/134 78/149/137 236/107/158 230/106/144
f 76/39/149 86/150/152 244/110/173 238/109/159
f 84/43/164 94/151/167 252/113/188 246/112/174
f 92/47/179 102/152/182 260/116/203 254/115/189
f 100/51/194 110/153/197 268/119/218 262/118/204
f 108/55/209 118/154/212 276/122/233 270/121/219
f 116/59/224 126/155/227 284/125/248 278/124/234
f 124/63/239 134/156/242 292/128/263 286/127/249
f 132/67/254 142/157/257 300/131/278 294/130/264
f 140/71/269 150/158/272 308/134/293 302/133/279
f 148/75/284 158/159/287 316/137/299 310/136/294
f 156/79/23 6/3/14 164/160/17 318/80/300
s 1
f 16/4/12 2/1/1 358/5/4
f 24/8/34 10/6/25 356/9/28
f 32/12/49 18/10/40 354/13/43
f 40/16/64 26/14/55 352/17/58
f 48/20/79 34/18/70 350/21/73
f 56/24/94 42/22/85 348/25/88
f 64/28/109 50/26/100 346/29/103
f 72/32/124 58/30/115 344/33/118
f 80/36/139 66/34/130 342/37/133
f 88/40/154 74/38/145 340/41/148
f 96/44/169 82/42/160 338/45/163
f 104/48/184 90/46/175 336/49/178
f 112/52/199 98/50/190 334/53/193
f 120/56/214 106/54/205 332/57/208
f 128/60/229 114/58/220 330/61/223
f 136/64/244 122/62/235 328/65/238
f 144/68/259 130/66/250 326/69/253
f 152/72/274 138/70/265 324/73/268
f 160/77/289 146/74/280 322/78/283
f 8/161/5 154/162/21 360/76/6
s 40
f 168/163/305 170/164/314 364/84/306
f 176/165/319 178/166/323 366/87/320
f 184/167/328 186/168/332 368/90/329
f 192/169/337 194/170/341 370/93/338
f 200/171/346 202/172/350 372/96/347
f 208/173/355 210/174/359 374/99/356
f 216/175/364 218/176/368 376/102/365
f 224/177/373 226/178/377 378/105/374
f 232/179/382 234/180/386 380/108/383
f 240/181/391 242/182/395 382/111/392
f 248/183/400 250/184/404 384/114/401
f 256/185/409 258/186/413 386/117/410
f 264/187/418 266/188/422 388/120/419
f 272/189/427 274/190/431 390/123/428
f 280/191/436 282/192/440 392/126/437
f 288/193/445 290/194/449 394/129/446
f 296/195/454 298/196/458 396/132/455
f 304/197/463 306/198/467 398/135/464
f 312/199/472 314/200/476 400/138/473
f 320/139/310 162/81/301 362/140/304
s 1
f 7/206/19 8/161/5 1/201/2 401/485/481
f 1/201/2 2/1/1 3/203/11 401/485/481
s 2
f 3/202/8 4/2/7 5/205/15 401/483/482
f 5/204/15 6/3/14 7/207/22 401/484/482
s 1
f 15/212/13 16/4/12 9/208/26 402/487/483
f 9/208/26 10/6/25 11/210/33 402/487/483
s 2
f 11/209/30 12/7/29 13/211/36 402/486/484
f 13/211/36 14/141/10 15/213/9 402/486/484
s 1
f 23/218/35 24/8/34 17/214/41 403/489/485
f 17/214/41 18/10/40 19/216/48 403/489/485
s 2
f 19/215/45 20/11/44 21/217/51 403/488/486
f 21/217/51 22/142/32 23/219/31 403/488/486
s 1
f 31/224/50 32/12/49 25/220/56 404/491/487
f 25/220/56 26/14/55 27/222/63 404/491/487
s 2
f 27/221/60 28/15/59 29/223/66 404/490/488
f 29/223/66 30/143/47 31/225/46 404/490/488
s 1
f 39/230/65 40/16/64 33/226/71 405/493/489
f 33/226/71 34/18/70 35/228/78 405/493/489
s 2
f 35/227/75 36/19/74 37/229/81 405/492/490
f 37/229/81 38/144/62 39/231/61 405/492/490
s 1
f 47/236/80 48/20/79 41/232/86 406/495/491
f 41/232/86 42/22/85 43/234/93 406/495/491
s 2
f 43/233/90 44/23/89 45/235/96 406/494/492
f 45/235/96 46/145/77 47/237/76 406/494/492
s 1
f 55/242/95 56/24/94 49/238/101 407/497/493
f 49/238/101 50/26/100 51/240/108 407/497/493
s 2
f 51/239/105 52/27/104 53/241/111 407/496/494
f 53/241/111 54/146/92 55/243/91 407/496/494
s 1
f 63/248/110 64/28/109 57/244/116 408/499/495
f 57/244/116 58/30/115 59/246/123 408/499/495
s 2
f 59/245/120 60/31/119 61/247/126 408/498/496
f 61/247/126 62/147/107 63/249/106 408/498/496
s 1
f 71/254/125 72/32/124 65/250/131 409/501/497
f 65/250/131 66/34/130 67/252/138 409/501/497
s 2
f 67/251/135 68/35/134 69/253/141 409/500/498
f 69/253/141 70/148/122 71/255/121 409/500/498
s 1
f 79/260/140 80/36/139 73/256/146 410/503/499
f 73/256/146 74/38/145 75/258/153 410/503/499
s 2
f 75/257/150 76/39/149 77/259/156 410/502/500
f 77/259/156 78/149/137 79/261/136 410/502/500
s 1
f 87/266/155 88/40/154 81/262/161 411/505/501
f 81/262/161 82/42/160 83/264/168 411/505/501
s 2
f 83/263/165 84/43/164 85/265/171 411/504/502
f 85/265/171 86/150/152 87/267/151 411/504/502
s 1
f 95/272/170 96/44/169 89/268/176 412/507/503
f 89/268/176 90/46/175 91/270/183 412/507/503
s 2
f 91/269/180 92/47/179 93/271/186 412/506/504
f 93/271/186 94/151/167 95/273/166 412/506/504
s 1
f 103/278/185 104/48/184 97/274/191 413/509/505
f 97/274/191 98/50/190 99/276/198 413/509/505
s 2
f 99/275/195 100/51/194 101/277/201 413/508/506
f 101/277/201 102/152/182 103/279/181 413/508/506
s 1
f 111/284/200 112/52/199 105/280/206 414/511/507
f 105/280/206 106/54/205 107/282/213 414/511/507
s 2
f 107/281/210 108/55/209 109/283/216 414/510/508
f 109/283/216 110/153/197 111/285/196 414/510/508
s 1
f 119/290/215 120/56/214 113/286/221 415/513/509
f 113/286/221 114/58/220 115/288/228 415/513/509
s 2
f 115/287/225 116/59/224 117/289/231 415/512/510
f 117/289/231 118/154/212 119/291/211 415/512/510
s 1
f 127/296/230 128/60/229 121/292/236 416/515/511
f 121/292/236 122/62/235 123/294/243 416/515/511
s 2
f 123/293/240 124/63/239 125/295/246 416/514/512
f 125/295/246 126/155/227 127/297/226 416/514/512
s 1
f 135/302/245 136/64/244 129/298/251 417/517/513
f 129/298/251 130/66/250 131/300/258 417/517/513
s 2
f 131/299/255 132/67/254 133/301/261 417/516/514
f 133/301/261 134/156/242 135/303/241 417/516/514
s 1
f 143/308/260 144/68/259 137/304/266 418/519/515
f 137/304/266 138/70/265 139/306/273 418/519/515
s 2
f 139/305/270 140/71/269 141/307/276 418/518/516
f 141/307/276 142/157/257 143/309/256 418/518/516
s 1
f 151/314/275 152/72/274 145/310/281 419/521/517
f 145/310/281 146/74/280 147/312/288 419/521/517
s 2
f 147/311/285 148/75/284 149/313/291 419/520/518
f 149/313/291 150/158/272 151/315/271 419/520/518
s 1
f 159/320/290 160/77/289 153/316/295 420/523/519
f 153/316/295 154/162/21 155/318/20 420/523/519
s 2
f 155/317/24 156/79/23 157/319/297 420/522/520
f 157/319/297 158/159/287 159/321/286 420/522/520
s 40
f 167/327/312 168/163/305 161/322/302 421/526/521
f 161/322/302 162/81/301 163/324/309 421/526/521
s 2
f 163/323/307 164/160/17 165/326/16 421/524/522
f 165/325/16 166/82/18 167/328/315 421/525/522
s 40
f 175/333/321 176/165/319 169/329/317 422/528/523
f 169/329/317 170/164/314 171/331/313 422/528/523
s 2
f 171/330/316 172/83/38 173/332/37 422/527/524
f 173/332/37 174/85/39 175/334/324 422/527/524
s 40
f 183/339/330 184/167/328 177/335/326 423/530/525
f 177/335/326 178/166/323 179/337/322 423/530/525
s 2
f 179/336/325 180/86/53 181/338/52 423/529/526
f 181/338/52 182/88/54 183/340/333 423/529/526
s 40
f 191/345/339 192/169/337 185/341/335 424/532/527
f 185/341/335 186/168/332 187/343/331 424/532/527
s 2
f 187/342/334 188/89/68 189/344/67 424/531/528
f 189/344/67 190/91/69 191/346/342 424/531/528
s 40
f 199/351/348 200/171/346 193/347/344 425/534/529
f 193/347/344 194/170/341 195/349/340 425/534/529
s 2
f 195/348/343 196/92/83 197/350/82 425/533/530
f 197/350/82 198/94/84 199/352/351 425/533/530
s 40
f 207/357/357 208/173/355 201/353/353 426/536/531
f 201/353/353 202/172/350 203/355/349 426/536/531
s 2
f 203/354/352 204/95/98 205/356/97 426/535/532
f 205/356/97 206/97/99 207/358/360 426/535/532
s 40
f 215/363/366 216/175/364 209/359/362 427/538/533
f 209/359/362 210/174/359 211/361/358 427/538/533
s 2
f 211/360/361 212/98/113 213/362/112 427/537/534
f 213/362/112 214/100/114 215/364/369 427/537/534
s 40
f 223/369/375 224/177/373 217/365/371 428/540/535
f 217/365/371 218/176/368 219/367/367 428/540/535
s 2
f 219/366/370 220/101/128 221/368/127 428/539/536
f 221/368/127 222/103/129 223/370/378 428/539/536
s 40
f 231/375/384 232/179/382 225/371/380 429/542/537
f 225/371/380 226/178/377 227/373/376 429/542/537
s 2
f 227/372/379 228/104/143 229/374/142 429/541/538
f 229/374/142 230/106/144 231/376/387 429/541/538
s 40
f 239/381/393 240/181/391 233/377/389 430/544/539
f 233/377/389 234/180/386 235/379/385 430/544/539
s 2
f 235/378/388 236/107/158 237/380/157 430/543/540
f 237/380/157 238/109/159 239/382/396 430/543/540
s 40
f 247/387/402 248/183/400 241/383/398 431/546/541
f 241/383/398 242/182/395 243/385/394 431/546/541
s 2
f 243/384/397 244/110/173 245/386/172 431/545/542
f 245/386/172 246/112/174 247/388/405 431/545/542
s 40
f 255/393/411 256/185/409 249/389/407 432/548/543
f 249/389/407 250/184/404 251/391/403 432/548/543
s 2
f 251/390/406 252/113/188 253/392/187 432/547/544
f 253/392/187 254/115/189 255/394/414 432/547/544
s 40
f 263/399/420 264/187/418 257/395/416 433/550/545
f 257/395/416 258/186/413 259/397/412 433/550/545
s 2
f 259/396/415 260/116/203 261/398/202 433/549/546
f 261/398/202 262/118/204 263/400/423 433/549/546
s 40
f 271/405/429 272/189/427 265/401/425 434/552/547
f 265/401/425 266/188/422 267/403/421 434/552/547
s 2
f 267/402/424 268/119/218 269/404/217 434/551/548
f 269/404/217 270/121/219 271/406/432 434/551/548
s 40
f 279/411/438 280/191/436 273/407/434 435/554/549
f 273/407/434 274/190/431 275/409/430 435/554/549
s 2
f 275/408/433 276/122/233 277/410/232 435/553/550
f 277/410/232 278/124/234 279/412/441 435/553/550
s 40
f 287/417/447 288/193/445 281/413/443 436/556/551
f 281/413/443 282/192/440 283/415/439 436/556/551
s 2
f 283/414/442 284/125/248 285/416/247 436/555/552
f 285/416/247 286/127/249 287/418/450 436/555/552
s 40
f 295/423/456 296/195/454 289/419/452 437/558/553
f 289/419/452 290/194/449 291/421/448 437/558/553
s 2
f 291/420/451 292/128/263 293/422/262 437/557/554
f 293/422/262 294/130/264 295/424/459 437/557/554
s 40
f 303/429/465 304/197/463 297/425/461 438/560/555
f 297/425/461 298/196/458 299/427/457 438/560/555
s 2
f 299/426/460 300/131/278 301/428/277 438/559/556
f 301/428/277 302/133/279 303/430/468 438/559/556
s 40
f 311/435/474 312/199/472 305/431/470 439/562/557
f 305/431/470 306/198/467 307/433/466 439/562/557
s 2
f 307/432/469 308/134/293 309/434/292 439/561/558
f 309/434/292 310/136/294 311/436/477 439/561/558
s 40
f 319/441/311 320/139/310 313/437/479 440/564/559
f 313/437/479 314/200/476 315/439/475 440/564/559
s 2
f 315/438/478 316/137/299 317/440/298 440/563/560
f 317/440/298 318/80/300 319/442/308 440/563/560
s 1
f 359/462/3 360/76/6 321/443/296 441/565/561
f 321/443/296 322/78/283 323/444/282 441/565/561
f 323/444/282 324/73/268 325/445/267 441/565/561
f 325/445/267 326/69/253 327/446/252 441/565/561
f 327/446/252 328/65/238 329/447/237 441/565/561
f 329/447/237 330/61/223 331/448/222 441/565/561
f 331/448/222 332/57/208 333/449/207 441/565/561
f 333/449/207 334/53/193 335/450/192 441/565/561
f 335/450/192 336/49/178 337/451/177 441/565/561
f 337/451/177 338/45/163 339/452/162 441/565/561
f 339/452/162 340/41/148 341/453/147 441/565/561
f 341/453/147 342/37/133 343/454/132 441/565/561
f 343/454/132 344/33/118 345/455/117 441/565/561
f 345/455/117 346/29/103 347/456/102 441/565/561
f 347/456/102 348/25/88 349/457/87 441/565/561
f 349/457/87 350/21/73 351/458/72 441/565/561
f 351/458/72 352/17/58 353/459/57 441/565/561
f 353/459/57 354/13/43 355/460/42 441/565/561
f 355/460/42 356/9/28 357/461/27 441/565/561
f 357/461/27 358/5/4 359/462/3 441/565/561
s 40
f 399/482/471 400/138/473 361/463/480 442/566/562
f 361/463/480 362/140/304 363/464/303 442/566/562
f 363/464/303 364/84/306 365/465/318 442/566/562
f 365/465/318 366/87/320 367/466/327 442/566/562
f 367/466/327 368/90/329 369/467/336 442/566/562
f 369/467/336 370/93/338 371/468/345 442/566/562
f 371/468/345 372/96/347 373/469/354 442/566/562
f 373/469/354 374/99/356 375/470/363 442/566/562
f 375/470/363 376/102/365 377/471/372 442/566/562
f 377/471/372 378/105/374 379/472/381 442/566/562
f 379/472/381 380/108/383 381/473/390 442/566/562
f 381/473/390 382/111/392 383/474/399 442/566/562
f 383/474/399 384/114/401 385/475/408 442/566/562
f 385/475/408 386/117/410 387/476/417 442/566/562
f 387/476/417 388/120/419 389/477/426 442/566/562
f 389/477/426 390/123/428 391/478/435 442/566/562
f 391/478/435 392/126/437 393/479/444 442/566/562
f 393/479/444 394/129/446 395/480/453 442/566/562
f 395/480/453 396/132/455 397/481/462 442/566/562
f 397/481/462 398/135/464 399/482/471 442/566/562
