# This file uses centimeters as units for non-parametric coordinates.

mtllib 时钟连接的地方.mtl
g default
v 0.075753 -0.090902 -6.558950
v 0.067856 -0.109969 -6.558950
v 0.087682 -0.116380 -6.567446
v 0.095901 -0.119016 -6.587958
v 0.103774 -0.100012 -6.587944
v 0.108575 -0.080021 -6.587929
v 0.100378 -0.077313 -6.567438
v 0.080571 -0.070835 -6.558950
v 0.033970 -0.172906 -6.558950
v 0.020567 -0.188599 -6.558950
v 0.037442 -0.200823 -6.567446
v 0.044444 -0.205870 -6.587958
v 0.057804 -0.190229 -6.587944
v 0.068548 -0.172700 -6.587929
v 0.061589 -0.167592 -6.567438
v 0.044753 -0.155310 -6.558950
v -0.031109 -0.237985 -6.558950
v -0.048705 -0.248768 -6.558950
v -0.036434 -0.265609 -6.567446
v -0.031334 -0.272572 -6.587958
v -0.013794 -0.261825 -6.587944
v 0.001840 -0.248474 -6.587929
v -0.003199 -0.241466 -6.567438
v -0.015416 -0.224582 -6.558950
v -0.113113 -0.279768 -6.558950
v -0.133180 -0.284586 -6.558950
v -0.126713 -0.304395 -6.567446
v -0.124015 -0.312593 -6.587958
v -0.104013 -0.307792 -6.587944
v -0.085018 -0.299926 -6.587929
v -0.087645 -0.291703 -6.567438
v -0.094046 -0.271871 -6.558950
v -0.204015 -0.294166 -6.558950
v -0.224589 -0.292547 -6.558950
v -0.224560 -0.313384 -6.567446
v -0.224527 -0.322015 -6.587958
v -0.204020 -0.323630 -6.587944
v -0.183524 -0.322018 -6.587929
v -0.183482 -0.313386 -6.567438
v -0.183441 -0.292547 -6.558950
v -0.294918 -0.279768 -6.558950
v -0.313984 -0.271871 -6.558950
v -0.320395 -0.291697 -6.567446
v -0.323031 -0.299916 -6.587958
v -0.304027 -0.307789 -6.587944
v -0.284036 -0.312590 -6.587929
v -0.281328 -0.304393 -6.567438
v -0.274850 -0.284586 -6.558950
v -0.376922 -0.237985 -6.558950
v -0.392615 -0.224582 -6.558950
v -0.404839 -0.241457 -6.567446
v -0.409885 -0.248459 -6.587958
v -0.394245 -0.261819 -6.587944
v -0.376715 -0.272563 -6.587929
v -0.371607 -0.265604 -6.567438
v -0.359325 -0.248768 -6.558950
v -0.442000 -0.172906 -6.558950
v -0.452784 -0.155310 -6.558950
v -0.469624 -0.167581 -6.567446
v -0.476588 -0.172681 -6.587958
v -0.465841 -0.190221 -6.587944
v -0.452489 -0.205855 -6.587929
v -0.445481 -0.200816 -6.567438
v -0.428597 -0.188599 -6.558950
v -0.483784 -0.090902 -6.558950
v -0.488601 -0.070835 -6.558950
v -0.508410 -0.077302 -6.567446
v -0.516608 -0.080000 -6.587958
v -0.511807 -0.100002 -6.587944
v -0.503941 -0.118998 -6.587929
v -0.495718 -0.116370 -6.567438
v -0.475886 -0.109969 -6.558950
v -0.498181 0.000000 -6.558950
v -0.496562 0.020574 -6.558950
v -0.517399 0.020545 -6.567446
v -0.526030 0.020512 -6.587958
v -0.527645 0.000005 -6.587944
v -0.526034 -0.020491 -6.587929
v -0.517402 -0.020534 -6.567438
v -0.496562 -0.020574 -6.558950
v -0.483784 0.090902 -6.558950
v -0.475886 0.109969 -6.558950
v -0.495712 0.116380 -6.567446
v -0.503931 0.119016 -6.587958
v -0.511804 0.100012 -6.587944
v -0.516605 0.080021 -6.587929
v -0.508409 0.077313 -6.567438
v -0.488601 0.070835 -6.558950
v -0.442000 0.172906 -6.558950
v -0.428597 0.188599 -6.558950
v -0.445472 0.200823 -6.567446
v -0.452474 0.205870 -6.587958
v -0.465835 0.190229 -6.587944
v -0.476578 0.172700 -6.587929
v -0.469620 0.167592 -6.567438
v -0.452784 0.155310 -6.558950
v -0.376922 0.237985 -6.558950
v -0.359325 0.248768 -6.558950
v -0.371597 0.265609 -6.567446
v -0.376696 0.272572 -6.587958
v -0.394236 0.261825 -6.587944
v -0.409871 0.248474 -6.587929
v -0.404831 0.241465 -6.567438
v -0.392614 0.224582 -6.558950
v -0.294918 0.279768 -6.558950
v -0.274850 0.284586 -6.558950
v -0.281317 0.304394 -6.567446
v -0.284015 0.312593 -6.587958
v -0.304017 0.307792 -6.587944
v -0.323013 0.299925 -6.587929
v -0.320386 0.291703 -6.567438
v -0.313984 0.271871 -6.558950
v -0.204015 0.294166 -6.558950
v -0.183441 0.292547 -6.558950
v -0.183471 0.313384 -6.567446
v -0.183503 0.322015 -6.587958
v -0.204010 0.323630 -6.587944
v -0.224507 0.322018 -6.587929
v -0.224549 0.313386 -6.567438
v -0.224589 0.292547 -6.558950
v -0.113113 0.279768 -6.558950
v -0.094046 0.271871 -6.558950
v -0.087635 0.291697 -6.567446
v -0.084999 0.299916 -6.587958
v -0.104003 0.307789 -6.587944
v -0.123995 0.312590 -6.587929
v -0.126702 0.304393 -6.567438
v -0.133180 0.284586 -6.558950
v -0.031109 0.237985 -6.558950
v -0.015416 0.224582 -6.558950
v -0.003192 0.241457 -6.567446
v 0.001855 0.248459 -6.587958
v -0.013786 0.261819 -6.587944
v -0.031315 0.272563 -6.587929
v -0.036424 0.265604 -6.567438
v -0.048705 0.248768 -6.558950
v 0.033970 0.172906 -6.558950
v 0.044753 0.155310 -6.558950
v 0.061593 0.167581 -6.567446
v 0.068557 0.172681 -6.587958
v 0.057810 0.190221 -6.587944
v 0.044459 0.205855 -6.587929
v 0.037450 0.200816 -6.567438
v 0.020567 0.188599 -6.558950
v 0.075753 0.090902 -6.558950
v 0.080571 0.070835 -6.558950
v 0.100379 0.077302 -6.567446
v 0.108578 0.080000 -6.587958
v 0.103777 0.100002 -6.587944
v 0.095910 0.118997 -6.587929
v 0.087688 0.116370 -6.567438
v 0.067855 0.109969 -6.558950
v 0.090151 -0.000000 -6.558950
v 0.088531 -0.020574 -6.558950
v 0.109369 -0.020545 -6.567446
v 0.118000 -0.020512 -6.587958
v 0.119615 -0.000005 -6.587944
v 0.118003 0.020491 -6.587929
v 0.109371 0.020534 -6.567438
v 0.088531 0.020574 -6.558950
v 0.075753 -0.090902 -7.075558
v 0.080571 -0.070835 -7.075558
v 0.100379 -0.077302 -7.067062
v 0.108578 -0.080000 -7.046550
v 0.103777 -0.100002 -7.046565
v 0.095910 -0.118998 -7.046580
v 0.087688 -0.116370 -7.067070
v 0.067856 -0.109969 -7.075558
v 0.033970 -0.172906 -7.075558
v 0.044753 -0.155310 -7.075558
v 0.061594 -0.167582 -7.067062
v 0.068557 -0.172681 -7.046550
v 0.057810 -0.190221 -7.046565
v 0.044459 -0.205855 -7.046580
v 0.037450 -0.200816 -7.067070
v 0.020567 -0.188599 -7.075558
v -0.031109 -0.237985 -7.075558
v -0.015416 -0.224582 -7.075558
v -0.003192 -0.241457 -7.067062
v 0.001855 -0.248459 -7.046550
v -0.013786 -0.261819 -7.046565
v -0.031315 -0.272563 -7.046580
v -0.036423 -0.265604 -7.067070
v -0.048705 -0.248768 -7.075558
v -0.113113 -0.279768 -7.075558
v -0.094046 -0.271871 -7.075558
v -0.087635 -0.291697 -7.067062
v -0.084999 -0.299916 -7.046550
v -0.104003 -0.307789 -7.046565
v -0.123994 -0.312590 -7.046580
v -0.126702 -0.304393 -7.067070
v -0.133180 -0.284586 -7.075558
v -0.204015 -0.294166 -7.075558
v -0.183441 -0.292547 -7.075558
v -0.183471 -0.313384 -7.067062
v -0.183503 -0.322015 -7.046550
v -0.204010 -0.323630 -7.046565
v -0.224507 -0.322018 -7.046580
v -0.224549 -0.313386 -7.067070
v -0.224589 -0.292547 -7.075558
v -0.294918 -0.279768 -7.075558
v -0.274850 -0.284586 -7.075558
v -0.281317 -0.304395 -7.067062
v -0.284015 -0.312593 -7.046550
v -0.304018 -0.307792 -7.046565
v -0.323013 -0.299926 -7.046580
v -0.320386 -0.291703 -7.067070
v -0.313984 -0.271871 -7.075558
v -0.376922 -0.237985 -7.075558
v -0.359325 -0.248768 -7.075558
v -0.371597 -0.265609 -7.067062
v -0.376696 -0.272572 -7.046550
v -0.394236 -0.261825 -7.046565
v -0.409871 -0.248474 -7.046580
v -0.404831 -0.241466 -7.067070
v -0.392615 -0.224582 -7.075558
v -0.442000 -0.172906 -7.075558
v -0.428597 -0.188599 -7.075558
v -0.445472 -0.200823 -7.067062
v -0.452474 -0.205870 -7.046550
v -0.465835 -0.190229 -7.046565
v -0.476578 -0.172700 -7.046580
v -0.469620 -0.167592 -7.067070
v -0.452784 -0.155310 -7.075558
v -0.483784 -0.090902 -7.075558
v -0.475886 -0.109969 -7.075558
v -0.495712 -0.116380 -7.067062
v -0.503931 -0.119016 -7.046550
v -0.511804 -0.100012 -7.046565
v -0.516605 -0.080021 -7.046580
v -0.508409 -0.077313 -7.067070
v -0.488601 -0.070835 -7.075558
v -0.498181 0.000000 -7.075558
v -0.496562 -0.020574 -7.075558
v -0.517399 -0.020545 -7.067062
v -0.526030 -0.020512 -7.046550
v -0.527645 -0.000005 -7.046565
v -0.526034 0.020491 -7.046580
v -0.517402 0.020534 -7.067070
v -0.496562 0.020574 -7.075558
v -0.483784 0.090902 -7.075558
v -0.488601 0.070835 -7.075558
v -0.508410 0.077302 -7.067062
v -0.516608 0.080000 -7.046550
v -0.511807 0.100002 -7.046565
v -0.503941 0.118998 -7.046580
v -0.495718 0.116370 -7.067070
v -0.475886 0.109969 -7.075558
v -0.442000 0.172906 -7.075558
v -0.452784 0.155310 -7.075558
v -0.469624 0.167581 -7.067062
v -0.476588 0.172681 -7.046550
v -0.465841 0.190221 -7.046565
v -0.452489 0.205855 -7.046580
v -0.445481 0.200816 -7.067070
v -0.428597 0.188599 -7.075558
v -0.376922 0.237985 -7.075558
v -0.392614 0.224582 -7.075558
v -0.404839 0.241457 -7.067062
v -0.409885 0.248459 -7.046550
v -0.394244 0.261819 -7.046565
v -0.376715 0.272563 -7.046580
v -0.371607 0.265604 -7.067070
v -0.359325 0.248768 -7.075558
v -0.294918 0.279768 -7.075558
v -0.313984 0.271871 -7.075558
v -0.320395 0.291697 -7.067062
v -0.323031 0.299916 -7.046550
v -0.304027 0.307789 -7.046565
v -0.284036 0.312590 -7.046580
v -0.281328 0.304393 -7.067070
v -0.274850 0.284586 -7.075558
v -0.204015 0.294166 -7.075558
v -0.224589 0.292547 -7.075558
v -0.224560 0.313384 -7.067062
v -0.224527 0.322015 -7.046550
v -0.204020 0.323630 -7.046565
v -0.183524 0.322018 -7.046580
v -0.183482 0.313386 -7.067070
v -0.183441 0.292547 -7.075558
v -0.113113 0.279768 -7.075558
v -0.133180 0.284586 -7.075558
v -0.126713 0.304394 -7.067062
v -0.124015 0.312593 -7.046550
v -0.104013 0.307792 -7.046565
v -0.085018 0.299925 -7.046580
v -0.087645 0.291703 -7.067070
v -0.094046 0.271871 -7.075558
v -0.031109 0.237985 -7.075558
v -0.048705 0.248768 -7.075558
v -0.036434 0.265609 -7.067062
v -0.031334 0.272572 -7.046550
v -0.013794 0.261825 -7.046565
v 0.001840 0.248474 -7.046580
v -0.003199 0.241465 -7.067070
v -0.015416 0.224582 -7.075558
v 0.033970 0.172906 -7.075558
v 0.020567 0.188599 -7.075558
v 0.037442 0.200823 -7.067062
v 0.044444 0.205870 -7.046550
v 0.057804 0.190229 -7.046565
v 0.068547 0.172700 -7.046580
v 0.061589 0.167592 -7.067070
v 0.044753 0.155310 -7.075558
v 0.075753 0.090902 -7.075558
v 0.067855 0.109969 -7.075558
v 0.087682 0.116380 -7.067062
v 0.095901 0.119016 -7.046550
v 0.103774 0.100012 -7.046565
v 0.108574 0.080021 -7.046580
v 0.100378 0.077313 -7.067070
v 0.080571 0.070835 -7.075558
v 0.090151 -0.000000 -7.075558
v 0.088531 0.020574 -7.075558
v 0.109369 0.020545 -7.067062
v 0.118000 0.020512 -7.046550
v 0.119615 0.000005 -7.046565
v 0.118003 -0.020491 -7.046580
v 0.109371 -0.020534 -7.067070
v 0.088531 -0.020574 -7.075558
v -0.089299 0.000000 -6.558950
v -0.074377 0.020533 -6.558950
v -0.094914 0.035449 -6.558950
v -0.087067 0.059588 -6.558950
v -0.111208 0.067429 -6.558950
v -0.111205 0.092811 -6.558950
v -0.136587 0.092807 -6.558950
v -0.144427 0.116948 -6.558950
v -0.168566 0.109102 -6.558950
v -0.183483 0.129638 -6.558950
v -0.204015 0.114716 -6.558950
v -0.224548 0.129638 -6.558950
v -0.239465 0.109102 -6.558950
v -0.263603 0.116948 -6.558950
v -0.271444 0.092807 -6.558950
v -0.296826 0.092811 -6.558950
v -0.296823 0.067429 -6.558950
v -0.320964 0.059588 -6.558950
v -0.313117 0.035449 -6.558950
v -0.333653 0.020533 -6.558950
v -0.318732 0.000000 -6.558950
v -0.333653 -0.020533 -6.558950
v -0.313117 -0.035449 -6.558950
v -0.320964 -0.059588 -6.558950
v -0.296823 -0.067429 -6.558950
v -0.296826 -0.092811 -6.558950
v -0.271444 -0.092807 -6.558950
v -0.263603 -0.116948 -6.558950
v -0.239465 -0.109102 -6.558950
v -0.224548 -0.129638 -6.558950
v -0.204015 -0.114716 -6.558950
v -0.183483 -0.129638 -6.558950
v -0.168566 -0.109102 -6.558950
v -0.144427 -0.116948 -6.558950
v -0.136587 -0.092807 -6.558950
v -0.111205 -0.092811 -6.558950
v -0.111208 -0.067429 -6.558950
v -0.087067 -0.059588 -6.558950
v -0.094913 -0.035449 -6.558950
v -0.074377 -0.020533 -6.558950
v -0.089299 0.000000 -7.075558
v -0.074377 -0.020533 -7.075558
v -0.094913 -0.035449 -7.075558
v -0.087067 -0.059588 -7.075558
v -0.111208 -0.067429 -7.075558
v -0.111205 -0.092811 -7.075558
v -0.136587 -0.092807 -7.075558
v -0.144427 -0.116948 -7.075558
v -0.168566 -0.109102 -7.075558
v -0.183483 -0.129638 -7.075558
v -0.204015 -0.114716 -7.075558
v -0.224548 -0.129638 -7.075558
v -0.239465 -0.109102 -7.075558
v -0.263603 -0.116948 -7.075558
v -0.271444 -0.092807 -7.075558
v -0.296826 -0.092811 -7.075558
v -0.296823 -0.067429 -7.075558
v -0.320964 -0.059588 -7.075558
v -0.313117 -0.035449 -7.075558
v -0.333653 -0.020533 -7.075558
v -0.318732 0.000000 -7.075558
v -0.333653 0.020533 -7.075558
v -0.313117 0.035449 -7.075558
v -0.320964 0.059588 -7.075558
v -0.296823 0.067429 -7.075558
v -0.296826 0.092811 -7.075558
v -0.271444 0.092807 -7.075558
v -0.263603 0.116948 -7.075558
v -0.239465 0.109102 -7.075558
v -0.224548 0.129638 -7.075558
v -0.204015 0.114716 -7.075558
v -0.183483 0.129638 -7.075558
v -0.168566 0.109102 -7.075558
v -0.144427 0.116948 -7.075558
v -0.136587 0.092807 -7.075558
v -0.111205 0.092811 -7.075558
v -0.111208 0.067429 -7.075558
v -0.087067 0.059588 -7.075558
v -0.094914 0.035449 -7.075558
v -0.074377 0.020533 -7.075558
v 0.095568 -0.097342 -6.567442
v 0.050825 -0.185154 -6.567442
v -0.018864 -0.254842 -6.567442
v -0.106676 -0.299584 -6.567442
v -0.204017 -0.315001 -6.567442
v -0.301358 -0.299583 -6.567442
v -0.389170 -0.254840 -6.567442
v -0.458857 -0.185152 -6.567442
v -0.503600 -0.097339 -6.567442
v -0.519016 0.000002 -6.567442
v -0.503598 0.097342 -6.567442
v -0.458855 0.185154 -6.567442
v -0.389167 0.254842 -6.567442
v -0.301354 0.299584 -6.567442
v -0.204014 0.315001 -6.567442
v -0.106673 0.299583 -6.567442
v -0.018861 0.254840 -6.567442
v 0.050827 0.185151 -6.567442
v 0.095569 0.097339 -6.567442
v 0.110986 -0.000002 -6.567442
v 0.095569 -0.097339 -7.067066
v 0.050827 -0.185152 -7.067066
v -0.018861 -0.254840 -7.067066
v -0.106673 -0.299583 -7.067066
v -0.204013 -0.315001 -7.067066
v -0.301354 -0.299584 -7.067066
v -0.389167 -0.254842 -7.067066
v -0.458855 -0.185154 -7.067066
v -0.503598 -0.097342 -7.067066
v -0.519016 -0.000002 -7.067066
v -0.503600 0.097339 -7.067066
v -0.458857 0.185151 -7.067066
v -0.389170 0.254840 -7.067066
v -0.301358 0.299583 -7.067066
v -0.204017 0.315001 -7.067066
v -0.106676 0.299584 -7.067066
v -0.018864 0.254842 -7.067066
v 0.050825 0.185154 -7.067066
v 0.095568 0.097342 -7.067066
v 0.110986 0.000002 -7.067066
v -0.204015 0.000000 -6.558950
v -0.204015 0.000000 -7.075558
vt 0.630601 0.103423
vt 0.377551 0.333557
vt 0.622451 0.333535
vt 0.619503 0.081642
vt 0.556180 0.127625
vt 0.607885 0.065651
vt 0.390051 0.333557
vt 0.590599 0.048365
vt 0.544584 0.111666
vt 0.574608 0.036747
vt 0.402551 0.333557
vt 0.552827 0.025649
vt 0.528625 0.100070
vt 0.534028 0.019541
vt 0.415051 0.333557
vt 0.509883 0.015717
vt 0.509863 0.093974
vt 0.490117 0.015717
vt 0.427551 0.333557
vt 0.465972 0.019541
vt 0.490137 0.093974
vt 0.447173 0.025649
vt 0.440051 0.333557
vt 0.425392 0.036747
vt 0.471375 0.100070
vt 0.409401 0.048365
vt 0.452551 0.333557
vt 0.392115 0.065651
vt 0.455416 0.111666
vt 0.380497 0.081642
vt 0.465051 0.333557
vt 0.369399 0.103423
vt 0.443820 0.127625
vt 0.363291 0.122222
vt 0.477551 0.333557
vt 0.359467 0.146367
vt 0.437725 0.146387
vt 0.359467 0.166133
vt 0.490051 0.333557
vt 0.363291 0.190278
vt 0.437725 0.166113
vt 0.369399 0.209077
vt 0.502551 0.333557
vt 0.380497 0.230858
vt 0.443820 0.184875
vt 0.392115 0.246849
vt 0.515051 0.333557
vt 0.409401 0.264135
vt 0.455416 0.200834
vt 0.425392 0.275753
vt 0.527551 0.333557
vt 0.447173 0.286851
vt 0.471375 0.212430
vt 0.465972 0.292959
vt 0.540051 0.333557
vt 0.490117 0.296783
vt 0.490137 0.218525
vt 0.509883 0.296783
vt 0.552551 0.333557
vt 0.534028 0.292959
vt 0.509863 0.218526
vt 0.552827 0.286851
vt 0.565051 0.333557
vt 0.574608 0.275753
vt 0.528625 0.212430
vt 0.590599 0.264135
vt 0.577551 0.333557
vt 0.607885 0.246849
vt 0.544584 0.200834
vt 0.619503 0.230858
vt 0.590051 0.333557
vt 0.630601 0.209077
vt 0.556180 0.184875
vt 0.636709 0.190278
vt 0.602551 0.333557
vt 0.562276 0.146387
vt 0.640533 0.166133
vt 0.562276 0.166113
vt 0.615051 0.333557
vt 0.615048 0.666465
vt 0.636709 0.877778
vt 0.377548 0.666465
vt 0.384949 0.666443
vt 0.556180 0.872375
vt 0.390048 0.666465
vt 0.397449 0.666443
vt 0.544584 0.888334
vt 0.402548 0.666465
vt 0.409949 0.666443
vt 0.528625 0.899929
vt 0.415048 0.666465
vt 0.422449 0.666443
vt 0.509863 0.906025
vt 0.427548 0.666465
vt 0.434949 0.666443
vt 0.490137 0.906026
vt 0.440048 0.666465
vt 0.447449 0.666443
vt 0.471375 0.899930
vt 0.452548 0.666465
vt 0.459949 0.666443
vt 0.455416 0.888334
vt 0.465048 0.666465
vt 0.472449 0.666443
vt 0.443820 0.872375
vt 0.477548 0.666465
vt 0.484949 0.666443
vt 0.437725 0.853613
vt 0.490048 0.666465
vt 0.497449 0.666443
vt 0.437725 0.833887
vt 0.502548 0.666465
vt 0.509949 0.666443
vt 0.443820 0.815125
vt 0.515048 0.666465
vt 0.522449 0.666443
vt 0.455416 0.799166
vt 0.527548 0.666465
vt 0.534949 0.666443
vt 0.471375 0.787570
vt 0.540048 0.666465
vt 0.547449 0.666443
vt 0.490137 0.781475
vt 0.552548 0.666465
vt 0.559949 0.666443
vt 0.509863 0.781474
vt 0.565048 0.666465
vt 0.572449 0.666443
vt 0.528625 0.787570
vt 0.577548 0.666465
vt 0.584949 0.666443
vt 0.544584 0.799166
vt 0.590048 0.666465
vt 0.597449 0.666443
vt 0.556180 0.815125
vt 0.602548 0.666465
vt 0.609949 0.666443
vt 0.562276 0.833887
vt 0.640533 0.853633
vt 0.562276 0.853613
vt 0.384952 0.333536
vt 0.397452 0.333535
vt 0.409952 0.333536
vt 0.422452 0.333535
vt 0.434952 0.333535
vt 0.447452 0.333535
vt 0.459952 0.333535
vt 0.472452 0.333535
vt 0.484952 0.333535
vt 0.497452 0.333535
vt 0.509951 0.333535
vt 0.522452 0.333535
vt 0.534951 0.333535
vt 0.547451 0.333535
vt 0.559951 0.333535
vt 0.572451 0.333535
vt 0.584951 0.333535
vt 0.597451 0.333535
vt 0.609951 0.333535
vt 0.622449 0.666443
vt 0.636709 0.122222
vt 0.640533 0.146367
vt 0.630601 0.896577
vt 0.619503 0.918358
vt 0.607885 0.934349
vt 0.590599 0.951635
vt 0.574608 0.963253
vt 0.552827 0.974351
vt 0.534028 0.980459
vt 0.509883 0.984283
vt 0.490117 0.984283
vt 0.465972 0.980459
vt 0.447173 0.974351
vt 0.425392 0.963253
vt 0.409401 0.951635
vt 0.392115 0.934349
vt 0.380497 0.918358
vt 0.369399 0.896577
vt 0.363291 0.877778
vt 0.359467 0.853633
vt 0.359467 0.833867
vt 0.363291 0.809722
vt 0.369399 0.790923
vt 0.380497 0.769142
vt 0.392115 0.753151
vt 0.409401 0.735865
vt 0.425392 0.724247
vt 0.447173 0.713149
vt 0.465972 0.707041
vt 0.490117 0.703217
vt 0.509883 0.703217
vt 0.534028 0.707041
vt 0.552827 0.713149
vt 0.574608 0.724247
vt 0.590599 0.735865
vt 0.607885 0.753151
vt 0.619503 0.769142
vt 0.630601 0.790923
vt 0.636709 0.809722
vt 0.640533 0.833867
vt 0.634704 0.112482
vt 0.377610 0.312500
vt 0.643968 0.098870
vt 0.625000 0.328653
vt 0.375000 0.328653
vt 0.650199 0.118045
vt 0.622391 0.312500
vt 0.614586 0.072999
vt 0.390110 0.312500
vt 0.619191 0.057190
vt 0.387501 0.333429
vt 0.631042 0.073501
vt 0.384891 0.312500
vt 0.583251 0.041664
vt 0.402610 0.312500
vt 0.582746 0.025207
vt 0.400001 0.333429
vt 0.599057 0.037057
vt 0.397391 0.312500
vt 0.543768 0.021547
vt 0.415110 0.312500
vt 0.538201 0.006050
vt 0.412501 0.333429
vt 0.557376 0.012280
vt 0.409891 0.312500
vt 0.500000 0.014614
vt 0.427610 0.312500
vt 0.489917 0.001597
vt 0.425001 0.333429
vt 0.510079 0.001596
vt 0.422391 0.312500
vt 0.456232 0.021546
vt 0.440110 0.312500
vt 0.442620 0.012282
vt 0.437501 0.333429
vt 0.461795 0.006051
vt 0.434891 0.312500
vt 0.416749 0.041664
vt 0.452610 0.312500
vt 0.400940 0.037059
vt 0.450001 0.333429
vt 0.417251 0.025208
vt 0.447391 0.312500
vt 0.385414 0.072999
vt 0.465110 0.312500
vt 0.368957 0.073504
vt 0.462500 0.333429
vt 0.380807 0.057193
vt 0.459891 0.312500
vt 0.365297 0.112482
vt 0.477610 0.312500
vt 0.349800 0.118049
vt 0.475001 0.333429
vt 0.356030 0.098874
vt 0.472391 0.312500
vt 0.358364 0.156250
vt 0.490110 0.312500
vt 0.345347 0.166333
vt 0.487501 0.333429
vt 0.345346 0.146171
vt 0.484891 0.312500
vt 0.365297 0.200018
vt 0.502610 0.312500
vt 0.356032 0.213630
vt 0.500000 0.333429
vt 0.349801 0.194455
vt 0.497391 0.312500
vt 0.385414 0.239501
vt 0.515110 0.312500
vt 0.380809 0.255310
vt 0.512501 0.333429
vt 0.368958 0.238999
vt 0.509891 0.312500
vt 0.416749 0.270836
vt 0.527610 0.312500
vt 0.417254 0.287293
vt 0.525000 0.333429
vt 0.400943 0.275443
vt 0.522391 0.312500
vt 0.456232 0.290953
vt 0.540110 0.312500
vt 0.461799 0.306450
vt 0.537500 0.333429
vt 0.442624 0.300220
vt 0.534891 0.312500
vt 0.500000 0.297885
vt 0.552610 0.312500
vt 0.510083 0.310903
vt 0.550000 0.333429
vt 0.489921 0.310904
vt 0.547391 0.312500
vt 0.543768 0.290954
vt 0.565110 0.312500
vt 0.557379 0.300218
vt 0.562500 0.333429
vt 0.538205 0.306449
vt 0.559891 0.312500
vt 0.583251 0.270836
vt 0.577610 0.312500
vt 0.599060 0.275441
vt 0.575000 0.333429
vt 0.582749 0.287292
vt 0.572391 0.312500
vt 0.614586 0.239501
vt 0.590110 0.312500
vt 0.631043 0.238996
vt 0.587500 0.333429
vt 0.619193 0.255307
vt 0.584891 0.312500
vt 0.634703 0.200018
vt 0.602610 0.312500
vt 0.650200 0.194451
vt 0.600000 0.333429
vt 0.643970 0.213626
vt 0.597391 0.312500
vt 0.641636 0.156250
vt 0.615110 0.312500
vt 0.654653 0.146167
vt 0.612500 0.333429
vt 0.654654 0.166329
vt 0.609891 0.312500
vt 0.634703 0.887518
vt 0.622390 0.687500
vt 0.650200 0.881951
vt 0.375000 0.671347
vt 0.625000 0.671347
vt 0.643970 0.901126
vt 0.377609 0.687500
vt 0.614586 0.927001
vt 0.384890 0.687500
vt 0.631043 0.926496
vt 0.387499 0.666571
vt 0.619193 0.942807
vt 0.390109 0.687500
vt 0.583251 0.958336
vt 0.397390 0.687500
vt 0.599060 0.962941
vt 0.399999 0.666571
vt 0.582749 0.974792
vt 0.402609 0.687500
vt 0.543768 0.978453
vt 0.409890 0.687500
vt 0.557379 0.987718
vt 0.412499 0.666571
vt 0.538205 0.993949
vt 0.415109 0.687500
vt 0.500000 0.985385
vt 0.422390 0.687500
vt 0.510083 0.998403
vt 0.424999 0.666571
vt 0.489921 0.998404
vt 0.427609 0.687500
vt 0.456232 0.978453
vt 0.434890 0.687500
vt 0.461799 0.993950
vt 0.437499 0.666571
vt 0.442624 0.987720
vt 0.440109 0.687500
vt 0.416749 0.958336
vt 0.447390 0.687500
vt 0.417254 0.974793
vt 0.449999 0.666571
vt 0.400943 0.962943
vt 0.452609 0.687500
vt 0.385414 0.927001
vt 0.459890 0.687500
vt 0.380809 0.942810
vt 0.462499 0.666571
vt 0.368958 0.926499
vt 0.465109 0.687500
vt 0.365297 0.887518
vt 0.472390 0.687500
vt 0.356032 0.901130
vt 0.474999 0.666571
vt 0.349801 0.881955
vt 0.477609 0.687500
vt 0.358364 0.843750
vt 0.484890 0.687500
vt 0.345347 0.853833
vt 0.487499 0.666571
vt 0.345346 0.833671
vt 0.490109 0.687500
vt 0.365297 0.799982
vt 0.497390 0.687500
vt 0.349800 0.805549
vt 0.499999 0.666571
vt 0.356030 0.786374
vt 0.502609 0.687500
vt 0.385414 0.760499
vt 0.509890 0.687500
vt 0.368957 0.761004
vt 0.512499 0.666571
vt 0.380807 0.744693
vt 0.515109 0.687500
vt 0.416749 0.729164
vt 0.522390 0.687500
vt 0.400940 0.724559
vt 0.524999 0.666571
vt 0.417251 0.712708
vt 0.527609 0.687500
vt 0.456232 0.709047
vt 0.534890 0.687500
vt 0.442620 0.699782
vt 0.537499 0.666571
vt 0.461795 0.693551
vt 0.540109 0.687500
vt 0.500000 0.702114
vt 0.547390 0.687500
vt 0.489917 0.689097
vt 0.549999 0.666571
vt 0.510079 0.689096
vt 0.552609 0.687500
vt 0.543768 0.709046
vt 0.559890 0.687500
vt 0.538201 0.693550
vt 0.562499 0.666571
vt 0.557376 0.699780
vt 0.565109 0.687500
vt 0.583251 0.729164
vt 0.572390 0.687500
vt 0.582746 0.712707
vt 0.574999 0.666571
vt 0.599057 0.724557
vt 0.577609 0.687500
vt 0.614586 0.760499
vt 0.584890 0.687500
vt 0.619191 0.744690
vt 0.587499 0.666571
vt 0.631042 0.761001
vt 0.590109 0.687500
vt 0.634703 0.799982
vt 0.597390 0.687500
vt 0.643968 0.786370
vt 0.599999 0.666571
vt 0.650199 0.805545
vt 0.602609 0.687500
vt 0.641636 0.843750
vt 0.609890 0.687500
vt 0.654653 0.833667
vt 0.612499 0.666571
vt 0.654654 0.853829
vt 0.615109 0.687500
vt 0.555102 0.156250
vt 0.552405 0.173277
vt 0.544578 0.188638
vt 0.532388 0.200828
vt 0.517027 0.208655
vt 0.500000 0.211352
vt 0.482973 0.208655
vt 0.467612 0.200828
vt 0.455422 0.188638
vt 0.447595 0.173277
vt 0.444898 0.156250
vt 0.447595 0.139223
vt 0.455422 0.123862
vt 0.467612 0.111672
vt 0.482973 0.103845
vt 0.500000 0.101148
vt 0.517027 0.103845
vt 0.532388 0.111672
vt 0.544578 0.123862
vt 0.552405 0.139223
vt 0.555102 0.843750
vt 0.552405 0.860777
vt 0.544578 0.876138
vt 0.532388 0.888328
vt 0.517027 0.896155
vt 0.500000 0.898852
vt 0.482973 0.896155
vt 0.467612 0.888328
vt 0.455422 0.876138
vt 0.447595 0.860777
vt 0.444898 0.843750
vt 0.447595 0.826723
vt 0.455422 0.811362
vt 0.467612 0.799172
vt 0.482973 0.791345
vt 0.500000 0.788648
vt 0.517027 0.791345
vt 0.532388 0.799172
vt 0.544578 0.811362
vt 0.552405 0.826723
vt 0.375000 0.312500
vt 0.625000 0.312500
vt 0.648603 0.107966
vt 0.387500 0.312500
vt 0.626409 0.064408
vt 0.400000 0.312500
vt 0.591842 0.029841
vt 0.412500 0.312500
vt 0.548284 0.007647
vt 0.425000 0.312500
vt 0.500000 -0.000000
vt 0.437500 0.312500
vt 0.451716 0.007647
vt 0.450000 0.312500
vt 0.408159 0.029841
vt 0.462500 0.312500
vt 0.373591 0.064409
vt 0.475000 0.312500
vt 0.351397 0.107966
vt 0.487500 0.312500
vt 0.343750 0.156250
vt 0.500000 0.312500
vt 0.351397 0.204534
vt 0.512500 0.312500
vt 0.373591 0.248091
vt 0.525000 0.312500
vt 0.408159 0.282659
vt 0.537500 0.312500
vt 0.451716 0.304853
vt 0.550000 0.312500
vt 0.500000 0.312500
vt 0.562500 0.312500
vt 0.548284 0.304853
vt 0.575000 0.312500
vt 0.591841 0.282659
vt 0.587500 0.312500
vt 0.626409 0.248091
vt 0.600000 0.312500
vt 0.648603 0.204534
vt 0.612500 0.312500
vt 0.656250 0.156250
vt 0.625000 0.687500
vt 0.375000 0.687500
vt 0.648603 0.892034
vt 0.387500 0.687500
vt 0.626409 0.935591
vt 0.400000 0.687500
vt 0.591841 0.970159
vt 0.412500 0.687500
vt 0.548284 0.992353
vt 0.425000 0.687500
vt 0.500000 1.000000
vt 0.437500 0.687500
vt 0.451716 0.992353
vt 0.450000 0.687500
vt 0.408159 0.970159
vt 0.462500 0.687500
vt 0.373591 0.935591
vt 0.475000 0.687500
vt 0.351397 0.892034
vt 0.487500 0.687500
vt 0.343750 0.843750
vt 0.500000 0.687500
vt 0.351397 0.795466
vt 0.512500 0.687500
vt 0.373591 0.751909
vt 0.525000 0.687500
vt 0.408159 0.717341
vt 0.537500 0.687500
vt 0.451716 0.695147
vt 0.550000 0.687500
vt 0.500000 0.687500
vt 0.562500 0.687500
vt 0.548284 0.695147
vt 0.575000 0.687500
vt 0.591842 0.717341
vt 0.587500 0.687500
vt 0.626409 0.751908
vt 0.600000 0.687500
vt 0.648603 0.795466
vt 0.612500 0.687500
vt 0.656250 0.843750
vt 0.500000 0.156250
vt 0.500000 0.843750
vn 0.066604 -0.032299 0.997257
vn 0.045701 -0.014864 0.998845
vn 0.000000 -0.000000 1.000000
vn 0.000000 -0.000000 1.000000
vn 0.072865 -0.013005 0.997257
vn 0.000000 -0.000000 1.000000
vn 0.899787 -0.435990 0.017202
vn 0.830521 -0.402792 0.384699
vn 0.814065 -0.435051 0.384745
vn 0.881608 -0.471668 0.017227
vn 0.342951 -0.164526 0.924833
vn 0.065280 -0.034885 0.997257
vn 0.334650 -0.180684 0.924858
vn 0.984213 -0.176149 0.017227
vn 0.950916 -0.308940 0.017749
vn 0.950898 -0.308994 -0.017749
vn 0.984212 -0.176156 -0.017202
vn 0.899784 -0.435996 -0.017227
vn 0.374105 -0.068426 0.924858
vn 0.377007 -0.050494 0.924833
vn 0.073325 -0.010136 0.997257
vn 0.908661 -0.162196 0.384745
vn 0.990477 -0.136601 0.017202
vn 0.914342 -0.126431 0.384699
vn 0.053363 -0.051299 0.997257
vn 0.038871 -0.028259 0.998845
vn 0.000000 -0.000000 1.000000
vn 0.000000 -0.000000 1.000000
vn 0.721019 -0.692701 0.017202
vn 0.665403 -0.639723 0.384699
vn 0.639784 -0.665318 0.384745
vn 0.692706 -0.721014 0.017227
vn 0.275325 -0.262450 0.924833
vn 0.051305 -0.053350 0.997257
vn 0.262437 -0.275252 0.924858
vn 0.808906 -0.587670 0.017749
vn 0.808873 -0.587716 -0.017749
vn 0.881605 -0.471674 -0.017202
vn 0.721014 -0.692706 -0.017227
vn 0.034899 -0.065279 0.997257
vn 0.028236 -0.038887 0.998845
vn 0.000000 -0.000000 1.000000
vn 0.000000 -0.000000 1.000000
vn 0.471673 -0.881606 0.017202
vn 0.435150 -0.814034 0.384699
vn 0.402875 -0.830459 0.384745
vn 0.435996 -0.899784 0.017227
vn 0.180748 -0.334685 0.924833
vn 0.032308 -0.066593 0.997257
vn 0.164535 -0.342878 0.924858
vn 0.587716 -0.808872 0.017749
vn 0.587670 -0.808906 -0.017749
vn 0.692701 -0.721019 -0.017202
vn 0.471667 -0.881608 -0.017227
vn 0.013019 -0.072868 0.997257
vn 0.014837 -0.045709 0.998845
vn 0.000000 -0.000000 1.000000
vn 0.000000 -0.000000 1.000000
vn 0.176157 -0.984212 0.017202
vn 0.162302 -0.908661 0.384699
vn 0.126532 -0.914309 0.384745
vn 0.136609 -0.990475 0.017227
vn 0.068478 -0.374159 0.924833
vn 0.010148 -0.073318 0.997257
vn 0.050527 -0.376941 0.924858
vn 0.308995 -0.950898 0.017749
vn 0.308941 -0.950916 -0.017749
vn 0.435990 -0.899787 -0.017202
vn 0.176150 -0.984213 -0.017227
vn -0.010136 -0.073325 0.997257
vn -0.000014 -0.048057 0.998845
vn 0.000000 -0.000000 1.000000
vn 0.000000 -0.000000 1.000000
vn -0.136602 -0.990477 0.017202
vn -0.126433 -0.914342 0.384698
vn -0.162198 -0.908660 0.384745
vn -0.176150 -0.984213 0.017227
vn -0.050495 -0.377007 0.924833
vn -0.013005 -0.072865 0.997257
vn -0.068427 -0.374106 0.924858
vn 0.000029 -0.999842 0.017749
vn -0.000029 -0.999842 -0.017749
vn 0.136602 -0.990477 -0.017202
vn -0.136609 -0.990475 -0.017227
vn -0.032298 -0.066604 0.997257
vn -0.014864 -0.045701 0.998845
vn 0.000000 -0.000000 1.000000
vn 0.000000 -0.000000 1.000000
vn -0.435991 -0.899786 0.017202
vn -0.402792 -0.830521 0.384698
vn -0.435051 -0.814065 0.384744
vn -0.471668 -0.881608 0.017227
vn -0.164525 -0.342951 0.924833
vn -0.034885 -0.065280 0.997257
vn -0.180683 -0.334650 0.924858
vn -0.308941 -0.950916 0.017749
vn -0.308995 -0.950898 -0.017749
vn -0.176157 -0.984212 -0.017202
vn -0.435997 -0.899783 -0.017227
vn -0.051299 -0.053363 0.997257
vn -0.028259 -0.038870 0.998845
vn 0.000000 -0.000000 1.000000
vn 0.000000 -0.000000 1.000000
vn -0.692701 -0.721019 0.017202
vn -0.639724 -0.665402 0.384699
vn -0.665318 -0.639784 0.384745
vn -0.721014 -0.692706 0.017227
vn -0.262450 -0.275325 0.924833
vn -0.053350 -0.051305 0.997257
vn -0.275252 -0.262438 0.924858
vn -0.587670 -0.808906 0.017749
vn -0.587716 -0.808872 -0.017749
vn -0.471674 -0.881605 -0.017202
vn -0.692706 -0.721014 -0.017227
vn -0.065279 -0.034899 0.997257
vn -0.038887 -0.028236 0.998845
vn 0.000000 -0.000000 1.000000
vn 0.000000 0.000001 1.000000
vn -0.881606 -0.471673 0.017202
vn -0.814034 -0.435150 0.384699
vn -0.830459 -0.402876 0.384745
vn -0.899783 -0.435997 0.017227
vn -0.334685 -0.180747 0.924833
vn -0.066593 -0.032307 0.997257
vn -0.342878 -0.164535 0.924858
vn -0.808873 -0.587715 0.017749
vn -0.808907 -0.587669 -0.017749
vn -0.721019 -0.692702 -0.017202
vn -0.881609 -0.471667 -0.017227
vn -0.072868 -0.013019 0.997257
vn -0.045709 -0.014837 0.998845
vn 0.000000 0.000000 1.000000
vn 0.000000 -0.000000 1.000000
vn -0.984212 -0.176157 0.017202
vn -0.908661 -0.162302 0.384698
vn -0.914310 -0.126531 0.384744
vn -0.990475 -0.136609 0.017227
vn -0.374159 -0.068478 0.924833
vn -0.073318 -0.010148 0.997257
vn -0.376941 -0.050527 0.924858
vn -0.950898 -0.308996 0.017749
vn -0.950915 -0.308941 -0.017749
vn -0.899787 -0.435991 -0.017202
vn -0.984213 -0.176150 -0.017227
vn -0.073325 0.010136 0.997257
vn -0.048057 0.000014 0.998845
vn 0.000000 -0.000000 1.000000
vn 0.000000 -0.000000 1.000000
vn -0.990477 0.136602 0.017202
vn -0.914342 0.126433 0.384700
vn -0.908660 0.162198 0.384746
vn -0.984213 0.176150 0.017227
vn -0.377007 0.050495 0.924833
vn -0.072865 0.013005 0.997257
vn -0.374106 0.068427 0.924858
vn -0.999842 -0.000028 0.017749
vn -0.999842 0.000028 -0.017749
vn -0.990477 -0.136602 -0.017202
vn -0.990475 0.136609 -0.017227
vn -0.066604 0.032298 0.997257
vn -0.045701 0.014864 0.998845
vn 0.000000 -0.000000 1.000000
vn 0.000000 -0.000000 1.000000
vn -0.899787 0.435991 0.017202
vn -0.830521 0.402793 0.384698
vn -0.814065 0.435051 0.384745
vn -0.881608 0.471667 0.017227
vn -0.342951 0.164525 0.924833
vn -0.065280 0.034885 0.997257
vn -0.334650 0.180683 0.924858
vn -0.950915 0.308941 0.017749
vn -0.950898 0.308996 -0.017749
vn -0.984212 0.176157 -0.017202
vn -0.899783 0.435997 -0.017227
vn -0.053363 0.051299 0.997257
vn -0.038871 0.028259 0.998845
vn 0.000000 -0.000000 1.000000
vn 0.000000 -0.000000 1.000000
vn -0.721019 0.692702 0.017202
vn -0.665402 0.639724 0.384698
vn -0.639784 0.665319 0.384744
vn -0.692706 0.721014 0.017227
vn -0.275325 0.262450 0.924833
vn -0.051305 0.053350 0.997257
vn -0.262437 0.275252 0.924858
vn -0.808906 0.587670 0.017749
vn -0.808873 0.587716 -0.017749
vn -0.881605 0.471674 -0.017202
vn -0.721014 0.692707 -0.017227
vn -0.034899 0.065279 0.997257
vn -0.028236 0.038887 0.998845
vn 0.000000 -0.000000 1.000000
vn 0.000000 -0.000000 1.000000
vn -0.471673 0.881606 0.017202
vn -0.435150 0.814034 0.384698
vn -0.402876 0.830459 0.384745
vn -0.435997 0.899783 0.017227
vn -0.180748 0.334685 0.924833
vn -0.032308 0.066593 0.997257
vn -0.164535 0.342878 0.924859
vn -0.587716 0.808873 0.017749
vn -0.587670 0.808906 -0.017749
vn -0.692701 0.721020 -0.017202
vn -0.471667 0.881608 -0.017227
vn -0.013019 0.072868 0.997257
vn -0.014837 0.045709 0.998845
vn 0.000000 -0.000000 1.000000
vn 0.000000 -0.000000 1.000000
vn -0.176157 0.984212 0.017202
vn -0.162302 0.908661 0.384699
vn -0.126532 0.914309 0.384745
vn -0.136610 0.990475 0.017227
vn -0.068478 0.374159 0.924833
vn -0.010148 0.073317 0.997257
vn -0.050527 0.376941 0.924858
vn -0.308995 0.950898 0.017749
vn -0.308941 0.950916 -0.017749
vn -0.435991 0.899787 -0.017202
vn -0.176150 0.984213 -0.017227
vn 0.010136 0.073325 0.997257
vn 0.000014 0.048057 0.998845
vn 0.000000 -0.000000 1.000000
vn 0.000000 -0.000000 1.000000
vn 0.136603 0.990477 0.017202
vn 0.126433 0.914342 0.384699
vn 0.162198 0.908660 0.384745
vn 0.176150 0.984213 0.017227
vn 0.050495 0.377007 0.924833
vn 0.013005 0.072865 0.997257
vn 0.068427 0.374106 0.924858
vn -0.000028 0.999842 0.017749
vn 0.000028 0.999842 -0.017749
vn -0.136603 0.990477 -0.017202
vn 0.136610 0.990475 -0.017227
vn 0.032298 0.066604 0.997257
vn 0.014864 0.045701 0.998845
vn 0.000000 -0.000000 1.000000
vn 0.000000 -0.000000 1.000000
vn 0.435991 0.899787 0.017202
vn 0.402792 0.830521 0.384698
vn 0.435051 0.814066 0.384744
vn 0.471667 0.881608 0.017227
vn 0.164525 0.342951 0.924833
vn 0.034885 0.065280 0.997257
vn 0.180683 0.334650 0.924858
vn 0.308941 0.950916 0.017749
vn 0.308995 0.950898 -0.017749
vn 0.176157 0.984212 -0.017202
vn 0.435997 0.899783 -0.017227
vn 0.051299 0.053363 0.997257
vn 0.028259 0.038871 0.998845
vn 0.000000 -0.000000 1.000000
vn 0.000000 -0.000000 1.000000
vn 0.692701 0.721019 0.017202
vn 0.639724 0.665403 0.384698
vn 0.665318 0.639784 0.384744
vn 0.721014 0.692706 0.017227
vn 0.262451 0.275325 0.924833
vn 0.053350 0.051305 0.997257
vn 0.275253 0.262437 0.924858
vn 0.587669 0.808907 0.017749
vn 0.587715 0.808873 -0.017749
vn 0.471674 0.881605 -0.017202
vn 0.692706 0.721014 -0.017227
vn 0.065279 0.034899 0.997257
vn 0.038887 0.028236 0.998845
vn 0.000000 -0.000000 1.000000
vn 0.000000 -0.000000 1.000000
vn 0.881605 0.471674 0.017202
vn 0.814034 0.435150 0.384698
vn 0.830459 0.402876 0.384744
vn 0.899783 0.435997 0.017227
vn 0.334685 0.180748 0.924833
vn 0.066593 0.032308 0.997257
vn 0.342878 0.164535 0.924858
vn 0.808873 0.587715 0.017749
vn 0.808906 0.587669 -0.017749
vn 0.721020 0.692701 -0.017202
vn 0.881608 0.471667 -0.017227
vn 0.072868 0.013019 0.997257
vn 0.045709 0.014837 0.998845
vn 0.000000 -0.000000 1.000000
vn 0.000000 -0.000000 1.000000
vn 0.984212 0.176157 0.017202
vn 0.908661 0.162302 0.384700
vn 0.914309 0.126531 0.384746
vn 0.990475 0.136609 0.017227
vn 0.374158 0.068478 0.924833
vn 0.073318 0.010148 0.997257
vn 0.376941 0.050527 0.924858
vn 0.950898 0.308996 0.017749
vn 0.950915 0.308941 -0.017749
vn 0.899787 0.435991 -0.017202
vn 0.984213 0.176151 -0.017227
vn 0.048057 -0.000014 0.998845
vn 0.000000 -0.000000 1.000000
vn 0.999842 0.000029 0.017749
vn 0.999842 -0.000028 -0.017749
vn 0.990477 0.136603 -0.017202
vn 0.990475 -0.136607 -0.017227
vn 0.072868 -0.013018 -0.997257
vn 0.045709 -0.014837 -0.998845
vn 0.000000 0.000000 -1.000000
vn 0.000000 0.000000 -1.000000
vn 0.066593 -0.032308 -0.997257
vn 0.000000 0.000000 -1.000000
vn 0.908662 -0.162300 -0.384697
vn 0.914310 -0.126530 -0.384743
vn 0.374159 -0.068477 -0.924833
vn 0.073317 -0.010148 -0.997257
vn 0.376941 -0.050526 -0.924858
vn 0.342878 -0.164535 -0.924858
vn 0.334685 -0.180748 -0.924833
vn 0.065279 -0.034899 -0.997257
vn 0.830460 -0.402876 -0.384744
vn 0.814034 -0.435151 -0.384698
vn 0.038887 -0.028236 -0.998845
vn 0.000000 0.000000 -1.000000
vn 0.053350 -0.051305 -0.997257
vn 0.000000 0.000000 -1.000000
vn 0.275252 -0.262437 -0.924858
vn 0.262450 -0.275325 -0.924833
vn 0.051299 -0.053363 -0.997257
vn 0.665319 -0.639784 -0.384743
vn 0.639724 -0.665403 -0.384697
vn 0.028259 -0.038870 -0.998845
vn 0.000000 0.000000 -1.000000
vn 0.034885 -0.065280 -0.997257
vn 0.000000 0.000000 -1.000000
vn 0.180683 -0.334651 -0.924858
vn 0.164525 -0.342951 -0.924833
vn 0.032298 -0.066604 -0.997257
vn 0.435051 -0.814066 -0.384744
vn 0.402792 -0.830522 -0.384697
vn 0.014864 -0.045700 -0.998845
vn 0.000000 0.000000 -1.000000
vn 0.013005 -0.072865 -0.997257
vn 0.000000 0.000000 -1.000000
vn 0.068427 -0.374105 -0.924858
vn 0.050495 -0.377007 -0.924833
vn 0.010136 -0.073325 -0.997257
vn 0.162198 -0.908660 -0.384745
vn 0.126433 -0.914342 -0.384698
vn 0.000014 -0.048057 -0.998845
vn 0.000000 0.000000 -1.000000
vn -0.010148 -0.073318 -0.997257
vn 0.000000 0.000000 -1.000000
vn -0.050527 -0.376941 -0.924858
vn -0.068478 -0.374159 -0.924833
vn -0.013019 -0.072868 -0.997257
vn -0.126532 -0.914309 -0.384745
vn -0.162302 -0.908661 -0.384699
vn -0.014837 -0.045709 -0.998845
vn 0.000000 0.000000 -1.000000
vn -0.032308 -0.066593 -0.997257
vn 0.000000 0.000000 -1.000000
vn -0.164535 -0.342877 -0.924858
vn -0.180748 -0.334685 -0.924833
vn -0.034899 -0.065279 -0.997257
vn -0.402876 -0.830459 -0.384744
vn -0.435150 -0.814034 -0.384698
vn -0.028236 -0.038887 -0.998845
vn 0.000000 0.000000 -1.000000
vn -0.051305 -0.053350 -0.997257
vn 0.000000 0.000000 -1.000000
vn -0.262437 -0.275252 -0.924858
vn -0.275325 -0.262450 -0.924833
vn -0.053363 -0.051299 -0.997257
vn -0.639784 -0.665319 -0.384743
vn -0.665403 -0.639724 -0.384697
vn -0.038871 -0.028259 -0.998845
vn 0.000000 0.000000 -1.000000
vn -0.065280 -0.034885 -0.997257
vn 0.000000 0.000000 -1.000000
vn -0.334650 -0.180682 -0.924858
vn -0.342951 -0.164525 -0.924833
vn -0.066604 -0.032298 -0.997257
vn -0.814065 -0.435051 -0.384745
vn -0.830521 -0.402793 -0.384698
vn -0.045701 -0.014864 -0.998845
vn 0.000000 0.000000 -1.000000
vn -0.072865 -0.013005 -0.997257
vn 0.000000 0.000000 -1.000000
vn -0.374106 -0.068427 -0.924858
vn -0.377007 -0.050495 -0.924833
vn -0.073325 -0.010136 -0.997257
vn -0.908660 -0.162198 -0.384746
vn -0.914342 -0.126433 -0.384700
vn -0.048057 -0.000014 -0.998845
vn 0.000000 0.000000 -1.000000
vn -0.073318 0.010148 -0.997257
vn 0.000000 0.000000 -1.000000
vn -0.376941 0.050527 -0.924858
vn -0.374158 0.068478 -0.924833
vn -0.072868 0.013019 -0.997257
vn -0.914310 0.126531 -0.384743
vn -0.908662 0.162302 -0.384697
vn -0.045709 0.014837 -0.998845
vn 0.000000 0.000000 -1.000000
vn -0.066593 0.032308 -0.997257
vn 0.000000 0.000000 -1.000000
vn -0.342878 0.164535 -0.924858
vn -0.334685 0.180748 -0.924833
vn -0.065279 0.034899 -0.997257
vn -0.830459 0.402876 -0.384745
vn -0.814034 0.435150 -0.384699
vn -0.038887 0.028236 -0.998845
vn 0.000000 0.000000 -1.000000
vn -0.053350 0.051305 -0.997257
vn 0.000000 0.000000 -1.000000
vn -0.275252 0.262438 -0.924858
vn -0.262450 0.275325 -0.924833
vn -0.051299 0.053363 -0.997257
vn -0.665318 0.639784 -0.384745
vn -0.639723 0.665403 -0.384699
vn -0.028259 0.038870 -0.998845
vn 0.000000 0.000000 -1.000000
vn -0.034885 0.065280 -0.997257
vn 0.000000 0.000000 -1.000000
vn -0.180683 0.334651 -0.924858
vn -0.164525 0.342952 -0.924833
vn -0.032298 0.066604 -0.997257
vn -0.435051 0.814065 -0.384745
vn -0.402792 0.830521 -0.384699
vn -0.014864 0.045701 -0.998845
vn 0.000000 0.000000 -1.000000
vn -0.013005 0.072865 -0.997257
vn 0.000000 0.000000 -1.000000
vn -0.068427 0.374106 -0.924858
vn -0.050495 0.377007 -0.924833
vn -0.010136 0.073325 -0.997257
vn -0.162198 0.908660 -0.384745
vn -0.126433 0.914342 -0.384699
vn -0.000014 0.048057 -0.998845
vn 0.000000 0.000000 -1.000000
vn 0.010148 0.073317 -0.997257
vn 0.000000 0.000000 -1.000000
vn 0.050527 0.376940 -0.924858
vn 0.068478 0.374159 -0.924833
vn 0.013019 0.072868 -0.997257
vn 0.126532 0.914309 -0.384745
vn 0.162302 0.908661 -0.384698
vn 0.014837 0.045709 -0.998845
vn 0.000000 0.000000 -1.000000
vn 0.032308 0.066593 -0.997257
vn 0.000000 0.000000 -1.000000
vn 0.164535 0.342878 -0.924858
vn 0.180748 0.334685 -0.924833
vn 0.034899 0.065279 -0.997257
vn 0.402876 0.830459 -0.384744
vn 0.435151 0.814034 -0.384698
vn 0.028236 0.038887 -0.998845
vn 0.000000 0.000000 -1.000000
vn 0.051305 0.053350 -0.997257
vn 0.000000 0.000000 -1.000000
vn 0.262437 0.275252 -0.924858
vn 0.275325 0.262450 -0.924833
vn 0.053363 0.051299 -0.997257
vn 0.639784 0.665318 -0.384745
vn 0.665403 0.639723 -0.384699
vn 0.038871 0.028259 -0.998845
vn 0.000000 0.000000 -1.000000
vn 0.065280 0.034885 -0.997257
vn 0.000000 0.000000 -1.000000
vn 0.334651 0.180683 -0.924858
vn 0.342951 0.164525 -0.924833
vn 0.066604 0.032299 -0.997257
vn 0.814065 0.435050 -0.384746
vn 0.830521 0.402792 -0.384700
vn 0.045701 0.014864 -0.998845
vn 0.000000 0.000000 -1.000000
vn 0.072865 0.013005 -0.997257
vn 0.000000 0.000000 -1.000000
vn 0.374105 0.068427 -0.924859
vn 0.377007 0.050495 -0.924833
vn 0.073325 0.010136 -0.997257
vn 0.908660 0.162198 -0.384745
vn 0.914342 0.126433 -0.384699
vn 0.048057 0.000014 -0.998845
vn 0.000000 0.000000 -1.000000
vn 0.358918 -0.116741 0.926040
vn 0.876502 -0.285051 0.387929
vn 0.305276 -0.221939 0.926040
vn 0.745517 -0.541954 0.387931
vn 0.221752 -0.305413 0.926040
vn 0.541556 -0.745807 0.387930
vn 0.116520 -0.358990 0.926040
vn 0.284584 -0.876654 0.387930
vn -0.000116 -0.377426 0.926040
vn -0.000245 -0.921689 0.387929
vn -0.116741 -0.358918 0.926040
vn -0.285052 -0.876502 0.387930
vn -0.221939 -0.305275 0.926040
vn -0.541955 -0.745517 0.387930
vn -0.305412 -0.221751 0.926040
vn -0.745807 -0.541555 0.387931
vn -0.358989 -0.116521 0.926040
vn -0.876654 -0.284584 0.387929
vn -0.377426 0.000116 0.926040
vn -0.921689 0.000246 0.387930
vn -0.358917 0.116741 0.926040
vn -0.876503 0.285051 0.387929
vn -0.305276 0.221939 0.926040
vn -0.745517 0.541955 0.387930
vn -0.221752 0.305412 0.926040
vn -0.541556 0.745807 0.387929
vn -0.116521 0.358989 0.926040
vn -0.284583 0.876654 0.387930
vn 0.000116 0.377426 0.926040
vn 0.000246 0.921689 0.387931
vn 0.116741 0.358918 0.926040
vn 0.285052 0.876502 0.387930
vn 0.221939 0.305275 0.926040
vn 0.541955 0.745517 0.387929
vn 0.305412 0.221751 0.926040
vn 0.745807 0.541555 0.387930
vn 0.358988 0.116520 0.926040
vn 0.876654 0.284584 0.387929
vn 0.377427 -0.000115 0.926039
vn 0.921689 -0.000245 0.387930
vn 0.358989 -0.116520 -0.926040
vn 0.876655 -0.284581 -0.387928
vn 0.305412 -0.221752 -0.926040
vn 0.745807 -0.541556 -0.387929
vn 0.221939 -0.305276 -0.926040
vn 0.541954 -0.745517 -0.387930
vn 0.116741 -0.358918 -0.926040
vn 0.285052 -0.876502 -0.387930
vn 0.000116 -0.377426 -0.926040
vn 0.000245 -0.921689 -0.387929
vn -0.116521 -0.358989 -0.926040
vn -0.284583 -0.876654 -0.387930
vn -0.221751 -0.305412 -0.926040
vn -0.541556 -0.745807 -0.387930
vn -0.305276 -0.221938 -0.926040
vn -0.745518 -0.541954 -0.387929
vn -0.358918 -0.116741 -0.926040
vn -0.876502 -0.285051 -0.387930
vn -0.377426 -0.000116 -0.926040
vn -0.921689 -0.000246 -0.387930
vn -0.358989 0.116521 -0.926040
vn -0.876654 0.284584 -0.387930
vn -0.305412 0.221752 -0.926040
vn -0.745807 0.541555 -0.387930
vn -0.221939 0.305275 -0.926040
vn -0.541955 0.745517 -0.387930
vn -0.116741 0.358918 -0.926040
vn -0.285052 0.876502 -0.387930
vn -0.000116 0.377426 -0.926040
vn -0.000246 0.921689 -0.387931
vn 0.116521 0.358989 -0.926040
vn 0.284583 0.876654 -0.387931
vn 0.221752 0.305412 -0.926040
vn 0.541556 0.745807 -0.387930
vn 0.305276 0.221939 -0.926040
vn 0.745517 0.541955 -0.387930
vn 0.358917 0.116741 -0.926040
vn 0.876502 0.285052 -0.387930
vn 0.377427 0.000117 -0.926040
vn 0.921689 0.000247 -0.387931
vn 0.000000 -0.000000 1.000000
vn 0.000000 0.000000 -1.000000
s 1
g pCylinder3
usemtl initialShadingGroup
f 2/1/1 1/201/2 359/462/3 358/5/4
f 1/201/2 8/161/5 360/76/6 359/462/3
s 2
f 4/2/7 3/202/8 15/213/9 14/141/10
s 1
f 3/203/11 2/1/1 16/4/12 15/212/13
s 2
f 6/3/14 5/204/15 165/326/16 164/160/17
f 5/205/15 4/2/7 166/82/18 165/325/16
s 1
f 8/161/5 7/206/19 155/318/20 154/162/21
s 2
f 7/207/22 6/3/14 156/79/23 155/317/24
s 1
f 10/6/25 9/208/26 357/461/27 356/9/28
f 9/208/26 16/4/12 358/5/4 357/461/27
s 2
f 12/7/29 11/209/30 23/219/31 22/142/32
s 1
f 11/210/33 10/6/25 24/8/34 23/218/35
s 2
f 14/141/10 13/211/36 173/332/37 172/83/38
f 13/211/36 12/7/29 174/85/39 173/332/37
s 1
f 18/10/40 17/214/41 355/460/42 354/13/43
f 17/214/41 24/8/34 356/9/28 355/460/42
s 2
f 20/11/44 19/215/45 31/225/46 30/143/47
s 1
f 19/216/48 18/10/40 32/12/49 31/224/50
s 2
f 22/142/32 21/217/51 181/338/52 180/86/53
f 21/217/51 20/11/44 182/88/54 181/338/52
s 1
f 26/14/55 25/220/56 353/459/57 352/17/58
f 25/220/56 32/12/49 354/13/43 353/459/57
s 2
f 28/15/59 27/221/60 39/231/61 38/144/62
s 1
f 27/222/63 26/14/55 40/16/64 39/230/65
s 2
f 30/143/47 29/223/66 189/344/67 188/89/68
f 29/223/66 28/15/59 190/91/69 189/344/67
s 1
f 34/18/70 33/226/71 351/458/72 350/21/73
f 33/226/71 40/16/64 352/17/58 351/458/72
s 2
f 36/19/74 35/227/75 47/237/76 46/145/77
s 1
f 35/228/78 34/18/70 48/20/79 47/236/80
s 2
f 38/144/62 37/229/81 197/350/82 196/92/83
f 37/229/81 36/19/74 198/94/84 197/350/82
s 1
f 42/22/85 41/232/86 349/457/87 348/25/88
f 41/232/86 48/20/79 350/21/73 349/457/87
s 2
f 44/23/89 43/233/90 55/243/91 54/146/92
s 1
f 43/234/93 42/22/85 56/24/94 55/242/95
s 2
f 46/145/77 45/235/96 205/356/97 204/95/98
f 45/235/96 44/23/89 206/97/99 205/356/97
s 1
f 50/26/100 49/238/101 347/456/102 346/29/103
f 49/238/101 56/24/94 348/25/88 347/456/102
s 2
f 52/27/104 51/239/105 63/249/106 62/147/107
s 1
f 51/240/108 50/26/100 64/28/109 63/248/110
s 2
f 54/146/92 53/241/111 213/362/112 212/98/113
f 53/241/111 52/27/104 214/100/114 213/362/112
s 1
f 58/30/115 57/244/116 345/455/117 344/33/118
f 57/244/116 64/28/109 346/29/103 345/455/117
s 2
f 60/31/119 59/245/120 71/255/121 70/148/122
s 1
f 59/246/123 58/30/115 72/32/124 71/254/125
s 2
f 62/147/107 61/247/126 221/368/127 220/101/128
f 61/247/126 60/31/119 222/103/129 221/368/127
s 1
f 66/34/130 65/250/131 343/454/132 342/37/133
f 65/250/131 72/32/124 344/33/118 343/454/132
s 2
f 68/35/134 67/251/135 79/261/136 78/149/137
s 1
f 67/252/138 66/34/130 80/36/139 79/260/140
s 2
f 70/148/122 69/253/141 229/374/142 228/104/143
f 69/253/141 68/35/134 230/106/144 229/374/142
s 1
f 74/38/145 73/256/146 341/453/147 340/41/148
f 73/256/146 80/36/139 342/37/133 341/453/147
s 2
f 76/39/149 75/257/150 87/267/151 86/150/152
s 1
f 75/258/153 74/38/145 88/40/154 87/266/155
s 2
f 78/149/137 77/259/156 237/380/157 236/107/158
f 77/259/156 76/39/149 238/109/159 237/380/157
s 1
f 82/42/160 81/262/161 339/452/162 338/45/163
f 81/262/161 88/40/154 340/41/148 339/452/162
s 2
f 84/43/164 83/263/165 95/273/166 94/151/167
s 1
f 83/264/168 82/42/160 96/44/169 95/272/170
s 2
f 86/150/152 85/265/171 245/386/172 244/110/173
f 85/265/171 84/43/164 246/112/174 245/386/172
s 1
f 90/46/175 89/268/176 337/451/177 336/49/178
f 89/268/176 96/44/169 338/45/163 337/451/177
s 2
f 92/47/179 91/269/180 103/279/181 102/152/182
s 1
f 91/270/183 90/46/175 104/48/184 103/278/185
s 2
f 94/151/167 93/271/186 253/392/187 252/113/188
f 93/271/186 92/47/179 254/115/189 253/392/187
s 1
f 98/50/190 97/274/191 335/450/192 334/53/193
f 97/274/191 104/48/184 336/49/178 335/450/192
s 2
f 100/51/194 99/275/195 111/285/196 110/153/197
s 1
f 99/276/198 98/50/190 112/52/199 111/284/200
s 2
f 102/152/182 101/277/201 261/398/202 260/116/203
f 101/277/201 100/51/194 262/118/204 261/398/202
s 1
f 106/54/205 105/280/206 333/449/207 332/57/208
f 105/280/206 112/52/199 334/53/193 333/449/207
s 2
f 108/55/209 107/281/210 119/291/211 118/154/212
s 1
f 107/282/213 106/54/205 120/56/214 119/290/215
s 2
f 110/153/197 109/283/216 269/404/217 268/119/218
f 109/283/216 108/55/209 270/121/219 269/404/217
s 1
f 114/58/220 113/286/221 331/448/222 330/61/223
f 113/286/221 120/56/214 332/57/208 331/448/222
s 2
f 116/59/224 115/287/225 127/297/226 126/155/227
s 1
f 115/288/228 114/58/220 128/60/229 127/296/230
s 2
f 118/154/212 117/289/231 277/410/232 276/122/233
f 117/289/231 116/59/224 278/124/234 277/410/232
s 1
f 122/62/235 121/292/236 329/447/237 328/65/238
f 121/292/236 128/60/229 330/61/223 329/447/237
s 2
f 124/63/239 123/293/240 135/303/241 134/156/242
s 1
f 123/294/243 122/62/235 136/64/244 135/302/245
s 2
f 126/155/227 125/295/246 285/416/247 284/125/248
f 125/295/246 124/63/239 286/127/249 285/416/247
s 1
f 130/66/250 129/298/251 327/446/252 326/69/253
f 129/298/251 136/64/244 328/65/238 327/446/252
s 2
f 132/67/254 131/299/255 143/309/256 142/157/257
s 1
f 131/300/258 130/66/250 144/68/259 143/308/260
s 2
f 134/156/242 133/301/261 293/422/262 292/128/263
f 133/301/261 132/67/254 294/130/264 293/422/262
s 1
f 138/70/265 137/304/266 325/445/267 324/73/268
f 137/304/266 144/68/259 326/69/253 325/445/267
s 2
f 140/71/269 139/305/270 151/315/271 150/158/272
s 1
f 139/306/273 138/70/265 152/72/274 151/314/275
s 2
f 142/157/257 141/307/276 301/428/277 300/131/278
f 141/307/276 140/71/269 302/133/279 301/428/277
s 1
f 146/74/280 145/310/281 323/444/282 322/78/283
f 145/310/281 152/72/274 324/73/268 323/444/282
s 2
f 148/75/284 147/311/285 159/321/286 158/159/287
s 1
f 147/312/288 146/74/280 160/77/289 159/320/290
s 2
f 150/158/272 149/313/291 309/434/292 308/134/293
f 149/313/291 148/75/284 310/136/294 309/434/292
s 1
f 154/162/21 153/316/295 321/443/296 360/76/6
f 153/316/295 160/77/289 322/78/283 321/443/296
s 2
f 158/159/287 157/319/297 317/440/298 316/137/299
f 157/319/297 156/79/23 318/80/300 317/440/298
s 40
f 162/81/301 161/322/302 363/464/303 362/140/304
f 161/322/302 168/163/305 364/84/306 363/464/303
s 2
f 164/160/17 163/323/307 319/442/308 318/80/300
s 40
f 163/324/309 162/81/301 320/139/310 319/441/311
f 168/163/305 167/327/312 171/331/313 170/164/314
s 2
f 167/328/315 166/82/18 172/83/38 171/330/316
s 40
f 170/164/314 169/329/317 365/465/318 364/84/306
f 169/329/317 176/165/319 366/87/320 365/465/318
f 176/165/319 175/333/321 179/337/322 178/166/323
s 2
f 175/334/324 174/85/39 180/86/53 179/336/325
s 40
f 178/166/323 177/335/326 367/466/327 366/87/320
f 177/335/326 184/167/328 368/90/329 367/466/327
f 184/167/328 183/339/330 187/343/331 186/168/332
s 2
f 183/340/333 182/88/54 188/89/68 187/342/334
s 40
f 186/168/332 185/341/335 369/467/336 368/90/329
f 185/341/335 192/169/337 370/93/338 369/467/336
f 192/169/337 191/345/339 195/349/340 194/170/341
s 2
f 191/346/342 190/91/69 196/92/83 195/348/343
s 40
f 194/170/341 193/347/344 371/468/345 370/93/338
f 193/347/344 200/171/346 372/96/347 371/468/345
f 200/171/346 199/351/348 203/355/349 202/172/350
s 2
f 199/352/351 198/94/84 204/95/98 203/354/352
s 40
f 202/172/350 201/353/353 373/469/354 372/96/347
f 201/353/353 208/173/355 374/99/356 373/469/354
f 208/173/355 207/357/357 211/361/358 210/174/359
s 2
f 207/358/360 206/97/99 212/98/113 211/360/361
s 40
f 210/174/359 209/359/362 375/470/363 374/99/356
f 209/359/362 216/175/364 376/102/365 375/470/363
f 216/175/364 215/363/366 219/367/367 218/176/368
s 2
f 215/364/369 214/100/114 220/101/128 219/366/370
s 40
f 218/176/368 217/365/371 377/471/372 376/102/365
f 217/365/371 224/177/373 378/105/374 377/471/372
f 224/177/373 223/369/375 227/373/376 226/178/377
s 2
f 223/370/378 222/103/129 228/104/143 227/372/379
s 40
f 226/178/377 225/371/380 379/472/381 378/105/374
f 225/371/380 232/179/382 380/108/383 379/472/381
f 232/179/382 231/375/384 235/379/385 234/180/386
s 2
f 231/376/387 230/106/144 236/107/158 235/378/388
s 40
f 234/180/386 233/377/389 381/473/390 380/108/383
f 233/377/389 240/181/391 382/111/392 381/473/390
f 240/181/391 239/381/393 243/385/394 242/182/395
s 2
f 239/382/396 238/109/159 244/110/173 243/384/397
s 40
f 242/182/395 241/383/398 383/474/399 382/111/392
f 241/383/398 248/183/400 384/114/401 383/474/399
f 248/183/400 247/387/402 251/391/403 250/184/404
s 2
f 247/388/405 246/112/174 252/113/188 251/390/406
s 40
f 250/184/404 249/389/407 385/475/408 384/114/401
f 249/389/407 256/185/409 386/117/410 385/475/408
f 256/185/409 255/393/411 259/397/412 258/186/413
s 2
f 255/394/414 254/115/189 260/116/203 259/396/415
s 40
f 258/186/413 257/395/416 387/476/417 386/117/410
f 257/395/416 264/187/418 388/120/419 387/476/417
f 264/187/418 263/399/420 267/403/421 266/188/422
s 2
f 263/400/423 262/118/204 268/119/218 267/402/424
s 40
f 266/188/422 265/401/425 389/477/426 388/120/419
f 265/401/425 272/189/427 390/123/428 389/477/426
f 272/189/427 271/405/429 275/409/430 274/190/431
s 2
f 271/406/432 270/121/219 276/122/233 275/408/433
s 40
f 274/190/431 273/407/434 391/478/435 390/123/428
f 273/407/434 280/191/436 392/126/437 391/478/435
f 280/191/436 279/411/438 283/415/439 282/192/440
s 2
f 279/412/441 278/124/234 284/125/248 283/414/442
s 40
f 282/192/440 281/413/443 393/479/444 392/126/437
f 281/413/443 288/193/445 394/129/446 393/479/444
f 288/193/445 287/417/447 291/421/448 290/194/449
s 2
f 287/418/450 286/127/249 292/128/263 291/420/451
s 40
f 290/194/449 289/419/452 395/480/453 394/129/446
f 289/419/452 296/195/454 396/132/455 395/480/453
f 296/195/454 295/423/456 299/427/457 298/196/458
s 2
f 295/424/459 294/130/264 300/131/278 299/426/460
s 40
f 298/196/458 297/425/461 397/481/462 396/132/455
f 297/425/461 304/197/463 398/135/464 397/481/462
f 304/197/463 303/429/465 307/433/466 306/198/467
s 2
f 303/430/468 302/133/279 308/134/293 307/432/469
s 40
f 306/198/467 305/431/470 399/482/471 398/135/464
f 305/431/470 312/199/472 400/138/473 399/482/471
f 312/199/472 311/435/474 315/439/475 314/200/476
s 2
f 311/436/477 310/136/294 316/137/299 315/438/478
s 40
f 314/200/476 313/437/479 361/463/480 400/138/473
f 313/437/479 320/139/310 362/140/304 361/463/480
s 2
f 4/2/7 14/141/10 172/83/38 166/82/18
f 12/7/29 22/142/32 180/86/53 174/85/39
f 20/11/44 30/143/47 188/89/68 182/88/54
f 28/15/59 38/144/62 196/92/83 190/91/69
f 36/19/74 46/145/77 204/95/98 198/94/84
f 44/23/89 54/146/92 212/98/113 206/97/99
f 52/27/104 62/147/107 220/101/128 214/100/114
f 60/31/119 70/148/122 228/104/143 222/103/129
f 68/35/134 78/149/137 236/107/158 230/106/144
f 76/39/149 86/150/152 244/110/173 238/109/159
f 84/43/164 94/151/167 252/113/188 246/112/174
f 92/47/179 102/152/182 260/116/203 254/115/189
f 100/51/194 110/153/197 268/119/218 262/118/204
f 108/55/209 118/154/212 276/122/233 270/121/219
f 116/59/224 126/155/227 284/125/248 278/124/234
f 124/63/239 134/156/242 292/128/263 286/127/249
f 132/67/254 142/157/257 300/131/278 294/130/264
f 140/71/269 150/158/272 308/134/293 302/133/279
f 148/75/284 158/159/287 316/137/299 310/136/294
f 156/79/23 6/3/14 164/160/17 318/80/300
s 1
f 16/4/12 2/1/1 358/5/4
f 24/8/34 10/6/25 356/9/28
f 32/12/49 18/10/40 354/13/43
f 40/16/64 26/14/55 352/17/58
f 48/20/79 34/18/70 350/21/73
f 56/24/94 42/22/85 348/25/88
f 64/28/109 50/26/100 346/29/103
f 72/32/124 58/30/115 344/33/118
f 80/36/139 66/34/130 342/37/133
f 88/40/154 74/38/145 340/41/148
f 96/44/169 82/42/160 338/45/163
f 104/48/184 90/46/175 336/49/178
f 112/52/199 98/50/190 334/53/193
f 120/56/214 106/54/205 332/57/208
f 128/60/229 114/58/220 330/61/223
f 136/64/244 122/62/235 328/65/238
f 144/68/259 130/66/250 326/69/253
f 152/72/274 138/70/265 324/73/268
f 160/77/289 146/74/280 322/78/283
f 8/161/5 154/162/21 360/76/6
s 40
f 168/163/305 170/164/314 364/84/306
f 176/165/319 178/166/323 366/87/320
f 184/167/328 186/168/332 368/90/329
f 192/169/337 194/170/341 370/93/338
f 200/171/346 202/172/350 372/96/347
f 208/173/355 210/174/359 374/99/356
f 216/175/364 218/176/368 376/102/365
f 224/177/373 226/178/377 378/105/374
f 232/179/382 234/180/386 380/108/383
f 240/181/391 242/182/395 382/111/392
f 248/183/400 250/184/404 384/114/401
f 256/185/409 258/186/413 386/117/410
f 264/187/418 266/188/422 388/120/419
f 272/189/427 274/190/431 390/123/428
f 280/191/436 282/192/440 392/126/437
f 288/193/445 290/194/449 394/129/446
f 296/195/454 298/196/458 396/132/455
f 304/197/463 306/198/467 398/135/464
f 312/199/472 314/200/476 400/138/473
f 320/139/310 162/81/301 362/140/304
s 1
f 7/206/19 8/161/5 1/201/2 401/485/481
f 1/201/2 2/1/1 3/203/11 401/485/481
s 2
f 3/202/8 4/2/7 5/205/15 401/483/482
f 5/204/15 6/3/14 7/207/22 401/484/482
s 1
f 15/212/13 16/4/12 9/208/26 402/487/483
f 9/208/26 10/6/25 11/210/33 402/487/483
s 2
f 11/209/30 12/7/29 13/211/36 402/486/484
f 13/211/36 14/141/10 15/213/9 402/486/484
s 1
f 23/218/35 24/8/34 17/214/41 403/489/485
f 17/214/41 18/10/40 19/216/48 403/489/485
s 2
f 19/215/45 20/11/44 21/217/51 403/488/486
f 21/217/51 22/142/32 23/219/31 403/488/486
s 1
f 31/224/50 32/12/49 25/220/56 404/491/487
f 25/220/56 26/14/55 27/222/63 404/491/487
s 2
f 27/221/60 28/15/59 29/223/66 404/490/488
f 29/223/66 30/143/47 31/225/46 404/490/488
s 1
f 39/230/65 40/16/64 33/226/71 405/493/489
f 33/226/71 34/18/70 35/228/78 405/493/489
s 2
f 35/227/75 36/19/74 37/229/81 405/492/490
f 37/229/81 38/144/62 39/231/61 405/492/490
s 1
f 47/236/80 48/20/79 41/232/86 406/495/491
f 41/232/86 42/22/85 43/234/93 406/495/491
s 2
f 43/233/90 44/23/89 45/235/96 406/494/492
f 45/235/96 46/145/77 47/237/76 406/494/492
s 1
f 55/242/95 56/24/94 49/238/101 407/497/493
f 49/238/101 50/26/100 51/240/108 407/497/493
s 2
f 51/239/105 52/27/104 53/241/111 407/496/494
f 53/241/111 54/146/92 55/243/91 407/496/494
s 1
f 63/248/110 64/28/109 57/244/116 408/499/495
f 57/244/116 58/30/115 59/246/123 408/499/495
s 2
f 59/245/120 60/31/119 61/247/126 408/498/496
f 61/247/126 62/147/107 63/249/106 408/498/496
s 1
f 71/254/125 72/32/124 65/250/131 409/501/497
f 65/250/131 66/34/130 67/252/138 409/501/497
s 2
f 67/251/135 68/35/134 69/253/141 409/500/498
f 69/253/141 70/148/122 71/255/121 409/500/498
s 1
f 79/260/140 80/36/139 73/256/146 410/503/499
f 73/256/146 74/38/145 75/258/153 410/503/499
s 2
f 75/257/150 76/39/149 77/259/156 410/502/500
f 77/259/156 78/149/137 79/261/136 410/502/500
s 1
f 87/266/155 88/40/154 81/262/161 411/505/501
f 81/262/161 82/42/160 83/264/168 411/505/501
s 2
f 83/263/165 84/43/164 85/265/171 411/504/502
f 85/265/171 86/150/152 87/267/151 411/504/502
s 1
f 95/272/170 96/44/169 89/268/176 412/507/503
f 89/268/176 90/46/175 91/270/183 412/507/503
s 2
f 91/269/180 92/47/179 93/271/186 412/506/504
f 93/271/186 94/151/167 95/273/166 412/506/504
s 1
f 103/278/185 104/48/184 97/274/191 413/509/505
f 97/274/191 98/50/190 99/276/198 413/509/505
s 2
f 99/275/195 100/51/194 101/277/201 413/508/506
f 101/277/201 102/152/182 103/279/181 413/508/506
s 1
f 111/284/200 112/52/199 105/280/206 414/511/507
f 105/280/206 106/54/205 107/282/213 414/511/507
s 2
f 107/281/210 108/55/209 109/283/216 414/510/508
f 109/283/216 110/153/197 111/285/196 414/510/508
s 1
f 119/290/215 120/56/214 113/286/221 415/513/509
f 113/286/221 114/58/220 115/288/228 415/513/509
s 2
f 115/287/225 116/59/224 117/289/231 415/512/510
f 117/289/231 118/154/212 119/291/211 415/512/510
s 1
f 127/296/230 128/60/229 121/292/236 416/515/511
f 121/292/236 122/62/235 123/294/243 416/515/511
s 2
f 123/293/240 124/63/239 125/295/246 416/514/512
f 125/295/246 126/155/227 127/297/226 416/514/512
s 1
f 135/302/245 136/64/244 129/298/251 417/517/513
f 129/298/251 130/66/250 131/300/258 417/517/513
s 2
f 131/299/255 132/67/254 133/301/261 417/516/514
f 133/301/261 134/156/242 135/303/241 417/516/514
s 1
f 143/308/260 144/68/259 137/304/266 418/519/515
f 137/304/266 138/70/265 139/306/273 418/519/515
s 2
f 139/305/270 140/71/269 141/307/276 418/518/516
f 141/307/276 142/157/257 143/309/256 418/518/516
s 1
f 151/314/275 152/72/274 145/310/281 419/521/517
f 145/310/281 146/74/280 147/312/288 419/521/517
s 2
f 147/311/285 148/75/284 149/313/291 419/520/518
f 149/313/291 150/158/272 151/315/271 419/520/518
s 1
f 159/320/290 160/77/289 153/316/295 420/523/519
f 153/316/295 154/162/21 155/318/20 420/523/519
s 2
f 155/317/24 156/79/23 157/319/297 420/522/520
f 157/319/297 158/159/287 159/321/286 420/522/520
s 40
f 167/327/312 168/163/305 161/322/302 421/526/521
f 161/322/302 162/81/301 163/324/309 421/526/521
s 2
f 163/323/307 164/160/17 165/326/16 421/524/522
f 165/325/16 166/82/18 167/328/315 421/525/522
s 40
f 175/333/321 176/165/319 169/329/317 422/528/523
f 169/329/317 170/164/314 171/331/313 422/528/523
s 2
f 171/330/316 172/83/38 173/332/37 422/527/524
f 173/332/37 174/85/39 175/334/324 422/527/524
s 40
f 183/339/330 184/167/328 177/335/326 423/530/525
f 177/335/326 178/166/323 179/337/322 423/530/525
s 2
f 179/336/325 180/86/53 181/338/52 423/529/526
f 181/338/52 182/88/54 183/340/333 423/529/526
s 40
f 191/345/339 192/169/337 185/341/335 424/532/527
f 185/341/335 186/168/332 187/343/331 424/532/527
s 2
f 187/342/334 188/89/68 189/344/67 424/531/528
f 189/344/67 190/91/69 191/346/342 424/531/528
s 40
f 199/351/348 200/171/346 193/347/344 425/534/529
f 193/347/344 194/170/341 195/349/340 425/534/529
s 2
f 195/348/343 196/92/83 197/350/82 425/533/530
f 197/350/82 198/94/84 199/352/351 425/533/530
s 40
f 207/357/357 208/173/355 201/353/353 426/536/531
f 201/353/353 202/172/350 203/355/349 426/536/531
s 2
f 203/354/352 204/95/98 205/356/97 426/535/532
f 205/356/97 206/97/99 207/358/360 426/535/532
s 40
f 215/363/366 216/175/364 209/359/362 427/538/533
f 209/359/362 210/174/359 211/361/358 427/538/533
s 2
f 211/360/361 212/98/113 213/362/112 427/537/534
f 213/362/112 214/100/114 215/364/369 427/537/534
s 40
f 223/369/375 224/177/373 217/365/371 428/540/535
f 217/365/371 218/176/368 219/367/367 428/540/535
s 2
f 219/366/370 220/101/128 221/368/127 428/539/536
f 221/368/127 222/103/129 223/370/378 428/539/536
s 40
f 231/375/384 232/179/382 225/371/380 429/542/537
f 225/371/380 226/178/377 227/373/376 429/542/537
s 2
f 227/372/379 228/104/143 229/374/142 429/541/538
f 229/374/142 230/106/144 231/376/387 429/541/538
s 40
f 239/381/393 240/181/391 233/377/389 430/544/539
f 233/377/389 234/180/386 235/379/385 430/544/539
s 2
f 235/378/388 236/107/158 237/380/157 430/543/540
f 237/380/157 238/109/159 239/382/396 430/543/540
s 40
f 247/387/402 248/183/400 241/383/398 431/546/541
f 241/383/398 242/182/395 243/385/394 431/546/541
s 2
f 243/384/397 244/110/173 245/386/172 431/545/542
f 245/386/172 246/112/174 247/388/405 431/545/542
s 40
f 255/393/411 256/185/409 249/389/407 432/548/543
f 249/389/407 250/184/404 251/391/403 432/548/543
s 2
f 251/390/406 252/113/188 253/392/187 432/547/544
f 253/392/187 254/115/189 255/394/414 432/547/544
s 40
f 263/399/420 264/187/418 257/395/416 433/550/545
f 257/395/416 258/186/413 259/397/412 433/550/545
s 2
f 259/396/415 260/116/203 261/398/202 433/549/546
f 261/398/202 262/118/204 263/400/423 433/549/546
s 40
f 271/405/429 272/189/427 265/401/425 434/552/547
f 265/401/425 266/188/422 267/403/421 434/552/547
s 2
f 267/402/424 268/119/218 269/404/217 434/551/548
f 269/404/217 270/121/219 271/406/432 434/551/548
s 40
f 279/411/438 280/191/436 273/407/434 435/554/549
f 273/407/434 274/190/431 275/409/430 435/554/549
s 2
f 275/408/433 276/122/233 277/410/232 435/553/550
f 277/410/232 278/124/234 279/412/441 435/553/550
s 40
f 287/417/447 288/193/445 281/413/443 436/556/551
f 281/413/443 282/192/440 283/415/439 436/556/551
s 2
f 283/414/442 284/125/248 285/416/247 436/555/552
f 285/416/247 286/127/249 287/418/450 436/555/552
s 40
f 295/423/456 296/195/454 289/419/452 437/558/553
f 289/419/452 290/194/449 291/421/448 437/558/553
s 2
f 291/420/451 292/128/263 293/422/262 437/557/554
f 293/422/262 294/130/264 295/424/459 437/557/554
s 40
f 303/429/465 304/197/463 297/425/461 438/560/555
f 297/425/461 298/196/458 299/427/457 438/560/555
s 2
f 299/426/460 300/131/278 301/428/277 438/559/556
f 301/428/277 302/133/279 303/430/468 438/559/556
s 40
f 311/435/474 312/199/472 305/431/470 439/562/557
f 305/431/470 306/198/467 307/433/466 439/562/557
s 2
f 307/432/469 308/134/293 309/434/292 439/561/558
f 309/434/292 310/136/294 311/436/477 439/561/558
s 40
f 319/441/311 320/139/310 313/437/479 440/564/559
f 313/437/479 314/200/476 315/439/475 440/564/559
s 2
f 315/438/478 316/137/299 317/440/298 440/563/560
f 317/440/298 318/80/300 319/442/308 440/563/560
s 1
f 359/462/3 360/76/6 321/443/296 441/565/561
f 321/443/296 322/78/283 323/444/282 441/565/561
f 323/444/282 324/73/268 325/445/267 441/565/561
f 325/445/267 326/69/253 327/446/252 441/565/561
f 327/446/252 328/65/238 329/447/237 441/565/561
f 329/447/237 330/61/223 331/448/222 441/565/561
f 331/448/222 332/57/208 333/449/207 441/565/561
f 333/449/207 334/53/193 335/450/192 441/565/561
f 335/450/192 336/49/178 337/451/177 441/565/561
f 337/451/177 338/45/163 339/452/162 441/565/561
f 339/452/162 340/41/148 341/453/147 441/565/561
f 341/453/147 342/37/133 343/454/132 441/565/561
f 343/454/132 344/33/118 345/455/117 441/565/561
f 345/455/117 346/29/103 347/456/102 441/565/561
f 347/456/102 348/25/88 349/457/87 441/565/561
f 349/457/87 350/21/73 351/458/72 441/565/561
f 351/458/72 352/17/58 353/459/57 441/565/561
f 353/459/57 354/13/43 355/460/42 441/565/561
f 355/460/42 356/9/28 357/461/27 441/565/561
f 357/461/27 358/5/4 359/462/3 441/565/561
s 40
f 399/482/471 400/138/473 361/463/480 442/566/562
f 361/463/480 362/140/304 363/464/303 442/566/562
f 363/464/303 364/84/306 365/465/318 442/566/562
f 365/465/318 366/87/320 367/466/327 442/566/562
f 367/466/327 368/90/329 369/467/336 442/566/562
f 369/467/336 370/93/338 371/468/345 442/566/562
f 371/468/345 372/96/347 373/469/354 442/566/562
f 373/469/354 374/99/356 375/470/363 442/566/562
f 375/470/363 376/102/365 377/471/372 442/566/562
f 377/471/372 378/105/374 379/472/381 442/566/562
f 379/472/381 380/108/383 381/473/390 442/566/562
f 381/473/390 382/111/392 383/474/399 442/566/562
f 383/474/399 384/114/401 385/475/408 442/566/562
f 385/475/408 386/117/410 387/476/417 442/566/562
f 387/476/417 388/120/419 389/477/426 442/566/562
f 389/477/426 390/123/428 391/478/435 442/566/562
f 391/478/435 392/126/437 393/479/444 442/566/562
f 393/479/444 394/129/446 395/480/453 442/566/562
f 395/480/453 396/132/455 397/481/462 442/566/562
f 397/481/462 398/135/464 399/482/471 442/566/562
