# This file uses centimeters as units for non-parametric coordinates.

mtllib 时钟圆心.mtl
g default
v -0.035087 -0.395632 -2.346758
v -0.040543 -0.395632 -2.359929
v -0.026847 -0.389763 -2.364358
v -0.021170 -0.375594 -2.366179
v -0.015731 -0.375604 -2.353051
v -0.012415 -0.375614 -2.339241
v -0.018077 -0.389769 -2.337371
v -0.031759 -0.395632 -2.332896
v -0.063950 -0.395632 -2.403405
v -0.073209 -0.395632 -2.414246
v -0.061552 -0.389763 -2.422690
v -0.056715 -0.375594 -2.426176
v -0.047486 -0.375604 -2.415372
v -0.040065 -0.375614 -2.403263
v -0.044872 -0.389769 -2.399734
v -0.056502 -0.395632 -2.391250
v -0.108906 -0.395632 -2.448361
v -0.121061 -0.395632 -2.455809
v -0.112584 -0.389763 -2.467442
v -0.109061 -0.375594 -2.472253
v -0.096945 -0.375604 -2.464829
v -0.086145 -0.375614 -2.455606
v -0.089626 -0.389769 -2.450765
v -0.098065 -0.395632 -2.439102
v -0.165553 -0.395632 -2.477224
v -0.179415 -0.395632 -2.480552
v -0.174948 -0.389763 -2.494235
v -0.173084 -0.375594 -2.499898
v -0.159267 -0.375604 -2.496582
v -0.146145 -0.375614 -2.491148
v -0.147960 -0.389769 -2.485468
v -0.152382 -0.395632 -2.471768
v -0.228346 -0.395632 -2.487169
v -0.242559 -0.395632 -2.486051
v -0.242538 -0.389763 -2.500445
v -0.242516 -0.375594 -2.506407
v -0.228350 -0.375604 -2.507523
v -0.214191 -0.375614 -2.506409
v -0.214162 -0.389769 -2.500446
v -0.214134 -0.395632 -2.486051
v -0.291140 -0.395632 -2.477224
v -0.304311 -0.395632 -2.471768
v -0.308740 -0.389763 -2.485464
v -0.310561 -0.375594 -2.491141
v -0.297433 -0.375604 -2.496580
v -0.283623 -0.375614 -2.499896
v -0.281753 -0.389769 -2.494234
v -0.277278 -0.395632 -2.480552
v -0.347787 -0.395632 -2.448361
v -0.358628 -0.395632 -2.439102
v -0.367072 -0.389763 -2.450759
v -0.370558 -0.375594 -2.455596
v -0.359754 -0.375604 -2.464825
v -0.347645 -0.375614 -2.472246
v -0.344116 -0.389769 -2.467439
v -0.335632 -0.395632 -2.455809
v -0.392743 -0.395632 -2.403405
v -0.400191 -0.395632 -2.391250
v -0.411824 -0.389763 -2.399727
v -0.416635 -0.375594 -2.403250
v -0.409211 -0.375604 -2.415366
v -0.399988 -0.375614 -2.426166
v -0.395147 -0.389769 -2.422685
v -0.383484 -0.395632 -2.414246
v -0.421606 -0.395632 -2.346758
v -0.424934 -0.395632 -2.332896
v -0.438617 -0.389763 -2.337363
v -0.444280 -0.375594 -2.339227
v -0.440964 -0.375604 -2.353044
v -0.435530 -0.375614 -2.366166
v -0.429850 -0.389769 -2.364351
v -0.416150 -0.395632 -2.359929
v -0.431551 -0.395632 -2.283964
v -0.430433 -0.395632 -2.269752
v -0.444827 -0.389763 -2.269773
v -0.450789 -0.375594 -2.269795
v -0.451905 -0.375604 -2.283961
v -0.450791 -0.375614 -2.298120
v -0.444828 -0.389769 -2.298149
v -0.430433 -0.395632 -2.298177
v -0.421606 -0.395632 -2.221171
v -0.416150 -0.395632 -2.208000
v -0.429846 -0.389763 -2.203571
v -0.435523 -0.375594 -2.201750
v -0.440962 -0.375604 -2.214878
v -0.444278 -0.375614 -2.228688
v -0.438616 -0.389769 -2.230558
v -0.424934 -0.395632 -2.235033
v -0.392743 -0.395632 -2.164524
v -0.383484 -0.395632 -2.153683
v -0.395141 -0.389763 -2.145239
v -0.399978 -0.375594 -2.141753
v -0.409207 -0.375604 -2.152557
v -0.416628 -0.375614 -2.164666
v -0.411821 -0.389769 -2.168195
v -0.400191 -0.395632 -2.176679
v -0.347787 -0.395632 -2.119568
v -0.335632 -0.395632 -2.112120
v -0.344109 -0.389763 -2.100487
v -0.347632 -0.375594 -2.095676
v -0.359748 -0.375604 -2.103100
v -0.370548 -0.375614 -2.112323
v -0.367067 -0.389769 -2.117164
v -0.358628 -0.395632 -2.128827
v -0.291140 -0.395632 -2.090705
v -0.277278 -0.395632 -2.087377
v -0.281745 -0.389763 -2.073694
v -0.283609 -0.375594 -2.068031
v -0.297426 -0.375604 -2.071347
v -0.310548 -0.375614 -2.076781
v -0.308733 -0.389769 -2.082461
v -0.304311 -0.395632 -2.096161
v -0.228346 -0.395632 -2.080760
v -0.214134 -0.395632 -2.081878
v -0.214155 -0.389763 -2.067484
v -0.214177 -0.375594 -2.061522
v -0.228343 -0.375604 -2.060406
v -0.242502 -0.375614 -2.061520
v -0.242531 -0.389769 -2.067483
v -0.242559 -0.395632 -2.081878
v -0.165553 -0.395632 -2.090705
v -0.152382 -0.395632 -2.096161
v -0.147953 -0.389763 -2.082465
v -0.146132 -0.375594 -2.076788
v -0.159260 -0.375604 -2.071349
v -0.173070 -0.375614 -2.068033
v -0.174940 -0.389769 -2.073695
v -0.179415 -0.395632 -2.087377
v -0.108906 -0.395632 -2.119568
v -0.098065 -0.395632 -2.128827
v -0.089621 -0.389763 -2.117170
v -0.086135 -0.375594 -2.112333
v -0.096939 -0.375604 -2.103104
v -0.109048 -0.375614 -2.095683
v -0.112577 -0.389769 -2.100490
v -0.121061 -0.395632 -2.112120
v -0.063950 -0.395632 -2.164524
v -0.056502 -0.395632 -2.176679
v -0.044869 -0.389763 -2.168202
v -0.040058 -0.375594 -2.164679
v -0.047482 -0.375604 -2.152563
v -0.056705 -0.375614 -2.141763
v -0.061546 -0.389769 -2.145244
v -0.073209 -0.395632 -2.153683
v -0.035087 -0.395632 -2.221171
v -0.031759 -0.395632 -2.235033
v -0.018076 -0.389763 -2.230566
v -0.012413 -0.375594 -2.228702
v -0.015729 -0.375604 -2.214885
v -0.021163 -0.375614 -2.201763
v -0.026843 -0.389769 -2.203578
v -0.040543 -0.395632 -2.208000
v -0.025142 -0.395632 -2.283965
v -0.026260 -0.395632 -2.298177
v -0.011866 -0.389763 -2.298156
v -0.005904 -0.375594 -2.298134
v -0.004788 -0.375604 -2.283968
v -0.005902 -0.375614 -2.269809
v -0.011865 -0.389769 -2.269780
v -0.026260 -0.395632 -2.269752
v -0.035087 0.053741 -2.346758
v -0.031759 0.053741 -2.332896
v -0.018076 0.047872 -2.337363
v -0.012413 0.033702 -2.339227
v -0.015729 0.033713 -2.353044
v -0.021163 0.033723 -2.366166
v -0.026843 0.047878 -2.364351
v -0.040543 0.053741 -2.359929
v -0.063950 0.053741 -2.403405
v -0.056502 0.053741 -2.391250
v -0.044869 0.047872 -2.399727
v -0.040058 0.033702 -2.403250
v -0.047482 0.033713 -2.415366
v -0.056705 0.033723 -2.426166
v -0.061546 0.047878 -2.422685
v -0.073209 0.053741 -2.414246
v -0.108906 0.053741 -2.448361
v -0.098065 0.053741 -2.439102
v -0.089621 0.047872 -2.450759
v -0.086135 0.033702 -2.455596
v -0.096939 0.033713 -2.464825
v -0.109048 0.033723 -2.472246
v -0.112577 0.047878 -2.467439
v -0.121061 0.053741 -2.455809
v -0.165553 0.053741 -2.477224
v -0.152382 0.053741 -2.471768
v -0.147953 0.047872 -2.485464
v -0.146132 0.033702 -2.491141
v -0.159260 0.033713 -2.496580
v -0.173070 0.033723 -2.499896
v -0.174940 0.047878 -2.494234
v -0.179415 0.053741 -2.480552
v -0.228346 0.053741 -2.487169
v -0.214134 0.053741 -2.486051
v -0.214155 0.047872 -2.500445
v -0.214177 0.033702 -2.506407
v -0.228343 0.033713 -2.507523
v -0.242502 0.033723 -2.506409
v -0.242531 0.047878 -2.500446
v -0.242559 0.053741 -2.486051
v -0.291140 0.053741 -2.477224
v -0.277278 0.053741 -2.480552
v -0.281745 0.047872 -2.494235
v -0.283609 0.033702 -2.499898
v -0.297426 0.033713 -2.496582
v -0.310548 0.033723 -2.491148
v -0.308733 0.047878 -2.485468
v -0.304311 0.053741 -2.471768
v -0.347787 0.053741 -2.448361
v -0.335632 0.053741 -2.455809
v -0.344109 0.047872 -2.467442
v -0.347632 0.033702 -2.472253
v -0.359748 0.033713 -2.464829
v -0.370548 0.033723 -2.455606
v -0.367067 0.047878 -2.450765
v -0.358628 0.053741 -2.439102
v -0.392743 0.053741 -2.403405
v -0.383484 0.053741 -2.414246
v -0.395141 0.047872 -2.422690
v -0.399978 0.033702 -2.426176
v -0.409207 0.033713 -2.415372
v -0.416628 0.033723 -2.403263
v -0.411821 0.047878 -2.399734
v -0.400191 0.053741 -2.391250
v -0.421606 0.053741 -2.346758
v -0.416150 0.053741 -2.359929
v -0.429846 0.047872 -2.364358
v -0.435523 0.033702 -2.366179
v -0.440962 0.033713 -2.353051
v -0.444278 0.033723 -2.339241
v -0.438616 0.047878 -2.337371
v -0.424934 0.053741 -2.332896
v -0.431551 0.053741 -2.283964
v -0.430433 0.053741 -2.298177
v -0.444827 0.047872 -2.298156
v -0.450789 0.033702 -2.298134
v -0.451905 0.033713 -2.283968
v -0.450791 0.033723 -2.269809
v -0.444828 0.047878 -2.269780
v -0.430433 0.053741 -2.269752
v -0.421606 0.053741 -2.221171
v -0.424934 0.053741 -2.235033
v -0.438617 0.047872 -2.230566
v -0.444280 0.033702 -2.228702
v -0.440964 0.033713 -2.214885
v -0.435530 0.033723 -2.201763
v -0.429850 0.047878 -2.203578
v -0.416150 0.053741 -2.208000
v -0.392743 0.053741 -2.164524
v -0.400191 0.053741 -2.176679
v -0.411824 0.047872 -2.168202
v -0.416635 0.033702 -2.164679
v -0.409211 0.033713 -2.152563
v -0.399988 0.033723 -2.141763
v -0.395147 0.047878 -2.145244
v -0.383484 0.053741 -2.153683
v -0.347787 0.053741 -2.119568
v -0.358628 0.053741 -2.128827
v -0.367072 0.047872 -2.117170
v -0.370558 0.033702 -2.112333
v -0.359754 0.033713 -2.103104
v -0.347645 0.033723 -2.095683
v -0.344116 0.047878 -2.100490
v -0.335632 0.053741 -2.112120
v -0.291140 0.053741 -2.090705
v -0.304311 0.053741 -2.096161
v -0.308740 0.047872 -2.082465
v -0.310561 0.033702 -2.076788
v -0.297433 0.033713 -2.071349
v -0.283623 0.033723 -2.068033
v -0.281753 0.047878 -2.073695
v -0.277278 0.053741 -2.087377
v -0.228346 0.053741 -2.080760
v -0.242559 0.053741 -2.081878
v -0.242538 0.047872 -2.067484
v -0.242516 0.033702 -2.061522
v -0.228350 0.033713 -2.060406
v -0.214191 0.033723 -2.061520
v -0.214162 0.047878 -2.067483
v -0.214134 0.053741 -2.081878
v -0.165553 0.053741 -2.090705
v -0.179415 0.053741 -2.087377
v -0.174948 0.047872 -2.073694
v -0.173084 0.033702 -2.068031
v -0.159267 0.033713 -2.071347
v -0.146145 0.033723 -2.076781
v -0.147960 0.047878 -2.082461
v -0.152382 0.053741 -2.096161
v -0.108906 0.053741 -2.119568
v -0.121061 0.053741 -2.112120
v -0.112584 0.047872 -2.100487
v -0.109061 0.033702 -2.095676
v -0.096945 0.033713 -2.103100
v -0.086145 0.033723 -2.112323
v -0.089626 0.047878 -2.117164
v -0.098065 0.053741 -2.128827
v -0.063950 0.053741 -2.164524
v -0.073209 0.053741 -2.153683
v -0.061552 0.047872 -2.145239
v -0.056715 0.033702 -2.141753
v -0.047486 0.033713 -2.152557
v -0.040065 0.033723 -2.164666
v -0.044872 0.047878 -2.168195
v -0.056502 0.053741 -2.176679
v -0.035087 0.053741 -2.221171
v -0.040543 0.053741 -2.208000
v -0.026847 0.047872 -2.203571
v -0.021170 0.033702 -2.201750
v -0.015731 0.033713 -2.214878
v -0.012415 0.033723 -2.228688
v -0.018077 0.047878 -2.230558
v -0.031759 0.053741 -2.235033
v -0.025142 0.053741 -2.283965
v -0.026260 0.053741 -2.269752
v -0.011866 0.047872 -2.269773
v -0.005904 0.033702 -2.269795
v -0.004788 0.033713 -2.283961
v -0.005902 0.033723 -2.298120
v -0.011865 0.047878 -2.298149
v -0.026260 0.053741 -2.298177
v -0.149102 -0.395632 -2.283964
v -0.138795 -0.395632 -2.269781
v -0.152981 -0.395632 -2.259477
v -0.147561 -0.395632 -2.242802
v -0.164237 -0.395632 -2.237386
v -0.164234 -0.395632 -2.219852
v -0.181768 -0.395632 -2.219855
v -0.187184 -0.395632 -2.203179
v -0.203859 -0.395632 -2.208599
v -0.214163 -0.395632 -2.194413
v -0.228346 -0.395632 -2.204720
v -0.242530 -0.395632 -2.194413
v -0.252834 -0.395632 -2.208599
v -0.269509 -0.395632 -2.203179
v -0.274925 -0.395632 -2.219855
v -0.292459 -0.395632 -2.219852
v -0.292456 -0.395632 -2.237386
v -0.309132 -0.395632 -2.242802
v -0.303712 -0.395632 -2.259477
v -0.317898 -0.395632 -2.269781
v -0.307591 -0.395632 -2.283964
v -0.317898 -0.395632 -2.298148
v -0.303712 -0.395632 -2.308452
v -0.309132 -0.395632 -2.325127
v -0.292456 -0.395632 -2.330543
v -0.292459 -0.395632 -2.348077
v -0.274925 -0.395632 -2.348074
v -0.269509 -0.395632 -2.364750
v -0.252834 -0.395632 -2.359330
v -0.242530 -0.395632 -2.373516
v -0.228346 -0.395632 -2.363209
v -0.214163 -0.395632 -2.373516
v -0.203859 -0.395632 -2.359330
v -0.187184 -0.395632 -2.364750
v -0.181768 -0.395632 -2.348074
v -0.164234 -0.395632 -2.348077
v -0.164237 -0.395632 -2.330543
v -0.147561 -0.395632 -2.325127
v -0.152981 -0.395632 -2.308452
v -0.138795 -0.395632 -2.298148
v -0.149102 0.053741 -2.283964
v -0.138795 0.053741 -2.298148
v -0.152981 0.053741 -2.308452
v -0.147561 0.053741 -2.325127
v -0.164237 0.053741 -2.330543
v -0.164234 0.053741 -2.348077
v -0.181768 0.053741 -2.348074
v -0.187184 0.053741 -2.364750
v -0.203859 0.053741 -2.359330
v -0.214163 0.053741 -2.373516
v -0.228346 0.053741 -2.363209
v -0.242530 0.053741 -2.373516
v -0.252834 0.053741 -2.359330
v -0.269509 0.053741 -2.364750
v -0.274925 0.053741 -2.348074
v -0.292459 0.053741 -2.348077
v -0.292456 0.053741 -2.330543
v -0.309132 0.053741 -2.325127
v -0.303712 0.053741 -2.308452
v -0.317898 0.053741 -2.298148
v -0.307591 0.053741 -2.283964
v -0.317898 0.053741 -2.269781
v -0.303712 0.053741 -2.259477
v -0.309132 0.053741 -2.242802
v -0.292456 0.053741 -2.237386
v -0.292459 0.053741 -2.219852
v -0.274925 0.053741 -2.219855
v -0.269509 0.053741 -2.203179
v -0.252834 0.053741 -2.208599
v -0.242530 0.053741 -2.194413
v -0.228346 0.053741 -2.204720
v -0.214163 0.053741 -2.194413
v -0.203859 0.053741 -2.208599
v -0.187184 0.053741 -2.203179
v -0.181768 0.053741 -2.219855
v -0.164234 0.053741 -2.219852
v -0.164237 0.053741 -2.237386
v -0.147561 0.053741 -2.242802
v -0.152981 0.053741 -2.259477
v -0.138795 0.053741 -2.269781
v -0.021400 -0.389766 -2.351207
v -0.052307 -0.389766 -2.411866
v -0.100447 -0.389766 -2.460005
v -0.161106 -0.389766 -2.490912
v -0.228348 -0.389766 -2.501562
v -0.295589 -0.389766 -2.490911
v -0.356248 -0.389766 -2.460004
v -0.404387 -0.389766 -2.411864
v -0.435294 -0.389766 -2.351205
v -0.445944 -0.389766 -2.283963
v -0.435293 -0.389766 -2.216722
v -0.404386 -0.389766 -2.156063
v -0.356246 -0.389766 -2.107924
v -0.295587 -0.389766 -2.077017
v -0.228345 -0.389766 -2.066367
v -0.161104 -0.389766 -2.077018
v -0.100445 -0.389766 -2.107925
v -0.052306 -0.389766 -2.156065
v -0.021399 -0.389766 -2.216724
v -0.010749 -0.389766 -2.283966
v -0.021399 0.047875 -2.351205
v -0.052306 0.047875 -2.411864
v -0.100445 0.047875 -2.460004
v -0.161104 0.047875 -2.490911
v -0.228345 0.047875 -2.501562
v -0.295587 0.047875 -2.490912
v -0.356246 0.047875 -2.460005
v -0.404386 0.047875 -2.411866
v -0.435293 0.047875 -2.351207
v -0.445944 0.047875 -2.283966
v -0.435294 0.047875 -2.216724
v -0.404387 0.047875 -2.156065
v -0.356248 0.047875 -2.107925
v -0.295589 0.047875 -2.077018
v -0.228348 0.047875 -2.066367
v -0.161106 0.047875 -2.077017
v -0.100447 0.047875 -2.107924
v -0.052307 0.047875 -2.156063
v -0.021400 0.047875 -2.216722
v -0.010749 0.047875 -2.283963
v -0.228346 -0.395632 -2.283965
v -0.228346 0.053741 -2.283965
vt 0.630601 0.103423
vt 0.377551 0.329222
vt 0.622451 0.329206
vt 0.619503 0.081642
vt 0.556180 0.127625
vt 0.607885 0.065651
vt 0.390051 0.329222
vt 0.590599 0.048365
vt 0.544584 0.111666
vt 0.574608 0.036747
vt 0.402551 0.329222
vt 0.552827 0.025649
vt 0.528625 0.100070
vt 0.534028 0.019541
vt 0.415051 0.329222
vt 0.509883 0.015717
vt 0.509863 0.093974
vt 0.490117 0.015717
vt 0.427551 0.329222
vt 0.465972 0.019541
vt 0.490137 0.093974
vt 0.447173 0.025649
vt 0.440051 0.329222
vt 0.425392 0.036747
vt 0.471375 0.100070
vt 0.409401 0.048365
vt 0.452551 0.329222
vt 0.392115 0.065651
vt 0.455416 0.111666
vt 0.380497 0.081642
vt 0.465051 0.329222
vt 0.369399 0.103423
vt 0.443820 0.127625
vt 0.363291 0.122222
vt 0.477551 0.329222
vt 0.359467 0.146367
vt 0.437725 0.146387
vt 0.359467 0.166133
vt 0.490051 0.329222
vt 0.363291 0.190278
vt 0.437725 0.166113
vt 0.369399 0.209077
vt 0.502551 0.329222
vt 0.380497 0.230858
vt 0.443820 0.184875
vt 0.392115 0.246849
vt 0.515051 0.329222
vt 0.409401 0.264135
vt 0.455416 0.200834
vt 0.425392 0.275753
vt 0.527551 0.329222
vt 0.447173 0.286851
vt 0.471375 0.212430
vt 0.465972 0.292959
vt 0.540051 0.329222
vt 0.490117 0.296783
vt 0.490137 0.218526
vt 0.509883 0.296783
vt 0.552551 0.329222
vt 0.534028 0.292959
vt 0.509863 0.218526
vt 0.552827 0.286851
vt 0.565051 0.329222
vt 0.574608 0.275753
vt 0.528625 0.212430
vt 0.590599 0.264135
vt 0.577551 0.329222
vt 0.607885 0.246849
vt 0.544584 0.200834
vt 0.619503 0.230858
vt 0.590051 0.329222
vt 0.630601 0.209077
vt 0.556180 0.184875
vt 0.636709 0.190278
vt 0.602551 0.329222
vt 0.562276 0.146387
vt 0.640533 0.166133
vt 0.562276 0.166113
vt 0.615051 0.329222
vt 0.615048 0.670795
vt 0.636709 0.877778
vt 0.377548 0.670795
vt 0.384949 0.670778
vt 0.556180 0.872375
vt 0.390048 0.670795
vt 0.397449 0.670778
vt 0.544584 0.888334
vt 0.402548 0.670795
vt 0.409949 0.670778
vt 0.528625 0.899929
vt 0.415048 0.670795
vt 0.422449 0.670778
vt 0.509863 0.906025
vt 0.427548 0.670795
vt 0.434949 0.670778
vt 0.490137 0.906026
vt 0.440048 0.670795
vt 0.447449 0.670778
vt 0.471375 0.899930
vt 0.452548 0.670795
vt 0.459949 0.670778
vt 0.455416 0.888334
vt 0.465048 0.670795
vt 0.472449 0.670778
vt 0.443820 0.872375
vt 0.477548 0.670795
vt 0.484949 0.670778
vt 0.437725 0.853613
vt 0.490048 0.670795
vt 0.497449 0.670778
vt 0.437725 0.833887
vt 0.502548 0.670795
vt 0.509949 0.670778
vt 0.443820 0.815125
vt 0.515048 0.670795
vt 0.522449 0.670778
vt 0.455416 0.799166
vt 0.527548 0.670795
vt 0.534949 0.670778
vt 0.471375 0.787570
vt 0.540048 0.670795
vt 0.547449 0.670778
vt 0.490137 0.781474
vt 0.552548 0.670795
vt 0.559949 0.670778
vt 0.509863 0.781474
vt 0.565048 0.670795
vt 0.572449 0.670778
vt 0.528625 0.787570
vt 0.577548 0.670795
vt 0.584949 0.670778
vt 0.544584 0.799166
vt 0.590048 0.670795
vt 0.597449 0.670778
vt 0.556180 0.815125
vt 0.602548 0.670795
vt 0.609949 0.670778
vt 0.562276 0.833887
vt 0.640533 0.853633
vt 0.562276 0.853613
vt 0.384952 0.329205
vt 0.397452 0.329206
vt 0.409952 0.329205
vt 0.422452 0.329206
vt 0.434952 0.329206
vt 0.447452 0.329206
vt 0.459952 0.329206
vt 0.472452 0.329206
vt 0.484952 0.329206
vt 0.497452 0.329206
vt 0.509952 0.329206
vt 0.522452 0.329206
vt 0.534951 0.329206
vt 0.547451 0.329206
vt 0.559951 0.329206
vt 0.572451 0.329206
vt 0.584951 0.329206
vt 0.597451 0.329206
vt 0.609951 0.329206
vt 0.622449 0.670778
vt 0.636709 0.122222
vt 0.640533 0.146367
vt 0.630601 0.896577
vt 0.619503 0.918358
vt 0.607885 0.934349
vt 0.590599 0.951635
vt 0.574608 0.963253
vt 0.552827 0.974351
vt 0.534028 0.980459
vt 0.509883 0.984283
vt 0.490117 0.984283
vt 0.465972 0.980459
vt 0.447173 0.974351
vt 0.425392 0.963253
vt 0.409401 0.951635
vt 0.392115 0.934349
vt 0.380497 0.918358
vt 0.369399 0.896577
vt 0.363291 0.877778
vt 0.359467 0.853633
vt 0.359467 0.833867
vt 0.363291 0.809722
vt 0.369399 0.790923
vt 0.380497 0.769142
vt 0.392115 0.753151
vt 0.409401 0.735865
vt 0.425392 0.724247
vt 0.447173 0.713149
vt 0.465972 0.707041
vt 0.490117 0.703217
vt 0.509883 0.703217
vt 0.534028 0.707041
vt 0.552827 0.713149
vt 0.574608 0.724247
vt 0.590599 0.735865
vt 0.607885 0.753151
vt 0.619503 0.769142
vt 0.630601 0.790923
vt 0.636709 0.809722
vt 0.640533 0.833867
vt 0.634759 0.112464
vt 0.377610 0.312500
vt 0.643968 0.098870
vt 0.625000 0.325594
vt 0.375000 0.325594
vt 0.650199 0.118045
vt 0.622391 0.312500
vt 0.614633 0.072964
vt 0.390110 0.312500
vt 0.619191 0.057190
vt 0.387501 0.329113
vt 0.631042 0.073501
vt 0.384891 0.312500
vt 0.583286 0.041617
vt 0.402610 0.312500
vt 0.582746 0.025207
vt 0.400001 0.329113
vt 0.599057 0.037057
vt 0.397391 0.312500
vt 0.543786 0.021491
vt 0.415110 0.312500
vt 0.538201 0.006050
vt 0.412501 0.329113
vt 0.557376 0.012280
vt 0.409891 0.312500
vt 0.500000 0.014556
vt 0.427610 0.312500
vt 0.489917 0.001597
vt 0.425001 0.329113
vt 0.510079 0.001596
vt 0.422391 0.312500
vt 0.456214 0.021491
vt 0.440110 0.312500
vt 0.442620 0.012282
vt 0.437501 0.329113
vt 0.461795 0.006051
vt 0.434891 0.312500
vt 0.416714 0.041617
vt 0.452610 0.312500
vt 0.400940 0.037059
vt 0.450001 0.329113
vt 0.417251 0.025208
vt 0.447391 0.312500
vt 0.385367 0.072964
vt 0.465110 0.312500
vt 0.368957 0.073504
vt 0.462501 0.329113
vt 0.380807 0.057193
vt 0.459891 0.312500
vt 0.365241 0.112464
vt 0.477610 0.312500
vt 0.349800 0.118049
vt 0.475001 0.329113
vt 0.356030 0.098874
vt 0.472391 0.312500
vt 0.358306 0.156250
vt 0.490110 0.312500
vt 0.345347 0.166333
vt 0.487501 0.329113
vt 0.345346 0.146171
vt 0.484891 0.312500
vt 0.365241 0.200036
vt 0.502610 0.312500
vt 0.356032 0.213629
vt 0.500001 0.329113
vt 0.349801 0.194455
vt 0.497391 0.312500
vt 0.385367 0.239536
vt 0.515110 0.312500
vt 0.380809 0.255310
vt 0.512501 0.329113
vt 0.368958 0.238999
vt 0.509891 0.312500
vt 0.416714 0.270883
vt 0.527610 0.312500
vt 0.417254 0.287293
vt 0.525001 0.329113
vt 0.400943 0.275443
vt 0.522391 0.312500
vt 0.456214 0.291009
vt 0.540110 0.312500
vt 0.461799 0.306450
vt 0.537500 0.329113
vt 0.442624 0.300220
vt 0.534891 0.312500
vt 0.500000 0.297944
vt 0.552610 0.312500
vt 0.510083 0.310903
vt 0.550001 0.329113
vt 0.489921 0.310904
vt 0.547391 0.312500
vt 0.543786 0.291009
vt 0.565110 0.312500
vt 0.557379 0.300218
vt 0.562500 0.329113
vt 0.538205 0.306449
vt 0.559891 0.312500
vt 0.583286 0.270883
vt 0.577610 0.312500
vt 0.599060 0.275441
vt 0.575000 0.329113
vt 0.582749 0.287292
vt 0.572391 0.312500
vt 0.614633 0.239536
vt 0.590110 0.312500
vt 0.631043 0.238996
vt 0.587501 0.329113
vt 0.619193 0.255307
vt 0.584891 0.312500
vt 0.634759 0.200036
vt 0.602610 0.312500
vt 0.650200 0.194451
vt 0.600000 0.329113
vt 0.643970 0.213626
vt 0.597391 0.312500
vt 0.641694 0.156250
vt 0.615110 0.312500
vt 0.654653 0.146167
vt 0.612500 0.329113
vt 0.654654 0.166329
vt 0.609891 0.312500
vt 0.634759 0.887536
vt 0.622390 0.687500
vt 0.650200 0.881951
vt 0.375000 0.674406
vt 0.625000 0.674406
vt 0.643970 0.901126
vt 0.377609 0.687500
vt 0.614633 0.927036
vt 0.384890 0.687500
vt 0.631043 0.926496
vt 0.387499 0.670887
vt 0.619193 0.942807
vt 0.390109 0.687500
vt 0.583286 0.958383
vt 0.397390 0.687500
vt 0.599060 0.962941
vt 0.399999 0.670887
vt 0.582749 0.974792
vt 0.402609 0.687500
vt 0.543786 0.978509
vt 0.409890 0.687500
vt 0.557379 0.987718
vt 0.412499 0.670887
vt 0.538205 0.993949
vt 0.415109 0.687500
vt 0.500000 0.985444
vt 0.422390 0.687500
vt 0.510083 0.998403
vt 0.424999 0.670887
vt 0.489921 0.998404
vt 0.427609 0.687500
vt 0.456214 0.978509
vt 0.434890 0.687500
vt 0.461799 0.993950
vt 0.437499 0.670887
vt 0.442624 0.987720
vt 0.440109 0.687500
vt 0.416714 0.958383
vt 0.447390 0.687500
vt 0.417254 0.974793
vt 0.449999 0.670887
vt 0.400943 0.962943
vt 0.452609 0.687500
vt 0.385367 0.927036
vt 0.459890 0.687500
vt 0.380809 0.942810
vt 0.462499 0.670887
vt 0.368958 0.926499
vt 0.465109 0.687500
vt 0.365241 0.887536
vt 0.472390 0.687500
vt 0.356032 0.901130
vt 0.474999 0.670887
vt 0.349801 0.881955
vt 0.477609 0.687500
vt 0.358306 0.843750
vt 0.484890 0.687500
vt 0.345347 0.853833
vt 0.487499 0.670887
vt 0.345346 0.833671
vt 0.490109 0.687500
vt 0.365241 0.799964
vt 0.497390 0.687500
vt 0.349800 0.805549
vt 0.499999 0.670887
vt 0.356030 0.786374
vt 0.502609 0.687500
vt 0.385367 0.760464
vt 0.509890 0.687500
vt 0.368957 0.761004
vt 0.512499 0.670887
vt 0.380807 0.744693
vt 0.515109 0.687500
vt 0.416714 0.729117
vt 0.522390 0.687500
vt 0.400940 0.724559
vt 0.524999 0.670887
vt 0.417251 0.712708
vt 0.527609 0.687500
vt 0.456214 0.708991
vt 0.534890 0.687500
vt 0.442620 0.699782
vt 0.537499 0.670887
vt 0.461795 0.693551
vt 0.540109 0.687500
vt 0.500000 0.702056
vt 0.547390 0.687500
vt 0.489917 0.689097
vt 0.549999 0.670887
vt 0.510079 0.689096
vt 0.552609 0.687500
vt 0.543786 0.708991
vt 0.559890 0.687500
vt 0.538201 0.693550
vt 0.562499 0.670887
vt 0.557376 0.699780
vt 0.565109 0.687500
vt 0.583286 0.729117
vt 0.572390 0.687500
vt 0.582746 0.712707
vt 0.574999 0.670887
vt 0.599057 0.724557
vt 0.577609 0.687500
vt 0.614633 0.760464
vt 0.584890 0.687500
vt 0.619191 0.744690
vt 0.587499 0.670887
vt 0.631042 0.761001
vt 0.590109 0.687500
vt 0.634759 0.799964
vt 0.597390 0.687500
vt 0.643968 0.786370
vt 0.599999 0.670887
vt 0.650199 0.805545
vt 0.602609 0.687500
vt 0.641694 0.843750
vt 0.609890 0.687500
vt 0.654653 0.833667
vt 0.612499 0.670887
vt 0.654654 0.853829
vt 0.615109 0.687500
vt 0.555101 0.156250
vt 0.552404 0.173277
vt 0.544578 0.188637
vt 0.532387 0.200828
vt 0.517027 0.208654
vt 0.500000 0.211351
vt 0.482973 0.208654
vt 0.467613 0.200828
vt 0.455422 0.188637
vt 0.447596 0.173277
vt 0.444899 0.156250
vt 0.447596 0.139223
vt 0.455422 0.123863
vt 0.467613 0.111673
vt 0.482973 0.103846
vt 0.500000 0.101149
vt 0.517027 0.103846
vt 0.532387 0.111672
vt 0.544578 0.123863
vt 0.552404 0.139223
vt 0.555101 0.843750
vt 0.552404 0.860777
vt 0.544577 0.876137
vt 0.532387 0.888327
vt 0.517027 0.896154
vt 0.500000 0.898851
vt 0.482973 0.896154
vt 0.467613 0.888328
vt 0.455423 0.876137
vt 0.447596 0.860777
vt 0.444899 0.843750
vt 0.447596 0.826723
vt 0.455422 0.811363
vt 0.467613 0.799172
vt 0.482973 0.791346
vt 0.500000 0.788649
vt 0.517027 0.791346
vt 0.532387 0.799172
vt 0.544578 0.811363
vt 0.552404 0.826723
vt 0.375000 0.312500
vt 0.625000 0.312500
vt 0.648603 0.107966
vt 0.387500 0.312500
vt 0.626409 0.064408
vt 0.400000 0.312500
vt 0.591842 0.029841
vt 0.412500 0.312500
vt 0.548284 0.007647
vt 0.425000 0.312500
vt 0.500000 -0.000000
vt 0.437500 0.312500
vt 0.451716 0.007647
vt 0.450000 0.312500
vt 0.408159 0.029841
vt 0.462500 0.312500
vt 0.373591 0.064409
vt 0.475000 0.312500
vt 0.351397 0.107966
vt 0.487500 0.312500
vt 0.343750 0.156250
vt 0.500000 0.312500
vt 0.351397 0.204534
vt 0.512500 0.312500
vt 0.373591 0.248091
vt 0.525000 0.312500
vt 0.408159 0.282659
vt 0.537500 0.312500
vt 0.451716 0.304853
vt 0.550000 0.312500
vt 0.500000 0.312500
vt 0.562500 0.312500
vt 0.548284 0.304853
vt 0.575000 0.312500
vt 0.591841 0.282659
vt 0.587500 0.312500
vt 0.626409 0.248091
vt 0.600000 0.312500
vt 0.648603 0.204534
vt 0.612500 0.312500
vt 0.656250 0.156250
vt 0.625000 0.687500
vt 0.375000 0.687500
vt 0.648603 0.892034
vt 0.387500 0.687500
vt 0.626409 0.935591
vt 0.400000 0.687500
vt 0.591841 0.970159
vt 0.412500 0.687500
vt 0.548284 0.992353
vt 0.425000 0.687500
vt 0.500000 1.000000
vt 0.437500 0.687500
vt 0.451716 0.992353
vt 0.450000 0.687500
vt 0.408159 0.970159
vt 0.462500 0.687500
vt 0.373591 0.935591
vt 0.475000 0.687500
vt 0.351397 0.892034
vt 0.487500 0.687500
vt 0.343750 0.843750
vt 0.500000 0.687500
vt 0.351397 0.795466
vt 0.512500 0.687500
vt 0.373591 0.751909
vt 0.525000 0.687500
vt 0.408159 0.717341
vt 0.537500 0.687500
vt 0.451716 0.695147
vt 0.550000 0.687500
vt 0.500000 0.687500
vt 0.562500 0.687500
vt 0.548284 0.695147
vt 0.575000 0.687500
vt 0.591842 0.717341
vt 0.587500 0.687500
vt 0.626409 0.751908
vt 0.600000 0.687500
vt 0.648603 0.795466
vt 0.612500 0.687500
vt 0.656250 0.843750
vt 0.500000 0.156250
vt 0.500000 0.843750
vn 0.066714 -0.997247 -0.032358
vn 0.045771 -0.998841 -0.014888
vn 0.000000 -1.000000 -0.000000
vn 0.000000 -1.000000 -0.000000
vn 0.072989 -0.997248 -0.013021
vn 0.000000 -1.000000 0.000000
vn 0.899837 -0.013385 -0.436021
vn 0.830461 -0.384689 -0.402925
vn 0.814139 -0.384734 -0.434923
vn 0.881662 -0.013399 -0.471692
vn 0.342968 -0.924833 -0.164489
vn 0.065393 -0.997248 -0.034939
vn 0.334630 -0.924859 -0.180715
vn 0.984271 -0.013399 -0.176155
vn 0.950973 -0.013823 -0.308965
vn 0.950959 0.013823 -0.309008
vn 0.984271 0.013385 -0.176160
vn 0.899834 0.013399 -0.436026
vn 0.374096 -0.924859 -0.068463
vn 0.377011 -0.924833 -0.050455
vn 0.073448 -0.997247 -0.010158
vn 0.908691 -0.384734 -0.162052
vn 0.990534 -0.013385 -0.136614
vn 0.914326 -0.384689 -0.126575
vn 0.053449 -0.997247 -0.051390
vn 0.038931 -0.998841 -0.028303
vn 0.000000 -1.000000 0.000000
vn 0.000000 -1.000000 -0.000000
vn 0.721057 -0.013385 -0.692746
vn 0.665304 -0.384689 -0.639832
vn 0.639893 -0.384734 -0.665220
vn 0.692749 -0.013399 -0.721054
vn 0.275351 -0.924833 -0.262422
vn 0.051396 -0.997248 -0.053437
vn 0.262408 -0.924859 -0.275278
vn 0.808953 -0.013823 -0.587710
vn 0.808926 0.013823 -0.587747
vn 0.881660 0.013385 -0.471696
vn 0.721053 0.013399 -0.692750
vn 0.034953 -0.997247 -0.065391
vn 0.028279 -0.998841 -0.038948
vn 0.000000 -1.000000 -0.000000
vn 0.000000 -1.000000 0.000000
vn 0.471696 -0.013385 -0.881660
vn 0.435024 -0.384689 -0.814106
vn 0.403010 -0.384734 -0.830399
vn 0.436026 -0.013399 -0.899834
vn 0.180782 -0.924833 -0.334666
vn 0.032367 -0.997248 -0.066703
vn 0.164499 -0.924859 -0.342893
vn 0.587748 -0.013823 -0.808926
vn 0.587710 0.013823 -0.808953
vn 0.692746 0.013385 -0.721058
vn 0.471691 0.013399 -0.881662
vn 0.013035 -0.997247 -0.072992
vn 0.014860 -0.998841 -0.045780
vn 0.000000 -1.000000 -0.000000
vn 0.000000 -1.000000 -0.000000
vn 0.176162 -0.013385 -0.984270
vn 0.162159 -0.384689 -0.908691
vn 0.126679 -0.384734 -0.914293
vn 0.136621 -0.013399 -0.990533
vn 0.068516 -0.924833 -0.374151
vn 0.010171 -0.997248 -0.073440
vn 0.050488 -0.924859 -0.376943
vn 0.309009 -0.013823 -0.950959
vn 0.308966 0.013823 -0.950973
vn 0.436021 0.013385 -0.899837
vn 0.176157 0.013399 -0.984271
vn -0.010158 -0.997247 -0.073448
vn -0.000015 -0.998841 -0.048132
vn 0.000000 -1.000000 -0.000000
vn 0.000000 -1.000000 -0.000000
vn -0.136616 -0.013385 -0.990534
vn -0.126578 -0.384690 -0.914326
vn -0.162053 -0.384735 -0.908690
vn -0.176157 -0.013399 -0.984271
vn -0.050456 -0.924833 -0.377011
vn -0.013021 -0.997248 -0.072989
vn -0.068465 -0.924859 -0.374096
vn 0.000023 -0.013823 -0.999904
vn -0.000023 0.013823 -0.999904
vn 0.136616 0.013385 -0.990534
vn -0.136621 0.013399 -0.990533
vn -0.032358 -0.997247 -0.066713
vn -0.014887 -0.998841 -0.045771
vn 0.000000 -1.000000 -0.000000
vn 0.000000 -1.000000 -0.000000
vn -0.436022 -0.013385 -0.899837
vn -0.402926 -0.384689 -0.830461
vn -0.434924 -0.384734 -0.814138
vn -0.471692 -0.013399 -0.881662
vn -0.164490 -0.924833 -0.342968
vn -0.034939 -0.997248 -0.065393
vn -0.180716 -0.924859 -0.334630
vn -0.308966 -0.013823 -0.950972
vn -0.309010 0.013823 -0.950958
vn -0.176162 0.013385 -0.984270
vn -0.436026 0.013399 -0.899834
vn -0.051390 -0.997247 -0.053450
vn -0.028303 -0.998841 -0.038931
vn 0.000000 -1.000000 -0.000000
vn 0.000000 -1.000000 -0.000000
vn -0.692746 -0.013385 -0.721057
vn -0.639832 -0.384689 -0.665304
vn -0.665219 -0.384734 -0.639893
vn -0.721054 -0.013399 -0.692749
vn -0.262422 -0.924833 -0.275352
vn -0.053436 -0.997248 -0.051396
vn -0.275278 -0.924859 -0.262408
vn -0.587710 -0.013823 -0.808953
vn -0.587748 0.013823 -0.808926
vn -0.471697 0.013385 -0.881659
vn -0.692750 0.013399 -0.721054
vn -0.065391 -0.997247 -0.034953
vn -0.038948 -0.998841 -0.028279
vn 0.000000 -1.000000 0.000000
vn 0.000000 -1.000000 0.000000
vn -0.881660 -0.013385 -0.471696
vn -0.814106 -0.384689 -0.435024
vn -0.830399 -0.384733 -0.403011
vn -0.899835 -0.013399 -0.436026
vn -0.334666 -0.924833 -0.180783
vn -0.066703 -0.997248 -0.032367
vn -0.342893 -0.924859 -0.164499
vn -0.808926 -0.013823 -0.587747
vn -0.808953 0.013823 -0.587710
vn -0.721058 0.013385 -0.692746
vn -0.881662 0.013399 -0.471692
vn -0.072992 -0.997247 -0.013035
vn -0.045780 -0.998841 -0.014860
vn 0.000000 -1.000000 0.000000
vn 0.000000 -1.000000 0.000000
vn -0.984270 -0.013385 -0.176162
vn -0.908690 -0.384690 -0.162160
vn -0.914293 -0.384734 -0.126679
vn -0.990533 -0.013399 -0.136621
vn -0.374151 -0.924833 -0.068517
vn -0.073440 -0.997248 -0.010171
vn -0.376944 -0.924859 -0.050488
vn -0.950959 -0.013823 -0.309009
vn -0.950973 0.013823 -0.308966
vn -0.899837 0.013385 -0.436021
vn -0.984271 0.013399 -0.176157
vn -0.073448 -0.997247 0.010158
vn -0.048132 -0.998841 0.000014
vn 0.000000 -1.000000 0.000000
vn 0.000000 -1.000000 0.000000
vn -0.990534 -0.013385 0.136616
vn -0.914326 -0.384689 0.126578
vn -0.908691 -0.384734 0.162054
vn -0.984271 -0.013399 0.176157
vn -0.377011 -0.924833 0.050456
vn -0.072989 -0.997248 0.013021
vn -0.374096 -0.924859 0.068465
vn -0.999904 -0.013823 -0.000023
vn -0.999904 0.013823 0.000023
vn -0.990534 0.013385 -0.136616
vn -0.990533 0.013399 0.136621
vn -0.066714 -0.997247 0.032358
vn -0.045771 -0.998841 0.014887
vn 0.000000 -1.000000 0.000000
vn 0.000000 -1.000000 0.000000
vn -0.899837 -0.013385 0.436021
vn -0.830461 -0.384689 0.402925
vn -0.814139 -0.384734 0.434923
vn -0.881661 -0.013399 0.471692
vn -0.342968 -0.924833 0.164490
vn -0.065393 -0.997248 0.034939
vn -0.334630 -0.924859 0.180717
vn -0.950973 -0.013823 0.308966
vn -0.950959 0.013823 0.309009
vn -0.984270 0.013385 0.176162
vn -0.899834 0.013399 0.436026
vn -0.053449 -0.997247 0.051390
vn -0.038931 -0.998841 0.028303
vn 0.000000 -1.000000 0.000000
vn 0.000000 -1.000000 0.000000
vn -0.721057 -0.013385 0.692746
vn -0.665304 -0.384689 0.639831
vn -0.639893 -0.384734 0.665219
vn -0.692749 -0.013399 0.721054
vn -0.275351 -0.924833 0.262422
vn -0.051396 -0.997248 0.053437
vn -0.262408 -0.924859 0.275278
vn -0.808953 -0.013823 0.587711
vn -0.808926 0.013823 0.587748
vn -0.881659 0.013385 0.471697
vn -0.721054 0.013399 0.692750
vn -0.034953 -0.997247 0.065391
vn -0.028279 -0.998841 0.038948
vn 0.000000 -1.000000 0.000000
vn 0.000000 -1.000000 0.000000
vn -0.471697 -0.013385 0.881659
vn -0.435024 -0.384689 0.814106
vn -0.403011 -0.384734 0.830399
vn -0.436026 -0.013399 0.899834
vn -0.180782 -0.924833 0.334665
vn -0.032367 -0.997248 0.066703
vn -0.164499 -0.924859 0.342892
vn -0.587748 -0.013823 0.808926
vn -0.587711 0.013823 0.808953
vn -0.692746 0.013385 0.721058
vn -0.471692 0.013399 0.881661
vn -0.013035 -0.997247 0.072992
vn -0.014860 -0.998841 0.045780
vn 0.000000 -1.000000 -0.000000
vn 0.000000 -1.000000 0.000000
vn -0.176162 -0.013385 0.984270
vn -0.162159 -0.384689 0.908691
vn -0.126678 -0.384734 0.914293
vn -0.136621 -0.013399 0.990533
vn -0.068516 -0.924833 0.374151
vn -0.010171 -0.997248 0.073440
vn -0.050488 -0.924859 0.376943
vn -0.309008 -0.013823 0.950959
vn -0.308964 0.013823 0.950973
vn -0.436021 0.013385 0.899837
vn -0.176157 0.013399 0.984271
vn 0.010158 -0.997247 0.073448
vn 0.000014 -0.998841 0.048132
vn 0.000000 -1.000000 -0.000000
vn 0.000000 -1.000000 -0.000000
vn 0.136617 -0.013385 0.990534
vn 0.126578 -0.384690 0.914326
vn 0.162054 -0.384735 0.908690
vn 0.176158 -0.013399 0.984271
vn 0.050456 -0.924833 0.377012
vn 0.013021 -0.997248 0.072989
vn 0.068465 -0.924859 0.374096
vn -0.000023 -0.013823 0.999904
vn 0.000023 0.013823 0.999904
vn -0.136616 0.013385 0.990534
vn 0.136622 0.013399 0.990533
vn 0.032358 -0.997247 0.066714
vn 0.014887 -0.998841 0.045771
vn 0.000000 -1.000000 0.000000
vn 0.000000 -1.000000 0.000000
vn 0.436021 -0.013385 0.899837
vn 0.402925 -0.384689 0.830461
vn 0.434923 -0.384734 0.814139
vn 0.471692 -0.013399 0.881662
vn 0.164489 -0.924833 0.342968
vn 0.034939 -0.997248 0.065393
vn 0.180716 -0.924859 0.334630
vn 0.308965 -0.013823 0.950973
vn 0.309008 0.013823 0.950959
vn 0.176163 0.013385 0.984270
vn 0.436026 0.013399 0.899835
vn 0.051390 -0.997247 0.053450
vn 0.028303 -0.998841 0.038931
vn 0.000000 -1.000000 0.000000
vn 0.000000 -1.000000 0.000000
vn 0.692746 -0.013385 0.721058
vn 0.639831 -0.384689 0.665305
vn 0.665219 -0.384733 0.639893
vn 0.721054 -0.013399 0.692749
vn 0.262422 -0.924833 0.275352
vn 0.053436 -0.997248 0.051396
vn 0.275277 -0.924859 0.262408
vn 0.587711 -0.013823 0.808953
vn 0.587748 0.013823 0.808926
vn 0.471696 0.013385 0.881659
vn 0.692749 0.013399 0.721054
vn 0.065391 -0.997247 0.034953
vn 0.038948 -0.998841 0.028279
vn 0.000000 -1.000000 0.000000
vn 0.000000 -1.000000 -0.000001
vn 0.881660 -0.013385 0.471696
vn 0.814106 -0.384689 0.435024
vn 0.830398 -0.384734 0.403011
vn 0.899835 -0.013399 0.436026
vn 0.334666 -0.924833 0.180783
vn 0.066703 -0.997248 0.032367
vn 0.342893 -0.924859 0.164500
vn 0.808926 -0.013823 0.587748
vn 0.808953 0.013823 0.587710
vn 0.721058 0.013385 0.692746
vn 0.881662 0.013399 0.471692
vn 0.072992 -0.997247 0.013036
vn 0.045780 -0.998841 0.014859
vn 0.000000 -1.000000 -0.000000
vn 0.000000 -1.000000 -0.000000
vn 0.984270 -0.013385 0.176163
vn 0.908690 -0.384690 0.162160
vn 0.914293 -0.384735 0.126679
vn 0.990533 -0.013399 0.136622
vn 0.374151 -0.924833 0.068516
vn 0.073440 -0.997248 0.010170
vn 0.376944 -0.924859 0.050488
vn 0.950959 -0.013823 0.309009
vn 0.950973 0.013823 0.308965
vn 0.899837 0.013385 0.436021
vn 0.984271 0.013399 0.176158
vn 0.048132 -0.998841 -0.000015
vn 0.000000 -1.000000 -0.000000
vn 0.999904 -0.013823 0.000023
vn 0.999904 0.013823 -0.000023
vn 0.990534 0.013385 0.136617
vn 0.990533 0.013399 -0.136619
vn 0.072992 0.997247 -0.013035
vn 0.045780 0.998841 -0.014859
vn 0.000000 1.000000 0.000000
vn 0.000000 1.000000 0.000000
vn 0.066703 0.997248 -0.032367
vn 0.000000 1.000000 0.000000
vn 0.908691 0.384689 -0.162157
vn 0.914294 0.384734 -0.126677
vn 0.374150 0.924834 -0.068516
vn 0.073440 0.997248 -0.010171
vn 0.376942 0.924860 -0.050487
vn 0.342891 0.924860 -0.164498
vn 0.334665 0.924834 -0.180781
vn 0.065391 0.997247 -0.034953
vn 0.830399 0.384733 -0.403011
vn 0.814106 0.384689 -0.435024
vn 0.038948 0.998841 -0.028279
vn 0.000000 1.000000 0.000000
vn 0.053436 0.997248 -0.051395
vn 0.000000 1.000000 0.000000
vn 0.275277 0.924860 -0.262407
vn 0.262421 0.924834 -0.275350
vn 0.051390 0.997247 -0.053449
vn 0.665219 0.384734 -0.639893
vn 0.639831 0.384689 -0.665305
vn 0.028303 0.998841 -0.038931
vn 0.000000 1.000000 -0.000000
vn 0.034939 0.997248 -0.065393
vn 0.000000 1.000000 0.000000
vn 0.180715 0.924860 -0.334629
vn 0.164489 0.924833 -0.342967
vn 0.032358 0.997247 -0.066713
vn 0.434922 0.384734 -0.814139
vn 0.402925 0.384690 -0.830461
vn 0.014887 0.998841 -0.045771
vn 0.000000 1.000000 -0.000000
vn 0.013021 0.997248 -0.072989
vn 0.000000 1.000000 -0.000000
vn 0.068464 0.924860 -0.374094
vn 0.050456 0.924834 -0.377009
vn 0.010158 0.997247 -0.073447
vn 0.162054 0.384735 -0.908690
vn 0.126578 0.384690 -0.914326
vn 0.000015 0.998841 -0.048131
vn 0.000000 1.000000 -0.000000
vn -0.010171 0.997248 -0.073440
vn 0.000000 1.000000 -0.000000
vn -0.050488 0.924860 -0.376942
vn -0.068516 0.924834 -0.374150
vn -0.013035 0.997247 -0.072992
vn -0.126678 0.384734 -0.914293
vn -0.162160 0.384689 -0.908690
vn -0.014860 0.998841 -0.045780
vn 0.000000 1.000000 0.000000
vn -0.032367 0.997248 -0.066703
vn 0.000000 1.000000 0.000000
vn -0.164499 0.924860 -0.342891
vn -0.180782 0.924834 -0.334664
vn -0.034953 0.997247 -0.065391
vn -0.403011 0.384734 -0.830399
vn -0.435024 0.384689 -0.814106
vn -0.028279 0.998841 -0.038948
vn 0.000000 1.000000 0.000000
vn -0.051395 0.997248 -0.053436
vn 0.000000 1.000000 0.000000
vn -0.262407 0.924859 -0.275277
vn -0.275351 0.924834 -0.262421
vn -0.053449 0.997247 -0.051390
vn -0.639893 0.384734 -0.665219
vn -0.665305 0.384689 -0.639831
vn -0.038931 0.998841 -0.028303
vn 0.000000 1.000000 0.000000
vn -0.065393 0.997248 -0.034939
vn 0.000000 1.000000 0.000000
vn -0.334629 0.924860 -0.180715
vn -0.342966 0.924834 -0.164489
vn -0.066714 0.997247 -0.032358
vn -0.814139 0.384733 -0.434923
vn -0.830461 0.384689 -0.402925
vn -0.045771 0.998841 -0.014887
vn 0.000000 1.000000 0.000000
vn -0.072989 0.997248 -0.013021
vn 0.000000 1.000000 0.000000
vn -0.374095 0.924860 -0.068464
vn -0.377010 0.924834 -0.050455
vn -0.073447 0.997247 -0.010158
vn -0.908691 0.384733 -0.162054
vn -0.914326 0.384689 -0.126578
vn -0.048132 0.998841 -0.000014
vn 0.000000 1.000000 0.000000
vn -0.073440 0.997248 0.010171
vn 0.000000 1.000000 0.000000
vn -0.376942 0.924860 0.050488
vn -0.374150 0.924834 0.068516
vn -0.072992 0.997247 0.013035
vn -0.914293 0.384734 0.126678
vn -0.908690 0.384690 0.162160
vn -0.045780 0.998841 0.014860
vn 0.000000 1.000000 0.000000
vn -0.066703 0.997248 0.032367
vn 0.000000 1.000000 0.000000
vn -0.342892 0.924860 0.164499
vn -0.334665 0.924833 0.180782
vn -0.065391 0.997247 0.034953
vn -0.830399 0.384734 0.403011
vn -0.814106 0.384689 0.435024
vn -0.038948 0.998841 0.028279
vn 0.000000 1.000000 0.000000
vn -0.053436 0.997248 0.051395
vn 0.000000 1.000000 0.000000
vn -0.275276 0.924860 0.262407
vn -0.262420 0.924834 0.275351
vn -0.051390 0.997247 0.053449
vn -0.665219 0.384734 0.639893
vn -0.639831 0.384689 0.665305
vn -0.028303 0.998841 0.038931
vn 0.000000 1.000000 0.000000
vn -0.034939 0.997248 0.065393
vn 0.000000 1.000000 -0.000000
vn -0.180715 0.924860 0.334629
vn -0.164489 0.924834 0.342966
vn -0.032358 0.997247 0.066713
vn -0.434923 0.384735 0.814138
vn -0.402925 0.384691 0.830460
vn -0.014887 0.998841 0.045771
vn 0.000000 1.000000 -0.000000
vn -0.013021 0.997248 0.072989
vn 0.000000 1.000000 0.000000
vn -0.068464 0.924859 0.374096
vn -0.050455 0.924834 0.377011
vn -0.010158 0.997247 0.073448
vn -0.162054 0.384734 0.908690
vn -0.126578 0.384690 0.914326
vn -0.000014 0.998841 0.048132
vn 0.000000 1.000000 0.000000
vn 0.010171 0.997248 0.073440
vn 0.000000 1.000000 -0.000000
vn 0.050488 0.924860 0.376942
vn 0.068516 0.924834 0.374150
vn 0.013035 0.997247 0.072992
vn 0.126679 0.384734 0.914293
vn 0.162160 0.384689 0.908690
vn 0.014860 0.998841 0.045780
vn 0.000000 1.000000 0.000000
vn 0.032367 0.997248 0.066703
vn 0.000000 1.000000 0.000000
vn 0.164498 0.924860 0.342891
vn 0.180781 0.924834 0.334664
vn 0.034953 0.997247 0.065391
vn 0.403010 0.384733 0.830399
vn 0.435023 0.384689 0.814106
vn 0.028279 0.998841 0.038948
vn 0.000000 1.000000 0.000000
vn 0.051395 0.997248 0.053436
vn 0.000000 1.000000 0.000000
vn 0.262407 0.924860 0.275276
vn 0.275351 0.924834 0.262421
vn 0.053449 0.997247 0.051390
vn 0.639893 0.384734 0.665219
vn 0.665305 0.384689 0.639831
vn 0.038931 0.998841 0.028303
vn 0.000000 1.000000 0.000000
vn 0.065393 0.997248 0.034939
vn 0.000000 1.000000 -0.000000
vn 0.334629 0.924860 0.180716
vn 0.342966 0.924834 0.164490
vn 0.066713 0.997247 0.032357
vn 0.814138 0.384734 0.434923
vn 0.830461 0.384690 0.402925
vn 0.045771 0.998841 0.014887
vn 0.000000 1.000000 -0.000000
vn 0.072989 0.997248 0.013022
vn 0.000000 1.000000 0.000000
vn 0.374095 0.924860 0.068464
vn 0.377010 0.924834 0.050456
vn 0.073447 0.997247 0.010159
vn 0.908690 0.384734 0.162054
vn 0.914326 0.384690 0.126578
vn 0.048131 0.998841 0.000015
vn 0.000000 1.000000 0.000000
vn 0.358923 -0.926037 -0.116744
vn 0.876503 -0.387929 -0.285052
vn 0.305281 -0.926037 -0.221944
vn 0.745517 -0.387930 -0.541954
vn 0.221755 -0.926037 -0.305419
vn 0.541556 -0.387929 -0.745807
vn 0.116521 -0.926037 -0.358996
vn 0.284583 -0.387929 -0.876655
vn -0.000118 -0.926037 -0.377433
vn -0.000246 -0.387930 -0.921689
vn -0.116745 -0.926037 -0.358924
vn -0.285051 -0.387929 -0.876502
vn -0.221944 -0.926037 -0.305280
vn -0.541955 -0.387929 -0.745518
vn -0.305419 -0.926037 -0.221755
vn -0.745807 -0.387930 -0.541556
vn -0.358996 -0.926037 -0.116521
vn -0.876655 -0.387929 -0.284583
vn -0.377433 -0.926037 0.000117
vn -0.921689 -0.387930 0.000246
vn -0.358924 -0.926037 0.116745
vn -0.876502 -0.387930 0.285052
vn -0.305281 -0.926037 0.221944
vn -0.745517 -0.387929 0.541955
vn -0.221754 -0.926037 0.305418
vn -0.541556 -0.387929 0.745807
vn -0.116521 -0.926037 0.358996
vn -0.284583 -0.387930 0.876655
vn 0.000117 -0.926037 0.377433
vn 0.000247 -0.387930 0.921689
vn 0.116745 -0.926037 0.358924
vn 0.285052 -0.387929 0.876502
vn 0.221945 -0.926037 0.305282
vn 0.541954 -0.387930 0.745517
vn 0.305419 -0.926037 0.221754
vn 0.745807 -0.387929 0.541555
vn 0.358996 -0.926037 0.116522
vn 0.876655 -0.387928 0.284584
vn 0.377433 -0.926037 -0.000117
vn 0.921690 -0.387928 -0.000246
vn 0.358995 0.926038 -0.116521
vn 0.876655 0.387929 -0.284582
vn 0.305418 0.926038 -0.221753
vn 0.745807 0.387929 -0.541557
vn 0.221943 0.926037 -0.305279
vn 0.541954 0.387929 -0.745518
vn 0.116745 0.926037 -0.358923
vn 0.285052 0.387930 -0.876502
vn 0.000118 0.926038 -0.377431
vn 0.000246 0.387929 -0.921689
vn -0.116521 0.926037 -0.358995
vn -0.284584 0.387929 -0.876655
vn -0.221753 0.926037 -0.305418
vn -0.541557 0.387930 -0.745806
vn -0.305279 0.926038 -0.221943
vn -0.745517 0.387928 -0.541955
vn -0.358922 0.926037 -0.116745
vn -0.876502 0.387929 -0.285052
vn -0.377431 0.926038 -0.000117
vn -0.921689 0.387930 -0.000246
vn -0.358994 0.926038 0.116521
vn -0.876655 0.387929 0.284583
vn -0.305418 0.926038 0.221753
vn -0.745807 0.387929 0.541556
vn -0.221944 0.926037 0.305280
vn -0.541954 0.387930 0.745517
vn -0.116745 0.926037 0.358922
vn -0.285052 0.387929 0.876502
vn -0.000117 0.926038 0.377431
vn -0.000247 0.387930 0.921689
vn 0.116521 0.926037 0.358995
vn 0.284584 0.387929 0.876655
vn 0.221753 0.926038 0.305417
vn 0.541556 0.387929 0.745807
vn 0.305280 0.926037 0.221944
vn 0.745517 0.387930 0.541954
vn 0.358922 0.926037 0.116745
vn 0.876503 0.387929 0.285051
vn 0.377431 0.926038 0.000118
vn 0.921689 0.387931 0.000246
vn 0.000000 -1.000000 0.000000
vn 0.000000 1.000000 -0.000000
s 1
g pCylinder2
usemtl initialShadingGroup
f 2/1/1 1/201/2 359/462/3 358/5/4
f 1/201/2 8/161/5 360/76/6 359/462/3
s 2
f 4/2/7 3/202/8 15/213/9 14/141/10
s 1
f 3/203/11 2/1/1 16/4/12 15/212/13
s 2
f 6/3/14 5/204/15 165/326/16 164/160/17
f 5/205/15 4/2/7 166/82/18 165/325/16
s 1
f 8/161/5 7/206/19 155/318/20 154/162/21
s 2
f 7/207/22 6/3/14 156/79/23 155/317/24
s 1
f 10/6/25 9/208/26 357/461/27 356/9/28
f 9/208/26 16/4/12 358/5/4 357/461/27
s 2
f 12/7/29 11/209/30 23/219/31 22/142/32
s 1
f 11/210/33 10/6/25 24/8/34 23/218/35
s 2
f 14/141/10 13/211/36 173/332/37 172/83/38
f 13/211/36 12/7/29 174/85/39 173/332/37
s 1
f 18/10/40 17/214/41 355/460/42 354/13/43
f 17/214/41 24/8/34 356/9/28 355/460/42
s 2
f 20/11/44 19/215/45 31/225/46 30/143/47
s 1
f 19/216/48 18/10/40 32/12/49 31/224/50
s 2
f 22/142/32 21/217/51 181/338/52 180/86/53
f 21/217/51 20/11/44 182/88/54 181/338/52
s 1
f 26/14/55 25/220/56 353/459/57 352/17/58
f 25/220/56 32/12/49 354/13/43 353/459/57
s 2
f 28/15/59 27/221/60 39/231/61 38/144/62
s 1
f 27/222/63 26/14/55 40/16/64 39/230/65
s 2
f 30/143/47 29/223/66 189/344/67 188/89/68
f 29/223/66 28/15/59 190/91/69 189/344/67
s 1
f 34/18/70 33/226/71 351/458/72 350/21/73
f 33/226/71 40/16/64 352/17/58 351/458/72
s 2
f 36/19/74 35/227/75 47/237/76 46/145/77
s 1
f 35/228/78 34/18/70 48/20/79 47/236/80
s 2
f 38/144/62 37/229/81 197/350/82 196/92/83
f 37/229/81 36/19/74 198/94/84 197/350/82
s 1
f 42/22/85 41/232/86 349/457/87 348/25/88
f 41/232/86 48/20/79 350/21/73 349/457/87
s 2
f 44/23/89 43/233/90 55/243/91 54/146/92
s 1
f 43/234/93 42/22/85 56/24/94 55/242/95
s 2
f 46/145/77 45/235/96 205/356/97 204/95/98
f 45/235/96 44/23/89 206/97/99 205/356/97
s 1
f 50/26/100 49/238/101 347/456/102 346/29/103
f 49/238/101 56/24/94 348/25/88 347/456/102
s 2
f 52/27/104 51/239/105 63/249/106 62/147/107
s 1
f 51/240/108 50/26/100 64/28/109 63/248/110
s 2
f 54/146/92 53/241/111 213/362/112 212/98/113
f 53/241/111 52/27/104 214/100/114 213/362/112
s 1
f 58/30/115 57/244/116 345/455/117 344/33/118
f 57/244/116 64/28/109 346/29/103 345/455/117
s 2
f 60/31/119 59/245/120 71/255/121 70/148/122
s 1
f 59/246/123 58/30/115 72/32/124 71/254/125
s 2
f 62/147/107 61/247/126 221/368/127 220/101/128
f 61/247/126 60/31/119 222/103/129 221/368/127
s 1
f 66/34/130 65/250/131 343/454/132 342/37/133
f 65/250/131 72/32/124 344/33/118 343/454/132
s 2
f 68/35/134 67/251/135 79/261/136 78/149/137
s 1
f 67/252/138 66/34/130 80/36/139 79/260/140
s 2
f 70/148/122 69/253/141 229/374/142 228/104/143
f 69/253/141 68/35/134 230/106/144 229/374/142
s 1
f 74/38/145 73/256/146 341/453/147 340/41/148
f 73/256/146 80/36/139 342/37/133 341/453/147
s 2
f 76/39/149 75/257/150 87/267/151 86/150/152
s 1
f 75/258/153 74/38/145 88/40/154 87/266/155
s 2
f 78/149/137 77/259/156 237/380/157 236/107/158
f 77/259/156 76/39/149 238/109/159 237/380/157
s 1
f 82/42/160 81/262/161 339/452/162 338/45/163
f 81/262/161 88/40/154 340/41/148 339/452/162
s 2
f 84/43/164 83/263/165 95/273/166 94/151/167
s 1
f 83/264/168 82/42/160 96/44/169 95/272/170
s 2
f 86/150/152 85/265/171 245/386/172 244/110/173
f 85/265/171 84/43/164 246/112/174 245/386/172
s 1
f 90/46/175 89/268/176 337/451/177 336/49/178
f 89/268/176 96/44/169 338/45/163 337/451/177
s 2
f 92/47/179 91/269/180 103/279/181 102/152/182
s 1
f 91/270/183 90/46/175 104/48/184 103/278/185
s 2
f 94/151/167 93/271/186 253/392/187 252/113/188
f 93/271/186 92/47/179 254/115/189 253/392/187
s 1
f 98/50/190 97/274/191 335/450/192 334/53/193
f 97/274/191 104/48/184 336/49/178 335/450/192
s 2
f 100/51/194 99/275/195 111/285/196 110/153/197
s 1
f 99/276/198 98/50/190 112/52/199 111/284/200
s 2
f 102/152/182 101/277/201 261/398/202 260/116/203
f 101/277/201 100/51/194 262/118/204 261/398/202
s 1
f 106/54/205 105/280/206 333/449/207 332/57/208
f 105/280/206 112/52/199 334/53/193 333/449/207
s 2
f 108/55/209 107/281/210 119/291/211 118/154/212
s 1
f 107/282/213 106/54/205 120/56/214 119/290/215
s 2
f 110/153/197 109/283/216 269/404/217 268/119/218
f 109/283/216 108/55/209 270/121/219 269/404/217
s 1
f 114/58/220 113/286/221 331/448/222 330/61/223
f 113/286/221 120/56/214 332/57/208 331/448/222
s 2
f 116/59/224 115/287/225 127/297/226 126/155/227
s 1
f 115/288/228 114/58/220 128/60/229 127/296/230
s 2
f 118/154/212 117/289/231 277/410/232 276/122/233
f 117/289/231 116/59/224 278/124/234 277/410/232
s 1
f 122/62/235 121/292/236 329/447/237 328/65/238
f 121/292/236 128/60/229 330/61/223 329/447/237
s 2
f 124/63/239 123/293/240 135/303/241 134/156/242
s 1
f 123/294/243 122/62/235 136/64/244 135/302/245
s 2
f 126/155/227 125/295/246 285/416/247 284/125/248
f 125/295/246 124/63/239 286/127/249 285/416/247
s 1
f 130/66/250 129/298/251 327/446/252 326/69/253
f 129/298/251 136/64/244 328/65/238 327/446/252
s 2
f 132/67/254 131/299/255 143/309/256 142/157/257
s 1
f 131/300/258 130/66/250 144/68/259 143/308/260
s 2
f 134/156/242 133/301/261 293/422/262 292/128/263
f 133/301/261 132/67/254 294/130/264 293/422/262
s 1
f 138/70/265 137/304/266 325/445/267 324/73/268
f 137/304/266 144/68/259 326/69/253 325/445/267
s 2
f 140/71/269 139/305/270 151/315/271 150/158/272
s 1
f 139/306/273 138/70/265 152/72/274 151/314/275
s 2
f 142/157/257 141/307/276 301/428/277 300/131/278
f 141/307/276 140/71/269 302/133/279 301/428/277
s 1
f 146/74/280 145/310/281 323/444/282 322/78/283
f 145/310/281 152/72/274 324/73/268 323/444/282
s 2
f 148/75/284 147/311/285 159/321/286 158/159/287
s 1
f 147/312/288 146/74/280 160/77/289 159/320/290
s 2
f 150/158/272 149/313/291 309/434/292 308/134/293
f 149/313/291 148/75/284 310/136/294 309/434/292
s 1
f 154/162/21 153/316/295 321/443/296 360/76/6
f 153/316/295 160/77/289 322/78/283 321/443/296
s 2
f 158/159/287 157/319/297 317/440/298 316/137/299
f 157/319/297 156/79/23 318/80/300 317/440/298
s 40
f 162/81/301 161/322/302 363/464/303 362/140/304
f 161/322/302 168/163/305 364/84/306 363/464/303
s 2
f 164/160/17 163/323/307 319/442/308 318/80/300
s 40
f 163/324/309 162/81/301 320/139/310 319/441/311
f 168/163/305 167/327/312 171/331/313 170/164/314
s 2
f 167/328/315 166/82/18 172/83/38 171/330/316
s 40
f 170/164/314 169/329/317 365/465/318 364/84/306
f 169/329/317 176/165/319 366/87/320 365/465/318
f 176/165/319 175/333/321 179/337/322 178/166/323
s 2
f 175/334/324 174/85/39 180/86/53 179/336/325
s 40
f 178/166/323 177/335/326 367/466/327 366/87/320
f 177/335/326 184/167/328 368/90/329 367/466/327
f 184/167/328 183/339/330 187/343/331 186/168/332
s 2
f 183/340/333 182/88/54 188/89/68 187/342/334
s 40
f 186/168/332 185/341/335 369/467/336 368/90/329
f 185/341/335 192/169/337 370/93/338 369/467/336
f 192/169/337 191/345/339 195/349/340 194/170/341
s 2
f 191/346/342 190/91/69 196/92/83 195/348/343
s 40
f 194/170/341 193/347/344 371/468/345 370/93/338
f 193/347/344 200/171/346 372/96/347 371/468/345
f 200/171/346 199/351/348 203/355/349 202/172/350
s 2
f 199/352/351 198/94/84 204/95/98 203/354/352
s 40
f 202/172/350 201/353/353 373/469/354 372/96/347
f 201/353/353 208/173/355 374/99/356 373/469/354
f 208/173/355 207/357/357 211/361/358 210/174/359
s 2
f 207/358/360 206/97/99 212/98/113 211/360/361
s 40
f 210/174/359 209/359/362 375/470/363 374/99/356
f 209/359/362 216/175/364 376/102/365 375/470/363
f 216/175/364 215/363/366 219/367/367 218/176/368
s 2
f 215/364/369 214/100/114 220/101/128 219/366/370
s 40
f 218/176/368 217/365/371 377/471/372 376/102/365
f 217/365/371 224/177/373 378/105/374 377/471/372
f 224/177/373 223/369/375 227/373/376 226/178/377
s 2
f 223/370/378 222/103/129 228/104/143 227/372/379
s 40
f 226/178/377 225/371/380 379/472/381 378/105/374
f 225/371/380 232/179/382 380/108/383 379/472/381
f 232/179/382 231/375/384 235/379/385 234/180/386
s 2
f 231/376/387 230/106/144 236/107/158 235/378/388
s 40
f 234/180/386 233/377/389 381/473/390 380/108/383
f 233/377/389 240/181/391 382/111/392 381/473/390
f 240/181/391 239/381/393 243/385/394 242/182/395
s 2
f 239/382/396 238/109/159 244/110/173 243/384/397
s 40
f 242/182/395 241/383/398 383/474/399 382/111/392
f 241/383/398 248/183/400 384/114/401 383/474/399
f 248/183/400 247/387/402 251/391/403 250/184/404
s 2
f 247/388/405 246/112/174 252/113/188 251/390/406
s 40
f 250/184/404 249/389/407 385/475/408 384/114/401
f 249/389/407 256/185/409 386/117/410 385/475/408
f 256/185/409 255/393/411 259/397/412 258/186/413
s 2
f 255/394/414 254/115/189 260/116/203 259/396/415
s 40
f 258/186/413 257/395/416 387/476/417 386/117/410
f 257/395/416 264/187/418 388/120/419 387/476/417
f 264/187/418 263/399/420 267/403/421 266/188/422
s 2
f 263/400/423 262/118/204 268/119/218 267/402/424
s 40
f 266/188/422 265/401/425 389/477/426 388/120/419
f 265/401/425 272/189/427 390/123/428 389/477/426
f 272/189/427 271/405/429 275/409/430 274/190/431
s 2
f 271/406/432 270/121/219 276/122/233 275/408/433
s 40
f 274/190/431 273/407/434 391/478/435 390/123/428
f 273/407/434 280/191/436 392/126/437 391/478/435
f 280/191/436 279/411/438 283/415/439 282/192/440
s 2
f 279/412/441 278/124/234 284/125/248 283/414/442
s 40
f 282/192/440 281/413/443 393/479/444 392/126/437
f 281/413/443 288/193/445 394/129/446 393/479/444
f 288/193/445 287/417/447 291/421/448 290/194/449
s 2
f 287/418/450 286/127/249 292/128/263 291/420/451
s 40
f 290/194/449 289/419/452 395/480/453 394/129/446
f 289/419/452 296/195/454 396/132/455 395/480/453
f 296/195/454 295/423/456 299/427/457 298/196/458
s 2
f 295/424/459 294/130/264 300/131/278 299/426/460
s 40
f 298/196/458 297/425/461 397/481/462 396/132/455
f 297/425/461 304/197/463 398/135/464 397/481/462
f 304/197/463 303/429/465 307/433/466 306/198/467
s 2
f 303/430/468 302/133/279 308/134/293 307/432/469
s 40
f 306/198/467 305/431/470 399/482/471 398/135/464
f 305/431/470 312/199/472 400/138/473 399/482/471
f 312/199/472 311/435/474 315/439/475 314/200/476
s 2
f 311/436/477 310/136/294 316/137/299 315/438/478
s 40
f 314/200/476 313/437/479 361/463/480 400/138/473
f 313/437/479 320/139/310 362/140/304 361/463/480
s 2
f 4/2/7 14/141/10 172/83/38 166/82/18
f 12/7/29 22/142/32 180/86/53 174/85/39
f 20/11/44 30/143/47 188/89/68 182/88/54
f 28/15/59 38/144/62 196/92/83 190/91/69
f 36/19/74 46/145/77 204/95/98 198/94/84
f 44/23/89 54/146/92 212/98/113 206/97/99
f 52/27/104 62/147/107 220/101/128 214/100/114
f 60/31/119 70/148/122 228/104/143 222/103/129
f 68/35/134 78/149/137 236/107/158 230/106/144
f 76/39/149 86/150/152 244/110/173 238/109/159
f 84/43/164 94/151/167 252/113/188 246/112/174
f 92/47/179 102/152/182 260/116/203 254/115/189
f 100/51/194 110/153/197 268/119/218 262/118/204
f 108/55/209 118/154/212 276/122/233 270/121/219
f 116/59/224 126/155/227 284/125/248 278/124/234
f 124/63/239 134/156/242 292/128/263 286/127/249
f 132/67/254 142/157/257 300/131/278 294/130/264
f 140/71/269 150/158/272 308/134/293 302/133/279
f 148/75/284 158/159/287 316/137/299 310/136/294
f 156/79/23 6/3/14 164/160/17 318/80/300
s 1
f 16/4/12 2/1/1 358/5/4
f 24/8/34 10/6/25 356/9/28
f 32/12/49 18/10/40 354/13/43
f 40/16/64 26/14/55 352/17/58
f 48/20/79 34/18/70 350/21/73
f 56/24/94 42/22/85 348/25/88
f 64/28/109 50/26/100 346/29/103
f 72/32/124 58/30/115 344/33/118
f 80/36/139 66/34/130 342/37/133
f 88/40/154 74/38/145 340/41/148
f 96/44/169 82/42/160 338/45/163
f 104/48/184 90/46/175 336/49/178
f 112/52/199 98/50/190 334/53/193
f 120/56/214 106/54/205 332/57/208
f 128/60/229 114/58/220 330/61/223
f 136/64/244 122/62/235 328/65/238
f 144/68/259 130/66/250 326/69/253
f 152/72/274 138/70/265 324/73/268
f 160/77/289 146/74/280 322/78/283
f 8/161/5 154/162/21 360/76/6
s 40
f 168/163/305 170/164/314 364/84/306
f 176/165/319 178/166/323 366/87/320
f 184/167/328 186/168/332 368/90/329
f 192/169/337 194/170/341 370/93/338
f 200/171/346 202/172/350 372/96/347
f 208/173/355 210/174/359 374/99/356
f 216/175/364 218/176/368 376/102/365
f 224/177/373 226/178/377 378/105/374
f 232/179/382 234/180/386 380/108/383
f 240/181/391 242/182/395 382/111/392
f 248/183/400 250/184/404 384/114/401
f 256/185/409 258/186/413 386/117/410
f 264/187/418 266/188/422 388/120/419
f 272/189/427 274/190/431 390/123/428
f 280/191/436 282/192/440 392/126/437
f 288/193/445 290/194/449 394/129/446
f 296/195/454 298/196/458 396/132/455
f 304/197/463 306/198/467 398/135/464
f 312/199/472 314/200/476 400/138/473
f 320/139/310 162/81/301 362/140/304
s 1
f 7/206/19 8/161/5 1/201/2 401/485/481
f 1/201/2 2/1/1 3/203/11 401/485/481
s 2
f 3/202/8 4/2/7 5/205/15 401/483/482
f 5/204/15 6/3/14 7/207/22 401/484/482
s 1
f 15/212/13 16/4/12 9/208/26 402/487/483
f 9/208/26 10/6/25 11/210/33 402/487/483
s 2
f 11/209/30 12/7/29 13/211/36 402/486/484
f 13/211/36 14/141/10 15/213/9 402/486/484
s 1
f 23/218/35 24/8/34 17/214/41 403/489/485
f 17/214/41 18/10/40 19/216/48 403/489/485
s 2
f 19/215/45 20/11/44 21/217/51 403/488/486
f 21/217/51 22/142/32 23/219/31 403/488/486
s 1
f 31/224/50 32/12/49 25/220/56 404/491/487
f 25/220/56 26/14/55 27/222/63 404/491/487
s 2
f 27/221/60 28/15/59 29/223/66 404/490/488
f 29/223/66 30/143/47 31/225/46 404/490/488
s 1
f 39/230/65 40/16/64 33/226/71 405/493/489
f 33/226/71 34/18/70 35/228/78 405/493/489
s 2
f 35/227/75 36/19/74 37/229/81 405/492/490
f 37/229/81 38/144/62 39/231/61 405/492/490
s 1
f 47/236/80 48/20/79 41/232/86 406/495/491
f 41/232/86 42/22/85 43/234/93 406/495/491
s 2
f 43/233/90 44/23/89 45/235/96 406/494/492
f 45/235/96 46/145/77 47/237/76 406/494/492
s 1
f 55/242/95 56/24/94 49/238/101 407/497/493
f 49/238/101 50/26/100 51/240/108 407/497/493
s 2
f 51/239/105 52/27/104 53/241/111 407/496/494
f 53/241/111 54/146/92 55/243/91 407/496/494
s 1
f 63/248/110 64/28/109 57/244/116 408/499/495
f 57/244/116 58/30/115 59/246/123 408/499/495
s 2
f 59/245/120 60/31/119 61/247/126 408/498/496
f 61/247/126 62/147/107 63/249/106 408/498/496
s 1
f 71/254/125 72/32/124 65/250/131 409/501/497
f 65/250/131 66/34/130 67/252/138 409/501/497
s 2
f 67/251/135 68/35/134 69/253/141 409/500/498
f 69/253/141 70/148/122 71/255/121 409/500/498
s 1
f 79/260/140 80/36/139 73/256/146 410/503/499
f 73/256/146 74/38/145 75/258/153 410/503/499
s 2
f 75/257/150 76/39/149 77/259/156 410/502/500
f 77/259/156 78/149/137 79/261/136 410/502/500
s 1
f 87/266/155 88/40/154 81/262/161 411/505/501
f 81/262/161 82/42/160 83/264/168 411/505/501
s 2
f 83/263/165 84/43/164 85/265/171 411/504/502
f 85/265/171 86/150/152 87/267/151 411/504/502
s 1
f 95/272/170 96/44/169 89/268/176 412/507/503
f 89/268/176 90/46/175 91/270/183 412/507/503
s 2
f 91/269/180 92/47/179 93/271/186 412/506/504
f 93/271/186 94/151/167 95/273/166 412/506/504
s 1
f 103/278/185 104/48/184 97/274/191 413/509/505
f 97/274/191 98/50/190 99/276/198 413/509/505
s 2
f 99/275/195 100/51/194 101/277/201 413/508/506
f 101/277/201 102/152/182 103/279/181 413/508/506
s 1
f 111/284/200 112/52/199 105/280/206 414/511/507
f 105/280/206 106/54/205 107/282/213 414/511/507
s 2
f 107/281/210 108/55/209 109/283/216 414/510/508
f 109/283/216 110/153/197 111/285/196 414/510/508
s 1
f 119/290/215 120/56/214 113/286/221 415/513/509
f 113/286/221 114/58/220 115/288/228 415/513/509
s 2
f 115/287/225 116/59/224 117/289/231 415/512/510
f 117/289/231 118/154/212 119/291/211 415/512/510
s 1
f 127/296/230 128/60/229 121/292/236 416/515/511
f 121/292/236 122/62/235 123/294/243 416/515/511
s 2
f 123/293/240 124/63/239 125/295/246 416/514/512
f 125/295/246 126/155/227 127/297/226 416/514/512
s 1
f 135/302/245 136/64/244 129/298/251 417/517/513
f 129/298/251 130/66/250 131/300/258 417/517/513
s 2
f 131/299/255 132/67/254 133/301/261 417/516/514
f 133/301/261 134/156/242 135/303/241 417/516/514
s 1
f 143/308/260 144/68/259 137/304/266 418/519/515
f 137/304/266 138/70/265 139/306/273 418/519/515
s 2
f 139/305/270 140/71/269 141/307/276 418/518/516
f 141/307/276 142/157/257 143/309/256 418/518/516
s 1
f 151/314/275 152/72/274 145/310/281 419/521/517
f 145/310/281 146/74/280 147/312/288 419/521/517
s 2
f 147/311/285 148/75/284 149/313/291 419/520/518
f 149/313/291 150/158/272 151/315/271 419/520/518
s 1
f 159/320/290 160/77/289 153/316/295 420/523/519
f 153/316/295 154/162/21 155/318/20 420/523/519
s 2
f 155/317/24 156/79/23 157/319/297 420/522/520
f 157/319/297 158/159/287 159/321/286 420/522/520
s 40
f 167/327/312 168/163/305 161/322/302 421/526/521
f 161/322/302 162/81/301 163/324/309 421/526/521
s 2
f 163/323/307 164/160/17 165/326/16 421/524/522
f 165/325/16 166/82/18 167/328/315 421/525/522
s 40
f 175/333/321 176/165/319 169/329/317 422/528/523
f 169/329/317 170/164/314 171/331/313 422/528/523
s 2
f 171/330/316 172/83/38 173/332/37 422/527/524
f 173/332/37 174/85/39 175/334/324 422/527/524
s 40
f 183/339/330 184/167/328 177/335/326 423/530/525
f 177/335/326 178/166/323 179/337/322 423/530/525
s 2
f 179/336/325 180/86/53 181/338/52 423/529/526
f 181/338/52 182/88/54 183/340/333 423/529/526
s 40
f 191/345/339 192/169/337 185/341/335 424/532/527
f 185/341/335 186/168/332 187/343/331 424/532/527
s 2
f 187/342/334 188/89/68 189/344/67 424/531/528
f 189/344/67 190/91/69 191/346/342 424/531/528
s 40
f 199/351/348 200/171/346 193/347/344 425/534/529
f 193/347/344 194/170/341 195/349/340 425/534/529
s 2
f 195/348/343 196/92/83 197/350/82 425/533/530
f 197/350/82 198/94/84 199/352/351 425/533/530
s 40
f 207/357/357 208/173/355 201/353/353 426/536/531
f 201/353/353 202/172/350 203/355/349 426/536/531
s 2
f 203/354/352 204/95/98 205/356/97 426/535/532
f 205/356/97 206/97/99 207/358/360 426/535/532
s 40
f 215/363/366 216/175/364 209/359/362 427/538/533
f 209/359/362 210/174/359 211/361/358 427/538/533
s 2
f 211/360/361 212/98/113 213/362/112 427/537/534
f 213/362/112 214/100/114 215/364/369 427/537/534
s 40
f 223/369/375 224/177/373 217/365/371 428/540/535
f 217/365/371 218/176/368 219/367/367 428/540/535
s 2
f 219/366/370 220/101/128 221/368/127 428/539/536
f 221/368/127 222/103/129 223/370/378 428/539/536
s 40
f 231/375/384 232/179/382 225/371/380 429/542/537
f 225/371/380 226/178/377 227/373/376 429/542/537
s 2
f 227/372/379 228/104/143 229/374/142 429/541/538
f 229/374/142 230/106/144 231/376/387 429/541/538
s 40
f 239/381/393 240/181/391 233/377/389 430/544/539
f 233/377/389 234/180/386 235/379/385 430/544/539
s 2
f 235/378/388 236/107/158 237/380/157 430/543/540
f 237/380/157 238/109/159 239/382/396 430/543/540
s 40
f 247/387/402 248/183/400 241/383/398 431/546/541
f 241/383/398 242/182/395 243/385/394 431/546/541
s 2
f 243/384/397 244/110/173 245/386/172 431/545/542
f 245/386/172 246/112/174 247/388/405 431/545/542
s 40
f 255/393/411 256/185/409 249/389/407 432/548/543
f 249/389/407 250/184/404 251/391/403 432/548/543
s 2
f 251/390/406 252/113/188 253/392/187 432/547/544
f 253/392/187 254/115/189 255/394/414 432/547/544
s 40
f 263/399/420 264/187/418 257/395/416 433/550/545
f 257/395/416 258/186/413 259/397/412 433/550/545
s 2
f 259/396/415 260/116/203 261/398/202 433/549/546
f 261/398/202 262/118/204 263/400/423 433/549/546
s 40
f 271/405/429 272/189/427 265/401/425 434/552/547
f 265/401/425 266/188/422 267/403/421 434/552/547
s 2
f 267/402/424 268/119/218 269/404/217 434/551/548
f 269/404/217 270/121/219 271/406/432 434/551/548
s 40
f 279/411/438 280/191/436 273/407/434 435/554/549
f 273/407/434 274/190/431 275/409/430 435/554/549
s 2
f 275/408/433 276/122/233 277/410/232 435/553/550
f 277/410/232 278/124/234 279/412/441 435/553/550
s 40
f 287/417/447 288/193/445 281/413/443 436/556/551
f 281/413/443 282/192/440 283/415/439 436/556/551
s 2
f 283/414/442 284/125/248 285/416/247 436/555/552
f 285/416/247 286/127/249 287/418/450 436/555/552
s 40
f 295/423/456 296/195/454 289/419/452 437/558/553
f 289/419/452 290/194/449 291/421/448 437/558/553
s 2
f 291/420/451 292/128/263 293/422/262 437/557/554
f 293/422/262 294/130/264 295/424/459 437/557/554
s 40
f 303/429/465 304/197/463 297/425/461 438/560/555
f 297/425/461 298/196/458 299/427/457 438/560/555
s 2
f 299/426/460 300/131/278 301/428/277 438/559/556
f 301/428/277 302/133/279 303/430/468 438/559/556
s 40
f 311/435/474 312/199/472 305/431/470 439/562/557
f 305/431/470 306/198/467 307/433/466 439/562/557
s 2
f 307/432/469 308/134/293 309/434/292 439/561/558
f 309/434/292 310/136/294 311/436/477 439/561/558
s 40
f 319/441/311 320/139/310 313/437/479 440/564/559
f 313/437/479 314/200/476 315/439/475 440/564/559
s 2
f 315/438/478 316/137/299 317/440/298 440/563/560
f 317/440/298 318/80/300 319/442/308 440/563/560
s 1
f 359/462/3 360/76/6 321/443/296 441/565/561
f 321/443/296 322/78/283 323/444/282 441/565/561
f 323/444/282 324/73/268 325/445/267 441/565/561
f 325/445/267 326/69/253 327/446/252 441/565/561
f 327/446/252 328/65/238 329/447/237 441/565/561
f 329/447/237 330/61/223 331/448/222 441/565/561
f 331/448/222 332/57/208 333/449/207 441/565/561
f 333/449/207 334/53/193 335/450/192 441/565/561
f 335/450/192 336/49/178 337/451/177 441/565/561
f 337/451/177 338/45/163 339/452/162 441/565/561
f 339/452/162 340/41/148 341/453/147 441/565/561
f 341/453/147 342/37/133 343/454/132 441/565/561
f 343/454/132 344/33/118 345/455/117 441/565/561
f 345/455/117 346/29/103 347/456/102 441/565/561
f 347/456/102 348/25/88 349/457/87 441/565/561
f 349/457/87 350/21/73 351/458/72 441/565/561
f 351/458/72 352/17/58 353/459/57 441/565/561
f 353/459/57 354/13/43 355/460/42 441/565/561
f 355/460/42 356/9/28 357/461/27 441/565/561
f 357/461/27 358/5/4 359/462/3 441/565/561
s 40
f 399/482/471 400/138/473 361/463/480 442/566/562
f 361/463/480 362/140/304 363/464/303 442/566/562
f 363/464/303 364/84/306 365/465/318 442/566/562
f 365/465/318 366/87/320 367/466/327 442/566/562
f 367/466/327 368/90/329 369/467/336 442/566/562
f 369/467/336 370/93/338 371/468/345 442/566/562
f 371/468/345 372/96/347 373/469/354 442/566/562
f 373/469/354 374/99/356 375/470/363 442/566/562
f 375/470/363 376/102/365 377/471/372 442/566/562
f 377/471/372 378/105/374 379/472/381 442/566/562
f 379/472/381 380/108/383 381/473/390 442/566/562
f 381/473/390 382/111/392 383/474/399 442/566/562
f 383/474/399 384/114/401 385/475/408 442/566/562
f 385/475/408 386/117/410 387/476/417 442/566/562
f 387/476/417 388/120/419 389/477/426 442/566/562
f 389/477/426 390/123/428 391/478/435 442/566/562
f 391/478/435 392/126/437 393/479/444 442/566/562
f 393/479/444 394/129/446 395/480/453 442/566/562
f 395/480/453 396/132/455 397/481/462 442/566/562
f 397/481/462 398/135/464 399/482/471 442/566/562
