# This file uses centimeters as units for non-parametric coordinates.

mtllib 时针&分针.mtl
g default
v -2.991821 1.580323 -11.752144
v -2.991993 1.580295 -11.751735
v -2.992006 1.580706 -11.751796
v -2.992304 1.580980 -11.751827
v -2.992180 1.581095 -11.752209
v -2.991980 1.581427 -11.752363
v -2.991624 1.581242 -11.752362
v -2.991267 1.581057 -11.752361
v -2.991341 1.580624 -11.752343
v -2.991430 1.580274 -11.752306
v -2.953011 1.691087 -11.752768
v -2.952676 1.690879 -11.752930
v -2.952824 1.690550 -11.752962
v -2.953037 1.690165 -11.752975
v -2.953442 1.690235 -11.752976
v -2.953848 1.690305 -11.752976
v -2.953789 1.690705 -11.752823
v -2.953807 1.690882 -11.752436
v -2.953396 1.690908 -11.752412
v -2.953126 1.691221 -11.752360
v -2.991821 1.580579 -11.706717
v -2.991430 1.580532 -11.706554
v -2.991341 1.580882 -11.706522
v -2.991267 1.581315 -11.706509
v -2.991628 1.581514 -11.706510
v -2.991988 1.581713 -11.706511
v -2.992191 1.581363 -11.706665
v -2.992314 1.581235 -11.707052
v -2.992009 1.580958 -11.707074
v -2.991993 1.580546 -11.707126
v -2.953011 1.691342 -11.707342
v -2.953126 1.691472 -11.707751
v -2.953393 1.691158 -11.707690
v -2.953797 1.691131 -11.707661
v -2.953773 1.690964 -11.707279
v -2.953825 1.690580 -11.707125
v -2.953431 1.690502 -11.707124
v -2.953037 1.690424 -11.707124
v -2.952824 1.690808 -11.707141
v -2.952676 1.691137 -11.707177
v -4.218732 2.011114 -11.709481
v -4.218419 2.010833 -11.709480
v -4.218365 2.010988 -11.709091
v -4.218237 2.011356 -11.708932
v -4.218604 2.011484 -11.709094
v -4.218756 2.011535 -11.709483
v -4.180332 2.120709 -11.710099
v -4.180613 2.120395 -11.710097
v -4.180460 2.120344 -11.709707
v -4.180093 2.120216 -11.709545
v -4.179964 2.120582 -11.709709
v -4.179911 2.120732 -11.710099
v -4.218365 2.010731 -11.754621
v -4.218419 2.010581 -11.754231
v -4.218732 2.010862 -11.754232
v -4.218756 2.011282 -11.754235
v -4.218604 2.011227 -11.754623
v -4.218237 2.011097 -11.754784
v -4.179964 2.120326 -11.755238
v -4.180093 2.119958 -11.755397
v -4.180460 2.120088 -11.755237
v -4.180613 2.120143 -11.754848
v -4.180332 2.120457 -11.754850
v -4.179911 2.120480 -11.754850
v -2.932725 1.560371 -11.752061
v -2.932713 1.560213 -11.751684
v -2.933124 1.560123 -11.751697
v -2.933381 1.559796 -11.751660
v -2.933505 1.559908 -11.752039
v -2.933843 1.560097 -11.752193
v -2.933695 1.560425 -11.752229
v -2.933481 1.560809 -11.752247
v -2.933074 1.560752 -11.752239
v -2.932665 1.560737 -11.752215
v -2.894386 1.669791 -11.752678
v -2.894567 1.669466 -11.752828
v -2.894897 1.669710 -11.752853
v -2.895251 1.669919 -11.752861
v -2.895189 1.670370 -11.752847
v -2.895105 1.670725 -11.752814
v -2.894708 1.670655 -11.752658
v -2.894534 1.670664 -11.752273
v -2.894541 1.670240 -11.752312
v -2.894276 1.669912 -11.752302
v -2.894386 1.670048 -11.707192
v -2.894276 1.670164 -11.707568
v -2.894542 1.670490 -11.707557
v -2.894538 1.670906 -11.707594
v -2.894705 1.670896 -11.707216
v -2.895088 1.670960 -11.707064
v -2.895177 1.670611 -11.707027
v -2.895250 1.670177 -11.707010
v -2.894897 1.669969 -11.707016
v -2.894567 1.669724 -11.707038
v -2.932725 1.560628 -11.706575
v -2.932665 1.560995 -11.706425
v -2.933075 1.561010 -11.706402
v -2.933481 1.561068 -11.706395
v -2.933714 1.560677 -11.706409
v -2.933870 1.560347 -11.706443
v -2.933516 1.560154 -11.706597
v -2.933384 1.560038 -11.706981
v -2.933125 1.560373 -11.706942
v -2.932713 1.560465 -11.706950
v -2.941317 1.726030 -11.748060
v -2.941430 1.725680 -11.748255
v -2.941781 1.725784 -11.748094
v -2.941930 1.725818 -11.747705
v -2.941666 1.726137 -11.747674
v -2.941272 1.726171 -11.747672
v -2.941317 1.726231 -11.712443
v -2.941272 1.726368 -11.712833
v -2.941667 1.726332 -11.712832
v -2.941932 1.726009 -11.712801
v -2.941782 1.725982 -11.712407
v -2.941430 1.725883 -11.712244
v -2.881714 1.705326 -11.712735
v -2.882027 1.705610 -11.712755
v -2.882060 1.705469 -11.712337
v -2.882171 1.705120 -11.712127
v -2.881833 1.704978 -11.712289
v -2.881698 1.704905 -11.712682
v -2.882041 1.705261 -11.747943
v -2.881990 1.705400 -11.747555
v -2.881703 1.705126 -11.747553
v -2.881698 1.704708 -11.747581
v -2.881833 1.704777 -11.747975
v -2.882171 1.704917 -11.748138
v -3.004477 1.545772 -11.747045
v -3.004529 1.545637 -11.746655
v -3.004815 1.545912 -11.746656
v -3.004820 1.546329 -11.746688
v -3.004685 1.546256 -11.747081
v -3.004347 1.546114 -11.747243
v -3.004477 1.545973 -11.711427
v -3.004347 1.546317 -11.711232
v -3.004686 1.546454 -11.711394
v -3.004822 1.546521 -11.711785
v -3.004816 1.546107 -11.711814
v -3.004529 1.545834 -11.711815
v -2.944863 1.524906 -11.746517
v -2.945284 1.524880 -11.746498
v -2.945220 1.525010 -11.746917
v -2.945089 1.525351 -11.747126
v -2.944737 1.525252 -11.746963
v -2.944587 1.525225 -11.746569
v -2.945202 1.525204 -11.711310
v -2.945247 1.525063 -11.711698
v -2.944851 1.525099 -11.711699
v -2.944587 1.525422 -11.711671
v -2.944737 1.525453 -11.711277
v -2.945089 1.525554 -11.711115
v -2.664401 1.525507 -11.729689
v -2.664805 1.525420 -11.729716
v -2.664778 1.525577 -11.730077
v -2.664675 1.525950 -11.730227
v -2.664294 1.525873 -11.730051
v -2.664142 1.525828 -11.729680
v -2.662902 1.529785 -11.729713
v -2.662900 1.529372 -11.729700
v -2.663040 1.529436 -11.730070
v -2.663374 1.529611 -11.730246
v -2.663232 1.529961 -11.730100
v -2.663163 1.530105 -11.729743
v -2.663045 1.529427 -11.728225
v -2.662909 1.529352 -11.728613
v -2.662904 1.529784 -11.728592
v -2.663163 1.530111 -11.728551
v -2.663232 1.529972 -11.728192
v -2.663374 1.529623 -11.728042
v -2.664401 1.525513 -11.728553
v -2.664142 1.525835 -11.728566
v -2.664291 1.525875 -11.728196
v -2.664664 1.525945 -11.728022
v -2.664770 1.525582 -11.728168
v -2.664805 1.525427 -11.728525
v -2.991798 1.580794 -11.752223
v -2.953293 1.690701 -11.752841
v -2.991801 1.581057 -11.706645
v -2.953287 1.690960 -11.707263
v -4.218641 2.011160 -11.709164
v -4.180288 2.120620 -11.709780
v -4.218641 2.010904 -11.754550
v -4.180288 2.120364 -11.755167
v -2.933227 1.560302 -11.752107
v -2.894737 1.670165 -11.752724
v -2.894735 1.670415 -11.707147
v -2.933233 1.560555 -11.706530
v -2.941622 1.726056 -11.747994
v -2.941622 1.726255 -11.712511
v -2.881796 1.705293 -11.712401
v -2.881788 1.705090 -11.747874
v -3.004731 1.545944 -11.746978
v -3.004731 1.546143 -11.711495
v -2.944904 1.524982 -11.746851
v -2.944896 1.525179 -11.711378
v -2.664452 1.525591 -11.729988
v -2.662990 1.529751 -11.730011
v -2.662992 1.529753 -11.728286
v -2.664449 1.525596 -11.728256
vt 0.375000 0.003783
vt 0.374897 0.002908
vt 0.376143 0.999928
vt 0.375900 0.000000
vt 0.625000 0.000000
vt 0.623808 0.999924
vt 0.625104 0.002963
vt 0.375000 0.247008
vt 0.375000 0.250000
vt 0.375900 0.250000
vt 0.376193 0.250076
vt 0.625103 0.247092
vt 0.624100 0.250000
vt 0.125106 0.003001
vt 0.376182 0.499894
vt 0.623818 0.499894
vt 0.874894 0.246999
vt 0.874894 0.003001
vt 0.623818 0.750106
vt 0.376182 0.746999
vt 0.623818 0.746999
vt 0.375000 0.003275
vt 0.375000 0.002796
vt 0.375898 0.000000
vt 0.624101 0.000000
vt 0.625000 0.000000
vt 0.625000 0.003606
vt 0.625000 0.247204
vt 0.624102 0.250000
vt 0.375899 0.250000
vt 0.375000 0.247179
vt 0.375000 0.250000
vt 0.625000 0.000000
vt 0.625000 0.003032
vt 0.625000 0.246084
vt 0.625000 0.250000
vt 0.625000 0.250000
vt 0.625000 0.003605
vt 0.625000 0.246936
vt 0.625000 0.003917
vt 0.375000 0.000000
vt 0.375000 0.000000
vt 0.375000 0.246968
vt 0.375000 0.003605
vt 0.375000 0.250000
vt 0.375000 0.246395
vt 0.375000 0.246395
vt 0.375000 0.003064
vt 0.375000 0.246083
vt 0.375000 0.200154
vt 0.392274 0.000000
vt 0.596596 0.000000
vt 0.625000 0.049837
vt 0.625000 0.190601
vt 0.401336 0.190801
vt 0.608258 0.250000
vt 0.403409 0.250000
vt 0.401336 0.059198
vt 0.598664 0.059198
vt 0.597205 0.187506
vt 0.623858 0.250072
vt 0.376182 0.503001
vt 0.623818 0.503001
vt 0.376182 0.750106
vt 0.374895 0.247036
vt 0.125106 0.246999
vt 0.624100 0.000000
vt 0.625000 0.003605
vt 0.625000 0.246395
vt 0.625000 0.246118
vt 0.375000 0.003882
vt 0.625000 0.002992
vt 0.625000 0.246217
vt 0.625000 0.250000
vt 0.625000 0.250000
vt 0.625000 0.000000
vt 0.375000 0.003917
vt 0.375000 0.000000
vt 0.375000 0.000000
vt 0.375000 0.246394
vt 0.375000 0.250000
vt 0.376161 0.000000
vt 0.623499 0.000000
vt 0.625000 0.002821
vt 0.625000 0.246725
vt 0.623839 0.250000
vt 0.376501 0.250000
vt 0.375000 0.059388
vt 0.375000 0.001029
vt 0.374928 0.003182
vt 0.375000 0.999642
vt 0.374642 0.000000
vt 0.376269 0.000000
vt 0.376269 1.000000
vt 0.375385 0.000000
vt 0.625000 0.000814
vt 0.624615 0.000000
vt 0.623714 1.000000
vt 0.623714 0.000000
vt 0.625368 0.000000
vt 0.625000 0.999632
vt 0.625074 0.002975
vt 0.375000 0.249186
vt 0.375385 0.250000
vt 0.376021 0.250031
vt 0.374632 0.250000
vt 0.375000 0.250368
vt 0.374927 0.247024
vt 0.625000 0.248971
vt 0.625072 0.246819
vt 0.625000 0.250358
vt 0.625358 0.250000
vt 0.623958 0.250042
vt 0.624615 0.250000
vt 0.125000 0.248243
vt 0.375000 0.501757
vt 0.375000 0.499577
vt 0.125423 0.250000
vt 0.376176 0.500792
vt 0.625000 0.501757
vt 0.875000 0.248243
vt 0.623824 0.500792
vt 0.874577 0.250000
vt 0.625000 0.499577
vt 0.125423 0.000000
vt 0.375000 0.750423
vt 0.375000 0.748243
vt 0.125000 0.001757
vt 0.376176 0.749208
vt 0.625000 0.750423
vt 0.874577 0.000000
vt 0.623824 0.749208
vt 0.875000 0.001757
vt 0.625000 0.748243
vt 0.375705 0.001049
vt 0.375000 0.002988
vt 0.375000 0.000771
vt 0.375382 0.000000
vt 0.375999 0.000000
vt 0.624156 0.001050
vt 0.623815 0.000000
vt 0.624623 0.000000
vt 0.625000 0.000999
vt 0.625000 0.002995
vt 0.624295 0.248954
vt 0.625000 0.247012
vt 0.625000 0.249229
vt 0.624618 0.250000
vt 0.624001 0.250000
vt 0.375845 0.248951
vt 0.376185 0.250000
vt 0.375377 0.250000
vt 0.375000 0.249003
vt 0.375000 0.247005
vt 0.625000 0.000600
vt 0.625000 0.000857
vt 0.625000 0.003487
vt 0.625000 0.249396
vt 0.625000 0.246238
vt 0.625000 0.248893
vt 0.625000 0.246349
vt 0.625000 0.249417
vt 0.625000 0.249135
vt 0.625000 0.000605
vt 0.625000 0.003760
vt 0.625000 0.001108
vt 0.375000 0.000605
vt 0.375000 0.003759
vt 0.375000 0.001106
vt 0.375000 0.249399
vt 0.375000 0.249142
vt 0.375000 0.246512
vt 0.375000 0.003654
vt 0.375000 0.000583
vt 0.375000 0.000865
vt 0.375000 0.249395
vt 0.375000 0.246242
vt 0.375000 0.248892
vt 0.384180 0.060493
vt 0.384912 0.023592
vt 0.395724 0.013093
vt 0.615821 0.054464
vt 0.598310 0.013016
vt 0.608565 0.019567
vt 0.603748 0.236398
vt 0.615397 0.187782
vt 0.615341 0.226460
vt 0.384176 0.195630
vt 0.401849 0.236957
vt 0.391438 0.230426
vt 0.375000 1.000000
vt 0.375000 0.000000
vt 0.625000 1.000000
vt 0.625000 0.000000
vt 0.375000 0.250000
vt 0.625000 0.250000
vt 0.125000 0.250000
vt 0.375000 0.500000
vt 0.625000 0.500000
vt 0.875000 0.250000
vt 0.125000 0.000000
vt 0.375000 0.750000
vt 0.625000 0.750000
vt 0.875000 0.000000
vt 0.375000 0.000000
vt 0.625000 0.000000
vt 0.625000 0.250000
vt 0.375000 0.250000
vt 0.625000 0.000000
vt 0.625000 0.250000
vt 0.625000 0.250000
vt 0.625000 0.000000
vt 0.375000 0.000000
vt 0.375000 0.250000
vt 0.375000 0.000000
vt 0.375000 0.250000
vt 0.375000 0.000000
vt 0.625000 0.000000
vt 0.625000 0.250000
vt 0.375000 0.250000
vn -0.938464 0.345288 -0.007851
vn -0.891671 0.275875 -0.358909
vn -0.890607 0.281937 -0.356833
vn -0.936657 0.350219 -0.004501
vn -0.402926 0.016003 -0.915093
vn -0.045171 -0.129378 -0.990566
vn -0.047795 -0.133108 -0.989948
vn -0.404510 0.012477 -0.914449
vn -0.330755 -0.943715 0.001831
vn -0.673214 -0.739446 0.001810
vn -0.673196 -0.739434 0.006736
vn -0.330760 -0.943673 0.008882
vn -0.999375 -0.034531 -0.007600
vn -0.938425 0.345460 0.003958
vn -0.999375 -0.034485 0.007705
vn -0.000444 -0.006901 -0.999976
vn -0.124761 -0.361124 -0.924134
vn -0.124826 -0.361126 -0.924125
vn -0.000564 -0.006871 -0.999976
vn -0.306463 -0.876365 -0.371571
vn -0.330786 -0.943704 0.001851
vn -0.306378 -0.876406 -0.371544
vn -0.000052 -0.005762 -0.999983
vn -0.000827 -0.006586 -0.999978
vn -0.000068 -0.004317 -0.999991
vn 0.000041 -0.005496 -0.999985
vn 0.000449 -0.004354 -0.999990
vn -0.022497 -0.064926 -0.997636
vn -0.019324 -0.065962 -0.997635
vn -0.041972 -0.130498 -0.990560
vn -0.000005 -0.005779 -0.999983
vn 0.041978 0.119325 -0.991967
vn -0.326207 0.229300 -0.917067
vn -0.325177 0.233081 -0.916479
vn 0.042209 0.123747 -0.991416
vn -0.869399 0.337483 -0.360903
vn -0.948801 0.315781 -0.007686
vn -0.950428 0.310914 -0.004276
vn -0.872388 0.331965 -0.358802
vn 0.019640 0.055373 -0.998273
vn 0.022860 0.054272 -0.998264
vn 0.000089 -0.005513 -0.999985
vn 0.045200 0.118196 -0.991961
vn 0.330579 0.943736 -0.008884
vn 0.305587 0.870387 -0.386060
vn 0.305684 0.870366 -0.386032
vn 0.330553 0.943746 -0.008866
vn 0.123640 0.347793 -0.929383
vn 0.000335 -0.004303 -0.999991
vn 0.123595 0.347835 -0.929374
vn -0.759390 0.650540 -0.011179
vn -0.759416 0.650593 0.004132
vn -0.948766 0.315954 0.004126
vn -0.064451 0.997887 -0.008196
vn 0.330584 0.943775 -0.001833
vn -0.064474 0.997914 -0.003268
vn -0.045165 -0.118209 0.991961
vn -0.401186 0.025561 0.915640
vn -0.402740 0.021965 0.915051
vn -0.047743 -0.121807 0.991405
vn -0.891175 0.279395 0.357414
vn -0.936645 0.350279 0.000549
vn -0.890057 0.285570 0.355316
vn -0.000055 0.005501 0.999985
vn -0.022729 -0.054301 0.998266
vn -0.019527 -0.055451 0.998270
vn -0.000006 0.005484 0.999985
vn -0.041943 -0.119338 0.991967
vn -0.000449 0.004354 0.999990
vn -0.000876 0.004647 0.999989
vn -0.000053 0.006896 0.999976
vn 0.000444 0.006902 0.999976
vn 0.000039 0.005767 0.999983
vn -0.305819 -0.870258 0.386168
vn -0.305730 -0.870302 0.386140
vn -0.330786 -0.943664 0.008865
vn -0.123695 -0.347644 0.929432
vn -0.000569 0.004385 0.999990
vn -0.123756 -0.347648 0.929422
vn -0.870062 0.341390 0.355591
vn -0.873005 0.335992 0.353514
vn -0.950418 0.310974 0.000775
vn -0.328041 0.240139 0.913631
vn 0.041973 0.130499 0.990560
vn 0.042253 0.135050 0.989937
vn -0.327074 0.243881 0.912987
vn 0.124667 0.361175 0.924127
vn 0.124616 0.361217 0.924117
vn 0.000331 0.006953 0.999976
vn 0.306215 0.876450 0.371575
vn 0.330553 0.943786 -0.001854
vn 0.306308 0.876429 0.371548
vn 0.019438 0.066002 0.997630
vn 0.022563 0.064830 0.997641
vn 0.045169 0.129377 0.990566
vn 0.000086 0.005750 0.999983
vn -0.666689 -0.745306 0.006713
vn -0.666689 -0.745334 0.001686
vn -0.998456 -0.055497 0.002566
vn -0.944198 0.329373 0.001711
vn -0.944198 0.329333 -0.005423
vn -0.998456 -0.055522 -0.001940
vn -0.872177 0.307086 0.380795
vn -0.871765 0.308261 0.380789
vn -0.943280 0.331995 0.001696
vn -0.361461 0.130546 0.923203
vn -0.360645 0.132876 0.923190
vn -0.745575 0.666420 -0.001502
vn -0.745575 0.666395 -0.006008
vn -0.943280 0.331954 -0.005438
vn -0.055144 0.998474 -0.003112
vn -0.055144 0.998445 -0.008140
vn -0.361451 0.120130 -0.924620
vn -0.360635 0.122460 -0.924633
vn -0.872177 0.302775 -0.384232
vn -0.871765 0.303951 -0.384238
vn -0.125789 -0.991987 -0.011796
vn -0.085558 -0.915067 -0.394122
vn -0.086407 -0.915039 -0.394003
vn -0.128980 -0.991644 0.002623
vn 0.025793 -0.385261 -0.922447
vn 0.076723 -0.037261 -0.996356
vn 0.077308 -0.034435 -0.996412
vn 0.026042 -0.385369 -0.922395
vn 0.949140 -0.314828 -0.004156
vn 0.788239 -0.615363 -0.002578
vn 0.788206 -0.615331 0.009922
vn 0.949101 -0.314873 0.007820
vn 0.215069 -0.976599 0.000634
vn -0.125886 -0.991785 0.022692
vn 0.215092 -0.976543 0.009985
vn 0.320390 -0.238123 -0.916869
vn 0.319188 -0.242605 -0.916113
vn -0.042321 -0.135022 -0.989938
vn 0.865144 -0.340657 -0.368074
vn 0.950460 -0.310846 -0.000787
vn 0.867474 -0.336475 -0.366433
vn 0.023744 -0.015025 -0.999605
vn 0.024443 -0.013100 -0.999615
vn 0.079701 -0.028766 -0.996404
vn 0.259933 0.280237 -0.924068
vn 0.260209 0.280186 -0.924006
vn 0.078399 -0.031333 -0.996430
vn 0.503748 0.766674 -0.398057
vn 0.520724 0.853444 -0.021897
vn 0.518145 0.855258 -0.007724
vn 0.503064 0.767192 -0.397923
vn 0.938092 -0.346362 -0.004096
vn 0.885625 -0.276266 -0.373290
vn 0.884781 -0.281233 -0.371580
vn 0.936695 -0.350145 -0.000623
vn 0.392640 -0.021928 -0.919431
vn 0.047707 0.121821 -0.991405
vn 0.394368 -0.018500 -0.918766
vn 0.777451 0.628892 -0.008022
vn 0.777438 0.628959 0.001317
vn 0.520787 0.853598 0.012279
vn 0.999915 -0.011407 -0.006387
vn 0.938052 -0.346405 0.007883
vn 0.999916 -0.011388 0.006105
vn 0.503735 0.771079 0.389473
vn 0.503063 0.771590 0.389328
vn 0.518145 0.855291 -0.001914
vn 0.259928 0.290632 0.920853
vn 0.079700 -0.017537 0.996665
vn 0.078398 -0.020103 0.996719
vn 0.260246 0.290553 0.920788
vn 0.395748 -0.012771 0.918270
vn 0.397611 -0.008521 0.917514
vn 0.047724 0.133129 0.989949
vn 0.887220 -0.273291 0.371688
vn 0.936610 -0.350344 0.004512
vn 0.886436 -0.278010 0.370057
vn 0.024437 -0.001857 0.999700
vn 0.023783 -0.003797 0.999710
vn 0.076721 -0.026039 0.996713
vn 0.024917 -0.380137 0.924594
vn 0.025166 -0.380268 0.924534
vn 0.077306 -0.023222 0.996737
vn -0.086279 -0.912806 0.399175
vn -0.128985 -0.991610 0.008495
vn -0.087136 -0.912785 0.399038
vn 0.863054 -0.336450 0.376749
vn 0.865506 -0.332041 0.375032
vn 0.950384 -0.311049 0.004346
vn 0.317156 -0.226749 0.920868
vn -0.042245 -0.123733 0.991416
vn 0.316369 -0.230507 0.920205
vn 0.154006 0.441519 -0.883936
vn 0.158385 0.439977 -0.883931
vn 0.308912 0.881624 -0.356809
vn 0.328168 0.944572 -0.009471
vn 0.333111 0.942840 -0.009460
vn 0.310158 0.881188 -0.356805
vn -0.088250 0.996061 -0.008600
vn -0.088319 0.996089 -0.002726
vn 0.328202 0.944607 -0.001084
vn -0.772643 0.634817 -0.005547
vn -0.772667 0.634810 -0.001479
vn 0.310381 0.889283 0.335916
vn 0.311628 0.888868 0.335860
vn 0.333514 0.942744 -0.001261
vn 0.157423 0.461005 0.873322
vn 0.161886 0.459642 0.873225
vn 0.680884 0.732391 0.000166
vn 0.681335 0.731942 -0.006606
vn 0.999695 0.024637 0.001732
vn 0.999700 0.024391 -0.002021
vn -0.333134 -0.942879 0.001078
vn -0.311358 -0.888982 -0.335809
vn -0.310123 -0.889437 -0.335747
vn -0.327821 -0.944739 0.001276
vn -0.161627 -0.459434 -0.873383
vn -0.157291 -0.461152 -0.873269
vn -0.999907 -0.013468 -0.002025
vn -0.999907 -0.013484 0.002045
vn -0.690667 -0.723172 0.001187
vn -0.333168 -0.942820 0.009459
vn -0.690618 -0.723186 0.007063
vn -0.158304 -0.439877 0.883995
vn -0.153922 -0.441405 0.884008
vn -0.310176 -0.881273 0.356580
vn -0.328225 -0.944552 0.009468
vn -0.308928 -0.881711 0.356581
vn 0.075122 -0.997174 0.001327
vn 0.075734 -0.997095 0.008100
vn 0.765455 -0.643487 0.001755
vn 0.765601 -0.643292 0.005503
vn 0.207089 -0.977003 -0.050778
vn 0.207205 -0.976502 0.059248
vn 0.782787 -0.617872 -0.074016
vn 0.927540 -0.359753 -0.101230
vn 0.927876 -0.358143 0.103826
vn 0.782765 -0.617474 0.077488
vn 0.864913 -0.322691 -0.384443
vn 0.875805 -0.292663 -0.383816
vn 0.948618 -0.299664 -0.101617
vn 0.386941 -0.167531 -0.906758
vn 0.403924 -0.121875 -0.906638
vn 0.997503 -0.013137 -0.069396
vn 0.996333 -0.018406 0.083554
vn 0.949244 -0.298208 0.100042
vn 0.775916 0.628511 -0.054114
vn 0.778469 0.626065 0.045031
vn 0.882613 -0.288115 0.371461
vn 0.871468 -0.318473 0.372984
vn 0.416848 -0.115548 0.901602
vn 0.399476 -0.159502 0.902762
vn -0.264008 -0.138164 -0.954574
vn -0.905768 -0.056167 -0.420035
vn -0.580481 -0.700641 -0.414902
vn -0.672542 0.607357 -0.422852
vn -0.123045 0.263346 -0.956822
vn -0.018912 0.903593 -0.427974
vn -0.906110 -0.054279 0.419545
vn -0.263803 -0.127786 0.956075
vn -0.580023 -0.693806 0.426856
vn -0.123473 0.273948 0.953785
vn -0.674195 0.609602 0.416950
vn -0.017651 0.910207 0.413778
vn -0.945540 -0.011672 0.325296
vn -0.600622 -0.728514 0.329424
vn -0.414579 -0.194549 0.888974
vn -0.013129 0.947322 0.320012
vn -0.730366 0.602467 0.321868
vn -0.199289 0.419668 0.885529
vn -0.414561 -0.204564 -0.886731
vn -0.600621 -0.732181 -0.321196
vn -0.945541 -0.015310 -0.325144
vn -0.013127 0.943655 -0.330670
vn -0.199283 0.409638 -0.890215
vn -0.730369 0.598799 -0.328634
vn 0.150061 -0.275439 -0.949534
vn 0.181948 -0.894020 -0.409418
vn 0.701405 -0.579953 -0.414350
vn 0.699658 0.580962 -0.415887
vn 0.284716 0.114445 -0.951756
vn 0.906496 0.012577 -0.422027
vn 0.285699 0.122688 0.950433
vn 0.698625 0.585764 0.410857
vn 0.908544 0.015608 0.417498
vn 0.183171 -0.889753 0.418076
vn 0.147716 -0.265969 0.952597
vn 0.698653 -0.575121 0.425581
vn -0.039427 0.953096 -0.300088
vn -0.197436 0.489936 -0.849106
vn -0.743286 0.597874 -0.300122
vn -0.202738 0.499452 0.842286
vn -0.044481 0.956553 0.288145
vn -0.747257 0.597740 0.290368
vn 0.958327 0.034669 0.283562
vn 0.612020 0.744869 0.265708
vn 0.469394 0.297874 0.831228
vn 0.467178 0.255014 -0.846589
vn 0.630896 0.716652 -0.297288
vn 0.956015 -0.002272 -0.293310
vn -0.467208 -0.264663 -0.843605
vn -0.630971 -0.719780 -0.289471
vn -0.955887 -0.000900 -0.293733
vn -0.626958 -0.719410 0.298953
vn -0.463098 -0.258351 0.847818
vn -0.954837 -0.002846 0.297117
vn 0.728169 -0.625787 -0.279572
vn 0.014215 -0.964352 -0.264242
vn 0.183669 -0.526562 -0.830059
vn 0.202852 -0.489795 0.847911
vn 0.044789 -0.953341 0.298556
vn 0.747383 -0.594535 0.296557
vn 0.760402 -0.555600 -0.336299
vn 0.181333 -0.921528 -0.343372
vn 0.290023 -0.398103 -0.870288
vn 0.719813 0.606940 -0.336888
vn 0.944934 -0.041673 -0.324596
vn 0.484278 0.127625 -0.865555
vn 0.503661 0.121381 0.855332
vn 0.949227 -0.057556 0.309281
vn 0.737046 0.592431 0.325252
vn 0.182871 -0.922605 0.339644
vn 0.763411 -0.556137 0.328504
vn 0.296523 -0.399867 0.867283
s 1
usemtl initialShadingGroup
f 2/1/1 1/89/2 133/169/3 132/77/4
s 2
f 1/89/5 10/78/6 134/41/7 133/169/8
s 3
f 4/2/9 3/90/10 29/108/11 28/65/12
s 1
f 3/90/13 2/1/1 30/8/14 29/108/15
s 2
f 6/3/16 5/91/17 53/126/18 58/64/19
s 3
f 5/92/20 4/2/9 54/14/21 53/125/22
s 2
f 8/4/23 7/93/24 15/99/25 14/67/26
f 7/94/24 6/3/16 16/6/27 15/98/25
f 10/78/6 9/95/28 71/138/29 70/79/30
f 9/95/28 8/4/23 72/24/31 71/138/29
f 12/5/32 11/96/33 107/156/34 106/76/35
s 7
f 11/96/36 20/72/37 108/34/38 107/156/39
s 2
f 14/67/26 13/97/40 79/142/41 78/25/42
f 13/97/40 12/5/32 80/26/43 79/142/41
s 8
f 18/7/44 17/100/45 59/131/46 64/18/47
s 2
f 17/101/48 16/6/27 60/19/49 59/130/50
s 7
f 20/72/37 19/102/51 33/110/52 32/73/53
s 8
f 19/102/54 18/7/44 34/12/55 33/110/56
s 9
f 22/9/57 21/103/58 137/171/59 136/81/60
s 1
f 21/103/61 30/8/14 138/43/62 137/171/63
s 9
f 24/10/64 23/104/65 99/152/66 98/30/67
f 23/104/65 22/9/57 100/32/68 99/152/66
f 26/11/69 25/105/70 37/113/71 36/61/72
f 25/105/70 24/10/64 38/13/73 37/113/71
s 3
f 28/65/12 27/106/74 43/118/75 42/66/76
s 9
f 27/107/77 26/11/69 44/15/78 43/117/79
s 7
f 32/73/53 31/109/80 115/160/81 114/35/82
s 9
f 31/109/83 40/74/84 116/36/85 115/160/86
f 36/61/72 35/111/87 51/124/88 50/16/89
s 8
f 35/112/90 34/12/55 52/17/91 51/123/92
s 9
f 40/74/84 39/114/93 91/148/94 90/75/95
f 39/114/93 38/13/73 92/29/96 91/148/94
s 3
f 42/66/76 41/115/97 55/128/98 54/14/21
s 13
f 41/116/99 46/62/100 56/20/101 55/127/102
f 46/62/100 45/119/103 49/122/104 48/63/105
s 9
f 45/119/106 44/15/78 50/16/89 49/122/107
s 13
f 48/63/105 47/120/108 63/134/109 62/21/110
s 8
f 47/121/111 52/17/91 64/18/47 63/133/112
s 2
f 58/64/19 57/129/113 61/132/114 60/19/49
s 13
f 57/129/115 56/20/101 62/21/110 61/132/116
s 14
f 66/22/117 65/135/118 155/180/119 154/88/120
s 2
f 65/135/121 74/82/122 156/51/123 155/180/124
s 16
f 68/23/125 67/136/126 103/154/127 102/80/128
s 14
f 67/136/129 66/22/117 104/31/130 103/154/131
s 2
f 70/79/30 69/137/132 145/175/133 144/42/134
s 16
f 69/137/135 68/23/125 146/48/136 145/175/137
s 2
f 74/82/122 73/139/138 77/141/139 76/83/140
f 73/139/138 72/24/31 78/25/42 77/141/139
f 76/83/140 75/140/141 163/184/142 162/52/143
s 17
f 75/140/144 84/84/145 164/53/146 163/184/147
s 18
f 82/27/148 81/143/149 127/166/150 126/40/151
s 2
f 81/143/152 80/26/43 128/33/153 127/166/154
s 17
f 84/84/145 83/144/155 87/146/156 86/85/157
s 18
f 83/144/158 82/27/148 88/28/159 87/146/160
s 17
f 86/85/157 85/145/161 169/187/162 168/54/163
s 9
f 85/145/164 94/86/165 170/56/166 169/187/167
f 90/75/95 89/147/168 121/163/169 120/37/170
s 18
f 89/147/171 88/28/159 122/39/172 121/163/173
s 9
f 94/86/165 93/149/174 97/151/175 96/87/176
f 93/149/174 92/29/96 98/30/67 97/151/175
f 96/87/176 95/150/177 175/190/178 174/57/179
s 14
f 95/150/180 104/31/130 176/50/181 175/190/182
s 16
f 102/80/128 101/153/183 151/178/184 150/49/185
s 9
f 101/153/186 100/32/68 152/45/187 151/178/188
s 2
f 106/76/35 105/155/189 123/164/190 128/33/153
s 20
f 105/155/191 110/68/192 124/38/193 123/164/194
f 110/68/192 109/157/195 113/159/196 112/69/197
s 7
f 109/157/198 108/34/38 114/35/82 113/159/199
s 20
f 112/69/197 111/158/200 119/162/201 118/70/202
s 9
f 111/158/203 116/36/85 120/37/170 119/162/204
s 20
f 118/70/202 117/161/205 125/165/206 124/38/193
s 18
f 117/161/207 122/39/172 126/40/151 125/165/208
s 21
f 130/44/209 129/167/210 143/174/211 142/71/212
s 2
f 129/167/213 134/41/7 144/42/134 143/174/214
s 1
f 132/77/4 131/168/215 139/172/216 138/43/62
s 21
f 131/168/217 130/44/209 140/46/218 139/172/219
s 9
f 136/81/60 135/170/220 147/176/221 152/45/187
s 21
f 135/170/222 140/46/218 148/47/223 147/176/224
f 142/71/212 141/173/225 149/177/226 148/47/223
s 16
f 141/173/227 146/48/136 150/49/185 149/177/228
s 14
f 154/88/120 153/179/229 171/188/230 176/50/181
s 22
f 153/179/231 158/58/232 172/55/233 171/188/234
f 158/58/232 157/181/235 161/183/236 160/59/237
s 2
f 157/181/238 156/51/123 162/52/143 161/183/239
s 22
f 160/59/237 159/182/240 167/186/241 166/60/242
s 17
f 159/182/243 164/53/146 168/54/163 167/186/244
s 22
f 166/60/242 165/185/245 173/189/246 172/55/233
s 9
f 165/185/247 170/56/166 174/57/179 173/189/248
s 22
f 158/58/232 160/59/237 166/60/242 172/55/233
s 9
f 26/11/69 36/61/72 50/16/89 44/15/78
s 13
f 46/62/100 48/63/105 62/21/110 56/20/101
s 2
f 58/64/19 60/19/49 16/6/27 6/3/16
s 8
f 18/7/44 64/18/47 52/17/91 34/12/55
s 3
f 54/14/21 4/2/9 28/65/12 42/66/76
s 2
f 8/4/23 14/67/26 78/25/42 72/24/31
s 20
f 110/68/192 112/69/197 118/70/202 124/38/193
s 9
f 38/13/73 24/10/64 98/30/67 92/29/96
s 21
f 140/46/218 130/44/209 142/71/212 148/47/223
s 7
f 20/72/37 32/73/53 114/35/82 108/34/38
s 9
f 40/74/84 90/75/95 120/37/170 116/36/85
s 18
f 88/28/159 82/27/148 126/40/151 122/39/172
s 2
f 80/26/43 12/5/32 106/76/35 128/33/153
s 1
f 30/8/14 2/1/1 132/77/4 138/43/62
s 2
f 10/78/6 70/79/30 144/42/134 134/41/7
s 16
f 68/23/125 102/80/128 150/49/185 146/48/136
s 9
f 100/32/68 22/9/57 136/81/60 152/45/187
s 2
f 74/82/122 76/83/140 162/52/143 156/51/123
s 17
f 84/84/145 86/85/157 168/54/163 164/53/146
s 9
f 94/86/165 96/87/176 174/57/179 170/56/166
s 14
f 104/31/130 66/22/117 154/88/120 176/50/181
s 2
f 9/95/28 10/78/6 1/89/5 177/192/249
s 1
f 1/89/2 2/1/1 3/90/13 177/192/250
s 3
f 3/90/10 4/2/9 5/92/20 177/192/251
s 2
f 5/91/17 6/3/16 7/94/24 177/191/249
f 7/93/24 8/4/23 9/95/28 177/192/249
s 7
f 19/102/51 20/72/37 11/96/36 178/194/252
s 2
f 11/96/33 12/5/32 13/97/40 178/194/253
f 13/97/40 14/67/26 15/99/25 178/194/253
f 15/98/25 16/6/27 17/101/48 178/193/253
s 8
f 17/100/45 18/7/44 19/102/54 178/194/254
s 1
f 29/108/15 30/8/14 21/103/61 179/195/255
s 9
f 21/103/58 22/9/57 23/104/65 179/195/256
f 23/104/65 24/10/64 25/105/70 179/195/256
f 25/105/70 26/11/69 27/107/77 179/195/256
s 3
f 27/106/74 28/65/12 29/108/11 179/195/257
s 9
f 39/114/93 40/74/84 31/109/83 180/196/258
s 7
f 31/109/80 32/73/53 33/110/52 180/196/259
s 8
f 33/110/56 34/12/55 35/112/90 180/196/260
s 9
f 35/111/87 36/61/72 37/113/71 180/196/258
f 37/113/71 38/13/73 39/114/93 180/196/258
s 13
f 45/119/103 46/62/100 41/116/99 181/198/261
s 3
f 41/115/97 42/66/76 43/118/75 181/197/262
s 9
f 43/117/79 44/15/78 45/119/106 181/198/263
s 8
f 51/123/92 52/17/91 47/121/111 182/200/264
s 13
f 47/120/108 48/63/105 49/122/104 182/199/265
s 9
f 49/122/107 50/16/89 51/124/88 182/199/266
s 2
f 57/129/113 58/64/19 53/126/18 183/202/267
s 3
f 53/125/22 54/14/21 55/128/98 183/201/268
s 13
f 55/127/102 56/20/101 57/129/115 183/202/269
s 8
f 63/133/112 64/18/47 59/131/46 184/204/270
s 2
f 59/130/50 60/19/49 61/132/114 184/203/271
s 13
f 61/132/116 62/21/110 63/134/109 184/203/272
s 2
f 73/139/138 74/82/122 65/135/121 185/205/273
s 14
f 65/135/118 66/22/117 67/136/129 185/205/274
s 16
f 67/136/126 68/23/125 69/137/135 185/205/275
s 2
f 69/137/132 70/79/30 71/138/29 185/205/273
f 71/138/29 72/24/31 73/139/138 185/205/273
s 17
f 83/144/155 84/84/145 75/140/144 186/206/276
s 2
f 75/140/141 76/83/140 77/141/139 186/206/277
f 77/141/139 78/25/42 79/142/41 186/206/277
f 79/142/41 80/26/43 81/143/152 186/206/277
s 18
f 81/143/149 82/27/148 83/144/158 186/206/278
s 9
f 93/149/174 94/86/165 85/145/164 187/207/279
s 17
f 85/145/161 86/85/157 87/146/156 187/207/280
s 18
f 87/146/160 88/28/159 89/147/171 187/207/281
s 9
f 89/147/168 90/75/95 91/148/94 187/207/279
f 91/148/94 92/29/96 93/149/174 187/207/279
s 14
f 103/154/131 104/31/130 95/150/180 188/208/282
s 9
f 95/150/177 96/87/176 97/151/175 188/208/283
f 97/151/175 98/30/67 99/152/66 188/208/283
f 99/152/66 100/32/68 101/153/186 188/208/283
s 16
f 101/153/183 102/80/128 103/154/127 188/208/284
s 20
f 109/157/195 110/68/192 105/155/191 189/209/285
s 2
f 105/155/189 106/76/35 107/156/34 189/209/286
s 7
f 107/156/39 108/34/38 109/157/198 189/209/287
s 9
f 115/160/86 116/36/85 111/158/203 190/210/288
s 20
f 111/158/200 112/69/197 113/159/196 190/210/289
s 7
f 113/159/199 114/35/82 115/160/81 190/210/290
s 18
f 121/163/173 122/39/172 117/161/207 191/211/291
s 20
f 117/161/205 118/70/202 119/162/201 191/211/292
s 9
f 119/162/204 120/37/170 121/163/169 191/211/293
s 2
f 127/166/154 128/33/153 123/164/190 192/212/294
s 20
f 123/164/194 124/38/193 125/165/206 192/212/295
s 18
f 125/165/208 126/40/151 127/166/150 192/212/296
s 2
f 133/169/8 134/41/7 129/167/213 193/213/297
s 21
f 129/167/210 130/44/209 131/168/217 193/213/298
s 1
f 131/168/215 132/77/4 133/169/3 193/213/299
s 21
f 139/172/219 140/46/218 135/170/222 194/214/300
s 9
f 135/170/220 136/81/60 137/171/59 194/214/301
s 1
f 137/171/63 138/43/62 139/172/216 194/214/302
s 16
f 145/175/137 146/48/136 141/173/227 195/215/303
s 21
f 141/173/225 142/71/212 143/174/211 195/215/304
s 2
f 143/174/214 144/42/134 145/175/133 195/215/305
s 9
f 151/178/188 152/45/187 147/176/221 196/216/306
s 21
f 147/176/224 148/47/223 149/177/226 196/216/307
s 16
f 149/177/228 150/49/185 151/178/184 196/216/308
s 22
f 157/181/235 158/58/232 153/179/231 197/217/309
s 14
f 153/179/229 154/88/120 155/180/119 197/217/310
s 2
f 155/180/124 156/51/123 157/181/238 197/217/311
s 17
f 163/184/147 164/53/146 159/182/243 198/218/312
s 22
f 159/182/240 160/59/237 161/183/236 198/218/313
s 2
f 161/183/239 162/52/143 163/184/142 198/218/314
s 9
f 169/187/167 170/56/166 165/185/247 199/219/315
s 22
f 165/185/245 166/60/242 167/186/241 199/219/316
s 17
f 167/186/244 168/54/163 169/187/162 199/219/317
s 14
f 175/190/182 176/50/181 171/188/230 200/220/318
s 22
f 171/188/234 172/55/233 173/189/246 200/220/319
s 9
f 173/189/248 174/57/179 175/190/178 200/220/320
v -4.314751 1.215732 -11.709182
v -4.314298 1.215828 -11.709257
v -4.314644 1.215509 -11.709339
v -4.314732 1.215499 -11.709332
v -4.351184 1.216293 -11.704311
v -4.314835 1.215840 -11.708785
v -4.314835 1.216091 -11.664175
v -4.314457 1.215940 -11.708842
v -4.351162 1.216397 -11.703932
v -4.351477 1.216249 -11.704208
v -4.351201 1.216077 -11.704464
v -4.351168 1.216593 -11.669028
v -4.351539 1.216301 -11.703905
v -4.315941 1.213236 -11.709218
v -4.314633 1.209868 -11.709325
v -4.313228 1.212701 -11.709504
v -4.314673 1.177343 -11.709123
v -4.313478 1.179397 -11.709309
v -4.314696 1.182432 -11.709163
v -4.315889 1.179920 -11.709015
v -4.314307 1.215516 -11.709379
v -4.351201 1.176827 -11.704242
v -4.351550 1.216086 -11.704270
v -4.314458 1.216194 -11.664124
v -4.314300 1.216166 -11.708870
v -4.314272 2.028472 -11.713432
v -4.314141 1.216115 -11.709243
v -4.314299 1.216424 -11.664103
v -4.314296 1.216088 -11.663704
v -4.314272 2.028725 -11.668686
v -4.314135 1.216379 -11.663723
v -4.314752 1.215987 -11.663775
v -4.314113 2.028472 -11.713802
v -4.313766 1.216066 -11.709398
v -4.198395 1.216076 -11.709398
v -4.313815 1.215813 -11.709399
v -4.313742 2.028470 -11.713962
v -4.314045 2.028648 -11.713735
v -4.198396 2.028469 -11.713962
v -4.313745 2.028699 -11.713810
v -4.314118 2.028702 -11.713436
v -4.198335 1.215817 -11.709399
v -4.313871 1.215554 -11.709403
v -4.313875 1.177288 -11.709187
v -4.198268 1.215555 -11.709403
v -4.197842 1.215832 -11.709255
v -4.198270 1.177284 -11.709187
v -4.197831 1.215516 -11.709379
v -4.198004 1.216123 -11.709239
v -4.314307 1.177332 -11.709164
v -4.314265 1.177026 -11.709037
v -4.314735 1.177121 -11.708975
v -4.313790 1.177031 -11.709171
v -4.197386 1.215731 -11.709183
v -4.197303 1.215840 -11.708784
v -4.160951 1.216294 -11.704311
v -4.197467 1.215508 -11.709337
v -4.199454 1.211285 -11.709594
v -4.197429 1.207129 -11.709301
v -4.195411 1.211289 -11.709095
v -4.197447 1.177368 -11.709124
v -4.160937 1.216078 -11.704464
v -4.160660 1.216249 -11.704209
v -4.160970 1.216396 -11.703937
v -4.160937 1.176827 -11.704243
v -4.160588 1.216086 -11.704271
v -4.197303 1.216091 -11.664175
v -4.197680 1.215942 -11.708836
v -4.160977 1.216593 -11.669033
v -4.160596 1.216300 -11.703906
v -4.197822 1.177342 -11.709162
v -4.197865 1.177029 -11.709035
v -4.198348 1.177030 -11.709171
v -4.197390 1.177124 -11.708969
v -4.198026 2.028473 -11.713802
v -4.197839 1.216172 -11.708860
v -4.197839 1.216418 -11.664092
v -4.197865 2.028472 -11.713432
v -4.198094 2.028648 -11.713735
v -4.198019 2.028701 -11.713436
v -4.197866 2.028724 -11.668685
v -4.198393 2.028700 -11.713808
v -4.197681 1.216192 -11.664118
v -4.197841 1.216085 -11.663702
v -4.197387 1.215988 -11.663776
v -4.197998 1.216371 -11.663719
v -4.351187 1.216495 -11.668653
v -4.314672 1.215766 -11.663618
v -4.312684 1.211545 -11.663313
v -4.314709 1.207385 -11.663560
v -4.316728 1.211543 -11.663813
v -4.314691 1.177626 -11.663402
v -4.314308 1.215774 -11.663576
v -4.351201 1.216280 -11.668497
v -4.351478 1.216449 -11.668755
v -4.351201 1.177029 -11.668276
v -4.351550 1.216287 -11.668691
v -4.351542 1.216497 -11.669058
v -4.314317 1.177600 -11.663363
v -4.313870 1.215813 -11.663553
v -4.198267 1.215813 -11.663553
v -4.313803 1.216075 -11.663560
v -4.313869 1.177543 -11.663338
v -4.314273 1.177286 -11.663487
v -4.313791 1.177288 -11.663351
v -4.198263 1.177547 -11.663338
v -4.314748 1.177380 -11.663554
v -4.198323 1.216071 -11.663560
v -4.313743 1.216334 -11.663564
v -4.313743 2.028727 -11.668155
v -4.198372 1.216325 -11.663564
v -4.198396 2.028727 -11.668155
v -4.197831 1.215774 -11.663576
v -4.314112 2.028729 -11.668315
v -4.314045 2.028904 -11.668384
v -4.314119 2.028954 -11.668684
v -4.313746 2.028956 -11.668311
v -4.197495 1.215767 -11.663616
v -4.197407 1.215756 -11.663623
v -4.160954 1.216494 -11.668653
v -4.160661 1.216449 -11.668756
v -4.160937 1.216280 -11.668497
v -4.160599 1.216498 -11.669059
v -4.196198 1.213493 -11.663712
v -4.197505 1.210126 -11.663567
v -4.198911 1.212960 -11.663419
v -4.197466 1.177601 -11.663402
v -4.198660 1.179657 -11.663240
v -4.197442 1.182690 -11.663419
v -4.196249 1.180177 -11.663539
v -4.160938 1.177030 -11.668277
v -4.160588 1.216286 -11.668691
v -4.198025 2.028729 -11.668316
v -4.198094 2.028903 -11.668384
v -4.198393 2.028956 -11.668310
v -4.198020 2.028954 -11.668683
v -4.197832 1.177590 -11.663362
v -4.197873 1.177283 -11.663484
v -4.197403 1.177377 -11.663548
v -4.198347 1.177287 -11.663350
v -4.313745 2.029060 -11.668685
v -4.313744 2.028808 -11.713436
v -4.198394 2.029060 -11.668685
v -4.198394 2.028808 -11.713436
v -4.314036 1.176745 -11.708990
v -4.313675 1.176784 -11.709144
v -4.258373 1.011546 -11.686264
v -4.314189 1.176705 -11.708622
v -4.314189 1.176957 -11.663896
v -4.314409 1.176926 -11.708636
v -4.258533 1.011534 -11.685922
v -4.258260 1.011376 -11.686178
v -4.258006 1.011562 -11.686412
v -4.258533 1.011541 -11.684733
v -4.258325 1.011323 -11.685896
v -4.198463 1.176783 -11.709144
v -4.254119 1.011552 -11.686410
v -4.257957 1.011334 -11.686240
v -4.314411 1.177178 -11.663889
v -4.314801 1.177017 -11.708605
v -4.351162 1.176514 -11.703707
v -4.314811 1.177269 -11.663928
v -4.351162 1.176710 -11.668808
v -4.314034 1.177001 -11.663528
v -4.351185 1.176612 -11.704086
v -4.351477 1.176663 -11.703976
v -4.351550 1.176832 -11.704039
v -4.351540 1.176617 -11.703660
v -4.198104 1.176744 -11.708991
v -4.197949 1.176705 -11.708622
v -4.253761 1.011540 -11.686261
v -4.253874 1.011373 -11.686177
v -4.253605 1.011534 -11.685922
v -4.254172 1.011332 -11.686241
v -4.197949 1.176957 -11.663896
v -4.197727 1.176926 -11.708631
v -4.253606 1.011541 -11.684734
v -4.253814 1.011323 -11.685896
v -4.160954 1.176612 -11.704087
v -4.197328 1.177017 -11.708593
v -4.197338 1.177269 -11.663917
v -4.160976 1.176513 -11.703708
v -4.160661 1.176658 -11.703985
v -4.160599 1.176609 -11.703681
v -4.160977 1.176711 -11.668809
v -4.160588 1.176820 -11.704049
v -4.197729 1.177178 -11.663885
v -4.198103 1.177001 -11.663528
v -4.198463 1.177042 -11.663374
v -4.253762 1.011551 -11.684393
v -4.253882 1.011382 -11.684482
v -4.254121 1.011565 -11.684246
v -4.253821 1.011329 -11.684772
v -4.313675 1.177041 -11.663375
v -4.258019 1.011564 -11.684245
v -4.254191 1.011340 -11.684422
v -4.160954 1.176813 -11.668431
v -4.160662 1.176863 -11.668541
v -4.160589 1.177033 -11.668480
v -4.160598 1.176813 -11.668857
v -4.258377 1.011551 -11.684394
v -4.258263 1.011383 -11.684476
v -4.257964 1.011342 -11.684413
v -4.258324 1.011329 -11.684756
v -4.351184 1.176813 -11.668429
v -4.351477 1.176858 -11.668533
v -4.351539 1.176805 -11.668836
v -4.351550 1.177021 -11.668470
v -4.160443 1.216088 -11.703899
v -4.160443 1.176823 -11.703677
v -4.160443 1.216284 -11.669063
v -4.160442 1.177042 -11.668880
v -4.351695 1.216087 -11.703899
v -4.351696 1.216284 -11.669062
v -4.351697 1.176846 -11.703639
v -4.351696 1.177019 -11.668842
v -4.257946 1.011232 -11.685883
v -4.257947 1.011238 -11.684769
v -4.254192 1.011232 -11.685883
v -4.254218 1.011238 -11.684796
v -4.314528 1.214553 -11.709389
v -4.314701 1.177969 -11.709172
v -4.197357 1.213926 -11.709329
v -4.314780 1.214180 -11.663608
v -4.197610 1.214811 -11.663555
v -4.197437 1.178227 -11.663360
vt 0.374996 0.001051
vt 0.375000 0.000764
vt 0.375000 0.000176
vt 0.374990 0.001310
vt 0.374985 0.000563
vt 0.375000 0.000166
vt 0.375000 0.001133
vt 0.375014 0.000062
vt 0.375295 0.000001
vt 0.375000 0.000211
vt 0.375000 0.001493
vt 0.375000 0.000863
vt 0.375000 0.000216
vt 0.374989 0.003308
vt 0.374939 0.002863
vt 0.375000 0.003591
vt 0.375000 0.003654
vt 0.374996 0.006983
vt 0.374990 0.246683
vt 0.375000 0.012004
vt 0.375000 0.247013
vt 0.374932 0.012763
vt 0.374938 0.246699
vt 0.375000 0.004488
vt 0.375000 0.246511
vt 0.375000 0.001038
vt 0.375000 0.000559
vt 0.375000 0.000887
vt 0.375000 0.000415
vt 0.375000 0.003481
vt 0.375000 0.003277
vt 0.375000 0.000324
vt 0.375000 0.000680
vt 0.375000 0.004732
vt 0.375000 0.246723
vt 0.375000 0.004947
vt 0.375000 0.246325
vt 0.375055 0.000000
vt 0.375047 0.000000
vt 0.375036 0.000005
vt 0.375001 0.000000
vt 0.375014 0.000000
vt 0.375002 0.000058
vt 0.375038 0.000000
vt 0.375054 0.000006
vt 0.375000 0.000039
vt 0.375000 0.000012
vt 0.375322 -0.000000
vt 0.375321 -0.000000
vt 0.375000 0.000082
vt 0.375000 0.000753
vt 0.375000 0.000497
vt 0.374931 0.002710
vt 0.374942 0.000172
vt 0.374921 0.246697
vt 0.374912 0.002561
vt 0.374749 0.000449
vt 0.374899 0.008690
vt 0.374902 0.246550
vt 0.374878 0.007460
vt 0.125169 0.002581
vt 0.374879 0.003356
vt 0.125111 0.003234
vt 0.374644 0.000162
vt 0.125414 0.000284
vt 0.374879 0.246707
vt 0.125126 0.246697
vt 0.374933 0.247261
vt 0.374964 0.249561
vt 0.374938 0.247352
vt 0.374992 0.249603
vt 0.374893 0.247419
vt 0.374719 0.249584
vt 0.374989 0.247298
vt 0.374989 0.248867
vt 0.374693 0.247428
vt 0.125156 0.247436
vt 0.374545 0.249554
vt 0.125389 0.249595
vt 0.375000 0.247273
vt 0.375000 0.249140
vt 0.375000 0.248916
vt 0.375196 0.999750
vt 0.375166 0.999973
vt 0.375085 0.999649
vt 0.375158 0.750390
vt 0.376010 0.999905
vt 0.376031 0.999984
vt 0.376004 0.999891
vt 0.376027 0.750165
vt 0.384942 0.999915
vt 0.623644 0.999942
vt 0.376264 0.999912
vt 0.623828 0.999830
vt 0.399604 0.999991
vt 0.623515 0.999989
vt 0.376410 0.750121
vt 0.623685 0.750120
vt 0.375114 0.750269
vt 0.375182 0.749958
vt 0.125263 0.000417
vt 0.125034 0.000441
vt 0.376301 0.749964
vt 0.376202 0.749478
vt 0.125083 0.002375
vt 0.125023 0.001697
vt 0.377381 0.749919
vt 0.623760 0.749943
vt 0.377376 0.749398
vt 0.623805 0.749401
vt 0.125086 0.247223
vt 0.125009 0.002151
vt 0.125024 0.247959
vt 0.376023 0.000000
vt 0.375177 0.000000
vt 0.378306 0.000000
vt 0.623646 0.000000
vt 0.372876 0.000000
vt 0.375402 0.000000
vt 0.454698 0.000000
vt 0.623874 0.000000
vt 0.398536 0.000000
vt 0.375984 0.000000
vt 0.375833 0.000000
vt 0.379799 0.000000
vt 0.375422 0.000000
vt 0.375426 0.000000
vt 0.622561 0.000000
vt 0.624063 -0.000000
vt 0.623979 0.000000
vt 0.623961 0.999982
vt 0.623937 0.000000
vt 0.624839 0.000001
vt 0.624597 0.000000
vt 0.624930 0.999922
vt 0.623937 0.999903
vt 0.624793 0.999735
vt 0.624164 0.000000
vt 0.624155 0.000000
vt 0.624547 0.000000
vt 0.624556 0.000000
vt 0.623981 0.750168
vt 0.624938 0.999278
vt 0.624887 0.750417
vt 0.375336 0.000001
vt 0.375030 0.000064
vt 0.375381 0.000000
vt 0.375181 0.000032
vt 0.375000 0.000096
vt 0.375000 0.000536
vt 0.375833 -0.000000
vt 0.375861 0.000000
vt 0.375000 0.000155
vt 0.375000 0.000185
vt 0.375000 0.000603
vt 0.375000 0.000693
vt 0.623915 -0.000000
vt 0.434078 0.000002
vt 0.623767 0.000000
vt 0.625003 0.000764
vt 0.625005 0.001114
vt 0.625010 0.000530
vt 0.625000 0.000542
vt 0.624989 0.000007
vt 0.625000 0.000843
vt 0.625000 0.002686
vt 0.625011 0.002991
vt 0.625063 0.002844
vt 0.625000 0.000688
vt 0.625000 0.001147
vt 0.625000 0.002699
vt 0.624999 0.000082
vt 0.624719 0.000001
vt 0.625000 0.000093
vt 0.625000 0.000136
vt 0.624994 0.000003
vt 0.624991 0.000000
vt 0.624972 0.000004
vt 0.624940 0.000000
vt 0.624984 0.000066
vt 0.624987 0.000000
vt 0.625000 0.000021
vt 0.624646 0.000000
vt 0.624659 -0.000000
vt 0.625000 0.000002
vt 0.625000 0.000001
vt 0.625000 0.000889
vt 0.625000 0.000480
vt 0.625000 0.000351
vt 0.625000 0.001019
vt 0.625000 0.000524
vt 0.625000 0.000197
vt 0.625000 0.000603
vt 0.625000 0.002507
vt 0.625000 0.002774
vt 0.625000 0.000082
vt 0.625000 0.000112
vt 0.625000 0.000514
vt 0.625000 0.000540
vt 0.625005 0.003632
vt 0.625000 0.245822
vt 0.625011 0.004390
vt 0.625011 0.246120
vt 0.625000 0.010970
vt 0.625000 0.245701
vt 0.625062 0.004331
vt 0.625062 0.246829
vt 0.625000 0.245701
vt 0.625000 0.008803
vt 0.625000 0.245808
vt 0.624683 0.000000
vt 0.624855 0.000002
vt 0.625000 0.000085
vt 0.624114 -0.000000
vt 0.623914 0.000012
vt 0.624984 0.000084
vt 0.625000 0.000656
vt 0.623943 0.000068
vt 0.625000 0.000215
vt 0.625000 0.001086
vt 0.625000 0.000962
vt 0.625265 0.000409
vt 0.625030 0.000436
vt 0.625402 0.000218
vt 0.874604 0.000397
vt 0.625092 0.002577
vt 0.625071 0.002599
vt 0.625173 0.002730
vt 0.874842 0.002714
vt 0.625114 0.014078
vt 0.625097 0.246717
vt 0.625123 0.009702
vt 0.625129 0.247148
vt 0.625075 0.012322
vt 0.625078 0.246550
vt 0.874875 0.003070
vt 0.874876 0.246648
vt 0.874703 0.000214
vt 0.624856 0.749641
vt 0.874958 0.000325
vt 0.624781 0.750210
vt 0.624754 0.749955
vt 0.874915 0.002765
vt 0.874978 0.001803
vt 0.623986 0.749978
vt 0.624003 0.749511
vt 0.874977 0.002513
vt 0.874916 0.245801
vt 0.874978 0.243207
vt 0.625069 0.247099
vt 0.625011 0.249380
vt 0.624991 0.249796
vt 0.625069 0.247291
vt 0.625058 0.249828
vt 0.625008 0.246668
vt 0.625008 0.248662
vt 0.625088 0.247439
vt 0.625252 0.249551
vt 0.625000 0.246597
vt 0.625000 0.246524
vt 0.625000 0.248549
vt 0.625000 0.248494
vt 0.625003 0.249078
vt 0.874831 0.247419
vt 0.625356 0.249838
vt 0.874586 0.249716
vt 0.375000 0.249457
vt 0.375052 0.249994
vt 0.375000 0.249311
vt 0.375001 0.249918
vt 0.375277 0.249999
vt 0.375000 0.249907
vt 0.375000 0.249863
vt 0.375007 0.250000
vt 0.375009 0.250000
vt 0.375028 0.249996
vt 0.375060 0.250000
vt 0.375016 0.249933
vt 0.375013 0.250000
vt 0.375000 0.249972
vt 0.375374 0.250000
vt 0.375387 0.250000
vt 0.375341 0.250000
vt 0.375000 0.249997
vt 0.375000 0.249999
vt 0.375000 0.249111
vt 0.375000 0.249649
vt 0.375000 0.248981
vt 0.375000 0.249476
vt 0.375000 0.249803
vt 0.375000 0.249398
vt 0.375000 0.247491
vt 0.375000 0.247222
vt 0.375000 0.249919
vt 0.375000 0.249888
vt 0.375000 0.249486
vt 0.375000 0.249460
vt 0.375138 0.250009
vt 0.375442 0.250000
vt 0.375653 0.250002
vt 0.380728 0.250004
vt 0.375877 0.250021
vt 0.375876 0.250000
vt 0.375863 0.250000
vt 0.626446 0.250003
vt 0.625117 0.250007
vt 0.379085 0.250001
vt 0.624102 0.250000
vt 0.398527 0.250038
vt 0.623736 0.250038
vt 0.376054 0.250000
vt 0.623435 0.250000
vt 0.375317 0.250000
vt 0.375145 0.249998
vt 0.375000 0.249915
vt 0.374061 0.250000
vt 0.376112 0.249987
vt 0.375016 0.249916
vt 0.375000 0.249344
vt 0.376157 0.250000
vt 0.376055 0.249932
vt 0.621837 0.250000
vt 0.592798 0.250000
vt 0.375000 0.249780
vt 0.375000 0.249074
vt 0.375000 0.249034
vt 0.375850 0.250054
vt 0.375055 0.250080
vt 0.623624 0.250049
vt 0.375831 0.250104
vt 0.375165 0.250270
vt 0.488035 0.250052
vt 0.621612 0.250069
vt 0.404957 0.250132
vt 0.376019 0.499832
vt 0.376459 0.250093
vt 0.377135 0.500030
vt 0.375062 0.250723
vt 0.375113 0.499583
vt 0.623344 0.250089
vt 0.623696 0.499874
vt 0.624085 0.250046
vt 0.624867 0.250072
vt 0.624112 0.250029
vt 0.624862 0.249999
vt 0.624599 0.250000
vt 0.624033 0.250107
vt 0.624836 0.250272
vt 0.624018 0.250112
vt 0.623980 0.499852
vt 0.624824 0.250318
vt 0.624840 0.499615
vt 0.624147 0.250000
vt 0.624578 0.250000
vt 0.624574 0.250000
vt 0.125297 0.249785
vt 0.375144 0.500359
vt 0.125042 0.249677
vt 0.375219 0.499790
vt 0.375244 0.500045
vt 0.125083 0.247447
vt 0.125022 0.248204
vt 0.376023 0.500022
vt 0.376004 0.500490
vt 0.623692 0.500069
vt 0.377540 0.500719
vt 0.623698 0.500597
vt 0.625000 0.249235
vt 0.625000 0.249833
vt 0.624986 0.249937
vt 0.624705 0.249999
vt 0.625000 0.249792
vt 0.625000 0.249136
vt 0.625000 0.249781
vt 0.625000 0.248962
vt 0.625000 0.249498
vt 0.625000 0.249441
vt 0.625000 0.249113
vt 0.625000 0.249585
vt 0.625000 0.246472
vt 0.625000 0.246690
vt 0.625000 0.249675
vt 0.625000 0.249323
vt 0.624945 0.250000
vt 0.624953 0.250000
vt 0.624964 0.249995
vt 0.624999 0.250000
vt 0.624986 0.250000
vt 0.624997 0.249948
vt 0.624962 0.250000
vt 0.624946 0.249994
vt 0.625000 0.249961
vt 0.625000 0.249988
vt 0.624678 0.250000
vt 0.624679 0.250000
vt 0.625000 0.249919
vt 0.625000 0.249383
vt 0.625000 0.249503
vt 0.624887 0.499731
vt 0.624869 0.500291
vt 0.624818 0.500042
vt 0.874737 0.249583
vt 0.874966 0.249561
vt 0.623910 0.500032
vt 0.623947 0.500523
vt 0.874917 0.247625
vt 0.874977 0.248303
vt 0.624664 0.249999
vt 0.624970 0.249936
vt 0.624619 0.250000
vt 0.624819 0.249969
vt 0.625000 0.249904
vt 0.625000 0.249464
vt 0.624270 0.250000
vt 0.624299 0.250000
vt 0.625000 0.249842
vt 0.625000 0.249815
vt 0.625000 0.249408
vt 0.625000 0.249309
vt 0.375088 0.501523
vt 0.375163 0.502384
vt 0.376003 0.502830
vt 0.376079 0.502532
vt 0.376032 0.500992
vt 0.375173 0.747891
vt 0.376013 0.746993
vt 0.375177 0.748395
vt 0.375198 0.749528
vt 0.375970 0.747523
vt 0.375968 0.749000
vt 0.376799 0.502928
vt 0.623695 0.503300
vt 0.376372 0.502701
vt 0.623763 0.502646
vt 0.376364 0.747002
vt 0.623700 0.746788
vt 0.376419 0.501127
vt 0.623695 0.501091
vt 0.623702 0.747301
vt 0.376841 0.749027
vt 0.623699 0.748861
vt 0.624032 0.500842
vt 0.624014 0.502603
vt 0.624832 0.501695
vt 0.623974 0.503736
vt 0.623993 0.747000
vt 0.624819 0.501945
vt 0.624832 0.747737
vt 0.624912 0.748479
vt 0.623942 0.747468
vt 0.623981 0.749008
vt 0.375629 0.001040
vt 0.375737 0.000838
vt 0.375268 0.000201
vt 0.375576 0.001251
vt 0.375094 0.000558
vt 0.375715 0.001209
vt 0.376072 0.000153
vt 0.376112 0.000091
vt 0.376340 0.000068
vt 0.383510 0.028573
vt 0.386216 0.020140
vt 0.391376 0.003389
vt 0.375105 0.002890
vt 0.375098 0.002728
vt 0.375075 0.003106
vt 0.376166 0.056143
vt 0.375010 0.014072
vt 0.375000 0.246825
vt 0.375001 0.013043
vt 0.375071 0.247009
vt 0.375000 0.015541
vt 0.375000 0.246713
vt 0.375047 0.065962
vt 0.375017 0.194602
vt 0.384479 0.021662
vt 0.378666 0.009148
vt 0.376270 0.009354
vt 0.386781 0.020749
vt 0.382337 0.009604
vt 0.375990 0.053833
vt 0.381231 0.052523
vt 0.391901 0.005709
vt 0.393732 0.013085
vt 0.376679 0.066576
vt 0.376581 0.195937
vt 0.382347 0.067146
vt 0.382393 0.192218
vt 0.385814 0.000006
vt 0.623382 0.000000
vt 0.411050 0.000000
vt 0.623490 0.000010
vt 0.394784 0.001069
vt 0.593386 0.000259
vt 0.384483 0.000012
vt 0.623641 0.000000
vt 0.593791 0.002519
vt 0.398576 0.012546
vt 0.594647 0.010225
vt 0.375002 0.002633
vt 0.375000 0.000516
vt 0.375000 0.246605
vt 0.375000 0.002542
vt 0.375000 0.001116
vt 0.375000 0.002763
vt 0.375000 0.246144
vt 0.375000 0.007370
vt 0.375000 0.002752
vt 0.375000 0.007720
vt 0.375000 0.003590
vt 0.375000 0.000939
vt 0.375000 0.001088
vt 0.375000 0.246008
vt 0.375000 0.245706
vt 0.375043 0.247220
vt 0.375003 0.249410
vt 0.375115 0.247300
vt 0.375151 0.249567
vt 0.375000 0.246841
vt 0.375000 0.248702
vt 0.375120 0.247398
vt 0.375687 0.248715
vt 0.375000 0.246770
vt 0.375000 0.246534
vt 0.375000 0.248573
vt 0.375000 0.248518
vt 0.377401 0.204509
vt 0.375756 0.248848
vt 0.389654 0.227147
vt 0.375000 0.000895
vt 0.375000 0.000474
vt 0.375000 0.000339
vt 0.375000 0.001029
vt 0.375000 0.000528
vt 0.375000 0.000201
vt 0.375000 0.000588
vt 0.375000 0.002553
vt 0.375000 0.002873
vt 0.375000 0.245695
vt 0.375000 0.003842
vt 0.375000 0.245787
vt 0.624657 0.000208
vt 0.623650 0.000155
vt 0.624156 0.000797
vt 0.623545 0.000161
vt 0.598313 0.003061
vt 0.624032 0.000885
vt 0.606740 0.016571
vt 0.624266 0.001001
vt 0.624273 0.001296
vt 0.624860 0.000566
vt 0.624849 0.002980
vt 0.624927 0.003177
vt 0.624917 0.003020
vt 0.611872 0.023298
vt 0.622878 0.044900
vt 0.610849 0.018978
vt 0.620746 0.008371
vt 0.616353 0.007930
vt 0.615098 0.019183
vt 0.624239 0.008936
vt 0.597501 0.004310
vt 0.598884 0.012058
vt 0.624255 0.041183
vt 0.619442 0.042892
vt 0.624996 0.012576
vt 0.625000 0.246387
vt 0.625000 0.016371
vt 0.624994 0.246596
vt 0.624223 0.056258
vt 0.624780 0.183885
vt 0.624999 0.010491
vt 0.625000 0.248064
vt 0.623278 0.183204
vt 0.616554 0.060936
vt 0.617310 0.181157
vt 0.625000 0.001275
vt 0.624973 0.000564
vt 0.625000 0.001481
vt 0.625000 0.003137
vt 0.625000 0.002680
vt 0.625000 0.003405
vt 0.625000 0.003658
vt 0.625000 0.003763
vt 0.625000 0.246853
vt 0.625000 0.004000
vt 0.625000 0.247208
vt 0.625000 0.003883
vt 0.625000 0.246715
vt 0.625000 0.011495
vt 0.625000 0.246501
vt 0.625000 0.001038
vt 0.625000 0.000559
vt 0.625000 0.000886
vt 0.625000 0.000415
vt 0.625000 0.003802
vt 0.625000 0.003308
vt 0.625000 0.000325
vt 0.625000 0.000678
vt 0.625000 0.004490
vt 0.625000 0.246686
vt 0.625000 0.246328
vt 0.624966 0.247233
vt 0.624885 0.249407
vt 0.624998 0.247370
vt 0.625000 0.249484
vt 0.624898 0.247082
vt 0.624412 0.248721
vt 0.625000 0.247460
vt 0.625000 0.248884
vt 0.624895 0.247034
vt 0.623721 0.196616
vt 0.624403 0.248597
vt 0.616751 0.221309
vt 0.624372 0.249076
vt 0.625000 0.247239
vt 0.625000 0.249056
vt 0.625000 0.248904
vt 0.624264 0.249163
vt 0.624732 0.249799
vt 0.623909 0.249843
vt 0.623918 0.249909
vt 0.624025 0.249909
vt 0.614028 0.229998
vt 0.609140 0.246496
vt 0.615678 0.228304
vt 0.621384 0.241276
vt 0.623780 0.240823
vt 0.613361 0.229266
vt 0.617646 0.240350
vt 0.624024 0.195966
vt 0.618416 0.196170
vt 0.608459 0.244085
vt 0.605990 0.236512
vt 0.615836 0.249994
vt 0.376595 0.249994
vt 0.614366 0.250000
vt 0.376539 0.249990
vt 0.605658 0.248868
vt 0.406561 0.249725
vt 0.617627 0.249989
vt 0.376237 0.249999
vt 0.406307 0.247476
vt 0.600984 0.236991
vt 0.405548 0.239746
vt 0.625000 0.249105
vt 0.625000 0.249526
vt 0.625000 0.249661
vt 0.625000 0.248971
vt 0.625000 0.249472
vt 0.625000 0.249799
vt 0.625000 0.249412
vt 0.625000 0.247447
vt 0.625000 0.247127
vt 0.375343 0.249792
vt 0.376352 0.249844
vt 0.375843 0.249201
vt 0.376408 0.249846
vt 0.401692 0.246940
vt 0.375897 0.249162
vt 0.393065 0.233360
vt 0.389170 0.231021
vt 0.383667 0.242070
vt 0.384920 0.230810
vt 0.375775 0.241046
vt 0.402543 0.245691
vt 0.401253 0.237939
vt 0.375738 0.208830
vt 0.380552 0.207175
vt 0.375000 0.248963
vt 0.375000 0.249441
vt 0.375000 0.249113
vt 0.375000 0.249585
vt 0.375000 0.246471
vt 0.375000 0.246699
vt 0.375000 0.249675
vt 0.375000 0.249319
vt 0.625000 0.000741
vt 0.625000 0.000958
vt 0.625000 0.003176
vt 0.625000 0.003243
vt 0.625000 0.003077
vt 0.625000 0.001016
vt 0.625000 0.003176
vt 0.625000 0.000859
vt 0.625000 0.000602
vt 0.625000 0.003013
vt 0.625000 0.003029
vt 0.625000 0.010831
vt 0.625000 0.246167
vt 0.625000 0.016534
vt 0.625000 0.246119
vt 0.625000 0.017898
vt 0.625000 0.245614
vt 0.625000 0.007043
vt 0.625000 0.246267
vt 0.625000 0.245794
vt 0.625000 0.004147
vt 0.625000 0.245910
vt 0.625000 0.246939
vt 0.625000 0.246930
vt 0.625000 0.249104
vt 0.625000 0.246798
vt 0.625000 0.246565
vt 0.625000 0.248952
vt 0.625000 0.248983
vt 0.625000 0.249263
vt 0.625000 0.246485
vt 0.625000 0.246735
vt 0.375000 0.000859
vt 0.375000 0.000602
vt 0.375000 0.001006
vt 0.375000 0.003013
vt 0.375000 0.003028
vt 0.375000 0.003378
vt 0.375000 0.003597
vt 0.375000 0.003812
vt 0.375000 0.246079
vt 0.375000 0.003984
vt 0.375000 0.246411
vt 0.375000 0.003901
vt 0.375000 0.245719
vt 0.375000 0.004282
vt 0.375000 0.245939
vt 0.375000 0.000736
vt 0.375000 0.003515
vt 0.375000 0.003265
vt 0.375000 0.023381
vt 0.375000 0.246156
vt 0.375000 0.004037
vt 0.375000 0.246029
vt 0.375000 0.247144
vt 0.375000 0.249431
vt 0.375000 0.247013
vt 0.375000 0.249112
vt 0.375000 0.246816
vt 0.375000 0.249133
vt 0.375000 0.249076
vt 0.375000 0.249141
vt 0.375000 0.249398
vt 0.375000 0.246987
vt 0.375000 0.246972
vt 0.383946 0.049056
vt 0.386004 0.059290
vt 0.398776 0.065982
vt 0.398442 0.049623
vt 0.394002 0.018071
vt 0.386489 0.191694
vt 0.398819 0.187218
vt 0.384832 0.205547
vt 0.379538 0.240284
vt 0.396824 0.201077
vt 0.396681 0.231845
vt 0.402893 0.057649
vt 0.595512 0.065809
vt 0.403619 0.052522
vt 0.597021 0.051687
vt 0.404361 0.190956
vt 0.594488 0.183186
vt 0.399619 0.020404
vt 0.595136 0.019898
vt 0.595004 0.194331
vt 0.405050 0.232390
vt 0.599678 0.228817
vt 0.602583 0.015691
vt 0.602460 0.053114
vt 0.614686 0.048113
vt 0.600922 0.065531
vt 0.599911 0.183779
vt 0.613213 0.061815
vt 0.612946 0.180620
vt 0.615660 0.199149
vt 0.600225 0.197334
vt 0.605370 0.231367
vt 0.375052 0.000000
vt 0.375048 0.000000
vt 0.375013 0.000000
vt 0.375014 0.000000
vt 0.624992 0.000000
vt 0.624991 -0.000000
vt 0.375008 0.250000
vt 0.375009 0.250000
vt 0.624948 0.250000
vt 0.624952 0.250000
vt 0.624987 0.250000
vt 0.624986 0.250000
vt 0.375050 0.000000
vt 0.375012 0.000000
vt 0.624993 0.000000
vt 0.375007 0.250000
vt 0.624950 0.250000
vt 0.624987 0.250000
vn 0.109531 0.007138 0.993958
vn 0.099004 0.006536 0.995066
vn 0.171661 0.002829 0.985152
vn -0.083748 -0.005581 -0.996471
vn -0.104213 -0.003457 -0.994549
vn -0.132205 -0.008213 -0.991188
vn -0.133560 -0.004533 -0.991030
vn -0.092136 -0.006329 -0.995726
vn -0.156992 -0.003505 -0.987594
vn -0.132318 -0.002694 -0.991204
vn -0.144053 -0.005650 -0.989554
vn 0.131248 0.005206 0.991336
vn 0.128441 0.003306 0.991711
vn 0.129779 0.004509 0.991533
vn -0.122514 0.005824 0.992450
vn -0.129671 0.005807 0.991540
vn -0.131344 0.005985 0.991319
vn 0.139919 -0.005461 -0.990148
vn 0.139919 -0.005461 -0.990148
vn 0.139919 -0.005461 -0.990148
vn 0.105582 -0.005503 -0.994395
vn 0.105582 -0.005503 -0.994395
vn 0.105582 -0.005503 -0.994395
vn -0.115385 0.005822 0.993304
vn -0.113637 0.005987 0.993504
vn 0.122499 -0.005348 -0.992454
vn 0.129667 -0.005359 -0.991543
vn 0.131345 -0.005187 -0.991323
vn -0.139915 0.005697 0.990147
vn -0.139915 0.005697 0.990147
vn -0.139915 0.005697 0.990147
vn -0.105555 0.005704 0.994397
vn -0.105555 0.005704 0.994397
vn -0.105555 0.005704 0.994397
vn 0.115358 -0.005364 -0.993310
vn 0.113605 -0.005209 -0.993512
vn -0.109518 -0.004062 -0.993977
vn -0.099020 -0.004678 -0.995074
vn -0.171469 -0.008265 -0.985155
vn 0.083781 0.005649 0.996468
vn 0.104211 0.007750 0.994525
vn 0.132206 0.002959 0.991218
vn 0.133494 0.006633 0.991027
vn 0.092193 0.004894 0.995729
vn 0.156859 0.007619 0.987592
vn 0.132319 0.008476 0.991171
vn 0.144045 0.005502 0.989556
vn -0.131244 -0.005966 -0.991332
vn -0.128441 -0.007870 -0.991686
vn -0.129776 -0.006665 -0.991521
vn -0.070632 0.796567 -0.600410
vn 0.070628 0.803284 0.591394
vn 0.009031 0.999913 -0.009654
vn -0.051171 0.881200 -0.469965
vn 0.012570 0.999894 -0.007337
vn -0.136370 -0.001068 -0.990657
vn -0.999994 0.000159 -0.003546
vn -0.596970 0.802217 -0.008568
vn -0.588153 0.808750 -0.000483
vn -0.999993 0.000208 0.003625
vn 0.009576 0.999938 -0.005597
vn -0.001353 -0.005617 -0.999983
vn -0.703180 -0.003823 -0.711001
vn -0.705113 -0.003847 -0.709085
vn -0.001363 -0.005427 -0.999984
vn -0.999994 0.000208 -0.003526
vn -0.000211 -0.005581 -0.999984
vn -0.001177 0.014665 -0.999892
vn 0.001239 0.015113 -0.999885
vn 0.000216 -0.005587 -0.999984
vn -0.000577 0.002636 -0.999996
vn 0.001365 -0.005613 -0.999983
vn -0.081671 -0.003013 -0.996655
vn -0.081570 -0.008489 -0.996631
vn -0.000211 -0.005791 -0.999983
vn 0.132107 -0.002956 -0.991231
vn 0.071654 0.790935 -0.607690
vn 0.050705 0.882982 -0.466661
vn 0.136224 -0.001026 -0.990678
vn -0.009113 0.999912 -0.009657
vn -0.012582 0.999894 -0.007355
vn 0.080224 -0.002967 -0.996772
vn 0.080181 -0.008535 -0.996744
vn 0.000215 -0.005801 -0.999983
vn 0.132105 -0.008246 -0.991202
vn 0.999994 0.000167 -0.003626
vn 0.699543 -0.003845 -0.714581
vn 0.701356 -0.003879 -0.712800
vn 0.999993 0.000207 -0.003609
vn 0.001377 -0.005427 -0.999984
vn 0.588163 0.808696 -0.008646
vn 0.597226 0.802073 -0.000474
vn -0.009029 0.999958 -0.001615
vn 0.999994 0.000199 0.003551
vn -0.132106 0.008216 0.991201
vn -0.071665 0.797706 0.598773
vn -0.050711 0.888178 0.456693
vn -0.136224 0.010139 0.990626
vn -0.020549 0.967004 0.253932
vn 0.012582 0.999913 -0.003913
vn -0.000216 0.005682 0.999984
vn -0.080212 0.008266 0.996744
vn -0.080168 0.002698 0.996778
vn -0.000215 0.005467 0.999985
vn -0.132104 0.002923 0.991232
vn -0.001366 0.005656 0.999983
vn -0.001238 0.026442 0.999650
vn 0.001176 0.026000 0.999661
vn 0.001352 0.005656 0.999983
vn 0.000211 0.005688 0.999984
vn -0.699658 0.004208 0.714465
vn -0.701486 0.004154 0.712672
vn -0.999993 0.000248 0.003607
vn -0.001378 0.005842 0.999982
vn 0.051156 0.886462 0.459965
vn -0.012571 0.999913 -0.003932
vn 0.136368 0.010095 0.990607
vn 0.703354 0.004189 0.710828
vn 0.705295 0.004143 0.708902
vn 0.001363 0.005842 0.999982
vn 0.999994 0.000248 0.003531
vn 0.081658 0.008219 0.996627
vn 0.081560 0.002745 0.996665
vn 0.000211 0.005474 0.999985
vn -0.532829 0.846219 -0.002742
vn -0.533378 0.845850 -0.006804
vn -0.078073 0.977728 0.194815
vn -0.000922 0.999968 -0.007988
vn -0.000761 0.846717 0.532043
vn 0.000759 0.846691 0.532084
vn 0.000000 0.963324 0.268342
vn 0.273808 0.961777 -0.003748
vn 0.533383 0.845869 -0.002722
vn 0.533567 0.845730 -0.006794
vn 0.273933 0.961734 -0.005422
vn -0.000760 0.840954 -0.541106
vn 0.000763 0.840976 -0.541073
vn 0.000005 0.999968 -0.007997
vn -0.945901 -0.324096 -0.015272
vn -0.578514 -0.299987 -0.758504
vn -0.685560 -0.321236 -0.653311
vn -0.947589 -0.319491 -0.001157
vn -0.004457 -0.137535 -0.990487
vn -0.001660 -0.136890 -0.990585
vn 0.009893 -0.999950 0.001611
vn -0.456556 -0.889694 0.000626
vn -0.465106 -0.885205 0.009351
vn 0.009810 -0.999905 0.009712
vn -0.945953 -0.323768 0.018635
vn -0.072262 -0.792763 -0.605232
vn -0.052765 -0.882057 -0.468178
vn -0.136369 -0.010039 -0.990607
vn 0.012694 -0.999912 0.003910
vn -0.001055 -0.070067 -0.997542
vn 0.001112 -0.070138 -0.997537
vn 0.004476 -0.137539 -0.990486
vn 0.583896 -0.301160 -0.753902
vn 0.691341 -0.322253 -0.646684
vn 0.001688 -0.136898 -0.990584
vn 0.945952 -0.323961 -0.014973
vn 0.947591 -0.319483 -0.001085
vn -0.009810 -0.999951 0.001557
vn 0.073243 -0.786733 -0.612933
vn 0.053530 -0.877358 -0.476841
vn -0.012529 -0.999914 0.003885
vn 0.136223 -0.010038 -0.990627
vn 0.465009 -0.885306 0.000621
vn 0.457049 -0.889392 0.009385
vn 0.945917 -0.323870 0.018687
vn -0.009893 -0.999904 0.009657
vn 0.583299 -0.292507 0.757761
vn 0.690657 -0.314858 0.651043
vn 0.947591 -0.319451 0.004712
vn 0.004466 -0.126368 0.991973
vn 0.001680 -0.125725 0.992064
vn 0.072270 -0.785902 0.614113
vn 0.052772 -0.876730 0.478078
vn 0.136368 0.001126 0.990658
vn -0.012695 -0.999892 0.007358
vn 0.004515 -0.100519 0.994925
vn -0.001108 -0.058955 0.998260
vn -0.004466 -0.126372 0.991973
vn 0.000329 -0.049939 0.998752
vn -0.583737 -0.292607 0.757385
vn -0.691115 -0.314901 0.650537
vn -0.001677 -0.125728 0.992063
vn -0.947591 -0.319451 0.004690
vn -0.073237 -0.779800 0.621730
vn -0.053532 -0.871898 0.486753
vn 0.012528 -0.999894 0.007383
vn -0.136223 0.001125 0.990678
vn 0.752427 -0.001343 -0.658674
vn 0.752507 -0.006119 -0.658555
vn 0.999983 0.004179 -0.004168
vn 0.999983 -0.004140 -0.004120
vn 0.474730 0.880104 -0.007003
vn 0.479662 0.877449 -0.002848
vn 0.999982 0.004190 0.004193
vn 0.761746 0.005836 0.647850
vn 0.762654 0.001072 0.646806
vn 0.999981 -0.004679 0.004064
vn 0.455416 -0.890249 0.007325
vn 0.491237 -0.871021 0.003041
vn -0.999982 0.004140 -0.004244
vn -0.761803 -0.001462 -0.647807
vn -0.762717 -0.006215 -0.646703
vn -0.999981 -0.004723 -0.004015
vn -0.479816 0.877341 -0.007041
vn -0.476183 0.879341 -0.002933
vn -0.999983 0.004191 0.004119
vn -0.752071 0.006081 0.659054
vn -0.752143 0.001300 0.658999
vn -0.999983 -0.004094 0.004162
vn -0.455532 -0.890215 0.002710
vn -0.491280 -0.870975 0.006776
vn -0.478054 -0.876975 -0.048774
vn -0.477771 -0.876675 0.056352
vn -0.021612 -0.997746 -0.063528
vn -0.021326 -0.997060 0.073594
vn -0.017546 -0.841488 -0.539991
vn 0.016376 -0.840881 -0.540972
vn 0.021081 -0.997756 -0.063555
vn 0.473100 -0.879922 -0.043755
vn 0.477039 -0.877029 0.057038
vn 0.021353 -0.997224 0.071338
vn 0.017517 -0.843002 0.537625
vn -0.015752 -0.842105 0.539083
vn -0.000001 0.999984 -0.005634
vn -0.000001 0.999984 -0.005634
vn -0.392190 0.524401 -0.755771
vn 0.388870 0.526087 -0.756315
vn -0.388635 0.534566 0.750468
vn 0.184279 0.438065 0.879853
vn 0.473796 0.562638 0.677463
vn -0.508934 0.756038 0.411573
vn 0.508058 0.756601 0.411622
vn -0.508223 0.751912 -0.419926
vn 0.509307 0.751122 -0.420026
vn -0.332704 -0.596213 -0.730642
vn 0.335261 -0.594242 -0.731079
vn 0.436989 -0.715527 0.545034
vn 0.170088 -0.372384 0.912360
vn -0.335246 -0.585954 0.737746
vn 0.501872 0.781821 -0.369974
vn 0.495914 0.790909 0.358514
vn 0.241233 0.945508 0.218680
vn 0.532524 -0.769687 0.352137
vn 0.496502 -0.790804 -0.357931
vn -0.496355 0.786713 -0.367034
vn -0.241388 0.942986 -0.229148
vn -0.501050 0.786387 0.361309
vn -0.532358 -0.773730 -0.343419
vn -0.496531 -0.786662 0.366905
vn -0.413772 -0.812630 -0.410396
vn 0.416765 -0.818709 -0.394997
vn 0.400331 -0.828137 0.392332
vn -0.415837 -0.813815 0.405937
vn 0.150846 -0.033162 0.988001
vn 0.103367 0.005763 0.994627
vn 0.105836 0.010130 0.994332
vn 0.017586 -0.049847 0.998602
vn 0.140860 0.083458 0.986506
vn 0.121782 0.004557 0.992546
vn 0.122757 -0.000733 0.992436
vn -0.121791 -0.003219 0.992551
vn -0.122558 0.004251 0.992452
vn -0.123487 -0.003341 0.992341
vn 0.121410 -0.014582 -0.992495
vn 0.122556 -0.006917 -0.992438
vn 0.123927 -0.014756 -0.992182
vn -0.150881 -0.044295 -0.987559
vn -0.103369 -0.005441 -0.994628
vn -0.105838 -0.001071 -0.994383
vn -0.017547 -0.061099 -0.997977
vn -0.140848 0.072306 -0.987387
vn -0.121789 -0.006628 -0.992534
vn -0.122763 -0.011915 -0.992365
s 1
usemtl initialShadingGroup
f 215/259/321 214/995/322 217/264/323
f 214/995/324 203/258/325 217/265/326
f 203/260/325 216/996/327 220/998/328 219/262/329
f 216/996/327 215/259/321 217/264/323 220/998/328
f 204/261/330 218/997/331 217/263/326
s 4
f 204/261/332 219/262/333 218/997/334
s 5
f 259/397/335 258/999/336 261/401/337
s off
f 258/999/338 257/396/339 261/402/340
f 257/398/341 260/1000/342 261/400/343
s 5
f 260/1000/344 259/397/335 261/401/345
s 6
f 290/495/346 289/1001/347 292/499/348
s off
f 289/1001/349 288/494/350 292/500/351
f 288/496/352 291/1002/353 292/498/354
s 6
f 291/1002/355 290/495/346 292/499/356
s 1
f 325/605/357 324/1003/358 327/610/359
f 324/1003/360 318/604/361 327/611/362
f 318/606/361 326/1004/363 330/1006/364 329/608/365
f 326/1004/363 325/605/357 327/610/359 330/1006/364
f 319/607/366 328/1005/367 327/609/362
s 10
f 319/607/368 329/608/369 328/1005/370
s 1
f 201/222/371 203/226/325 204/230/330
f 204/261/330 203/260/325 219/262/329
f 285/588/372 318/589/361 319/592/366
f 319/607/366 318/606/361 329/608/365
f 206/236/373 201/227/371 205/231/374 209/237/375
f 201/222/371 204/230/330 211/233/376 205/232/374
f 225/278/377 208/242/378 224/275/379 228/279/380
f 208/242/378 206/238/373 207/239/381 224/243/379
f 234/309/382 227/305/383 233/306/384 237/310/385
f 227/284/383 225/280/377 226/281/386 233/285/384
f 243/340/387 236/336/388 242/337/389 245/341/390
f 236/315/388 234/311/391 235/312/392 242/316/389
f 203/258/325 221/268/393 250/269/394 217/265/326
f 221/346/393 243/343/387 244/344/395 250/347/394
f 257/394/396 254/385/397 256/389/398 262/395/399
f 254/381/397 255/386/400 264/391/401 256/390/398
f 245/358/390 248/360/402 271/361/403 247/359/404
f 248/403/402 257/398/396 261/399/405 271/404/403
f 276/448/406 249/444/407 275/445/408 278/449/409
f 249/363/407 235/314/392 239/362/410 275/364/408
f 255/422/400 268/426/411 283/427/412 267/423/413
f 268/454/411 276/450/406 277/451/414 283/455/412
f 288/492/415 232/301/416 287/489/417 294/493/418
f 232/301/416 207/241/419 212/300/420 287/302/417
f 300/523/421 293/502/422 299/519/423 303/524/424
f 293/502/422 288/496/415 292/497/425 299/503/423
f 309/552/426 302/529/427 308/549/428 311/553/429
f 302/529/427 300/521/421 301/526/430 308/530/428
f 228/296/380 231/298/431 314/299/432 230/297/433
f 231/558/431 309/554/426 310/555/434 314/559/432
f 267/479/413 285/481/372 320/482/435 269/480/436
f 285/588/372 319/592/366 322/594/437 320/593/435
f 311/569/429 286/571/438 333/572/439 312/570/440
f 286/485/438 277/453/414 281/484/441 333/486/439
f 318/604/361 313/614/442 337/615/443 327/611/362
f 313/574/442 301/528/430 306/573/444 337/575/443
f 230/331/433 316/333/445 241/332/446 226/283/386
f 316/641/445 341/642/447 342/646/448 241/645/446
f 341/653/447 317/657/449 335/658/450 343/654/451
f 317/586/449 310/557/434 312/585/440 335/587/450
f 343/665/452 336/667/453 280/668/454 344/666/455
f 336/469/453 281/468/441 278/463/409 280/467/454
f 237/327/385 240/329/456 282/330/457 239/328/410
f 240/660/456 342/655/448 344/659/458 282/661/457
f 348/686/459 345/677/460 347/681/461 351/687/462
f 345/673/460 346/678/463 353/683/464 347/682/461
f 360/725/465 350/692/466 359/722/467 362/726/468
f 350/692/466 348/688/459 349/689/469 359/693/467
f 217/373/326 252/375/470 365/376/471 222/374/472
f 252/731/470 360/727/465 361/728/473 365/732/471
f 346/711/463 253/715/474 273/716/475 356/712/476
f 253/378/474 244/345/395 247/377/404 273/379/475
f 356/765/476 369/767/477 371/768/478 357/766/479
f 369/770/477 370/772/480 373/776/481 371/775/478
f 380/802/482 274/440/483 379/799/484 382/803/485
f 274/440/483 261/400/405 265/439/486 379/441/484
f 370/788/480 376/792/487 387/793/488 375/789/489
f 376/808/487 380/804/482 381/805/490 387/809/488
f 375/831/489 388/833/491 390/834/492 377/832/493
f 388/839/491 389/841/494 392/845/495 390/844/492
f 327/636/362 339/638/496 397/639/497 331/637/498
f 339/837/496 381/807/490 385/836/499 397/838/497
f 389/857/494 340/861/500 305/862/501 394/858/502
f 340/543/503 306/542/444 303/536/424 305/540/501
f 394/878/502 364/880/504 401/881/505 395/879/506
f 364/748/504 349/691/469 354/747/507 401/749/505
f 362/743/468 307/745/508 405/746/509 363/744/510
f 307/545/508 292/498/425 296/544/511 405/546/509
f 262/416/399 266/418/512 386/419/513 265/417/486
f 266/899/512 409/900/514 410/904/515 386/903/513
f 409/911/514 270/915/516 323/916/517 411/912/518
f 270/429/516 264/424/401 269/428/436 323/430/517
f 411/923/518 332/925/519 399/926/520 412/924/521
f 332/617/519 322/612/437 331/616/498 399/618/520
f 412/917/521 400/919/522 384/918/523 410/913/515
f 400/822/522 385/821/499 382/816/485 384/820/523
f 413/935/524 223/271/525 367/932/526 415/936/527
f 223/271/525 211/266/376 222/270/472 367/272/526
f 209/254/375 213/256/528 298/257/529 212/255/420
f 213/941/528 413/937/524 414/938/530 298/942/529
f 294/514/418 297/516/531 408/517/532 296/515/511
f 297/957/531 414/940/530 416/956/533 408/958/532
f 415/948/527 368/950/534 407/951/535 416/949/533
f 368/760/534 361/730/473 363/759/510 407/761/535
f 351/705/462 355/707/536 404/708/537 354/706/507
f 355/964/536 417/965/538 418/969/539 404/968/537
f 417/976/538 358/980/540 374/981/541 419/977/542
f 358/718/540 353/713/464 357/717/479 374/719/541
f 419/988/542 378/990/543 393/991/544 420/989/545
f 378/795/543 373/790/481 377/794/493 393/796/544
f 420/982/545 396/984/546 403/983/547 418/978/539
f 396/864/546 392/859/495 395/863/506 403/865/547
f 417/974/538 419/975/542 420/979/545 418/978/539
f 309/556/426 311/560/429 312/561/440 310/557/434
f 341/651/548 343/652/549 344/656/458 342/655/448
f 237/317/385 239/318/410 235/314/392 234/313/382
f 276/452/406 278/456/409 281/457/441 277/453/414
f 226/283/386 225/282/377 228/286/380 230/287/433
f 243/342/387 245/348/390 247/350/404 244/345/395
f 409/909/514 411/910/518 412/914/521 410/913/515
f 301/528/430 300/527/421 303/531/424 306/532/444
f 414/940/530 413/939/524 415/943/527 416/944/533
f 255/420/400 267/421/413 269/425/436 264/424/401
f 319/607/366 327/609/362 331/613/498 322/612/437
f 381/807/490 380/806/482 382/810/485 385/811/499
f 261/402/405 257/396/396 262/405/399 265/406/486
f 207/241/381 206/240/373 209/244/375 212/245/420
f 204/261/330 217/263/326 222/267/472 211/266/376
f 360/729/465 362/733/468 363/734/510 361/730/473
f 292/500/425 288/494/415 294/504/418 296/505/511
f 346/709/463 356/710/476 357/714/479 353/713/464
f 370/786/480 375/787/489 377/791/493 373/790/481
f 389/855/494 394/856/502 395/860/506 392/859/495
f 349/691/469 348/690/459 351/694/462 354/695/507
f 221/229/393 203/228/325 201/221/371 202/223/550
f 201/224/371 206/234/373 208/235/378 202/225/550
f 208/273/378 225/276/377 227/277/383 202/274/550
f 227/303/383 234/307/391 236/308/388 202/304/550
f 236/334/388 243/338/387 221/339/393 202/335/550
f 268/388/411 255/387/400 254/380/397 246/382/551
f 254/383/397 257/392/396 248/393/402 246/384/551
f 248/354/402 245/349/390 242/352/389 246/353/551
f 242/351/389 235/356/392 249/357/407 246/355/551
f 249/442/407 276/446/406 268/447/411 246/443/551
f 224/290/379 207/294/381 232/295/416 229/291/552
f 232/487/416 288/490/415 293/491/422 229/488/552
f 293/501/422 300/520/421 302/522/427 229/518/552
f 302/547/427 309/550/426 231/551/431 229/548/552
f 231/293/431 228/292/380 224/288/379 229/289/552
f 313/591/442 318/590/361 285/483/372 284/472/553
f 285/476/372 267/475/413 283/470/412 284/471/554
f 283/473/412 277/477/414 286/478/438 284/474/554
f 286/568/438 311/567/429 308/562/428 284/563/554
f 308/564/428 301/525/430 313/566/442 284/565/554
f 317/644/449 341/643/447 316/640/445 315/577/555
f 316/582/445 230/581/433 314/576/432 315/578/555
f 314/579/432 310/583/434 317/584/449 315/580/555
f 333/622/439 281/626/441 336/627/453 334/623/556
f 336/664/453 343/663/452 335/662/450 334/620/556
f 335/625/450 312/624/440 333/619/439 334/621/556
f 240/324/456 237/323/385 233/319/384 238/320/557
f 233/321/384 226/325/386 241/326/446 238/322/557
f 241/647/446 342/649/448 240/650/456 238/648/557
f 280/464/454 278/463/409 275/458/408 279/460/558
f 275/461/408 239/465/410 282/466/457 279/462/558
f 282/671/457 344/670/458 280/669/454 279/459/558
f 253/680/474 346/679/463 345/672/460 251/674/559
f 345/675/460 348/684/459 350/685/466 251/676/559
f 350/720/466 360/723/465 252/724/470 251/721/559
f 252/370/470 217/369/326 250/365/394 251/366/559
f 250/367/394 244/371/395 253/372/474 251/368/559
f 376/774/487 370/773/480 369/769/477 272/771/560
f 369/764/477 356/763/476 273/438/475 272/762/560
f 273/435/475 247/434/404 271/431/403 272/432/560
f 271/431/403 261/436/405 274/437/483 272/433/560
f 274/797/483 380/800/482 376/801/487 272/798/560
f 340/843/500 389/842/494 388/835/491 338/840/561
f 388/828/491 375/827/489 387/823/488 338/824/561
f 387/825/488 381/829/490 339/830/496 338/826/561
f 339/633/496 327/632/362 337/628/443 338/629/562
f 337/630/443 306/634/444 340/635/503 338/631/562
f 359/737/467 349/741/469 364/742/504 304/738/563
f 364/877/504 394/876/502 305/541/501 304/875/563
f 305/537/501 303/536/424 299/533/423 304/534/563
f 299/533/423 292/538/425 307/539/508 304/535/563
f 307/740/508 362/739/468 359/735/467 304/736/563
f 270/902/516 409/901/514 266/898/512 263/408/564
f 266/413/512 262/412/399 256/407/398 263/409/564
f 256/410/398 264/414/401 270/415/516 263/411/564
f 320/598/435 322/602/437 332/603/519 321/599/565
f 332/922/519 411/921/518 323/920/517 321/596/565
f 323/601/517 269/600/566 320/595/435 321/597/565
f 397/869/497 385/873/499 400/874/522 398/870/567
f 400/929/522 412/928/521 399/927/520 398/867/567
f 399/872/520 331/871/498 397/866/497 398/868/567
f 379/814/484 265/818/486 386/819/513 383/815/568
f 386/905/513 410/907/515 384/908/523 383/906/568
f 384/817/523 382/816/485 379/812/484 383/813/568
f 205/248/374 211/252/376 223/253/525 210/249/569
f 223/930/525 413/933/524 213/934/528 210/931/569
f 213/251/528 209/250/570 205/246/374 210/247/569
f 298/952/529 414/954/530 297/955/531 295/953/571
f 297/511/531 294/510/418 287/506/417 295/507/571
f 287/508/417 212/512/420 298/513/529 295/509/571
f 365/753/471 361/757/473 368/758/534 366/754/572
f 368/947/534 415/946/527 367/945/526 366/751/572
f 367/756/526 222/755/472 365/750/471 366/752/572
f 405/892/509 296/896/511 408/897/532 406/893/573
f 408/959/532 416/961/533 407/962/535 406/960/573
f 407/895/535 363/894/510 405/890/509 406/891/573
f 358/967/540 417/966/538 355/963/536 352/697/574
f 355/702/536 351/701/462 347/696/461 352/698/574
f 347/699/461 353/703/464 358/704/540 352/700/574
f 371/780/478 373/784/481 378/785/543 372/781/575
f 378/987/543 419/986/542 374/985/541 372/778/575
f 374/783/541 357/782/479 371/777/478 372/779/575
f 390/849/492 392/853/495 396/854/546 391/850/576
f 396/994/546 420/993/545 393/992/544 391/847/576
f 393/852/544 377/851/493 390/846/492 391/848/576
f 401/884/505 354/888/507 404/889/537 402/885/577
f 404/970/537 418/972/539 403/973/547 402/971/577
f 403/887/547 395/886/506 401/882/505 402/883/577
f 203/258/578 214/995/322 421/1007/579
f 214/995/322 215/259/321 216/996/580 421/1007/579
f 216/996/580 203/260/581 421/1007/579
s 4
f 217/263/582 218/997/334 422/1008/583
f 218/997/334 219/262/333 220/998/584 422/1008/583
f 220/998/584 217/264/582 422/1008/583
s 5
f 257/396/585 258/999/336 423/1009/586
f 258/999/336 259/397/335 260/1000/344 423/1009/586
f 260/1000/344 257/398/587 423/1009/586
s 6
f 288/494/588 289/1001/347 424/1010/589
f 289/1001/347 290/495/346 291/1002/355 424/1010/589
f 291/1002/355 288/496/590 424/1010/589
s 1
f 318/604/591 324/1003/358 425/1011/592
f 324/1003/358 325/605/357 326/1004/593 425/1011/592
f 326/1004/593 318/606/594 425/1011/592
s 10
f 327/609/595 328/1005/370 426/1012/596
f 328/1005/370 329/608/369 330/1006/597 426/1012/596
f 330/1006/597 327/610/595 426/1012/596
