# This file uses centimeters as units for non-parametric coordinates.

mtllib 灯泡.mtl
g default
v 8.071956 -0.009036 -8.246774
v 8.071950 -0.010114 -8.249378
v 8.070576 -0.007401 -8.250254
v 8.067237 -0.006265 -8.250614
v 8.067244 -0.005190 -8.248019
v 8.067249 -0.004534 -8.245288
v 8.070584 -0.005667 -8.244918
v 8.071957 -0.008378 -8.244034
v 8.071932 -0.014742 -8.257974
v 8.071925 -0.016572 -8.260117
v 8.070550 -0.014262 -8.261786
v 8.067209 -0.013293 -8.262475
v 8.067218 -0.011468 -8.260340
v 8.067228 -0.010001 -8.257945
v 8.070564 -0.010965 -8.257248
v 8.071938 -0.013269 -8.255570
v 8.071896 -0.023630 -8.266862
v 8.071888 -0.026033 -8.268334
v 8.070508 -0.024352 -8.270634
v 8.067168 -0.023642 -8.271585
v 8.067181 -0.021246 -8.270116
v 8.067191 -0.019111 -8.268294
v 8.070529 -0.019813 -8.267337
v 8.071905 -0.021487 -8.265031
v 8.071852 -0.034829 -8.272567
v 8.071842 -0.037570 -8.273226
v 8.070460 -0.036681 -8.275930
v 8.067117 -0.036299 -8.277050
v 8.067131 -0.033568 -8.276394
v 8.067145 -0.030973 -8.275320
v 8.070484 -0.031345 -8.274197
v 8.071864 -0.032225 -8.271489
v 8.071803 -0.047244 -8.274534
v 8.071791 -0.050053 -8.274313
v 8.070408 -0.050044 -8.277159
v 8.067063 -0.050026 -8.278338
v 8.067077 -0.047226 -8.278558
v 8.067090 -0.044427 -8.278338
v 8.070429 -0.044434 -8.277159
v 8.071814 -0.044434 -8.274313
v 8.071753 -0.059658 -8.272567
v 8.071743 -0.062262 -8.271489
v 8.070355 -0.063132 -8.274197
v 8.067010 -0.063479 -8.275319
v 8.067024 -0.060884 -8.276394
v 8.067036 -0.058153 -8.277050
v 8.070378 -0.057797 -8.275931
v 8.071764 -0.056918 -8.273226
v 8.071710 -0.070857 -8.266862
v 8.071700 -0.073001 -8.265031
v 8.070310 -0.074665 -8.267335
v 8.066963 -0.075341 -8.268292
v 8.066973 -0.073204 -8.270116
v 8.066985 -0.070811 -8.271584
v 8.070329 -0.070126 -8.270634
v 8.071720 -0.068454 -8.268334
v 8.071675 -0.079746 -8.257974
v 8.071668 -0.081218 -8.255570
v 8.070275 -0.083512 -8.257246
v 8.066926 -0.084450 -8.257942
v 8.066936 -0.082983 -8.260338
v 8.066944 -0.081159 -8.262473
v 8.070288 -0.080215 -8.261785
v 8.071681 -0.077915 -8.260117
v 8.071652 -0.085452 -8.246774
v 8.071648 -0.086110 -8.244034
v 8.070254 -0.088809 -8.244917
v 8.066904 -0.089916 -8.245285
v 8.066909 -0.089260 -8.248017
v 8.066917 -0.088186 -8.250611
v 8.070262 -0.087076 -8.250252
v 8.071655 -0.084373 -8.249378
v 8.071644 -0.087418 -8.234359
v 8.071644 -0.087197 -8.231550
v 8.070248 -0.090037 -8.231553
v 8.066900 -0.091203 -8.231558
v 8.066902 -0.091423 -8.234359
v 8.066905 -0.091203 -8.237158
v 8.070249 -0.090038 -8.237163
v 8.071644 -0.087197 -8.237169
v 8.071652 -0.085452 -8.221944
v 8.071655 -0.084373 -8.219341
v 8.070260 -0.087075 -8.218464
v 8.066912 -0.088185 -8.218104
v 8.066909 -0.089260 -8.220700
v 8.066910 -0.089915 -8.223431
v 8.070255 -0.088809 -8.223800
v 8.071648 -0.086110 -8.224685
v 8.071675 -0.079746 -8.210745
v 8.071681 -0.077915 -8.208602
v 8.070288 -0.080214 -8.206933
v 8.066940 -0.081157 -8.206243
v 8.066936 -0.082981 -8.208379
v 8.066931 -0.084449 -8.210774
v 8.070277 -0.083512 -8.211471
v 8.071668 -0.081218 -8.213148
v 8.071710 -0.070857 -8.201857
v 8.071720 -0.068454 -8.200385
v 8.070327 -0.070125 -8.198086
v 8.066980 -0.070808 -8.197134
v 8.066973 -0.073204 -8.198602
v 8.066967 -0.075339 -8.200425
v 8.070311 -0.074664 -8.201382
v 8.071700 -0.073001 -8.203688
v 8.071753 -0.059658 -8.196152
v 8.071764 -0.056918 -8.195493
v 8.070376 -0.057795 -8.192789
v 8.067031 -0.058151 -8.191669
v 8.067024 -0.060882 -8.192324
v 8.067015 -0.063476 -8.193399
v 8.070357 -0.063131 -8.194522
v 8.071743 -0.062262 -8.197230
v 8.071803 -0.047244 -8.194185
v 8.071814 -0.044434 -8.194406
v 8.070429 -0.044432 -8.191560
v 8.067085 -0.044424 -8.190381
v 8.067077 -0.047224 -8.190161
v 8.067068 -0.050023 -8.190381
v 8.070409 -0.050043 -8.191560
v 8.071791 -0.050053 -8.194406
v 8.071852 -0.034829 -8.196152
v 8.071864 -0.032225 -8.197230
v 8.070481 -0.031344 -8.194522
v 8.067139 -0.030971 -8.193399
v 8.067131 -0.033566 -8.192324
v 8.067122 -0.036296 -8.191669
v 8.070461 -0.036679 -8.192788
v 8.071842 -0.037570 -8.195493
v 8.071896 -0.023630 -8.201857
v 8.071905 -0.021487 -8.203688
v 8.070528 -0.019812 -8.201383
v 8.067187 -0.019109 -8.200427
v 8.067181 -0.021245 -8.198602
v 8.067173 -0.023639 -8.197135
v 8.070510 -0.024350 -8.198086
v 8.071888 -0.026033 -8.200385
v 8.071932 -0.014742 -8.210745
v 8.071938 -0.013269 -8.213148
v 8.070562 -0.010964 -8.211473
v 8.067223 -0.010000 -8.210777
v 8.067218 -0.011467 -8.208381
v 8.067214 -0.013291 -8.206246
v 8.070552 -0.014261 -8.206934
v 8.071925 -0.016572 -8.208602
v 8.071956 -0.009036 -8.221944
v 8.071957 -0.008378 -8.224685
v 8.070584 -0.005667 -8.223802
v 8.067244 -0.004534 -8.223434
v 8.067244 -0.005190 -8.220701
v 8.067243 -0.006264 -8.218107
v 8.070577 -0.007400 -8.218466
v 8.071950 -0.010114 -8.219341
v 8.071962 -0.007069 -8.234359
v 8.071962 -0.007290 -8.237169
v 8.070589 -0.004439 -8.237165
v 8.067248 -0.003247 -8.237161
v 8.067252 -0.003027 -8.234360
v 8.067255 -0.003247 -8.231561
v 8.070590 -0.004439 -8.231555
v 8.071962 -0.007290 -8.231550
v 6.790267 -0.003955 -8.246774
v 6.790271 -0.003297 -8.244034
v 6.791666 -0.000597 -8.244917
v 6.795015 0.000509 -8.245285
v 6.795010 -0.000146 -8.248017
v 6.795003 -0.001221 -8.250611
v 6.791658 -0.002330 -8.250252
v 6.790264 -0.005033 -8.249378
v 6.790245 -0.009661 -8.257974
v 6.790250 -0.008188 -8.255570
v 6.791645 -0.005894 -8.257246
v 6.794993 -0.004956 -8.257942
v 6.794984 -0.006424 -8.260338
v 6.794974 -0.008247 -8.262473
v 6.791631 -0.009191 -8.261785
v 6.790237 -0.011492 -8.260117
v 6.790209 -0.018549 -8.266862
v 6.790219 -0.016406 -8.265031
v 6.791610 -0.014742 -8.267335
v 6.794956 -0.014066 -8.268292
v 6.794945 -0.016202 -8.270116
v 6.794933 -0.018596 -8.271584
v 6.791590 -0.019280 -8.270634
v 6.790200 -0.020952 -8.268334
v 6.790166 -0.029748 -8.272567
v 6.790176 -0.027144 -8.271489
v 6.791565 -0.026274 -8.274197
v 6.794909 -0.025928 -8.275319
v 6.794896 -0.028523 -8.276394
v 6.794883 -0.031253 -8.277050
v 6.791542 -0.031610 -8.275931
v 6.790154 -0.032489 -8.273226
v 6.790116 -0.042163 -8.274534
v 6.790127 -0.039353 -8.274313
v 6.791512 -0.039363 -8.277159
v 6.794855 -0.039380 -8.278338
v 6.794842 -0.042180 -8.278558
v 6.794829 -0.044980 -8.278338
v 6.791489 -0.044973 -8.277159
v 6.790106 -0.044973 -8.274313
v 6.790066 -0.054578 -8.272567
v 6.790078 -0.051837 -8.273226
v 6.791460 -0.052726 -8.275930
v 6.794802 -0.053107 -8.277050
v 6.794788 -0.055839 -8.276394
v 6.794775 -0.058433 -8.275320
v 6.791437 -0.058061 -8.274197
v 6.790056 -0.057181 -8.271489
v 6.790023 -0.065776 -8.266862
v 6.790032 -0.063374 -8.268334
v 6.791410 -0.065055 -8.270634
v 6.794752 -0.065765 -8.271585
v 6.794739 -0.068161 -8.270116
v 6.794729 -0.070295 -8.268294
v 6.791391 -0.069594 -8.267337
v 6.790013 -0.067920 -8.265031
v 6.789988 -0.074665 -8.257974
v 6.789994 -0.072834 -8.260117
v 6.791370 -0.075144 -8.261786
v 6.794711 -0.076114 -8.262475
v 6.794701 -0.077938 -8.260340
v 6.794693 -0.079406 -8.257945
v 6.791357 -0.078442 -8.257248
v 6.789982 -0.076137 -8.255570
v 6.789965 -0.080371 -8.246774
v 6.789968 -0.079292 -8.249378
v 6.791343 -0.082006 -8.250254
v 6.794682 -0.083141 -8.250614
v 6.794675 -0.084216 -8.248019
v 6.794671 -0.084872 -8.245288
v 6.791336 -0.083739 -8.244918
v 6.789963 -0.081029 -8.244034
v 6.789958 -0.082337 -8.234359
v 6.789957 -0.082116 -8.237169
v 6.791332 -0.084967 -8.237165
v 6.794671 -0.086159 -8.237161
v 6.794667 -0.086380 -8.234360
v 6.794666 -0.086160 -8.231561
v 6.791330 -0.084968 -8.231555
v 6.789957 -0.082116 -8.231550
v 6.789965 -0.080371 -8.221944
v 6.789963 -0.081029 -8.224685
v 6.791337 -0.083740 -8.223802
v 6.794676 -0.084873 -8.223434
v 6.794675 -0.084217 -8.220701
v 6.794677 -0.083143 -8.218107
v 6.791341 -0.082006 -8.218466
v 6.789968 -0.079292 -8.219341
v 6.789988 -0.074665 -8.210745
v 6.789982 -0.076137 -8.213148
v 6.791358 -0.078443 -8.211473
v 6.794697 -0.079407 -8.210777
v 6.794701 -0.077939 -8.208381
v 6.794706 -0.076116 -8.206246
v 6.791369 -0.075145 -8.206934
v 6.789994 -0.072834 -8.208602
v 6.790023 -0.065776 -8.201857
v 6.790013 -0.067920 -8.203688
v 6.791392 -0.069595 -8.201383
v 6.794734 -0.070297 -8.200427
v 6.794739 -0.068161 -8.198602
v 6.794747 -0.065767 -8.197135
v 6.791409 -0.065056 -8.198086
v 6.790032 -0.063374 -8.200385
v 6.790066 -0.054578 -8.196152
v 6.790056 -0.057181 -8.197230
v 6.791438 -0.058062 -8.194522
v 6.794780 -0.058436 -8.193399
v 6.794788 -0.055840 -8.192324
v 6.794797 -0.053110 -8.191669
v 6.791458 -0.052727 -8.192788
v 6.790078 -0.051837 -8.195493
v 6.790116 -0.042163 -8.194185
v 6.790106 -0.044973 -8.194406
v 6.791491 -0.044974 -8.191560
v 6.794834 -0.044983 -8.190381
v 6.794842 -0.042183 -8.190161
v 6.794851 -0.039383 -8.190381
v 6.791510 -0.039364 -8.191560
v 6.790127 -0.039353 -8.194406
v 6.790166 -0.029748 -8.196152
v 6.790154 -0.032489 -8.195493
v 6.791542 -0.031611 -8.192789
v 6.794887 -0.031256 -8.191669
v 6.794896 -0.028524 -8.192324
v 6.794904 -0.025930 -8.193399
v 6.791562 -0.026276 -8.194522
v 6.790176 -0.027144 -8.197230
v 6.790209 -0.018549 -8.201857
v 6.790200 -0.020952 -8.200385
v 6.791592 -0.019282 -8.198086
v 6.794938 -0.018598 -8.197134
v 6.794945 -0.016202 -8.198602
v 6.794951 -0.014068 -8.200425
v 6.791609 -0.014743 -8.201382
v 6.790219 -0.016406 -8.203688
v 6.790245 -0.009661 -8.210745
v 6.790237 -0.011492 -8.208602
v 6.791632 -0.009193 -8.206933
v 6.794979 -0.008249 -8.206243
v 6.794984 -0.006425 -8.208379
v 6.794987 -0.004958 -8.210774
v 6.791643 -0.005895 -8.211471
v 6.790250 -0.008188 -8.213148
v 6.790267 -0.003955 -8.221944
v 6.790264 -0.005033 -8.219341
v 6.791660 -0.002331 -8.218464
v 6.795006 -0.001222 -8.218104
v 6.795010 -0.000147 -8.220700
v 6.795010 0.000509 -8.223431
v 6.791664 -0.000597 -8.223800
v 6.790271 -0.003297 -8.224685
v 6.790275 -0.001988 -8.234359
v 6.790275 -0.002210 -8.231550
v 6.791671 0.000631 -8.231553
v 6.795020 0.001796 -8.231558
v 6.795017 0.002017 -8.234359
v 6.795015 0.001797 -8.237158
v 6.791670 0.000631 -8.237163
v 6.790275 -0.002210 -8.237169
v 8.071866 -0.031577 -8.234359
v 8.071873 -0.029539 -8.231555
v 8.071863 -0.032344 -8.229518
v 8.071865 -0.031272 -8.226221
v 8.071854 -0.034569 -8.225150
v 8.071854 -0.034569 -8.221684
v 8.071840 -0.038035 -8.221685
v 8.071835 -0.039106 -8.218388
v 8.071821 -0.042402 -8.219460
v 8.071814 -0.044440 -8.216655
v 8.071803 -0.047244 -8.218693
v 8.071791 -0.050048 -8.216655
v 8.071783 -0.052085 -8.219460
v 8.071771 -0.055382 -8.218388
v 8.071766 -0.056452 -8.221685
v 8.071752 -0.059919 -8.221684
v 8.071752 -0.059918 -8.225150
v 8.071740 -0.063215 -8.226221
v 8.071743 -0.062144 -8.229518
v 8.071732 -0.064948 -8.231555
v 8.071740 -0.062910 -8.234359
v 8.071732 -0.064948 -8.237163
v 8.071743 -0.062144 -8.239201
v 8.071740 -0.063215 -8.242498
v 8.071752 -0.059918 -8.243568
v 8.071752 -0.059919 -8.247035
v 8.071766 -0.056452 -8.247034
v 8.071771 -0.055382 -8.250331
v 8.071783 -0.052085 -8.249259
v 8.071791 -0.050048 -8.252064
v 8.071803 -0.047244 -8.250026
v 8.071814 -0.044440 -8.252064
v 8.071821 -0.042402 -8.249259
v 8.071835 -0.039106 -8.250331
v 8.071840 -0.038035 -8.247034
v 8.071854 -0.034569 -8.247035
v 8.071854 -0.034569 -8.243568
v 8.071865 -0.031272 -8.242498
v 8.071863 -0.032344 -8.239201
v 8.071873 -0.029539 -8.237163
v 6.790179 -0.026497 -8.234359
v 6.790187 -0.024459 -8.237163
v 6.790176 -0.027263 -8.239201
v 6.790180 -0.026191 -8.242498
v 6.790166 -0.029488 -8.243568
v 6.790166 -0.029488 -8.247035
v 6.790153 -0.032954 -8.247034
v 6.790149 -0.034025 -8.250331
v 6.790135 -0.037322 -8.249259
v 6.790127 -0.039359 -8.252064
v 6.790116 -0.042163 -8.250026
v 6.790106 -0.044967 -8.252064
v 6.790096 -0.047004 -8.249259
v 6.790083 -0.050301 -8.250331
v 6.790080 -0.051372 -8.247034
v 6.790066 -0.054838 -8.247035
v 6.790066 -0.054838 -8.243568
v 6.790054 -0.058135 -8.242498
v 6.790057 -0.057063 -8.239201
v 6.790045 -0.059867 -8.237163
v 6.790054 -0.057829 -8.234359
v 6.790045 -0.059867 -8.231555
v 6.790057 -0.057063 -8.229518
v 6.790054 -0.058135 -8.226221
v 6.790066 -0.054838 -8.225150
v 6.790066 -0.054838 -8.221684
v 6.790080 -0.051372 -8.221685
v 6.790083 -0.050301 -8.218388
v 6.790096 -0.047004 -8.219460
v 6.790106 -0.044967 -8.216655
v 6.790116 -0.042163 -8.218693
v 6.790127 -0.039359 -8.216655
v 6.790135 -0.037322 -8.219460
v 6.790149 -0.034025 -8.218388
v 6.790153 -0.032954 -8.221685
v 6.790166 -0.029488 -8.221684
v 6.790166 -0.029488 -8.225150
v 6.790180 -0.026191 -8.226221
v 6.790176 -0.027263 -8.229518
v 6.790187 -0.024459 -8.231555
v 8.070581 -0.006324 -8.247654
v 8.070556 -0.012435 -8.259646
v 8.070519 -0.021952 -8.269163
v 8.070472 -0.033945 -8.275273
v 8.070419 -0.047239 -8.277379
v 8.070366 -0.060532 -8.275273
v 8.070319 -0.072525 -8.269163
v 8.070280 -0.082042 -8.259645
v 8.070257 -0.088153 -8.247653
v 8.070247 -0.090258 -8.234359
v 8.070258 -0.088152 -8.221065
v 8.070280 -0.082042 -8.209072
v 8.070319 -0.072525 -8.199556
v 8.070366 -0.060532 -8.193445
v 8.070419 -0.047238 -8.191339
v 8.070472 -0.033944 -8.193445
v 8.070519 -0.021952 -8.199555
v 8.070556 -0.012434 -8.209073
v 8.070581 -0.006324 -8.221065
v 8.070590 -0.004218 -8.234359
v 6.791662 -0.001254 -8.247653
v 6.791639 -0.007365 -8.259645
v 6.791600 -0.016882 -8.269163
v 6.791553 -0.028874 -8.275273
v 6.791500 -0.042168 -8.277379
v 6.791447 -0.055462 -8.275273
v 6.791401 -0.067455 -8.269163
v 6.791362 -0.076972 -8.259646
v 6.791339 -0.083083 -8.247654
v 6.791330 -0.085188 -8.234359
v 6.791339 -0.083083 -8.221065
v 6.791362 -0.076972 -8.209073
v 6.791401 -0.067455 -8.199555
v 6.791447 -0.055463 -8.193445
v 6.791500 -0.042169 -8.191339
v 6.791553 -0.028875 -8.193445
v 6.791600 -0.016882 -8.199556
v 6.791639 -0.007365 -8.209072
v 6.791662 -0.001254 -8.221065
v 6.791671 0.000851 -8.234359
v 8.071803 -0.047244 -8.234359
v 6.790116 -0.042163 -8.234359
vt 0.630601 0.103424
vt 0.377551 0.313883
vt 0.622451 0.313881
vt 0.619503 0.081642
vt 0.556180 0.127623
vt 0.607885 0.065651
vt 0.390051 0.313883
vt 0.590599 0.048366
vt 0.544584 0.111666
vt 0.574608 0.036745
vt 0.402551 0.313883
vt 0.552827 0.025649
vt 0.528625 0.100071
vt 0.534028 0.019541
vt 0.415051 0.313883
vt 0.509883 0.015717
vt 0.509863 0.093975
vt 0.490117 0.015717
vt 0.427551 0.313883
vt 0.465972 0.019541
vt 0.490137 0.093975
vt 0.447173 0.025649
vt 0.440051 0.313883
vt 0.425392 0.036745
vt 0.471375 0.100071
vt 0.409401 0.048366
vt 0.452551 0.313883
vt 0.392115 0.065651
vt 0.455416 0.111666
vt 0.380497 0.081642
vt 0.465051 0.313883
vt 0.369399 0.103424
vt 0.443820 0.127623
vt 0.363291 0.122221
vt 0.477551 0.313883
vt 0.359466 0.146368
vt 0.437726 0.146387
vt 0.359466 0.166132
vt 0.490051 0.313883
vt 0.363291 0.190279
vt 0.437726 0.166113
vt 0.369399 0.209076
vt 0.502551 0.313883
vt 0.380497 0.230858
vt 0.443820 0.184877
vt 0.392115 0.246849
vt 0.515051 0.313883
vt 0.409401 0.264134
vt 0.455416 0.200834
vt 0.425392 0.275753
vt 0.527551 0.313883
vt 0.447173 0.286851
vt 0.471375 0.212426
vt 0.465972 0.292959
vt 0.540051 0.313883
vt 0.490117 0.296783
vt 0.490137 0.218525
vt 0.509883 0.296783
vt 0.552551 0.313883
vt 0.534028 0.292959
vt 0.509863 0.218525
vt 0.552827 0.286851
vt 0.565051 0.313883
vt 0.574608 0.275753
vt 0.528625 0.212426
vt 0.590599 0.264134
vt 0.577551 0.313883
vt 0.607885 0.246849
vt 0.544584 0.200834
vt 0.619503 0.230858
vt 0.590051 0.313883
vt 0.630601 0.209076
vt 0.556180 0.184877
vt 0.636709 0.190280
vt 0.602551 0.313883
vt 0.562274 0.146387
vt 0.640534 0.166132
vt 0.562274 0.166113
vt 0.615051 0.313883
vt 0.615048 0.686118
vt 0.636709 0.877779
vt 0.377549 0.686118
vt 0.384949 0.686116
vt 0.556180 0.872377
vt 0.390048 0.686118
vt 0.397449 0.686117
vt 0.544584 0.888334
vt 0.402548 0.686118
vt 0.409949 0.686117
vt 0.528625 0.899929
vt 0.415048 0.686118
vt 0.422449 0.686117
vt 0.509863 0.906025
vt 0.427548 0.686118
vt 0.434949 0.686116
vt 0.490137 0.906025
vt 0.440048 0.686118
vt 0.447449 0.686116
vt 0.471375 0.899929
vt 0.452548 0.686118
vt 0.459949 0.686116
vt 0.455416 0.888334
vt 0.465049 0.686118
vt 0.472448 0.686117
vt 0.443820 0.872377
vt 0.477548 0.686118
vt 0.484949 0.686116
vt 0.437726 0.853613
vt 0.490048 0.686118
vt 0.497449 0.686116
vt 0.437726 0.833887
vt 0.502549 0.686118
vt 0.509948 0.686117
vt 0.443820 0.815123
vt 0.515048 0.686118
vt 0.522449 0.686116
vt 0.455416 0.799166
vt 0.527548 0.686118
vt 0.534949 0.686117
vt 0.471375 0.787574
vt 0.540048 0.686118
vt 0.547449 0.686117
vt 0.490137 0.781475
vt 0.552548 0.686118
vt 0.559949 0.686117
vt 0.509863 0.781475
vt 0.565048 0.686118
vt 0.572449 0.686116
vt 0.528625 0.787574
vt 0.577548 0.686118
vt 0.584949 0.686117
vt 0.544584 0.799166
vt 0.590048 0.686118
vt 0.597448 0.686117
vt 0.556180 0.815123
vt 0.602548 0.686118
vt 0.609949 0.686116
vt 0.562274 0.833887
vt 0.640534 0.853632
vt 0.562274 0.853613
vt 0.384951 0.313881
vt 0.397452 0.313881
vt 0.409951 0.313881
vt 0.422452 0.313883
vt 0.434952 0.313883
vt 0.447451 0.313883
vt 0.459952 0.313883
vt 0.472451 0.313883
vt 0.484951 0.313883
vt 0.497452 0.313883
vt 0.509951 0.313883
vt 0.522452 0.313883
vt 0.534951 0.313883
vt 0.547451 0.313883
vt 0.559952 0.313883
vt 0.572452 0.313881
vt 0.584952 0.313881
vt 0.597451 0.313881
vt 0.609951 0.313881
vt 0.622449 0.686116
vt 0.636709 0.122221
vt 0.640534 0.146368
vt 0.630601 0.896576
vt 0.619503 0.918358
vt 0.607885 0.934349
vt 0.590599 0.951634
vt 0.574608 0.963255
vt 0.552827 0.974351
vt 0.534028 0.980459
vt 0.509883 0.984283
vt 0.490117 0.984283
vt 0.465972 0.980459
vt 0.447173 0.974351
vt 0.425392 0.963255
vt 0.409401 0.951634
vt 0.392115 0.934349
vt 0.380497 0.918358
vt 0.369399 0.896576
vt 0.363291 0.877779
vt 0.359466 0.853632
vt 0.359466 0.833868
vt 0.363291 0.809721
vt 0.369399 0.790924
vt 0.380497 0.769142
vt 0.392115 0.753151
vt 0.409401 0.735866
vt 0.425392 0.724247
vt 0.447173 0.713149
vt 0.465972 0.707041
vt 0.490117 0.703217
vt 0.509883 0.703216
vt 0.534028 0.707041
vt 0.552827 0.713149
vt 0.574608 0.724247
vt 0.590599 0.735865
vt 0.607885 0.753151
vt 0.619503 0.769142
vt 0.630601 0.790924
vt 0.636710 0.809720
vt 0.640534 0.833868
vt 0.634871 0.112427
vt 0.377610 0.312500
vt 0.643968 0.098870
vt 0.625000 0.317472
vt 0.375000 0.317472
vt 0.650199 0.118045
vt 0.622390 0.312500
vt 0.614729 0.072893
vt 0.390110 0.312500
vt 0.619191 0.057190
vt 0.387501 0.314138
vt 0.631041 0.073500
vt 0.384891 0.312500
vt 0.583354 0.041521
vt 0.402611 0.312500
vt 0.582745 0.025206
vt 0.400000 0.314138
vt 0.599056 0.037055
vt 0.397391 0.312500
vt 0.543823 0.021382
vt 0.415110 0.312500
vt 0.538202 0.006051
vt 0.412501 0.314138
vt 0.557376 0.012280
vt 0.409891 0.312500
vt 0.500000 0.014439
vt 0.427610 0.312500
vt 0.489919 0.001597
vt 0.425001 0.314138
vt 0.510080 0.001596
vt 0.422390 0.312500
vt 0.456177 0.021382
vt 0.440110 0.312500
vt 0.442621 0.012281
vt 0.437501 0.314139
vt 0.461796 0.006051
vt 0.434891 0.312500
vt 0.416646 0.041521
vt 0.452610 0.312500
vt 0.400939 0.037060
vt 0.450000 0.314139
vt 0.417251 0.025208
vt 0.447391 0.312500
vt 0.385271 0.072893
vt 0.465110 0.312500
vt 0.368957 0.073504
vt 0.462500 0.314139
vt 0.380806 0.057193
vt 0.459891 0.312500
vt 0.365129 0.112427
vt 0.477610 0.312500
vt 0.349801 0.118048
vt 0.475000 0.314139
vt 0.356030 0.098875
vt 0.472391 0.312500
vt 0.358188 0.156250
vt 0.490111 0.312500
vt 0.345347 0.166334
vt 0.487501 0.314139
vt 0.345346 0.146173
vt 0.484891 0.312500
vt 0.365129 0.200073
vt 0.502610 0.312500
vt 0.356032 0.213630
vt 0.500001 0.314139
vt 0.349801 0.194455
vt 0.497391 0.312500
vt 0.385271 0.239607
vt 0.515110 0.312500
vt 0.380809 0.255310
vt 0.512501 0.314139
vt 0.368959 0.239000
vt 0.509891 0.312500
vt 0.416646 0.270979
vt 0.527610 0.312500
vt 0.417254 0.287293
vt 0.525000 0.314139
vt 0.400944 0.275445
vt 0.522391 0.312500
vt 0.456177 0.291118
vt 0.540110 0.312500
vt 0.461798 0.306449
vt 0.537500 0.314138
vt 0.442624 0.300220
vt 0.534891 0.312500
vt 0.500000 0.298061
vt 0.552610 0.312500
vt 0.510081 0.310903
vt 0.550001 0.314139
vt 0.489920 0.310903
vt 0.547390 0.312500
vt 0.543823 0.291118
vt 0.565110 0.312500
vt 0.557379 0.300219
vt 0.562500 0.314139
vt 0.538204 0.306449
vt 0.559890 0.312500
vt 0.583354 0.270979
vt 0.577610 0.312500
vt 0.599061 0.275440
vt 0.575000 0.314138
vt 0.582750 0.287291
vt 0.572391 0.312500
vt 0.614729 0.239607
vt 0.590110 0.312500
vt 0.631043 0.238996
vt 0.587501 0.314138
vt 0.619194 0.255307
vt 0.584891 0.312500
vt 0.634871 0.200073
vt 0.602610 0.312500
vt 0.650199 0.194452
vt 0.600000 0.314138
vt 0.643970 0.213625
vt 0.597391 0.312500
vt 0.641812 0.156250
vt 0.615110 0.312500
vt 0.654653 0.146166
vt 0.612500 0.314138
vt 0.654654 0.166327
vt 0.609891 0.312500
vt 0.634871 0.887573
vt 0.622390 0.687500
vt 0.650199 0.881952
vt 0.375000 0.682528
vt 0.625000 0.682528
vt 0.643970 0.901125
vt 0.377609 0.687500
vt 0.614729 0.927107
vt 0.384890 0.687500
vt 0.631043 0.926496
vt 0.387500 0.685861
vt 0.619194 0.942807
vt 0.390109 0.687500
vt 0.583354 0.958479
vt 0.397390 0.687500
vt 0.599061 0.962940
vt 0.399999 0.685861
vt 0.582749 0.974792
vt 0.402609 0.687500
vt 0.543823 0.978618
vt 0.409890 0.687500
vt 0.557379 0.987719
vt 0.412499 0.685861
vt 0.538204 0.993949
vt 0.415109 0.687500
vt 0.500000 0.985561
vt 0.422390 0.687500
vt 0.510081 0.998403
vt 0.424999 0.685861
vt 0.489920 0.998403
vt 0.427609 0.687500
vt 0.456177 0.978618
vt 0.434890 0.687500
vt 0.461798 0.993949
vt 0.437499 0.685861
vt 0.442624 0.987720
vt 0.440109 0.687500
vt 0.416646 0.958479
vt 0.447389 0.687500
vt 0.417255 0.974794
vt 0.450000 0.685861
vt 0.400944 0.962945
vt 0.452609 0.687500
vt 0.385271 0.927107
vt 0.459890 0.687500
vt 0.380809 0.942810
vt 0.462499 0.685861
vt 0.368959 0.926500
vt 0.465109 0.687500
vt 0.365129 0.887573
vt 0.472390 0.687500
vt 0.356032 0.901130
vt 0.474999 0.685861
vt 0.349801 0.881955
vt 0.477609 0.687500
vt 0.358188 0.843750
vt 0.484889 0.687500
vt 0.345347 0.853834
vt 0.487499 0.685861
vt 0.345346 0.833673
vt 0.490109 0.687500
vt 0.365129 0.799927
vt 0.497390 0.687500
vt 0.349801 0.805548
vt 0.500000 0.685861
vt 0.356030 0.786375
vt 0.502609 0.687500
vt 0.385271 0.760393
vt 0.509890 0.687500
vt 0.368957 0.761004
vt 0.512499 0.685861
vt 0.380806 0.744693
vt 0.515109 0.687500
vt 0.416646 0.729021
vt 0.522389 0.687500
vt 0.400939 0.724560
vt 0.524999 0.685861
vt 0.417250 0.712709
vt 0.527609 0.687500
vt 0.456177 0.708882
vt 0.534890 0.687500
vt 0.442621 0.699781
vt 0.537499 0.685861
vt 0.461796 0.693551
vt 0.540109 0.687500
vt 0.500000 0.701939
vt 0.547390 0.687500
vt 0.489919 0.689097
vt 0.549999 0.685862
vt 0.510080 0.689096
vt 0.552609 0.687500
vt 0.543823 0.708882
vt 0.559890 0.687500
vt 0.538202 0.693551
vt 0.562499 0.685861
vt 0.557376 0.699780
vt 0.565109 0.687500
vt 0.583354 0.729021
vt 0.572390 0.687500
vt 0.582746 0.712706
vt 0.575000 0.685861
vt 0.599056 0.724555
vt 0.577609 0.687500
vt 0.614729 0.760393
vt 0.584890 0.687500
vt 0.619191 0.744690
vt 0.587499 0.685861
vt 0.631041 0.761000
vt 0.590109 0.687500
vt 0.634871 0.799927
vt 0.597389 0.687500
vt 0.643968 0.786370
vt 0.599999 0.685861
vt 0.650199 0.805545
vt 0.602609 0.687500
vt 0.641812 0.843750
vt 0.609889 0.687500
vt 0.654653 0.833666
vt 0.612499 0.685861
vt 0.654654 0.853827
vt 0.615109 0.687500
vt 0.555097 0.156250
vt 0.552401 0.173278
vt 0.544576 0.188637
vt 0.532386 0.200825
vt 0.517026 0.208649
vt 0.500000 0.211347
vt 0.482974 0.208649
vt 0.467614 0.200825
vt 0.455424 0.188637
vt 0.447599 0.173278
vt 0.444903 0.156250
vt 0.447599 0.139222
vt 0.455424 0.123863
vt 0.467614 0.111675
vt 0.482974 0.103851
vt 0.500000 0.101153
vt 0.517026 0.103851
vt 0.532386 0.111675
vt 0.544576 0.123863
vt 0.552401 0.139222
vt 0.555097 0.843750
vt 0.552401 0.860778
vt 0.544576 0.876137
vt 0.532386 0.888325
vt 0.517026 0.896149
vt 0.500000 0.898847
vt 0.482974 0.896149
vt 0.467614 0.888325
vt 0.455424 0.876137
vt 0.447599 0.860778
vt 0.444903 0.843750
vt 0.447599 0.826722
vt 0.455424 0.811363
vt 0.467614 0.799175
vt 0.482974 0.791351
vt 0.500000 0.788653
vt 0.517026 0.791351
vt 0.532386 0.799175
vt 0.544576 0.811364
vt 0.552401 0.826722
vt 0.375000 0.312500
vt 0.625000 0.312500
vt 0.648603 0.107966
vt 0.387500 0.312500
vt 0.626409 0.064408
vt 0.400000 0.312500
vt 0.591842 0.029841
vt 0.412500 0.312500
vt 0.548284 0.007647
vt 0.425000 0.312500
vt 0.500000 -0.000000
vt 0.437500 0.312500
vt 0.451716 0.007647
vt 0.450000 0.312500
vt 0.408159 0.029841
vt 0.462500 0.312500
vt 0.373591 0.064409
vt 0.475000 0.312500
vt 0.351397 0.107966
vt 0.487500 0.312500
vt 0.343750 0.156250
vt 0.500000 0.312500
vt 0.351397 0.204534
vt 0.512500 0.312500
vt 0.373591 0.248091
vt 0.525000 0.312500
vt 0.408159 0.282659
vt 0.537500 0.312500
vt 0.451716 0.304853
vt 0.550000 0.312500
vt 0.500000 0.312500
vt 0.562500 0.312500
vt 0.548284 0.304853
vt 0.575000 0.312500
vt 0.591841 0.282659
vt 0.587500 0.312500
vt 0.626409 0.248091
vt 0.600000 0.312500
vt 0.648603 0.204534
vt 0.612500 0.312500
vt 0.656250 0.156250
vt 0.625000 0.687500
vt 0.375000 0.687500
vt 0.648603 0.892034
vt 0.387500 0.687500
vt 0.626409 0.935591
vt 0.400000 0.687500
vt 0.591841 0.970159
vt 0.412500 0.687500
vt 0.548284 0.992353
vt 0.425000 0.687500
vt 0.500000 1.000000
vt 0.437500 0.687500
vt 0.451716 0.992353
vt 0.450000 0.687500
vt 0.408159 0.970159
vt 0.462500 0.687500
vt 0.373591 0.935591
vt 0.475000 0.687500
vt 0.351397 0.892034
vt 0.487500 0.687500
vt 0.343750 0.843750
vt 0.500000 0.687500
vt 0.351397 0.795466
vt 0.512500 0.687500
vt 0.373591 0.751909
vt 0.525000 0.687500
vt 0.408159 0.717341
vt 0.537500 0.687500
vt 0.451716 0.695147
vt 0.550000 0.687500
vt 0.500000 0.687500
vt 0.562500 0.687500
vt 0.548284 0.695147
vt 0.575000 0.687500
vt 0.591842 0.717341
vt 0.587500 0.687500
vt 0.626409 0.751908
vt 0.600000 0.687500
vt 0.648603 0.795466
vt 0.612500 0.687500
vt 0.656250 0.843750
vt 0.500000 0.156250
vt 0.500000 0.843750
vn 0.996368 0.075751 -0.038884
vn 0.998549 0.050782 -0.017911
vn 0.999992 -0.003978 -0.000038
vn 0.999992 -0.004001 -0.000144
vn 0.996397 0.083396 -0.015434
vn 0.999992 -0.003925 0.000154
vn 0.004412 0.899874 -0.436128
vn 0.332928 0.847595 -0.413209
vn 0.332903 0.831974 -0.443841
vn 0.004340 0.881733 -0.471729
vn 0.899267 0.393751 -0.190473
vn 0.996365 0.074329 -0.041617
vn 0.899262 0.384015 -0.209429
vn 0.004747 0.984354 -0.176139
vn 0.004650 0.951055 -0.308986
vn 0.002891 0.951061 -0.308989
vn 0.003057 0.984361 -0.176139
vn 0.002722 0.899881 -0.436127
vn 0.899388 0.429877 -0.079408
vn 0.899427 0.433157 -0.058358
vn 0.996402 0.083868 -0.012202
vn 0.333276 0.928357 -0.164559
vn 0.004772 0.990606 -0.136666
vn 0.333241 0.933743 -0.130670
vn 0.996309 0.059920 -0.061459
vn 0.998516 0.042698 -0.033788
vn 0.999992 -0.003970 0.000023
vn 0.999992 -0.004009 -0.000055
vn 0.003703 0.721084 -0.692838
vn 0.332211 0.678392 -0.655301
vn 0.332168 0.654063 -0.679607
vn 0.003591 0.692833 -0.721089
vn 0.899080 0.315314 -0.303696
vn 0.996301 0.057417 -0.063939
vn 0.899077 0.300040 -0.318804
vn 0.004086 0.809020 -0.587767
vn 0.002328 0.809024 -0.587770
vn 0.002650 0.881740 -0.471728
vn 0.002014 0.721091 -0.692837
vn 0.996216 0.037952 -0.078186
vn 0.998466 0.029873 -0.046615
vn 0.999992 -0.004073 -0.000051
vn 0.999992 -0.004090 0.000002
vn 0.002715 0.471699 -0.881755
vn 0.331404 0.442594 -0.833236
vn 0.331294 0.411977 -0.848834
vn 0.002574 0.436061 -0.899913
vn 0.898389 0.206198 -0.387789
vn 0.996208 0.034686 -0.079788
vn 0.898380 0.186956 -0.397443
vn 0.003210 0.587780 -0.809014
vn 0.001451 0.587784 -0.809016
vn 0.001901 0.692840 -0.721088
vn 0.001026 0.471706 -0.881755
vn 0.996110 0.011719 -0.087341
vn 0.998405 0.013789 -0.054742
vn 0.999992 -0.004001 -0.000000
vn 0.999992 -0.003922 0.000061
vn 0.001544 0.176175 -0.984358
vn 0.330268 0.163410 -0.929635
vn 0.330178 0.129551 -0.934986
vn 0.001387 0.136711 -0.990610
vn 0.897830 0.075934 -0.433745
vn 0.996095 0.008117 -0.087917
vn 0.897801 0.054898 -0.436965
vn 0.002105 0.308966 -0.951071
vn 0.000346 0.308970 -0.951072
vn 0.000884 0.436068 -0.899913
vn -0.000146 0.176182 -0.984357
vn 0.996011 -0.016143 -0.087762
vn 0.998333 -0.004052 -0.057568
vn 0.999992 -0.003971 0.000016
vn 0.999992 -0.003934 -0.000017
vn 0.000303 -0.136718 -0.990610
vn 0.328962 -0.131993 -0.935073
vn 0.328884 -0.165918 -0.929681
vn 0.000146 -0.176183 -0.984357
vn 0.897636 -0.061893 -0.436370
vn 0.995996 -0.019513 -0.087247
vn 0.897570 -0.082994 -0.432989
vn 0.000880 -0.000003 -1.000000
vn -0.000880 0.000003 -1.000000
vn -0.000303 0.136718 -0.990610
vn -0.001387 -0.136711 -0.990610
vn 0.995898 -0.042540 -0.079857
vn 0.998264 -0.021671 -0.054772
vn 0.999992 -0.003921 -0.000009
vn 0.999992 -0.003971 0.000042
vn -0.000884 -0.436068 -0.899913
vn 0.327927 -0.414489 -0.848919
vn 0.327799 -0.445090 -0.833332
vn -0.001026 -0.471706 -0.881755
vn 0.896932 -0.193913 -0.397379
vn 0.995888 -0.045723 -0.078211
vn 0.896868 -0.212955 -0.387656
vn -0.000346 -0.308970 -0.951072
vn -0.002105 -0.308966 -0.951071
vn -0.001544 -0.176175 -0.984358
vn -0.002574 -0.436061 -0.899913
vn 0.995809 -0.065489 -0.063834
vn 0.998200 -0.037971 -0.046432
vn 0.999992 -0.004056 0.000093
vn 0.999992 -0.003978 0.000015
vn -0.001901 -0.692842 -0.721087
vn 0.326972 -0.656645 -0.679638
vn 0.326947 -0.680856 -0.655394
vn -0.002014 -0.721092 -0.692836
vn 0.896497 -0.307520 -0.318942
vn 0.995800 -0.067773 -0.061552
vn 0.896413 -0.322533 -0.303999
vn -0.001451 -0.587784 -0.809017
vn -0.003210 -0.587780 -0.809015
vn -0.002715 -0.471699 -0.881756
vn -0.003591 -0.692834 -0.721088
vn 0.995744 -0.082128 -0.041817
vn 0.998148 -0.050432 -0.034008
vn 0.999992 -0.003917 -0.000029
vn 0.999992 -0.003911 -0.000008
vn -0.002650 -0.881740 -0.471728
vn 0.326272 -0.834557 -0.443915
vn 0.326235 -0.850133 -0.413333
vn -0.002722 -0.899881 -0.436127
vn 0.896161 -0.391178 -0.209464
vn 0.995738 -0.083738 -0.038655
vn 0.896178 -0.400721 -0.190492
vn -0.002328 -0.809024 -0.587771
vn -0.004086 -0.809019 -0.587769
vn -0.003703 -0.721085 -0.692837
vn -0.004340 -0.881733 -0.471728
vn 0.995709 -0.091243 -0.015469
vn 0.998117 -0.058727 -0.017694
vn 0.999992 -0.003950 0.000052
vn 0.999992 -0.003961 0.000008
vn -0.003057 -0.984360 -0.176140
vn 0.325833 -0.930976 -0.164669
vn 0.325910 -0.936313 -0.130769
vn -0.003082 -0.990612 -0.136667
vn 0.896024 -0.436874 -0.079265
vn 0.995704 -0.091786 -0.012179
vn 0.895991 -0.440222 -0.058351
vn -0.002891 -0.951061 -0.308991
vn -0.004650 -0.951055 -0.308988
vn -0.004412 -0.899874 -0.436128
vn -0.004747 -0.984353 -0.176141
vn 0.995705 -0.091783 0.012166
vn 0.998103 -0.061563 0.000009
vn 0.999992 -0.003959 0.000000
vn 0.999992 -0.003961 -0.000008
vn -0.003082 -0.990612 0.136667
vn 0.325876 -0.936341 0.130655
vn 0.325891 -0.930977 0.164550
vn -0.003057 -0.984360 0.176141
vn 0.895976 -0.440254 0.058341
vn 0.995709 -0.091239 0.015452
vn 0.896051 -0.436829 0.079208
vn -0.003085 -0.999995 -0.000002
vn -0.004844 -0.999988 0.000000
vn -0.004772 -0.990606 -0.136667
vn -0.004772 -0.990606 0.136667
vn 0.995738 -0.083746 0.038638
vn 0.998117 -0.058721 0.017723
vn 0.999992 -0.003950 -0.000052
vn 0.999992 -0.003911 0.000008
vn -0.002722 -0.899880 0.436128
vn 0.326109 -0.850231 0.413231
vn 0.326227 -0.834624 0.443822
vn -0.002651 -0.881733 0.471742
vn 0.896164 -0.400766 0.190466
vn 0.995745 -0.082129 0.041792
vn 0.896226 -0.391093 0.209346
vn -0.002891 -0.951062 0.308986
vn -0.004649 -0.951054 0.308989
vn -0.004747 -0.984353 0.176141
vn -0.004412 -0.899874 0.436127
vn 0.995803 -0.067762 0.061514
vn 0.998149 -0.050402 0.034026
vn 0.999992 -0.003917 0.000029
vn 0.999992 -0.003978 -0.000015
vn -0.002014 -0.721106 0.692822
vn 0.326889 -0.680970 0.655305
vn 0.326989 -0.656684 0.679591
vn -0.001902 -0.692840 0.721088
vn 0.896464 -0.322507 0.303877
vn 0.995813 -0.065463 0.063797
vn 0.896606 -0.307367 0.318785
vn -0.002328 -0.809026 0.587768
vn -0.004087 -0.809019 0.587769
vn -0.004340 -0.881726 0.471741
vn -0.003703 -0.721100 0.692821
vn 0.995887 -0.045746 0.078211
vn 0.998199 -0.037930 0.046468
vn 0.999992 -0.004056 -0.000093
vn 0.999992 -0.003971 -0.000039
vn -0.001024 -0.471706 0.881755
vn 0.327877 -0.445203 0.833241
vn 0.328049 -0.414636 0.848799
vn -0.000884 -0.436093 0.899901
vn 0.896783 -0.213085 0.387782
vn 0.995898 -0.042563 0.079845
vn 0.896939 -0.193993 0.397325
vn -0.001450 -0.587747 0.809043
vn -0.003209 -0.587737 0.809046
vn -0.003592 -0.692834 0.721088
vn -0.002714 -0.471700 0.881755
vn 0.995991 -0.019536 0.087294
vn 0.998263 -0.021623 0.054796
vn 0.999992 -0.003921 0.000010
vn 0.999992 -0.003934 0.000017
vn 0.000147 -0.176182 0.984358
vn 0.328918 -0.166039 0.929647
vn 0.329042 -0.132146 0.935023
vn 0.000303 -0.136657 0.990618
vn 0.897423 -0.083073 0.433279
vn 0.996008 -0.016175 0.087790
vn 0.897579 -0.062014 0.436471
vn -0.000345 -0.308973 0.951071
vn -0.002104 -0.308964 0.951072
vn -0.002573 -0.436087 0.899901
vn -0.001543 -0.176176 0.984357
vn 0.996098 0.008090 0.087881
vn 0.998334 -0.004032 0.057562
vn 0.999992 -0.003971 -0.000016
vn 0.999992 -0.003922 -0.000061
vn 0.001386 0.136651 0.990618
vn 0.330054 0.129359 0.935057
vn 0.330237 0.163298 0.929665
vn 0.001543 0.176176 0.984357
vn 0.897873 0.054796 0.436831
vn 0.996114 0.011703 0.087297
vn 0.897966 0.075882 0.433474
vn 0.000879 -0.000004 1.000000
vn -0.000879 0.000004 1.000000
vn -0.001386 -0.136651 0.990618
vn -0.000303 0.136657 0.990618
vn 0.996203 0.034692 0.079847
vn 0.998405 0.013848 0.054733
vn 0.999992 -0.004001 0.000002
vn 0.999992 -0.004090 -0.000001
vn 0.002573 0.436087 0.899901
vn 0.331279 0.411885 0.848884
vn 0.331437 0.442459 0.833294
vn 0.002714 0.471700 0.881755
vn 0.898286 0.187000 0.397634
vn 0.996216 0.037925 0.078208
vn 0.898410 0.206066 0.387809
vn 0.002104 0.308964 0.951072
vn 0.000345 0.308973 0.951071
vn -0.000147 0.176182 0.984358
vn 0.000884 0.436092 0.899901
vn 0.996299 0.057414 0.063962
vn 0.998466 0.029912 0.046595
vn 0.999992 -0.004073 0.000055
vn 0.999992 -0.004009 0.000057
vn 0.003592 0.692834 0.721088
vn 0.332188 0.654005 0.679654
vn 0.332277 0.678311 0.655352
vn 0.003703 0.721100 0.692821
vn 0.899024 0.300081 0.318916
vn 0.996310 0.059900 0.061470
vn 0.899109 0.315226 0.303703
vn 0.003209 0.587738 0.809045
vn 0.001450 0.587747 0.809043
vn 0.001024 0.471705 0.881756
vn 0.001902 0.692840 0.721089
vn 0.996363 0.074344 0.041643
vn 0.998517 0.042725 0.033753
vn 0.999992 -0.003970 -0.000020
vn 0.999992 -0.004001 0.000149
vn 0.004340 0.881727 0.471741
vn 0.332957 0.831896 0.443947
vn 0.333071 0.847484 0.413322
vn 0.004412 0.899874 0.436127
vn 0.899172 0.384161 0.209547
vn 0.996367 0.075755 0.038917
vn 0.899252 0.393745 0.190555
vn 0.004087 0.809018 0.587769
vn 0.002328 0.809026 0.587768
vn 0.002014 0.721106 0.692822
vn 0.002651 0.881733 0.471741
vn 0.996401 0.083345 0.015440
vn 0.998550 0.050772 0.017902
vn 0.999992 -0.003978 0.000043
vn 0.999992 -0.003925 -0.000141
vn 0.004747 0.984354 0.176140
vn 0.333232 0.928345 0.164720
vn 0.333304 0.933706 0.130774
vn 0.004772 0.990606 0.136667
vn 0.899465 0.429710 0.079456
vn 0.996406 0.083817 0.012200
vn 0.899548 0.432912 0.058306
vn 0.004649 0.951054 0.308990
vn 0.002891 0.951061 0.308988
vn 0.002722 0.899881 0.436128
vn 0.003058 0.984360 0.176141
vn 0.998562 0.053609 -0.000011
vn 0.999992 -0.003964 0.000005
vn 0.004844 0.999988 0.000003
vn 0.003085 0.999995 -0.000001
vn 0.003082 0.990612 0.136667
vn 0.003082 0.990612 -0.136665
vn -0.995706 0.091268 -0.015449
vn -0.998117 0.058725 -0.017736
vn -0.999992 0.004008 0.000085
vn -0.999992 0.003982 0.000041
vn -0.995735 0.083738 -0.038718
vn -0.999992 0.003972 -0.000005
vn -0.325870 0.930964 -0.164667
vn -0.325912 0.936310 -0.130782
vn -0.895982 0.436948 -0.079323
vn -0.995705 0.091777 -0.012224
vn -0.895989 0.440217 -0.058422
vn -0.896124 0.400817 -0.190543
vn -0.896099 0.391278 -0.209544
vn -0.995740 0.082215 -0.041737
vn -0.326230 0.850127 -0.413348
vn -0.326269 0.834557 -0.443918
vn -0.998144 0.050626 -0.033836
vn -0.999992 0.003979 0.000060
vn -0.995795 0.067859 -0.061535
vn -0.999992 0.004001 0.000025
vn -0.896368 0.322610 -0.304052
vn -0.896420 0.307605 -0.319079
vn -0.995803 0.065442 -0.063976
vn -0.327032 0.680849 -0.655358
vn -0.327080 0.656606 -0.679623
vn -0.998198 0.037793 -0.046601
vn -0.999992 0.003948 -0.000024
vn -0.995887 0.045590 -0.078294
vn -0.999992 0.003985 -0.000026
vn -0.896902 0.212869 -0.387625
vn -0.896962 0.193942 -0.397299
vn -0.995897 0.042697 -0.079787
vn -0.327923 0.445070 -0.833294
vn -0.328036 0.414452 -0.848895
vn -0.998261 0.021967 -0.054696
vn -0.999992 0.004047 0.000030
vn -0.995988 0.019622 -0.087305
vn -0.999992 0.003943 0.000020
vn -0.897389 0.083055 -0.433352
vn -0.897433 0.061890 -0.436789
vn -0.996003 0.016023 -0.087867
vn -0.328990 0.165916 -0.929644
vn -0.329083 0.131970 -0.935034
vn -0.998333 0.003753 -0.057595
vn -0.999992 0.003876 -0.000012
vn -0.996098 -0.008333 -0.087856
vn -0.999992 0.004060 -0.000061
vn -0.897910 -0.054914 -0.436740
vn -0.897957 -0.075824 -0.433502
vn -0.996109 -0.011450 -0.087387
vn -0.330185 -0.129546 -0.934985
vn -0.330265 -0.163412 -0.929635
vn -0.998402 -0.013623 -0.054838
vn -0.999992 0.004052 -0.000018
vn -0.996203 -0.034787 -0.079811
vn -0.999993 0.003843 0.000083
vn -0.898389 -0.186970 -0.397416
vn -0.898448 -0.206084 -0.387713
vn -0.996216 -0.037985 -0.078169
vn -0.331257 -0.411990 -0.848842
vn -0.331337 -0.442587 -0.833266
vn -0.998466 -0.029927 -0.046581
vn -0.999992 0.003916 0.000035
vn -0.996297 -0.057443 -0.063972
vn -0.999992 0.003984 0.000020
vn -0.898908 -0.300274 -0.319061
vn -0.898956 -0.315487 -0.303886
vn -0.996308 -0.060016 -0.061390
vn -0.332164 -0.654078 -0.679594
vn -0.332200 -0.678384 -0.655315
vn -0.998518 -0.042719 -0.033723
vn -0.999992 0.003916 0.000050
vn -0.996362 -0.074255 -0.041818
vn -0.999992 0.003930 0.000064
vn -0.899258 -0.384007 -0.209458
vn -0.899262 -0.393767 -0.190461
vn -0.996371 -0.075799 -0.038729
vn -0.332887 -0.831977 -0.443848
vn -0.332939 -0.847573 -0.413244
vn -0.998549 -0.050834 -0.017794
vn -0.999992 0.003961 -0.000003
vn -0.996393 -0.083389 -0.015698
vn -0.999992 0.003965 0.000058
vn -0.899361 -0.429924 -0.079467
vn -0.899336 -0.433340 -0.058408
vn -0.996397 -0.083939 -0.012117
vn -0.333326 -0.928343 -0.164539
vn -0.333298 -0.933722 -0.130677
vn -0.998560 -0.053652 -0.000030
vn -0.999992 0.003980 0.000000
vn -0.996401 -0.083896 0.012123
vn -0.999992 0.003965 -0.000064
vn -0.899444 -0.433114 0.058410
vn -0.899383 -0.429863 0.079556
vn -0.996395 -0.083363 0.015710
vn -0.333295 -0.933706 0.130797
vn -0.333254 -0.928344 0.164681
vn -0.998549 -0.050840 0.017766
vn -0.999992 0.003961 0.000003
vn -0.996370 -0.075793 0.038749
vn -0.999992 0.003930 -0.000064
vn -0.899274 -0.393725 0.190491
vn -0.899211 -0.384078 0.209533
vn -0.996362 -0.074252 0.041826
vn -0.333077 -0.847479 0.413326
vn -0.332949 -0.831904 0.443938
vn -0.998518 -0.042739 0.033694
vn -0.999992 0.003916 -0.000053
vn -0.996308 -0.060005 0.061400
vn -0.999992 0.003984 -0.000020
vn -0.898971 -0.315435 0.303895
vn -0.898869 -0.300312 0.319136
vn -0.996296 -0.057441 0.063987
vn -0.332225 -0.678289 0.655401
vn -0.332120 -0.654028 0.679665
vn -0.998465 -0.029953 0.046580
vn -0.999992 0.003916 -0.000037
vn -0.996216 -0.037974 0.078179
vn -0.999993 0.003843 -0.000084
vn -0.898464 -0.206017 0.387710
vn -0.898362 -0.186989 0.397467
vn -0.996201 -0.034792 0.079835
vn -0.331403 -0.442491 0.833291
vn -0.331265 -0.411923 0.848872
vn -0.998403 -0.013656 0.054818
vn -0.999992 0.004052 0.000016
vn -0.996112 -0.011431 0.087357
vn -0.999992 0.004060 0.000061
vn -0.898067 -0.075755 0.433286
vn -0.897942 -0.054826 0.436686
vn -0.996100 -0.008308 0.087840
vn -0.330260 -0.163280 0.929660
vn -0.330084 -0.129350 0.935047
vn -0.998333 0.003727 0.057595
vn -0.999992 0.003876 0.000012
vn -0.996004 0.016032 0.087853
vn -0.999992 0.003943 -0.000020
vn -0.897458 0.061910 0.436733
vn -0.897365 0.083103 0.433394
vn -0.995989 0.019633 0.087292
vn -0.329075 0.132101 0.935018
vn -0.328926 0.166029 0.929646
vn -0.998263 0.021925 0.054688
vn -0.999992 0.004047 -0.000028
vn -0.995900 0.042711 0.079748
vn -0.999992 0.003985 0.000027
vn -0.897015 0.193983 0.397159
vn -0.896849 0.212999 0.387676
vn -0.995888 0.045612 0.078273
vn -0.328079 0.414610 0.848801
vn -0.327939 0.445180 0.833229
vn -0.998198 0.037761 0.046634
vn -0.999992 0.003948 0.000020
vn -0.995803 0.065459 0.063961
vn -0.999992 0.004001 -0.000032
vn -0.896434 0.307624 0.319020
vn -0.896313 0.322719 0.304100
vn -0.995793 0.067885 0.061538
vn -0.327124 0.656667 0.679543
vn -0.326993 0.680957 0.655266
vn -0.998145 0.050598 0.033872
vn -0.999992 0.003979 -0.000063
vn -0.995741 0.082216 0.041714
vn -0.999992 0.003972 -0.000010
vn -0.896161 0.391194 0.209432
vn -0.896098 0.400896 0.190501
vn -0.995735 0.083752 0.038683
vn -0.326341 0.834575 0.443831
vn -0.326236 0.850195 0.413206
vn -0.998117 0.058715 0.017772
vn -0.999992 0.004008 -0.000087
vn -0.995709 0.091244 0.015450
vn -0.999992 0.003982 -0.000039
vn -0.896054 0.436812 0.079264
vn -0.895986 0.440230 0.058359
vn -0.995706 0.091766 0.012200
vn -0.325850 0.930992 0.164547
vn -0.325822 0.936357 0.130673
vn -0.998104 0.061544 0.000005
vn -0.999992 0.003980 -0.000005
vn 0.900827 0.412533 -0.135377
vn 0.336105 0.895537 -0.291628
vn 0.900618 0.350299 -0.257250
vn 0.335555 0.761506 -0.554537
vn 0.900246 0.253430 -0.354019
vn 0.334828 0.552704 -0.763157
vn 0.899712 0.131340 -0.416255
vn 0.333704 0.289769 -0.897037
vn 0.899314 -0.003563 -0.437288
vn 0.332540 -0.001447 -0.943088
vn 0.898783 -0.138808 -0.415838
vn 0.331455 -0.292970 -0.896831
vn 0.898241 -0.260849 -0.353724
vn 0.330274 -0.555889 -0.762828
vn 0.897744 -0.357593 -0.257262
vn 0.329586 -0.764397 -0.554139
vn 0.897638 -0.419519 -0.135092
vn 0.328890 -0.898362 -0.291166
vn 0.897438 -0.441140 0.000064
vn 0.328889 -0.944368 0.000227
vn 0.897643 -0.419438 0.135306
vn 0.328870 -0.898209 0.291660
vn 0.897792 -0.357367 0.257406
vn 0.329550 -0.764134 0.554524
vn 0.898226 -0.260547 0.353985
vn 0.330338 -0.555317 0.763217
vn 0.898739 -0.138459 0.416049
vn 0.331478 -0.292431 0.896999
vn 0.899334 -0.003394 0.437250
vn 0.332445 -0.001115 0.943122
vn 0.899705 0.131776 0.416132
vn 0.333723 0.290315 0.896853
vn 0.900269 0.253669 0.353791
vn 0.334832 0.553110 0.762861
vn 0.900608 0.350524 0.256979
vn 0.335531 0.761805 0.554140
vn 0.900861 0.412506 0.135236
vn 0.336112 0.895678 0.291188
vn 0.901059 0.433696 -0.000169
vn 0.336250 0.941773 -0.000317
vn -0.897618 0.419571 -0.135062
vn -0.328927 0.898342 -0.291185
vn -0.897724 0.357714 -0.257161
vn -0.329584 0.764437 -0.554086
vn -0.898227 0.260922 -0.353706
vn -0.330365 0.555910 -0.762773
vn -0.898763 0.138949 -0.415835
vn -0.331480 0.292965 -0.896823
vn -0.899235 0.003479 -0.437453
vn -0.332597 0.001441 -0.943068
vn -0.899734 -0.131385 -0.416194
vn -0.333717 -0.289816 -0.897017
vn -0.900227 -0.253508 -0.354012
vn -0.334760 -0.552754 -0.763151
vn -0.900695 -0.350285 -0.256999
vn -0.335500 -0.761547 -0.554514
vn -0.900884 -0.412498 -0.135107
vn -0.336155 -0.895541 -0.291558
vn -0.900964 -0.433894 -0.000229
vn -0.336274 -0.941764 -0.000270
vn -0.900879 -0.412578 0.134896
vn -0.336177 -0.895681 0.291102
vn -0.900684 -0.350447 0.256816
vn -0.335501 -0.761793 0.554176
vn -0.900227 -0.253641 0.353918
vn -0.334750 -0.553162 0.762859
vn -0.899781 -0.131634 0.416012
vn -0.333752 -0.290278 0.896855
vn -0.899236 0.003258 0.437452
vn -0.332499 0.001115 0.943103
vn -0.898796 0.138652 0.415861
vn -0.331425 0.292507 0.896994
vn -0.898190 0.260685 0.353976
vn -0.330443 0.555347 0.763150
vn -0.897736 0.357489 0.257432
vn -0.329574 0.764099 0.554557
vn -0.897623 0.419459 0.135378
vn -0.328923 0.898206 0.291609
vn -0.897495 0.441024 0.000121
vn -0.328823 0.944391 0.000245
vn 0.999992 -0.003989 0.000001
vn -0.999992 0.003970 -0.000000
s 1
g pCylinder2
usemtl initialShadingGroup
f 2/1/1 1/201/2 359/462/3 358/5/4
f 1/201/2 8/161/5 360/76/6 359/462/3
s 2
f 4/2/7 3/202/8 15/213/9 14/141/10
s 1
f 3/203/11 2/1/1 16/4/12 15/212/13
s 2
f 6/3/14 5/204/15 165/326/16 164/160/17
f 5/205/15 4/2/7 166/82/18 165/325/16
s 1
f 8/161/5 7/206/19 155/318/20 154/162/21
s 2
f 7/207/22 6/3/14 156/79/23 155/317/24
s 1
f 10/6/25 9/208/26 357/461/27 356/9/28
f 9/208/26 16/4/12 358/5/4 357/461/27
s 2
f 12/7/29 11/209/30 23/219/31 22/142/32
s 1
f 11/210/33 10/6/25 24/8/34 23/218/35
s 2
f 14/141/10 13/211/36 173/332/37 172/83/38
f 13/211/36 12/7/29 174/85/39 173/332/37
s 1
f 18/10/40 17/214/41 355/460/42 354/13/43
f 17/214/41 24/8/34 356/9/28 355/460/42
s 2
f 20/11/44 19/215/45 31/225/46 30/143/47
s 1
f 19/216/48 18/10/40 32/12/49 31/224/50
s 2
f 22/142/32 21/217/51 181/338/52 180/86/53
f 21/217/51 20/11/44 182/88/54 181/338/52
s 1
f 26/14/55 25/220/56 353/459/57 352/17/58
f 25/220/56 32/12/49 354/13/43 353/459/57
s 2
f 28/15/59 27/221/60 39/231/61 38/144/62
s 1
f 27/222/63 26/14/55 40/16/64 39/230/65
s 2
f 30/143/47 29/223/66 189/344/67 188/89/68
f 29/223/66 28/15/59 190/91/69 189/344/67
s 1
f 34/18/70 33/226/71 351/458/72 350/21/73
f 33/226/71 40/16/64 352/17/58 351/458/72
s 2
f 36/19/74 35/227/75 47/237/76 46/145/77
s 1
f 35/228/78 34/18/70 48/20/79 47/236/80
s 2
f 38/144/62 37/229/81 197/350/82 196/92/83
f 37/229/81 36/19/74 198/94/84 197/350/82
s 1
f 42/22/85 41/232/86 349/457/87 348/25/88
f 41/232/86 48/20/79 350/21/73 349/457/87
s 2
f 44/23/89 43/233/90 55/243/91 54/146/92
s 1
f 43/234/93 42/22/85 56/24/94 55/242/95
s 2
f 46/145/77 45/235/96 205/356/97 204/95/98
f 45/235/96 44/23/89 206/97/99 205/356/97
s 1
f 50/26/100 49/238/101 347/456/102 346/29/103
f 49/238/101 56/24/94 348/25/88 347/456/102
s 2
f 52/27/104 51/239/105 63/249/106 62/147/107
s 1
f 51/240/108 50/26/100 64/28/109 63/248/110
s 2
f 54/146/92 53/241/111 213/362/112 212/98/113
f 53/241/111 52/27/104 214/100/114 213/362/112
s 1
f 58/30/115 57/244/116 345/455/117 344/33/118
f 57/244/116 64/28/109 346/29/103 345/455/117
s 2
f 60/31/119 59/245/120 71/255/121 70/148/122
s 1
f 59/246/123 58/30/115 72/32/124 71/254/125
s 2
f 62/147/107 61/247/126 221/368/127 220/101/128
f 61/247/126 60/31/119 222/103/129 221/368/127
s 1
f 66/34/130 65/250/131 343/454/132 342/37/133
f 65/250/131 72/32/124 344/33/118 343/454/132
s 2
f 68/35/134 67/251/135 79/261/136 78/149/137
s 1
f 67/252/138 66/34/130 80/36/139 79/260/140
s 2
f 70/148/122 69/253/141 229/374/142 228/104/143
f 69/253/141 68/35/134 230/106/144 229/374/142
s 1
f 74/38/145 73/256/146 341/453/147 340/41/148
f 73/256/146 80/36/139 342/37/133 341/453/147
s 2
f 76/39/149 75/257/150 87/267/151 86/150/152
s 1
f 75/258/153 74/38/145 88/40/154 87/266/155
s 2
f 78/149/137 77/259/156 237/380/157 236/107/158
f 77/259/156 76/39/149 238/109/159 237/380/157
s 1
f 82/42/160 81/262/161 339/452/162 338/45/163
f 81/262/161 88/40/154 340/41/148 339/452/162
s 2
f 84/43/164 83/263/165 95/273/166 94/151/167
s 1
f 83/264/168 82/42/160 96/44/169 95/272/170
s 2
f 86/150/152 85/265/171 245/386/172 244/110/173
f 85/265/171 84/43/164 246/112/174 245/386/172
s 1
f 90/46/175 89/268/176 337/451/177 336/49/178
f 89/268/176 96/44/169 338/45/163 337/451/177
s 2
f 92/47/179 91/269/180 103/279/181 102/152/182
s 1
f 91/270/183 90/46/175 104/48/184 103/278/185
s 2
f 94/151/167 93/271/186 253/392/187 252/113/188
f 93/271/186 92/47/179 254/115/189 253/392/187
s 1
f 98/50/190 97/274/191 335/450/192 334/53/193
f 97/274/191 104/48/184 336/49/178 335/450/192
s 2
f 100/51/194 99/275/195 111/285/196 110/153/197
s 1
f 99/276/198 98/50/190 112/52/199 111/284/200
s 2
f 102/152/182 101/277/201 261/398/202 260/116/203
f 101/277/201 100/51/194 262/118/204 261/398/202
s 1
f 106/54/205 105/280/206 333/449/207 332/57/208
f 105/280/206 112/52/199 334/53/193 333/449/207
s 2
f 108/55/209 107/281/210 119/291/211 118/154/212
s 1
f 107/282/213 106/54/205 120/56/214 119/290/215
s 2
f 110/153/197 109/283/216 269/404/217 268/119/218
f 109/283/216 108/55/209 270/121/219 269/404/217
s 1
f 114/58/220 113/286/221 331/448/222 330/61/223
f 113/286/221 120/56/214 332/57/208 331/448/222
s 2
f 116/59/224 115/287/225 127/297/226 126/155/227
s 1
f 115/288/228 114/58/220 128/60/229 127/296/230
s 2
f 118/154/212 117/289/231 277/410/232 276/122/233
f 117/289/231 116/59/224 278/124/234 277/410/232
s 1
f 122/62/235 121/292/236 329/447/237 328/65/238
f 121/292/236 128/60/229 330/61/223 329/447/237
s 2
f 124/63/239 123/293/240 135/303/241 134/156/242
s 1
f 123/294/243 122/62/235 136/64/244 135/302/245
s 2
f 126/155/227 125/295/246 285/416/247 284/125/248
f 125/295/246 124/63/239 286/127/249 285/416/247
s 1
f 130/66/250 129/298/251 327/446/252 326/69/253
f 129/298/251 136/64/244 328/65/238 327/446/252
s 2
f 132/67/254 131/299/255 143/309/256 142/157/257
s 1
f 131/300/258 130/66/250 144/68/259 143/308/260
s 2
f 134/156/242 133/301/261 293/422/262 292/128/263
f 133/301/261 132/67/254 294/130/264 293/422/262
s 1
f 138/70/265 137/304/266 325/445/267 324/73/268
f 137/304/266 144/68/259 326/69/253 325/445/267
s 2
f 140/71/269 139/305/270 151/315/271 150/158/272
s 1
f 139/306/273 138/70/265 152/72/274 151/314/275
s 2
f 142/157/257 141/307/276 301/428/277 300/131/278
f 141/307/276 140/71/269 302/133/279 301/428/277
s 1
f 146/74/280 145/310/281 323/444/282 322/78/283
f 145/310/281 152/72/274 324/73/268 323/444/282
s 2
f 148/75/284 147/311/285 159/321/286 158/159/287
s 1
f 147/312/288 146/74/280 160/77/289 159/320/290
s 2
f 150/158/272 149/313/291 309/434/292 308/134/293
f 149/313/291 148/75/284 310/136/294 309/434/292
s 1
f 154/162/21 153/316/295 321/443/296 360/76/6
f 153/316/295 160/77/289 322/78/283 321/443/296
s 2
f 158/159/287 157/319/297 317/440/298 316/137/299
f 157/319/297 156/79/23 318/80/300 317/440/298
s 40
f 162/81/301 161/322/302 363/464/303 362/140/304
f 161/322/302 168/163/305 364/84/306 363/464/303
s 2
f 164/160/17 163/323/307 319/442/308 318/80/300
s 40
f 163/324/309 162/81/301 320/139/310 319/441/311
f 168/163/305 167/327/312 171/331/313 170/164/314
s 2
f 167/328/315 166/82/18 172/83/38 171/330/316
s 40
f 170/164/314 169/329/317 365/465/318 364/84/306
f 169/329/317 176/165/319 366/87/320 365/465/318
f 176/165/319 175/333/321 179/337/322 178/166/323
s 2
f 175/334/324 174/85/39 180/86/53 179/336/325
s 40
f 178/166/323 177/335/326 367/466/327 366/87/320
f 177/335/326 184/167/328 368/90/329 367/466/327
f 184/167/328 183/339/330 187/343/331 186/168/332
s 2
f 183/340/333 182/88/54 188/89/68 187/342/334
s 40
f 186/168/332 185/341/335 369/467/336 368/90/329
f 185/341/335 192/169/337 370/93/338 369/467/336
f 192/169/337 191/345/339 195/349/340 194/170/341
s 2
f 191/346/342 190/91/69 196/92/83 195/348/343
s 40
f 194/170/341 193/347/344 371/468/345 370/93/338
f 193/347/344 200/171/346 372/96/347 371/468/345
f 200/171/346 199/351/348 203/355/349 202/172/350
s 2
f 199/352/351 198/94/84 204/95/98 203/354/352
s 40
f 202/172/350 201/353/353 373/469/354 372/96/347
f 201/353/353 208/173/355 374/99/356 373/469/354
f 208/173/355 207/357/357 211/361/358 210/174/359
s 2
f 207/358/360 206/97/99 212/98/113 211/360/361
s 40
f 210/174/359 209/359/362 375/470/363 374/99/356
f 209/359/362 216/175/364 376/102/365 375/470/363
f 216/175/364 215/363/366 219/367/367 218/176/368
s 2
f 215/364/369 214/100/114 220/101/128 219/366/370
s 40
f 218/176/368 217/365/371 377/471/372 376/102/365
f 217/365/371 224/177/373 378/105/374 377/471/372
f 224/177/373 223/369/375 227/373/376 226/178/377
s 2
f 223/370/378 222/103/129 228/104/143 227/372/379
s 40
f 226/178/377 225/371/380 379/472/381 378/105/374
f 225/371/380 232/179/382 380/108/383 379/472/381
f 232/179/382 231/375/384 235/379/385 234/180/386
s 2
f 231/376/387 230/106/144 236/107/158 235/378/388
s 40
f 234/180/386 233/377/389 381/473/390 380/108/383
f 233/377/389 240/181/391 382/111/392 381/473/390
f 240/181/391 239/381/393 243/385/394 242/182/395
s 2
f 239/382/396 238/109/159 244/110/173 243/384/397
s 40
f 242/182/395 241/383/398 383/474/399 382/111/392
f 241/383/398 248/183/400 384/114/401 383/474/399
f 248/183/400 247/387/402 251/391/403 250/184/404
s 2
f 247/388/405 246/112/174 252/113/188 251/390/406
s 40
f 250/184/404 249/389/407 385/475/408 384/114/401
f 249/389/407 256/185/409 386/117/410 385/475/408
f 256/185/409 255/393/411 259/397/412 258/186/413
s 2
f 255/394/414 254/115/189 260/116/203 259/396/415
s 40
f 258/186/413 257/395/416 387/476/417 386/117/410
f 257/395/416 264/187/418 388/120/419 387/476/417
f 264/187/418 263/399/420 267/403/421 266/188/422
s 2
f 263/400/423 262/118/204 268/119/218 267/402/424
s 40
f 266/188/422 265/401/425 389/477/426 388/120/419
f 265/401/425 272/189/427 390/123/428 389/477/426
f 272/189/427 271/405/429 275/409/430 274/190/431
s 2
f 271/406/432 270/121/219 276/122/233 275/408/433
s 40
f 274/190/431 273/407/434 391/478/435 390/123/428
f 273/407/434 280/191/436 392/126/437 391/478/435
f 280/191/436 279/411/438 283/415/439 282/192/440
s 2
f 279/412/441 278/124/234 284/125/248 283/414/442
s 40
f 282/192/440 281/413/443 393/479/444 392/126/437
f 281/413/443 288/193/445 394/129/446 393/479/444
f 288/193/445 287/417/447 291/421/448 290/194/449
s 2
f 287/418/450 286/127/249 292/128/263 291/420/451
s 40
f 290/194/449 289/419/452 395/480/453 394/129/446
f 289/419/452 296/195/454 396/132/455 395/480/453
f 296/195/454 295/423/456 299/427/457 298/196/458
s 2
f 295/424/459 294/130/264 300/131/278 299/426/460
s 40
f 298/196/458 297/425/461 397/481/462 396/132/455
f 297/425/461 304/197/463 398/135/464 397/481/462
f 304/197/463 303/429/465 307/433/466 306/198/467
s 2
f 303/430/468 302/133/279 308/134/293 307/432/469
s 40
f 306/198/467 305/431/470 399/482/471 398/135/464
f 305/431/470 312/199/472 400/138/473 399/482/471
f 312/199/472 311/435/474 315/439/475 314/200/476
s 2
f 311/436/477 310/136/294 316/137/299 315/438/478
s 40
f 314/200/476 313/437/479 361/463/480 400/138/473
f 313/437/479 320/139/310 362/140/304 361/463/480
s 2
f 4/2/7 14/141/10 172/83/38 166/82/18
f 12/7/29 22/142/32 180/86/53 174/85/39
f 20/11/44 30/143/47 188/89/68 182/88/54
f 28/15/59 38/144/62 196/92/83 190/91/69
f 36/19/74 46/145/77 204/95/98 198/94/84
f 44/23/89 54/146/92 212/98/113 206/97/99
f 52/27/104 62/147/107 220/101/128 214/100/114
f 60/31/119 70/148/122 228/104/143 222/103/129
f 68/35/134 78/149/137 236/107/158 230/106/144
f 76/39/149 86/150/152 244/110/173 238/109/159
f 84/43/164 94/151/167 252/113/188 246/112/174
f 92/47/179 102/152/182 260/116/203 254/115/189
f 100/51/194 110/153/197 268/119/218 262/118/204
f 108/55/209 118/154/212 276/122/233 270/121/219
f 116/59/224 126/155/227 284/125/248 278/124/234
f 124/63/239 134/156/242 292/128/263 286/127/249
f 132/67/254 142/157/257 300/131/278 294/130/264
f 140/71/269 150/158/272 308/134/293 302/133/279
f 148/75/284 158/159/287 316/137/299 310/136/294
f 156/79/23 6/3/14 164/160/17 318/80/300
s 1
f 16/4/12 2/1/1 358/5/4
f 24/8/34 10/6/25 356/9/28
f 32/12/49 18/10/40 354/13/43
f 40/16/64 26/14/55 352/17/58
f 48/20/79 34/18/70 350/21/73
f 56/24/94 42/22/85 348/25/88
f 64/28/109 50/26/100 346/29/103
f 72/32/124 58/30/115 344/33/118
f 80/36/139 66/34/130 342/37/133
f 88/40/154 74/38/145 340/41/148
f 96/44/169 82/42/160 338/45/163
f 104/48/184 90/46/175 336/49/178
f 112/52/199 98/50/190 334/53/193
f 120/56/214 106/54/205 332/57/208
f 128/60/229 114/58/220 330/61/223
f 136/64/244 122/62/235 328/65/238
f 144/68/259 130/66/250 326/69/253
f 152/72/274 138/70/265 324/73/268
f 160/77/289 146/74/280 322/78/283
f 8/161/5 154/162/21 360/76/6
s 40
f 168/163/305 170/164/314 364/84/306
f 176/165/319 178/166/323 366/87/320
f 184/167/328 186/168/332 368/90/329
f 192/169/337 194/170/341 370/93/338
f 200/171/346 202/172/350 372/96/347
f 208/173/355 210/174/359 374/99/356
f 216/175/364 218/176/368 376/102/365
f 224/177/373 226/178/377 378/105/374
f 232/179/382 234/180/386 380/108/383
f 240/181/391 242/182/395 382/111/392
f 248/183/400 250/184/404 384/114/401
f 256/185/409 258/186/413 386/117/410
f 264/187/418 266/188/422 388/120/419
f 272/189/427 274/190/431 390/123/428
f 280/191/436 282/192/440 392/126/437
f 288/193/445 290/194/449 394/129/446
f 296/195/454 298/196/458 396/132/455
f 304/197/463 306/198/467 398/135/464
f 312/199/472 314/200/476 400/138/473
f 320/139/310 162/81/301 362/140/304
s 1
f 7/206/19 8/161/5 1/201/2 401/485/481
f 1/201/2 2/1/1 3/203/11 401/485/481
s 2
f 3/202/8 4/2/7 5/205/15 401/483/482
f 5/204/15 6/3/14 7/207/22 401/484/482
s 1
f 15/212/13 16/4/12 9/208/26 402/487/483
f 9/208/26 10/6/25 11/210/33 402/487/483
s 2
f 11/209/30 12/7/29 13/211/36 402/486/484
f 13/211/36 14/141/10 15/213/9 402/486/484
s 1
f 23/218/35 24/8/34 17/214/41 403/489/485
f 17/214/41 18/10/40 19/216/48 403/489/485
s 2
f 19/215/45 20/11/44 21/217/51 403/488/486
f 21/217/51 22/142/32 23/219/31 403/488/486
s 1
f 31/224/50 32/12/49 25/220/56 404/491/487
f 25/220/56 26/14/55 27/222/63 404/491/487
s 2
f 27/221/60 28/15/59 29/223/66 404/490/488
f 29/223/66 30/143/47 31/225/46 404/490/488
s 1
f 39/230/65 40/16/64 33/226/71 405/493/489
f 33/226/71 34/18/70 35/228/78 405/493/489
s 2
f 35/227/75 36/19/74 37/229/81 405/492/490
f 37/229/81 38/144/62 39/231/61 405/492/490
s 1
f 47/236/80 48/20/79 41/232/86 406/495/491
f 41/232/86 42/22/85 43/234/93 406/495/491
s 2
f 43/233/90 44/23/89 45/235/96 406/494/492
f 45/235/96 46/145/77 47/237/76 406/494/492
s 1
f 55/242/95 56/24/94 49/238/101 407/497/493
f 49/238/101 50/26/100 51/240/108 407/497/493
s 2
f 51/239/105 52/27/104 53/241/111 407/496/494
f 53/241/111 54/146/92 55/243/91 407/496/494
s 1
f 63/248/110 64/28/109 57/244/116 408/499/495
f 57/244/116 58/30/115 59/246/123 408/499/495
s 2
f 59/245/120 60/31/119 61/247/126 408/498/496
f 61/247/126 62/147/107 63/249/106 408/498/496
s 1
f 71/254/125 72/32/124 65/250/131 409/501/497
f 65/250/131 66/34/130 67/252/138 409/501/497
s 2
f 67/251/135 68/35/134 69/253/141 409/500/498
f 69/253/141 70/148/122 71/255/121 409/500/498
s 1
f 79/260/140 80/36/139 73/256/146 410/503/499
f 73/256/146 74/38/145 75/258/153 410/503/499
s 2
f 75/257/150 76/39/149 77/259/156 410/502/500
f 77/259/156 78/149/137 79/261/136 410/502/500
s 1
f 87/266/155 88/40/154 81/262/161 411/505/501
f 81/262/161 82/42/160 83/264/168 411/505/501
s 2
f 83/263/165 84/43/164 85/265/171 411/504/502
f 85/265/171 86/150/152 87/267/151 411/504/502
s 1
f 95/272/170 96/44/169 89/268/176 412/507/503
f 89/268/176 90/46/175 91/270/183 412/507/503
s 2
f 91/269/180 92/47/179 93/271/186 412/506/504
f 93/271/186 94/151/167 95/273/166 412/506/504
s 1
f 103/278/185 104/48/184 97/274/191 413/509/505
f 97/274/191 98/50/190 99/276/198 413/509/505
s 2
f 99/275/195 100/51/194 101/277/201 413/508/506
f 101/277/201 102/152/182 103/279/181 413/508/506
s 1
f 111/284/200 112/52/199 105/280/206 414/511/507
f 105/280/206 106/54/205 107/282/213 414/511/507
s 2
f 107/281/210 108/55/209 109/283/216 414/510/508
f 109/283/216 110/153/197 111/285/196 414/510/508
s 1
f 119/290/215 120/56/214 113/286/221 415/513/509
f 113/286/221 114/58/220 115/288/228 415/513/509
s 2
f 115/287/225 116/59/224 117/289/231 415/512/510
f 117/289/231 118/154/212 119/291/211 415/512/510
s 1
f 127/296/230 128/60/229 121/292/236 416/515/511
f 121/292/236 122/62/235 123/294/243 416/515/511
s 2
f 123/293/240 124/63/239 125/295/246 416/514/512
f 125/295/246 126/155/227 127/297/226 416/514/512
s 1
f 135/302/245 136/64/244 129/298/251 417/517/513
f 129/298/251 130/66/250 131/300/258 417/517/513
s 2
f 131/299/255 132/67/254 133/301/261 417/516/514
f 133/301/261 134/156/242 135/303/241 417/516/514
s 1
f 143/308/260 144/68/259 137/304/266 418/519/515
f 137/304/266 138/70/265 139/306/273 418/519/515
s 2
f 139/305/270 140/71/269 141/307/276 418/518/516
f 141/307/276 142/157/257 143/309/256 418/518/516
s 1
f 151/314/275 152/72/274 145/310/281 419/521/517
f 145/310/281 146/74/280 147/312/288 419/521/517
s 2
f 147/311/285 148/75/284 149/313/291 419/520/518
f 149/313/291 150/158/272 151/315/271 419/520/518
s 1
f 159/320/290 160/77/289 153/316/295 420/523/519
f 153/316/295 154/162/21 155/318/20 420/523/519
s 2
f 155/317/24 156/79/23 157/319/297 420/522/520
f 157/319/297 158/159/287 159/321/286 420/522/520
s 40
f 167/327/312 168/163/305 161/322/302 421/526/521
f 161/322/302 162/81/301 163/324/309 421/526/521
s 2
f 163/323/307 164/160/17 165/326/16 421/524/522
f 165/325/16 166/82/18 167/328/315 421/525/522
s 40
f 175/333/321 176/165/319 169/329/317 422/528/523
f 169/329/317 170/164/314 171/331/313 422/528/523
s 2
f 171/330/316 172/83/38 173/332/37 422/527/524
f 173/332/37 174/85/39 175/334/324 422/527/524
s 40
f 183/339/330 184/167/328 177/335/326 423/530/525
f 177/335/326 178/166/323 179/337/322 423/530/525
s 2
f 179/336/325 180/86/53 181/338/52 423/529/526
f 181/338/52 182/88/54 183/340/333 423/529/526
s 40
f 191/345/339 192/169/337 185/341/335 424/532/527
f 185/341/335 186/168/332 187/343/331 424/532/527
s 2
f 187/342/334 188/89/68 189/344/67 424/531/528
f 189/344/67 190/91/69 191/346/342 424/531/528
s 40
f 199/351/348 200/171/346 193/347/344 425/534/529
f 193/347/344 194/170/341 195/349/340 425/534/529
s 2
f 195/348/343 196/92/83 197/350/82 425/533/530
f 197/350/82 198/94/84 199/352/351 425/533/530
s 40
f 207/357/357 208/173/355 201/353/353 426/536/531
f 201/353/353 202/172/350 203/355/349 426/536/531
s 2
f 203/354/352 204/95/98 205/356/97 426/535/532
f 205/356/97 206/97/99 207/358/360 426/535/532
s 40
f 215/363/366 216/175/364 209/359/362 427/538/533
f 209/359/362 210/174/359 211/361/358 427/538/533
s 2
f 211/360/361 212/98/113 213/362/112 427/537/534
f 213/362/112 214/100/114 215/364/369 427/537/534
s 40
f 223/369/375 224/177/373 217/365/371 428/540/535
f 217/365/371 218/176/368 219/367/367 428/540/535
s 2
f 219/366/370 220/101/128 221/368/127 428/539/536
f 221/368/127 222/103/129 223/370/378 428/539/536
s 40
f 231/375/384 232/179/382 225/371/380 429/542/537
f 225/371/380 226/178/377 227/373/376 429/542/537
s 2
f 227/372/379 228/104/143 229/374/142 429/541/538
f 229/374/142 230/106/144 231/376/387 429/541/538
s 40
f 239/381/393 240/181/391 233/377/389 430/544/539
f 233/377/389 234/180/386 235/379/385 430/544/539
s 2
f 235/378/388 236/107/158 237/380/157 430/543/540
f 237/380/157 238/109/159 239/382/396 430/543/540
s 40
f 247/387/402 248/183/400 241/383/398 431/546/541
f 241/383/398 242/182/395 243/385/394 431/546/541
s 2
f 243/384/397 244/110/173 245/386/172 431/545/542
f 245/386/172 246/112/174 247/388/405 431/545/542
s 40
f 255/393/411 256/185/409 249/389/407 432/548/543
f 249/389/407 250/184/404 251/391/403 432/548/543
s 2
f 251/390/406 252/113/188 253/392/187 432/547/544
f 253/392/187 254/115/189 255/394/414 432/547/544
s 40
f 263/399/420 264/187/418 257/395/416 433/550/545
f 257/395/416 258/186/413 259/397/412 433/550/545
s 2
f 259/396/415 260/116/203 261/398/202 433/549/546
f 261/398/202 262/118/204 263/400/423 433/549/546
s 40
f 271/405/429 272/189/427 265/401/425 434/552/547
f 265/401/425 266/188/422 267/403/421 434/552/547
s 2
f 267/402/424 268/119/218 269/404/217 434/551/548
f 269/404/217 270/121/219 271/406/432 434/551/548
s 40
f 279/411/438 280/191/436 273/407/434 435/554/549
f 273/407/434 274/190/431 275/409/430 435/554/549
s 2
f 275/408/433 276/122/233 277/410/232 435/553/550
f 277/410/232 278/124/234 279/412/441 435/553/550
s 40
f 287/417/447 288/193/445 281/413/443 436/556/551
f 281/413/443 282/192/440 283/415/439 436/556/551
s 2
f 283/414/442 284/125/248 285/416/247 436/555/552
f 285/416/247 286/127/249 287/418/450 436/555/552
s 40
f 295/423/456 296/195/454 289/419/452 437/558/553
f 289/419/452 290/194/449 291/421/448 437/558/553
s 2
f 291/420/451 292/128/263 293/422/262 437/557/554
f 293/422/262 294/130/264 295/424/459 437/557/554
s 40
f 303/429/465 304/197/463 297/425/461 438/560/555
f 297/425/461 298/196/458 299/427/457 438/560/555
s 2
f 299/426/460 300/131/278 301/428/277 438/559/556
f 301/428/277 302/133/279 303/430/468 438/559/556
s 40
f 311/435/474 312/199/472 305/431/470 439/562/557
f 305/431/470 306/198/467 307/433/466 439/562/557
s 2
f 307/432/469 308/134/293 309/434/292 439/561/558
f 309/434/292 310/136/294 311/436/477 439/561/558
s 40
f 319/441/311 320/139/310 313/437/479 440/564/559
f 313/437/479 314/200/476 315/439/475 440/564/559
s 2
f 315/438/478 316/137/299 317/440/298 440/563/560
f 317/440/298 318/80/300 319/442/308 440/563/560
s 1
f 359/462/3 360/76/6 321/443/296 441/565/561
f 321/443/296 322/78/283 323/444/282 441/565/561
f 323/444/282 324/73/268 325/445/267 441/565/561
f 325/445/267 326/69/253 327/446/252 441/565/561
f 327/446/252 328/65/238 329/447/237 441/565/561
f 329/447/237 330/61/223 331/448/222 441/565/561
f 331/448/222 332/57/208 333/449/207 441/565/561
f 333/449/207 334/53/193 335/450/192 441/565/561
f 335/450/192 336/49/178 337/451/177 441/565/561
f 337/451/177 338/45/163 339/452/162 441/565/561
f 339/452/162 340/41/148 341/453/147 441/565/561
f 341/453/147 342/37/133 343/454/132 441/565/561
f 343/454/132 344/33/118 345/455/117 441/565/561
f 345/455/117 346/29/103 347/456/102 441/565/561
f 347/456/102 348/25/88 349/457/87 441/565/561
f 349/457/87 350/21/73 351/458/72 441/565/561
f 351/458/72 352/17/58 353/459/57 441/565/561
f 353/459/57 354/13/43 355/460/42 441/565/561
f 355/460/42 356/9/28 357/461/27 441/565/561
f 357/461/27 358/5/4 359/462/3 441/565/561
s 40
f 399/482/471 400/138/473 361/463/480 442/566/562
f 361/463/480 362/140/304 363/464/303 442/566/562
f 363/464/303 364/84/306 365/465/318 442/566/562
f 365/465/318 366/87/320 367/466/327 442/566/562
f 367/466/327 368/90/329 369/467/336 442/566/562
f 369/467/336 370/93/338 371/468/345 442/566/562
f 371/468/345 372/96/347 373/469/354 442/566/562
f 373/469/354 374/99/356 375/470/363 442/566/562
f 375/470/363 376/102/365 377/471/372 442/566/562
f 377/471/372 378/105/374 379/472/381 442/566/562
f 379/472/381 380/108/383 381/473/390 442/566/562
f 381/473/390 382/111/392 383/474/399 442/566/562
f 383/474/399 384/114/401 385/475/408 442/566/562
f 385/475/408 386/117/410 387/476/417 442/566/562
f 387/476/417 388/120/419 389/477/426 442/566/562
f 389/477/426 390/123/428 391/478/435 442/566/562
f 391/478/435 392/126/437 393/479/444 442/566/562
f 393/479/444 394/129/446 395/480/453 442/566/562
f 395/480/453 396/132/455 397/481/462 442/566/562
f 397/481/462 398/135/464 399/482/471 442/566/562
