# This file uses centimeters as units for non-parametric coordinates.

mtllib 灯的罩子.mtl
g default
v 6.775737 -0.110262 -7.852167
v 6.782484 -0.110262 -7.850484
v 6.775523 -0.108207 -7.845113
v 6.772532 -0.103217 -7.843025
v 6.767550 -0.103289 -7.845047
v 6.765485 -0.103360 -7.849928
v 6.767667 -0.108240 -7.851771
v 6.772943 -0.110262 -7.856230
v 8.077873 -0.110262 -7.852506
v 8.080229 -0.110262 -7.857391
v 8.085529 -0.108199 -7.852239
v 8.087687 -0.103217 -7.850071
v 8.085667 -0.103289 -7.845088
v 8.080787 -0.103362 -7.843025
v 8.078212 -0.108244 -7.845143
v 8.072187 -0.110262 -7.850483
v 6.767592 0.011288 -7.850219
v 6.765485 0.006204 -7.850216
v 6.767592 0.006204 -7.845132
v 6.772677 0.006204 -7.843025
v 6.772679 0.011288 -7.845132
v 6.772677 0.013394 -7.850216
v 8.085581 0.011288 -7.850217
v 8.080496 0.013394 -7.850216
v 8.080492 0.011288 -7.845132
v 8.080496 0.006204 -7.843025
v 8.085581 0.006204 -7.845132
v 8.087687 0.006204 -7.850216
v 6.767592 0.006204 -8.387848
v 6.765485 0.006204 -8.382763
v 6.767592 0.011288 -8.382761
v 6.772677 0.013394 -8.382763
v 6.772680 0.011288 -8.387848
v 6.772677 0.006204 -8.389954
v 8.085581 0.006204 -8.387848
v 8.080496 0.006204 -8.389954
v 8.080494 0.011288 -8.387848
v 8.080496 0.013394 -8.382763
v 8.085581 0.011288 -8.382759
v 8.087687 0.006204 -8.382763
v 6.775738 -0.110262 -8.380812
v 6.772943 -0.110262 -8.376748
v 6.767679 -0.108198 -8.381117
v 6.765485 -0.103216 -8.382908
v 6.767507 -0.103289 -8.387890
v 6.772386 -0.103363 -8.389954
v 6.775421 -0.108250 -8.387873
v 6.782484 -0.110262 -8.382495
v 8.077873 -0.110262 -8.380472
v 8.072187 -0.110262 -8.382495
v 8.078114 -0.108201 -8.387828
v 8.080641 -0.103217 -8.389954
v 8.085623 -0.103290 -8.387933
v 8.087687 -0.103361 -8.383053
v 8.085538 -0.108241 -8.380835
v 8.080229 -0.110262 -8.375588
v 6.802871 -0.103212 -8.358059
v 6.800796 -0.103245 -8.353097
v 6.798669 -0.108209 -8.355013
v 6.793460 -0.110262 -8.359522
v 6.795422 -0.110262 -8.365077
v 6.800158 -0.110262 -8.367377
v 6.805668 -0.108192 -8.362304
v 6.807879 -0.103180 -8.360114
v 8.054232 -0.103217 -8.358053
v 8.049244 -0.103207 -8.360114
v 8.051348 -0.108197 -8.362256
v 8.056483 -0.110262 -8.367351
v 8.061549 -0.110262 -8.365177
v 8.063647 -0.110262 -8.359931
v 8.058459 -0.108203 -8.355084
v 8.056299 -0.103226 -8.353078
v 8.054232 -0.103217 -7.874925
v 8.056299 -0.103226 -7.879901
v 8.058433 -0.108203 -7.877886
v 8.063582 -0.110262 -7.873046
v 8.061503 -0.110262 -7.867748
v 8.056485 -0.110262 -7.865554
v 8.051339 -0.108198 -7.870691
v 8.049244 -0.103207 -7.872864
v 6.802871 -0.103212 -7.874919
v 6.807879 -0.103180 -7.872864
v 6.805662 -0.108191 -7.870710
v 6.800165 -0.110262 -7.865685
v 6.795388 -0.110262 -7.867963
v 6.793409 -0.110262 -7.873461
v 6.798649 -0.108209 -7.877973
v 6.800796 -0.103245 -7.879882
v 6.802903 -0.053365 -8.352918
v 6.800796 -0.058449 -8.352923
v 6.802903 -0.058449 -8.358008
v 6.807986 -0.058449 -8.360114
v 6.807990 -0.053365 -8.358008
v 6.807986 -0.051259 -8.352923
v 8.054193 -0.053365 -8.352919
v 8.049109 -0.051259 -8.352923
v 8.049103 -0.053365 -8.358008
v 8.049109 -0.058449 -8.360114
v 8.054193 -0.058449 -8.358008
v 8.056299 -0.058449 -8.352923
v 8.049103 -0.053365 -7.874970
v 8.049109 -0.051259 -7.880054
v 8.054193 -0.053365 -7.880059
v 8.056299 -0.058449 -7.880054
v 8.054193 -0.058449 -7.874970
v 8.049109 -0.058449 -7.872864
v 6.802903 -0.053365 -7.880060
v 6.807986 -0.051259 -7.880054
v 6.807990 -0.053365 -7.874970
v 6.807986 -0.058449 -7.872864
v 6.802903 -0.058449 -7.874970
v 6.800796 -0.058449 -7.880054
v 6.769936 -0.108223 -7.847122
v 8.083393 -0.108221 -7.847248
v 6.768527 0.010353 -7.846066
v 8.084645 0.010353 -7.846066
v 6.768528 0.010353 -8.386912
v 8.084645 0.010353 -8.386911
v 6.769911 -0.108222 -8.385832
v 8.083367 -0.108221 -8.385756
v 6.800749 -0.108203 -8.360196
v 8.056366 -0.108200 -8.360161
v 8.056342 -0.108200 -7.872791
v 6.800731 -0.108202 -7.872811
v 6.803838 -0.054299 -8.357071
v 8.053257 -0.054299 -8.357072
v 8.053257 -0.054299 -7.875907
v 6.803838 -0.054299 -7.875908
vt 0.376547 1.000000
vt 0.376332 0.014243
vt 0.371845 0.013954
vt 0.623476 1.000000
vt 0.625000 0.996267
vt 0.628221 0.014245
vt 0.376360 0.235463
vt 0.623640 0.235463
vt 0.628287 0.235463
vt 0.128221 0.014246
vt 0.376360 0.496713
vt 0.623640 0.496713
vt 0.871713 0.235463
vt 0.871845 0.013952
vt 0.376305 0.736050
vt 0.623668 0.735756
vt 0.625000 0.753326
vt 0.375000 0.996874
vt 0.375000 0.753600
vt 0.376504 0.750000
vt 0.623521 0.750000
vt 0.625000 0.753277
vt 0.625000 0.996354
vt 0.623506 1.000000
vt 0.376487 1.000000
vt 0.375000 0.996400
vt 0.375000 0.996311
vt 0.376432 0.750000
vt 0.623568 0.750000
vt 0.625000 0.753689
vt 0.625000 0.996311
vt 0.376432 0.996311
vt 0.623568 1.000000
vt 0.376432 1.000000
vt 0.623695 0.013951
vt 0.376360 0.253287
vt 0.623640 0.253287
vt 0.376360 0.514537
vt 0.623640 0.514537
vt 0.376432 0.753689
vt 0.623568 0.753689
vt 0.623568 0.996311
vt 0.371713 0.235463
vt 0.128287 0.235463
vt 0.376545 0.750000
vt 0.623476 0.750000
vt 0.375000 0.996845
vt 0.375000 0.753542
vt 0.375000 0.753485
vt 0.376410 0.750000
vt 0.623595 0.750000
vt 0.625000 0.753610
vt 0.625000 0.996390
vt 0.623595 1.000000
vt 0.376410 1.000000
vt 0.375000 0.753690
vt 0.375747 0.998568
vt 0.376405 0.000000
vt 0.376405 1.000000
vt 0.374681 0.014094
vt 0.375000 0.997800
vt 0.372800 0.000000
vt 0.624201 0.998468
vt 0.627353 0.000000
vt 0.625000 0.997647
vt 0.625339 0.014095
vt 0.623621 1.000000
vt 0.623621 0.000000
vt 0.372303 0.250000
vt 0.375000 0.252697
vt 0.374660 0.235472
vt 0.376335 0.248239
vt 0.625000 0.252696
vt 0.627696 0.250000
vt 0.623665 0.248240
vt 0.625337 0.235472
vt 0.125000 0.241240
vt 0.375000 0.508760
vt 0.375000 0.497304
vt 0.127696 0.250000
vt 0.376335 0.501760
vt 0.625000 0.508760
vt 0.875000 0.241240
vt 0.623665 0.501760
vt 0.872303 0.250000
vt 0.625000 0.497303
vt 0.375746 0.751612
vt 0.127229 0.000000
vt 0.375000 0.752229
vt 0.375000 0.739545
vt 0.125000 0.010455
vt 0.375828 0.746005
vt 0.624198 0.751354
vt 0.624077 0.745948
vt 0.875000 0.010455
vt 0.625000 0.739545
vt 0.625000 0.752322
vt 0.872678 0.000000
vt 0.375889 0.751319
vt 0.375000 0.754664
vt 0.375770 0.751591
vt 0.376976 0.750000
vt 0.624114 0.751320
vt 0.623077 0.750000
vt 0.624275 0.751583
vt 0.625000 0.754619
vt 0.624114 0.998680
vt 0.625000 0.995144
vt 0.624261 0.998256
vt 0.623067 1.000000
vt 0.375889 0.998681
vt 0.376964 1.000000
vt 0.375757 0.998562
vt 0.375000 0.995568
vt 0.375927 0.753551
vt 0.375905 0.751344
vt 0.376405 0.752193
vt 0.624073 0.753550
vt 0.623595 0.752193
vt 0.624095 0.751344
vt 0.623595 0.997807
vt 0.624073 0.996450
vt 0.624095 0.998656
vt 0.375927 0.996450
vt 0.376405 0.997807
vt 0.375905 0.998656
vt 0.375000 0.000000
vt 0.375000 1.000000
vt 0.625000 0.000000
vt 0.625000 1.000000
vt 0.375000 0.250000
vt 0.625000 0.250000
vt 0.125000 0.250000
vt 0.375000 0.500000
vt 0.625000 0.500000
vt 0.875000 0.250000
vt 0.125000 0.000000
vt 0.375000 0.750000
vt 0.625000 0.750000
vt 0.875000 0.000000
vt 0.375000 0.750000
vt 0.625000 0.750000
vt 0.625000 1.000000
vt 0.375000 1.000000
vt 0.375000 0.750000
vt 0.625000 0.750000
vt 0.625000 1.000000
vt 0.375000 1.000000
vn -0.000175 -0.990259 0.139236
vn -0.051494 -0.996502 0.065818
vn 0.034349 -0.998700 -0.037653
vn 0.000132 -0.997297 -0.073478
vn -0.200057 -0.979784 0.000550
vn 0.036826 -0.999322 -0.000266
vn -0.001671 -0.017711 0.999842
vn -0.001414 -0.392465 0.919766
vn 0.001407 -0.392468 0.919765
vn 0.001487 -0.017859 0.999839
vn -0.000557 -0.934888 0.354941
vn 0.000202 -0.990870 0.134821
vn 0.000594 -0.934906 0.354895
vn -0.999827 -0.018200 0.003764
vn -0.922449 0.000838 0.386119
vn -0.922989 0.013046 0.384605
vn -0.999825 0.018336 0.003829
vn -0.379377 0.000685 0.925242
vn -0.001550 0.018357 0.999830
vn -0.378050 0.013337 0.925689
vn -0.358852 -0.933390 0.002986
vn -0.359077 -0.933303 -0.002902
vn -0.199171 -0.979965 -0.000592
vn -0.913539 -0.406738 0.003238
vn -0.999827 -0.018158 -0.004001
vn -0.913553 -0.406705 -0.003403
vn 0.226940 -0.973909 0.000547
vn 0.062917 -0.996316 0.058276
vn -0.036455 -0.998432 -0.042478
vn -0.043143 -0.999069 -0.000339
vn -0.000123 -0.997157 -0.075353
vn 0.999836 -0.017683 0.003997
vn 0.915887 -0.401423 0.003257
vn 0.915871 -0.401460 -0.003098
vn 0.999836 -0.017723 -0.003761
vn 0.356823 -0.934168 0.002842
vn 0.227869 -0.973692 -0.000498
vn 0.356569 -0.934264 -0.002935
vn 0.385921 0.000848 0.922531
vn 0.384341 0.013576 0.923091
vn 0.001566 0.018356 0.999830
vn 0.925306 0.000688 0.379221
vn 0.999825 0.018326 0.003788
vn 0.925734 0.012822 0.377959
vn -0.923872 0.382699 0.001329
vn -0.923872 0.382699 -0.001329
vn -0.999825 0.018337 -0.003790
vn -0.382268 0.924044 0.003832
vn -0.001592 0.999991 0.003906
vn -0.001593 0.999991 -0.003906
vn -0.382267 0.924044 -0.003834
vn -0.001593 0.923941 0.382531
vn 0.001592 0.923941 0.382531
vn 0.001593 0.999991 0.003906
vn -0.000337 0.382675 0.923883
vn 0.000337 0.382675 0.923883
vn 0.382223 0.924062 0.003834
vn 0.382225 0.924061 -0.003831
vn 0.001592 0.999991 -0.003906
vn 0.923955 0.382499 0.001329
vn 0.999825 0.018324 -0.003828
vn 0.923955 0.382499 -0.001328
vn -0.925656 0.012825 -0.378149
vn -0.925225 0.000687 -0.379418
vn -0.384502 0.013574 -0.923024
vn -0.001567 0.018356 -0.999830
vn -0.001485 -0.017777 -0.999841
vn -0.386083 0.000841 -0.922464
vn -0.000337 0.382675 -0.923883
vn 0.000337 0.382675 -0.923883
vn 0.001550 0.018357 -0.999830
vn -0.001592 0.923969 -0.382464
vn 0.001593 0.923969 -0.382464
vn 0.378035 0.013344 -0.925695
vn 0.379357 0.000684 -0.925250
vn 0.001673 -0.017814 -0.999840
vn 0.923051 0.013048 -0.384457
vn 0.922511 0.000839 -0.385969
vn -0.053013 -0.996522 -0.064294
vn 0.034531 -0.998700 0.037496
vn 0.036849 -0.999321 0.000270
vn -0.000166 -0.990187 -0.139752
vn 0.000126 -0.997303 0.073398
vn -0.000560 -0.934914 -0.354875
vn 0.000590 -0.934885 -0.354950
vn 0.000210 -0.990928 -0.134397
vn -0.001335 -0.392677 -0.919676
vn 0.001485 -0.392655 -0.919684
vn 0.061138 -0.996342 -0.059699
vn -0.036249 -0.998432 0.042653
vn -0.000130 -0.997151 0.075430
vn -0.043101 -0.999071 0.000333
vn 0.998960 -0.045391 0.004260
vn 0.922019 -0.057336 0.382876
vn 0.924196 -0.029460 0.380781
vn 0.999106 -0.042052 0.004242
vn 0.381323 -0.059113 0.922550
vn 0.001708 -0.044646 0.999001
vn 0.001617 -0.042166 0.999109
vn 0.377890 -0.030394 0.925352
vn 0.365132 -0.930955 0.000906
vn 0.365122 -0.930959 -0.000856
vn 0.917817 -0.396978 0.004412
vn 0.998961 -0.045385 -0.004256
vn 0.917809 -0.396999 -0.004370
vn 0.001530 -0.397966 0.917399
vn -0.001549 -0.397926 0.917416
vn -0.001685 -0.044632 0.999002
vn 0.000637 -0.926539 0.376197
vn -0.000651 -0.926531 0.376217
vn -0.381848 -0.056182 0.922516
vn -0.378845 -0.030515 0.924957
vn -0.001619 -0.042165 0.999109
vn -0.922164 -0.058867 0.382293
vn -0.998947 -0.045685 0.004290
vn -0.999106 -0.042059 0.004235
vn -0.924623 -0.029410 0.379746
vn -0.917507 -0.397695 0.004400
vn -0.917521 -0.397662 -0.004452
vn -0.998946 -0.045690 -0.004296
vn -0.369439 -0.929255 0.000853
vn -0.369452 -0.929250 -0.000918
vn -0.922201 -0.058619 -0.382241
vn -0.924615 -0.029408 -0.379767
vn -0.999106 -0.042058 -0.004235
vn -0.381967 -0.056510 -0.922447
vn -0.001683 -0.044587 -0.999004
vn -0.001619 -0.042175 -0.999109
vn -0.378885 -0.030525 -0.924940
vn -0.001526 -0.397637 -0.917542
vn 0.001553 -0.397646 -0.917538
vn 0.001710 -0.044605 -0.999003
vn -0.000623 -0.926433 -0.376460
vn 0.000665 -0.926429 -0.376468
vn 0.381278 -0.058657 -0.922598
vn 0.377933 -0.030404 -0.925334
vn 0.001617 -0.042177 -0.999109
vn 0.921971 -0.057448 -0.382973
vn 0.999106 -0.042053 -0.004242
vn 0.924187 -0.029455 -0.380803
vn 0.923917 -0.382589 0.001495
vn 0.923917 -0.382589 -0.001495
vn 0.382257 -0.924046 0.004309
vn 0.001676 -0.999989 0.004392
vn 0.001676 -0.999989 -0.004392
vn 0.382257 -0.924046 -0.004309
vn 0.001679 -0.923973 0.382454
vn -0.001678 -0.923973 0.382454
vn -0.001676 -0.999989 0.004392
vn 0.000355 -0.382592 0.923917
vn -0.000355 -0.382592 0.923917
vn -0.382215 -0.924063 0.004311
vn -0.382216 -0.924063 -0.004311
vn -0.001676 -0.999989 -0.004392
vn -0.923958 -0.382490 0.001495
vn -0.923958 -0.382490 -0.001495
vn -0.001678 -0.923945 -0.382521
vn 0.001679 -0.923945 -0.382521
vn -0.000355 -0.382673 -0.923884
vn 0.000355 -0.382673 -0.923884
vn -0.135153 -0.963839 0.229668
vn -0.304093 -0.503932 0.808443
vn -0.304093 -0.503932 0.808443
vn -0.782302 -0.508063 0.360382
vn -0.782302 -0.508063 0.360382
vn 0.159898 -0.965672 0.204718
vn 0.800395 -0.501318 0.328708
vn 0.800395 -0.501318 0.328708
vn 0.333325 -0.510238 0.792812
vn 0.333325 -0.510238 0.792812
vn -0.325340 0.887891 0.325273
vn -0.887810 0.325502 0.325335
vn -0.325277 0.325380 0.887875
vn 0.887819 0.325427 0.325383
vn 0.325195 0.887890 0.325423
vn 0.325168 0.325436 0.887895
vn -0.325280 0.325504 -0.887829
vn -0.887782 0.325523 -0.325388
vn -0.325262 0.887891 -0.325352
vn 0.887832 0.325530 -0.325246
vn 0.325386 0.325532 -0.887780
vn 0.325384 0.887881 -0.325257
vn -0.141478 -0.964681 -0.222203
vn -0.794110 -0.501523 -0.343313
vn -0.794110 -0.501523 -0.343313
vn -0.319766 -0.512904 -0.796667
vn -0.319766 -0.512904 -0.796667
vn 0.153362 -0.965101 -0.212273
vn 0.317214 -0.502152 -0.804499
vn 0.317214 -0.502152 -0.804499
vn 0.788558 -0.508739 -0.345486
vn 0.788558 -0.508739 -0.345486
vn 0.338306 -0.493183 0.801448
vn 0.811850 -0.481227 0.330636
vn 0.217815 -0.961188 0.169335
vn -0.807733 -0.486079 0.333609
vn -0.335681 -0.486380 0.806693
vn -0.211546 -0.961210 0.176986
vn -0.335893 -0.489177 -0.804911
vn -0.809210 -0.483689 -0.333503
vn -0.212925 -0.961148 -0.175666
vn 0.810742 -0.482836 -0.331008
vn 0.338256 -0.489797 -0.803544
vn 0.216745 -0.961156 -0.170884
vn 0.325478 -0.887847 0.325256
vn 0.887813 -0.325615 0.325211
vn 0.325426 -0.325616 0.887734
vn -0.887824 -0.325570 0.325227
vn -0.325351 -0.887856 0.325358
vn -0.325301 -0.325653 0.887767
vn -0.325343 -0.325698 -0.887735
vn -0.325366 -0.887834 -0.325406
vn -0.887797 -0.325596 -0.325276
vn 0.887789 -0.325617 -0.325276
vn 0.325477 -0.887823 -0.325322
vn 0.325471 -0.325660 -0.887701
s 1
g pCube8
usemtl initialShadingGroup
f 2/1/1 1/57/2 85/113/3 84/25/4
f 1/57/2 8/47/5 86/18/6 85/113/3
s 2
f 4/2/7 3/58/8 15/68/9 14/35/10
s 1
f 3/59/11 2/1/1 16/4/12 15/67/13
s 3
f 6/3/14 5/60/15 19/71/16 18/43/17
s 2
f 5/60/18 4/2/7 20/7/19 19/71/20
s 1
f 8/47/5 7/61/21 43/89/22 42/48/23
s 3
f 7/62/24 6/3/14 44/10/25 43/88/26
s 1
f 10/5/27 9/63/28 77/109/29 76/23/30
f 9/63/28 16/4/12 78/24/31 77/109/29
s 6
f 12/6/32 11/64/33 55/98/34 54/14/35
s 1
f 11/65/36 10/5/27 56/17/37 55/97/38
s 2
f 14/35/10 13/66/39 27/76/40 26/8/41
s 6
f 13/66/42 12/6/32 28/9/43 27/76/44
s 3
f 18/43/17 17/69/45 31/80/46 30/44/47
s 8
f 17/70/48 22/36/49 32/11/50 31/79/51
f 22/36/49 21/72/52 25/75/53 24/37/54
s 2
f 21/72/55 20/7/19 26/8/41 25/75/56
s 8
f 24/37/54 23/73/57 39/86/58 38/12/59
s 6
f 23/74/60 28/9/43 40/13/61 39/85/62
s 3
f 30/44/47 29/77/63 45/91/64 44/10/25
s 9
f 29/78/65 34/38/66 46/15/67 45/90/68
f 34/38/66 33/81/69 37/84/70 36/39/71
s 8
f 33/81/72 32/11/50 38/12/59 37/84/73
s 9
f 36/39/71 35/82/74 53/96/75 52/16/76
s 6
f 35/83/77 40/13/61 54/14/35 53/95/78
s 1
f 42/48/23 41/87/79 61/101/80 60/49/81
f 41/87/79 48/45/82 62/20/83 61/101/80
f 48/45/82 47/92/84 51/94/85 50/46/86
s 9
f 47/92/87 46/15/67 52/16/76 51/94/88
s 1
f 50/46/86 49/93/89 69/105/90 68/21/91
f 49/93/89 56/17/37 70/22/92 69/105/90
s 11
f 58/19/93 57/99/94 91/116/95 90/56/96
s 12
f 57/99/97 64/50/98 92/28/99 91/116/100
s 1
f 60/49/81 59/100/101 87/114/102 86/18/6
s 11
f 59/100/103 58/19/93 88/26/104 87/114/105
s 12
f 64/50/98 63/102/106 67/104/107 66/51/108
s 1
f 63/102/109 62/20/83 68/21/91 67/104/110
s 12
f 66/51/108 65/103/111 99/120/112 98/29/113
s 13
f 65/103/114 72/52/115 100/30/116 99/120/117
f 72/52/115 71/106/118 75/108/119 74/53/120
s 1
f 71/106/121 70/22/92 76/23/30 75/108/122
s 13
f 74/53/120 73/107/123 105/123/124 104/31/125
s 14
f 73/107/126 80/54/127 106/33/128 105/123/129
f 80/54/127 79/110/130 83/112/131 82/55/132
s 1
f 79/110/133 78/24/31 84/25/4 83/112/134
s 14
f 82/55/132 81/111/135 111/126/136 110/34/137
s 11
f 81/111/138 88/26/104 112/27/139 111/126/140
f 90/56/96 89/115/141 107/124/142 112/27/139
s 15
f 89/115/143 94/40/144 108/32/145 107/124/146
f 94/40/144 93/117/147 97/119/148 96/41/149
s 12
f 93/117/150 92/28/99 98/29/113 97/119/151
s 15
f 96/41/149 95/118/152 103/122/153 102/42/154
s 13
f 95/118/155 100/30/116 104/31/125 103/122/156
s 15
f 102/42/154 101/121/157 109/125/158 108/32/145
s 14
f 101/121/159 106/33/128 110/34/137 109/125/160
s 2
f 4/2/7 14/35/10 26/8/41 20/7/19
s 8
f 22/36/49 24/37/54 38/12/59 32/11/50
s 9
f 34/38/66 36/39/71 52/16/76 46/15/67
s 15
f 94/40/144 96/41/149 102/42/154 108/32/145
s 6
f 12/6/32 54/14/35 40/13/61 28/9/43
s 3
f 44/10/25 6/3/14 18/43/17 30/44/47
s 1
f 48/45/82 50/46/86 68/21/91 62/20/83
f 56/17/37 10/5/27 76/23/30 70/22/92
f 16/4/12 2/1/1 84/25/4 78/24/31
f 8/47/5 42/48/23 60/49/81 86/18/6
s 12
f 64/50/98 66/51/108 98/29/113 92/28/99
s 13
f 72/52/115 74/53/120 104/31/125 100/30/116
s 14
f 80/54/127 82/55/132 110/34/137 106/33/128
s 11
f 88/26/104 58/19/93 90/56/96 112/27/139
s 1
f 7/61/21 8/47/5 1/57/2 113/128/161
f 1/57/2 2/1/1 3/59/11 113/128/161
s 2
f 3/58/8 4/2/7 5/60/162 113/127/163
s 3
f 5/60/164 6/3/14 7/62/24 113/127/165
s 1
f 15/67/13 16/4/12 9/63/28 114/130/166
f 9/63/28 10/5/27 11/65/36 114/130/166
s 6
f 11/64/33 12/6/32 13/66/167 114/129/168
s 2
f 13/66/169 14/35/10 15/68/9 114/129/170
s 8
f 21/72/52 22/36/49 17/70/48 115/131/171
s 3
f 17/69/45 18/43/17 19/71/16 115/131/172
s 2
f 19/71/20 20/7/19 21/72/55 115/131/173
s 6
f 27/76/44 28/9/43 23/74/60 116/132/174
s 8
f 23/73/57 24/37/54 25/75/53 116/132/175
s 2
f 25/75/56 26/8/41 27/76/40 116/132/176
s 9
f 33/81/69 34/38/66 29/78/65 117/134/177
s 3
f 29/77/63 30/44/47 31/80/46 117/133/178
s 8
f 31/79/51 32/11/50 33/81/72 117/134/179
s 6
f 39/85/62 40/13/61 35/83/77 118/136/180
s 9
f 35/82/74 36/39/71 37/84/70 118/135/181
s 8
f 37/84/73 38/12/59 39/86/58 118/135/182
s 1
f 47/92/84 48/45/82 41/87/79 119/138/183
f 41/87/79 42/48/23 43/89/22 119/138/183
s 3
f 43/88/26 44/10/25 45/91/184 119/137/185
s 9
f 45/90/186 46/15/67 47/92/87 119/138/187
s 1
f 55/97/38 56/17/37 49/93/89 120/139/188
f 49/93/89 50/46/86 51/94/85 120/139/188
s 9
f 51/94/88 52/16/76 53/96/189 120/139/190
s 6
f 53/95/191 54/14/35 55/98/34 120/140/192
s 12
f 63/102/106 64/50/98 57/99/97 121/141/193
s 11
f 57/99/94 58/19/93 59/100/103 121/141/194
s 1
f 59/100/101 60/49/81 61/101/80 121/141/195
f 61/101/80 62/20/83 63/102/109 121/141/195
s 13
f 71/106/118 72/52/115 65/103/114 122/142/196
s 12
f 65/103/111 66/51/108 67/104/107 122/142/197
s 1
f 67/104/110 68/21/91 69/105/90 122/142/198
f 69/105/90 70/22/92 71/106/121 122/142/198
s 14
f 79/110/130 80/54/127 73/107/126 123/143/199
s 13
f 73/107/123 74/53/120 75/108/119 123/143/200
s 1
f 75/108/122 76/23/30 77/109/29 123/143/201
f 77/109/29 78/24/31 79/110/133 123/143/201
s 11
f 87/114/105 88/26/104 81/111/138 124/144/202
s 14
f 81/111/135 82/55/132 83/112/131 124/144/203
s 1
f 83/112/134 84/25/4 85/113/3 124/144/204
f 85/113/3 86/18/6 87/114/102 124/144/204
s 15
f 93/117/147 94/40/144 89/115/143 125/145/205
s 11
f 89/115/141 90/56/96 91/116/95 125/145/206
s 12
f 91/116/100 92/28/99 93/117/150 125/145/207
s 13
f 99/120/117 100/30/116 95/118/155 126/146/208
s 15
f 95/118/152 96/41/149 97/119/148 126/146/209
s 12
f 97/119/151 98/29/113 99/120/112 126/146/210
s 14
f 105/123/129 106/33/128 101/121/159 127/147/211
s 15
f 101/121/157 102/42/154 103/122/153 127/147/212
s 13
f 103/122/156 104/31/125 105/123/124 127/147/213
s 11
f 111/126/140 112/27/139 107/124/142 128/148/214
s 15
f 107/124/146 108/32/145 109/125/158 128/148/215
s 14
f 109/125/160 110/34/137 111/126/136 128/148/216
