# This file uses centimeters as units for non-parametric coordinates.

mtllib 相框.mtl
g default
v -0.553801 -0.035890 0.716049
v -0.538879 -0.042072 0.716113
v -0.538807 -0.035890 0.731036
v -0.538879 -0.020969 0.737216
v -0.553800 -0.020969 0.731035
v -0.559981 -0.020969 0.716113
v 0.553801 -0.035890 0.716018
v 0.559981 -0.020969 0.716113
v 0.553800 -0.020969 0.731035
v 0.538879 -0.020969 0.737216
v 0.538857 -0.035891 0.731035
v 0.538879 -0.042072 0.716113
v -0.530951 0.033943 0.702749
v -0.534768 0.032495 0.679093
v -0.552440 0.031454 0.704787
v -0.559981 0.016479 0.716663
v -0.553997 0.017241 0.731206
v -0.539516 0.017999 0.737216
v -0.534144 0.032399 0.729555
v -0.521616 0.034952 0.712539
v 0.530951 0.033943 0.702749
v 0.521616 0.034952 0.712539
v 0.533808 0.032227 0.729523
v 0.539064 0.017468 0.737216
v 0.553856 0.017144 0.731280
v 0.559981 0.016827 0.716942
v 0.552443 0.031565 0.704996
v 0.534768 0.032495 0.679093
v -0.530951 0.033943 -0.702749
v -0.521616 0.034952 -0.712539
v -0.533808 0.032227 -0.729523
v -0.539064 0.017468 -0.737216
v -0.553856 0.017144 -0.731280
v -0.559981 0.016827 -0.716942
v -0.552443 0.031565 -0.704996
v -0.534768 0.032495 -0.679093
v 0.530951 0.033943 -0.702749
v 0.534768 0.032495 -0.679093
v 0.552440 0.031454 -0.704787
v 0.559981 0.016479 -0.716663
v 0.553997 0.017241 -0.731206
v 0.539516 0.017999 -0.737216
v 0.534132 0.032404 -0.729563
v 0.521616 0.034952 -0.712539
v -0.553801 -0.035890 -0.716018
v -0.559981 -0.020969 -0.716113
v -0.553800 -0.020969 -0.731035
v -0.538879 -0.020969 -0.737216
v -0.538857 -0.035891 -0.731035
v -0.538879 -0.042072 -0.716113
v 0.553801 -0.035890 -0.716049
v 0.538879 -0.042072 -0.716113
v 0.538807 -0.035890 -0.731036
v 0.538879 -0.020969 -0.737216
v 0.553800 -0.020969 -0.731035
v 0.559981 -0.020969 -0.716113
v -0.480348 0.012901 0.616082
v -0.491890 0.016208 0.623516
v -0.485461 0.015648 0.637738
v -0.469924 0.015067 0.643619
v -0.463818 0.012214 0.630142
v -0.462536 0.010821 0.613731
v 0.480348 0.012901 0.616082
v 0.462536 0.010821 0.613731
v 0.463914 0.012167 0.629956
v 0.470049 0.014999 0.643382
v 0.485499 0.015615 0.637568
v 0.491890 0.016208 0.623516
v 0.463972 0.012176 -0.630019
v 0.462637 0.010821 -0.613832
v 0.480410 0.012911 -0.616153
v 0.491890 0.016208 -0.623516
v 0.485499 0.015615 -0.637570
v 0.470049 0.014999 -0.643382
v -0.480347 0.012901 -0.616081
v -0.462536 0.010821 -0.613731
v -0.463915 0.012167 -0.629957
v -0.470049 0.014999 -0.643382
v -0.485499 0.015615 -0.637570
v -0.491890 0.016208 -0.623516
v -0.551029 -0.033150 0.728268
v 0.551050 -0.033149 0.728256
v -0.546829 0.031975 0.722477
v 0.546726 0.031938 0.722523
v -0.546726 0.031938 -0.722522
v 0.546824 0.031977 -0.722483
v -0.551050 -0.033149 -0.728256
v 0.551029 -0.033150 -0.728268
v -0.478096 0.013240 0.628742
v 0.478136 0.013212 0.628594
v 0.478180 0.013222 -0.628648
v -0.478135 0.013212 -0.628595
vt 0.379711 0.996422
vt 0.379711 0.062698
vt 0.620289 0.996422
vt 0.628578 0.062698
vt 0.375000 0.254955
vt 0.379568 0.178479
vt 0.620331 0.176901
vt 0.628438 0.174994
vt 0.375000 0.495773
vt 0.380134 0.500000
vt 0.128578 0.062698
vt 0.379669 0.573099
vt 0.620620 0.500000
vt 0.871515 0.173960
vt 0.871422 0.062698
vt 0.620289 0.753578
vt 0.379711 0.687302
vt 0.620289 0.687302
vt 0.375000 0.495921
vt 0.379233 0.250000
vt 0.620118 0.250000
vt 0.625000 0.254079
vt 0.625000 0.495218
vt 0.661924 0.602666
vt 0.620835 0.500000
vt 0.379882 0.500000
vt 0.620289 0.062698
vt 0.378970 0.253015
vt 0.621030 0.253015
vt 0.621057 0.497005
vt 0.620432 0.571521
vt 0.379711 0.753578
vt 0.371422 0.062698
vt 0.371515 0.173960
vt 0.128438 0.174994
vt 0.379380 0.250000
vt 0.619866 0.250000
vt 0.625000 0.254227
vt 0.625000 0.495045
vt 0.375000 0.254782
vt 0.375000 0.991889
vt 0.366889 0.000000
vt 0.383341 0.000000
vt 0.383341 1.000000
vt 0.375169 0.062659
vt 0.633111 0.000000
vt 0.625000 0.991889
vt 0.624831 0.062660
vt 0.616658 1.000000
vt 0.616658 0.000000
vt 0.377538 0.251847
vt 0.371343 0.250000
vt 0.375000 0.253657
vt 0.375175 0.176298
vt 0.377506 0.242829
vt 0.622023 0.251576
vt 0.621981 0.242442
vt 0.624810 0.175974
vt 0.625000 0.253473
vt 0.628473 0.250000
vt 0.377977 0.498424
vt 0.378019 0.507558
vt 0.125000 0.193127
vt 0.375000 0.556873
vt 0.375000 0.496527
vt 0.128473 0.250000
vt 0.622462 0.498152
vt 0.871339 0.250000
vt 0.625000 0.496339
vt 0.625000 0.556618
vt 0.875000 0.193382
vt 0.622492 0.507162
vt 0.133111 0.000000
vt 0.375000 0.758111
vt 0.375000 0.703219
vt 0.125000 0.046781
vt 0.378932 0.747238
vt 0.625000 0.758111
vt 0.866889 0.000000
vt 0.621059 0.747226
vt 0.875000 0.046754
vt 0.625000 0.703246
vt 0.377015 0.253897
vt 0.376920 0.252507
vt 0.379395 0.251847
vt 0.622991 0.253638
vt 0.620415 0.251863
vt 0.622784 0.252134
vt 0.620660 0.498153
vt 0.623009 0.496119
vt 0.623110 0.497498
vt 0.377009 0.496362
vt 0.379586 0.498137
vt 0.377216 0.497866
vt 0.375000 1.000000
vt 0.375000 0.000000
vt 0.625000 0.000000
vt 0.625000 1.000000
vt 0.375000 0.250000
vt 0.625000 0.250000
vt 0.375000 0.500000
vt 0.125000 0.250000
vt 0.875000 0.250000
vt 0.625000 0.500000
vt 0.125000 0.000000
vt 0.375000 0.750000
vt 0.625000 0.750000
vt 0.875000 0.000000
vt 0.375000 0.250000
vt 0.625000 0.250000
vt 0.625000 0.500000
vt 0.375000 0.500000
vt 0.378970 0.496985
vt 0.904011 0.602687
vt 0.903985 0.358697
vt 0.661924 0.358697
vn -0.005603 -0.999975 0.004217
vn -0.382154 -0.924085 0.005053
vn -0.382165 -0.924080 -0.005035
vn -0.005602 -0.999975 -0.004219
vn -0.923909 -0.382612 0.000495
vn -0.993183 -0.116500 0.003869
vn -0.993186 -0.116477 -0.003910
vn -0.923909 -0.382612 -0.000494
vn -0.005112 -0.114117 0.993454
vn -0.000809 -0.382587 0.923919
vn 0.000809 -0.382586 0.923920
vn 0.005061 -0.114149 0.993451
vn -0.006629 -0.924154 0.381963
vn 0.005602 -0.999975 0.004219
vn 0.006648 -0.924161 0.381944
vn -0.924297 -0.088301 0.371320
vn -0.924250 -0.006038 0.381740
vn -0.990473 0.137618 0.004975
vn -0.372339 -0.086889 0.924020
vn -0.004869 0.143259 0.989673
vn -0.382844 -0.006184 0.923792
vn 0.993186 -0.116477 0.003910
vn 0.923909 -0.382612 0.000494
vn 0.923909 -0.382612 -0.000495
vn 0.993183 -0.116500 -0.003869
vn 0.382165 -0.924080 0.005035
vn 0.005603 -0.999975 -0.004217
vn 0.382154 -0.924085 -0.005053
vn 0.368513 -0.085235 0.925707
vn 0.377552 -0.004152 0.925979
vn 0.005312 0.140924 0.990006
vn 0.922540 -0.088419 0.375637
vn 0.990238 0.139313 0.004599
vn 0.921755 -0.006164 0.387724
vn 0.192903 0.981216 -0.002026
vn 0.075260 0.988917 -0.127978
vn 0.160929 0.974491 -0.156428
vn 0.339960 0.940438 -0.001786
vn 0.000639 0.985754 -0.168190
vn 0.001208 0.963549 -0.267530
vn -0.890646 0.454678 0.004230
vn -0.890639 0.454693 -0.004022
vn -0.990238 0.139313 -0.004599
vn -0.057842 0.998326 -0.000704
vn 0.191970 0.981399 0.002017
vn -0.057802 0.998328 0.000736
vn -0.002815 0.988638 0.150287
vn 0.002741 0.988575 0.150708
vn -0.000606 0.985559 -0.169329
vn -0.003938 0.467507 0.883980
vn 0.004583 0.467565 0.883947
vn -0.076722 0.989033 -0.126206
vn -0.160892 0.974466 -0.156620
vn -0.001195 0.963551 -0.267522
vn -0.191970 0.981399 -0.002017
vn -0.340044 0.940408 -0.001790
vn 0.057802 0.998328 -0.000736
vn 0.057841 0.998326 0.000705
vn -0.192916 0.981213 0.002008
vn 0.890639 0.454693 0.004022
vn 0.990473 0.137618 -0.004975
vn 0.890644 0.454681 -0.004235
vn 0.000604 0.985531 0.169496
vn 0.076721 0.989033 0.126205
vn 0.160896 0.974466 0.156618
vn 0.001195 0.963542 0.267554
vn 0.339966 0.940436 0.001789
vn -0.005313 0.140850 -0.990017
vn -0.004587 0.467330 -0.884071
vn 0.003929 0.467268 -0.884107
vn 0.004869 0.143181 -0.989685
vn -0.002743 0.988598 -0.150554
vn -0.000642 0.985716 0.168413
vn 0.002814 0.988663 -0.150128
vn -0.921755 -0.006164 -0.387724
vn -0.922540 -0.088418 -0.375637
vn -0.377552 -0.004152 -0.925979
vn -0.005061 -0.114149 -0.993451
vn -0.368513 -0.085235 -0.925707
vn -0.075785 0.988925 0.127610
vn -0.160916 0.974450 0.156696
vn -0.340039 0.940410 0.001789
vn -0.001193 0.963543 0.267551
vn 0.382844 -0.006184 -0.923792
vn 0.372339 -0.086889 -0.924020
vn 0.005112 -0.114117 -0.993454
vn 0.924250 -0.006039 -0.381740
vn 0.924297 -0.088302 -0.371320
vn -0.006648 -0.924161 -0.381944
vn 0.006629 -0.924154 -0.381963
vn -0.000809 -0.382586 -0.923920
vn 0.000809 -0.382587 -0.923919
vn 0.184618 0.982810 -0.000672
vn 0.184645 0.982805 0.000641
vn 0.002263 0.999997 -0.001125
vn 0.002262 0.999997 0.001114
vn 0.001371 0.989642 -0.143554
vn -0.001337 0.989630 -0.143632
vn -0.002268 0.999997 -0.001129
vn -0.184930 0.982752 -0.000645
vn -0.184912 0.982755 0.000642
vn -0.002267 0.999997 0.001112
vn -0.001359 0.989680 0.143290
vn 0.001362 0.989674 0.143331
vn -0.887135 -0.327031 0.325641
vn -0.325709 -0.887536 0.325873
vn -0.325501 -0.327044 0.887182
vn 0.326547 -0.887595 0.324874
vn 0.887473 -0.326905 0.324846
vn 0.326171 -0.326628 0.887089
vn -0.111811 0.993729 -0.000984
vn -0.782180 0.566750 0.258824
vn -0.782180 0.566750 0.258824
vn -0.376096 0.571971 0.728972
vn -0.376096 0.571971 0.728972
vn 0.107405 0.994202 0.005208
vn 0.359445 0.564343 0.743179
vn 0.359445 0.564343 0.743179
vn 0.770903 0.574991 0.274034
vn 0.770903 0.574990 0.274034
vn -0.107405 0.994202 -0.005208
vn -0.359448 0.564345 -0.743177
vn -0.359448 0.564345 -0.743177
vn -0.770904 0.574989 -0.274034
vn -0.770904 0.574989 -0.274034
vn 0.111812 0.993729 0.001065
vn 0.782130 0.566803 -0.258856
vn 0.782130 0.566803 -0.258856
vn 0.376152 0.571819 -0.729063
vn 0.376152 0.571819 -0.729063
vn -0.326547 -0.887595 -0.324874
vn -0.887473 -0.326905 -0.324846
vn -0.326171 -0.326628 -0.887089
vn 0.887135 -0.327031 -0.325641
vn 0.325709 -0.887536 -0.325873
vn 0.325501 -0.327044 -0.887182
vn 0.136901 0.984506 -0.109573
vn -0.137472 0.984595 -0.108044
vn -0.137802 0.984504 0.108457
vn 0.137484 0.984593 0.108047
s 1
g pCube1
usemtl initialShadingGroup
f 2/1/1 1/41/2 45/74/3 50/32/4
s 2
f 1/42/5 6/33/6 46/11/7 45/73/8
s 3
f 4/2/9 3/43/10 11/50/11 10/27/12
s 1
f 3/44/13 2/1/1 12/3/14 11/49/15
s 2
f 6/33/6 5/45/16 17/54/17 16/34/18
s 3
f 5/45/19 4/2/9 18/6/20 17/54/21
s 4
f 8/4/22 7/46/23 51/79/24 56/15/25
s 1
f 7/47/26 12/3/14 52/16/27 51/78/28
s 3
f 10/27/12 9/48/29 25/58/30 24/7/31
s 4
f 9/48/32 8/4/22 26/8/33 25/58/34
s 5
f 14/5/35 13/51/36 59/84/37 58/40/38
f 13/51/36 20/36/39 60/20/40 59/84/37
s 2
f 16/34/18 15/52/41 35/66/42 34/35/43
s 5
f 15/53/44 14/5/35 36/9/45 35/65/46
f 20/36/39 19/55/47 23/57/48 22/37/49
s 3
f 19/55/50 18/6/20 24/7/31 23/57/51
s 5
f 22/37/49 21/56/52 67/88/53 66/21/54
f 21/56/52 28/38/55 68/22/56 67/88/53
f 28/38/55 27/59/57 39/69/58 38/39/59
s 4
f 27/60/60 26/8/33 40/14/61 39/68/62
s 5
f 30/10/63 29/61/64 79/94/65 78/26/66
f 29/61/64 36/9/45 80/19/67 79/94/65
s 10
f 32/12/68 31/62/69 43/72/70 42/31/71
s 5
f 31/62/72 30/10/63 44/13/73 43/72/74
s 2
f 34/35/43 33/63/75 47/76/76 46/11/7
s 10
f 33/64/77 32/12/68 48/17/78 47/75/79
s 5
f 38/39/59 37/67/80 73/91/81 72/23/82
f 37/67/80 44/13/73 74/25/83 73/91/81
s 10
f 42/31/71 41/70/84 55/82/85 54/18/86
s 4
f 41/71/87 40/14/61 56/15/25 55/81/88
s 1
f 50/32/4 49/77/89 53/80/90 52/16/27
s 10
f 49/77/91 48/17/78 54/18/86 53/80/92
s 5
f 58/40/38 57/83/93 75/92/94 80/19/67
f 57/83/93 62/28/95 76/113/96 75/92/94
f 62/28/95 61/85/97 65/87/98 64/29/99
f 61/85/97 60/20/40 66/21/54 65/87/98
f 64/29/99 63/86/100 71/90/101 70/30/102
f 63/86/100 68/22/56 72/23/82 71/90/101
f 70/30/102 69/89/103 77/93/104 76/113/96
f 69/89/103 74/25/83 78/26/66 77/93/104
s 3
f 4/2/9 10/27/12 24/7/31 18/6/20
s 5
f 62/116/95 64/115/99 70/114/102 76/24/96
s 10
f 32/12/68 42/31/71 54/18/86 48/17/78
s 1
f 50/32/4 52/16/27 12/3/14 2/1/1
s 4
f 8/4/22 56/15/25 40/14/61 26/8/33
s 2
f 46/11/7 6/33/6 16/34/18 34/35/43
s 5
f 20/36/39 22/37/49 66/21/54 60/20/40
f 28/38/55 38/39/59 72/23/82 68/22/56
f 44/13/73 30/10/63 78/26/66 74/25/83
f 36/9/45 14/5/35 58/40/38 80/19/67
s 2
f 5/45/16 6/33/6 1/42/5 81/96/105
s 1
f 1/41/2 2/1/1 3/44/13 81/95/106
s 3
f 3/43/10 4/2/9 5/45/19 81/96/107
s 1
f 11/49/15 12/3/14 7/47/26 82/98/108
s 4
f 7/46/23 8/4/22 9/48/32 82/97/109
s 3
f 9/48/29 10/27/12 11/50/11 82/97/110
s 5
f 19/55/47 20/36/39 13/51/36 83/99/111
f 13/51/36 14/5/35 15/53/44 83/99/111
s 2
f 15/52/41 16/34/18 17/54/112 83/99/113
s 3
f 17/54/114 18/6/20 19/55/50 83/99/115
s 5
f 27/59/57 28/38/55 21/56/52 84/100/116
f 21/56/52 22/37/49 23/57/48 84/100/116
s 3
f 23/57/51 24/7/31 25/58/117 84/100/118
s 4
f 25/58/119 26/8/33 27/60/60 84/100/120
s 5
f 35/65/46 36/9/45 29/61/64 85/101/121
f 29/61/64 30/10/63 31/62/72 85/101/121
s 10
f 31/62/69 32/12/68 33/64/122 85/101/123
s 2
f 33/63/124 34/35/43 35/66/42 85/102/125
s 5
f 43/72/74 44/13/73 37/67/80 86/104/126
f 37/67/80 38/39/59 39/69/58 86/104/126
s 4
f 39/68/62 40/14/61 41/71/127 86/103/128
s 10
f 41/70/129 42/31/71 43/72/70 86/104/130
s 1
f 49/77/89 50/32/4 45/74/3 87/106/131
s 2
f 45/73/8 46/11/7 47/76/76 87/105/132
s 10
f 47/75/79 48/17/78 49/77/91 87/106/133
s 4
f 55/81/88 56/15/25 51/79/24 88/108/134
s 1
f 51/78/28 52/16/27 53/80/90 88/107/135
s 10
f 53/80/92 54/18/86 55/82/85 88/107/136
s 5
f 61/85/97 62/28/95 57/83/93 89/109/137
f 57/83/93 58/40/38 59/84/37 89/109/137
f 59/84/37 60/20/40 61/85/97 89/109/137
f 67/88/53 68/22/56 63/86/100 90/110/138
f 63/86/100 64/29/99 65/87/98 90/110/138
f 65/87/98 66/21/54 67/88/53 90/110/138
f 73/91/81 74/25/83 69/89/103 91/111/139
f 69/89/103 70/30/102 71/90/101 91/111/139
f 71/90/101 72/23/82 73/91/81 91/111/139
f 79/94/65 80/19/67 75/92/94 92/112/140
f 75/92/94 76/113/96 77/93/104 92/112/140
f 77/93/104 78/26/66 79/94/65 92/112/140
