# This file uses centimeters as units for non-parametric coordinates.

mtllib 输液管.mtl
g default
v 4.731865 0.895520 0.021187
v 4.731776 0.895520 0.020970
v 4.732001 0.895617 0.020897
v 4.732094 0.895850 0.020867
v 4.732183 0.895850 0.021083
v 4.732238 0.895850 0.021311
v 4.732145 0.895617 0.021342
v 4.731919 0.895520 0.021415
v 4.731390 0.895520 0.020254
v 4.731237 0.895520 0.020076
v 4.731429 0.895617 0.019936
v 4.731509 0.895850 0.019879
v 4.731661 0.895850 0.020057
v 4.731783 0.895850 0.020256
v 4.731704 0.895617 0.020315
v 4.731512 0.895520 0.020454
v 4.730648 0.895520 0.019514
v 4.730449 0.895520 0.019391
v 4.730588 0.895617 0.019199
v 4.730646 0.895850 0.019120
v 4.730846 0.895850 0.019243
v 4.731024 0.895850 0.019394
v 4.730966 0.895617 0.019474
v 4.730827 0.895520 0.019666
v 4.729716 0.895520 0.019038
v 4.729487 0.895520 0.018983
v 4.729561 0.895617 0.018758
v 4.729592 0.895850 0.018665
v 4.729820 0.895850 0.018719
v 4.730035 0.895850 0.018809
v 4.730006 0.895617 0.018902
v 4.729933 0.895520 0.019128
v 4.728681 0.895520 0.018874
v 4.728447 0.895520 0.018893
v 4.728448 0.895617 0.018656
v 4.728448 0.895850 0.018558
v 4.728681 0.895850 0.018539
v 4.728915 0.895850 0.018558
v 4.728916 0.895617 0.018656
v 4.728916 0.895520 0.018893
v 4.727647 0.895520 0.019038
v 4.727431 0.895520 0.019128
v 4.727357 0.895617 0.018903
v 4.727328 0.895850 0.018809
v 4.727544 0.895850 0.018719
v 4.727771 0.895850 0.018665
v 4.727802 0.895617 0.018758
v 4.727876 0.895520 0.018983
v 4.726715 0.895520 0.019514
v 4.726536 0.895520 0.019666
v 4.726396 0.895617 0.019474
v 4.726340 0.895850 0.019394
v 4.726518 0.895850 0.019242
v 4.726717 0.895850 0.019120
v 4.726775 0.895617 0.019199
v 4.726915 0.895520 0.019391
v 4.725974 0.895520 0.020254
v 4.725852 0.895520 0.020454
v 4.725659 0.895617 0.020315
v 4.725580 0.895850 0.020257
v 4.725702 0.895850 0.020057
v 4.725854 0.895850 0.019879
v 4.725934 0.895617 0.019937
v 4.726127 0.895520 0.020076
v 4.725499 0.895520 0.021187
v 4.725444 0.895520 0.021415
v 4.725218 0.895617 0.021342
v 4.725125 0.895850 0.021311
v 4.725180 0.895850 0.021084
v 4.725269 0.895850 0.020867
v 4.725363 0.895617 0.020897
v 4.725588 0.895520 0.020970
v 4.725335 0.895520 0.022221
v 4.725354 0.895520 0.022455
v 4.725116 0.895617 0.022455
v 4.725019 0.895850 0.022455
v 4.725000 0.895850 0.022221
v 4.725018 0.895850 0.021988
v 4.725116 0.895617 0.021988
v 4.725354 0.895520 0.021987
v 4.725499 0.895520 0.023256
v 4.725588 0.895520 0.023473
v 4.725363 0.895617 0.023545
v 4.725269 0.895850 0.023575
v 4.725180 0.895850 0.023359
v 4.725125 0.895850 0.023132
v 4.725219 0.895617 0.023101
v 4.725444 0.895520 0.023027
v 4.725974 0.895520 0.024189
v 4.726127 0.895520 0.024367
v 4.725934 0.895617 0.024506
v 4.725854 0.895850 0.024564
v 4.725702 0.895850 0.024386
v 4.725580 0.895850 0.024186
v 4.725659 0.895617 0.024128
v 4.725852 0.895520 0.023988
v 4.726715 0.895520 0.024929
v 4.726915 0.895520 0.025052
v 4.726775 0.895617 0.025243
v 4.726718 0.895850 0.025323
v 4.726517 0.895850 0.025200
v 4.726340 0.895850 0.025048
v 4.726396 0.895617 0.024969
v 4.726536 0.895520 0.024777
v 4.727647 0.895520 0.025404
v 4.727876 0.895520 0.025459
v 4.727802 0.895617 0.025685
v 4.727771 0.895850 0.025778
v 4.727544 0.895850 0.025723
v 4.727328 0.895850 0.025634
v 4.727357 0.895617 0.025540
v 4.727431 0.895520 0.025315
v 4.728681 0.895520 0.025568
v 4.728916 0.895520 0.025550
v 4.728916 0.895617 0.025787
v 4.728915 0.895850 0.025885
v 4.728681 0.895850 0.025904
v 4.728448 0.895850 0.025885
v 4.728448 0.895617 0.025787
v 4.728447 0.895520 0.025550
v 4.729716 0.895520 0.025404
v 4.729933 0.895520 0.025315
v 4.730006 0.895617 0.025540
v 4.730035 0.895850 0.025634
v 4.729819 0.895850 0.025723
v 4.729592 0.895850 0.025778
v 4.729561 0.895617 0.025685
v 4.729487 0.895520 0.025459
v 4.730648 0.895520 0.024929
v 4.730827 0.895520 0.024777
v 4.730966 0.895617 0.024969
v 4.731024 0.895850 0.025048
v 4.730845 0.895850 0.025200
v 4.730647 0.895850 0.025322
v 4.730588 0.895617 0.025243
v 4.730449 0.895520 0.025052
v 4.731390 0.895520 0.024189
v 4.731512 0.895520 0.023988
v 4.731704 0.895617 0.024128
v 4.731783 0.895850 0.024186
v 4.731661 0.895850 0.024386
v 4.731509 0.895850 0.024564
v 4.731429 0.895617 0.024506
v 4.731237 0.895520 0.024367
v 4.731865 0.895520 0.023256
v 4.731919 0.895520 0.023027
v 4.732145 0.895617 0.023101
v 4.732239 0.895850 0.023132
v 4.732183 0.895850 0.023359
v 4.732094 0.895850 0.023575
v 4.732001 0.895617 0.023545
v 4.731776 0.895520 0.023473
v 4.732028 0.895520 0.022221
v 4.732010 0.895520 0.021987
v 4.732248 0.895617 0.021988
v 4.732345 0.895850 0.021988
v 4.732364 0.895850 0.022222
v 4.732346 0.895850 0.022454
v 4.732248 0.895617 0.022455
v 4.732010 0.895520 0.022455
v 4.731865 1.982341 0.021187
v 4.731919 1.982341 0.021415
v 4.732145 1.982244 0.021342
v 4.732239 1.982011 0.021311
v 4.732183 1.982011 0.021084
v 4.732094 1.982012 0.020867
v 4.732001 1.982245 0.020897
v 4.731776 1.982341 0.020970
v 4.731390 1.982341 0.020254
v 4.731512 1.982341 0.020454
v 4.731704 1.982244 0.020315
v 4.731783 1.982011 0.020257
v 4.731661 1.982011 0.020057
v 4.731509 1.982012 0.019879
v 4.731429 1.982245 0.019937
v 4.731237 1.982341 0.020076
v 4.730648 1.982341 0.019514
v 4.730827 1.982341 0.019666
v 4.730966 1.982244 0.019474
v 4.731024 1.982011 0.019394
v 4.730845 1.982011 0.019242
v 4.730647 1.982012 0.019120
v 4.730588 1.982245 0.019199
v 4.730449 1.982341 0.019391
v 4.729716 1.982341 0.019038
v 4.729933 1.982341 0.019128
v 4.730006 1.982244 0.018903
v 4.730035 1.982011 0.018809
v 4.729819 1.982011 0.018719
v 4.729592 1.982012 0.018665
v 4.729561 1.982245 0.018758
v 4.729487 1.982341 0.018983
v 4.728681 1.982341 0.018874
v 4.728916 1.982341 0.018893
v 4.728916 1.982244 0.018656
v 4.728915 1.982011 0.018558
v 4.728681 1.982011 0.018539
v 4.728448 1.982012 0.018558
v 4.728448 1.982245 0.018656
v 4.728447 1.982341 0.018893
v 4.727647 1.982341 0.019038
v 4.727876 1.982341 0.018983
v 4.727802 1.982244 0.018758
v 4.727771 1.982011 0.018665
v 4.727544 1.982011 0.018719
v 4.727328 1.982012 0.018809
v 4.727357 1.982245 0.018902
v 4.727431 1.982341 0.019128
v 4.726715 1.982341 0.019514
v 4.726915 1.982341 0.019391
v 4.726775 1.982244 0.019199
v 4.726718 1.982011 0.019120
v 4.726517 1.982011 0.019243
v 4.726340 1.982012 0.019394
v 4.726396 1.982245 0.019474
v 4.726536 1.982341 0.019666
v 4.725974 1.982341 0.020254
v 4.726127 1.982341 0.020076
v 4.725934 1.982244 0.019936
v 4.725854 1.982011 0.019879
v 4.725702 1.982011 0.020057
v 4.725580 1.982012 0.020256
v 4.725659 1.982245 0.020315
v 4.725852 1.982341 0.020454
v 4.725499 1.982341 0.021187
v 4.725588 1.982341 0.020970
v 4.725363 1.982244 0.020897
v 4.725269 1.982011 0.020867
v 4.725180 1.982011 0.021083
v 4.725125 1.982012 0.021311
v 4.725219 1.982245 0.021342
v 4.725444 1.982341 0.021415
v 4.725335 1.982341 0.022221
v 4.725354 1.982341 0.021987
v 4.725116 1.982244 0.021988
v 4.725019 1.982011 0.021988
v 4.725000 1.982011 0.022222
v 4.725018 1.982012 0.022454
v 4.725116 1.982245 0.022455
v 4.725354 1.982341 0.022455
v 4.725499 1.982341 0.023256
v 4.725444 1.982341 0.023027
v 4.725218 1.982244 0.023101
v 4.725125 1.982011 0.023132
v 4.725180 1.982011 0.023359
v 4.725269 1.982012 0.023575
v 4.725363 1.982245 0.023545
v 4.725588 1.982341 0.023473
v 4.725974 1.982341 0.024189
v 4.725852 1.982341 0.023988
v 4.725659 1.982244 0.024128
v 4.725580 1.982011 0.024186
v 4.725702 1.982011 0.024386
v 4.725854 1.982012 0.024564
v 4.725934 1.982245 0.024506
v 4.726127 1.982341 0.024367
v 4.726715 1.982341 0.024929
v 4.726536 1.982341 0.024777
v 4.726396 1.982244 0.024969
v 4.726340 1.982011 0.025048
v 4.726518 1.982011 0.025200
v 4.726717 1.982012 0.025322
v 4.726775 1.982245 0.025243
v 4.726915 1.982341 0.025052
v 4.727647 1.982341 0.025404
v 4.727431 1.982341 0.025315
v 4.727357 1.982244 0.025540
v 4.727328 1.982011 0.025634
v 4.727544 1.982011 0.025723
v 4.727771 1.982012 0.025778
v 4.727802 1.982245 0.025685
v 4.727876 1.982341 0.025459
v 4.728681 1.982341 0.025568
v 4.728447 1.982341 0.025550
v 4.728448 1.982244 0.025787
v 4.728448 1.982011 0.025885
v 4.728681 1.982011 0.025904
v 4.728915 1.982012 0.025885
v 4.728916 1.982245 0.025787
v 4.728916 1.982341 0.025550
v 4.729716 1.982341 0.025404
v 4.729487 1.982341 0.025459
v 4.729561 1.982244 0.025685
v 4.729592 1.982011 0.025778
v 4.729820 1.982011 0.025723
v 4.730035 1.982012 0.025634
v 4.730006 1.982245 0.025540
v 4.729933 1.982341 0.025315
v 4.730648 1.982341 0.024929
v 4.730449 1.982341 0.025052
v 4.730588 1.982244 0.025243
v 4.730646 1.982011 0.025323
v 4.730846 1.982011 0.025200
v 4.731024 1.982012 0.025048
v 4.730966 1.982245 0.024969
v 4.730827 1.982341 0.024777
v 4.731390 1.982341 0.024189
v 4.731237 1.982341 0.024367
v 4.731429 1.982244 0.024506
v 4.731509 1.982011 0.024564
v 4.731661 1.982011 0.024386
v 4.731783 1.982012 0.024186
v 4.731704 1.982245 0.024128
v 4.731512 1.982341 0.023988
v 4.731865 1.982341 0.023256
v 4.731776 1.982341 0.023473
v 4.732001 1.982244 0.023545
v 4.732094 1.982011 0.023575
v 4.732183 1.982011 0.023359
v 4.732238 1.982012 0.023132
v 4.732145 1.982245 0.023101
v 4.731919 1.982341 0.023027
v 4.732028 1.982341 0.022221
v 4.732010 1.982341 0.022455
v 4.732248 1.982244 0.022455
v 4.732345 1.982011 0.022455
v 4.732364 1.982011 0.022221
v 4.732346 1.982012 0.021988
v 4.732248 1.982245 0.021988
v 4.732010 1.982341 0.021987
v 4.729987 0.895520 0.022221
v 4.730156 0.895520 0.022455
v 4.729923 0.895520 0.022625
v 4.730012 0.895520 0.022899
v 4.729737 0.895520 0.022988
v 4.729737 0.895520 0.023277
v 4.729449 0.895520 0.023277
v 4.729359 0.895520 0.023552
v 4.729085 0.895520 0.023463
v 4.728916 0.895520 0.023696
v 4.728681 0.895520 0.023527
v 4.728448 0.895520 0.023696
v 4.728278 0.895520 0.023463
v 4.728004 0.895520 0.023552
v 4.727915 0.895520 0.023277
v 4.727626 0.895520 0.023277
v 4.727626 0.895520 0.022988
v 4.727351 0.895520 0.022899
v 4.727441 0.895520 0.022625
v 4.727207 0.895520 0.022455
v 4.727376 0.895520 0.022221
v 4.727207 0.895520 0.021988
v 4.727441 0.895520 0.021818
v 4.727351 0.895520 0.021543
v 4.727626 0.895520 0.021454
v 4.727626 0.895520 0.021165
v 4.727915 0.895520 0.021166
v 4.728004 0.895520 0.020891
v 4.728278 0.895520 0.020980
v 4.728448 0.895520 0.020746
v 4.728681 0.895520 0.020916
v 4.728916 0.895520 0.020746
v 4.729085 0.895520 0.020980
v 4.729359 0.895520 0.020891
v 4.729449 0.895520 0.021166
v 4.729737 0.895520 0.021165
v 4.729737 0.895520 0.021454
v 4.730012 0.895520 0.021543
v 4.729923 0.895520 0.021818
v 4.730156 0.895520 0.021988
v 4.729987 1.982341 0.022221
v 4.730156 1.982341 0.021988
v 4.729923 1.982341 0.021818
v 4.730012 1.982341 0.021543
v 4.729737 1.982341 0.021454
v 4.729737 1.982341 0.021165
v 4.729449 1.982341 0.021166
v 4.729359 1.982341 0.020891
v 4.729085 1.982341 0.020980
v 4.728916 1.982341 0.020746
v 4.728681 1.982341 0.020916
v 4.728448 1.982341 0.020746
v 4.728278 1.982341 0.020980
v 4.728004 1.982341 0.020891
v 4.727915 1.982341 0.021166
v 4.727626 1.982341 0.021165
v 4.727626 1.982341 0.021454
v 4.727351 1.982341 0.021543
v 4.727441 1.982341 0.021818
v 4.727207 1.982341 0.021988
v 4.727376 1.982341 0.022221
v 4.727207 1.982341 0.022455
v 4.727441 1.982341 0.022625
v 4.727351 1.982341 0.022899
v 4.727626 1.982341 0.022988
v 4.727626 1.982341 0.023277
v 4.727915 1.982341 0.023277
v 4.728004 1.982341 0.023552
v 4.728278 1.982341 0.023463
v 4.728448 1.982341 0.023696
v 4.728681 1.982341 0.023527
v 4.728916 1.982341 0.023696
v 4.729085 1.982341 0.023463
v 4.729359 1.982341 0.023552
v 4.729449 1.982341 0.023277
v 4.729737 1.982341 0.023277
v 4.729737 1.982341 0.022988
v 4.730012 1.982341 0.022899
v 4.729923 1.982341 0.022625
v 4.730156 1.982341 0.022455
v 4.732090 0.895617 0.021114
v 4.731581 0.895617 0.020115
v 4.730789 0.895617 0.019322
v 4.729789 0.895617 0.018813
v 4.728681 0.895617 0.018637
v 4.727574 0.895617 0.018813
v 4.726575 0.895617 0.019322
v 4.725783 0.895617 0.020115
v 4.725273 0.895617 0.021114
v 4.725098 0.895617 0.022221
v 4.725273 0.895617 0.023329
v 4.725783 0.895617 0.024328
v 4.726575 0.895617 0.025121
v 4.727574 0.895617 0.025630
v 4.728681 0.895617 0.025805
v 4.729789 0.895617 0.025630
v 4.730789 0.895617 0.025121
v 4.731581 0.895617 0.024328
v 4.732090 0.895617 0.023329
v 4.732266 0.895617 0.022222
v 4.732090 1.982245 0.021114
v 4.731581 1.982245 0.020115
v 4.730789 1.982245 0.019322
v 4.729789 1.982245 0.018813
v 4.728681 1.982245 0.018637
v 4.727574 1.982245 0.018813
v 4.726575 1.982245 0.019322
v 4.725783 1.982245 0.020115
v 4.725273 1.982245 0.021114
v 4.725098 1.982245 0.022222
v 4.725273 1.982245 0.023329
v 4.725783 1.982245 0.024328
v 4.726575 1.982245 0.025121
v 4.727574 1.982245 0.025630
v 4.728681 1.982245 0.025805
v 4.729789 1.982245 0.025630
v 4.730789 1.982245 0.025121
v 4.731581 1.982245 0.024328
v 4.732090 1.982245 0.023329
v 4.732266 1.982245 0.022221
v 4.728681 0.895520 0.022221
v 4.728681 1.982341 0.022221
vt 0.630596 0.103423
vt 0.377552 0.312613
vt 0.622453 0.312614
vt 0.619495 0.081641
vt 0.556152 0.127626
vt 0.607880 0.065651
vt 0.390050 0.312613
vt 0.590580 0.048363
vt 0.544556 0.111670
vt 0.574596 0.036747
vt 0.402555 0.312613
vt 0.552815 0.025646
vt 0.528591 0.100085
vt 0.534008 0.019539
vt 0.415055 0.312613
vt 0.509880 0.015715
vt 0.509861 0.093973
vt 0.490101 0.015715
vt 0.427553 0.312613
vt 0.465973 0.019539
vt 0.490120 0.093973
vt 0.447166 0.025646
vt 0.440049 0.312613
vt 0.425384 0.036747
vt 0.471371 0.100085
vt 0.409382 0.048363
vt 0.452551 0.312613
vt 0.392101 0.065650
vt 0.455406 0.111670
vt 0.380486 0.081641
vt 0.465053 0.312613
vt 0.369385 0.103423
vt 0.443809 0.127626
vt 0.363281 0.122221
vt 0.477551 0.312613
vt 0.359467 0.146368
vt 0.437725 0.146387
vt 0.359467 0.166132
vt 0.490051 0.312613
vt 0.363281 0.190279
vt 0.437725 0.166112
vt 0.369385 0.209077
vt 0.502550 0.312613
vt 0.380486 0.230858
vt 0.443810 0.184874
vt 0.392101 0.246849
vt 0.515046 0.312613
vt 0.409382 0.264137
vt 0.455406 0.200830
vt 0.425385 0.275753
vt 0.527551 0.312613
vt 0.447166 0.286854
vt 0.471371 0.212415
vt 0.465973 0.292961
vt 0.540045 0.312613
vt 0.490101 0.296785
vt 0.490120 0.218527
vt 0.509880 0.296785
vt 0.552548 0.312613
vt 0.534008 0.292961
vt 0.509861 0.218527
vt 0.552814 0.286854
vt 0.565044 0.312613
vt 0.574596 0.275753
vt 0.528591 0.212415
vt 0.590580 0.264137
vt 0.577547 0.312613
vt 0.607880 0.246849
vt 0.544556 0.200830
vt 0.619495 0.230859
vt 0.590049 0.312613
vt 0.630596 0.209077
vt 0.556152 0.184874
vt 0.636681 0.190279
vt 0.602551 0.312613
vt 0.562256 0.146387
vt 0.640514 0.166132
vt 0.562256 0.166112
vt 0.615051 0.312613
vt 0.615048 0.687386
vt 0.636681 0.877779
vt 0.377550 0.687386
vt 0.384951 0.687386
vt 0.556152 0.872374
vt 0.390048 0.687386
vt 0.397453 0.687386
vt 0.544556 0.888330
vt 0.402551 0.687386
vt 0.409956 0.687386
vt 0.528591 0.899915
vt 0.415055 0.687386
vt 0.422452 0.687386
vt 0.509861 0.906027
vt 0.427553 0.687386
vt 0.434954 0.687386
vt 0.490120 0.906027
vt 0.440048 0.687386
vt 0.447449 0.687386
vt 0.471371 0.899915
vt 0.452549 0.687386
vt 0.459954 0.687386
vt 0.455406 0.888330
vt 0.465051 0.687386
vt 0.472450 0.687386
vt 0.443809 0.872374
vt 0.477548 0.687386
vt 0.484949 0.687386
vt 0.437725 0.853613
vt 0.490047 0.687386
vt 0.497448 0.687386
vt 0.437725 0.833888
vt 0.502548 0.687386
vt 0.509947 0.687386
vt 0.443810 0.815126
vt 0.515045 0.687386
vt 0.522449 0.687386
vt 0.455406 0.799170
vt 0.527546 0.687386
vt 0.534951 0.687386
vt 0.471371 0.787585
vt 0.540045 0.687386
vt 0.547447 0.687386
vt 0.490120 0.781473
vt 0.552548 0.687386
vt 0.559945 0.687386
vt 0.509861 0.781473
vt 0.565044 0.687386
vt 0.572444 0.687386
vt 0.528591 0.787585
vt 0.577546 0.687386
vt 0.584950 0.687386
vt 0.544556 0.799170
vt 0.590047 0.687386
vt 0.597448 0.687386
vt 0.556152 0.815126
vt 0.602547 0.687386
vt 0.609948 0.687386
vt 0.562256 0.833887
vt 0.640514 0.853632
vt 0.562256 0.853613
vt 0.384953 0.312614
vt 0.397454 0.312614
vt 0.409956 0.312614
vt 0.422452 0.312614
vt 0.434955 0.312614
vt 0.447454 0.312614
vt 0.459955 0.312614
vt 0.472452 0.312614
vt 0.484952 0.312614
vt 0.497452 0.312614
vt 0.509949 0.312614
vt 0.522450 0.312614
vt 0.534952 0.312614
vt 0.547447 0.312614
vt 0.559945 0.312614
vt 0.572449 0.312614
vt 0.584952 0.312614
vt 0.597450 0.312614
vt 0.609951 0.312614
vt 0.622449 0.687386
vt 0.636681 0.122221
vt 0.640514 0.146368
vt 0.630596 0.896577
vt 0.619495 0.918359
vt 0.607880 0.934349
vt 0.590580 0.951637
vt 0.574596 0.963253
vt 0.552814 0.974354
vt 0.534008 0.980461
vt 0.509880 0.984285
vt 0.490101 0.984285
vt 0.465973 0.980461
vt 0.447166 0.974354
vt 0.425385 0.963253
vt 0.409382 0.951637
vt 0.392101 0.934350
vt 0.380486 0.918359
vt 0.369385 0.896577
vt 0.363281 0.877779
vt 0.359467 0.853632
vt 0.359467 0.833868
vt 0.363281 0.809721
vt 0.369385 0.790923
vt 0.380486 0.769142
vt 0.392101 0.753151
vt 0.409382 0.735863
vt 0.425385 0.724247
vt 0.447166 0.713146
vt 0.465973 0.707039
vt 0.490101 0.703215
vt 0.509880 0.703215
vt 0.534008 0.707039
vt 0.552815 0.713146
vt 0.574596 0.724247
vt 0.590580 0.735863
vt 0.607880 0.753151
vt 0.619496 0.769141
vt 0.630596 0.790923
vt 0.636681 0.809721
vt 0.640514 0.833868
vt 0.634851 0.112420
vt 0.377608 0.312500
vt 0.643972 0.098878
vt 0.625000 0.317356
vt 0.375000 0.317356
vt 0.650199 0.118044
vt 0.622391 0.312500
vt 0.614733 0.072892
vt 0.390110 0.312500
vt 0.619191 0.057191
vt 0.387501 0.312951
vt 0.631043 0.073503
vt 0.384890 0.312500
vt 0.583321 0.041519
vt 0.402612 0.312500
vt 0.582740 0.025204
vt 0.400003 0.312951
vt 0.599051 0.037050
vt 0.397393 0.312500
vt 0.543815 0.021377
vt 0.415111 0.312500
vt 0.538196 0.006050
vt 0.412503 0.312951
vt 0.557386 0.012285
vt 0.409888 0.312500
vt 0.499983 0.014435
vt 0.427609 0.312500
vt 0.489923 0.001596
vt 0.425005 0.312952
vt 0.510093 0.001598
vt 0.422387 0.312500
vt 0.456167 0.021378
vt 0.440112 0.312500
vt 0.442613 0.012286
vt 0.437496 0.312951
vt 0.461808 0.006049
vt 0.434887 0.312500
vt 0.416642 0.041519
vt 0.452612 0.312500
vt 0.400935 0.037065
vt 0.449999 0.312951
vt 0.417242 0.025213
vt 0.447393 0.312500
vt 0.385249 0.072891
vt 0.465111 0.312500
vt 0.368954 0.073508
vt 0.462506 0.312952
vt 0.380798 0.057201
vt 0.459894 0.312500
vt 0.365134 0.112418
vt 0.477608 0.312500
vt 0.349802 0.118039
vt 0.475007 0.312951
vt 0.356036 0.098863
vt 0.472387 0.312500
vt 0.358184 0.156252
vt 0.490113 0.312500
vt 0.345349 0.166345
vt 0.487493 0.312951
vt 0.345344 0.146185
vt 0.484894 0.312500
vt 0.365134 0.200080
vt 0.502609 0.312500
vt 0.356030 0.213627
vt 0.500002 0.312951
vt 0.349802 0.194459
vt 0.497392 0.312500
vt 0.385250 0.239608
vt 0.515106 0.312500
vt 0.380800 0.255300
vt 0.512495 0.312951
vt 0.368954 0.238990
vt 0.509888 0.312500
vt 0.416642 0.270982
vt 0.527608 0.312500
vt 0.417248 0.287290
vt 0.524995 0.312952
vt 0.400939 0.275440
vt 0.522389 0.312500
vt 0.456169 0.291122
vt 0.540116 0.312500
vt 0.461823 0.306453
vt 0.537499 0.312951
vt 0.442627 0.300222
vt 0.534892 0.312500
vt 0.499983 0.298064
vt 0.552614 0.312500
vt 0.510097 0.310901
vt 0.549995 0.312952
vt 0.489927 0.310905
vt 0.547392 0.312500
vt 0.543817 0.291123
vt 0.565116 0.312500
vt 0.557400 0.300208
vt 0.562492 0.312951
vt 0.538211 0.306448
vt 0.559892 0.312500
vt 0.583321 0.270980
vt 0.577608 0.312500
vt 0.599055 0.275445
vt 0.574991 0.312951
vt 0.582746 0.287293
vt 0.572390 0.312500
vt 0.614733 0.239609
vt 0.590109 0.312500
vt 0.631042 0.238999
vt 0.587500 0.312951
vt 0.619192 0.255308
vt 0.584890 0.312500
vt 0.634852 0.200082
vt 0.602609 0.312500
vt 0.650199 0.194457
vt 0.600006 0.312951
vt 0.643967 0.213632
vt 0.597389 0.312500
vt 0.641799 0.156248
vt 0.615113 0.312500
vt 0.654651 0.146156
vt 0.612493 0.312951
vt 0.654656 0.166314
vt 0.609894 0.312500
vt 0.634852 0.887582
vt 0.622391 0.687500
vt 0.650199 0.881957
vt 0.375000 0.682650
vt 0.625000 0.682650
vt 0.643967 0.901132
vt 0.377611 0.687500
vt 0.614733 0.927109
vt 0.384891 0.687500
vt 0.631042 0.926499
vt 0.387499 0.687049
vt 0.619192 0.942808
vt 0.390110 0.687500
vt 0.583321 0.958480
vt 0.397391 0.687500
vt 0.599055 0.962945
vt 0.400009 0.687049
vt 0.582746 0.974793
vt 0.402610 0.687500
vt 0.543817 0.978623
vt 0.409884 0.687500
vt 0.557400 0.987708
vt 0.412508 0.687049
vt 0.538211 0.993948
vt 0.415108 0.687500
vt 0.499983 0.985565
vt 0.422386 0.687500
vt 0.510097 0.998401
vt 0.425005 0.687048
vt 0.489927 0.998405
vt 0.427608 0.687500
vt 0.456170 0.978622
vt 0.434884 0.687500
vt 0.461823 0.993953
vt 0.437501 0.687049
vt 0.442627 0.987722
vt 0.440108 0.687500
vt 0.416642 0.958482
vt 0.447391 0.687500
vt 0.417248 0.974790
vt 0.450004 0.687048
vt 0.400939 0.962940
vt 0.452611 0.687500
vt 0.385250 0.927108
vt 0.459893 0.687500
vt 0.380800 0.942800
vt 0.462505 0.687048
vt 0.368954 0.926490
vt 0.465112 0.687500
vt 0.365134 0.887580
vt 0.472391 0.687500
vt 0.356030 0.901127
vt 0.474998 0.687049
vt 0.349802 0.881959
vt 0.477608 0.687500
vt 0.358184 0.843752
vt 0.484886 0.687500
vt 0.345349 0.853845
vt 0.487506 0.687049
vt 0.345344 0.833685
vt 0.490106 0.687500
vt 0.365134 0.799918
vt 0.497392 0.687500
vt 0.349802 0.805539
vt 0.499993 0.687049
vt 0.356036 0.786363
vt 0.502612 0.687500
vt 0.385250 0.760391
vt 0.509888 0.687500
vt 0.368954 0.761008
vt 0.512494 0.687048
vt 0.380798 0.744701
vt 0.515106 0.687500
vt 0.416642 0.729019
vt 0.522388 0.687500
vt 0.400935 0.724565
vt 0.525001 0.687049
vt 0.417242 0.712713
vt 0.527607 0.687500
vt 0.456167 0.708878
vt 0.534887 0.687500
vt 0.442613 0.699786
vt 0.537503 0.687049
vt 0.461808 0.693549
vt 0.540112 0.687500
vt 0.499983 0.701935
vt 0.547391 0.687500
vt 0.489923 0.689096
vt 0.549995 0.687048
vt 0.510093 0.689098
vt 0.552613 0.687500
vt 0.543815 0.708878
vt 0.559888 0.687500
vt 0.538196 0.693550
vt 0.562496 0.687049
vt 0.557386 0.699785
vt 0.565112 0.687500
vt 0.583321 0.729019
vt 0.572388 0.687500
vt 0.582740 0.712704
vt 0.574997 0.687048
vt 0.599051 0.724550
vt 0.577607 0.687500
vt 0.614733 0.760392
vt 0.584890 0.687500
vt 0.619191 0.744691
vt 0.587499 0.687049
vt 0.631043 0.761003
vt 0.590110 0.687500
vt 0.634851 0.799920
vt 0.597392 0.687500
vt 0.643972 0.786378
vt 0.599997 0.687049
vt 0.650199 0.805544
vt 0.602609 0.687500
vt 0.641799 0.843748
vt 0.609886 0.687500
vt 0.654651 0.833656
vt 0.612506 0.687049
vt 0.654656 0.853814
vt 0.615105 0.687500
vt 0.555077 0.156250
vt 0.552388 0.173276
vt 0.544550 0.188634
vt 0.532364 0.200817
vt 0.517012 0.208650
vt 0.499982 0.211348
vt 0.482952 0.208650
vt 0.467619 0.200817
vt 0.455414 0.188634
vt 0.447595 0.173276
vt 0.444887 0.156250
vt 0.447595 0.139224
vt 0.455414 0.123866
vt 0.467619 0.111683
vt 0.482952 0.103850
vt 0.499982 0.101151
vt 0.517012 0.103850
vt 0.532364 0.111683
vt 0.544550 0.123866
vt 0.552388 0.139224
vt 0.555077 0.843750
vt 0.552388 0.860776
vt 0.544550 0.876134
vt 0.532364 0.888317
vt 0.517012 0.896150
vt 0.499982 0.898849
vt 0.482952 0.896150
vt 0.467619 0.888317
vt 0.455414 0.876134
vt 0.447595 0.860776
vt 0.444887 0.843750
vt 0.447595 0.826724
vt 0.455414 0.811366
vt 0.467619 0.799183
vt 0.482952 0.791350
vt 0.499982 0.788652
vt 0.517012 0.791350
vt 0.532364 0.799183
vt 0.544550 0.811366
vt 0.552388 0.826724
vt 0.375000 0.312500
vt 0.625000 0.312500
vt 0.648603 0.107966
vt 0.387500 0.312500
vt 0.626409 0.064408
vt 0.400000 0.312500
vt 0.591842 0.029841
vt 0.412500 0.312500
vt 0.548284 0.007647
vt 0.425000 0.312500
vt 0.500000 -0.000000
vt 0.437500 0.312500
vt 0.451716 0.007647
vt 0.450000 0.312500
vt 0.408159 0.029841
vt 0.462500 0.312500
vt 0.373591 0.064409
vt 0.475000 0.312500
vt 0.351397 0.107966
vt 0.487500 0.312500
vt 0.343750 0.156250
vt 0.500000 0.312500
vt 0.351397 0.204534
vt 0.512500 0.312500
vt 0.373591 0.248091
vt 0.525000 0.312500
vt 0.408159 0.282659
vt 0.537500 0.312500
vt 0.451716 0.304853
vt 0.550000 0.312500
vt 0.500000 0.312500
vt 0.562500 0.312500
vt 0.548284 0.304853
vt 0.575000 0.312500
vt 0.591841 0.282659
vt 0.587500 0.312500
vt 0.626409 0.248091
vt 0.600000 0.312500
vt 0.648603 0.204534
vt 0.612500 0.312500
vt 0.656250 0.156250
vt 0.625000 0.687500
vt 0.375000 0.687500
vt 0.648603 0.892034
vt 0.387500 0.687500
vt 0.626409 0.935591
vt 0.400000 0.687500
vt 0.591841 0.970159
vt 0.412500 0.687500
vt 0.548284 0.992353
vt 0.425000 0.687500
vt 0.500000 1.000000
vt 0.437500 0.687500
vt 0.451716 0.992353
vt 0.450000 0.687500
vt 0.408159 0.970159
vt 0.462500 0.687500
vt 0.373591 0.935591
vt 0.475000 0.687500
vt 0.351397 0.892034
vt 0.487500 0.687500
vt 0.343750 0.843750
vt 0.500000 0.687500
vt 0.351397 0.795466
vt 0.512500 0.687500
vt 0.373591 0.751909
vt 0.525000 0.687500
vt 0.408159 0.717341
vt 0.537500 0.687500
vt 0.451716 0.695147
vt 0.550000 0.687500
vt 0.500000 0.687500
vt 0.562500 0.687500
vt 0.548284 0.695147
vt 0.575000 0.687500
vt 0.591842 0.717341
vt 0.587500 0.687500
vt 0.626409 0.751908
vt 0.600000 0.687500
vt 0.648603 0.795466
vt 0.612500 0.687500
vt 0.656250 0.843750
vt 0.500000 0.156250
vt 0.500000 0.843750
vn 0.067038 -0.997221 -0.032509
vn 0.045851 -0.998838 -0.014864
vn 0.000000 -1.000000 0.000000
vn 0.000000 -1.000000 0.000000
vn 0.073161 -0.997235 -0.013056
vn 0.000000 -1.000000 0.000000
vn 0.899975 -0.000082 -0.435941
vn 0.830005 -0.384632 -0.403918
vn 0.814687 -0.384541 -0.434066
vn 0.881657 -0.000082 -0.471890
vn 0.343131 -0.924798 -0.164347
vn 0.065523 -0.997238 -0.034983
vn 0.334774 -0.924796 -0.180774
vn 0.984340 -0.000083 -0.176279
vn 0.951224 -0.000086 -0.308501
vn 0.951227 0.000086 -0.308491
vn 0.984341 0.000082 -0.176277
vn 0.899976 0.000083 -0.435940
vn 0.373422 -0.925130 -0.068493
vn 0.376289 -0.925133 -0.050357
vn 0.073688 -0.997229 -0.010217
vn 0.909631 -0.382868 -0.161195
vn 0.990651 -0.000083 -0.136418
vn 0.914985 -0.382564 -0.128247
vn 0.053550 -0.997230 -0.051619
vn 0.039143 -0.998828 -0.028460
vn 0.000000 -1.000000 0.000000
vn -0.000000 -1.000000 -0.000007
vn 0.720967 -0.000082 -0.692970
vn 0.663984 -0.385603 -0.640653
vn 0.640468 -0.385157 -0.664421
vn 0.692211 -0.000082 -0.721695
vn 0.275325 -0.924768 -0.262679
vn 0.051568 -0.997226 -0.053672
vn 0.262188 -0.924921 -0.275279
vn 0.809926 -0.000086 -0.586532
vn 0.809927 0.000086 -0.586531
vn 0.881658 0.000083 -0.471889
vn 0.720967 0.000083 -0.692969
vn 0.035071 -0.997230 -0.065588
vn 0.028311 -0.998836 -0.039048
vn 0.000000 -1.000000 0.000000
vn 0.000000 -1.000000 0.000000
vn 0.471741 -0.000082 -0.881737
vn 0.434245 -0.383781 -0.814950
vn 0.404616 -0.383944 -0.829984
vn 0.436268 -0.000082 -0.899817
vn 0.180811 -0.924927 -0.334391
vn 0.032479 -0.997234 -0.066848
vn 0.164464 -0.924961 -0.342635
vn 0.587712 -0.000086 -0.809070
vn 0.587706 0.000086 -0.809074
vn 0.692212 0.000083 -0.721694
vn 0.471743 0.000082 -0.881736
vn 0.013078 -0.997227 -0.073260
vn 0.014915 -0.998829 -0.046017
vn 0.000000 -1.000000 0.000000
vn 0.000000 -1.000000 0.000000
vn 0.176174 -0.000083 -0.984359
vn 0.161068 -0.384501 -0.908964
vn 0.127874 -0.384542 -0.914208
vn 0.136670 -0.000082 -0.990617
vn 0.068632 -0.924844 -0.374104
vn 0.010218 -0.997233 -0.073633
vn 0.050424 -0.924905 -0.376840
vn 0.309007 -0.000086 -0.951060
vn 0.309002 0.000086 -0.951061
vn 0.436269 0.000082 -0.899816
vn 0.176174 0.000083 -0.984359
vn -0.010214 -0.997228 -0.073706
vn -0.000028 -0.998835 -0.048256
vn -0.000000 -1.000000 -0.000000
vn 0.000000 -1.000000 0.000025
vn -0.136674 -0.000083 -0.990616
vn -0.127848 -0.384710 -0.914141
vn -0.160801 -0.384708 -0.908924
vn -0.176218 -0.000082 -0.984351
vn -0.050421 -0.924843 -0.376991
vn -0.013040 -0.997234 -0.073169
vn -0.068509 -0.924911 -0.373959
vn 0.000000 -0.000086 -1.000000
vn -0.000000 0.000086 -1.000000
vn 0.136670 0.000083 -0.990617
vn -0.136674 0.000082 -0.990616
vn -0.032463 -0.997231 -0.066901
vn -0.014953 -0.998834 -0.045909
vn 0.000000 -1.000000 0.000026
vn 0.000000 -1.000000 0.000025
vn -0.436171 -0.000082 -0.899864
vn -0.404356 -0.383373 -0.830374
vn -0.433951 -0.383415 -0.815279
vn -0.471334 -0.000082 -0.881955
vn -0.164324 -0.924931 -0.342784
vn -0.035017 -0.997229 -0.065633
vn -0.180479 -0.925022 -0.334308
vn -0.309571 -0.000086 -0.950876
vn -0.309571 0.000086 -0.950876
vn -0.176218 0.000082 -0.984351
vn -0.436171 0.000082 -0.899864
vn -0.051596 -0.997226 -0.053649
vn -0.028372 -0.998834 -0.039059
vn 0.000000 -1.000000 0.000000
vn 0.000000 -1.000000 0.000000
vn -0.692702 -0.000082 -0.721224
vn -0.641071 -0.383238 -0.664949
vn -0.664513 -0.383812 -0.641179
vn -0.720476 -0.000082 -0.693480
vn -0.262144 -0.924963 -0.275179
vn -0.053540 -0.997237 -0.051505
vn -0.275126 -0.924998 -0.262076
vn -0.587705 -0.000086 -0.809075
vn -0.587711 0.000086 -0.809071
vn -0.471332 0.000082 -0.881956
vn -0.692701 0.000082 -0.721224
vn -0.065494 -0.997239 -0.034997
vn -0.039182 -0.998828 -0.028417
vn 0.000000 -1.000000 0.000000
vn 0.000000 -1.000000 0.000000
vn -0.882067 -0.000083 -0.471125
vn -0.814804 -0.384708 -0.433698
vn -0.830444 -0.384123 -0.403500
vn -0.900361 -0.000082 -0.435144
vn -0.334397 -0.924950 -0.180684
vn -0.067045 -0.997220 -0.032527
vn -0.342597 -0.925031 -0.164153
vn -0.809006 -0.000086 -0.587801
vn -0.809005 0.000086 -0.587802
vn -0.720476 0.000082 -0.693480
vn -0.882066 0.000082 -0.471126
vn -0.073321 -0.997222 -0.013096
vn -0.045760 -0.998842 -0.014860
vn 0.000000 -1.000000 0.000000
vn 0.000000 -1.000000 0.000000
vn -0.984341 -0.000082 -0.176277
vn -0.909161 -0.383940 -0.161297
vn -0.914600 -0.383707 -0.127581
vn -0.990718 -0.000082 -0.135934
vn -0.373464 -0.925107 -0.068568
vn -0.073575 -0.997238 -0.010181
vn -0.376099 -0.925219 -0.050197
vn -0.950943 -0.000086 -0.309368
vn -0.950939 0.000086 -0.309378
vn -0.900361 0.000082 -0.435144
vn -0.984340 0.000083 -0.176278
vn -0.073643 -0.997233 0.010164
vn -0.048287 -0.998833 0.000046
vn 0.000000 -1.000000 0.000000
vn 0.000000 -1.000000 0.000000
vn -0.990718 -0.000083 0.135935
vn -0.914578 -0.383720 0.127696
vn -0.909238 -0.384032 0.160645
vn -0.984340 -0.000083 0.176278
vn -0.376742 -0.924957 0.050202
vn -0.073353 -0.997221 0.013047
vn -0.373865 -0.924957 0.068403
vn -1.000000 -0.000085 -0.000008
vn -1.000000 0.000085 0.000008
vn -0.990718 0.000083 -0.135935
vn -0.990718 0.000082 0.135934
vn -0.067053 -0.997220 0.032505
vn -0.045747 -0.998842 0.014882
vn 0.000000 -1.000000 0.000000
vn 0.000000 -1.000000 0.000000
vn -0.900361 -0.000082 0.435144
vn -0.830336 -0.384279 0.403575
vn -0.814779 -0.384863 0.433607
vn -0.882066 -0.000082 0.471126
vn -0.342639 -0.925024 0.164097
vn -0.065489 -0.997240 0.034969
vn -0.334266 -0.925025 0.180542
vn -0.950939 -0.000086 0.309377
vn -0.950943 0.000086 0.309367
vn -0.984341 0.000082 0.176277
vn -0.900361 0.000082 0.435144
vn -0.053568 -0.997233 0.051541
vn -0.039149 -0.998828 0.028464
vn 0.000000 -1.000000 0.000000
vn 0.000000 -1.000000 0.000007
vn -0.720476 -0.000082 0.693480
vn -0.664500 -0.383919 0.641129
vn -0.640951 -0.383450 0.664942
vn -0.692701 -0.000082 0.721225
vn -0.275207 -0.924990 0.262020
vn -0.051590 -0.997225 0.053675
vn -0.262044 -0.925021 0.275081
vn -0.809006 -0.000086 0.587801
vn -0.809007 0.000086 0.587799
vn -0.882067 0.000083 0.471125
vn -0.720476 0.000082 0.693480
vn -0.035058 -0.997230 0.065599
vn -0.028325 -0.998834 0.039101
vn 0.000000 -1.000000 0.000000
vn 0.000000 -1.000000 0.000000
vn -0.471331 -0.000082 0.881956
vn -0.434238 -0.383243 0.815207
vn -0.404621 -0.383187 0.830331
vn -0.436171 -0.000082 0.899864
vn -0.180660 -0.925039 0.334164
vn -0.032477 -0.997235 0.066836
vn -0.164367 -0.925086 0.342342
vn -0.587711 -0.000086 0.809071
vn -0.587705 0.000086 0.809076
vn -0.692702 0.000082 0.721224
vn -0.471333 0.000082 0.881955
vn -0.013068 -0.997229 0.073239
vn -0.014895 -0.998831 0.045983
vn 0.000000 -1.000000 0.000000
vn -0.000000 -1.000000 -0.000000
vn -0.176216 -0.000082 0.984352
vn -0.160877 -0.384660 0.908931
vn -0.127924 -0.384739 0.914118
vn -0.136671 -0.000082 0.990617
vn -0.068588 -0.924858 0.374077
vn -0.010235 -0.997229 0.073681
vn -0.050483 -0.924907 0.376826
vn -0.309575 -0.000086 0.950875
vn -0.309575 0.000086 0.950875
vn -0.436171 0.000082 0.899864
vn -0.176216 0.000082 0.984351
vn 0.010197 -0.997232 0.073647
vn 0.000027 -0.998836 0.048239
vn 0.000000 -1.000000 0.000000
vn -0.000000 -1.000000 -0.000025
vn 0.136671 -0.000083 0.990617
vn 0.127794 -0.384491 0.914240
vn 0.161033 -0.384518 0.908963
vn 0.176174 -0.000083 0.984359
vn 0.050362 -0.924869 0.376937
vn 0.013050 -0.997232 0.073191
vn 0.068552 -0.924896 0.373989
vn -0.000000 -0.000086 1.000000
vn 0.000000 0.000086 1.000000
vn -0.136671 0.000083 0.990617
vn 0.136671 0.000082 0.990617
vn 0.032465 -0.997233 0.066882
vn 0.014973 -0.998832 0.045941
vn -0.000000 -1.000000 -0.000026
vn -0.000000 -1.000000 -0.000025
vn 0.436268 -0.000082 0.899817
vn 0.404223 -0.384020 0.830140
vn 0.433878 -0.383893 0.815093
vn 0.471742 -0.000082 0.881737
vn 0.164432 -0.924852 0.342945
vn 0.035030 -0.997232 0.065589
vn 0.180641 -0.924962 0.334385
vn 0.309002 -0.000086 0.951061
vn 0.309007 0.000086 0.951060
vn 0.176174 0.000083 0.984359
vn 0.436268 0.000082 0.899817
vn 0.051573 -0.997229 0.053612
vn 0.028357 -0.998837 0.038990
vn 0.000000 -1.000000 0.000000
vn 0.000000 -1.000000 0.000000
vn 0.692212 -0.000083 0.721695
vn 0.640522 -0.384904 0.664516
vn 0.663920 -0.385453 0.640809
vn 0.720966 -0.000083 0.692970
vn 0.262300 -0.924907 0.275219
vn 0.053523 -0.997235 0.051550
vn 0.275258 -0.924817 0.262576
vn 0.587708 -0.000086 0.809073
vn 0.587714 0.000086 0.809069
vn 0.471740 0.000082 0.881738
vn 0.692211 0.000082 0.721695
vn 0.065527 -0.997236 0.035032
vn 0.039177 -0.998828 0.028413
vn 0.000000 -1.000000 0.000000
vn 0.000000 -1.000000 0.000000
vn 0.881658 -0.000083 0.471890
vn 0.814695 -0.384381 0.434193
vn 0.830108 -0.384477 0.403855
vn 0.899976 -0.000083 0.435940
vn 0.334900 -0.924702 0.181018
vn 0.067030 -0.997220 0.032540
vn 0.343087 -0.924799 0.164430
vn 0.809927 -0.000086 0.586531
vn 0.809926 0.000086 0.586532
vn 0.720966 0.000082 0.692971
vn 0.881657 0.000082 0.471890
vn 0.073129 -0.997236 0.013098
vn 0.045864 -0.998838 0.014830
vn 0.000000 -1.000000 0.000000
vn 0.000000 -1.000000 0.000000
vn 0.984341 -0.000082 0.176276
vn 0.908933 -0.384305 0.161709
vn 0.914599 -0.383707 0.127581
vn 0.990652 -0.000082 0.136416
vn 0.373023 -0.925281 0.068622
vn 0.073621 -0.997234 0.010231
vn 0.375648 -0.925394 0.050335
vn 0.951227 -0.000086 0.308492
vn 0.951224 0.000086 0.308502
vn 0.899975 0.000082 0.435941
vn 0.984340 0.000083 0.176279
vn 0.048278 -0.998834 -0.000046
vn 0.000000 -1.000000 0.000000
vn 1.000000 -0.000085 0.000008
vn 1.000000 0.000085 -0.000008
vn 0.990651 0.000083 0.136418
vn 0.990652 0.000082 -0.136416
vn 0.073295 0.997224 -0.013118
vn 0.045961 0.998833 -0.014866
vn 0.000000 1.000000 0.000000
vn 0.000000 1.000000 0.000000
vn 0.067188 0.997208 -0.032589
vn 0.000000 1.000000 0.000000
vn 0.908814 0.384605 -0.161669
vn 0.914475 0.384015 -0.127546
vn 0.373745 0.924984 -0.068705
vn 0.073794 0.997221 -0.010262
vn 0.376406 0.925078 -0.050490
vn 0.343785 0.924502 -0.164645
vn 0.335566 0.924423 -0.181212
vn 0.065679 0.997224 -0.035078
vn 0.829974 0.384771 -0.403850
vn 0.814574 0.384671 -0.434163
vn 0.039257 0.998823 -0.028485
vn 0.000000 1.000000 0.000000
vn 0.053649 0.997221 -0.051684
vn 0.000000 1.000000 0.000000
vn 0.275803 0.924484 -0.263176
vn 0.262823 0.924591 -0.275781
vn 0.051694 0.997216 -0.053740
vn 0.663831 0.385755 -0.640720
vn 0.640417 0.385191 -0.664450
vn 0.028412 0.998832 -0.039087
vn 0.000000 1.000000 0.000000
vn 0.035113 0.997219 -0.065743
vn 0.000000 1.000000 0.000000
vn 0.181001 0.924644 -0.335071
vn 0.164780 0.924555 -0.343577
vn 0.032545 0.997218 -0.067054
vn 0.433878 0.384243 -0.814928
vn 0.404191 0.384344 -0.830005
vn 0.014997 0.998824 -0.046098
vn 0.000000 1.000000 0.000000
vn 0.013082 0.997219 -0.073372
vn 0.000000 1.000000 0.000000
vn 0.068687 0.924609 -0.374673
vn 0.050496 0.924596 -0.377588
vn 0.010228 0.997221 -0.073795
vn 0.161021 0.384810 -0.908842
vn 0.127770 0.384776 -0.914124
vn 0.000019 0.998830 -0.048351
vn 0.000000 1.000000 0.000000
vn -0.010258 0.997217 -0.073841
vn 0.000000 1.000000 0.000000
vn -0.050593 0.924608 -0.377546
vn -0.068688 0.924593 -0.374712
vn -0.013090 0.997218 -0.073384
vn -0.127892 0.385046 -0.913993
vn -0.160859 0.384956 -0.908809
vn -0.014936 0.998826 -0.046074
vn 0.000000 1.000000 0.000000
vn -0.032553 0.997221 -0.067013
vn 0.000000 1.000000 0.000000
vn -0.164698 0.924744 -0.343107
vn -0.180969 0.924712 -0.334899
vn -0.035130 0.997216 -0.065769
vn -0.404527 0.383465 -0.830248
vn -0.434176 0.383530 -0.815105
vn -0.028394 0.998830 -0.039157
vn 0.000000 1.000000 0.000000
vn -0.051711 0.997215 -0.053739
vn 0.000000 1.000000 0.000000
vn -0.262586 0.924731 -0.275536
vn -0.275707 0.924680 -0.262590
vn -0.053683 0.997223 -0.051623
vn -0.640907 0.383794 -0.664786
vn -0.664460 0.384247 -0.640973
vn -0.039239 0.998823 -0.028512
vn 0.000000 1.000000 0.000000
vn -0.065642 0.997228 -0.035031
vn 0.000000 1.000000 0.000000
vn -0.334951 0.924729 -0.180788
vn -0.343284 0.924734 -0.164388
vn -0.067201 0.997208 -0.032573
vn -0.814657 0.385171 -0.433564
vn -0.830207 0.384569 -0.403563
vn -0.045849 0.998837 -0.014906
vn 0.000000 1.000000 0.000000
vn -0.073525 0.997207 -0.013092
vn 0.000000 1.000000 0.000000
vn -0.374620 0.924637 -0.068600
vn -0.377456 0.924652 -0.050445
vn -0.073807 0.997220 -0.010215
vn -0.909108 0.384338 -0.160645
vn -0.914452 0.384016 -0.127706
vn -0.048393 0.998828 -0.000040
vn 0.000000 1.000000 0.000000
vn -0.073748 0.997225 0.010216
vn 0.000000 1.000000 0.000000
vn -0.376858 0.924901 0.050369
vn -0.374188 0.924810 0.068629
vn -0.073487 0.997210 0.013114
vn -0.914475 0.384015 0.127547
vn -0.909039 0.384239 0.161271
vn -0.045857 0.998837 0.014888
vn 0.000000 1.000000 0.000000
vn -0.067203 0.997206 0.032605
vn 0.000000 1.000000 0.000000
vn -0.343286 0.924714 0.164497
vn -0.335052 0.924642 0.181044
vn -0.065644 0.997226 0.035077
vn -0.830314 0.384422 0.403482
vn -0.814671 0.384998 0.433691
vn -0.039262 0.998823 0.028497
vn 0.000000 1.000000 0.000000
vn -0.053666 0.997223 0.051626
vn 0.000000 1.000000 0.000000
vn -0.275679 0.924681 0.262616
vn -0.262673 0.924664 0.275681
vn -0.051717 0.997213 0.053763
vn -0.664453 0.384133 0.641050
vn -0.640984 0.383537 0.664860
vn -0.028427 0.998829 0.039139
vn 0.000000 1.000000 0.000000
vn -0.035100 0.997219 0.065748
vn 0.000000 1.000000 0.000000
vn -0.180851 0.924769 0.334806
vn -0.164682 0.924689 0.343265
vn -0.032543 0.997219 0.067039
vn -0.433850 0.383671 0.815212
vn -0.404271 0.383638 0.830293
vn -0.014977 0.998826 0.046067
vn 0.000000 1.000000 0.000000
vn -0.013072 0.997220 0.073357
vn 0.000000 1.000000 0.000000
vn -0.068642 0.924610 0.374679
vn -0.050554 0.924571 0.377642
vn -0.010245 0.997216 0.073855
vn -0.160791 0.385016 0.908795
vn -0.127826 0.384998 0.914023
vn -0.000019 0.998830 0.048351
vn 0.000000 1.000000 0.000000
vn 0.010241 0.997222 0.073782
vn 0.000000 1.000000 0.000000
vn 0.050534 0.924634 0.377490
vn 0.068732 0.924585 0.374724
vn 0.013101 0.997216 0.073403
vn 0.127851 0.384874 0.914071
vn 0.161069 0.384845 0.908819
vn 0.014956 0.998825 0.046105
vn 0.000000 1.000000 0.000000
vn 0.032554 0.997222 0.066996
vn 0.000000 1.000000 0.000000
vn 0.164805 0.924658 0.343288
vn 0.181129 0.924640 0.335011
vn 0.035143 0.997218 0.065731
vn 0.404518 0.384236 0.829896
vn 0.434188 0.384088 0.814836
vn 0.028379 0.998832 0.039104
vn 0.000000 1.000000 0.000000
vn 0.051688 0.997217 0.053722
vn 0.000000 1.000000 0.000000
vn 0.262733 0.924649 0.275672
vn 0.275832 0.924483 0.263150
vn 0.053666 0.997221 0.051682
vn 0.640393 0.385480 0.664306
vn 0.663915 0.385913 0.640537
vn 0.039234 0.998823 0.028532
vn 0.000000 1.000000 0.000000
vn 0.065676 0.997224 0.035083
vn 0.000000 1.000000 0.000000
vn 0.335447 0.924462 0.181234
vn 0.343775 0.924502 0.164665
vn 0.067186 0.997208 0.032586
vn 0.814565 0.384848 0.434023
vn 0.829871 0.384919 0.403919
vn 0.045953 0.998833 0.014866
vn 0.000000 1.000000 0.000000
vn 0.073333 0.997222 0.013086
vn 0.000000 1.000000 0.000000
vn 0.374179 0.924815 0.068606
vn 0.377004 0.924829 0.050583
vn 0.073853 0.997216 0.010265
vn 0.909504 0.383176 0.161178
vn 0.914862 0.382860 0.128240
vn 0.048383 0.998829 0.000040
vn 0.000000 1.000000 0.000000
vn 0.358897 -0.926092 -0.116393
vn 0.876990 -0.387686 -0.283879
vn 0.305496 -0.925904 -0.222202
vn 0.745791 -0.388473 -0.541188
vn 0.221463 -0.926183 -0.305188
vn 0.541799 -0.387066 -0.746079
vn 0.116282 -0.926067 -0.358996
vn 0.284268 -0.387794 -0.876817
vn -0.000213 -0.926060 -0.377377
vn -0.000265 -0.388030 -0.921647
vn -0.116709 -0.926087 -0.358807
vn -0.285446 -0.387492 -0.876567
vn -0.221684 -0.926159 -0.305099
vn -0.542431 -0.386857 -0.745728
vn -0.305409 -0.926085 -0.221567
vn -0.745296 -0.388974 -0.541510
vn -0.358594 -0.926219 -0.116317
vn -0.876947 -0.386717 -0.285331
vn -0.376475 -0.926427 0.000278
vn -0.922534 -0.385914 0.001234
vn -0.358527 -0.926210 0.116595
vn -0.877042 -0.386981 0.284680
vn -0.305094 -0.926108 0.221904
vn -0.744994 -0.389115 0.541825
vn -0.221365 -0.926115 0.305464
vn -0.541500 -0.387050 0.746304
vn -0.116288 -0.926144 0.358796
vn -0.285159 -0.387263 0.876762
vn 0.000220 -0.926105 0.377266
vn 0.000251 -0.387982 0.921667
vn 0.116705 -0.926020 0.358981
vn 0.284765 -0.387780 0.876662
vn 0.221789 -0.926262 0.304710
vn 0.542640 -0.386809 0.745601
vn 0.305813 -0.925880 0.221865
vn 0.746015 -0.388293 0.541008
vn 0.358968 -0.926111 0.116023
vn 0.876328 -0.388160 0.285273
vn 0.376474 -0.926427 -0.000278
vn 0.922534 -0.385914 -0.001234
vn 0.359618 0.925827 -0.116268
vn 0.876211 0.388408 -0.285297
vn 0.306340 0.925588 -0.222357
vn 0.745938 0.388554 -0.540928
vn 0.222146 0.925962 -0.305361
vn 0.542604 0.387092 -0.745480
vn 0.116858 0.925739 -0.359654
vn 0.284701 0.388016 -0.876578
vn 0.000150 0.925798 -0.378019
vn 0.000230 0.388211 -0.921570
vn -0.116571 0.925871 -0.359407
vn -0.285136 0.387501 -0.876664
vn -0.221848 0.925881 -0.305824
vn -0.541491 0.387326 -0.746168
vn -0.305708 0.925831 -0.222213
vn -0.744924 0.389370 -0.541737
vn -0.359218 0.925923 -0.116746
vn -0.876937 0.387227 -0.284670
vn -0.377178 0.926141 -0.000231
vn -0.922429 0.386165 -0.001227
vn -0.359247 0.925942 0.116500
vn -0.876830 0.386964 0.285354
vn -0.305934 0.925779 0.222120
vn -0.745191 0.389224 0.541475
vn -0.222048 0.925895 0.305637
vn -0.542241 0.387030 0.745776
vn -0.116861 0.925806 0.359480
vn -0.285382 0.387726 0.876485
vn -0.000144 0.925799 0.378016
vn -0.000244 0.388208 0.921572
vn 0.116570 0.925803 0.359584
vn 0.284252 0.388041 0.876713
vn 0.221945 0.925949 0.305548
vn 0.541813 0.387360 0.745916
vn 0.306098 0.925588 0.222689
vn 0.745723 0.388729 0.541098
vn 0.359597 0.925822 0.116375
vn 0.876876 0.387930 0.283899
vn 0.377179 0.926141 0.000231
vn 0.922429 0.386165 0.001227
vn 0.000000 -1.000000 0.000000
vn 0.000000 1.000000 0.000000
s 1
g pCylinder7
usemtl initialShadingGroup
f 2/1/1 1/201/2 359/462/3 358/5/4
f 1/201/2 8/161/5 360/76/6 359/462/3
s 2
f 4/2/7 3/202/8 15/213/9 14/141/10
s 1
f 3/203/11 2/1/1 16/4/12 15/212/13
s 2
f 6/3/14 5/204/15 165/326/16 164/160/17
f 5/205/15 4/2/7 166/82/18 165/325/16
s 1
f 8/161/5 7/206/19 155/318/20 154/162/21
s 2
f 7/207/22 6/3/14 156/79/23 155/317/24
s 1
f 10/6/25 9/208/26 357/461/27 356/9/28
f 9/208/26 16/4/12 358/5/4 357/461/27
s 2
f 12/7/29 11/209/30 23/219/31 22/142/32
s 1
f 11/210/33 10/6/25 24/8/34 23/218/35
s 2
f 14/141/10 13/211/36 173/332/37 172/83/38
f 13/211/36 12/7/29 174/85/39 173/332/37
s 1
f 18/10/40 17/214/41 355/460/42 354/13/43
f 17/214/41 24/8/34 356/9/28 355/460/42
s 2
f 20/11/44 19/215/45 31/225/46 30/143/47
s 1
f 19/216/48 18/10/40 32/12/49 31/224/50
s 2
f 22/142/32 21/217/51 181/338/52 180/86/53
f 21/217/51 20/11/44 182/88/54 181/338/52
s 1
f 26/14/55 25/220/56 353/459/57 352/17/58
f 25/220/56 32/12/49 354/13/43 353/459/57
s 2
f 28/15/59 27/221/60 39/231/61 38/144/62
s 1
f 27/222/63 26/14/55 40/16/64 39/230/65
s 2
f 30/143/47 29/223/66 189/344/67 188/89/68
f 29/223/66 28/15/59 190/91/69 189/344/67
s 1
f 34/18/70 33/226/71 351/458/72 350/21/73
f 33/226/71 40/16/64 352/17/58 351/458/72
s 2
f 36/19/74 35/227/75 47/237/76 46/145/77
s 1
f 35/228/78 34/18/70 48/20/79 47/236/80
s 2
f 38/144/62 37/229/81 197/350/82 196/92/83
f 37/229/81 36/19/74 198/94/84 197/350/82
s 1
f 42/22/85 41/232/86 349/457/87 348/25/88
f 41/232/86 48/20/79 350/21/73 349/457/87
s 2
f 44/23/89 43/233/90 55/243/91 54/146/92
s 1
f 43/234/93 42/22/85 56/24/94 55/242/95
s 2
f 46/145/77 45/235/96 205/356/97 204/95/98
f 45/235/96 44/23/89 206/97/99 205/356/97
s 1
f 50/26/100 49/238/101 347/456/102 346/29/103
f 49/238/101 56/24/94 348/25/88 347/456/102
s 2
f 52/27/104 51/239/105 63/249/106 62/147/107
s 1
f 51/240/108 50/26/100 64/28/109 63/248/110
s 2
f 54/146/92 53/241/111 213/362/112 212/98/113
f 53/241/111 52/27/104 214/100/114 213/362/112
s 1
f 58/30/115 57/244/116 345/455/117 344/33/118
f 57/244/116 64/28/109 346/29/103 345/455/117
s 2
f 60/31/119 59/245/120 71/255/121 70/148/122
s 1
f 59/246/123 58/30/115 72/32/124 71/254/125
s 2
f 62/147/107 61/247/126 221/368/127 220/101/128
f 61/247/126 60/31/119 222/103/129 221/368/127
s 1
f 66/34/130 65/250/131 343/454/132 342/37/133
f 65/250/131 72/32/124 344/33/118 343/454/132
s 2
f 68/35/134 67/251/135 79/261/136 78/149/137
s 1
f 67/252/138 66/34/130 80/36/139 79/260/140
s 2
f 70/148/122 69/253/141 229/374/142 228/104/143
f 69/253/141 68/35/134 230/106/144 229/374/142
s 1
f 74/38/145 73/256/146 341/453/147 340/41/148
f 73/256/146 80/36/139 342/37/133 341/453/147
s 2
f 76/39/149 75/257/150 87/267/151 86/150/152
s 1
f 75/258/153 74/38/145 88/40/154 87/266/155
s 2
f 78/149/137 77/259/156 237/380/157 236/107/158
f 77/259/156 76/39/149 238/109/159 237/380/157
s 1
f 82/42/160 81/262/161 339/452/162 338/45/163
f 81/262/161 88/40/154 340/41/148 339/452/162
s 2
f 84/43/164 83/263/165 95/273/166 94/151/167
s 1
f 83/264/168 82/42/160 96/44/169 95/272/170
s 2
f 86/150/152 85/265/171 245/386/172 244/110/173
f 85/265/171 84/43/164 246/112/174 245/386/172
s 1
f 90/46/175 89/268/176 337/451/177 336/49/178
f 89/268/176 96/44/169 338/45/163 337/451/177
s 2
f 92/47/179 91/269/180 103/279/181 102/152/182
s 1
f 91/270/183 90/46/175 104/48/184 103/278/185
s 2
f 94/151/167 93/271/186 253/392/187 252/113/188
f 93/271/186 92/47/179 254/115/189 253/392/187
s 1
f 98/50/190 97/274/191 335/450/192 334/53/193
f 97/274/191 104/48/184 336/49/178 335/450/192
s 2
f 100/51/194 99/275/195 111/285/196 110/153/197
s 1
f 99/276/198 98/50/190 112/52/199 111/284/200
s 2
f 102/152/182 101/277/201 261/398/202 260/116/203
f 101/277/201 100/51/194 262/118/204 261/398/202
s 1
f 106/54/205 105/280/206 333/449/207 332/57/208
f 105/280/206 112/52/199 334/53/193 333/449/207
s 2
f 108/55/209 107/281/210 119/291/211 118/154/212
s 1
f 107/282/213 106/54/205 120/56/214 119/290/215
s 2
f 110/153/197 109/283/216 269/404/217 268/119/218
f 109/283/216 108/55/209 270/121/219 269/404/217
s 1
f 114/58/220 113/286/221 331/448/222 330/61/223
f 113/286/221 120/56/214 332/57/208 331/448/222
s 2
f 116/59/224 115/287/225 127/297/226 126/155/227
s 1
f 115/288/228 114/58/220 128/60/229 127/296/230
s 2
f 118/154/212 117/289/231 277/410/232 276/122/233
f 117/289/231 116/59/224 278/124/234 277/410/232
s 1
f 122/62/235 121/292/236 329/447/237 328/65/238
f 121/292/236 128/60/229 330/61/223 329/447/237
s 2
f 124/63/239 123/293/240 135/303/241 134/156/242
s 1
f 123/294/243 122/62/235 136/64/244 135/302/245
s 2
f 126/155/227 125/295/246 285/416/247 284/125/248
f 125/295/246 124/63/239 286/127/249 285/416/247
s 1
f 130/66/250 129/298/251 327/446/252 326/69/253
f 129/298/251 136/64/244 328/65/238 327/446/252
s 2
f 132/67/254 131/299/255 143/309/256 142/157/257
s 1
f 131/300/258 130/66/250 144/68/259 143/308/260
s 2
f 134/156/242 133/301/261 293/422/262 292/128/263
f 133/301/261 132/67/254 294/130/264 293/422/262
s 1
f 138/70/265 137/304/266 325/445/267 324/73/268
f 137/304/266 144/68/259 326/69/253 325/445/267
s 2
f 140/71/269 139/305/270 151/315/271 150/158/272
s 1
f 139/306/273 138/70/265 152/72/274 151/314/275
s 2
f 142/157/257 141/307/276 301/428/277 300/131/278
f 141/307/276 140/71/269 302/133/279 301/428/277
s 1
f 146/74/280 145/310/281 323/444/282 322/78/283
f 145/310/281 152/72/274 324/73/268 323/444/282
s 2
f 148/75/284 147/311/285 159/321/286 158/159/287
s 1
f 147/312/288 146/74/280 160/77/289 159/320/290
s 2
f 150/158/272 149/313/291 309/434/292 308/134/293
f 149/313/291 148/75/284 310/136/294 309/434/292
s 1
f 154/162/21 153/316/295 321/443/296 360/76/6
f 153/316/295 160/77/289 322/78/283 321/443/296
s 2
f 158/159/287 157/319/297 317/440/298 316/137/299
f 157/319/297 156/79/23 318/80/300 317/440/298
s 40
f 162/81/301 161/322/302 363/464/303 362/140/304
f 161/322/302 168/163/305 364/84/306 363/464/303
s 2
f 164/160/17 163/323/307 319/442/308 318/80/300
s 40
f 163/324/309 162/81/301 320/139/310 319/441/311
f 168/163/305 167/327/312 171/331/313 170/164/314
s 2
f 167/328/315 166/82/18 172/83/38 171/330/316
s 40
f 170/164/314 169/329/317 365/465/318 364/84/306
f 169/329/317 176/165/319 366/87/320 365/465/318
f 176/165/319 175/333/321 179/337/322 178/166/323
s 2
f 175/334/324 174/85/39 180/86/53 179/336/325
s 40
f 178/166/323 177/335/326 367/466/327 366/87/320
f 177/335/326 184/167/328 368/90/329 367/466/327
f 184/167/328 183/339/330 187/343/331 186/168/332
s 2
f 183/340/333 182/88/54 188/89/68 187/342/334
s 40
f 186/168/332 185/341/335 369/467/336 368/90/329
f 185/341/335 192/169/337 370/93/338 369/467/336
f 192/169/337 191/345/339 195/349/340 194/170/341
s 2
f 191/346/342 190/91/69 196/92/83 195/348/343
s 40
f 194/170/341 193/347/344 371/468/345 370/93/338
f 193/347/344 200/171/346 372/96/347 371/468/345
f 200/171/346 199/351/348 203/355/349 202/172/350
s 2
f 199/352/351 198/94/84 204/95/98 203/354/352
s 40
f 202/172/350 201/353/353 373/469/354 372/96/347
f 201/353/353 208/173/355 374/99/356 373/469/354
f 208/173/355 207/357/357 211/361/358 210/174/359
s 2
f 207/358/360 206/97/99 212/98/113 211/360/361
s 40
f 210/174/359 209/359/362 375/470/363 374/99/356
f 209/359/362 216/175/364 376/102/365 375/470/363
f 216/175/364 215/363/366 219/367/367 218/176/368
s 2
f 215/364/369 214/100/114 220/101/128 219/366/370
s 40
f 218/176/368 217/365/371 377/471/372 376/102/365
f 217/365/371 224/177/373 378/105/374 377/471/372
f 224/177/373 223/369/375 227/373/376 226/178/377
s 2
f 223/370/378 222/103/129 228/104/143 227/372/379
s 40
f 226/178/377 225/371/380 379/472/381 378/105/374
f 225/371/380 232/179/382 380/108/383 379/472/381
f 232/179/382 231/375/384 235/379/385 234/180/386
s 2
f 231/376/387 230/106/144 236/107/158 235/378/388
s 40
f 234/180/386 233/377/389 381/473/390 380/108/383
f 233/377/389 240/181/391 382/111/392 381/473/390
f 240/181/391 239/381/393 243/385/394 242/182/395
s 2
f 239/382/396 238/109/159 244/110/173 243/384/397
s 40
f 242/182/395 241/383/398 383/474/399 382/111/392
f 241/383/398 248/183/400 384/114/401 383/474/399
f 248/183/400 247/387/402 251/391/403 250/184/404
s 2
f 247/388/405 246/112/174 252/113/188 251/390/406
s 40
f 250/184/404 249/389/407 385/475/408 384/114/401
f 249/389/407 256/185/409 386/117/410 385/475/408
f 256/185/409 255/393/411 259/397/412 258/186/413
s 2
f 255/394/414 254/115/189 260/116/203 259/396/415
s 40
f 258/186/413 257/395/416 387/476/417 386/117/410
f 257/395/416 264/187/418 388/120/419 387/476/417
f 264/187/418 263/399/420 267/403/421 266/188/422
s 2
f 263/400/423 262/118/204 268/119/218 267/402/424
s 40
f 266/188/422 265/401/425 389/477/426 388/120/419
f 265/401/425 272/189/427 390/123/428 389/477/426
f 272/189/427 271/405/429 275/409/430 274/190/431
s 2
f 271/406/432 270/121/219 276/122/233 275/408/433
s 40
f 274/190/431 273/407/434 391/478/435 390/123/428
f 273/407/434 280/191/436 392/126/437 391/478/435
f 280/191/436 279/411/438 283/415/439 282/192/440
s 2
f 279/412/441 278/124/234 284/125/248 283/414/442
s 40
f 282/192/440 281/413/443 393/479/444 392/126/437
f 281/413/443 288/193/445 394/129/446 393/479/444
f 288/193/445 287/417/447 291/421/448 290/194/449
s 2
f 287/418/450 286/127/249 292/128/263 291/420/451
s 40
f 290/194/449 289/419/452 395/480/453 394/129/446
f 289/419/452 296/195/454 396/132/455 395/480/453
f 296/195/454 295/423/456 299/427/457 298/196/458
s 2
f 295/424/459 294/130/264 300/131/278 299/426/460
s 40
f 298/196/458 297/425/461 397/481/462 396/132/455
f 297/425/461 304/197/463 398/135/464 397/481/462
f 304/197/463 303/429/465 307/433/466 306/198/467
s 2
f 303/430/468 302/133/279 308/134/293 307/432/469
s 40
f 306/198/467 305/431/470 399/482/471 398/135/464
f 305/431/470 312/199/472 400/138/473 399/482/471
f 312/199/472 311/435/474 315/439/475 314/200/476
s 2
f 311/436/477 310/136/294 316/137/299 315/438/478
s 40
f 314/200/476 313/437/479 361/463/480 400/138/473
f 313/437/479 320/139/310 362/140/304 361/463/480
s 2
f 4/2/7 14/141/10 172/83/38 166/82/18
f 12/7/29 22/142/32 180/86/53 174/85/39
f 20/11/44 30/143/47 188/89/68 182/88/54
f 28/15/59 38/144/62 196/92/83 190/91/69
f 36/19/74 46/145/77 204/95/98 198/94/84
f 44/23/89 54/146/92 212/98/113 206/97/99
f 52/27/104 62/147/107 220/101/128 214/100/114
f 60/31/119 70/148/122 228/104/143 222/103/129
f 68/35/134 78/149/137 236/107/158 230/106/144
f 76/39/149 86/150/152 244/110/173 238/109/159
f 84/43/164 94/151/167 252/113/188 246/112/174
f 92/47/179 102/152/182 260/116/203 254/115/189
f 100/51/194 110/153/197 268/119/218 262/118/204
f 108/55/209 118/154/212 276/122/233 270/121/219
f 116/59/224 126/155/227 284/125/248 278/124/234
f 124/63/239 134/156/242 292/128/263 286/127/249
f 132/67/254 142/157/257 300/131/278 294/130/264
f 140/71/269 150/158/272 308/134/293 302/133/279
f 148/75/284 158/159/287 316/137/299 310/136/294
f 156/79/23 6/3/14 164/160/17 318/80/300
s 1
f 16/4/12 2/1/1 358/5/4
f 24/8/34 10/6/25 356/9/28
f 32/12/49 18/10/40 354/13/43
f 40/16/64 26/14/55 352/17/58
f 48/20/79 34/18/70 350/21/73
f 56/24/94 42/22/85 348/25/88
f 64/28/109 50/26/100 346/29/103
f 72/32/124 58/30/115 344/33/118
f 80/36/139 66/34/130 342/37/133
f 88/40/154 74/38/145 340/41/148
f 96/44/169 82/42/160 338/45/163
f 104/48/184 90/46/175 336/49/178
f 112/52/199 98/50/190 334/53/193
f 120/56/214 106/54/205 332/57/208
f 128/60/229 114/58/220 330/61/223
f 136/64/244 122/62/235 328/65/238
f 144/68/259 130/66/250 326/69/253
f 152/72/274 138/70/265 324/73/268
f 160/77/289 146/74/280 322/78/283
f 8/161/5 154/162/21 360/76/6
s 40
f 168/163/305 170/164/314 364/84/306
f 176/165/319 178/166/323 366/87/320
f 184/167/328 186/168/332 368/90/329
f 192/169/337 194/170/341 370/93/338
f 200/171/346 202/172/350 372/96/347
f 208/173/355 210/174/359 374/99/356
f 216/175/364 218/176/368 376/102/365
f 224/177/373 226/178/377 378/105/374
f 232/179/382 234/180/386 380/108/383
f 240/181/391 242/182/395 382/111/392
f 248/183/400 250/184/404 384/114/401
f 256/185/409 258/186/413 386/117/410
f 264/187/418 266/188/422 388/120/419
f 272/189/427 274/190/431 390/123/428
f 280/191/436 282/192/440 392/126/437
f 288/193/445 290/194/449 394/129/446
f 296/195/454 298/196/458 396/132/455
f 304/197/463 306/198/467 398/135/464
f 312/199/472 314/200/476 400/138/473
f 320/139/310 162/81/301 362/140/304
s 1
f 7/206/19 8/161/5 1/201/2 401/485/481
f 1/201/2 2/1/1 3/203/11 401/485/481
s 2
f 3/202/8 4/2/7 5/205/15 401/483/482
f 5/204/15 6/3/14 7/207/22 401/484/482
s 1
f 15/212/13 16/4/12 9/208/26 402/487/483
f 9/208/26 10/6/25 11/210/33 402/487/483
s 2
f 11/209/30 12/7/29 13/211/36 402/486/484
f 13/211/36 14/141/10 15/213/9 402/486/484
s 1
f 23/218/35 24/8/34 17/214/41 403/489/485
f 17/214/41 18/10/40 19/216/48 403/489/485
s 2
f 19/215/45 20/11/44 21/217/51 403/488/486
f 21/217/51 22/142/32 23/219/31 403/488/486
s 1
f 31/224/50 32/12/49 25/220/56 404/491/487
f 25/220/56 26/14/55 27/222/63 404/491/487
s 2
f 27/221/60 28/15/59 29/223/66 404/490/488
f 29/223/66 30/143/47 31/225/46 404/490/488
s 1
f 39/230/65 40/16/64 33/226/71 405/493/489
f 33/226/71 34/18/70 35/228/78 405/493/489
s 2
f 35/227/75 36/19/74 37/229/81 405/492/490
f 37/229/81 38/144/62 39/231/61 405/492/490
s 1
f 47/236/80 48/20/79 41/232/86 406/495/491
f 41/232/86 42/22/85 43/234/93 406/495/491
s 2
f 43/233/90 44/23/89 45/235/96 406/494/492
f 45/235/96 46/145/77 47/237/76 406/494/492
s 1
f 55/242/95 56/24/94 49/238/101 407/497/493
f 49/238/101 50/26/100 51/240/108 407/497/493
s 2
f 51/239/105 52/27/104 53/241/111 407/496/494
f 53/241/111 54/146/92 55/243/91 407/496/494
s 1
f 63/248/110 64/28/109 57/244/116 408/499/495
f 57/244/116 58/30/115 59/246/123 408/499/495
s 2
f 59/245/120 60/31/119 61/247/126 408/498/496
f 61/247/126 62/147/107 63/249/106 408/498/496
s 1
f 71/254/125 72/32/124 65/250/131 409/501/497
f 65/250/131 66/34/130 67/252/138 409/501/497
s 2
f 67/251/135 68/35/134 69/253/141 409/500/498
f 69/253/141 70/148/122 71/255/121 409/500/498
s 1
f 79/260/140 80/36/139 73/256/146 410/503/499
f 73/256/146 74/38/145 75/258/153 410/503/499
s 2
f 75/257/150 76/39/149 77/259/156 410/502/500
f 77/259/156 78/149/137 79/261/136 410/502/500
s 1
f 87/266/155 88/40/154 81/262/161 411/505/501
f 81/262/161 82/42/160 83/264/168 411/505/501
s 2
f 83/263/165 84/43/164 85/265/171 411/504/502
f 85/265/171 86/150/152 87/267/151 411/504/502
s 1
f 95/272/170 96/44/169 89/268/176 412/507/503
f 89/268/176 90/46/175 91/270/183 412/507/503
s 2
f 91/269/180 92/47/179 93/271/186 412/506/504
f 93/271/186 94/151/167 95/273/166 412/506/504
s 1
f 103/278/185 104/48/184 97/274/191 413/509/505
f 97/274/191 98/50/190 99/276/198 413/509/505
s 2
f 99/275/195 100/51/194 101/277/201 413/508/506
f 101/277/201 102/152/182 103/279/181 413/508/506
s 1
f 111/284/200 112/52/199 105/280/206 414/511/507
f 105/280/206 106/54/205 107/282/213 414/511/507
s 2
f 107/281/210 108/55/209 109/283/216 414/510/508
f 109/283/216 110/153/197 111/285/196 414/510/508
s 1
f 119/290/215 120/56/214 113/286/221 415/513/509
f 113/286/221 114/58/220 115/288/228 415/513/509
s 2
f 115/287/225 116/59/224 117/289/231 415/512/510
f 117/289/231 118/154/212 119/291/211 415/512/510
s 1
f 127/296/230 128/60/229 121/292/236 416/515/511
f 121/292/236 122/62/235 123/294/243 416/515/511
s 2
f 123/293/240 124/63/239 125/295/246 416/514/512
f 125/295/246 126/155/227 127/297/226 416/514/512
s 1
f 135/302/245 136/64/244 129/298/251 417/517/513
f 129/298/251 130/66/250 131/300/258 417/517/513
s 2
f 131/299/255 132/67/254 133/301/261 417/516/514
f 133/301/261 134/156/242 135/303/241 417/516/514
s 1
f 143/308/260 144/68/259 137/304/266 418/519/515
f 137/304/266 138/70/265 139/306/273 418/519/515
s 2
f 139/305/270 140/71/269 141/307/276 418/518/516
f 141/307/276 142/157/257 143/309/256 418/518/516
s 1
f 151/314/275 152/72/274 145/310/281 419/521/517
f 145/310/281 146/74/280 147/312/288 419/521/517
s 2
f 147/311/285 148/75/284 149/313/291 419/520/518
f 149/313/291 150/158/272 151/315/271 419/520/518
s 1
f 159/320/290 160/77/289 153/316/295 420/523/519
f 153/316/295 154/162/21 155/318/20 420/523/519
s 2
f 155/317/24 156/79/23 157/319/297 420/522/520
f 157/319/297 158/159/287 159/321/286 420/522/520
s 40
f 167/327/312 168/163/305 161/322/302 421/526/521
f 161/322/302 162/81/301 163/324/309 421/526/521
s 2
f 163/323/307 164/160/17 165/326/16 421/524/522
f 165/325/16 166/82/18 167/328/315 421/525/522
s 40
f 175/333/321 176/165/319 169/329/317 422/528/523
f 169/329/317 170/164/314 171/331/313 422/528/523
s 2
f 171/330/316 172/83/38 173/332/37 422/527/524
f 173/332/37 174/85/39 175/334/324 422/527/524
s 40
f 183/339/330 184/167/328 177/335/326 423/530/525
f 177/335/326 178/166/323 179/337/322 423/530/525
s 2
f 179/336/325 180/86/53 181/338/52 423/529/526
f 181/338/52 182/88/54 183/340/333 423/529/526
s 40
f 191/345/339 192/169/337 185/341/335 424/532/527
f 185/341/335 186/168/332 187/343/331 424/532/527
s 2
f 187/342/334 188/89/68 189/344/67 424/531/528
f 189/344/67 190/91/69 191/346/342 424/531/528
s 40
f 199/351/348 200/171/346 193/347/344 425/534/529
f 193/347/344 194/170/341 195/349/340 425/534/529
s 2
f 195/348/343 196/92/83 197/350/82 425/533/530
f 197/350/82 198/94/84 199/352/351 425/533/530
s 40
f 207/357/357 208/173/355 201/353/353 426/536/531
f 201/353/353 202/172/350 203/355/349 426/536/531
s 2
f 203/354/352 204/95/98 205/356/97 426/535/532
f 205/356/97 206/97/99 207/358/360 426/535/532
s 40
f 215/363/366 216/175/364 209/359/362 427/538/533
f 209/359/362 210/174/359 211/361/358 427/538/533
s 2
f 211/360/361 212/98/113 213/362/112 427/537/534
f 213/362/112 214/100/114 215/364/369 427/537/534
s 40
f 223/369/375 224/177/373 217/365/371 428/540/535
f 217/365/371 218/176/368 219/367/367 428/540/535
s 2
f 219/366/370 220/101/128 221/368/127 428/539/536
f 221/368/127 222/103/129 223/370/378 428/539/536
s 40
f 231/375/384 232/179/382 225/371/380 429/542/537
f 225/371/380 226/178/377 227/373/376 429/542/537
s 2
f 227/372/379 228/104/143 229/374/142 429/541/538
f 229/374/142 230/106/144 231/376/387 429/541/538
s 40
f 239/381/393 240/181/391 233/377/389 430/544/539
f 233/377/389 234/180/386 235/379/385 430/544/539
s 2
f 235/378/388 236/107/158 237/380/157 430/543/540
f 237/380/157 238/109/159 239/382/396 430/543/540
s 40
f 247/387/402 248/183/400 241/383/398 431/546/541
f 241/383/398 242/182/395 243/385/394 431/546/541
s 2
f 243/384/397 244/110/173 245/386/172 431/545/542
f 245/386/172 246/112/174 247/388/405 431/545/542
s 40
f 255/393/411 256/185/409 249/389/407 432/548/543
f 249/389/407 250/184/404 251/391/403 432/548/543
s 2
f 251/390/406 252/113/188 253/392/187 432/547/544
f 253/392/187 254/115/189 255/394/414 432/547/544
s 40
f 263/399/420 264/187/418 257/395/416 433/550/545
f 257/395/416 258/186/413 259/397/412 433/550/545
s 2
f 259/396/415 260/116/203 261/398/202 433/549/546
f 261/398/202 262/118/204 263/400/423 433/549/546
s 40
f 271/405/429 272/189/427 265/401/425 434/552/547
f 265/401/425 266/188/422 267/403/421 434/552/547
s 2
f 267/402/424 268/119/218 269/404/217 434/551/548
f 269/404/217 270/121/219 271/406/432 434/551/548
s 40
f 279/411/438 280/191/436 273/407/434 435/554/549
f 273/407/434 274/190/431 275/409/430 435/554/549
s 2
f 275/408/433 276/122/233 277/410/232 435/553/550
f 277/410/232 278/124/234 279/412/441 435/553/550
s 40
f 287/417/447 288/193/445 281/413/443 436/556/551
f 281/413/443 282/192/440 283/415/439 436/556/551
s 2
f 283/414/442 284/125/248 285/416/247 436/555/552
f 285/416/247 286/127/249 287/418/450 436/555/552
s 40
f 295/423/456 296/195/454 289/419/452 437/558/553
f 289/419/452 290/194/449 291/421/448 437/558/553
s 2
f 291/420/451 292/128/263 293/422/262 437/557/554
f 293/422/262 294/130/264 295/424/459 437/557/554
s 40
f 303/429/465 304/197/463 297/425/461 438/560/555
f 297/425/461 298/196/458 299/427/457 438/560/555
s 2
f 299/426/460 300/131/278 301/428/277 438/559/556
f 301/428/277 302/133/279 303/430/468 438/559/556
s 40
f 311/435/474 312/199/472 305/431/470 439/562/557
f 305/431/470 306/198/467 307/433/466 439/562/557
s 2
f 307/432/469 308/134/293 309/434/292 439/561/558
f 309/434/292 310/136/294 311/436/477 439/561/558
s 40
f 319/441/311 320/139/310 313/437/479 440/564/559
f 313/437/479 314/200/476 315/439/475 440/564/559
s 2
f 315/438/478 316/137/299 317/440/298 440/563/560
f 317/440/298 318/80/300 319/442/308 440/563/560
s 1
f 359/462/3 360/76/6 321/443/296 441/565/561
f 321/443/296 322/78/283 323/444/282 441/565/561
f 323/444/282 324/73/268 325/445/267 441/565/561
f 325/445/267 326/69/253 327/446/252 441/565/561
f 327/446/252 328/65/238 329/447/237 441/565/561
f 329/447/237 330/61/223 331/448/222 441/565/561
f 331/448/222 332/57/208 333/449/207 441/565/561
f 333/449/207 334/53/193 335/450/192 441/565/561
f 335/450/192 336/49/178 337/451/177 441/565/561
f 337/451/177 338/45/163 339/452/162 441/565/561
f 339/452/162 340/41/148 341/453/147 441/565/561
f 341/453/147 342/37/133 343/454/132 441/565/561
f 343/454/132 344/33/118 345/455/117 441/565/561
f 345/455/117 346/29/103 347/456/102 441/565/561
f 347/456/102 348/25/88 349/457/87 441/565/561
f 349/457/87 350/21/73 351/458/72 441/565/561
f 351/458/72 352/17/58 353/459/57 441/565/561
f 353/459/57 354/13/43 355/460/42 441/565/561
f 355/460/42 356/9/28 357/461/27 441/565/561
f 357/461/27 358/5/4 359/462/3 441/565/561
s 40
f 399/482/471 400/138/473 361/463/480 442/566/562
f 361/463/480 362/140/304 363/464/303 442/566/562
f 363/464/303 364/84/306 365/465/318 442/566/562
f 365/465/318 366/87/320 367/466/327 442/566/562
f 367/466/327 368/90/329 369/467/336 442/566/562
f 369/467/336 370/93/338 371/468/345 442/566/562
f 371/468/345 372/96/347 373/469/354 442/566/562
f 373/469/354 374/99/356 375/470/363 442/566/562
f 375/470/363 376/102/365 377/471/372 442/566/562
f 377/471/372 378/105/374 379/472/381 442/566/562
f 379/472/381 380/108/383 381/473/390 442/566/562
f 381/473/390 382/111/392 383/474/399 442/566/562
f 383/474/399 384/114/401 385/475/408 442/566/562
f 385/475/408 386/117/410 387/476/417 442/566/562
f 387/476/417 388/120/419 389/477/426 442/566/562
f 389/477/426 390/123/428 391/478/435 442/566/562
f 391/478/435 392/126/437 393/479/444 442/566/562
f 393/479/444 394/129/446 395/480/453 442/566/562
f 395/480/453 396/132/455 397/481/462 442/566/562
f 397/481/462 398/135/464 399/482/471 442/566/562
